<?xml version="1.0" encoding="utf-8" standalone="no"?>
<!DOCTYPE svg PUBLIC "-//W3C//DTD SVG 1.1//EN"
  "http://www.w3.org/Graphics/SVG/1.1/DTD/svg11.dtd">
<svg xmlns:xlink="http://www.w3.org/1999/xlink" width="720pt" height="432pt" viewBox="0 0 720 432" xmlns="http://www.w3.org/2000/svg" version="1.1">
 <metadata>
  <rdf:RDF xmlns:dc="http://purl.org/dc/elements/1.1/" xmlns:cc="http://creativecommons.org/ns#" xmlns:rdf="http://www.w3.org/1999/02/22-rdf-syntax-ns#">
   <cc:Work>
    <dc:type rdf:resource="http://purl.org/dc/dcmitype/StillImage"/>
    <dc:date>2024-06-18T13:11:17.955518</dc:date>
    <dc:format>image/svg+xml</dc:format>
    <dc:creator>
     <cc:Agent>
      <dc:title>Matplotlib v3.8.3, https://matplotlib.org/</dc:title>
     </cc:Agent>
    </dc:creator>
   </cc:Work>
  </rdf:RDF>
 </metadata>
 <defs>
  <style type="text/css">*{stroke-linejoin: round; stroke-linecap: butt}</style>
 </defs>
 <g id="figure_1">
  <g id="patch_1">
   <path d="M 0 432 
L 720 432 
L 720 0 
L 0 0 
z
" style="fill: #ffffff"/>
  </g>
  <g id="axes_1">
   <g id="patch_2">
    <path d="M 90 384.48 
L 536.4 384.48 
L 536.4 51.84 
L 90 51.84 
z
" style="fill: #ffffff"/>
   </g>
   <g id="QuadContourSet_1">
    <path clip-path="url(#p04a88768bf)" style="fill: #460b5e"/>
    <path clip-path="url(#p04a88768bf)" style="fill: #482071"/>
    <path clip-path="url(#p04a88768bf)" style="fill: #46337f"/>
    <path clip-path="url(#p04a88768bf)" style="fill: #404588"/>
    <path clip-path="url(#p04a88768bf)" style="fill: #39558c"/>
    <path clip-path="url(#p04a88768bf)" style="fill: #32658e"/>
    <path clip-path="url(#p04a88768bf)" style="fill: #2c738e"/>
    <path clip-path="url(#p04a88768bf)" style="fill: #26828e"/>
    <path d="M 94.509091 384.48 
L 99.018182 384.48 
L 103.527273 384.48 
L 108.036364 384.48 
L 112.545455 384.48 
L 117.054545 384.48 
L 121.563636 384.48 
L 126.072727 384.48 
L 130.581818 384.48 
L 135.090909 384.48 
L 139.6 384.48 
L 144.109091 384.48 
L 148.618182 384.48 
L 153.127273 384.48 
L 157.636364 384.48 
L 162.145455 384.48 
L 166.654545 384.48 
L 171.163636 384.48 
L 175.672727 384.48 
L 180.181818 384.48 
L 184.690909 384.48 
L 189.2 384.48 
L 193.709091 384.48 
L 198.218182 384.48 
L 202.727273 384.48 
L 207.236364 384.48 
L 211.745455 384.48 
L 216.254545 384.48 
L 220.763636 384.48 
L 225.272727 384.48 
L 229.781818 384.48 
L 234.290909 384.48 
L 238.8 384.48 
L 243.309091 384.48 
L 247.818182 384.48 
L 252.327273 384.48 
L 256.836364 384.48 
L 261.345455 384.48 
L 265.854545 384.48 
L 270.363636 384.48 
L 274.872727 384.48 
L 279.381818 384.48 
L 283.890909 384.48 
L 288.4 384.48 
L 292.909091 384.48 
L 297.418182 384.48 
L 301.927273 384.48 
L 306.436364 384.48 
L 310.945455 384.48 
L 315.454545 384.48 
L 319.963636 384.48 
L 324.472727 384.48 
L 328.981818 384.48 
L 333.490909 384.48 
L 338 384.48 
L 342.509091 384.48 
L 347.018182 384.48 
L 351.527273 384.48 
L 356.036364 384.48 
L 360.545455 384.48 
L 365.054545 384.48 
L 369.563636 384.48 
L 374.072727 384.48 
L 378.581818 384.48 
L 383.090909 384.48 
L 387.6 384.48 
L 392.109091 384.48 
L 396.618182 384.48 
L 401.127273 384.48 
L 405.636364 384.48 
L 410.145455 384.48 
L 414.654545 384.48 
L 419.163636 384.48 
L 423.672727 384.48 
L 428.181818 384.48 
L 432.690909 384.48 
L 437.2 384.48 
L 441.709091 384.48 
L 446.218182 384.48 
L 450.727273 384.48 
L 455.236364 384.48 
L 459.745455 384.48 
L 464.254545 384.48 
L 468.763636 384.48 
L 473.272727 384.48 
L 477.781818 384.48 
L 482.290909 384.48 
L 486.8 384.48 
L 491.309091 384.48 
L 495.818182 384.48 
L 500.327273 384.48 
L 504.836364 384.48 
L 509.345455 384.48 
L 513.854545 384.48 
L 518.363636 384.48 
L 522.872727 384.48 
L 527.381818 384.48 
L 531.890909 384.48 
L 536.4 384.48 
L 536.4 381.12 
L 536.4 377.76 
L 536.4 374.4 
L 536.4 371.04 
L 536.4 367.68 
L 536.4 364.32 
L 536.4 360.96 
L 536.4 357.6 
L 536.4 354.24 
L 536.4 350.88 
L 536.4 347.52 
L 536.4 344.16 
L 536.4 340.8 
L 536.4 337.44 
L 536.4 334.08 
L 536.4 330.72 
L 536.4 327.36 
L 536.4 324 
L 536.4 320.64 
L 536.4 317.28 
L 536.4 313.92 
L 536.4 310.56 
L 536.4 307.2 
L 536.4 303.84 
L 536.4 300.48 
L 536.4 297.12 
L 536.4 293.76 
L 536.4 290.4 
L 536.4 287.04 
L 536.4 283.68 
L 536.4 280.32 
L 536.4 276.96 
L 536.4 273.6 
L 536.4 270.24 
L 536.4 266.88 
L 536.4 263.52 
L 536.4 260.16 
L 536.4 256.8 
L 536.4 253.44 
L 536.4 250.08 
L 536.4 246.72 
L 536.4 243.36 
L 536.4 240 
L 536.4 236.64 
L 536.4 233.28 
L 536.4 229.92 
L 536.4 226.56 
L 536.4 223.2 
L 536.4 219.84 
L 536.4 216.48 
L 536.4 213.12 
L 536.4 209.76 
L 536.4 206.4 
L 536.4 203.04 
L 536.4 199.68 
L 536.4 196.32 
L 536.4 192.96 
L 536.4 189.6 
L 536.4 186.24 
L 536.4 182.88 
L 536.4 179.52 
L 536.4 176.16 
L 536.4 172.8 
L 536.4 169.44 
L 536.4 166.08 
L 536.4 162.72 
L 536.4 159.36 
L 536.4 156 
L 536.4 152.64 
L 536.4 151.935737 
L 531.890909 151.496791 
L 527.381818 151.057845 
L 522.872727 150.618898 
L 518.363636 150.179952 
L 513.854545 149.653912 
L 511.332254 149.28 
L 509.345455 148.973637 
L 504.836364 148.269555 
L 500.327273 147.552295 
L 495.818182 146.857905 
L 491.309091 146.205602 
L 488.790795 145.92 
L 486.8 145.694222 
L 482.290909 145.182842 
L 477.781818 144.671462 
L 473.272727 144.199063 
L 468.763636 143.736409 
L 464.254545 143.19714 
L 460.260213 142.56 
L 459.745455 142.473727 
L 455.236364 141.718012 
L 450.727273 140.962296 
L 446.218182 140.216676 
L 441.709091 139.511435 
L 439.717871 139.2 
L 437.2 138.806195 
L 432.690909 138.100954 
L 428.181818 137.395713 
L 423.672727 136.690473 
L 419.163636 135.996549 
L 418.094637 135.84 
L 414.654545 135.460865 
L 410.145455 134.920188 
L 405.636364 134.379511 
L 401.127273 133.838834 
L 396.618182 133.298157 
L 392.109091 132.75748 
L 390.279025 132.48 
L 387.6 132.085062 
L 383.090909 131.444853 
L 378.581818 130.887247 
L 374.072727 130.385993 
L 369.563636 129.884739 
L 365.054545 129.383485 
L 362.68433 129.12 
L 360.545455 128.882232 
L 356.036364 128.311909 
L 351.527273 127.637985 
L 347.018182 127.010069 
L 342.509091 126.449065 
L 338 125.971887 
L 335.997774 125.76 
L 333.490909 125.494709 
L 328.981818 125.017532 
L 324.472727 124.547829 
L 319.963636 124.079995 
L 315.454545 123.581081 
L 310.945455 122.894372 
L 308.034263 122.4 
L 306.436364 122.128648 
L 301.927273 121.362925 
L 297.418182 120.61256 
L 292.909091 119.92363 
L 288.4 119.2347 
L 287.125676 119.04 
L 283.890909 118.54577 
L 279.381818 117.85684 
L 274.872727 117.182902 
L 270.363636 116.566484 
L 265.854545 116.1064 
L 263.109501 115.68 
L 261.345455 115.445532 
L 256.836364 114.846207 
L 252.327273 114.246882 
L 247.818182 113.647556 
L 243.309091 113.048231 
L 238.8 112.448906 
L 237.778208 112.32 
L 234.290909 111.943492 
L 229.781818 111.456666 
L 225.272727 110.96984 
L 220.763636 110.483015 
L 216.254545 109.986874 
L 211.745455 109.317578 
L 209.468158 108.96 
L 207.236364 108.609567 
L 202.727273 107.94202 
L 198.218182 107.34851 
L 193.709091 106.810837 
L 189.2 106.306216 
L 184.690909 105.801595 
L 182.889539 105.6 
L 180.181818 105.296974 
L 175.672727 104.957461 
L 171.163636 104.659227 
L 166.654545 104.360992 
L 162.145455 103.976723 
L 157.636364 103.478372 
L 153.127273 102.973516 
L 148.618182 102.569631 
L 144.109091 102.569631 
L 139.6 102.569631 
L 135.090909 102.569631 
L 130.581818 102.569631 
L 126.072727 102.569631 
L 121.563636 102.569631 
L 117.054545 102.569631 
L 112.545455 102.569631 
L 108.036364 102.569631 
L 103.527273 102.569631 
L 99.018182 102.569631 
L 94.509091 102.569631 
L 90 102.569631 
L 90 105.6 
L 90 108.96 
L 90 112.32 
L 90 115.68 
L 90 119.04 
L 90 122.4 
L 90 125.76 
L 90 129.12 
L 90 132.48 
L 90 135.84 
L 90 139.2 
L 90 142.56 
L 90 145.92 
L 90 149.28 
L 90 152.64 
L 90 156 
L 90 159.36 
L 90 162.72 
L 90 166.08 
L 90 169.44 
L 90 172.8 
L 90 176.16 
L 90 179.52 
L 90 182.88 
L 90 186.24 
L 90 189.6 
L 90 192.96 
L 90 196.32 
L 90 199.68 
L 90 203.04 
L 90 206.4 
L 90 209.76 
L 90 213.12 
L 90 216.48 
L 90 219.84 
L 90 223.2 
L 90 226.56 
L 90 229.92 
L 90 233.28 
L 90 236.64 
L 90 240 
L 90 243.36 
L 90 246.72 
L 90 250.08 
L 90 253.44 
L 90 256.8 
L 90 260.16 
L 90 263.52 
L 90 266.88 
L 90 270.24 
L 90 273.6 
L 90 276.96 
L 90 280.32 
L 90 283.68 
L 90 287.04 
L 90 290.4 
L 90 293.76 
L 90 297.12 
L 90 300.48 
L 90 303.84 
L 90 307.2 
L 90 310.56 
L 90 313.92 
L 90 317.28 
L 90 320.64 
L 90 324 
L 90 327.36 
L 90 330.72 
L 90 334.08 
L 90 337.44 
L 90 340.8 
L 90 344.16 
L 90 347.52 
L 90 350.88 
L 90 354.24 
L 90 357.6 
L 90 360.96 
L 90 364.32 
L 90 367.68 
L 90 371.04 
L 90 374.4 
L 90 377.76 
L 90 381.12 
L 90 384.48 
z
" clip-path="url(#p04a88768bf)" style="fill: #21918c"/>
    <path d="M 513.854545 149.653912 
L 518.363636 150.179952 
L 522.872727 150.618898 
L 527.381818 151.057845 
L 531.890909 151.496791 
L 536.4 151.935737 
L 536.4 149.28 
L 536.4 145.92 
L 536.4 142.56 
L 536.4 139.2 
L 536.4 135.84 
L 536.4 132.48 
L 536.4 129.12 
L 536.4 127.343115 
L 531.890909 126.660612 
L 527.381818 125.979695 
L 525.914766 125.76 
L 522.872727 125.306097 
L 518.363636 124.748769 
L 513.854545 124.217527 
L 509.345455 123.686285 
L 504.836364 123.148331 
L 500.327273 122.600309 
L 498.67914 122.4 
L 495.818182 122.043667 
L 491.309091 121.399436 
L 486.8 120.73792 
L 482.290909 120.076405 
L 477.781818 119.41489 
L 475.194001 119.04 
L 473.272727 118.76167 
L 468.763636 118.110525 
L 464.254545 117.45938 
L 459.745455 116.808235 
L 455.236364 116.157089 
L 451.932586 115.68 
L 450.727273 115.521615 
L 446.218182 115.003659 
L 441.709091 114.422975 
L 437.2 113.806692 
L 432.690909 113.190408 
L 428.181818 112.574124 
L 426.322499 112.32 
L 423.672727 111.992141 
L 419.163636 111.383637 
L 414.654545 110.70853 
L 410.145455 110.093467 
L 405.636364 109.537616 
L 401.127273 108.987945 
L 400.898034 108.96 
L 396.618182 108.438274 
L 392.109091 107.888603 
L 387.6 107.338932 
L 383.090909 106.81433 
L 378.581818 106.289728 
L 374.072727 105.765126 
L 372.687815 105.6 
L 369.563636 105.215575 
L 365.054545 104.573358 
L 360.545455 103.931141 
L 356.036364 103.340923 
L 351.527273 102.828706 
L 347.018182 102.316488 
L 346.445186 102.24 
L 342.509091 101.688399 
L 338 100.993723 
L 333.490909 100.299047 
L 328.981818 99.604371 
L 324.472727 98.937807 
L 324.077513 98.88 
L 319.963636 98.278272 
L 315.454545 97.618737 
L 310.945455 96.959201 
L 306.436364 96.299666 
L 301.927273 95.644868 
L 300.906533 95.52 
L 297.418182 95.12047 
L 292.909091 94.557529 
L 288.4 93.928379 
L 283.890909 93.299229 
L 279.381818 92.670078 
L 275.726111 92.16 
L 274.872727 92.057615 
L 270.363636 91.49474 
L 265.854545 90.89861 
L 261.345455 90.354209 
L 256.836364 89.809809 
L 252.327273 89.265409 
L 248.472443 88.8 
L 247.818182 88.719452 
L 243.309091 88.092459 
L 238.8 87.399552 
L 234.290909 86.759382 
L 229.781818 86.130534 
L 225.272727 85.530208 
L 224.53992 85.44 
L 220.763636 84.97514 
L 216.254545 84.420072 
L 211.745455 83.865004 
L 207.236364 83.330309 
L 202.727273 82.826172 
L 198.218182 82.322035 
L 196.294066 82.08 
L 193.709091 81.737704 
L 189.2 81.041042 
L 184.690909 80.344381 
L 180.181818 79.64772 
L 175.672727 79.117396 
L 172.006365 78.72 
L 171.163636 78.628657 
L 166.654545 78.139918 
L 162.145455 77.651178 
L 157.636364 77.172031 
L 153.127273 76.741077 
L 148.618182 76.444228 
L 144.109091 76.444228 
L 139.6 76.444228 
L 135.090909 76.444228 
L 130.581818 76.444228 
L 126.072727 76.444228 
L 121.563636 76.444228 
L 117.054545 76.444228 
L 112.545455 76.444228 
L 108.036364 76.444228 
L 103.527273 76.444228 
L 99.018182 76.444228 
L 94.509091 76.444228 
L 90 76.444228 
L 90 78.72 
L 90 82.08 
L 90 85.44 
L 90 88.8 
L 90 92.16 
L 90 95.52 
L 90 98.88 
L 90 102.24 
L 90 102.569631 
L 94.509091 102.569631 
L 99.018182 102.569631 
L 103.527273 102.569631 
L 108.036364 102.569631 
L 112.545455 102.569631 
L 117.054545 102.569631 
L 121.563636 102.569631 
L 126.072727 102.569631 
L 130.581818 102.569631 
L 135.090909 102.569631 
L 139.6 102.569631 
L 144.109091 102.569631 
L 148.618182 102.569631 
L 153.127273 102.973516 
L 157.636364 103.478372 
L 162.145455 103.976723 
L 166.654545 104.360992 
L 171.163636 104.659227 
L 175.672727 104.957461 
L 180.181818 105.296974 
L 182.889539 105.6 
L 184.690909 105.801595 
L 189.2 106.306216 
L 193.709091 106.810837 
L 198.218182 107.34851 
L 202.727273 107.94202 
L 207.236364 108.609567 
L 209.468158 108.96 
L 211.745455 109.317578 
L 216.254545 109.986874 
L 220.763636 110.483015 
L 225.272727 110.96984 
L 229.781818 111.456666 
L 234.290909 111.943492 
L 237.778208 112.32 
L 238.8 112.448906 
L 243.309091 113.048231 
L 247.818182 113.647556 
L 252.327273 114.246882 
L 256.836364 114.846207 
L 261.345455 115.445532 
L 263.109501 115.68 
L 265.854545 116.1064 
L 270.363636 116.566484 
L 274.872727 117.182902 
L 279.381818 117.85684 
L 283.890909 118.54577 
L 287.125676 119.04 
L 288.4 119.2347 
L 292.909091 119.92363 
L 297.418182 120.61256 
L 301.927273 121.362925 
L 306.436364 122.128648 
L 308.034263 122.4 
L 310.945455 122.894372 
L 315.454545 123.581081 
L 319.963636 124.079995 
L 324.472727 124.547829 
L 328.981818 125.017532 
L 333.490909 125.494709 
L 335.997774 125.76 
L 338 125.971887 
L 342.509091 126.449065 
L 347.018182 127.010069 
L 351.527273 127.637985 
L 356.036364 128.311909 
L 360.545455 128.882232 
L 362.68433 129.12 
L 365.054545 129.383485 
L 369.563636 129.884739 
L 374.072727 130.385993 
L 378.581818 130.887247 
L 383.090909 131.444853 
L 387.6 132.085062 
L 390.279025 132.48 
L 392.109091 132.75748 
L 396.618182 133.298157 
L 401.127273 133.838834 
L 405.636364 134.379511 
L 410.145455 134.920188 
L 414.654545 135.460865 
L 418.094637 135.84 
L 419.163636 135.996549 
L 423.672727 136.690473 
L 428.181818 137.395713 
L 432.690909 138.100954 
L 437.2 138.806195 
L 439.717871 139.2 
L 441.709091 139.511435 
L 446.218182 140.216676 
L 450.727273 140.962296 
L 455.236364 141.718012 
L 459.745455 142.473727 
L 460.260213 142.56 
L 464.254545 143.19714 
L 468.763636 143.736409 
L 473.272727 144.199063 
L 477.781818 144.671462 
L 482.290909 145.182842 
L 486.8 145.694222 
L 488.790795 145.92 
L 491.309091 146.205602 
L 495.818182 146.857905 
L 500.327273 147.552295 
L 504.836364 148.269555 
L 509.345455 148.973637 
L 511.332254 149.28 
z
" clip-path="url(#p04a88768bf)" style="fill: #1f9f88"/>
    <path d="M 527.381818 125.979695 
L 531.890909 126.660612 
L 536.4 127.343115 
L 536.4 125.76 
L 536.4 122.4 
L 536.4 119.04 
L 536.4 115.68 
L 536.4 112.32 
L 536.4 108.96 
L 536.4 107.865077 
L 531.890909 107.294307 
L 527.381818 106.723536 
L 522.872727 106.152765 
L 518.608245 105.6 
L 518.363636 105.567225 
L 513.854545 104.870992 
L 509.345455 104.174759 
L 504.836364 103.50058 
L 500.327273 102.859482 
L 495.970222 102.24 
L 495.818182 102.218383 
L 491.309091 101.577284 
L 486.8 100.980561 
L 482.290909 100.415863 
L 477.781818 99.872666 
L 473.272727 99.24953 
L 470.681857 98.88 
L 468.763636 98.606409 
L 464.254545 97.963288 
L 459.745455 97.320167 
L 455.236364 96.677047 
L 450.727273 96.049887 
L 446.505735 95.52 
L 446.218182 95.48565 
L 441.709091 94.887885 
L 437.2 94.237314 
L 432.690909 93.586743 
L 428.181818 92.936171 
L 423.672727 92.2856 
L 422.802195 92.16 
L 419.163636 91.687856 
L 414.654545 91.121446 
L 410.145455 90.567498 
L 405.636364 90.013551 
L 401.127273 89.459603 
L 396.618182 88.905656 
L 395.82316 88.8 
L 392.109091 88.290718 
L 387.6 87.619006 
L 383.090909 86.966775 
L 378.581818 86.333902 
L 374.072727 85.73893 
L 371.57267 85.44 
L 369.563636 85.199782 
L 365.054545 84.660634 
L 360.545455 84.121485 
L 356.036364 83.539632 
L 351.527273 82.89372 
L 347.018182 82.247808 
L 345.84672 82.08 
L 342.509091 81.601896 
L 338 81.00517 
L 333.490909 80.425306 
L 328.981818 79.853381 
L 324.472727 79.304601 
L 319.963636 78.761608 
L 319.670501 78.72 
L 315.454545 78.09953 
L 310.945455 77.420441 
L 306.436364 76.741352 
L 301.927273 76.062262 
L 297.418182 75.411032 
L 297.01909 75.36 
L 292.909091 74.834763 
L 288.4 74.185012 
L 283.890909 73.535262 
L 279.381818 72.885511 
L 274.872727 72.235761 
L 273.236612 72 
L 270.363636 71.641322 
L 265.854545 71.082192 
L 261.345455 70.5256 
L 256.836364 69.969009 
L 252.327273 69.412418 
L 247.818182 68.855826 
L 246.144049 68.64 
L 243.309091 68.263444 
L 238.8 67.594502 
L 234.290909 67.064684 
L 229.781818 66.534867 
L 225.272727 66.00505 
L 220.763636 65.475233 
L 219.335207 65.28 
L 216.254545 64.842572 
L 211.745455 64.169652 
L 207.236364 63.501871 
L 202.727273 62.841799 
L 198.218182 62.182298 
L 196.430268 61.92 
L 193.709091 61.521655 
L 189.2 60.939279 
L 184.690909 60.366854 
L 180.181818 59.796641 
L 175.672727 59.362574 
L 171.163636 58.962544 
L 167.276838 58.56 
L 166.654545 58.493428 
L 162.145455 57.976469 
L 157.636364 57.45951 
L 153.127273 56.942551 
L 148.618182 56.528984 
L 144.109091 56.528984 
L 139.6 56.528984 
L 135.090909 56.528984 
L 130.581818 56.528984 
L 126.072727 56.528984 
L 121.563636 56.528984 
L 117.054545 56.528984 
L 112.545455 56.528984 
L 108.036364 56.528984 
L 103.527273 56.528984 
L 99.018182 56.528984 
L 94.509091 56.528984 
L 90 56.528984 
L 90 58.56 
L 90 61.92 
L 90 65.28 
L 90 68.64 
L 90 72 
L 90 75.36 
L 90 76.444228 
L 94.509091 76.444228 
L 99.018182 76.444228 
L 103.527273 76.444228 
L 108.036364 76.444228 
L 112.545455 76.444228 
L 117.054545 76.444228 
L 121.563636 76.444228 
L 126.072727 76.444228 
L 130.581818 76.444228 
L 135.090909 76.444228 
L 139.6 76.444228 
L 144.109091 76.444228 
L 148.618182 76.444228 
L 153.127273 76.741077 
L 157.636364 77.172031 
L 162.145455 77.651178 
L 166.654545 78.139918 
L 171.163636 78.628657 
L 172.006365 78.72 
L 175.672727 79.117396 
L 180.181818 79.64772 
L 184.690909 80.344381 
L 189.2 81.041042 
L 193.709091 81.737704 
L 196.294066 82.08 
L 198.218182 82.322035 
L 202.727273 82.826172 
L 207.236364 83.330309 
L 211.745455 83.865004 
L 216.254545 84.420072 
L 220.763636 84.97514 
L 224.53992 85.44 
L 225.272727 85.530208 
L 229.781818 86.130534 
L 234.290909 86.759382 
L 238.8 87.399552 
L 243.309091 88.092459 
L 247.818182 88.719452 
L 248.472443 88.8 
L 252.327273 89.265409 
L 256.836364 89.809809 
L 261.345455 90.354209 
L 265.854545 90.89861 
L 270.363636 91.49474 
L 274.872727 92.057615 
L 275.726111 92.16 
L 279.381818 92.670078 
L 283.890909 93.299229 
L 288.4 93.928379 
L 292.909091 94.557529 
L 297.418182 95.12047 
L 300.906533 95.52 
L 301.927273 95.644868 
L 306.436364 96.299666 
L 310.945455 96.959201 
L 315.454545 97.618737 
L 319.963636 98.278272 
L 324.077513 98.88 
L 324.472727 98.937807 
L 328.981818 99.604371 
L 333.490909 100.299047 
L 338 100.993723 
L 342.509091 101.688399 
L 346.445186 102.24 
L 347.018182 102.316488 
L 351.527273 102.828706 
L 356.036364 103.340923 
L 360.545455 103.931141 
L 365.054545 104.573358 
L 369.563636 105.215575 
L 372.687815 105.6 
L 374.072727 105.765126 
L 378.581818 106.289728 
L 383.090909 106.81433 
L 387.6 107.338932 
L 392.109091 107.888603 
L 396.618182 108.438274 
L 400.898034 108.96 
L 401.127273 108.987945 
L 405.636364 109.537616 
L 410.145455 110.093467 
L 414.654545 110.70853 
L 419.163636 111.383637 
L 423.672727 111.992141 
L 426.322499 112.32 
L 428.181818 112.574124 
L 432.690909 113.190408 
L 437.2 113.806692 
L 441.709091 114.422975 
L 446.218182 115.003659 
L 450.727273 115.521615 
L 451.932586 115.68 
L 455.236364 116.157089 
L 459.745455 116.808235 
L 464.254545 117.45938 
L 468.763636 118.110525 
L 473.272727 118.76167 
L 475.194001 119.04 
L 477.781818 119.41489 
L 482.290909 120.076405 
L 486.8 120.73792 
L 491.309091 121.399436 
L 495.818182 122.043667 
L 498.67914 122.4 
L 500.327273 122.600309 
L 504.836364 123.148331 
L 509.345455 123.686285 
L 513.854545 124.217527 
L 518.363636 124.748769 
L 522.872727 125.306097 
L 525.914766 125.76 
z
" clip-path="url(#p04a88768bf)" style="fill: #26ad81"/>
    <path d="M 522.872727 106.152765 
L 527.381818 106.723536 
L 531.890909 107.294307 
L 536.4 107.865077 
L 536.4 105.6 
L 536.4 102.24 
L 536.4 98.88 
L 536.4 95.52 
L 536.4 92.16 
L 536.4 90.883823 
L 531.890909 90.291315 
L 527.381818 89.698807 
L 522.872727 89.106298 
L 520.541747 88.8 
L 518.363636 88.51379 
L 513.854545 87.90621 
L 509.345455 87.246219 
L 504.836364 86.604268 
L 500.327273 85.998464 
L 496.170535 85.44 
L 495.818182 85.392661 
L 491.309091 84.821861 
L 486.8 84.254821 
L 482.290909 83.689631 
L 477.781818 83.124442 
L 473.272727 82.574861 
L 469.183562 82.08 
L 468.763636 82.029182 
L 464.254545 81.469532 
L 459.745455 80.831683 
L 455.236364 80.178892 
L 450.727273 79.526101 
L 446.218182 78.869922 
L 445.208806 78.72 
L 441.709091 78.200189 
L 437.2 77.530455 
L 432.690909 76.860722 
L 428.181818 76.190988 
L 423.672727 75.52396 
L 422.502289 75.36 
L 419.163636 74.904146 
L 414.654545 74.32349 
L 410.145455 73.688899 
L 405.636364 73.036366 
L 401.127273 72.383834 
L 398.474928 72 
L 396.618182 71.760886 
L 392.109091 71.180202 
L 387.6 70.599517 
L 383.090909 70.035672 
L 378.581818 69.471828 
L 374.072727 68.907984 
L 371.929643 68.64 
L 369.563636 68.34414 
L 365.054545 67.766311 
L 360.545455 67.132457 
L 356.036364 66.522259 
L 351.527273 65.975328 
L 347.018182 65.428398 
L 345.794737 65.28 
L 342.509091 64.878942 
L 338 64.287092 
L 333.490909 63.611707 
L 328.981818 62.936322 
L 324.472727 62.283704 
L 321.937702 61.92 
L 319.963636 61.636778 
L 315.454545 60.989852 
L 310.945455 60.362136 
L 306.436364 59.759956 
L 301.927273 59.186261 
L 297.418182 58.602116 
L 297.114792 58.56 
L 292.909091 57.976167 
L 288.4 57.350218 
L 283.890909 56.724269 
L 279.381818 56.09832 
L 274.872727 55.477009 
L 272.73609 55.2 
L 270.363636 54.892894 
L 265.854545 54.316264 
L 261.345455 53.680159 
L 256.836364 53.011216 
L 252.327273 52.342274 
L 248.941634 51.84 
L 247.818182 51.84 
L 243.309091 51.84 
L 238.8 51.84 
L 234.290909 51.84 
L 229.781818 51.84 
L 225.272727 51.84 
L 220.763636 51.84 
L 216.254545 51.84 
L 211.745455 51.84 
L 207.236364 51.84 
L 202.727273 51.84 
L 198.218182 51.84 
L 193.709091 51.84 
L 189.2 51.84 
L 184.690909 51.84 
L 180.181818 51.84 
L 175.672727 51.84 
L 171.163636 51.84 
L 166.654545 51.84 
L 162.145455 51.84 
L 157.636364 51.84 
L 153.127273 51.84 
L 148.618182 51.84 
L 144.109091 51.84 
L 139.6 51.84 
L 135.090909 51.84 
L 130.581818 51.84 
L 126.072727 51.84 
L 121.563636 51.84 
L 117.054545 51.84 
L 112.545455 51.84 
L 108.036364 51.84 
L 103.527273 51.84 
L 99.018182 51.84 
L 94.509091 51.84 
L 90 51.84 
L 90 55.2 
L 90 56.528984 
L 94.509091 56.528984 
L 99.018182 56.528984 
L 103.527273 56.528984 
L 108.036364 56.528984 
L 112.545455 56.528984 
L 117.054545 56.528984 
L 121.563636 56.528984 
L 126.072727 56.528984 
L 130.581818 56.528984 
L 135.090909 56.528984 
L 139.6 56.528984 
L 144.109091 56.528984 
L 148.618182 56.528984 
L 153.127273 56.942551 
L 157.636364 57.45951 
L 162.145455 57.976469 
L 166.654545 58.493428 
L 167.276838 58.56 
L 171.163636 58.962544 
L 175.672727 59.362574 
L 180.181818 59.796641 
L 184.690909 60.366854 
L 189.2 60.939279 
L 193.709091 61.521655 
L 196.430268 61.92 
L 198.218182 62.182298 
L 202.727273 62.841799 
L 207.236364 63.501871 
L 211.745455 64.169652 
L 216.254545 64.842572 
L 219.335207 65.28 
L 220.763636 65.475233 
L 225.272727 66.00505 
L 229.781818 66.534867 
L 234.290909 67.064684 
L 238.8 67.594502 
L 243.309091 68.263444 
L 246.144049 68.64 
L 247.818182 68.855826 
L 252.327273 69.412418 
L 256.836364 69.969009 
L 261.345455 70.5256 
L 265.854545 71.082192 
L 270.363636 71.641322 
L 273.236612 72 
L 274.872727 72.235761 
L 279.381818 72.885511 
L 283.890909 73.535262 
L 288.4 74.185012 
L 292.909091 74.834763 
L 297.01909 75.36 
L 297.418182 75.411032 
L 301.927273 76.062262 
L 306.436364 76.741352 
L 310.945455 77.420441 
L 315.454545 78.09953 
L 319.670501 78.72 
L 319.963636 78.761608 
L 324.472727 79.304601 
L 328.981818 79.853381 
L 333.490909 80.425306 
L 338 81.00517 
L 342.509091 81.601896 
L 345.84672 82.08 
L 347.018182 82.247808 
L 351.527273 82.89372 
L 356.036364 83.539632 
L 360.545455 84.121485 
L 365.054545 84.660634 
L 369.563636 85.199782 
L 371.57267 85.44 
L 374.072727 85.73893 
L 378.581818 86.333902 
L 383.090909 86.966775 
L 387.6 87.619006 
L 392.109091 88.290718 
L 395.82316 88.8 
L 396.618182 88.905656 
L 401.127273 89.459603 
L 405.636364 90.013551 
L 410.145455 90.567498 
L 414.654545 91.121446 
L 419.163636 91.687856 
L 422.802195 92.16 
L 423.672727 92.2856 
L 428.181818 92.936171 
L 432.690909 93.586743 
L 437.2 94.237314 
L 441.709091 94.887885 
L 446.218182 95.48565 
L 446.505735 95.52 
L 450.727273 96.049887 
L 455.236364 96.677047 
L 459.745455 97.320167 
L 464.254545 97.963288 
L 468.763636 98.606409 
L 470.681857 98.88 
L 473.272727 99.24953 
L 477.781818 99.872666 
L 482.290909 100.415863 
L 486.8 100.980561 
L 491.309091 101.577284 
L 495.818182 102.218383 
L 495.970222 102.24 
L 500.327273 102.859482 
L 504.836364 103.50058 
L 509.345455 104.174759 
L 513.854545 104.870992 
L 518.363636 105.567225 
L 518.608245 105.6 
z
" clip-path="url(#p04a88768bf)" style="fill: #3aba76"/>
    <path d="M 522.872727 89.106298 
L 527.381818 89.698807 
L 531.890909 90.291315 
L 536.4 90.883823 
L 536.4 88.8 
L 536.4 85.44 
L 536.4 82.08 
L 536.4 78.72 
L 536.4 75.640072 
L 534.297331 75.36 
L 531.890909 75.043278 
L 527.381818 74.397827 
L 522.872727 73.752376 
L 518.363636 73.106926 
L 513.854545 72.461475 
L 510.630702 72 
L 509.345455 71.835999 
L 504.836364 71.237974 
L 500.327273 70.668616 
L 495.818182 70.122267 
L 491.309091 69.575918 
L 486.8 69.029569 
L 483.584833 68.64 
L 482.290909 68.48322 
L 477.781818 67.936871 
L 473.272727 67.30325 
L 468.763636 66.668146 
L 464.254545 66.05824 
L 459.745455 65.47809 
L 458.205837 65.28 
L 455.236364 64.897941 
L 450.727273 64.317792 
L 446.218182 63.734631 
L 441.709091 63.139425 
L 437.2 62.544218 
L 432.690909 61.949012 
L 432.484994 61.92 
L 428.181818 61.3059 
L 423.672727 60.662415 
L 419.163636 60.01893 
L 414.654545 59.375976 
L 410.145455 58.733377 
L 408.928872 58.56 
L 405.636364 58.090779 
L 401.127273 57.44818 
L 396.618182 56.810432 
L 392.109091 56.191946 
L 387.6 55.611261 
L 384.311125 55.2 
L 383.090909 55.044012 
L 378.581818 54.39641 
L 374.072727 53.744034 
L 369.563636 53.091658 
L 365.054545 52.439283 
L 360.912424 51.84 
L 360.545455 51.84 
L 356.036364 51.84 
L 351.527273 51.84 
L 347.018182 51.84 
L 342.509091 51.84 
L 338 51.84 
L 333.490909 51.84 
L 328.981818 51.84 
L 324.472727 51.84 
L 319.963636 51.84 
L 315.454545 51.84 
L 310.945455 51.84 
L 306.436364 51.84 
L 301.927273 51.84 
L 297.418182 51.84 
L 292.909091 51.84 
L 288.4 51.84 
L 283.890909 51.84 
L 279.381818 51.84 
L 274.872727 51.84 
L 270.363636 51.84 
L 265.854545 51.84 
L 261.345455 51.84 
L 256.836364 51.84 
L 252.327273 51.84 
L 248.941634 51.84 
L 252.327273 52.342274 
L 256.836364 53.011216 
L 261.345455 53.680159 
L 265.854545 54.316264 
L 270.363636 54.892894 
L 272.73609 55.2 
L 274.872727 55.477009 
L 279.381818 56.09832 
L 283.890909 56.724269 
L 288.4 57.350218 
L 292.909091 57.976167 
L 297.114792 58.56 
L 297.418182 58.602116 
L 301.927273 59.186261 
L 306.436364 59.759956 
L 310.945455 60.362136 
L 315.454545 60.989852 
L 319.963636 61.636778 
L 321.937702 61.92 
L 324.472727 62.283704 
L 328.981818 62.936322 
L 333.490909 63.611707 
L 338 64.287092 
L 342.509091 64.878942 
L 345.794737 65.28 
L 347.018182 65.428398 
L 351.527273 65.975328 
L 356.036364 66.522259 
L 360.545455 67.132457 
L 365.054545 67.766311 
L 369.563636 68.34414 
L 371.929643 68.64 
L 374.072727 68.907984 
L 378.581818 69.471828 
L 383.090909 70.035672 
L 387.6 70.599517 
L 392.109091 71.180202 
L 396.618182 71.760886 
L 398.474928 72 
L 401.127273 72.383834 
L 405.636364 73.036366 
L 410.145455 73.688899 
L 414.654545 74.32349 
L 419.163636 74.904146 
L 422.502289 75.36 
L 423.672727 75.52396 
L 428.181818 76.190988 
L 432.690909 76.860722 
L 437.2 77.530455 
L 441.709091 78.200189 
L 445.208806 78.72 
L 446.218182 78.869922 
L 450.727273 79.526101 
L 455.236364 80.178892 
L 459.745455 80.831683 
L 464.254545 81.469532 
L 468.763636 82.029182 
L 469.183562 82.08 
L 473.272727 82.574861 
L 477.781818 83.124442 
L 482.290909 83.689631 
L 486.8 84.254821 
L 491.309091 84.821861 
L 495.818182 85.392661 
L 496.170535 85.44 
L 500.327273 85.998464 
L 504.836364 86.604268 
L 509.345455 87.246219 
L 513.854545 87.90621 
L 518.363636 88.51379 
L 520.541747 88.8 
z
" clip-path="url(#p04a88768bf)" style="fill: #56c667"/>
    <path d="M 536.4 75.640072 
L 536.4 75.36 
L 536.4 72 
L 536.4 68.64 
L 536.4 65.28 
L 536.4 61.970211 
L 536.002219 61.92 
L 531.890909 61.401036 
L 527.381818 60.83186 
L 522.872727 60.239146 
L 518.363636 59.610265 
L 513.854545 58.975862 
L 510.898755 58.56 
L 509.345455 58.34146 
L 504.836364 57.704962 
L 500.327273 57.06532 
L 495.818182 56.425678 
L 491.309091 55.786036 
L 487.17789 55.2 
L 486.8 55.146394 
L 482.290909 54.506752 
L 477.781818 53.927896 
L 473.272727 53.28541 
L 468.763636 52.629971 
L 464.254545 51.974532 
L 463.329032 51.84 
L 459.745455 51.84 
L 455.236364 51.84 
L 450.727273 51.84 
L 446.218182 51.84 
L 441.709091 51.84 
L 437.2 51.84 
L 432.690909 51.84 
L 428.181818 51.84 
L 423.672727 51.84 
L 419.163636 51.84 
L 414.654545 51.84 
L 410.145455 51.84 
L 405.636364 51.84 
L 401.127273 51.84 
L 396.618182 51.84 
L 392.109091 51.84 
L 387.6 51.84 
L 383.090909 51.84 
L 378.581818 51.84 
L 374.072727 51.84 
L 369.563636 51.84 
L 365.054545 51.84 
L 360.912424 51.84 
L 365.054545 52.439283 
L 369.563636 53.091658 
L 374.072727 53.744034 
L 378.581818 54.39641 
L 383.090909 55.044012 
L 384.311125 55.2 
L 387.6 55.611261 
L 392.109091 56.191946 
L 396.618182 56.810432 
L 401.127273 57.44818 
L 405.636364 58.090779 
L 408.928872 58.56 
L 410.145455 58.733377 
L 414.654545 59.375976 
L 419.163636 60.01893 
L 423.672727 60.662415 
L 428.181818 61.3059 
L 432.484994 61.92 
L 432.690909 61.949012 
L 437.2 62.544218 
L 441.709091 63.139425 
L 446.218182 63.734631 
L 450.727273 64.317792 
L 455.236364 64.897941 
L 458.205837 65.28 
L 459.745455 65.47809 
L 464.254545 66.05824 
L 468.763636 66.668146 
L 473.272727 67.30325 
L 477.781818 67.936871 
L 482.290909 68.48322 
L 483.584833 68.64 
L 486.8 69.029569 
L 491.309091 69.575918 
L 495.818182 70.122267 
L 500.327273 70.668616 
L 504.836364 71.237974 
L 509.345455 71.835999 
L 510.630702 72 
L 513.854545 72.461475 
L 518.363636 73.106926 
L 522.872727 73.752376 
L 527.381818 74.397827 
L 531.890909 75.043278 
L 534.297331 75.36 
z
" clip-path="url(#p04a88768bf)" style="fill: #77d153"/>
    <path d="M 536.4 61.970211 
L 536.4 61.92 
L 536.4 58.56 
L 536.4 55.2 
L 536.4 51.84 
L 531.890909 51.84 
L 527.381818 51.84 
L 522.872727 51.84 
L 518.363636 51.84 
L 513.854545 51.84 
L 509.345455 51.84 
L 504.836364 51.84 
L 500.327273 51.84 
L 495.818182 51.84 
L 491.309091 51.84 
L 486.8 51.84 
L 482.290909 51.84 
L 477.781818 51.84 
L 473.272727 51.84 
L 468.763636 51.84 
L 464.254545 51.84 
L 463.329032 51.84 
L 464.254545 51.974532 
L 468.763636 52.629971 
L 473.272727 53.28541 
L 477.781818 53.927896 
L 482.290909 54.506752 
L 486.8 55.146394 
L 487.17789 55.2 
L 491.309091 55.786036 
L 495.818182 56.425678 
L 500.327273 57.06532 
L 504.836364 57.704962 
L 509.345455 58.34146 
L 510.898755 58.56 
L 513.854545 58.975862 
L 518.363636 59.610265 
L 522.872727 60.239146 
L 527.381818 60.83186 
L 531.890909 61.401036 
L 536.002219 61.92 
z
" clip-path="url(#p04a88768bf)" style="fill: #9dd93b"/>
    <path clip-path="url(#p04a88768bf)" style="fill: #c5e021"/>
    <path clip-path="url(#p04a88768bf)" style="fill: #ece51b"/>
   </g>
   <g id="matplotlib.axis_1">
    <g id="xtick_1">
     <g id="line2d_1">
      <path d="M 119.76 384.48 
L 119.76 51.84 
" clip-path="url(#p04a88768bf)" style="fill: none; stroke: #b0b0b0; stroke-width: 0.8; stroke-linecap: square"/>
     </g>
     <g id="line2d_2">
      <defs>
       <path id="m0b49e01cfc" d="M 0 0 
L 0 3.5 
" style="stroke: #000000; stroke-width: 0.8"/>
      </defs>
      <g>
       <use xlink:href="#m0b49e01cfc" x="119.76" y="384.48" style="stroke: #000000; stroke-width: 0.8"/>
      </g>
     </g>
     <g id="text_1">
      <!-- 6 -->
      <g transform="translate(116.57875 399.078438) scale(0.1 -0.1)">
       <defs>
        <path id="DejaVuSans-36" d="M 2113 2584 
Q 1688 2584 1439 2293 
Q 1191 2003 1191 1497 
Q 1191 994 1439 701 
Q 1688 409 2113 409 
Q 2538 409 2786 701 
Q 3034 994 3034 1497 
Q 3034 2003 2786 2293 
Q 2538 2584 2113 2584 
z
M 3366 4563 
L 3366 3988 
Q 3128 4100 2886 4159 
Q 2644 4219 2406 4219 
Q 1781 4219 1451 3797 
Q 1122 3375 1075 2522 
Q 1259 2794 1537 2939 
Q 1816 3084 2150 3084 
Q 2853 3084 3261 2657 
Q 3669 2231 3669 1497 
Q 3669 778 3244 343 
Q 2819 -91 2113 -91 
Q 1303 -91 875 529 
Q 447 1150 447 2328 
Q 447 3434 972 4092 
Q 1497 4750 2381 4750 
Q 2619 4750 2861 4703 
Q 3103 4656 3366 4563 
z
" transform="scale(0.015625)"/>
       </defs>
       <use xlink:href="#DejaVuSans-36"/>
      </g>
     </g>
    </g>
    <g id="xtick_2">
     <g id="line2d_3">
      <path d="M 179.28 384.48 
L 179.28 51.84 
" clip-path="url(#p04a88768bf)" style="fill: none; stroke: #b0b0b0; stroke-width: 0.8; stroke-linecap: square"/>
     </g>
     <g id="line2d_4">
      <g>
       <use xlink:href="#m0b49e01cfc" x="179.28" y="384.48" style="stroke: #000000; stroke-width: 0.8"/>
      </g>
     </g>
     <g id="text_2">
      <!-- 8 -->
      <g transform="translate(176.09875 399.078438) scale(0.1 -0.1)">
       <defs>
        <path id="DejaVuSans-38" d="M 2034 2216 
Q 1584 2216 1326 1975 
Q 1069 1734 1069 1313 
Q 1069 891 1326 650 
Q 1584 409 2034 409 
Q 2484 409 2743 651 
Q 3003 894 3003 1313 
Q 3003 1734 2745 1975 
Q 2488 2216 2034 2216 
z
M 1403 2484 
Q 997 2584 770 2862 
Q 544 3141 544 3541 
Q 544 4100 942 4425 
Q 1341 4750 2034 4750 
Q 2731 4750 3128 4425 
Q 3525 4100 3525 3541 
Q 3525 3141 3298 2862 
Q 3072 2584 2669 2484 
Q 3125 2378 3379 2068 
Q 3634 1759 3634 1313 
Q 3634 634 3220 271 
Q 2806 -91 2034 -91 
Q 1263 -91 848 271 
Q 434 634 434 1313 
Q 434 1759 690 2068 
Q 947 2378 1403 2484 
z
M 1172 3481 
Q 1172 3119 1398 2916 
Q 1625 2713 2034 2713 
Q 2441 2713 2670 2916 
Q 2900 3119 2900 3481 
Q 2900 3844 2670 4047 
Q 2441 4250 2034 4250 
Q 1625 4250 1398 4047 
Q 1172 3844 1172 3481 
z
" transform="scale(0.015625)"/>
       </defs>
       <use xlink:href="#DejaVuSans-38"/>
      </g>
     </g>
    </g>
    <g id="xtick_3">
     <g id="line2d_5">
      <path d="M 238.8 384.48 
L 238.8 51.84 
" clip-path="url(#p04a88768bf)" style="fill: none; stroke: #b0b0b0; stroke-width: 0.8; stroke-linecap: square"/>
     </g>
     <g id="line2d_6">
      <g>
       <use xlink:href="#m0b49e01cfc" x="238.8" y="384.48" style="stroke: #000000; stroke-width: 0.8"/>
      </g>
     </g>
     <g id="text_3">
      <!-- 10 -->
      <g transform="translate(232.4375 399.078438) scale(0.1 -0.1)">
       <defs>
        <path id="DejaVuSans-31" d="M 794 531 
L 1825 531 
L 1825 4091 
L 703 3866 
L 703 4441 
L 1819 4666 
L 2450 4666 
L 2450 531 
L 3481 531 
L 3481 0 
L 794 0 
L 794 531 
z
" transform="scale(0.015625)"/>
        <path id="DejaVuSans-30" d="M 2034 4250 
Q 1547 4250 1301 3770 
Q 1056 3291 1056 2328 
Q 1056 1369 1301 889 
Q 1547 409 2034 409 
Q 2525 409 2770 889 
Q 3016 1369 3016 2328 
Q 3016 3291 2770 3770 
Q 2525 4250 2034 4250 
z
M 2034 4750 
Q 2819 4750 3233 4129 
Q 3647 3509 3647 2328 
Q 3647 1150 3233 529 
Q 2819 -91 2034 -91 
Q 1250 -91 836 529 
Q 422 1150 422 2328 
Q 422 3509 836 4129 
Q 1250 4750 2034 4750 
z
" transform="scale(0.015625)"/>
       </defs>
       <use xlink:href="#DejaVuSans-31"/>
       <use xlink:href="#DejaVuSans-30" x="63.623047"/>
      </g>
     </g>
    </g>
    <g id="xtick_4">
     <g id="line2d_7">
      <path d="M 298.32 384.48 
L 298.32 51.84 
" clip-path="url(#p04a88768bf)" style="fill: none; stroke: #b0b0b0; stroke-width: 0.8; stroke-linecap: square"/>
     </g>
     <g id="line2d_8">
      <g>
       <use xlink:href="#m0b49e01cfc" x="298.32" y="384.48" style="stroke: #000000; stroke-width: 0.8"/>
      </g>
     </g>
     <g id="text_4">
      <!-- 12 -->
      <g transform="translate(291.9575 399.078438) scale(0.1 -0.1)">
       <defs>
        <path id="DejaVuSans-32" d="M 1228 531 
L 3431 531 
L 3431 0 
L 469 0 
L 469 531 
Q 828 903 1448 1529 
Q 2069 2156 2228 2338 
Q 2531 2678 2651 2914 
Q 2772 3150 2772 3378 
Q 2772 3750 2511 3984 
Q 2250 4219 1831 4219 
Q 1534 4219 1204 4116 
Q 875 4013 500 3803 
L 500 4441 
Q 881 4594 1212 4672 
Q 1544 4750 1819 4750 
Q 2544 4750 2975 4387 
Q 3406 4025 3406 3419 
Q 3406 3131 3298 2873 
Q 3191 2616 2906 2266 
Q 2828 2175 2409 1742 
Q 1991 1309 1228 531 
z
" transform="scale(0.015625)"/>
       </defs>
       <use xlink:href="#DejaVuSans-31"/>
       <use xlink:href="#DejaVuSans-32" x="63.623047"/>
      </g>
     </g>
    </g>
    <g id="xtick_5">
     <g id="line2d_9">
      <path d="M 357.84 384.48 
L 357.84 51.84 
" clip-path="url(#p04a88768bf)" style="fill: none; stroke: #b0b0b0; stroke-width: 0.8; stroke-linecap: square"/>
     </g>
     <g id="line2d_10">
      <g>
       <use xlink:href="#m0b49e01cfc" x="357.84" y="384.48" style="stroke: #000000; stroke-width: 0.8"/>
      </g>
     </g>
     <g id="text_5">
      <!-- 14 -->
      <g transform="translate(351.4775 399.078438) scale(0.1 -0.1)">
       <defs>
        <path id="DejaVuSans-34" d="M 2419 4116 
L 825 1625 
L 2419 1625 
L 2419 4116 
z
M 2253 4666 
L 3047 4666 
L 3047 1625 
L 3713 1625 
L 3713 1100 
L 3047 1100 
L 3047 0 
L 2419 0 
L 2419 1100 
L 313 1100 
L 313 1709 
L 2253 4666 
z
" transform="scale(0.015625)"/>
       </defs>
       <use xlink:href="#DejaVuSans-31"/>
       <use xlink:href="#DejaVuSans-34" x="63.623047"/>
      </g>
     </g>
    </g>
    <g id="xtick_6">
     <g id="line2d_11">
      <path d="M 417.36 384.48 
L 417.36 51.84 
" clip-path="url(#p04a88768bf)" style="fill: none; stroke: #b0b0b0; stroke-width: 0.8; stroke-linecap: square"/>
     </g>
     <g id="line2d_12">
      <g>
       <use xlink:href="#m0b49e01cfc" x="417.36" y="384.48" style="stroke: #000000; stroke-width: 0.8"/>
      </g>
     </g>
     <g id="text_6">
      <!-- 16 -->
      <g transform="translate(410.9975 399.078438) scale(0.1 -0.1)">
       <use xlink:href="#DejaVuSans-31"/>
       <use xlink:href="#DejaVuSans-36" x="63.623047"/>
      </g>
     </g>
    </g>
    <g id="xtick_7">
     <g id="line2d_13">
      <path d="M 476.88 384.48 
L 476.88 51.84 
" clip-path="url(#p04a88768bf)" style="fill: none; stroke: #b0b0b0; stroke-width: 0.8; stroke-linecap: square"/>
     </g>
     <g id="line2d_14">
      <g>
       <use xlink:href="#m0b49e01cfc" x="476.88" y="384.48" style="stroke: #000000; stroke-width: 0.8"/>
      </g>
     </g>
     <g id="text_7">
      <!-- 18 -->
      <g transform="translate(470.5175 399.078438) scale(0.1 -0.1)">
       <use xlink:href="#DejaVuSans-31"/>
       <use xlink:href="#DejaVuSans-38" x="63.623047"/>
      </g>
     </g>
    </g>
    <g id="xtick_8">
     <g id="line2d_15">
      <path d="M 536.4 384.48 
L 536.4 51.84 
" clip-path="url(#p04a88768bf)" style="fill: none; stroke: #b0b0b0; stroke-width: 0.8; stroke-linecap: square"/>
     </g>
     <g id="line2d_16">
      <g>
       <use xlink:href="#m0b49e01cfc" x="536.4" y="384.48" style="stroke: #000000; stroke-width: 0.8"/>
      </g>
     </g>
     <g id="text_8">
      <!-- 20 -->
      <g transform="translate(530.0375 399.078438) scale(0.1 -0.1)">
       <use xlink:href="#DejaVuSans-32"/>
       <use xlink:href="#DejaVuSans-30" x="63.623047"/>
      </g>
     </g>
    </g>
    <g id="text_9">
     <!-- $glide_{cd}$ [K] -->
     <g transform="translate(262.6 420.358125) scale(0.2 -0.2)">
      <defs>
       <path id="DejaVuSans-Oblique-67" d="M 3816 3500 
L 3219 434 
Q 3047 -456 2561 -893 
Q 2075 -1331 1253 -1331 
Q 950 -1331 690 -1286 
Q 431 -1241 206 -1147 
L 313 -588 
Q 525 -725 762 -790 
Q 1000 -856 1269 -856 
Q 1816 -856 2167 -557 
Q 2519 -259 2631 300 
L 2681 563 
Q 2441 288 2122 144 
Q 1803 0 1434 0 
Q 903 0 598 351 
Q 294 703 294 1319 
Q 294 1803 478 2267 
Q 663 2731 997 3091 
Q 1219 3328 1514 3456 
Q 1809 3584 2131 3584 
Q 2484 3584 2746 3420 
Q 3009 3256 3138 2956 
L 3238 3500 
L 3816 3500 
z
M 2950 2216 
Q 2950 2641 2750 2872 
Q 2550 3103 2181 3103 
Q 1953 3103 1747 3012 
Q 1541 2922 1394 2759 
Q 1156 2491 1023 2127 
Q 891 1763 891 1375 
Q 891 944 1092 712 
Q 1294 481 1672 481 
Q 2219 481 2584 976 
Q 2950 1472 2950 2216 
z
" transform="scale(0.015625)"/>
       <path id="DejaVuSans-Oblique-6c" d="M 1172 4863 
L 1747 4863 
L 800 0 
L 225 0 
L 1172 4863 
z
" transform="scale(0.015625)"/>
       <path id="DejaVuSans-Oblique-69" d="M 1172 4863 
L 1747 4863 
L 1606 4134 
L 1031 4134 
L 1172 4863 
z
M 909 3500 
L 1484 3500 
L 800 0 
L 225 0 
L 909 3500 
z
" transform="scale(0.015625)"/>
       <path id="DejaVuSans-Oblique-64" d="M 2675 525 
Q 2444 222 2128 65 
Q 1813 -91 1428 -91 
Q 903 -91 598 267 
Q 294 625 294 1247 
Q 294 1766 478 2236 
Q 663 2706 1013 3078 
Q 1244 3325 1534 3454 
Q 1825 3584 2144 3584 
Q 2481 3584 2739 3421 
Q 2997 3259 3138 2956 
L 3513 4863 
L 4091 4863 
L 3144 0 
L 2566 0 
L 2675 525 
z
M 891 1350 
Q 891 897 1095 644 
Q 1300 391 1663 391 
Q 1931 391 2161 520 
Q 2391 650 2566 903 
Q 2750 1166 2856 1509 
Q 2963 1853 2963 2188 
Q 2963 2622 2758 2865 
Q 2553 3109 2194 3109 
Q 1922 3109 1687 2981 
Q 1453 2853 1288 2613 
Q 1106 2353 998 2009 
Q 891 1666 891 1350 
z
" transform="scale(0.015625)"/>
       <path id="DejaVuSans-Oblique-65" d="M 3078 2063 
Q 3088 2113 3092 2166 
Q 3097 2219 3097 2272 
Q 3097 2653 2873 2875 
Q 2650 3097 2266 3097 
Q 1838 3097 1509 2826 
Q 1181 2556 1013 2059 
L 3078 2063 
z
M 3578 1613 
L 903 1613 
Q 884 1494 878 1425 
Q 872 1356 872 1306 
Q 872 872 1139 634 
Q 1406 397 1894 397 
Q 2269 397 2603 481 
Q 2938 566 3225 728 
L 3116 159 
Q 2806 34 2476 -28 
Q 2147 -91 1806 -91 
Q 1078 -91 686 257 
Q 294 606 294 1247 
Q 294 1794 489 2264 
Q 684 2734 1063 3103 
Q 1306 3334 1642 3459 
Q 1978 3584 2356 3584 
Q 2950 3584 3301 3228 
Q 3653 2872 3653 2272 
Q 3653 2128 3634 1964 
Q 3616 1800 3578 1613 
z
" transform="scale(0.015625)"/>
       <path id="DejaVuSans-Oblique-63" d="M 3431 3366 
L 3316 2797 
Q 3109 2947 2876 3022 
Q 2644 3097 2394 3097 
Q 2119 3097 1870 3000 
Q 1622 2903 1453 2725 
Q 1184 2453 1037 2087 
Q 891 1722 891 1331 
Q 891 859 1127 628 
Q 1363 397 1844 397 
Q 2081 397 2348 469 
Q 2616 541 2906 684 
L 2797 116 
Q 2547 13 2283 -39 
Q 2019 -91 1741 -91 
Q 1044 -91 669 257 
Q 294 606 294 1253 
Q 294 1797 489 2255 
Q 684 2713 1069 3078 
Q 1331 3328 1684 3456 
Q 2038 3584 2456 3584 
Q 2700 3584 2940 3529 
Q 3181 3475 3431 3366 
z
" transform="scale(0.015625)"/>
       <path id="DejaVuSans-20" transform="scale(0.015625)"/>
       <path id="DejaVuSans-5b" d="M 550 4863 
L 1875 4863 
L 1875 4416 
L 1125 4416 
L 1125 -397 
L 1875 -397 
L 1875 -844 
L 550 -844 
L 550 4863 
z
" transform="scale(0.015625)"/>
       <path id="DejaVuSans-4b" d="M 628 4666 
L 1259 4666 
L 1259 2694 
L 3353 4666 
L 4166 4666 
L 1850 2491 
L 4331 0 
L 3500 0 
L 1259 2247 
L 1259 0 
L 628 0 
L 628 4666 
z
" transform="scale(0.015625)"/>
       <path id="DejaVuSans-5d" d="M 1947 4863 
L 1947 -844 
L 622 -844 
L 622 -397 
L 1369 -397 
L 1369 4416 
L 622 4416 
L 622 4863 
L 1947 4863 
z
" transform="scale(0.015625)"/>
      </defs>
      <use xlink:href="#DejaVuSans-Oblique-67" transform="translate(0 0.015625)"/>
      <use xlink:href="#DejaVuSans-Oblique-6c" transform="translate(63.476562 0.015625)"/>
      <use xlink:href="#DejaVuSans-Oblique-69" transform="translate(91.259766 0.015625)"/>
      <use xlink:href="#DejaVuSans-Oblique-64" transform="translate(119.042969 0.015625)"/>
      <use xlink:href="#DejaVuSans-Oblique-65" transform="translate(182.519531 0.015625)"/>
      <use xlink:href="#DejaVuSans-Oblique-63" transform="translate(244.042969 -16.390625) scale(0.7)"/>
      <use xlink:href="#DejaVuSans-Oblique-64" transform="translate(282.529297 -16.390625) scale(0.7)"/>
      <use xlink:href="#DejaVuSans-20" transform="translate(329.697266 0.015625)"/>
      <use xlink:href="#DejaVuSans-5b" transform="translate(361.484375 0.015625)"/>
      <use xlink:href="#DejaVuSans-4b" transform="translate(400.498047 0.015625)"/>
      <use xlink:href="#DejaVuSans-5d" transform="translate(466.074219 0.015625)"/>
     </g>
    </g>
   </g>
   <g id="matplotlib.axis_2">
    <g id="ytick_1">
     <g id="line2d_17">
      <path d="M 90 384.48 
L 536.4 384.48 
" clip-path="url(#p04a88768bf)" style="fill: none; stroke: #b0b0b0; stroke-width: 0.8; stroke-linecap: square"/>
     </g>
     <g id="line2d_18">
      <defs>
       <path id="m90b147925f" d="M 0 0 
L -3.5 0 
" style="stroke: #000000; stroke-width: 0.8"/>
      </defs>
      <g>
       <use xlink:href="#m90b147925f" x="90" y="384.48" style="stroke: #000000; stroke-width: 0.8"/>
      </g>
     </g>
     <g id="text_10">
      <!-- 10 -->
      <g transform="translate(70.275 388.279219) scale(0.1 -0.1)">
       <use xlink:href="#DejaVuSans-31"/>
       <use xlink:href="#DejaVuSans-30" x="63.623047"/>
      </g>
     </g>
    </g>
    <g id="ytick_2">
     <g id="line2d_19">
      <path d="M 90 342.9 
L 536.4 342.9 
" clip-path="url(#p04a88768bf)" style="fill: none; stroke: #b0b0b0; stroke-width: 0.8; stroke-linecap: square"/>
     </g>
     <g id="line2d_20">
      <g>
       <use xlink:href="#m90b147925f" x="90" y="342.9" style="stroke: #000000; stroke-width: 0.8"/>
      </g>
     </g>
     <g id="text_11">
      <!-- 20 -->
      <g transform="translate(70.275 346.699219) scale(0.1 -0.1)">
       <use xlink:href="#DejaVuSans-32"/>
       <use xlink:href="#DejaVuSans-30" x="63.623047"/>
      </g>
     </g>
    </g>
    <g id="ytick_3">
     <g id="line2d_21">
      <path d="M 90 301.32 
L 536.4 301.32 
" clip-path="url(#p04a88768bf)" style="fill: none; stroke: #b0b0b0; stroke-width: 0.8; stroke-linecap: square"/>
     </g>
     <g id="line2d_22">
      <g>
       <use xlink:href="#m90b147925f" x="90" y="301.32" style="stroke: #000000; stroke-width: 0.8"/>
      </g>
     </g>
     <g id="text_12">
      <!-- 30 -->
      <g transform="translate(70.275 305.119219) scale(0.1 -0.1)">
       <defs>
        <path id="DejaVuSans-33" d="M 2597 2516 
Q 3050 2419 3304 2112 
Q 3559 1806 3559 1356 
Q 3559 666 3084 287 
Q 2609 -91 1734 -91 
Q 1441 -91 1130 -33 
Q 819 25 488 141 
L 488 750 
Q 750 597 1062 519 
Q 1375 441 1716 441 
Q 2309 441 2620 675 
Q 2931 909 2931 1356 
Q 2931 1769 2642 2001 
Q 2353 2234 1838 2234 
L 1294 2234 
L 1294 2753 
L 1863 2753 
Q 2328 2753 2575 2939 
Q 2822 3125 2822 3475 
Q 2822 3834 2567 4026 
Q 2313 4219 1838 4219 
Q 1578 4219 1281 4162 
Q 984 4106 628 3988 
L 628 4550 
Q 988 4650 1302 4700 
Q 1616 4750 1894 4750 
Q 2613 4750 3031 4423 
Q 3450 4097 3450 3541 
Q 3450 3153 3228 2886 
Q 3006 2619 2597 2516 
z
" transform="scale(0.015625)"/>
       </defs>
       <use xlink:href="#DejaVuSans-33"/>
       <use xlink:href="#DejaVuSans-30" x="63.623047"/>
      </g>
     </g>
    </g>
    <g id="ytick_4">
     <g id="line2d_23">
      <path d="M 90 259.74 
L 536.4 259.74 
" clip-path="url(#p04a88768bf)" style="fill: none; stroke: #b0b0b0; stroke-width: 0.8; stroke-linecap: square"/>
     </g>
     <g id="line2d_24">
      <g>
       <use xlink:href="#m90b147925f" x="90" y="259.74" style="stroke: #000000; stroke-width: 0.8"/>
      </g>
     </g>
     <g id="text_13">
      <!-- 40 -->
      <g transform="translate(70.275 263.539219) scale(0.1 -0.1)">
       <use xlink:href="#DejaVuSans-34"/>
       <use xlink:href="#DejaVuSans-30" x="63.623047"/>
      </g>
     </g>
    </g>
    <g id="ytick_5">
     <g id="line2d_25">
      <path d="M 90 218.16 
L 536.4 218.16 
" clip-path="url(#p04a88768bf)" style="fill: none; stroke: #b0b0b0; stroke-width: 0.8; stroke-linecap: square"/>
     </g>
     <g id="line2d_26">
      <g>
       <use xlink:href="#m90b147925f" x="90" y="218.16" style="stroke: #000000; stroke-width: 0.8"/>
      </g>
     </g>
     <g id="text_14">
      <!-- 50 -->
      <g transform="translate(70.275 221.959219) scale(0.1 -0.1)">
       <defs>
        <path id="DejaVuSans-35" d="M 691 4666 
L 3169 4666 
L 3169 4134 
L 1269 4134 
L 1269 2991 
Q 1406 3038 1543 3061 
Q 1681 3084 1819 3084 
Q 2600 3084 3056 2656 
Q 3513 2228 3513 1497 
Q 3513 744 3044 326 
Q 2575 -91 1722 -91 
Q 1428 -91 1123 -41 
Q 819 9 494 109 
L 494 744 
Q 775 591 1075 516 
Q 1375 441 1709 441 
Q 2250 441 2565 725 
Q 2881 1009 2881 1497 
Q 2881 1984 2565 2268 
Q 2250 2553 1709 2553 
Q 1456 2553 1204 2497 
Q 953 2441 691 2322 
L 691 4666 
z
" transform="scale(0.015625)"/>
       </defs>
       <use xlink:href="#DejaVuSans-35"/>
       <use xlink:href="#DejaVuSans-30" x="63.623047"/>
      </g>
     </g>
    </g>
    <g id="ytick_6">
     <g id="line2d_27">
      <path d="M 90 176.58 
L 536.4 176.58 
" clip-path="url(#p04a88768bf)" style="fill: none; stroke: #b0b0b0; stroke-width: 0.8; stroke-linecap: square"/>
     </g>
     <g id="line2d_28">
      <g>
       <use xlink:href="#m90b147925f" x="90" y="176.58" style="stroke: #000000; stroke-width: 0.8"/>
      </g>
     </g>
     <g id="text_15">
      <!-- 60 -->
      <g transform="translate(70.275 180.379219) scale(0.1 -0.1)">
       <use xlink:href="#DejaVuSans-36"/>
       <use xlink:href="#DejaVuSans-30" x="63.623047"/>
      </g>
     </g>
    </g>
    <g id="ytick_7">
     <g id="line2d_29">
      <path d="M 90 135 
L 536.4 135 
" clip-path="url(#p04a88768bf)" style="fill: none; stroke: #b0b0b0; stroke-width: 0.8; stroke-linecap: square"/>
     </g>
     <g id="line2d_30">
      <g>
       <use xlink:href="#m90b147925f" x="90" y="135" style="stroke: #000000; stroke-width: 0.8"/>
      </g>
     </g>
     <g id="text_16">
      <!-- 70 -->
      <g transform="translate(70.275 138.799219) scale(0.1 -0.1)">
       <defs>
        <path id="DejaVuSans-37" d="M 525 4666 
L 3525 4666 
L 3525 4397 
L 1831 0 
L 1172 0 
L 2766 4134 
L 525 4134 
L 525 4666 
z
" transform="scale(0.015625)"/>
       </defs>
       <use xlink:href="#DejaVuSans-37"/>
       <use xlink:href="#DejaVuSans-30" x="63.623047"/>
      </g>
     </g>
    </g>
    <g id="ytick_8">
     <g id="line2d_31">
      <path d="M 90 93.42 
L 536.4 93.42 
" clip-path="url(#p04a88768bf)" style="fill: none; stroke: #b0b0b0; stroke-width: 0.8; stroke-linecap: square"/>
     </g>
     <g id="line2d_32">
      <g>
       <use xlink:href="#m90b147925f" x="90" y="93.42" style="stroke: #000000; stroke-width: 0.8"/>
      </g>
     </g>
     <g id="text_17">
      <!-- 80 -->
      <g transform="translate(70.275 97.219219) scale(0.1 -0.1)">
       <use xlink:href="#DejaVuSans-38"/>
       <use xlink:href="#DejaVuSans-30" x="63.623047"/>
      </g>
     </g>
    </g>
    <g id="ytick_9">
     <g id="line2d_33">
      <path d="M 90 51.84 
L 536.4 51.84 
" clip-path="url(#p04a88768bf)" style="fill: none; stroke: #b0b0b0; stroke-width: 0.8; stroke-linecap: square"/>
     </g>
     <g id="line2d_34">
      <g>
       <use xlink:href="#m90b147925f" x="90" y="51.84" style="stroke: #000000; stroke-width: 0.8"/>
      </g>
     </g>
     <g id="text_18">
      <!-- 90 -->
      <g transform="translate(70.275 55.639219) scale(0.1 -0.1)">
       <defs>
        <path id="DejaVuSans-39" d="M 703 97 
L 703 672 
Q 941 559 1184 500 
Q 1428 441 1663 441 
Q 2288 441 2617 861 
Q 2947 1281 2994 2138 
Q 2813 1869 2534 1725 
Q 2256 1581 1919 1581 
Q 1219 1581 811 2004 
Q 403 2428 403 3163 
Q 403 3881 828 4315 
Q 1253 4750 1959 4750 
Q 2769 4750 3195 4129 
Q 3622 3509 3622 2328 
Q 3622 1225 3098 567 
Q 2575 -91 1691 -91 
Q 1453 -91 1209 -44 
Q 966 3 703 97 
z
M 1959 2075 
Q 2384 2075 2632 2365 
Q 2881 2656 2881 3163 
Q 2881 3666 2632 3958 
Q 2384 4250 1959 4250 
Q 1534 4250 1286 3958 
Q 1038 3666 1038 3163 
Q 1038 2656 1286 2365 
Q 1534 2075 1959 2075 
z
" transform="scale(0.015625)"/>
       </defs>
       <use xlink:href="#DejaVuSans-39"/>
       <use xlink:href="#DejaVuSans-30" x="63.623047"/>
      </g>
     </g>
    </g>
    <g id="text_19">
     <!-- $T_{sto,LT}$ [C] -->
     <g transform="translate(61.275 269.96) rotate(-90) scale(0.2 -0.2)">
      <defs>
       <path id="DejaVuSans-Oblique-54" d="M 378 4666 
L 4325 4666 
L 4225 4134 
L 2559 4134 
L 1759 0 
L 1125 0 
L 1925 4134 
L 275 4134 
L 378 4666 
z
" transform="scale(0.015625)"/>
       <path id="DejaVuSans-Oblique-73" d="M 3200 3397 
L 3091 2853 
Q 2863 2978 2609 3040 
Q 2356 3103 2088 3103 
Q 1634 3103 1373 2948 
Q 1113 2794 1113 2528 
Q 1113 2219 1719 2053 
Q 1766 2041 1788 2034 
L 1972 1978 
Q 2547 1819 2739 1644 
Q 2931 1469 2931 1166 
Q 2931 609 2489 259 
Q 2047 -91 1331 -91 
Q 1053 -91 747 -37 
Q 441 16 72 128 
L 184 722 
Q 500 559 806 475 
Q 1113 391 1394 391 
Q 1816 391 2080 572 
Q 2344 753 2344 1031 
Q 2344 1331 1650 1516 
L 1591 1531 
L 1394 1581 
Q 956 1697 753 1886 
Q 550 2075 550 2369 
Q 550 2928 970 3256 
Q 1391 3584 2113 3584 
Q 2397 3584 2667 3537 
Q 2938 3491 3200 3397 
z
" transform="scale(0.015625)"/>
       <path id="DejaVuSans-Oblique-74" d="M 2706 3500 
L 2619 3053 
L 1472 3053 
L 1100 1153 
Q 1081 1047 1072 975 
Q 1063 903 1063 863 
Q 1063 663 1183 572 
Q 1303 481 1569 481 
L 2150 481 
L 2053 0 
L 1503 0 
Q 991 0 739 200 
Q 488 400 488 806 
Q 488 878 497 964 
Q 506 1050 525 1153 
L 897 3053 
L 409 3053 
L 500 3500 
L 978 3500 
L 1172 4494 
L 1747 4494 
L 1556 3500 
L 2706 3500 
z
" transform="scale(0.015625)"/>
       <path id="DejaVuSans-Oblique-6f" d="M 1625 -91 
Q 1009 -91 651 289 
Q 294 669 294 1325 
Q 294 1706 417 2101 
Q 541 2497 738 2766 
Q 1047 3184 1428 3384 
Q 1809 3584 2291 3584 
Q 2888 3584 3255 3212 
Q 3622 2841 3622 2241 
Q 3622 1825 3500 1412 
Q 3378 1000 3181 728 
Q 2875 309 2494 109 
Q 2113 -91 1625 -91 
z
M 891 1344 
Q 891 869 1089 633 
Q 1288 397 1691 397 
Q 2269 397 2648 901 
Q 3028 1406 3028 2181 
Q 3028 2634 2825 2865 
Q 2622 3097 2228 3097 
Q 1903 3097 1650 2945 
Q 1397 2794 1197 2484 
Q 1050 2253 970 1956 
Q 891 1659 891 1344 
z
" transform="scale(0.015625)"/>
       <path id="DejaVuSans-2c" d="M 750 794 
L 1409 794 
L 1409 256 
L 897 -744 
L 494 -744 
L 750 256 
L 750 794 
z
" transform="scale(0.015625)"/>
       <path id="DejaVuSans-Oblique-4c" d="M 1075 4666 
L 1709 4666 
L 909 525 
L 3181 525 
L 3078 0 
L 172 0 
L 1075 4666 
z
" transform="scale(0.015625)"/>
       <path id="DejaVuSans-b0" d="M 1600 4347 
Q 1350 4347 1178 4173 
Q 1006 4000 1006 3750 
Q 1006 3503 1178 3333 
Q 1350 3163 1600 3163 
Q 1850 3163 2022 3333 
Q 2194 3503 2194 3750 
Q 2194 3997 2020 4172 
Q 1847 4347 1600 4347 
z
M 1600 4750 
Q 1800 4750 1984 4673 
Q 2169 4597 2303 4453 
Q 2447 4313 2519 4134 
Q 2591 3956 2591 3750 
Q 2591 3338 2302 3052 
Q 2013 2766 1594 2766 
Q 1172 2766 890 3047 
Q 609 3328 609 3750 
Q 609 4169 896 4459 
Q 1184 4750 1600 4750 
z
" transform="scale(0.015625)"/>
       <path id="DejaVuSans-43" d="M 4122 4306 
L 4122 3641 
Q 3803 3938 3442 4084 
Q 3081 4231 2675 4231 
Q 1875 4231 1450 3742 
Q 1025 3253 1025 2328 
Q 1025 1406 1450 917 
Q 1875 428 2675 428 
Q 3081 428 3442 575 
Q 3803 722 4122 1019 
L 4122 359 
Q 3791 134 3420 21 
Q 3050 -91 2638 -91 
Q 1578 -91 968 557 
Q 359 1206 359 2328 
Q 359 3453 968 4101 
Q 1578 4750 2638 4750 
Q 3056 4750 3426 4639 
Q 3797 4528 4122 4306 
z
" transform="scale(0.015625)"/>
      </defs>
      <use xlink:href="#DejaVuSans-Oblique-54" transform="translate(0 0.015625)"/>
      <use xlink:href="#DejaVuSans-Oblique-73" transform="translate(61.083984 -16.390625) scale(0.7)"/>
      <use xlink:href="#DejaVuSans-Oblique-74" transform="translate(97.553711 -16.390625) scale(0.7)"/>
      <use xlink:href="#DejaVuSans-Oblique-6f" transform="translate(125 -16.390625) scale(0.7)"/>
      <use xlink:href="#DejaVuSans-2c" transform="translate(167.827148 -16.390625) scale(0.7)"/>
      <use xlink:href="#DejaVuSans-Oblique-4c" transform="translate(203.71582 -16.390625) scale(0.7)"/>
      <use xlink:href="#DejaVuSans-Oblique-54" transform="translate(242.714844 -16.390625) scale(0.7)"/>
      <use xlink:href="#DejaVuSans-20" transform="translate(288.208008 0.015625)"/>
      <use xlink:href="#DejaVuSans-5b" transform="translate(319.995117 0.015625)"/>
      <use xlink:href="#DejaVuSans-b0" transform="translate(359.008789 0.015625)"/>
      <use xlink:href="#DejaVuSans-43" transform="translate(409.008789 0.015625)"/>
      <use xlink:href="#DejaVuSans-5d" transform="translate(478.833008 0.015625)"/>
     </g>
    </g>
   </g>
   <g id="QuadContourSet_2">
    <path clip-path="url(#p04a88768bf)" style="fill: none; stroke: #000000; stroke-width: 1.5"/>
    <path clip-path="url(#p04a88768bf)" style="fill: none; stroke: #000000; stroke-width: 1.5"/>
    <path clip-path="url(#p04a88768bf)" style="fill: none; stroke: #000000; stroke-width: 1.5"/>
    <path clip-path="url(#p04a88768bf)" style="fill: none; stroke: #000000; stroke-width: 1.5"/>
    <path clip-path="url(#p04a88768bf)" style="fill: none; stroke: #000000; stroke-width: 1.5"/>
    <path clip-path="url(#p04a88768bf)" style="fill: none; stroke: #000000; stroke-width: 1.5"/>
    <path clip-path="url(#p04a88768bf)" style="fill: none; stroke: #000000; stroke-width: 1.5"/>
    <path clip-path="url(#p04a88768bf)" style="fill: none; stroke: #000000; stroke-width: 1.5"/>
    <path clip-path="url(#p04a88768bf)" style="fill: none; stroke: #000000; stroke-width: 1.5"/>
    <path d="M 90 102.569631 
L 94.509091 102.569631 
L 99.018182 102.569631 
L 103.527273 102.569631 
L 108.036364 102.569631 
L 112.545455 102.569631 
L 117.054545 102.569631 
L 121.563636 102.569631 
L 126.072727 102.569631 
L 130.581818 102.569631 
L 135.090909 102.569631 
L 139.6 102.569631 
L 144.109091 102.569631 
L 148.618182 102.569631 
L 153.127273 102.973516 
L 157.636364 103.478372 
L 162.145455 103.976723 
L 166.654545 104.360992 
L 171.163636 104.659227 
L 175.672727 104.957461 
L 180.181818 105.296974 
L 182.889539 105.6 
L 184.690909 105.801595 
L 189.2 106.306216 
L 193.709091 106.810837 
L 198.218182 107.34851 
L 202.727273 107.94202 
L 207.236364 108.609567 
L 209.468158 108.96 
L 211.745455 109.317578 
L 216.254545 109.986874 
L 220.763636 110.483015 
L 225.272727 110.96984 
L 229.781818 111.456666 
L 234.290909 111.943492 
L 237.778208 112.32 
L 238.8 112.448906 
L 243.309091 113.048231 
L 247.818182 113.647556 
L 252.327273 114.246882 
L 256.836364 114.846207 
L 261.345455 115.445532 
L 263.109501 115.68 
L 265.854545 116.1064 
L 270.363636 116.566484 
L 274.872727 117.182902 
L 279.381818 117.85684 
L 283.890909 118.54577 
L 287.125676 119.04 
L 288.4 119.2347 
L 289.033457 119.331484 
M 314.811841 123.4832 
L 315.454545 123.581081 
L 319.963636 124.079995 
L 324.472727 124.547829 
L 328.981818 125.017532 
L 333.490909 125.494709 
L 335.997774 125.76 
L 338 125.971887 
L 342.509091 126.449065 
L 347.018182 127.010069 
L 351.527273 127.637985 
L 356.036364 128.311909 
L 360.545455 128.882232 
L 362.68433 129.12 
L 365.054545 129.383485 
L 369.563636 129.884739 
L 374.072727 130.385993 
L 378.581818 130.887247 
L 383.090909 131.444853 
L 387.6 132.085062 
L 390.279025 132.48 
L 392.109091 132.75748 
L 396.618182 133.298157 
L 401.127273 133.838834 
L 405.636364 134.379511 
L 410.145455 134.920188 
L 414.654545 135.460865 
L 418.094637 135.84 
L 419.163636 135.996549 
L 423.672727 136.690473 
L 428.181818 137.395713 
L 432.690909 138.100954 
L 437.2 138.806195 
L 439.717871 139.2 
L 441.709091 139.511435 
L 446.218182 140.216676 
L 450.727273 140.962296 
L 455.236364 141.718012 
L 459.745455 142.473727 
L 460.260213 142.56 
L 464.254545 143.19714 
L 468.763636 143.736409 
L 473.272727 144.199063 
L 477.781818 144.671462 
L 482.290909 145.182842 
L 486.8 145.694222 
L 488.790795 145.92 
L 491.309091 146.205602 
L 495.818182 146.857905 
L 500.327273 147.552295 
L 504.836364 148.269555 
L 509.345455 148.973637 
L 511.332254 149.28 
L 513.854545 149.653912 
L 518.363636 150.179952 
L 522.872727 150.618898 
L 527.381818 151.057845 
L 531.890909 151.496791 
L 536.4 151.935737 
" clip-path="url(#p04a88768bf)" style="fill: none; stroke: #000000; stroke-width: 1.5"/>
    <path d="M 90 76.444228 
L 94.509091 76.444228 
L 99.018182 76.444228 
L 103.527273 76.444228 
L 108.036364 76.444228 
L 112.545455 76.444228 
L 117.054545 76.444228 
L 121.563636 76.444228 
L 126.072727 76.444228 
L 130.581818 76.444228 
L 135.090909 76.444228 
L 139.6 76.444228 
L 144.109091 76.444228 
L 148.618182 76.444228 
L 153.127273 76.741077 
L 157.636364 77.172031 
L 162.145455 77.651178 
L 166.654545 78.139918 
L 171.163636 78.628657 
L 172.006365 78.72 
L 175.672727 79.117396 
L 180.181818 79.64772 
L 184.690909 80.344381 
L 189.2 81.041042 
L 193.709091 81.737704 
L 196.294066 82.08 
L 198.218182 82.322035 
L 202.727273 82.826172 
L 207.236364 83.330309 
L 211.745455 83.865004 
L 216.254545 84.420072 
L 220.763636 84.97514 
L 224.53992 85.44 
L 225.272727 85.530208 
L 229.781818 86.130534 
L 234.290909 86.759382 
L 238.8 87.399552 
L 243.309091 88.092459 
L 247.818182 88.719452 
L 248.472443 88.8 
L 252.327273 89.265409 
L 256.836364 89.809809 
L 261.345455 90.354209 
L 265.854545 90.89861 
L 270.363636 91.49474 
L 274.872727 92.057615 
L 275.726111 92.16 
L 279.381818 92.670078 
L 283.890909 93.299229 
L 288.4 93.928379 
L 292.909091 94.557529 
L 297.418182 95.12047 
L 300.906533 95.52 
L 301.927273 95.644868 
L 306.436364 96.299666 
L 310.945455 96.959201 
L 315.454545 97.618737 
L 319.963636 98.278272 
L 324.077513 98.88 
L 324.472727 98.937807 
L 328.981818 99.604371 
L 331.040621 99.921552 
M 361.887427 104.122274 
L 365.054545 104.573358 
L 369.563636 105.215575 
L 372.687815 105.6 
L 374.072727 105.765126 
L 378.581818 106.289728 
L 383.090909 106.81433 
L 387.6 107.338932 
L 392.109091 107.888603 
L 396.618182 108.438274 
L 400.898034 108.96 
L 401.127273 108.987945 
L 405.636364 109.537616 
L 410.145455 110.093467 
L 414.654545 110.70853 
L 419.163636 111.383637 
L 423.672727 111.992141 
L 426.322499 112.32 
L 428.181818 112.574124 
L 432.690909 113.190408 
L 437.2 113.806692 
L 441.709091 114.422975 
L 446.218182 115.003659 
L 450.727273 115.521615 
L 451.932586 115.68 
L 455.236364 116.157089 
L 459.745455 116.808235 
L 464.254545 117.45938 
L 468.763636 118.110525 
L 473.272727 118.76167 
L 475.194001 119.04 
L 477.781818 119.41489 
L 482.290909 120.076405 
L 486.8 120.73792 
L 491.309091 121.399436 
L 495.818182 122.043667 
L 498.67914 122.4 
L 500.327273 122.600309 
L 504.836364 123.148331 
L 509.345455 123.686285 
L 513.854545 124.217527 
L 518.363636 124.748769 
L 522.872727 125.306097 
L 525.914766 125.76 
L 527.381818 125.979695 
L 531.890909 126.660612 
L 536.4 127.343115 
" clip-path="url(#p04a88768bf)" style="fill: none; stroke: #000000; stroke-width: 1.5"/>
    <path d="M 90 56.528984 
L 94.509091 56.528984 
L 99.018182 56.528984 
L 103.527273 56.528984 
L 108.036364 56.528984 
L 112.545455 56.528984 
L 117.054545 56.528984 
L 121.563636 56.528984 
L 126.072727 56.528984 
L 130.581818 56.528984 
L 135.090909 56.528984 
L 139.6 56.528984 
L 144.109091 56.528984 
L 148.618182 56.528984 
L 153.127273 56.942551 
L 157.636364 57.45951 
L 162.145455 57.976469 
L 166.654545 58.493428 
L 167.276838 58.56 
L 171.163636 58.962544 
L 175.672727 59.362574 
L 180.181818 59.796641 
L 184.690909 60.366854 
L 189.2 60.939279 
L 193.709091 61.521655 
L 196.430268 61.92 
L 198.218182 62.182298 
L 202.727273 62.841799 
L 207.236364 63.501871 
L 211.745455 64.169652 
L 216.254545 64.842572 
L 219.335207 65.28 
L 220.763636 65.475233 
L 225.272727 66.00505 
L 229.781818 66.534867 
L 234.290909 67.064684 
L 238.8 67.594502 
L 243.309091 68.263444 
L 246.144049 68.64 
L 247.818182 68.855826 
L 252.327273 69.412418 
L 256.836364 69.969009 
L 261.345455 70.5256 
L 265.854545 71.082192 
L 270.363636 71.641322 
L 273.236612 72 
L 274.872727 72.235761 
L 279.381818 72.885511 
L 283.890909 73.535262 
L 288.4 74.185012 
L 292.909091 74.834763 
L 297.01909 75.36 
L 297.418182 75.411032 
L 301.927273 76.062262 
L 306.436364 76.741352 
L 310.945455 77.420441 
L 315.454545 78.09953 
L 319.670501 78.72 
L 319.963636 78.761608 
L 324.472727 79.304601 
L 328.981818 79.853381 
L 333.490909 80.425306 
L 338 81.00517 
L 342.509091 81.601896 
L 345.84672 82.08 
L 347.018182 82.247808 
L 351.527273 82.89372 
L 356.036364 83.539632 
L 360.545455 84.121485 
L 365.054545 84.660634 
L 369.563636 85.199782 
L 371.57267 85.44 
L 374.072727 85.73893 
L 378.581818 86.333902 
L 383.090909 86.966775 
L 387.6 87.619006 
L 392.109091 88.290718 
L 395.82316 88.8 
L 396.618182 88.905656 
L 401.127273 89.459603 
L 405.636364 90.013551 
L 410.145455 90.567498 
L 414.654545 91.121446 
L 419.163636 91.687856 
L 422.802195 92.16 
L 423.672727 92.2856 
L 428.181818 92.936171 
L 432.690909 93.586743 
L 437.2 94.237314 
L 441.709091 94.887885 
L 446.218182 95.48565 
L 446.505735 95.52 
L 450.727273 96.049887 
L 455.236364 96.677047 
L 459.745455 97.320167 
L 464.254545 97.963288 
L 468.763636 98.606409 
L 470.681857 98.88 
L 473.272727 99.24953 
L 477.781818 99.872666 
L 482.290909 100.415863 
L 486.8 100.980561 
L 491.309091 101.577284 
L 495.818182 102.218383 
L 495.970222 102.24 
L 500.327273 102.859482 
L 503.169079 103.263527 
M 534.08006 107.571414 
L 536.4 107.865077 
" clip-path="url(#p04a88768bf)" style="fill: none; stroke: #000000; stroke-width: 1.5"/>
    <path d="M 248.941634 51.84 
L 252.327273 52.342274 
L 256.836364 53.011216 
L 261.345455 53.680159 
L 265.854545 54.316264 
L 270.363636 54.892894 
L 272.73609 55.2 
L 274.872727 55.477009 
L 279.381818 56.09832 
L 283.890909 56.724269 
L 288.4 57.350218 
L 292.909091 57.976167 
L 297.114792 58.56 
L 297.418182 58.602116 
L 301.927273 59.186261 
L 306.436364 59.759956 
L 310.945455 60.362136 
L 313.566822 60.72706 
M 344.399523 65.109695 
L 345.794737 65.28 
L 347.018182 65.428398 
L 351.527273 65.975328 
L 356.036364 66.522259 
L 360.545455 67.132457 
L 365.054545 67.766311 
L 369.563636 68.34414 
L 371.929643 68.64 
L 374.072727 68.907984 
L 378.581818 69.471828 
L 383.090909 70.035672 
L 387.6 70.599517 
L 392.109091 71.180202 
L 396.618182 71.760886 
L 398.474928 72 
L 401.127273 72.383834 
L 405.636364 73.036366 
L 410.145455 73.688899 
L 414.654545 74.32349 
L 419.163636 74.904146 
L 422.502289 75.36 
L 423.672727 75.52396 
L 428.181818 76.190988 
L 432.690909 76.860722 
L 437.2 77.530455 
L 441.709091 78.200189 
L 445.208806 78.72 
L 446.218182 78.869922 
L 450.727273 79.526101 
L 455.236364 80.178892 
L 459.745455 80.831683 
L 464.254545 81.469532 
L 468.763636 82.029182 
L 469.183562 82.08 
L 473.272727 82.574861 
L 477.781818 83.124442 
L 482.290909 83.689631 
L 486.8 84.254821 
L 491.309091 84.821861 
L 495.818182 85.392661 
L 496.170535 85.44 
L 500.327273 85.998464 
L 504.836364 86.604268 
L 509.345455 87.246219 
L 513.854545 87.90621 
L 518.363636 88.51379 
L 520.541747 88.8 
L 522.872727 89.106298 
L 527.381818 89.698807 
L 531.890909 90.291315 
L 536.4 90.883823 
" clip-path="url(#p04a88768bf)" style="fill: none; stroke: #000000; stroke-width: 1.5"/>
    <path d="M 360.912424 51.84 
L 365.054545 52.439283 
L 369.563636 53.091658 
L 374.072727 53.744034 
L 378.581818 54.39641 
L 383.090909 55.044012 
L 384.311125 55.2 
L 387.6 55.611261 
L 392.109091 56.191946 
L 396.618182 56.810432 
L 401.127273 57.44818 
L 405.636364 58.090779 
L 408.928872 58.56 
L 410.145455 58.733377 
L 414.654545 59.375976 
L 419.163636 60.01893 
L 423.672727 60.662415 
L 426.284815 61.035182 
M 457.142057 65.143132 
L 458.205837 65.28 
L 459.745455 65.47809 
L 464.254545 66.05824 
L 468.763636 66.668146 
L 473.272727 67.30325 
L 477.781818 67.936871 
L 482.290909 68.48322 
L 483.584833 68.64 
L 486.8 69.029569 
L 491.309091 69.575918 
L 495.818182 70.122267 
L 500.327273 70.668616 
L 504.836364 71.237974 
L 509.345455 71.835999 
L 510.630702 72 
L 513.854545 72.461475 
L 518.363636 73.106926 
L 522.872727 73.752376 
L 527.381818 74.397827 
L 531.890909 75.043278 
L 534.297331 75.36 
L 536.4 75.640072 
" clip-path="url(#p04a88768bf)" style="fill: none; stroke: #000000; stroke-width: 1.5"/>
    <path d="M 463.329032 51.84 
L 464.254545 51.974532 
L 468.763636 52.629971 
L 473.272727 53.28541 
L 477.781818 53.927896 
L 482.290909 54.506752 
L 484.910232 54.878319 
M 515.745259 59.241875 
L 518.363636 59.610265 
L 522.872727 60.239146 
L 527.381818 60.83186 
L 531.890909 61.401036 
L 536.002219 61.92 
L 536.4 61.970211 
" clip-path="url(#p04a88768bf)" style="fill: none; stroke: #000000; stroke-width: 1.5"/>
    <path clip-path="url(#p04a88768bf)" style="fill: none; stroke: #000000; stroke-width: 1.5"/>
    <path clip-path="url(#p04a88768bf)" style="fill: none; stroke: #000000; stroke-width: 1.5"/>
    <path clip-path="url(#p04a88768bf)" style="fill: none; stroke: #000000; stroke-width: 1.5"/>
   </g>
   <g id="patch_3">
    <path d="M 90 384.48 
L 90 51.84 
" style="fill: none; stroke: #000000; stroke-width: 0.8; stroke-linejoin: miter; stroke-linecap: square"/>
   </g>
   <g id="patch_4">
    <path d="M 536.4 384.48 
L 536.4 51.84 
" style="fill: none; stroke: #000000; stroke-width: 0.8; stroke-linejoin: miter; stroke-linecap: square"/>
   </g>
   <g id="patch_5">
    <path d="M 90 384.48 
L 536.4 384.48 
" style="fill: none; stroke: #000000; stroke-width: 0.8; stroke-linejoin: miter; stroke-linecap: square"/>
   </g>
   <g id="patch_6">
    <path d="M 90 51.84 
L 536.4 51.84 
" style="fill: none; stroke: #000000; stroke-width: 0.8; stroke-linejoin: miter; stroke-linecap: square"/>
   </g>
   <g id="text_20">
    <g clip-path="url(#p04a88768bf)">
     <!-- 9000 -->
     <g transform="translate(288.951888 122.448819) rotate(-352.548889) scale(0.1 -0.1)">
      <use xlink:href="#DejaVuSans-39"/>
      <use xlink:href="#DejaVuSans-30" x="63.623047"/>
      <use xlink:href="#DejaVuSans-30" x="127.246094"/>
      <use xlink:href="#DejaVuSans-30" x="190.869141"/>
     </g>
    </g>
   </g>
   <g id="text_21">
    <g clip-path="url(#p04a88768bf)">
     <!-- 10000 -->
     <g transform="translate(330.335322 103.286535) rotate(-353.87527) scale(0.1 -0.1)">
      <use xlink:href="#DejaVuSans-31"/>
      <use xlink:href="#DejaVuSans-30" x="63.623047"/>
      <use xlink:href="#DejaVuSans-30" x="127.246094"/>
      <use xlink:href="#DejaVuSans-30" x="190.869141"/>
      <use xlink:href="#DejaVuSans-30" x="254.492188"/>
     </g>
    </g>
   </g>
   <g id="text_22">
    <g clip-path="url(#p04a88768bf)">
     <!-- 11000 -->
     <g transform="translate(502.493584 106.569875) rotate(-353.602663) scale(0.1 -0.1)">
      <use xlink:href="#DejaVuSans-31"/>
      <use xlink:href="#DejaVuSans-31" x="63.623047"/>
      <use xlink:href="#DejaVuSans-30" x="127.246094"/>
      <use xlink:href="#DejaVuSans-30" x="190.869141"/>
      <use xlink:href="#DejaVuSans-30" x="254.492188"/>
     </g>
    </g>
   </g>
   <g id="text_23">
    <g clip-path="url(#p04a88768bf)">
     <!-- 12000 -->
     <g transform="translate(312.864105 63.854075) rotate(-353.417363) scale(0.1 -0.1)">
      <use xlink:href="#DejaVuSans-31"/>
      <use xlink:href="#DejaVuSans-32" x="63.623047"/>
      <use xlink:href="#DejaVuSans-30" x="127.246094"/>
      <use xlink:href="#DejaVuSans-30" x="190.869141"/>
      <use xlink:href="#DejaVuSans-30" x="254.492188"/>
     </g>
    </g>
   </g>
   <g id="text_24">
    <g clip-path="url(#p04a88768bf)">
     <!-- 13000 -->
     <g transform="translate(425.600553 64.206175) rotate(-353.947168) scale(0.1 -0.1)">
      <use xlink:href="#DejaVuSans-31"/>
      <use xlink:href="#DejaVuSans-33" x="63.623047"/>
      <use xlink:href="#DejaVuSans-30" x="127.246094"/>
      <use xlink:href="#DejaVuSans-30" x="190.869141"/>
      <use xlink:href="#DejaVuSans-30" x="254.492188"/>
     </g>
    </g>
   </g>
   <g id="text_25">
    <g clip-path="url(#p04a88768bf)">
     <!-- 14000 -->
     <g transform="translate(484.211537 58.017167) rotate(-353.538571) scale(0.1 -0.1)">
      <use xlink:href="#DejaVuSans-31"/>
      <use xlink:href="#DejaVuSans-34" x="63.623047"/>
      <use xlink:href="#DejaVuSans-30" x="127.246094"/>
      <use xlink:href="#DejaVuSans-30" x="190.869141"/>
      <use xlink:href="#DejaVuSans-30" x="254.492188"/>
     </g>
    </g>
   </g>
  </g>
  <g id="axes_2">
   <g id="patch_7">
    <path d="M 564.3 384.48 
L 580.932 384.48 
L 580.932 51.84 
L 564.3 51.84 
z
" style="fill: #ffffff"/>
   </g>
   <g id="QuadMesh_1">
    <path d="M 564.3 384.48 
L 580.932 384.48 
L 580.932 364.912941 
L 564.3 364.912941 
L 564.3 384.48 
" clip-path="url(#p2c5869c580)" style="fill: #460b5e"/>
    <path d="M 564.3 364.912941 
L 580.932 364.912941 
L 580.932 345.345882 
L 564.3 345.345882 
L 564.3 364.912941 
" clip-path="url(#p2c5869c580)" style="fill: #482071"/>
    <path d="M 564.3 345.345882 
L 580.932 345.345882 
L 580.932 325.778824 
L 564.3 325.778824 
L 564.3 345.345882 
" clip-path="url(#p2c5869c580)" style="fill: #46337f"/>
    <path d="M 564.3 325.778824 
L 580.932 325.778824 
L 580.932 306.211765 
L 564.3 306.211765 
L 564.3 325.778824 
" clip-path="url(#p2c5869c580)" style="fill: #404588"/>
    <path d="M 564.3 306.211765 
L 580.932 306.211765 
L 580.932 286.644706 
L 564.3 286.644706 
L 564.3 306.211765 
" clip-path="url(#p2c5869c580)" style="fill: #39558c"/>
    <path d="M 564.3 286.644706 
L 580.932 286.644706 
L 580.932 267.077647 
L 564.3 267.077647 
L 564.3 286.644706 
" clip-path="url(#p2c5869c580)" style="fill: #32658e"/>
    <path d="M 564.3 267.077647 
L 580.932 267.077647 
L 580.932 247.510588 
L 564.3 247.510588 
L 564.3 267.077647 
" clip-path="url(#p2c5869c580)" style="fill: #2c738e"/>
    <path d="M 564.3 247.510588 
L 580.932 247.510588 
L 580.932 227.943529 
L 564.3 227.943529 
L 564.3 247.510588 
" clip-path="url(#p2c5869c580)" style="fill: #26828e"/>
    <path d="M 564.3 227.943529 
L 580.932 227.943529 
L 580.932 208.376471 
L 564.3 208.376471 
L 564.3 227.943529 
" clip-path="url(#p2c5869c580)" style="fill: #21918c"/>
    <path d="M 564.3 208.376471 
L 580.932 208.376471 
L 580.932 188.809412 
L 564.3 188.809412 
L 564.3 208.376471 
" clip-path="url(#p2c5869c580)" style="fill: #1f9f88"/>
    <path d="M 564.3 188.809412 
L 580.932 188.809412 
L 580.932 169.242353 
L 564.3 169.242353 
L 564.3 188.809412 
" clip-path="url(#p2c5869c580)" style="fill: #26ad81"/>
    <path d="M 564.3 169.242353 
L 580.932 169.242353 
L 580.932 149.675294 
L 564.3 149.675294 
L 564.3 169.242353 
" clip-path="url(#p2c5869c580)" style="fill: #3aba76"/>
    <path d="M 564.3 149.675294 
L 580.932 149.675294 
L 580.932 130.108235 
L 564.3 130.108235 
L 564.3 149.675294 
" clip-path="url(#p2c5869c580)" style="fill: #56c667"/>
    <path d="M 564.3 130.108235 
L 580.932 130.108235 
L 580.932 110.541176 
L 564.3 110.541176 
L 564.3 130.108235 
" clip-path="url(#p2c5869c580)" style="fill: #77d153"/>
    <path d="M 564.3 110.541176 
L 580.932 110.541176 
L 580.932 90.974118 
L 564.3 90.974118 
L 564.3 110.541176 
" clip-path="url(#p2c5869c580)" style="fill: #9dd93b"/>
    <path d="M 564.3 90.974118 
L 580.932 90.974118 
L 580.932 71.407059 
L 564.3 71.407059 
L 564.3 90.974118 
" clip-path="url(#p2c5869c580)" style="fill: #c5e021"/>
    <path d="M 564.3 71.407059 
L 580.932 71.407059 
L 580.932 51.84 
L 564.3 51.84 
L 564.3 71.407059 
" clip-path="url(#p2c5869c580)" style="fill: #ece51b"/>
   </g>
   <g id="matplotlib.axis_3"/>
   <g id="matplotlib.axis_4">
    <g id="ytick_10">
     <g id="line2d_35">
      <defs>
       <path id="m0f0f56e4e5" d="M 0 0 
L 3.5 0 
" style="stroke: #000000; stroke-width: 0.8"/>
      </defs>
      <g>
       <use xlink:href="#m0f0f56e4e5" x="580.932" y="384.48" style="stroke: #000000; stroke-width: 0.8"/>
      </g>
     </g>
     <g id="text_26">
      <!-- 0 -->
      <g transform="translate(587.932 388.279219) scale(0.1 -0.1)">
       <use xlink:href="#DejaVuSans-30"/>
      </g>
     </g>
    </g>
    <g id="ytick_11">
     <g id="line2d_36">
      <g>
       <use xlink:href="#m0f0f56e4e5" x="580.932" y="345.345882" style="stroke: #000000; stroke-width: 0.8"/>
      </g>
     </g>
     <g id="text_27">
      <!-- 2000 -->
      <g transform="translate(587.932 349.145101) scale(0.1 -0.1)">
       <use xlink:href="#DejaVuSans-32"/>
       <use xlink:href="#DejaVuSans-30" x="63.623047"/>
       <use xlink:href="#DejaVuSans-30" x="127.246094"/>
       <use xlink:href="#DejaVuSans-30" x="190.869141"/>
      </g>
     </g>
    </g>
    <g id="ytick_12">
     <g id="line2d_37">
      <g>
       <use xlink:href="#m0f0f56e4e5" x="580.932" y="306.211765" style="stroke: #000000; stroke-width: 0.8"/>
      </g>
     </g>
     <g id="text_28">
      <!-- 4000 -->
      <g transform="translate(587.932 310.010983) scale(0.1 -0.1)">
       <use xlink:href="#DejaVuSans-34"/>
       <use xlink:href="#DejaVuSans-30" x="63.623047"/>
       <use xlink:href="#DejaVuSans-30" x="127.246094"/>
       <use xlink:href="#DejaVuSans-30" x="190.869141"/>
      </g>
     </g>
    </g>
    <g id="ytick_13">
     <g id="line2d_38">
      <g>
       <use xlink:href="#m0f0f56e4e5" x="580.932" y="267.077647" style="stroke: #000000; stroke-width: 0.8"/>
      </g>
     </g>
     <g id="text_29">
      <!-- 6000 -->
      <g transform="translate(587.932 270.876866) scale(0.1 -0.1)">
       <use xlink:href="#DejaVuSans-36"/>
       <use xlink:href="#DejaVuSans-30" x="63.623047"/>
       <use xlink:href="#DejaVuSans-30" x="127.246094"/>
       <use xlink:href="#DejaVuSans-30" x="190.869141"/>
      </g>
     </g>
    </g>
    <g id="ytick_14">
     <g id="line2d_39">
      <g>
       <use xlink:href="#m0f0f56e4e5" x="580.932" y="227.943529" style="stroke: #000000; stroke-width: 0.8"/>
      </g>
     </g>
     <g id="text_30">
      <!-- 8000 -->
      <g transform="translate(587.932 231.742748) scale(0.1 -0.1)">
       <use xlink:href="#DejaVuSans-38"/>
       <use xlink:href="#DejaVuSans-30" x="63.623047"/>
       <use xlink:href="#DejaVuSans-30" x="127.246094"/>
       <use xlink:href="#DejaVuSans-30" x="190.869141"/>
      </g>
     </g>
    </g>
    <g id="ytick_15">
     <g id="line2d_40">
      <g>
       <use xlink:href="#m0f0f56e4e5" x="580.932" y="188.809412" style="stroke: #000000; stroke-width: 0.8"/>
      </g>
     </g>
     <g id="text_31">
      <!-- 10000 -->
      <g transform="translate(587.932 192.608631) scale(0.1 -0.1)">
       <use xlink:href="#DejaVuSans-31"/>
       <use xlink:href="#DejaVuSans-30" x="63.623047"/>
       <use xlink:href="#DejaVuSans-30" x="127.246094"/>
       <use xlink:href="#DejaVuSans-30" x="190.869141"/>
       <use xlink:href="#DejaVuSans-30" x="254.492188"/>
      </g>
     </g>
    </g>
    <g id="ytick_16">
     <g id="line2d_41">
      <g>
       <use xlink:href="#m0f0f56e4e5" x="580.932" y="149.675294" style="stroke: #000000; stroke-width: 0.8"/>
      </g>
     </g>
     <g id="text_32">
      <!-- 12000 -->
      <g transform="translate(587.932 153.474513) scale(0.1 -0.1)">
       <use xlink:href="#DejaVuSans-31"/>
       <use xlink:href="#DejaVuSans-32" x="63.623047"/>
       <use xlink:href="#DejaVuSans-30" x="127.246094"/>
       <use xlink:href="#DejaVuSans-30" x="190.869141"/>
       <use xlink:href="#DejaVuSans-30" x="254.492188"/>
      </g>
     </g>
    </g>
    <g id="ytick_17">
     <g id="line2d_42">
      <g>
       <use xlink:href="#m0f0f56e4e5" x="580.932" y="110.541176" style="stroke: #000000; stroke-width: 0.8"/>
      </g>
     </g>
     <g id="text_33">
      <!-- 14000 -->
      <g transform="translate(587.932 114.340395) scale(0.1 -0.1)">
       <use xlink:href="#DejaVuSans-31"/>
       <use xlink:href="#DejaVuSans-34" x="63.623047"/>
       <use xlink:href="#DejaVuSans-30" x="127.246094"/>
       <use xlink:href="#DejaVuSans-30" x="190.869141"/>
       <use xlink:href="#DejaVuSans-30" x="254.492188"/>
      </g>
     </g>
    </g>
    <g id="ytick_18">
     <g id="line2d_43">
      <g>
       <use xlink:href="#m0f0f56e4e5" x="580.932" y="71.407059" style="stroke: #000000; stroke-width: 0.8"/>
      </g>
     </g>
     <g id="text_34">
      <!-- 16000 -->
      <g transform="translate(587.932 75.206278) scale(0.1 -0.1)">
       <use xlink:href="#DejaVuSans-31"/>
       <use xlink:href="#DejaVuSans-36" x="63.623047"/>
       <use xlink:href="#DejaVuSans-30" x="127.246094"/>
       <use xlink:href="#DejaVuSans-30" x="190.869141"/>
       <use xlink:href="#DejaVuSans-30" x="254.492188"/>
      </g>
     </g>
    </g>
    <g id="text_35">
     <!-- $\dot{W}_{comp}$ [W] -->
     <g transform="translate(640.7045 258.64) rotate(-90) scale(0.16 -0.16)">
      <defs>
       <path id="DejaVuSans-307" d="M -1894 4863 
L -1319 4863 
L -1319 4134 
L -1894 4134 
L -1894 4863 
z
M -1600 3584 
L -1600 3584 
z
" transform="scale(0.015625)"/>
       <path id="DejaVuSans-Oblique-57" d="M 616 4666 
L 1228 4666 
L 1453 697 
L 3213 4666 
L 3916 4666 
L 4147 697 
L 5888 4666 
L 6528 4666 
L 4453 0 
L 3659 0 
L 3444 3891 
L 1697 0 
L 903 0 
L 616 4666 
z
" transform="scale(0.015625)"/>
       <path id="DejaVuSans-Oblique-6d" d="M 5747 2113 
L 5338 0 
L 4763 0 
L 5166 2094 
Q 5191 2228 5203 2325 
Q 5216 2422 5216 2491 
Q 5216 2772 5059 2928 
Q 4903 3084 4622 3084 
Q 4203 3084 3875 2770 
Q 3547 2456 3450 1953 
L 3066 0 
L 2491 0 
L 2900 2094 
Q 2925 2209 2937 2307 
Q 2950 2406 2950 2484 
Q 2950 2769 2794 2926 
Q 2638 3084 2363 3084 
Q 1938 3084 1609 2770 
Q 1281 2456 1184 1953 
L 800 0 
L 225 0 
L 909 3500 
L 1484 3500 
L 1375 2956 
Q 1609 3263 1923 3423 
Q 2238 3584 2597 3584 
Q 2978 3584 3223 3384 
Q 3469 3184 3519 2828 
Q 3781 3197 4126 3390 
Q 4472 3584 4856 3584 
Q 5306 3584 5551 3325 
Q 5797 3066 5797 2591 
Q 5797 2488 5784 2364 
Q 5772 2241 5747 2113 
z
" transform="scale(0.015625)"/>
       <path id="DejaVuSans-Oblique-70" d="M 3175 2156 
Q 3175 2616 2975 2859 
Q 2775 3103 2400 3103 
Q 2144 3103 1911 2972 
Q 1678 2841 1497 2591 
Q 1319 2344 1212 1994 
Q 1106 1644 1106 1300 
Q 1106 863 1306 627 
Q 1506 391 1875 391 
Q 2147 391 2380 519 
Q 2613 647 2778 891 
Q 2956 1147 3065 1494 
Q 3175 1841 3175 2156 
z
M 1394 2969 
Q 1625 3272 1939 3428 
Q 2253 3584 2638 3584 
Q 3175 3584 3472 3232 
Q 3769 2881 3769 2247 
Q 3769 1728 3584 1258 
Q 3400 788 3053 416 
Q 2822 169 2531 39 
Q 2241 -91 1919 -91 
Q 1547 -91 1294 64 
Q 1041 219 916 525 
L 556 -1331 
L -19 -1331 
L 922 3500 
L 1497 3500 
L 1394 2969 
z
" transform="scale(0.015625)"/>
       <path id="DejaVuSans-57" d="M 213 4666 
L 850 4666 
L 1831 722 
L 2809 4666 
L 3519 4666 
L 4500 722 
L 5478 4666 
L 6119 4666 
L 4947 0 
L 4153 0 
L 3169 4050 
L 2175 0 
L 1381 0 
L 213 4666 
z
" transform="scale(0.015625)"/>
      </defs>
      <use xlink:href="#DejaVuSans-307" transform="translate(87.312988 30.015625)"/>
      <use xlink:href="#DejaVuSans-Oblique-57" transform="translate(0 0.609375)"/>
      <use xlink:href="#DejaVuSans-Oblique-63" transform="translate(99.833984 -15.796875) scale(0.7)"/>
      <use xlink:href="#DejaVuSans-Oblique-6f" transform="translate(138.320312 -15.796875) scale(0.7)"/>
      <use xlink:href="#DejaVuSans-Oblique-6d" transform="translate(181.147461 -15.796875) scale(0.7)"/>
      <use xlink:href="#DejaVuSans-Oblique-70" transform="translate(249.335938 -15.796875) scale(0.7)"/>
      <use xlink:href="#DejaVuSans-20" transform="translate(296.503906 0.609375)"/>
      <use xlink:href="#DejaVuSans-5b" transform="translate(328.291016 0.609375)"/>
      <use xlink:href="#DejaVuSans-57" transform="translate(367.304688 0.609375)"/>
      <use xlink:href="#DejaVuSans-5d" transform="translate(466.181641 0.609375)"/>
     </g>
    </g>
   </g>
   <g id="LineCollection_1"/>
   <g id="patch_8">
    <path d="M 564.3 384.48 
L 572.616 384.48 
L 580.932 384.48 
L 580.932 51.84 
L 572.616 51.84 
L 564.3 51.84 
L 564.3 384.48 
z
" style="fill: none; stroke: #000000; stroke-width: 0.8; stroke-linejoin: miter; stroke-linecap: square"/>
   </g>
  </g>
 </g>
 <defs>
  <clipPath id="p04a88768bf">
   <rect x="90" y="51.84" width="446.4" height="332.64"/>
  </clipPath>
  <clipPath id="p2c5869c580">
   <rect x="564.3" y="51.84" width="16.632" height="332.64"/>
  </clipPath>
 </defs>
</svg>
