<?xml version="1.0" encoding="utf-8" standalone="no"?>
<!DOCTYPE svg PUBLIC "-//W3C//DTD SVG 1.1//EN"
  "http://www.w3.org/Graphics/SVG/1.1/DTD/svg11.dtd">
<svg xmlns:xlink="http://www.w3.org/1999/xlink" width="720pt" height="432pt" viewBox="0 0 720 432" xmlns="http://www.w3.org/2000/svg" version="1.1">
 <metadata>
  <rdf:RDF xmlns:dc="http://purl.org/dc/elements/1.1/" xmlns:cc="http://creativecommons.org/ns#" xmlns:rdf="http://www.w3.org/1999/02/22-rdf-syntax-ns#">
   <cc:Work>
    <dc:type rdf:resource="http://purl.org/dc/dcmitype/StillImage"/>
    <dc:date>2024-06-14T15:27:52.758761</dc:date>
    <dc:format>image/svg+xml</dc:format>
    <dc:creator>
     <cc:Agent>
      <dc:title>Matplotlib v3.8.3, https://matplotlib.org/</dc:title>
     </cc:Agent>
    </dc:creator>
   </cc:Work>
  </rdf:RDF>
 </metadata>
 <defs>
  <style type="text/css">*{stroke-linejoin: round; stroke-linecap: butt}</style>
 </defs>
 <g id="figure_1">
  <g id="patch_1">
   <path d="M 0 432 
L 720 432 
L 720 0 
L 0 0 
z
" style="fill: #ffffff"/>
  </g>
  <g id="axes_1">
   <g id="patch_2">
    <path d="M 90 384.48 
L 648 384.48 
L 648 51.84 
L 90 51.84 
z
" style="fill: #ffffff"/>
   </g>
   <g id="QuadContourSet_1">
    <path clip-path="url(#pafccb6ed36)" style="fill: #471365"/>
    <path d="M 648 75.999085 
L 648 75.36 
L 648 72 
L 648 68.64 
L 648 65.28 
L 648 61.92 
L 648 58.56 
L 648 55.2 
L 648 51.84 
L 642.363636 51.84 
L 636.727273 51.84 
L 631.090909 51.84 
L 625.454545 51.84 
L 619.818182 51.84 
L 614.181818 51.84 
L 608.545455 51.84 
L 602.909091 51.84 
L 597.272727 51.84 
L 591.636364 51.84 
L 586 51.84 
L 580.363636 51.84 
L 574.727273 51.84 
L 569.090909 51.84 
L 563.454545 51.84 
L 557.818182 51.84 
L 552.181818 51.84 
L 546.545455 51.84 
L 540.909091 51.84 
L 535.272727 51.84 
L 529.636364 51.84 
L 524 51.84 
L 518.363636 51.84 
L 512.727273 51.84 
L 507.090909 51.84 
L 501.454545 51.84 
L 495.818182 51.84 
L 490.181818 51.84 
L 484.545455 51.84 
L 478.909091 51.84 
L 473.272727 51.84 
L 467.636364 51.84 
L 462 51.84 
L 456.363636 51.84 
L 450.727273 51.84 
L 445.090909 51.84 
L 439.454545 51.84 
L 433.818182 51.84 
L 428.181818 51.84 
L 422.545455 51.84 
L 419.534303 51.84 
L 422.545455 52.125088 
L 428.181818 52.667746 
L 433.818182 53.205764 
L 439.454545 53.743782 
L 445.090909 54.281801 
L 450.727273 54.819819 
L 454.642493 55.2 
L 456.363636 55.374866 
L 462 56.083612 
L 467.636364 56.748983 
L 473.272727 57.376964 
L 478.909091 57.959423 
L 484.545455 58.531685 
L 484.824334 58.56 
L 490.181818 59.103947 
L 495.818182 59.676209 
L 501.454545 60.237694 
L 507.090909 60.783013 
L 512.727273 61.328332 
L 518.363636 61.873651 
L 518.787064 61.92 
L 524 62.50389 
L 529.636364 63.135207 
L 535.272727 63.766525 
L 540.909091 64.409053 
L 546.545455 65.054384 
L 548.515995 65.28 
L 552.181818 65.699716 
L 557.818182 66.345047 
L 563.454545 66.956408 
L 569.090909 67.531663 
L 574.727273 68.086354 
L 579.814379 68.64 
L 580.363636 68.699777 
L 586 69.313201 
L 591.636364 69.926624 
L 597.272727 70.540047 
L 602.909091 71.15347 
L 608.545455 71.762458 
L 610.742419 72 
L 614.181818 72.328448 
L 619.818182 72.930503 
L 625.454545 73.532558 
L 631.090909 74.134613 
L 636.727273 74.736668 
L 642.363636 75.338723 
L 642.542743 75.36 
z
" clip-path="url(#pafccb6ed36)" style="fill: #463480"/>
    <path d="M 619.818182 135.907193 
L 625.454545 136.449785 
L 631.090909 136.992378 
L 636.727273 137.534971 
L 642.363636 138.093941 
L 648 138.706335 
L 648 135.84 
L 648 132.48 
L 648 129.12 
L 648 125.76 
L 648 122.4 
L 648 119.04 
L 648 115.68 
L 648 112.32 
L 648 108.96 
L 648 105.6 
L 648 102.24 
L 648 98.88 
L 648 95.52 
L 648 92.16 
L 648 88.8 
L 648 85.44 
L 648 82.08 
L 648 78.72 
L 648 75.999085 
L 642.542743 75.36 
L 642.363636 75.338723 
L 636.727273 74.736668 
L 631.090909 74.134613 
L 625.454545 73.532558 
L 619.818182 72.930503 
L 614.181818 72.328448 
L 610.742419 72 
L 608.545455 71.762458 
L 602.909091 71.15347 
L 597.272727 70.540047 
L 591.636364 69.926624 
L 586 69.313201 
L 580.363636 68.699777 
L 579.814379 68.64 
L 574.727273 68.086354 
L 569.090909 67.531663 
L 563.454545 66.956408 
L 557.818182 66.345047 
L 552.181818 65.699716 
L 548.515995 65.28 
L 546.545455 65.054384 
L 540.909091 64.409053 
L 535.272727 63.766525 
L 529.636364 63.135207 
L 524 62.50389 
L 518.787064 61.92 
L 518.363636 61.873651 
L 512.727273 61.328332 
L 507.090909 60.783013 
L 501.454545 60.237694 
L 495.818182 59.676209 
L 490.181818 59.103947 
L 484.824334 58.56 
L 484.545455 58.531685 
L 478.909091 57.959423 
L 473.272727 57.376964 
L 467.636364 56.748983 
L 462 56.083612 
L 456.363636 55.374866 
L 454.642493 55.2 
L 450.727273 54.819819 
L 445.090909 54.281801 
L 439.454545 53.743782 
L 433.818182 53.205764 
L 428.181818 52.667746 
L 422.545455 52.125088 
L 419.534303 51.84 
L 416.909091 51.84 
L 411.272727 51.84 
L 405.636364 51.84 
L 400 51.84 
L 394.363636 51.84 
L 388.727273 51.84 
L 383.090909 51.84 
L 377.454545 51.84 
L 371.818182 51.84 
L 366.181818 51.84 
L 360.545455 51.84 
L 354.909091 51.84 
L 349.272727 51.84 
L 343.636364 51.84 
L 338 51.84 
L 332.363636 51.84 
L 326.727273 51.84 
L 321.090909 51.84 
L 315.454545 51.84 
L 309.818182 51.84 
L 304.181818 51.84 
L 298.545455 51.84 
L 292.909091 51.84 
L 287.272727 51.84 
L 281.636364 51.84 
L 276 51.84 
L 270.363636 51.84 
L 264.727273 51.84 
L 259.090909 51.84 
L 253.454545 51.84 
L 247.818182 51.84 
L 242.181818 51.84 
L 236.545455 51.84 
L 230.909091 51.84 
L 225.272727 51.84 
L 219.636364 51.84 
L 214 51.84 
L 208.363636 51.84 
L 202.727273 51.84 
L 197.090909 51.84 
L 191.454545 51.84 
L 185.818182 51.84 
L 180.181818 51.84 
L 174.545455 51.84 
L 168.909091 51.84 
L 163.272727 51.84 
L 157.636364 51.84 
L 152 51.84 
L 146.363636 51.84 
L 140.727273 51.84 
L 135.090909 51.84 
L 129.454545 51.84 
L 123.818182 51.84 
L 118.181818 51.84 
L 112.545455 51.84 
L 106.909091 51.84 
L 101.272727 51.84 
L 95.636364 51.84 
L 90 51.84 
L 90 55.2 
L 90 58.56 
L 90 61.92 
L 90 65.28 
L 90 68.64 
L 90 72 
L 90 75.36 
L 90 78.72 
L 90 82.08 
L 90 85.44 
L 90 87.224918 
L 95.636364 87.224918 
L 101.272727 87.224918 
L 106.909091 87.224918 
L 112.545455 87.224918 
L 118.181818 87.224918 
L 123.818182 87.224918 
L 129.454545 87.224918 
L 135.090909 87.224918 
L 140.727273 87.224918 
L 146.363636 87.224918 
L 152 87.224918 
L 157.636364 87.224918 
L 163.272727 87.224918 
L 168.909091 87.630695 
L 174.545455 88.137917 
L 180.181818 88.645138 
L 181.902678 88.8 
L 185.818182 89.15236 
L 191.454545 89.659582 
L 197.090909 90.130918 
L 202.727273 90.600544 
L 208.363636 91.200636 
L 214 91.84524 
L 216.725835 92.16 
L 219.636364 92.464553 
L 225.272727 93.054334 
L 230.909091 93.644115 
L 236.545455 94.233895 
L 242.181818 94.821237 
L 247.818182 95.406953 
L 248.906033 95.52 
L 253.454545 95.967478 
L 259.090909 96.521978 
L 264.727273 97.076478 
L 270.363636 97.682936 
L 276 98.358016 
L 280.522741 98.88 
L 281.636364 99.008527 
L 287.272727 99.643281 
L 292.909091 100.24586 
L 298.545455 100.834201 
L 304.181818 101.422541 
L 309.818182 102.010881 
L 312.110249 102.24 
L 315.454545 102.574302 
L 321.090909 103.100343 
L 326.727273 103.626384 
L 332.363636 104.197431 
L 338 104.843782 
L 343.636364 105.51022 
L 344.395669 105.6 
L 349.272727 106.176659 
L 354.909091 106.829704 
L 360.545455 107.479401 
L 366.181818 108.129098 
L 371.818182 108.778794 
L 373.39021 108.96 
L 377.454545 109.428491 
L 383.090909 110.025314 
L 388.727273 110.605657 
L 394.363636 111.209285 
L 400 111.874831 
L 403.686812 112.32 
L 405.636364 112.537526 
L 411.272727 113.166418 
L 416.909091 113.795309 
L 422.545455 114.424201 
L 428.181818 115.076256 
L 433.72311 115.68 
L 433.818182 115.689495 
L 439.454545 116.252434 
L 445.090909 116.815373 
L 450.727273 117.378312 
L 456.363636 117.94125 
L 462 118.504189 
L 467.44414 119.04 
L 467.636364 119.058919 
L 473.272727 119.613648 
L 478.909091 120.168378 
L 484.545455 120.723107 
L 490.181818 121.349509 
L 495.818182 122.028825 
L 499.162401 122.4 
L 501.454545 122.654405 
L 507.090909 123.196011 
L 512.727273 123.737616 
L 518.363636 124.295761 
L 524 124.895722 
L 529.636364 125.512442 
L 531.898864 125.76 
L 535.272727 126.129161 
L 540.909091 126.794063 
L 546.545455 127.471011 
L 552.181818 128.147958 
L 557.818182 128.823172 
L 560.311324 129.12 
L 563.454545 129.493129 
L 569.090909 130.065998 
L 574.727273 130.624321 
L 580.363636 131.222651 
L 586 131.90577 
L 590.534487 132.48 
L 591.636364 132.613303 
L 597.272727 133.295179 
L 602.909091 133.977055 
L 608.545455 134.658931 
L 614.181818 135.300876 
L 619.120196 135.84 
z
" clip-path="url(#pafccb6ed36)" style="fill: #3b528b"/>
    <path d="M 642.363636 179.664592 
L 648 180.223198 
L 648 179.52 
L 648 176.16 
L 648 172.8 
L 648 169.44 
L 648 166.08 
L 648 162.72 
L 648 159.36 
L 648 156 
L 648 152.64 
L 648 149.28 
L 648 145.92 
L 648 142.56 
L 648 139.2 
L 648 138.706335 
L 642.363636 138.093941 
L 636.727273 137.534971 
L 631.090909 136.992378 
L 625.454545 136.449785 
L 619.818182 135.907193 
L 619.120196 135.84 
L 614.181818 135.300876 
L 608.545455 134.658931 
L 602.909091 133.977055 
L 597.272727 133.295179 
L 591.636364 132.613303 
L 590.534487 132.48 
L 586 131.90577 
L 580.363636 131.222651 
L 574.727273 130.624321 
L 569.090909 130.065998 
L 563.454545 129.493129 
L 560.311324 129.12 
L 557.818182 128.823172 
L 552.181818 128.147958 
L 546.545455 127.471011 
L 540.909091 126.794063 
L 535.272727 126.129161 
L 531.898864 125.76 
L 529.636364 125.512442 
L 524 124.895722 
L 518.363636 124.295761 
L 512.727273 123.737616 
L 507.090909 123.196011 
L 501.454545 122.654405 
L 499.162401 122.4 
L 495.818182 122.028825 
L 490.181818 121.349509 
L 484.545455 120.723107 
L 478.909091 120.168378 
L 473.272727 119.613648 
L 467.636364 119.058919 
L 467.44414 119.04 
L 462 118.504189 
L 456.363636 117.94125 
L 450.727273 117.378312 
L 445.090909 116.815373 
L 439.454545 116.252434 
L 433.818182 115.689495 
L 433.72311 115.68 
L 428.181818 115.076256 
L 422.545455 114.424201 
L 416.909091 113.795309 
L 411.272727 113.166418 
L 405.636364 112.537526 
L 403.686812 112.32 
L 400 111.874831 
L 394.363636 111.209285 
L 388.727273 110.605657 
L 383.090909 110.025314 
L 377.454545 109.428491 
L 373.39021 108.96 
L 371.818182 108.778794 
L 366.181818 108.129098 
L 360.545455 107.479401 
L 354.909091 106.829704 
L 349.272727 106.176659 
L 344.395669 105.6 
L 343.636364 105.51022 
L 338 104.843782 
L 332.363636 104.197431 
L 326.727273 103.626384 
L 321.090909 103.100343 
L 315.454545 102.574302 
L 312.110249 102.24 
L 309.818182 102.010881 
L 304.181818 101.422541 
L 298.545455 100.834201 
L 292.909091 100.24586 
L 287.272727 99.643281 
L 281.636364 99.008527 
L 280.522741 98.88 
L 276 98.358016 
L 270.363636 97.682936 
L 264.727273 97.076478 
L 259.090909 96.521978 
L 253.454545 95.967478 
L 248.906033 95.52 
L 247.818182 95.406953 
L 242.181818 94.821237 
L 236.545455 94.233895 
L 230.909091 93.644115 
L 225.272727 93.054334 
L 219.636364 92.464553 
L 216.725835 92.16 
L 214 91.84524 
L 208.363636 91.200636 
L 202.727273 90.600544 
L 197.090909 90.130918 
L 191.454545 89.659582 
L 185.818182 89.15236 
L 181.902678 88.8 
L 180.181818 88.645138 
L 174.545455 88.137917 
L 168.909091 87.630695 
L 163.272727 87.224918 
L 157.636364 87.224918 
L 152 87.224918 
L 146.363636 87.224918 
L 140.727273 87.224918 
L 135.090909 87.224918 
L 129.454545 87.224918 
L 123.818182 87.224918 
L 118.181818 87.224918 
L 112.545455 87.224918 
L 106.909091 87.224918 
L 101.272727 87.224918 
L 95.636364 87.224918 
L 90 87.224918 
L 90 88.8 
L 90 92.16 
L 90 95.52 
L 90 98.88 
L 90 102.24 
L 90 105.6 
L 90 108.96 
L 90 112.32 
L 90 115.68 
L 90 119.04 
L 90 122.4 
L 90 125.76 
L 90 128.824002 
L 95.636364 128.824002 
L 101.272727 128.824002 
L 106.909091 128.824002 
L 112.545455 128.824002 
L 118.181818 128.824002 
L 123.818182 128.824002 
L 129.454545 128.824002 
L 135.090909 128.824002 
L 140.727273 128.824002 
L 146.363636 128.824002 
L 152 128.824002 
L 157.636364 128.824002 
L 163.272727 128.824002 
L 167.303208 129.12 
L 168.909091 129.237936 
L 174.545455 129.755354 
L 180.181818 130.272772 
L 185.818182 130.79019 
L 191.454545 131.305935 
L 197.090909 131.809754 
L 202.727273 132.28505 
L 204.630502 132.48 
L 208.363636 132.855041 
L 214 133.458067 
L 219.636364 134.061092 
L 225.272727 134.664118 
L 230.909091 135.267144 
L 236.263459 135.84 
L 236.545455 135.867471 
L 242.181818 136.475183 
L 247.818182 137.080792 
L 253.454545 137.677144 
L 259.090909 138.273496 
L 264.727273 138.869848 
L 267.847668 139.2 
L 270.363636 139.4662 
L 276 140.062553 
L 281.636364 140.589762 
L 287.272727 141.116971 
L 292.909091 141.644181 
L 298.545455 142.17139 
L 302.199351 142.56 
L 304.181818 142.777068 
L 309.818182 143.41281 
L 315.454545 144.059758 
L 321.090909 144.723513 
L 326.727273 145.387268 
L 331.251034 145.92 
L 332.363636 146.051023 
L 338 146.657282 
L 343.636364 147.259514 
L 349.272727 147.859378 
L 354.909091 148.435493 
L 360.545455 149.005671 
L 363.005692 149.28 
L 366.181818 149.643326 
L 371.818182 150.309835 
L 377.454545 150.976345 
L 383.090909 151.642855 
L 388.727273 152.297783 
L 391.896619 152.64 
L 394.363636 152.904126 
L 400 153.507572 
L 405.636364 154.111017 
L 411.272727 154.714463 
L 416.909091 155.317909 
L 422.545455 155.920264 
L 423.247426 156 
L 428.181818 156.506395 
L 433.818182 157.098145 
L 439.454545 157.684754 
L 445.090909 158.271363 
L 450.727273 158.857971 
L 455.550957 159.36 
L 456.363636 159.44458 
L 462 160.031189 
L 467.636364 160.713337 
L 473.272727 161.361463 
L 478.909091 161.97706 
L 484.545455 162.580722 
L 485.845882 162.72 
L 490.181818 163.184385 
L 495.818182 163.788047 
L 501.454545 164.37169 
L 507.090909 164.925306 
L 512.727273 165.478921 
L 518.363636 166.037668 
L 518.740832 166.08 
L 524 166.684268 
L 529.636364 167.331876 
L 535.272727 167.979483 
L 540.909091 168.572313 
L 546.545455 169.151447 
L 549.224448 169.44 
L 552.181818 169.763926 
L 557.818182 170.406162 
L 563.454545 171.048398 
L 569.090909 171.690633 
L 574.727273 172.335588 
L 578.718542 172.8 
L 580.363636 172.991418 
L 586 173.647249 
L 591.636364 174.303079 
L 597.272727 174.95891 
L 602.909091 175.61474 
L 607.595185 176.16 
L 608.545455 176.260072 
L 614.181818 176.82234 
L 619.818182 177.396063 
L 625.454545 177.963785 
L 631.090909 178.531507 
L 636.727273 179.09923 
L 640.904691 179.52 
z
" clip-path="url(#pafccb6ed36)" style="fill: #2f6c8e"/>
    <path d="M 619.818182 209.824258 
L 625.454545 210.402074 
L 631.090909 211.002 
L 636.727273 211.603197 
L 642.363636 212.204394 
L 648 212.80559 
L 648 209.76 
L 648 206.4 
L 648 203.04 
L 648 199.68 
L 648 196.32 
L 648 192.96 
L 648 189.6 
L 648 186.24 
L 648 182.88 
L 648 180.223198 
L 642.363636 179.664592 
L 640.904691 179.52 
L 636.727273 179.09923 
L 631.090909 178.531507 
L 625.454545 177.963785 
L 619.818182 177.396063 
L 614.181818 176.82234 
L 608.545455 176.260072 
L 607.595185 176.16 
L 602.909091 175.61474 
L 597.272727 174.95891 
L 591.636364 174.303079 
L 586 173.647249 
L 580.363636 172.991418 
L 578.718542 172.8 
L 574.727273 172.335588 
L 569.090909 171.690633 
L 563.454545 171.048398 
L 557.818182 170.406162 
L 552.181818 169.763926 
L 549.224448 169.44 
L 546.545455 169.151447 
L 540.909091 168.572313 
L 535.272727 167.979483 
L 529.636364 167.331876 
L 524 166.684268 
L 518.740832 166.08 
L 518.363636 166.037668 
L 512.727273 165.478921 
L 507.090909 164.925306 
L 501.454545 164.37169 
L 495.818182 163.788047 
L 490.181818 163.184385 
L 485.845882 162.72 
L 484.545455 162.580722 
L 478.909091 161.97706 
L 473.272727 161.361463 
L 467.636364 160.713337 
L 462 160.031189 
L 456.363636 159.44458 
L 455.550957 159.36 
L 450.727273 158.857971 
L 445.090909 158.271363 
L 439.454545 157.684754 
L 433.818182 157.098145 
L 428.181818 156.506395 
L 423.247426 156 
L 422.545455 155.920264 
L 416.909091 155.317909 
L 411.272727 154.714463 
L 405.636364 154.111017 
L 400 153.507572 
L 394.363636 152.904126 
L 391.896619 152.64 
L 388.727273 152.297783 
L 383.090909 151.642855 
L 377.454545 150.976345 
L 371.818182 150.309835 
L 366.181818 149.643326 
L 363.005692 149.28 
L 360.545455 149.005671 
L 354.909091 148.435493 
L 349.272727 147.859378 
L 343.636364 147.259514 
L 338 146.657282 
L 332.363636 146.051023 
L 331.251034 145.92 
L 326.727273 145.387268 
L 321.090909 144.723513 
L 315.454545 144.059758 
L 309.818182 143.41281 
L 304.181818 142.777068 
L 302.199351 142.56 
L 298.545455 142.17139 
L 292.909091 141.644181 
L 287.272727 141.116971 
L 281.636364 140.589762 
L 276 140.062553 
L 270.363636 139.4662 
L 267.847668 139.2 
L 264.727273 138.869848 
L 259.090909 138.273496 
L 253.454545 137.677144 
L 247.818182 137.080792 
L 242.181818 136.475183 
L 236.545455 135.867471 
L 236.263459 135.84 
L 230.909091 135.267144 
L 225.272727 134.664118 
L 219.636364 134.061092 
L 214 133.458067 
L 208.363636 132.855041 
L 204.630502 132.48 
L 202.727273 132.28505 
L 197.090909 131.809754 
L 191.454545 131.305935 
L 185.818182 130.79019 
L 180.181818 130.272772 
L 174.545455 129.755354 
L 168.909091 129.237936 
L 167.303208 129.12 
L 163.272727 128.824002 
L 157.636364 128.824002 
L 152 128.824002 
L 146.363636 128.824002 
L 140.727273 128.824002 
L 135.090909 128.824002 
L 129.454545 128.824002 
L 123.818182 128.824002 
L 118.181818 128.824002 
L 112.545455 128.824002 
L 106.909091 128.824002 
L 101.272727 128.824002 
L 95.636364 128.824002 
L 90 128.824002 
L 90 129.12 
L 90 132.48 
L 90 135.84 
L 90 139.2 
L 90 142.56 
L 90 145.92 
L 90 149.28 
L 90 152.64 
L 90 156 
L 90 159.36 
L 90 162.105005 
L 95.636364 162.105005 
L 101.272727 162.105005 
L 106.909091 162.105005 
L 112.545455 162.105005 
L 118.181818 162.105005 
L 123.818182 162.105005 
L 129.454545 162.105005 
L 135.090909 162.105005 
L 140.727273 162.105005 
L 146.363636 162.105005 
L 152 162.105005 
L 157.636364 162.105005 
L 163.272727 162.105005 
L 168.909091 162.474653 
L 171.901914 162.72 
L 174.545455 162.936713 
L 180.181818 163.398774 
L 185.818182 163.854124 
L 191.454545 164.284694 
L 197.090909 164.698557 
L 202.727273 165.151415 
L 208.363636 165.760251 
L 211.323746 166.08 
L 214 166.369087 
L 219.636364 166.977923 
L 225.272727 167.551114 
L 230.909091 168.10799 
L 236.545455 168.660814 
L 242.181818 169.235775 
L 244.133742 169.44 
L 247.818182 169.827607 
L 253.454545 170.44509 
L 259.090909 171.089978 
L 264.727273 171.734866 
L 270.363636 172.379754 
L 274.036618 172.8 
L 276 173.024642 
L 281.636364 173.642643 
L 287.272727 174.260645 
L 292.909091 174.878646 
L 298.545455 175.496648 
L 304.181818 176.114649 
L 304.595431 176.16 
L 309.818182 176.706981 
L 315.454545 177.297028 
L 321.090909 177.900883 
L 326.727273 178.504738 
L 332.363636 179.108593 
L 336.203692 179.52 
L 338 179.710784 
L 343.636364 180.314014 
L 349.272727 180.93683 
L 354.909091 181.531487 
L 360.545455 182.117856 
L 366.181818 182.704225 
L 367.871422 182.88 
L 371.818182 183.292481 
L 377.454545 183.907282 
L 383.090909 184.563278 
L 388.727273 185.205862 
L 394.363636 185.794798 
L 398.624407 186.24 
L 400 186.383734 
L 405.636364 186.969303 
L 411.272727 187.53835 
L 416.909091 188.100797 
L 422.545455 188.663243 
L 428.181818 189.2371 
L 431.699547 189.6 
L 433.818182 189.818862 
L 439.454545 190.408916 
L 445.090909 191.01756 
L 450.727273 191.626204 
L 456.363636 192.234848 
L 462 192.843492 
L 463.069304 192.96 
L 467.636364 193.46207 
L 473.272727 194.114982 
L 478.909091 194.783334 
L 484.545455 195.451687 
L 490.181818 196.120039 
L 491.868131 196.32 
L 495.818182 196.771644 
L 501.454545 197.389274 
L 507.090909 197.981895 
L 512.727273 198.57277 
L 518.363636 199.163646 
L 523.289135 199.68 
L 524 199.753193 
L 529.636364 200.33353 
L 535.272727 200.913866 
L 540.909091 201.492157 
L 546.545455 202.069936 
L 552.181818 202.647715 
L 556.008641 203.04 
L 557.818182 203.225591 
L 563.454545 203.809652 
L 569.090909 204.418582 
L 574.727273 205.030894 
L 580.363636 205.65673 
L 586 206.281947 
L 587.083025 206.4 
L 591.636364 206.895891 
L 597.272727 207.490777 
L 602.909091 208.080829 
L 608.545455 208.670881 
L 614.181818 209.25091 
L 619.18649 209.76 
z
" clip-path="url(#pafccb6ed36)" style="fill: #25848e"/>
    <path d="M 625.454545 240.624448 
L 631.090909 241.293566 
L 636.727273 241.962685 
L 642.363636 242.582783 
L 648 243.091321 
L 648 240 
L 648 236.64 
L 648 233.28 
L 648 229.92 
L 648 226.56 
L 648 223.2 
L 648 219.84 
L 648 216.48 
L 648 213.12 
L 648 212.80559 
L 642.363636 212.204394 
L 636.727273 211.603197 
L 631.090909 211.002 
L 625.454545 210.402074 
L 619.818182 209.824258 
L 619.18649 209.76 
L 614.181818 209.25091 
L 608.545455 208.670881 
L 602.909091 208.080829 
L 597.272727 207.490777 
L 591.636364 206.895891 
L 587.083025 206.4 
L 586 206.281947 
L 580.363636 205.65673 
L 574.727273 205.030894 
L 569.090909 204.418582 
L 563.454545 203.809652 
L 557.818182 203.225591 
L 556.008641 203.04 
L 552.181818 202.647715 
L 546.545455 202.069936 
L 540.909091 201.492157 
L 535.272727 200.913866 
L 529.636364 200.33353 
L 524 199.753193 
L 523.289135 199.68 
L 518.363636 199.163646 
L 512.727273 198.57277 
L 507.090909 197.981895 
L 501.454545 197.389274 
L 495.818182 196.771644 
L 491.868131 196.32 
L 490.181818 196.120039 
L 484.545455 195.451687 
L 478.909091 194.783334 
L 473.272727 194.114982 
L 467.636364 193.46207 
L 463.069304 192.96 
L 462 192.843492 
L 456.363636 192.234848 
L 450.727273 191.626204 
L 445.090909 191.01756 
L 439.454545 190.408916 
L 433.818182 189.818862 
L 431.699547 189.6 
L 428.181818 189.2371 
L 422.545455 188.663243 
L 416.909091 188.100797 
L 411.272727 187.53835 
L 405.636364 186.969303 
L 400 186.383734 
L 398.624407 186.24 
L 394.363636 185.794798 
L 388.727273 185.205862 
L 383.090909 184.563278 
L 377.454545 183.907282 
L 371.818182 183.292481 
L 367.871422 182.88 
L 366.181818 182.704225 
L 360.545455 182.117856 
L 354.909091 181.531487 
L 349.272727 180.93683 
L 343.636364 180.314014 
L 338 179.710784 
L 336.203692 179.52 
L 332.363636 179.108593 
L 326.727273 178.504738 
L 321.090909 177.900883 
L 315.454545 177.297028 
L 309.818182 176.706981 
L 304.595431 176.16 
L 304.181818 176.114649 
L 298.545455 175.496648 
L 292.909091 174.878646 
L 287.272727 174.260645 
L 281.636364 173.642643 
L 276 173.024642 
L 274.036618 172.8 
L 270.363636 172.379754 
L 264.727273 171.734866 
L 259.090909 171.089978 
L 253.454545 170.44509 
L 247.818182 169.827607 
L 244.133742 169.44 
L 242.181818 169.235775 
L 236.545455 168.660814 
L 230.909091 168.10799 
L 225.272727 167.551114 
L 219.636364 166.977923 
L 214 166.369087 
L 211.323746 166.08 
L 208.363636 165.760251 
L 202.727273 165.151415 
L 197.090909 164.698557 
L 191.454545 164.284694 
L 185.818182 163.854124 
L 180.181818 163.398774 
L 174.545455 162.936713 
L 171.901914 162.72 
L 168.909091 162.474653 
L 163.272727 162.105005 
L 157.636364 162.105005 
L 152 162.105005 
L 146.363636 162.105005 
L 140.727273 162.105005 
L 135.090909 162.105005 
L 129.454545 162.105005 
L 123.818182 162.105005 
L 118.181818 162.105005 
L 112.545455 162.105005 
L 106.909091 162.105005 
L 101.272727 162.105005 
L 95.636364 162.105005 
L 90 162.105005 
L 90 162.72 
L 90 166.08 
L 90 169.44 
L 90 172.8 
L 90 176.16 
L 90 179.52 
L 90 182.88 
L 90 186.24 
L 90 189.6 
L 90 192.90936 
L 95.636364 192.90936 
L 101.272727 192.90936 
L 106.909091 192.90936 
L 112.545455 192.90936 
L 118.181818 192.90936 
L 123.818182 192.90936 
L 129.454545 192.90936 
L 135.090909 192.90936 
L 140.727273 192.90936 
L 146.363636 192.90936 
L 152 192.90936 
L 157.636364 192.90936 
L 163.272727 192.90936 
L 164.124962 192.96 
L 168.909091 193.244277 
L 174.545455 193.662923 
L 180.181818 194.081569 
L 185.818182 194.500216 
L 191.454545 194.918862 
L 197.090909 195.338068 
L 202.727273 195.79813 
L 207.913733 196.32 
L 208.363636 196.367269 
L 214 196.950965 
L 219.636364 197.534661 
L 225.272727 198.118358 
L 230.909091 198.702054 
L 236.545455 199.285751 
L 240.167107 199.68 
L 242.181818 199.905927 
L 247.818182 200.558495 
L 253.454545 201.211064 
L 259.090909 201.863632 
L 264.727273 202.516201 
L 269.952597 203.04 
L 270.363636 203.07982 
L 276 203.604693 
L 281.636364 204.213415 
L 287.272727 204.822137 
L 292.909091 205.430859 
L 298.545455 206.027241 
L 302.335294 206.4 
L 304.181818 206.579405 
L 309.818182 207.127025 
L 315.454545 207.686764 
L 321.090909 208.264681 
L 326.727273 208.842598 
L 332.363636 209.424828 
L 335.471196 209.76 
L 338 210.033183 
L 343.636364 210.67177 
L 349.272727 211.314211 
L 354.909091 211.969904 
L 360.545455 212.612878 
L 365.636496 213.12 
L 366.181818 213.173036 
L 371.818182 213.721204 
L 377.454545 214.269372 
L 383.090909 214.81754 
L 388.727273 215.369283 
L 394.363636 215.93532 
L 399.787325 216.48 
L 400 216.503103 
L 405.636364 217.11539 
L 411.272727 217.727677 
L 416.909091 218.339963 
L 422.545455 218.937563 
L 428.181818 219.462486 
L 431.519684 219.84 
L 433.818182 220.108756 
L 439.454545 220.7678 
L 445.090909 221.426843 
L 450.727273 222.085887 
L 456.363636 222.74493 
L 460.255552 223.2 
L 462 223.403973 
L 467.636364 224.035713 
L 473.272727 224.667454 
L 478.909091 225.299194 
L 484.545455 225.925158 
L 490.181818 226.452375 
L 491.376654 226.56 
L 495.818182 226.96007 
L 501.454545 227.476616 
L 507.090909 228.006436 
L 512.727273 228.536257 
L 518.363636 229.082809 
L 524 229.664375 
L 526.386074 229.92 
L 529.636364 230.268211 
L 535.272727 230.872047 
L 540.909091 231.481873 
L 546.545455 232.093196 
L 552.181818 232.683292 
L 557.818182 233.264348 
L 557.970091 233.28 
L 563.454545 233.845101 
L 569.090909 234.425854 
L 574.727273 235.015094 
L 580.363636 235.632746 
L 586 236.238778 
L 589.750299 236.64 
L 591.636364 236.849026 
L 597.272727 237.473684 
L 602.909091 238.098343 
L 608.545455 238.723001 
L 614.181818 239.342613 
L 619.818182 239.95886 
L 620.194464 240 
z
" clip-path="url(#pafccb6ed36)" style="fill: #1e9c89"/>
    <path d="M 642.363636 283.865328 
L 648 284.511191 
L 648 283.68 
L 648 280.32 
L 648 276.96 
L 648 273.6 
L 648 270.24 
L 648 266.88 
L 648 263.52 
L 648 260.16 
L 648 256.8 
L 648 253.44 
L 648 250.08 
L 648 246.72 
L 648 243.36 
L 648 243.091321 
L 642.363636 242.582783 
L 636.727273 241.962685 
L 631.090909 241.293566 
L 625.454545 240.624448 
L 620.194464 240 
L 619.818182 239.95886 
L 614.181818 239.342613 
L 608.545455 238.723001 
L 602.909091 238.098343 
L 597.272727 237.473684 
L 591.636364 236.849026 
L 589.750299 236.64 
L 586 236.238778 
L 580.363636 235.632746 
L 574.727273 235.015094 
L 569.090909 234.425854 
L 563.454545 233.845101 
L 557.970091 233.28 
L 557.818182 233.264348 
L 552.181818 232.683292 
L 546.545455 232.093196 
L 540.909091 231.481873 
L 535.272727 230.872047 
L 529.636364 230.268211 
L 526.386074 229.92 
L 524 229.664375 
L 518.363636 229.082809 
L 512.727273 228.536257 
L 507.090909 228.006436 
L 501.454545 227.476616 
L 495.818182 226.96007 
L 491.376654 226.56 
L 490.181818 226.452375 
L 484.545455 225.925158 
L 478.909091 225.299194 
L 473.272727 224.667454 
L 467.636364 224.035713 
L 462 223.403973 
L 460.255552 223.2 
L 456.363636 222.74493 
L 450.727273 222.085887 
L 445.090909 221.426843 
L 439.454545 220.7678 
L 433.818182 220.108756 
L 431.519684 219.84 
L 428.181818 219.462486 
L 422.545455 218.937563 
L 416.909091 218.339963 
L 411.272727 217.727677 
L 405.636364 217.11539 
L 400 216.503103 
L 399.787325 216.48 
L 394.363636 215.93532 
L 388.727273 215.369283 
L 383.090909 214.81754 
L 377.454545 214.269372 
L 371.818182 213.721204 
L 366.181818 213.173036 
L 365.636496 213.12 
L 360.545455 212.612878 
L 354.909091 211.969904 
L 349.272727 211.314211 
L 343.636364 210.67177 
L 338 210.033183 
L 335.471196 209.76 
L 332.363636 209.424828 
L 326.727273 208.842598 
L 321.090909 208.264681 
L 315.454545 207.686764 
L 309.818182 207.127025 
L 304.181818 206.579405 
L 302.335294 206.4 
L 298.545455 206.027241 
L 292.909091 205.430859 
L 287.272727 204.822137 
L 281.636364 204.213415 
L 276 203.604693 
L 270.363636 203.07982 
L 269.952597 203.04 
L 264.727273 202.516201 
L 259.090909 201.863632 
L 253.454545 201.211064 
L 247.818182 200.558495 
L 242.181818 199.905927 
L 240.167107 199.68 
L 236.545455 199.285751 
L 230.909091 198.702054 
L 225.272727 198.118358 
L 219.636364 197.534661 
L 214 196.950965 
L 208.363636 196.367269 
L 207.913733 196.32 
L 202.727273 195.79813 
L 197.090909 195.338068 
L 191.454545 194.918862 
L 185.818182 194.500216 
L 180.181818 194.081569 
L 174.545455 193.662923 
L 168.909091 193.244277 
L 164.124962 192.96 
L 163.272727 192.90936 
L 157.636364 192.90936 
L 152 192.90936 
L 146.363636 192.90936 
L 140.727273 192.90936 
L 135.090909 192.90936 
L 129.454545 192.90936 
L 123.818182 192.90936 
L 118.181818 192.90936 
L 112.545455 192.90936 
L 106.909091 192.90936 
L 101.272727 192.90936 
L 95.636364 192.90936 
L 90 192.90936 
L 90 192.96 
L 90 196.32 
L 90 199.68 
L 90 203.04 
L 90 206.4 
L 90 209.76 
L 90 213.12 
L 90 216.48 
L 90 219.84 
L 90 223.2 
L 90 226.56 
L 90 229.92 
L 90 233.28 
L 90 236.64 
L 90 237.195954 
L 95.636364 237.195954 
L 101.272727 237.195954 
L 106.909091 237.195954 
L 112.545455 237.195954 
L 118.181818 237.195954 
L 123.818182 237.195954 
L 129.454545 237.195954 
L 135.090909 237.195954 
L 140.727273 237.195954 
L 146.363636 237.195954 
L 152 237.195954 
L 157.636364 237.195954 
L 163.272727 237.195954 
L 168.909091 237.625043 
L 174.545455 237.804647 
L 180.181818 237.984251 
L 185.818182 238.163855 
L 191.454545 238.343459 
L 197.090909 238.523063 
L 202.727273 238.742103 
L 208.363636 239.118885 
L 214 239.495668 
L 219.636364 239.87245 
L 221.544402 240 
L 225.272727 240.374457 
L 230.909091 240.940548 
L 236.545455 241.499944 
L 242.181818 242.168222 
L 247.818182 242.915448 
L 251.171455 243.36 
L 253.454545 243.662675 
L 259.090909 244.409901 
L 264.727273 245.13046 
L 270.363636 245.777733 
L 276 246.395247 
L 277.806086 246.72 
L 281.636364 247.408723 
L 287.272727 248.422199 
L 292.909091 249.435675 
L 298.407668 250.08 
L 298.545455 250.094415 
L 304.181818 250.661573 
L 309.818182 251.228731 
L 315.454545 251.79191 
L 321.090909 252.34912 
L 326.727273 252.906331 
L 332.125515 253.44 
L 332.363636 253.463541 
L 338 254.020751 
L 343.636364 254.756591 
L 349.272727 255.550101 
L 354.909091 255.964075 
L 360.545455 256.274574 
L 366.181818 256.585074 
L 370.083271 256.8 
L 371.818182 256.897979 
L 377.454545 257.216291 
L 383.090909 257.618687 
L 388.727273 258.318784 
L 394.363636 258.737306 
L 400 259.155829 
L 405.636364 259.574352 
L 411.272727 259.992874 
L 413.523458 260.16 
L 416.909091 260.535814 
L 422.545455 261.144364 
L 428.181818 261.723598 
L 433.818182 262.287324 
L 439.454545 262.806479 
L 445.090909 263.325634 
L 447.2011 263.52 
L 450.727273 263.844789 
L 456.363636 264.363945 
L 462 264.8831 
L 467.636364 265.842417 
L 473.272727 266.801735 
L 473.732566 266.88 
L 478.909091 267.761052 
L 484.545455 268.610882 
L 490.181818 269.266861 
L 495.818182 269.879945 
L 498.404727 270.24 
L 501.454545 270.664544 
L 507.090909 271.706412 
L 512.727273 272.685227 
L 518.363636 273.310154 
L 521.416855 273.6 
L 524 273.845221 
L 529.636364 274.380288 
L 535.272727 274.915355 
L 540.909091 275.352962 
L 546.545455 275.766205 
L 552.181818 276.179448 
L 557.818182 276.592691 
L 562.828034 276.96 
L 563.454545 277.005934 
L 569.090909 277.588789 
L 574.727273 278.37328 
L 580.363636 278.941033 
L 586 279.20524 
L 591.636364 279.469447 
L 597.272727 279.733654 
L 602.909091 279.997861 
L 608.545455 280.262068 
L 609.537829 280.32 
L 614.181818 280.770741 
L 619.818182 281.387204 
L 625.454545 282.0047 
L 631.090909 282.622196 
L 636.727273 283.239692 
L 640.7463 283.68 
z
" clip-path="url(#pafccb6ed36)" style="fill: #2fb47c"/>
    <path d="M 625.454545 371.751037 
L 631.090909 372.413492 
L 636.727273 373.054709 
L 642.363636 373.695926 
L 648 374.337142 
L 648 371.04 
L 648 367.68 
L 648 364.32 
L 648 360.96 
L 648 357.6 
L 648 354.24 
L 648 350.88 
L 648 347.52 
L 648 344.16 
L 648 340.8 
L 648 337.44 
L 648 334.08 
L 648 330.72 
L 648 327.36 
L 648 324 
L 648 320.64 
L 648 317.28 
L 648 313.92 
L 648 310.56 
L 648 307.2 
L 648 303.84 
L 648 300.48 
L 648 297.12 
L 648 293.76 
L 648 290.4 
L 648 287.04 
L 648 284.511191 
L 642.363636 283.865328 
L 640.7463 283.68 
L 636.727273 283.239692 
L 631.090909 282.622196 
L 625.454545 282.0047 
L 619.818182 281.387204 
L 614.181818 280.770741 
L 609.537829 280.32 
L 608.545455 280.262068 
L 602.909091 279.997861 
L 597.272727 279.733654 
L 591.636364 279.469447 
L 586 279.20524 
L 580.363636 278.941033 
L 574.727273 278.37328 
L 569.090909 277.588789 
L 563.454545 277.005934 
L 562.828034 276.96 
L 557.818182 276.592691 
L 552.181818 276.179448 
L 546.545455 275.766205 
L 540.909091 275.352962 
L 535.272727 274.915355 
L 529.636364 274.380288 
L 524 273.845221 
L 521.416855 273.6 
L 518.363636 273.310154 
L 512.727273 272.685227 
L 507.090909 271.706412 
L 501.454545 270.664544 
L 498.404727 270.24 
L 495.818182 269.879945 
L 490.181818 269.266861 
L 484.545455 268.610882 
L 478.909091 267.761052 
L 473.732566 266.88 
L 473.272727 266.801735 
L 467.636364 265.842417 
L 462 264.8831 
L 456.363636 264.363945 
L 450.727273 263.844789 
L 447.2011 263.52 
L 445.090909 263.325634 
L 439.454545 262.806479 
L 433.818182 262.287324 
L 428.181818 261.723598 
L 422.545455 261.144364 
L 416.909091 260.535814 
L 413.523458 260.16 
L 411.272727 259.992874 
L 405.636364 259.574352 
L 400 259.155829 
L 394.363636 258.737306 
L 388.727273 258.318784 
L 383.090909 257.618687 
L 377.454545 257.216291 
L 371.818182 256.897979 
L 370.083271 256.8 
L 366.181818 256.585074 
L 360.545455 256.274574 
L 354.909091 255.964075 
L 349.272727 255.550101 
L 343.636364 254.756591 
L 338 254.020751 
L 332.363636 253.463541 
L 332.125515 253.44 
L 326.727273 252.906331 
L 321.090909 252.34912 
L 315.454545 251.79191 
L 309.818182 251.228731 
L 304.181818 250.661573 
L 298.545455 250.094415 
L 298.407668 250.08 
L 292.909091 249.435675 
L 287.272727 248.422199 
L 281.636364 247.408723 
L 277.806086 246.72 
L 276 246.395247 
L 270.363636 245.777733 
L 264.727273 245.13046 
L 259.090909 244.409901 
L 253.454545 243.662675 
L 251.171455 243.36 
L 247.818182 242.915448 
L 242.181818 242.168222 
L 236.545455 241.499944 
L 230.909091 240.940548 
L 225.272727 240.374457 
L 221.544402 240 
L 219.636364 239.87245 
L 214 239.495668 
L 208.363636 239.118885 
L 202.727273 238.742103 
L 197.090909 238.523063 
L 191.454545 238.343459 
L 185.818182 238.163855 
L 180.181818 237.984251 
L 174.545455 237.804647 
L 168.909091 237.625043 
L 163.272727 237.195954 
L 157.636364 237.195954 
L 152 237.195954 
L 146.363636 237.195954 
L 140.727273 237.195954 
L 135.090909 237.195954 
L 129.454545 237.195954 
L 123.818182 237.195954 
L 118.181818 237.195954 
L 112.545455 237.195954 
L 106.909091 237.195954 
L 101.272727 237.195954 
L 95.636364 237.195954 
L 90 237.195954 
L 90 240 
L 90 243.36 
L 90 246.72 
L 90 250.08 
L 90 253.44 
L 90 256.8 
L 90 260.16 
L 90 263.52 
L 90 266.88 
L 90 270.24 
L 90 273.6 
L 90 276.96 
L 90 280.32 
L 90 283.68 
L 90 287.04 
L 90 290.4 
L 90 293.76 
L 90 297.12 
L 90 300.48 
L 90 303.84 
L 90 307.2 
L 90 310.56 
L 90 313.92 
L 90 317.28 
L 90 320.64 
L 90 324 
L 90 327.36 
L 90 329.311354 
L 95.636364 329.311354 
L 101.272727 329.311354 
L 106.909091 329.311354 
L 112.545455 329.311354 
L 118.181818 329.311354 
L 123.818182 329.311354 
L 129.454545 329.311354 
L 135.090909 329.311354 
L 140.727273 329.311354 
L 146.363636 329.311354 
L 152 329.311354 
L 157.636364 329.311354 
L 163.272727 329.311354 
L 168.909091 329.594646 
L 174.545455 329.946549 
L 180.181818 330.288191 
L 185.818182 330.576832 
L 188.613858 330.72 
L 191.454545 330.865473 
L 197.090909 331.154114 
L 202.727273 331.496829 
L 208.363636 332.055838 
L 214 332.614847 
L 219.636364 333.188859 
L 225.272727 333.799789 
L 227.819677 334.08 
L 230.909091 334.419893 
L 236.545455 335.039997 
L 242.181818 335.570295 
L 247.818182 336.040724 
L 253.454545 336.485707 
L 259.090909 336.91191 
L 264.727273 337.335814 
L 266.112569 337.44 
L 270.363636 337.759717 
L 276 338.183621 
L 281.636364 338.772459 
L 287.272727 339.361298 
L 292.909091 339.950136 
L 298.545455 340.538974 
L 301.043992 340.8 
L 304.181818 341.138522 
L 309.818182 341.751715 
L 315.454545 342.355772 
L 321.090909 342.92663 
L 326.727273 343.497489 
L 332.363636 344.068348 
L 333.268564 344.16 
L 338 344.659106 
L 343.636364 345.246011 
L 349.272727 345.784631 
L 354.909091 346.255838 
L 360.545455 346.700872 
L 366.181818 347.110675 
L 371.811606 347.52 
L 371.818182 347.520478 
L 377.454545 347.930281 
L 383.090909 348.340085 
L 388.727273 348.750901 
L 394.363636 349.165769 
L 400 349.624135 
L 405.636364 350.13865 
L 411.272727 350.684703 
L 413.28858 350.88 
L 416.909091 351.230757 
L 422.545455 351.77681 
L 428.181818 352.349835 
L 433.818182 352.940843 
L 439.454545 353.53185 
L 445.090909 354.15688 
L 445.805125 354.24 
L 450.727273 354.817552 
L 456.363636 355.478909 
L 462 356.140265 
L 467.636364 356.592798 
L 473.272727 357.045332 
L 478.909091 357.497865 
L 480.181192 357.6 
L 484.545455 357.950399 
L 490.181818 358.422596 
L 495.818182 358.92672 
L 501.454545 359.522379 
L 507.090909 360.1967 
L 512.727273 360.809868 
L 514.132252 360.96 
L 518.363636 361.414132 
L 524 362.019053 
L 529.636364 362.623974 
L 535.272727 363.228895 
L 540.909091 363.6793 
L 546.545455 364.091075 
L 549.678962 364.32 
L 552.181818 364.506387 
L 557.818182 364.926125 
L 563.454545 365.345863 
L 569.090909 365.782654 
L 574.727273 366.256059 
L 580.363636 366.745252 
L 586 367.315794 
L 589.550972 367.68 
L 591.636364 367.893888 
L 597.272727 368.471982 
L 602.909091 369.050076 
L 608.545455 369.62817 
L 614.181818 370.301791 
L 619.818182 371.039085 
L 619.825406 371.04 
z
" clip-path="url(#pafccb6ed36)" style="fill: #5ec962"/>
    <path d="M 95.636364 384.48 
L 101.272727 384.48 
L 106.909091 384.48 
L 112.545455 384.48 
L 118.181818 384.48 
L 123.818182 384.48 
L 129.454545 384.48 
L 135.090909 384.48 
L 140.727273 384.48 
L 146.363636 384.48 
L 152 384.48 
L 157.636364 384.48 
L 163.272727 384.48 
L 168.909091 384.48 
L 174.545455 384.48 
L 180.181818 384.48 
L 185.818182 384.48 
L 191.454545 384.48 
L 197.090909 384.48 
L 202.727273 384.48 
L 208.363636 384.48 
L 214 384.48 
L 219.636364 384.48 
L 225.272727 384.48 
L 230.909091 384.48 
L 236.545455 384.48 
L 242.181818 384.48 
L 247.818182 384.48 
L 253.454545 384.48 
L 259.090909 384.48 
L 264.727273 384.48 
L 270.363636 384.48 
L 276 384.48 
L 281.636364 384.48 
L 287.272727 384.48 
L 292.909091 384.48 
L 298.545455 384.48 
L 304.181818 384.48 
L 309.818182 384.48 
L 315.454545 384.48 
L 321.090909 384.48 
L 326.727273 384.48 
L 332.363636 384.48 
L 338 384.48 
L 343.636364 384.48 
L 349.272727 384.48 
L 354.909091 384.48 
L 360.545455 384.48 
L 366.181818 384.48 
L 371.818182 384.48 
L 377.454545 384.48 
L 383.090909 384.48 
L 388.727273 384.48 
L 394.363636 384.48 
L 400 384.48 
L 405.636364 384.48 
L 411.272727 384.48 
L 416.909091 384.48 
L 422.545455 384.48 
L 428.181818 384.48 
L 433.818182 384.48 
L 439.454545 384.48 
L 445.090909 384.48 
L 450.727273 384.48 
L 456.363636 384.48 
L 462 384.48 
L 467.636364 384.48 
L 473.272727 384.48 
L 478.909091 384.48 
L 484.545455 384.48 
L 490.181818 384.48 
L 495.818182 384.48 
L 501.454545 384.48 
L 507.090909 384.48 
L 512.727273 384.48 
L 518.363636 384.48 
L 524 384.48 
L 529.636364 384.48 
L 535.272727 384.48 
L 540.909091 384.48 
L 546.545455 384.48 
L 552.181818 384.48 
L 557.818182 384.48 
L 563.454545 384.48 
L 569.090909 384.48 
L 574.727273 384.48 
L 580.363636 384.48 
L 586 384.48 
L 591.636364 384.48 
L 597.272727 384.48 
L 602.909091 384.48 
L 608.545455 384.48 
L 614.181818 384.48 
L 619.818182 384.48 
L 625.454545 384.48 
L 631.090909 384.48 
L 636.727273 384.48 
L 642.363636 384.48 
L 648 384.48 
L 648 381.12 
L 648 377.76 
L 648 374.4 
L 648 374.337142 
L 642.363636 373.695926 
L 636.727273 373.054709 
L 631.090909 372.413492 
L 625.454545 371.751037 
L 619.825406 371.04 
L 619.818182 371.039085 
L 614.181818 370.301791 
L 608.545455 369.62817 
L 602.909091 369.050076 
L 597.272727 368.471982 
L 591.636364 367.893888 
L 589.550972 367.68 
L 586 367.315794 
L 580.363636 366.745252 
L 574.727273 366.256059 
L 569.090909 365.782654 
L 563.454545 365.345863 
L 557.818182 364.926125 
L 552.181818 364.506387 
L 549.678962 364.32 
L 546.545455 364.091075 
L 540.909091 363.6793 
L 535.272727 363.228895 
L 529.636364 362.623974 
L 524 362.019053 
L 518.363636 361.414132 
L 514.132252 360.96 
L 512.727273 360.809868 
L 507.090909 360.1967 
L 501.454545 359.522379 
L 495.818182 358.92672 
L 490.181818 358.422596 
L 484.545455 357.950399 
L 480.181192 357.6 
L 478.909091 357.497865 
L 473.272727 357.045332 
L 467.636364 356.592798 
L 462 356.140265 
L 456.363636 355.478909 
L 450.727273 354.817552 
L 445.805125 354.24 
L 445.090909 354.15688 
L 439.454545 353.53185 
L 433.818182 352.940843 
L 428.181818 352.349835 
L 422.545455 351.77681 
L 416.909091 351.230757 
L 413.28858 350.88 
L 411.272727 350.684703 
L 405.636364 350.13865 
L 400 349.624135 
L 394.363636 349.165769 
L 388.727273 348.750901 
L 383.090909 348.340085 
L 377.454545 347.930281 
L 371.818182 347.520478 
L 371.811606 347.52 
L 366.181818 347.110675 
L 360.545455 346.700872 
L 354.909091 346.255838 
L 349.272727 345.784631 
L 343.636364 345.246011 
L 338 344.659106 
L 333.268564 344.16 
L 332.363636 344.068348 
L 326.727273 343.497489 
L 321.090909 342.92663 
L 315.454545 342.355772 
L 309.818182 341.751715 
L 304.181818 341.138522 
L 301.043992 340.8 
L 298.545455 340.538974 
L 292.909091 339.950136 
L 287.272727 339.361298 
L 281.636364 338.772459 
L 276 338.183621 
L 270.363636 337.759717 
L 266.112569 337.44 
L 264.727273 337.335814 
L 259.090909 336.91191 
L 253.454545 336.485707 
L 247.818182 336.040724 
L 242.181818 335.570295 
L 236.545455 335.039997 
L 230.909091 334.419893 
L 227.819677 334.08 
L 225.272727 333.799789 
L 219.636364 333.188859 
L 214 332.614847 
L 208.363636 332.055838 
L 202.727273 331.496829 
L 197.090909 331.154114 
L 191.454545 330.865473 
L 188.613858 330.72 
L 185.818182 330.576832 
L 180.181818 330.288191 
L 174.545455 329.946549 
L 168.909091 329.594646 
L 163.272727 329.311354 
L 157.636364 329.311354 
L 152 329.311354 
L 146.363636 329.311354 
L 140.727273 329.311354 
L 135.090909 329.311354 
L 129.454545 329.311354 
L 123.818182 329.311354 
L 118.181818 329.311354 
L 112.545455 329.311354 
L 106.909091 329.311354 
L 101.272727 329.311354 
L 95.636364 329.311354 
L 90 329.311354 
L 90 330.72 
L 90 334.08 
L 90 337.44 
L 90 340.8 
L 90 344.16 
L 90 347.52 
L 90 350.88 
L 90 354.24 
L 90 357.6 
L 90 360.96 
L 90 364.32 
L 90 367.68 
L 90 371.04 
L 90 374.4 
L 90 377.76 
L 90 381.12 
L 90 384.48 
z
" clip-path="url(#pafccb6ed36)" style="fill: #9bd93c"/>
    <path clip-path="url(#pafccb6ed36)" style="fill: #dfe318"/>
   </g>
   <g id="matplotlib.axis_1">
    <g id="xtick_1">
     <g id="line2d_1">
      <path d="M 127.2 384.48 
L 127.2 51.84 
" clip-path="url(#pafccb6ed36)" style="fill: none; stroke: #b0b0b0; stroke-width: 0.8; stroke-linecap: square"/>
     </g>
     <g id="line2d_2">
      <defs>
       <path id="m9dd4b519cc" d="M 0 0 
L 0 3.5 
" style="stroke: #000000; stroke-width: 0.8"/>
      </defs>
      <g>
       <use xlink:href="#m9dd4b519cc" x="127.2" y="384.48" style="stroke: #000000; stroke-width: 0.8"/>
      </g>
     </g>
     <g id="text_1">
      <!-- 6 -->
      <g transform="translate(124.01875 399.078438) scale(0.1 -0.1)">
       <defs>
        <path id="DejaVuSans-36" d="M 2113 2584 
Q 1688 2584 1439 2293 
Q 1191 2003 1191 1497 
Q 1191 994 1439 701 
Q 1688 409 2113 409 
Q 2538 409 2786 701 
Q 3034 994 3034 1497 
Q 3034 2003 2786 2293 
Q 2538 2584 2113 2584 
z
M 3366 4563 
L 3366 3988 
Q 3128 4100 2886 4159 
Q 2644 4219 2406 4219 
Q 1781 4219 1451 3797 
Q 1122 3375 1075 2522 
Q 1259 2794 1537 2939 
Q 1816 3084 2150 3084 
Q 2853 3084 3261 2657 
Q 3669 2231 3669 1497 
Q 3669 778 3244 343 
Q 2819 -91 2113 -91 
Q 1303 -91 875 529 
Q 447 1150 447 2328 
Q 447 3434 972 4092 
Q 1497 4750 2381 4750 
Q 2619 4750 2861 4703 
Q 3103 4656 3366 4563 
z
" transform="scale(0.015625)"/>
       </defs>
       <use xlink:href="#DejaVuSans-36"/>
      </g>
     </g>
    </g>
    <g id="xtick_2">
     <g id="line2d_3">
      <path d="M 201.6 384.48 
L 201.6 51.84 
" clip-path="url(#pafccb6ed36)" style="fill: none; stroke: #b0b0b0; stroke-width: 0.8; stroke-linecap: square"/>
     </g>
     <g id="line2d_4">
      <g>
       <use xlink:href="#m9dd4b519cc" x="201.6" y="384.48" style="stroke: #000000; stroke-width: 0.8"/>
      </g>
     </g>
     <g id="text_2">
      <!-- 8 -->
      <g transform="translate(198.41875 399.078438) scale(0.1 -0.1)">
       <defs>
        <path id="DejaVuSans-38" d="M 2034 2216 
Q 1584 2216 1326 1975 
Q 1069 1734 1069 1313 
Q 1069 891 1326 650 
Q 1584 409 2034 409 
Q 2484 409 2743 651 
Q 3003 894 3003 1313 
Q 3003 1734 2745 1975 
Q 2488 2216 2034 2216 
z
M 1403 2484 
Q 997 2584 770 2862 
Q 544 3141 544 3541 
Q 544 4100 942 4425 
Q 1341 4750 2034 4750 
Q 2731 4750 3128 4425 
Q 3525 4100 3525 3541 
Q 3525 3141 3298 2862 
Q 3072 2584 2669 2484 
Q 3125 2378 3379 2068 
Q 3634 1759 3634 1313 
Q 3634 634 3220 271 
Q 2806 -91 2034 -91 
Q 1263 -91 848 271 
Q 434 634 434 1313 
Q 434 1759 690 2068 
Q 947 2378 1403 2484 
z
M 1172 3481 
Q 1172 3119 1398 2916 
Q 1625 2713 2034 2713 
Q 2441 2713 2670 2916 
Q 2900 3119 2900 3481 
Q 2900 3844 2670 4047 
Q 2441 4250 2034 4250 
Q 1625 4250 1398 4047 
Q 1172 3844 1172 3481 
z
" transform="scale(0.015625)"/>
       </defs>
       <use xlink:href="#DejaVuSans-38"/>
      </g>
     </g>
    </g>
    <g id="xtick_3">
     <g id="line2d_5">
      <path d="M 276 384.48 
L 276 51.84 
" clip-path="url(#pafccb6ed36)" style="fill: none; stroke: #b0b0b0; stroke-width: 0.8; stroke-linecap: square"/>
     </g>
     <g id="line2d_6">
      <g>
       <use xlink:href="#m9dd4b519cc" x="276" y="384.48" style="stroke: #000000; stroke-width: 0.8"/>
      </g>
     </g>
     <g id="text_3">
      <!-- 10 -->
      <g transform="translate(269.6375 399.078438) scale(0.1 -0.1)">
       <defs>
        <path id="DejaVuSans-31" d="M 794 531 
L 1825 531 
L 1825 4091 
L 703 3866 
L 703 4441 
L 1819 4666 
L 2450 4666 
L 2450 531 
L 3481 531 
L 3481 0 
L 794 0 
L 794 531 
z
" transform="scale(0.015625)"/>
        <path id="DejaVuSans-30" d="M 2034 4250 
Q 1547 4250 1301 3770 
Q 1056 3291 1056 2328 
Q 1056 1369 1301 889 
Q 1547 409 2034 409 
Q 2525 409 2770 889 
Q 3016 1369 3016 2328 
Q 3016 3291 2770 3770 
Q 2525 4250 2034 4250 
z
M 2034 4750 
Q 2819 4750 3233 4129 
Q 3647 3509 3647 2328 
Q 3647 1150 3233 529 
Q 2819 -91 2034 -91 
Q 1250 -91 836 529 
Q 422 1150 422 2328 
Q 422 3509 836 4129 
Q 1250 4750 2034 4750 
z
" transform="scale(0.015625)"/>
       </defs>
       <use xlink:href="#DejaVuSans-31"/>
       <use xlink:href="#DejaVuSans-30" x="63.623047"/>
      </g>
     </g>
    </g>
    <g id="xtick_4">
     <g id="line2d_7">
      <path d="M 350.4 384.48 
L 350.4 51.84 
" clip-path="url(#pafccb6ed36)" style="fill: none; stroke: #b0b0b0; stroke-width: 0.8; stroke-linecap: square"/>
     </g>
     <g id="line2d_8">
      <g>
       <use xlink:href="#m9dd4b519cc" x="350.4" y="384.48" style="stroke: #000000; stroke-width: 0.8"/>
      </g>
     </g>
     <g id="text_4">
      <!-- 12 -->
      <g transform="translate(344.0375 399.078438) scale(0.1 -0.1)">
       <defs>
        <path id="DejaVuSans-32" d="M 1228 531 
L 3431 531 
L 3431 0 
L 469 0 
L 469 531 
Q 828 903 1448 1529 
Q 2069 2156 2228 2338 
Q 2531 2678 2651 2914 
Q 2772 3150 2772 3378 
Q 2772 3750 2511 3984 
Q 2250 4219 1831 4219 
Q 1534 4219 1204 4116 
Q 875 4013 500 3803 
L 500 4441 
Q 881 4594 1212 4672 
Q 1544 4750 1819 4750 
Q 2544 4750 2975 4387 
Q 3406 4025 3406 3419 
Q 3406 3131 3298 2873 
Q 3191 2616 2906 2266 
Q 2828 2175 2409 1742 
Q 1991 1309 1228 531 
z
" transform="scale(0.015625)"/>
       </defs>
       <use xlink:href="#DejaVuSans-31"/>
       <use xlink:href="#DejaVuSans-32" x="63.623047"/>
      </g>
     </g>
    </g>
    <g id="xtick_5">
     <g id="line2d_9">
      <path d="M 424.8 384.48 
L 424.8 51.84 
" clip-path="url(#pafccb6ed36)" style="fill: none; stroke: #b0b0b0; stroke-width: 0.8; stroke-linecap: square"/>
     </g>
     <g id="line2d_10">
      <g>
       <use xlink:href="#m9dd4b519cc" x="424.8" y="384.48" style="stroke: #000000; stroke-width: 0.8"/>
      </g>
     </g>
     <g id="text_5">
      <!-- 14 -->
      <g transform="translate(418.4375 399.078438) scale(0.1 -0.1)">
       <defs>
        <path id="DejaVuSans-34" d="M 2419 4116 
L 825 1625 
L 2419 1625 
L 2419 4116 
z
M 2253 4666 
L 3047 4666 
L 3047 1625 
L 3713 1625 
L 3713 1100 
L 3047 1100 
L 3047 0 
L 2419 0 
L 2419 1100 
L 313 1100 
L 313 1709 
L 2253 4666 
z
" transform="scale(0.015625)"/>
       </defs>
       <use xlink:href="#DejaVuSans-31"/>
       <use xlink:href="#DejaVuSans-34" x="63.623047"/>
      </g>
     </g>
    </g>
    <g id="xtick_6">
     <g id="line2d_11">
      <path d="M 499.2 384.48 
L 499.2 51.84 
" clip-path="url(#pafccb6ed36)" style="fill: none; stroke: #b0b0b0; stroke-width: 0.8; stroke-linecap: square"/>
     </g>
     <g id="line2d_12">
      <g>
       <use xlink:href="#m9dd4b519cc" x="499.2" y="384.48" style="stroke: #000000; stroke-width: 0.8"/>
      </g>
     </g>
     <g id="text_6">
      <!-- 16 -->
      <g transform="translate(492.8375 399.078438) scale(0.1 -0.1)">
       <use xlink:href="#DejaVuSans-31"/>
       <use xlink:href="#DejaVuSans-36" x="63.623047"/>
      </g>
     </g>
    </g>
    <g id="xtick_7">
     <g id="line2d_13">
      <path d="M 573.6 384.48 
L 573.6 51.84 
" clip-path="url(#pafccb6ed36)" style="fill: none; stroke: #b0b0b0; stroke-width: 0.8; stroke-linecap: square"/>
     </g>
     <g id="line2d_14">
      <g>
       <use xlink:href="#m9dd4b519cc" x="573.6" y="384.48" style="stroke: #000000; stroke-width: 0.8"/>
      </g>
     </g>
     <g id="text_7">
      <!-- 18 -->
      <g transform="translate(567.2375 399.078438) scale(0.1 -0.1)">
       <use xlink:href="#DejaVuSans-31"/>
       <use xlink:href="#DejaVuSans-38" x="63.623047"/>
      </g>
     </g>
    </g>
    <g id="xtick_8">
     <g id="line2d_15">
      <path d="M 648 384.48 
L 648 51.84 
" clip-path="url(#pafccb6ed36)" style="fill: none; stroke: #b0b0b0; stroke-width: 0.8; stroke-linecap: square"/>
     </g>
     <g id="line2d_16">
      <g>
       <use xlink:href="#m9dd4b519cc" x="648" y="384.48" style="stroke: #000000; stroke-width: 0.8"/>
      </g>
     </g>
     <g id="text_8">
      <!-- 20 -->
      <g transform="translate(641.6375 399.078438) scale(0.1 -0.1)">
       <use xlink:href="#DejaVuSans-32"/>
       <use xlink:href="#DejaVuSans-30" x="63.623047"/>
      </g>
     </g>
    </g>
    <g id="text_9">
     <!-- $glide_{cd}$ [K] -->
     <g transform="translate(318.4 420.358125) scale(0.2 -0.2)">
      <defs>
       <path id="DejaVuSans-Oblique-67" d="M 3816 3500 
L 3219 434 
Q 3047 -456 2561 -893 
Q 2075 -1331 1253 -1331 
Q 950 -1331 690 -1286 
Q 431 -1241 206 -1147 
L 313 -588 
Q 525 -725 762 -790 
Q 1000 -856 1269 -856 
Q 1816 -856 2167 -557 
Q 2519 -259 2631 300 
L 2681 563 
Q 2441 288 2122 144 
Q 1803 0 1434 0 
Q 903 0 598 351 
Q 294 703 294 1319 
Q 294 1803 478 2267 
Q 663 2731 997 3091 
Q 1219 3328 1514 3456 
Q 1809 3584 2131 3584 
Q 2484 3584 2746 3420 
Q 3009 3256 3138 2956 
L 3238 3500 
L 3816 3500 
z
M 2950 2216 
Q 2950 2641 2750 2872 
Q 2550 3103 2181 3103 
Q 1953 3103 1747 3012 
Q 1541 2922 1394 2759 
Q 1156 2491 1023 2127 
Q 891 1763 891 1375 
Q 891 944 1092 712 
Q 1294 481 1672 481 
Q 2219 481 2584 976 
Q 2950 1472 2950 2216 
z
" transform="scale(0.015625)"/>
       <path id="DejaVuSans-Oblique-6c" d="M 1172 4863 
L 1747 4863 
L 800 0 
L 225 0 
L 1172 4863 
z
" transform="scale(0.015625)"/>
       <path id="DejaVuSans-Oblique-69" d="M 1172 4863 
L 1747 4863 
L 1606 4134 
L 1031 4134 
L 1172 4863 
z
M 909 3500 
L 1484 3500 
L 800 0 
L 225 0 
L 909 3500 
z
" transform="scale(0.015625)"/>
       <path id="DejaVuSans-Oblique-64" d="M 2675 525 
Q 2444 222 2128 65 
Q 1813 -91 1428 -91 
Q 903 -91 598 267 
Q 294 625 294 1247 
Q 294 1766 478 2236 
Q 663 2706 1013 3078 
Q 1244 3325 1534 3454 
Q 1825 3584 2144 3584 
Q 2481 3584 2739 3421 
Q 2997 3259 3138 2956 
L 3513 4863 
L 4091 4863 
L 3144 0 
L 2566 0 
L 2675 525 
z
M 891 1350 
Q 891 897 1095 644 
Q 1300 391 1663 391 
Q 1931 391 2161 520 
Q 2391 650 2566 903 
Q 2750 1166 2856 1509 
Q 2963 1853 2963 2188 
Q 2963 2622 2758 2865 
Q 2553 3109 2194 3109 
Q 1922 3109 1687 2981 
Q 1453 2853 1288 2613 
Q 1106 2353 998 2009 
Q 891 1666 891 1350 
z
" transform="scale(0.015625)"/>
       <path id="DejaVuSans-Oblique-65" d="M 3078 2063 
Q 3088 2113 3092 2166 
Q 3097 2219 3097 2272 
Q 3097 2653 2873 2875 
Q 2650 3097 2266 3097 
Q 1838 3097 1509 2826 
Q 1181 2556 1013 2059 
L 3078 2063 
z
M 3578 1613 
L 903 1613 
Q 884 1494 878 1425 
Q 872 1356 872 1306 
Q 872 872 1139 634 
Q 1406 397 1894 397 
Q 2269 397 2603 481 
Q 2938 566 3225 728 
L 3116 159 
Q 2806 34 2476 -28 
Q 2147 -91 1806 -91 
Q 1078 -91 686 257 
Q 294 606 294 1247 
Q 294 1794 489 2264 
Q 684 2734 1063 3103 
Q 1306 3334 1642 3459 
Q 1978 3584 2356 3584 
Q 2950 3584 3301 3228 
Q 3653 2872 3653 2272 
Q 3653 2128 3634 1964 
Q 3616 1800 3578 1613 
z
" transform="scale(0.015625)"/>
       <path id="DejaVuSans-Oblique-63" d="M 3431 3366 
L 3316 2797 
Q 3109 2947 2876 3022 
Q 2644 3097 2394 3097 
Q 2119 3097 1870 3000 
Q 1622 2903 1453 2725 
Q 1184 2453 1037 2087 
Q 891 1722 891 1331 
Q 891 859 1127 628 
Q 1363 397 1844 397 
Q 2081 397 2348 469 
Q 2616 541 2906 684 
L 2797 116 
Q 2547 13 2283 -39 
Q 2019 -91 1741 -91 
Q 1044 -91 669 257 
Q 294 606 294 1253 
Q 294 1797 489 2255 
Q 684 2713 1069 3078 
Q 1331 3328 1684 3456 
Q 2038 3584 2456 3584 
Q 2700 3584 2940 3529 
Q 3181 3475 3431 3366 
z
" transform="scale(0.015625)"/>
       <path id="DejaVuSans-20" transform="scale(0.015625)"/>
       <path id="DejaVuSans-5b" d="M 550 4863 
L 1875 4863 
L 1875 4416 
L 1125 4416 
L 1125 -397 
L 1875 -397 
L 1875 -844 
L 550 -844 
L 550 4863 
z
" transform="scale(0.015625)"/>
       <path id="DejaVuSans-4b" d="M 628 4666 
L 1259 4666 
L 1259 2694 
L 3353 4666 
L 4166 4666 
L 1850 2491 
L 4331 0 
L 3500 0 
L 1259 2247 
L 1259 0 
L 628 0 
L 628 4666 
z
" transform="scale(0.015625)"/>
       <path id="DejaVuSans-5d" d="M 1947 4863 
L 1947 -844 
L 622 -844 
L 622 -397 
L 1369 -397 
L 1369 4416 
L 622 4416 
L 622 4863 
L 1947 4863 
z
" transform="scale(0.015625)"/>
      </defs>
      <use xlink:href="#DejaVuSans-Oblique-67" transform="translate(0 0.015625)"/>
      <use xlink:href="#DejaVuSans-Oblique-6c" transform="translate(63.476562 0.015625)"/>
      <use xlink:href="#DejaVuSans-Oblique-69" transform="translate(91.259766 0.015625)"/>
      <use xlink:href="#DejaVuSans-Oblique-64" transform="translate(119.042969 0.015625)"/>
      <use xlink:href="#DejaVuSans-Oblique-65" transform="translate(182.519531 0.015625)"/>
      <use xlink:href="#DejaVuSans-Oblique-63" transform="translate(244.042969 -16.390625) scale(0.7)"/>
      <use xlink:href="#DejaVuSans-Oblique-64" transform="translate(282.529297 -16.390625) scale(0.7)"/>
      <use xlink:href="#DejaVuSans-20" transform="translate(329.697266 0.015625)"/>
      <use xlink:href="#DejaVuSans-5b" transform="translate(361.484375 0.015625)"/>
      <use xlink:href="#DejaVuSans-4b" transform="translate(400.498047 0.015625)"/>
      <use xlink:href="#DejaVuSans-5d" transform="translate(466.074219 0.015625)"/>
     </g>
    </g>
   </g>
   <g id="matplotlib.axis_2">
    <g id="ytick_1">
     <g id="line2d_17">
      <path d="M 90 384.48 
L 648 384.48 
" clip-path="url(#pafccb6ed36)" style="fill: none; stroke: #b0b0b0; stroke-width: 0.8; stroke-linecap: square"/>
     </g>
     <g id="line2d_18">
      <defs>
       <path id="mabf5f1fd0d" d="M 0 0 
L -3.5 0 
" style="stroke: #000000; stroke-width: 0.8"/>
      </defs>
      <g>
       <use xlink:href="#mabf5f1fd0d" x="90" y="384.48" style="stroke: #000000; stroke-width: 0.8"/>
      </g>
     </g>
     <g id="text_10">
      <!-- 10 -->
      <g transform="translate(70.275 388.279219) scale(0.1 -0.1)">
       <use xlink:href="#DejaVuSans-31"/>
       <use xlink:href="#DejaVuSans-30" x="63.623047"/>
      </g>
     </g>
    </g>
    <g id="ytick_2">
     <g id="line2d_19">
      <path d="M 90 342.9 
L 648 342.9 
" clip-path="url(#pafccb6ed36)" style="fill: none; stroke: #b0b0b0; stroke-width: 0.8; stroke-linecap: square"/>
     </g>
     <g id="line2d_20">
      <g>
       <use xlink:href="#mabf5f1fd0d" x="90" y="342.9" style="stroke: #000000; stroke-width: 0.8"/>
      </g>
     </g>
     <g id="text_11">
      <!-- 20 -->
      <g transform="translate(70.275 346.699219) scale(0.1 -0.1)">
       <use xlink:href="#DejaVuSans-32"/>
       <use xlink:href="#DejaVuSans-30" x="63.623047"/>
      </g>
     </g>
    </g>
    <g id="ytick_3">
     <g id="line2d_21">
      <path d="M 90 301.32 
L 648 301.32 
" clip-path="url(#pafccb6ed36)" style="fill: none; stroke: #b0b0b0; stroke-width: 0.8; stroke-linecap: square"/>
     </g>
     <g id="line2d_22">
      <g>
       <use xlink:href="#mabf5f1fd0d" x="90" y="301.32" style="stroke: #000000; stroke-width: 0.8"/>
      </g>
     </g>
     <g id="text_12">
      <!-- 30 -->
      <g transform="translate(70.275 305.119219) scale(0.1 -0.1)">
       <defs>
        <path id="DejaVuSans-33" d="M 2597 2516 
Q 3050 2419 3304 2112 
Q 3559 1806 3559 1356 
Q 3559 666 3084 287 
Q 2609 -91 1734 -91 
Q 1441 -91 1130 -33 
Q 819 25 488 141 
L 488 750 
Q 750 597 1062 519 
Q 1375 441 1716 441 
Q 2309 441 2620 675 
Q 2931 909 2931 1356 
Q 2931 1769 2642 2001 
Q 2353 2234 1838 2234 
L 1294 2234 
L 1294 2753 
L 1863 2753 
Q 2328 2753 2575 2939 
Q 2822 3125 2822 3475 
Q 2822 3834 2567 4026 
Q 2313 4219 1838 4219 
Q 1578 4219 1281 4162 
Q 984 4106 628 3988 
L 628 4550 
Q 988 4650 1302 4700 
Q 1616 4750 1894 4750 
Q 2613 4750 3031 4423 
Q 3450 4097 3450 3541 
Q 3450 3153 3228 2886 
Q 3006 2619 2597 2516 
z
" transform="scale(0.015625)"/>
       </defs>
       <use xlink:href="#DejaVuSans-33"/>
       <use xlink:href="#DejaVuSans-30" x="63.623047"/>
      </g>
     </g>
    </g>
    <g id="ytick_4">
     <g id="line2d_23">
      <path d="M 90 259.74 
L 648 259.74 
" clip-path="url(#pafccb6ed36)" style="fill: none; stroke: #b0b0b0; stroke-width: 0.8; stroke-linecap: square"/>
     </g>
     <g id="line2d_24">
      <g>
       <use xlink:href="#mabf5f1fd0d" x="90" y="259.74" style="stroke: #000000; stroke-width: 0.8"/>
      </g>
     </g>
     <g id="text_13">
      <!-- 40 -->
      <g transform="translate(70.275 263.539219) scale(0.1 -0.1)">
       <use xlink:href="#DejaVuSans-34"/>
       <use xlink:href="#DejaVuSans-30" x="63.623047"/>
      </g>
     </g>
    </g>
    <g id="ytick_5">
     <g id="line2d_25">
      <path d="M 90 218.16 
L 648 218.16 
" clip-path="url(#pafccb6ed36)" style="fill: none; stroke: #b0b0b0; stroke-width: 0.8; stroke-linecap: square"/>
     </g>
     <g id="line2d_26">
      <g>
       <use xlink:href="#mabf5f1fd0d" x="90" y="218.16" style="stroke: #000000; stroke-width: 0.8"/>
      </g>
     </g>
     <g id="text_14">
      <!-- 50 -->
      <g transform="translate(70.275 221.959219) scale(0.1 -0.1)">
       <defs>
        <path id="DejaVuSans-35" d="M 691 4666 
L 3169 4666 
L 3169 4134 
L 1269 4134 
L 1269 2991 
Q 1406 3038 1543 3061 
Q 1681 3084 1819 3084 
Q 2600 3084 3056 2656 
Q 3513 2228 3513 1497 
Q 3513 744 3044 326 
Q 2575 -91 1722 -91 
Q 1428 -91 1123 -41 
Q 819 9 494 109 
L 494 744 
Q 775 591 1075 516 
Q 1375 441 1709 441 
Q 2250 441 2565 725 
Q 2881 1009 2881 1497 
Q 2881 1984 2565 2268 
Q 2250 2553 1709 2553 
Q 1456 2553 1204 2497 
Q 953 2441 691 2322 
L 691 4666 
z
" transform="scale(0.015625)"/>
       </defs>
       <use xlink:href="#DejaVuSans-35"/>
       <use xlink:href="#DejaVuSans-30" x="63.623047"/>
      </g>
     </g>
    </g>
    <g id="ytick_6">
     <g id="line2d_27">
      <path d="M 90 176.58 
L 648 176.58 
" clip-path="url(#pafccb6ed36)" style="fill: none; stroke: #b0b0b0; stroke-width: 0.8; stroke-linecap: square"/>
     </g>
     <g id="line2d_28">
      <g>
       <use xlink:href="#mabf5f1fd0d" x="90" y="176.58" style="stroke: #000000; stroke-width: 0.8"/>
      </g>
     </g>
     <g id="text_15">
      <!-- 60 -->
      <g transform="translate(70.275 180.379219) scale(0.1 -0.1)">
       <use xlink:href="#DejaVuSans-36"/>
       <use xlink:href="#DejaVuSans-30" x="63.623047"/>
      </g>
     </g>
    </g>
    <g id="ytick_7">
     <g id="line2d_29">
      <path d="M 90 135 
L 648 135 
" clip-path="url(#pafccb6ed36)" style="fill: none; stroke: #b0b0b0; stroke-width: 0.8; stroke-linecap: square"/>
     </g>
     <g id="line2d_30">
      <g>
       <use xlink:href="#mabf5f1fd0d" x="90" y="135" style="stroke: #000000; stroke-width: 0.8"/>
      </g>
     </g>
     <g id="text_16">
      <!-- 70 -->
      <g transform="translate(70.275 138.799219) scale(0.1 -0.1)">
       <defs>
        <path id="DejaVuSans-37" d="M 525 4666 
L 3525 4666 
L 3525 4397 
L 1831 0 
L 1172 0 
L 2766 4134 
L 525 4134 
L 525 4666 
z
" transform="scale(0.015625)"/>
       </defs>
       <use xlink:href="#DejaVuSans-37"/>
       <use xlink:href="#DejaVuSans-30" x="63.623047"/>
      </g>
     </g>
    </g>
    <g id="ytick_8">
     <g id="line2d_31">
      <path d="M 90 93.42 
L 648 93.42 
" clip-path="url(#pafccb6ed36)" style="fill: none; stroke: #b0b0b0; stroke-width: 0.8; stroke-linecap: square"/>
     </g>
     <g id="line2d_32">
      <g>
       <use xlink:href="#mabf5f1fd0d" x="90" y="93.42" style="stroke: #000000; stroke-width: 0.8"/>
      </g>
     </g>
     <g id="text_17">
      <!-- 80 -->
      <g transform="translate(70.275 97.219219) scale(0.1 -0.1)">
       <use xlink:href="#DejaVuSans-38"/>
       <use xlink:href="#DejaVuSans-30" x="63.623047"/>
      </g>
     </g>
    </g>
    <g id="ytick_9">
     <g id="line2d_33">
      <path d="M 90 51.84 
L 648 51.84 
" clip-path="url(#pafccb6ed36)" style="fill: none; stroke: #b0b0b0; stroke-width: 0.8; stroke-linecap: square"/>
     </g>
     <g id="line2d_34">
      <g>
       <use xlink:href="#mabf5f1fd0d" x="90" y="51.84" style="stroke: #000000; stroke-width: 0.8"/>
      </g>
     </g>
     <g id="text_18">
      <!-- 90 -->
      <g transform="translate(70.275 55.639219) scale(0.1 -0.1)">
       <defs>
        <path id="DejaVuSans-39" d="M 703 97 
L 703 672 
Q 941 559 1184 500 
Q 1428 441 1663 441 
Q 2288 441 2617 861 
Q 2947 1281 2994 2138 
Q 2813 1869 2534 1725 
Q 2256 1581 1919 1581 
Q 1219 1581 811 2004 
Q 403 2428 403 3163 
Q 403 3881 828 4315 
Q 1253 4750 1959 4750 
Q 2769 4750 3195 4129 
Q 3622 3509 3622 2328 
Q 3622 1225 3098 567 
Q 2575 -91 1691 -91 
Q 1453 -91 1209 -44 
Q 966 3 703 97 
z
M 1959 2075 
Q 2384 2075 2632 2365 
Q 2881 2656 2881 3163 
Q 2881 3666 2632 3958 
Q 2384 4250 1959 4250 
Q 1534 4250 1286 3958 
Q 1038 3666 1038 3163 
Q 1038 2656 1286 2365 
Q 1534 2075 1959 2075 
z
" transform="scale(0.015625)"/>
       </defs>
       <use xlink:href="#DejaVuSans-39"/>
       <use xlink:href="#DejaVuSans-30" x="63.623047"/>
      </g>
     </g>
    </g>
    <g id="text_19">
     <!-- $T_{sto,LT}$ [C] -->
     <g transform="translate(61.275 269.96) rotate(-90) scale(0.2 -0.2)">
      <defs>
       <path id="DejaVuSans-Oblique-54" d="M 378 4666 
L 4325 4666 
L 4225 4134 
L 2559 4134 
L 1759 0 
L 1125 0 
L 1925 4134 
L 275 4134 
L 378 4666 
z
" transform="scale(0.015625)"/>
       <path id="DejaVuSans-Oblique-73" d="M 3200 3397 
L 3091 2853 
Q 2863 2978 2609 3040 
Q 2356 3103 2088 3103 
Q 1634 3103 1373 2948 
Q 1113 2794 1113 2528 
Q 1113 2219 1719 2053 
Q 1766 2041 1788 2034 
L 1972 1978 
Q 2547 1819 2739 1644 
Q 2931 1469 2931 1166 
Q 2931 609 2489 259 
Q 2047 -91 1331 -91 
Q 1053 -91 747 -37 
Q 441 16 72 128 
L 184 722 
Q 500 559 806 475 
Q 1113 391 1394 391 
Q 1816 391 2080 572 
Q 2344 753 2344 1031 
Q 2344 1331 1650 1516 
L 1591 1531 
L 1394 1581 
Q 956 1697 753 1886 
Q 550 2075 550 2369 
Q 550 2928 970 3256 
Q 1391 3584 2113 3584 
Q 2397 3584 2667 3537 
Q 2938 3491 3200 3397 
z
" transform="scale(0.015625)"/>
       <path id="DejaVuSans-Oblique-74" d="M 2706 3500 
L 2619 3053 
L 1472 3053 
L 1100 1153 
Q 1081 1047 1072 975 
Q 1063 903 1063 863 
Q 1063 663 1183 572 
Q 1303 481 1569 481 
L 2150 481 
L 2053 0 
L 1503 0 
Q 991 0 739 200 
Q 488 400 488 806 
Q 488 878 497 964 
Q 506 1050 525 1153 
L 897 3053 
L 409 3053 
L 500 3500 
L 978 3500 
L 1172 4494 
L 1747 4494 
L 1556 3500 
L 2706 3500 
z
" transform="scale(0.015625)"/>
       <path id="DejaVuSans-Oblique-6f" d="M 1625 -91 
Q 1009 -91 651 289 
Q 294 669 294 1325 
Q 294 1706 417 2101 
Q 541 2497 738 2766 
Q 1047 3184 1428 3384 
Q 1809 3584 2291 3584 
Q 2888 3584 3255 3212 
Q 3622 2841 3622 2241 
Q 3622 1825 3500 1412 
Q 3378 1000 3181 728 
Q 2875 309 2494 109 
Q 2113 -91 1625 -91 
z
M 891 1344 
Q 891 869 1089 633 
Q 1288 397 1691 397 
Q 2269 397 2648 901 
Q 3028 1406 3028 2181 
Q 3028 2634 2825 2865 
Q 2622 3097 2228 3097 
Q 1903 3097 1650 2945 
Q 1397 2794 1197 2484 
Q 1050 2253 970 1956 
Q 891 1659 891 1344 
z
" transform="scale(0.015625)"/>
       <path id="DejaVuSans-2c" d="M 750 794 
L 1409 794 
L 1409 256 
L 897 -744 
L 494 -744 
L 750 256 
L 750 794 
z
" transform="scale(0.015625)"/>
       <path id="DejaVuSans-Oblique-4c" d="M 1075 4666 
L 1709 4666 
L 909 525 
L 3181 525 
L 3078 0 
L 172 0 
L 1075 4666 
z
" transform="scale(0.015625)"/>
       <path id="DejaVuSans-b0" d="M 1600 4347 
Q 1350 4347 1178 4173 
Q 1006 4000 1006 3750 
Q 1006 3503 1178 3333 
Q 1350 3163 1600 3163 
Q 1850 3163 2022 3333 
Q 2194 3503 2194 3750 
Q 2194 3997 2020 4172 
Q 1847 4347 1600 4347 
z
M 1600 4750 
Q 1800 4750 1984 4673 
Q 2169 4597 2303 4453 
Q 2447 4313 2519 4134 
Q 2591 3956 2591 3750 
Q 2591 3338 2302 3052 
Q 2013 2766 1594 2766 
Q 1172 2766 890 3047 
Q 609 3328 609 3750 
Q 609 4169 896 4459 
Q 1184 4750 1600 4750 
z
" transform="scale(0.015625)"/>
       <path id="DejaVuSans-43" d="M 4122 4306 
L 4122 3641 
Q 3803 3938 3442 4084 
Q 3081 4231 2675 4231 
Q 1875 4231 1450 3742 
Q 1025 3253 1025 2328 
Q 1025 1406 1450 917 
Q 1875 428 2675 428 
Q 3081 428 3442 575 
Q 3803 722 4122 1019 
L 4122 359 
Q 3791 134 3420 21 
Q 3050 -91 2638 -91 
Q 1578 -91 968 557 
Q 359 1206 359 2328 
Q 359 3453 968 4101 
Q 1578 4750 2638 4750 
Q 3056 4750 3426 4639 
Q 3797 4528 4122 4306 
z
" transform="scale(0.015625)"/>
      </defs>
      <use xlink:href="#DejaVuSans-Oblique-54" transform="translate(0 0.015625)"/>
      <use xlink:href="#DejaVuSans-Oblique-73" transform="translate(61.083984 -16.390625) scale(0.7)"/>
      <use xlink:href="#DejaVuSans-Oblique-74" transform="translate(97.553711 -16.390625) scale(0.7)"/>
      <use xlink:href="#DejaVuSans-Oblique-6f" transform="translate(125 -16.390625) scale(0.7)"/>
      <use xlink:href="#DejaVuSans-2c" transform="translate(167.827148 -16.390625) scale(0.7)"/>
      <use xlink:href="#DejaVuSans-Oblique-4c" transform="translate(203.71582 -16.390625) scale(0.7)"/>
      <use xlink:href="#DejaVuSans-Oblique-54" transform="translate(242.714844 -16.390625) scale(0.7)"/>
      <use xlink:href="#DejaVuSans-20" transform="translate(288.208008 0.015625)"/>
      <use xlink:href="#DejaVuSans-5b" transform="translate(319.995117 0.015625)"/>
      <use xlink:href="#DejaVuSans-b0" transform="translate(359.008789 0.015625)"/>
      <use xlink:href="#DejaVuSans-43" transform="translate(409.008789 0.015625)"/>
      <use xlink:href="#DejaVuSans-5d" transform="translate(478.833008 0.015625)"/>
     </g>
    </g>
   </g>
   <g id="QuadContourSet_2">
    <path clip-path="url(#pafccb6ed36)" style="fill: none; stroke: #000000; stroke-width: 1.5"/>
    <path clip-path="url(#pafccb6ed36)" style="fill: none; stroke: #000000; stroke-width: 1.5"/>
    <path d="M 648 75.999085 
L 642.542743 75.36 
L 642.363636 75.338723 
L 636.727273 74.736668 
L 631.090909 74.134613 
L 625.454545 73.532558 
L 619.818182 72.930503 
L 614.181818 72.328448 
L 610.742419 72 
L 608.545455 71.762458 
L 602.909091 71.15347 
L 597.272727 70.540047 
L 594.353527 70.222341 
M 565.266513 67.14134 
L 563.454545 66.956408 
L 557.818182 66.345047 
L 552.181818 65.699716 
L 548.515995 65.28 
L 546.545455 65.054384 
L 540.909091 64.409053 
L 535.272727 63.766525 
L 529.636364 63.135207 
L 524 62.50389 
L 518.787064 61.92 
L 518.363636 61.873651 
L 512.727273 61.328332 
L 507.090909 60.783013 
L 501.454545 60.237694 
L 495.818182 59.676209 
L 490.181818 59.103947 
L 484.824334 58.56 
L 484.545455 58.531685 
L 478.909091 57.959423 
L 473.272727 57.376964 
L 467.636364 56.748983 
L 462 56.083612 
L 456.363636 55.374866 
L 454.642493 55.2 
L 450.727273 54.819819 
L 445.090909 54.281801 
L 439.454545 53.743782 
L 433.818182 53.205764 
L 428.181818 52.667746 
L 422.545455 52.125088 
L 419.534303 51.84 
" clip-path="url(#pafccb6ed36)" style="fill: none; stroke: #000000; stroke-width: 1.5"/>
    <path d="M 648 138.706335 
L 642.363636 138.093941 
L 636.727273 137.534971 
L 631.090909 136.992378 
L 625.454545 136.449785 
L 619.818182 135.907193 
L 619.120196 135.84 
L 614.181818 135.300876 
L 608.545455 134.658931 
L 602.909091 133.977055 
L 597.272727 133.295179 
L 591.636364 132.613303 
L 590.534487 132.48 
L 586 131.90577 
L 580.363636 131.222651 
L 574.727273 130.624321 
L 569.090909 130.065998 
L 563.454545 129.493129 
L 560.311324 129.12 
L 557.818182 128.823172 
L 552.181818 128.147958 
L 546.545455 127.471011 
L 540.909091 126.794063 
L 535.272727 126.129161 
L 531.898864 125.76 
L 529.636364 125.512442 
L 524 124.895722 
L 518.363636 124.295761 
L 512.727273 123.737616 
L 507.090909 123.196011 
L 501.454545 122.654405 
L 499.162401 122.4 
L 495.818182 122.028825 
L 490.181818 121.349509 
L 484.545455 120.723107 
L 478.909091 120.168378 
L 473.272727 119.613648 
L 467.636364 119.058919 
L 467.44414 119.04 
L 462 118.504189 
L 456.363636 117.94125 
L 450.727273 117.378312 
L 445.090909 116.815373 
L 439.454545 116.252434 
L 433.818182 115.689495 
L 433.72311 115.68 
L 428.181818 115.076256 
L 422.545455 114.424201 
L 416.909091 113.795309 
L 411.272727 113.166418 
L 405.636364 112.537526 
L 403.686812 112.32 
L 400 111.874831 
L 394.363636 111.209285 
L 388.727273 110.605657 
L 383.090909 110.025314 
L 377.454545 109.428491 
L 373.39021 108.96 
L 371.818182 108.778794 
L 366.181818 108.129098 
L 360.545455 107.479401 
L 354.909091 106.829704 
L 349.272727 106.176659 
L 344.395669 105.6 
L 343.636364 105.51022 
L 338 104.843782 
L 332.363636 104.197431 
L 326.727273 103.626384 
L 321.090909 103.100343 
L 315.454545 102.574302 
L 312.110249 102.24 
L 309.818182 102.010881 
L 304.181818 101.422541 
L 301.861966 101.180388 
M 272.699362 97.962691 
L 270.363636 97.682936 
L 264.727273 97.076478 
L 259.090909 96.521978 
L 253.454545 95.967478 
L 248.906033 95.52 
L 247.818182 95.406953 
L 242.181818 94.821237 
L 236.545455 94.233895 
L 230.909091 93.644115 
L 225.272727 93.054334 
L 219.636364 92.464553 
L 216.725835 92.16 
L 214 91.84524 
L 208.363636 91.200636 
L 202.727273 90.600544 
L 197.090909 90.130918 
L 191.454545 89.659582 
L 185.818182 89.15236 
L 181.902678 88.8 
L 180.181818 88.645138 
L 174.545455 88.137917 
L 168.909091 87.630695 
L 163.272727 87.224918 
L 157.636364 87.224918 
L 152 87.224918 
L 146.363636 87.224918 
L 140.727273 87.224918 
L 135.090909 87.224918 
L 129.454545 87.224918 
L 123.818182 87.224918 
L 118.181818 87.224918 
L 112.545455 87.224918 
L 106.909091 87.224918 
L 101.272727 87.224918 
L 95.636364 87.224918 
L 90 87.224918 
" clip-path="url(#pafccb6ed36)" style="fill: none; stroke: #000000; stroke-width: 1.5"/>
    <path d="M 648 180.223198 
L 642.363636 179.664592 
L 640.904691 179.52 
L 636.727273 179.09923 
L 631.090909 178.531507 
L 625.454545 177.963785 
L 619.818182 177.396063 
L 614.181818 176.82234 
L 608.545455 176.260072 
L 607.595185 176.16 
L 602.909091 175.61474 
L 597.272727 174.95891 
L 591.636364 174.303079 
L 586 173.647249 
L 580.363636 172.991418 
L 578.718542 172.8 
L 574.727273 172.335588 
L 569.090909 171.690633 
L 563.454545 171.048398 
L 557.818182 170.406162 
L 552.181818 169.763926 
L 549.224448 169.44 
L 546.545455 169.151447 
L 540.909091 168.572313 
L 535.272727 167.979483 
L 529.636364 167.331876 
L 524 166.684268 
L 518.740832 166.08 
L 518.363636 166.037668 
L 512.727273 165.478921 
L 507.090909 164.925306 
L 501.454545 164.37169 
L 495.818182 163.788047 
L 490.181818 163.184385 
L 485.845882 162.72 
L 484.545455 162.580722 
L 478.909091 161.97706 
L 473.272727 161.361463 
L 467.636364 160.713337 
L 462 160.031189 
L 456.363636 159.44458 
L 455.550957 159.36 
L 450.727273 158.857971 
L 445.090909 158.271363 
L 439.454545 157.684754 
L 433.818182 157.098145 
L 428.181818 156.506395 
L 423.247426 156 
L 422.545455 155.920264 
L 416.909091 155.317909 
L 411.272727 154.714463 
L 405.636364 154.111017 
L 400 153.507572 
L 394.363636 152.904126 
L 391.896619 152.64 
L 388.727273 152.297783 
L 383.090909 151.642855 
L 377.454545 150.976345 
L 371.818182 150.309835 
L 366.181818 149.643326 
L 363.005692 149.28 
L 360.545455 149.005671 
L 354.909091 148.435493 
L 349.272727 147.859378 
L 343.636364 147.259514 
L 338 146.657282 
L 332.363636 146.051023 
L 331.251034 145.92 
L 326.727273 145.387268 
L 321.090909 144.723513 
L 315.454545 144.059758 
L 309.818182 143.41281 
L 307.500985 143.151447 
M 278.302848 140.277954 
L 276 140.062553 
L 270.363636 139.4662 
L 267.847668 139.2 
L 264.727273 138.869848 
L 259.090909 138.273496 
L 253.454545 137.677144 
L 247.818182 137.080792 
L 242.181818 136.475183 
L 236.545455 135.867471 
L 236.263459 135.84 
L 230.909091 135.267144 
L 225.272727 134.664118 
L 219.636364 134.061092 
L 214 133.458067 
L 208.363636 132.855041 
L 204.630502 132.48 
L 202.727273 132.28505 
L 197.090909 131.809754 
L 191.454545 131.305935 
L 185.818182 130.79019 
L 180.181818 130.272772 
L 174.545455 129.755354 
L 168.909091 129.237936 
L 167.303208 129.12 
L 163.272727 128.824002 
L 157.636364 128.824002 
L 152 128.824002 
L 146.363636 128.824002 
L 140.727273 128.824002 
L 135.090909 128.824002 
L 129.454545 128.824002 
L 123.818182 128.824002 
L 118.181818 128.824002 
L 112.545455 128.824002 
L 106.909091 128.824002 
L 101.272727 128.824002 
L 95.636364 128.824002 
L 90 128.824002 
" clip-path="url(#pafccb6ed36)" style="fill: none; stroke: #000000; stroke-width: 1.5"/>
    <path d="M 648 212.80559 
L 642.363636 212.204394 
L 636.727273 211.603197 
L 631.090909 211.002 
L 625.454545 210.402074 
L 619.818182 209.824258 
L 619.18649 209.76 
L 614.181818 209.25091 
L 608.545455 208.670881 
L 602.909091 208.080829 
L 597.272727 207.490777 
L 591.636364 206.895891 
L 587.083025 206.4 
L 586 206.281947 
L 580.363636 205.65673 
L 574.727273 205.030894 
L 569.090909 204.418582 
L 563.454545 203.809652 
L 557.818182 203.225591 
L 556.008641 203.04 
L 552.181818 202.647715 
L 546.545455 202.069936 
L 540.909091 201.492157 
L 535.272727 200.913866 
L 529.636364 200.33353 
L 524 199.753193 
L 523.289135 199.68 
L 518.363636 199.163646 
L 512.727273 198.57277 
L 507.090909 197.981895 
L 501.454545 197.389274 
L 495.818182 196.771644 
L 491.868131 196.32 
L 490.181818 196.120039 
L 484.545455 195.451687 
L 478.909091 194.783334 
L 473.272727 194.114982 
L 467.636364 193.46207 
L 463.069304 192.96 
L 462 192.843492 
L 456.363636 192.234848 
L 450.727273 191.626204 
L 445.090909 191.01756 
L 439.454545 190.408916 
L 433.818182 189.818862 
L 431.699547 189.6 
L 428.181818 189.2371 
L 422.545455 188.663243 
L 416.909091 188.100797 
L 411.272727 187.53835 
L 405.636364 186.969303 
L 400 186.383734 
L 398.624407 186.24 
L 394.363636 185.794798 
L 388.727273 185.205862 
L 385.58231 184.847315 
M 350.147804 181.029153 
L 349.272727 180.93683 
L 343.636364 180.314014 
L 338 179.710784 
L 336.203692 179.52 
L 332.363636 179.108593 
L 326.727273 178.504738 
L 321.090909 177.900883 
L 315.454545 177.297028 
L 309.818182 176.706981 
L 304.595431 176.16 
L 304.181818 176.114649 
L 298.545455 175.496648 
L 292.909091 174.878646 
L 287.272727 174.260645 
L 281.636364 173.642643 
L 276 173.024642 
L 274.036618 172.8 
L 270.363636 172.379754 
L 264.727273 171.734866 
L 259.090909 171.089978 
L 253.454545 170.44509 
L 247.818182 169.827607 
L 244.133742 169.44 
L 242.181818 169.235775 
L 236.545455 168.660814 
L 230.909091 168.10799 
L 225.272727 167.551114 
L 219.636364 166.977923 
L 214 166.369087 
L 211.323746 166.08 
L 208.363636 165.760251 
L 202.727273 165.151415 
L 197.090909 164.698557 
L 191.454545 164.284694 
L 185.818182 163.854124 
L 180.181818 163.398774 
L 174.545455 162.936713 
L 171.901914 162.72 
L 168.909091 162.474653 
L 163.272727 162.105005 
L 157.636364 162.105005 
L 152 162.105005 
L 146.363636 162.105005 
L 140.727273 162.105005 
L 135.090909 162.105005 
L 129.454545 162.105005 
L 123.818182 162.105005 
L 118.181818 162.105005 
L 112.545455 162.105005 
L 106.909091 162.105005 
L 101.272727 162.105005 
L 95.636364 162.105005 
L 90 162.105005 
" clip-path="url(#pafccb6ed36)" style="fill: none; stroke: #000000; stroke-width: 1.5"/>
    <path d="M 648 243.091321 
L 642.363636 242.582783 
L 636.727273 241.962685 
L 631.090909 241.293566 
L 625.454545 240.624448 
L 620.194464 240 
L 619.818182 239.95886 
L 614.181818 239.342613 
L 608.545455 238.723001 
L 602.909091 238.098343 
L 597.272727 237.473684 
L 591.636364 236.849026 
L 589.750299 236.64 
L 586 236.238778 
L 580.363636 235.632746 
L 575.542902 235.104473 
M 540.096656 231.393972 
L 535.272727 230.872047 
L 529.636364 230.268211 
L 526.386074 229.92 
L 524 229.664375 
L 518.363636 229.082809 
L 512.727273 228.536257 
L 507.090909 228.006436 
L 501.454545 227.476616 
L 495.818182 226.96007 
L 491.376654 226.56 
L 490.181818 226.452375 
L 484.545455 225.925158 
L 478.909091 225.299194 
L 473.272727 224.667454 
L 467.636364 224.035713 
L 462 223.403973 
L 460.255552 223.2 
L 456.363636 222.74493 
L 450.727273 222.085887 
L 445.090909 221.426843 
L 439.454545 220.7678 
L 433.818182 220.108756 
L 431.519684 219.84 
L 428.181818 219.462486 
L 422.545455 218.937563 
L 416.909091 218.339963 
L 411.272727 217.727677 
L 405.636364 217.11539 
L 400 216.503103 
L 399.787325 216.48 
L 394.363636 215.93532 
L 388.727273 215.369283 
L 383.090909 214.81754 
L 377.454545 214.269372 
L 371.818182 213.721204 
L 366.181818 213.173036 
L 365.636496 213.12 
L 360.545455 212.612878 
L 354.909091 211.969904 
L 349.272727 211.314211 
L 343.636364 210.67177 
L 338 210.033183 
L 335.471196 209.76 
L 332.363636 209.424828 
L 326.727273 208.842598 
L 321.090909 208.264681 
L 315.454545 207.686764 
L 309.818182 207.127025 
L 304.181818 206.579405 
L 302.335294 206.4 
L 298.545455 206.027241 
L 292.909091 205.430859 
L 287.272727 204.822137 
L 281.636364 204.213415 
L 276 203.604693 
L 270.363636 203.07982 
L 269.952597 203.04 
L 264.727273 202.516201 
L 259.090909 201.863632 
L 253.454545 201.211064 
L 247.818182 200.558495 
L 242.181818 199.905927 
L 240.167107 199.68 
L 236.545455 199.285751 
L 230.909091 198.702054 
L 225.272727 198.118358 
L 219.636364 197.534661 
L 214 196.950965 
L 208.363636 196.367269 
L 207.913733 196.32 
L 202.727273 195.79813 
L 197.090909 195.338068 
L 191.454545 194.918862 
L 185.818182 194.500216 
L 180.181818 194.081569 
L 174.545455 193.662923 
L 168.909091 193.244277 
L 164.124962 192.96 
L 163.272727 192.90936 
L 157.636364 192.90936 
L 152 192.90936 
L 146.363636 192.90936 
L 140.727273 192.90936 
L 135.090909 192.90936 
L 129.454545 192.90936 
L 123.818182 192.90936 
L 118.181818 192.90936 
L 112.545455 192.90936 
L 106.909091 192.90936 
L 101.272727 192.90936 
L 95.636364 192.90936 
L 90 192.90936 
" clip-path="url(#pafccb6ed36)" style="fill: none; stroke: #000000; stroke-width: 1.5"/>
    <path d="M 648 284.511191 
L 642.363636 283.865328 
L 640.7463 283.68 
L 636.727273 283.239692 
L 631.090909 282.622196 
L 625.454545 282.0047 
L 619.818182 281.387204 
L 614.181818 280.770741 
L 609.537829 280.32 
L 608.545455 280.262068 
L 602.909091 279.997861 
L 597.272727 279.733654 
L 591.636364 279.469447 
L 586 279.20524 
L 580.363636 278.941033 
L 574.727273 278.37328 
L 569.090909 277.588789 
L 563.454545 277.005934 
L 562.828034 276.96 
L 557.818182 276.592691 
L 552.181818 276.179448 
L 546.545455 275.766205 
L 540.909091 275.352962 
L 535.272727 274.915355 
L 529.636364 274.380288 
L 524 273.845221 
L 521.416855 273.6 
L 518.363636 273.310154 
L 512.727273 272.685227 
L 507.090909 271.706412 
L 501.454545 270.664544 
L 498.404727 270.24 
L 495.818182 269.879945 
L 490.181818 269.266861 
L 484.545455 268.610882 
L 478.909091 267.761052 
L 473.732566 266.88 
L 473.272727 266.801735 
L 467.636364 265.842417 
L 462 264.8831 
L 456.363636 264.363945 
L 450.727273 263.844789 
L 447.2011 263.52 
L 445.090909 263.325634 
L 439.454545 262.806479 
L 433.818182 262.287324 
L 428.181818 261.723598 
L 422.545455 261.144364 
L 416.909091 260.535814 
L 413.523458 260.16 
L 411.272727 259.992874 
L 405.636364 259.574352 
L 400 259.155829 
L 394.363636 258.737306 
L 388.727273 258.318784 
L 387.840679 258.208659 
M 352.293324 255.771955 
L 349.272727 255.550101 
L 343.636364 254.756591 
L 338 254.020751 
L 332.363636 253.463541 
L 332.125515 253.44 
L 326.727273 252.906331 
L 321.090909 252.34912 
L 315.454545 251.79191 
L 309.818182 251.228731 
L 304.181818 250.661573 
L 298.545455 250.094415 
L 298.407668 250.08 
L 292.909091 249.435675 
L 287.272727 248.422199 
L 281.636364 247.408723 
L 277.806086 246.72 
L 276 246.395247 
L 270.363636 245.777733 
L 264.727273 245.13046 
L 259.090909 244.409901 
L 253.454545 243.662675 
L 251.171455 243.36 
L 247.818182 242.915448 
L 242.181818 242.168222 
L 236.545455 241.499944 
L 230.909091 240.940548 
L 225.272727 240.374457 
L 221.544402 240 
L 219.636364 239.87245 
L 214 239.495668 
L 208.363636 239.118885 
L 202.727273 238.742103 
L 197.090909 238.523063 
L 191.454545 238.343459 
L 185.818182 238.163855 
L 180.181818 237.984251 
L 174.545455 237.804647 
L 168.909091 237.625043 
L 163.272727 237.195954 
L 157.636364 237.195954 
L 152 237.195954 
L 146.363636 237.195954 
L 140.727273 237.195954 
L 135.090909 237.195954 
L 129.454545 237.195954 
L 123.818182 237.195954 
L 118.181818 237.195954 
L 112.545455 237.195954 
L 106.909091 237.195954 
L 101.272727 237.195954 
L 95.636364 237.195954 
L 90 237.195954 
" clip-path="url(#pafccb6ed36)" style="fill: none; stroke: #000000; stroke-width: 1.5"/>
    <path d="M 648 374.337142 
L 642.363636 373.695926 
L 636.727273 373.054709 
L 631.090909 372.413492 
L 625.454545 371.751037 
L 619.825406 371.04 
L 619.818182 371.039085 
L 614.181818 370.301791 
L 608.545455 369.62817 
L 602.909091 369.050076 
L 597.272727 368.471982 
L 591.636364 367.893888 
L 589.550972 367.68 
L 586 367.315794 
L 580.363636 366.745252 
L 574.727273 366.256059 
L 569.090909 365.782654 
L 563.454545 365.345863 
L 557.818182 364.926125 
L 552.181818 364.506387 
L 549.678962 364.32 
L 546.545455 364.091075 
L 540.909091 363.6793 
L 535.272727 363.228895 
L 529.636364 362.623974 
L 524 362.019053 
L 518.363636 361.414132 
L 514.132252 360.96 
L 512.727273 360.809868 
L 507.090909 360.1967 
L 501.454545 359.522379 
L 495.818182 358.92672 
L 490.181818 358.422596 
L 484.545455 357.950399 
L 480.181192 357.6 
L 478.909091 357.497865 
L 473.272727 357.045332 
L 467.636364 356.592798 
L 462 356.140265 
L 456.363636 355.478909 
L 450.727273 354.817552 
L 445.805125 354.24 
L 445.090909 354.15688 
L 439.454545 353.53185 
L 433.818182 352.940843 
L 428.181818 352.349835 
L 422.545455 351.77681 
L 416.909091 351.230757 
L 413.28858 350.88 
L 411.272727 350.684703 
L 405.636364 350.13865 
L 400 349.624135 
L 394.363636 349.165769 
L 388.727273 348.750901 
L 383.999773 348.406329 
M 348.373 345.698652 
L 343.636364 345.246011 
L 338 344.659106 
L 333.268564 344.16 
L 332.363636 344.068348 
L 326.727273 343.497489 
L 321.090909 342.92663 
L 315.454545 342.355772 
L 309.818182 341.751715 
L 304.181818 341.138522 
L 301.043992 340.8 
L 298.545455 340.538974 
L 292.909091 339.950136 
L 287.272727 339.361298 
L 281.636364 338.772459 
L 276 338.183621 
L 270.363636 337.759717 
L 266.112569 337.44 
L 264.727273 337.335814 
L 259.090909 336.91191 
L 253.454545 336.485707 
L 247.818182 336.040724 
L 242.181818 335.570295 
L 236.545455 335.039997 
L 230.909091 334.419893 
L 227.819677 334.08 
L 225.272727 333.799789 
L 219.636364 333.188859 
L 214 332.614847 
L 208.363636 332.055838 
L 202.727273 331.496829 
L 197.090909 331.154114 
L 191.454545 330.865473 
L 188.613858 330.72 
L 185.818182 330.576832 
L 180.181818 330.288191 
L 174.545455 329.946549 
L 168.909091 329.594646 
L 163.272727 329.311354 
L 157.636364 329.311354 
L 152 329.311354 
L 146.363636 329.311354 
L 140.727273 329.311354 
L 135.090909 329.311354 
L 129.454545 329.311354 
L 123.818182 329.311354 
L 118.181818 329.311354 
L 112.545455 329.311354 
L 106.909091 329.311354 
L 101.272727 329.311354 
L 95.636364 329.311354 
L 90 329.311354 
" clip-path="url(#pafccb6ed36)" style="fill: none; stroke: #000000; stroke-width: 1.5"/>
    <path clip-path="url(#pafccb6ed36)" style="fill: none; stroke: #000000; stroke-width: 1.5"/>
    <path clip-path="url(#pafccb6ed36)" style="fill: none; stroke: #000000; stroke-width: 1.5"/>
   </g>
   <g id="patch_3">
    <path d="M 90 384.48 
L 90 51.84 
" style="fill: none; stroke: #000000; stroke-width: 0.8; stroke-linejoin: miter; stroke-linecap: square"/>
   </g>
   <g id="patch_4">
    <path d="M 648 384.48 
L 648 51.84 
" style="fill: none; stroke: #000000; stroke-width: 0.8; stroke-linejoin: miter; stroke-linecap: square"/>
   </g>
   <g id="patch_5">
    <path d="M 90 384.48 
L 648 384.48 
" style="fill: none; stroke: #000000; stroke-width: 0.8; stroke-linejoin: miter; stroke-linecap: square"/>
   </g>
   <g id="patch_6">
    <path d="M 90 51.84 
L 648 51.84 
" style="fill: none; stroke: #000000; stroke-width: 0.8; stroke-linejoin: miter; stroke-linecap: square"/>
   </g>
   <g id="text_20">
    <g clip-path="url(#pafccb6ed36)">
     <!-- 4.00 -->
     <g transform="translate(568.4526 70.209605) rotate(-353.944736) scale(0.1 -0.1)">
      <defs>
       <path id="DejaVuSans-2e" d="M 684 794 
L 1344 794 
L 1344 0 
L 684 0 
L 684 794 
z
" transform="scale(0.015625)"/>
      </defs>
      <use xlink:href="#DejaVuSans-34"/>
      <use xlink:href="#DejaVuSans-2e" x="63.623047"/>
      <use xlink:href="#DejaVuSans-30" x="95.410156"/>
      <use xlink:href="#DejaVuSans-30" x="159.033203"/>
     </g>
    </g>
   </g>
   <g id="text_21">
    <g clip-path="url(#pafccb6ed36)">
     <!-- 6.00 -->
     <g transform="translate(275.905213 101.170793) rotate(-353.732517) scale(0.1 -0.1)">
      <use xlink:href="#DejaVuSans-36"/>
      <use xlink:href="#DejaVuSans-2e" x="63.623047"/>
      <use xlink:href="#DejaVuSans-30" x="95.410156"/>
      <use xlink:href="#DejaVuSans-30" x="159.033203"/>
     </g>
    </g>
   </g>
   <g id="text_22">
    <g clip-path="url(#pafccb6ed36)">
     <!-- 8.00 -->
     <g transform="translate(281.562024 143.316827) rotate(-354.464693) scale(0.1 -0.1)">
      <use xlink:href="#DejaVuSans-38"/>
      <use xlink:href="#DejaVuSans-2e" x="63.623047"/>
      <use xlink:href="#DejaVuSans-30" x="95.410156"/>
      <use xlink:href="#DejaVuSans-30" x="159.033203"/>
     </g>
    </g>
   </g>
   <g id="text_23">
    <g clip-path="url(#pafccb6ed36)">
     <!-- 10.00 -->
     <g transform="translate(353.344839 184.098575) rotate(-353.883807) scale(0.1 -0.1)">
      <use xlink:href="#DejaVuSans-31"/>
      <use xlink:href="#DejaVuSans-30" x="63.623047"/>
      <use xlink:href="#DejaVuSans-2e" x="127.246094"/>
      <use xlink:href="#DejaVuSans-30" x="159.033203"/>
      <use xlink:href="#DejaVuSans-30" x="222.65625"/>
     </g>
    </g>
   </g>
   <g id="text_24">
    <g clip-path="url(#pafccb6ed36)">
     <!-- 12.00 -->
     <g transform="translate(543.295371 234.527081) rotate(-354.057997) scale(0.1 -0.1)">
      <use xlink:href="#DejaVuSans-31"/>
      <use xlink:href="#DejaVuSans-32" x="63.623047"/>
      <use xlink:href="#DejaVuSans-2e" x="127.246094"/>
      <use xlink:href="#DejaVuSans-30" x="159.033203"/>
      <use xlink:href="#DejaVuSans-30" x="222.65625"/>
     </g>
    </g>
   </g>
   <g id="text_25">
    <g clip-path="url(#pafccb6ed36)">
     <!-- 14.00 -->
     <g transform="translate(355.62672 258.67475) rotate(-356.477704) scale(0.1 -0.1)">
      <use xlink:href="#DejaVuSans-31"/>
      <use xlink:href="#DejaVuSans-34" x="63.623047"/>
      <use xlink:href="#DejaVuSans-2e" x="127.246094"/>
      <use xlink:href="#DejaVuSans-30" x="159.033203"/>
      <use xlink:href="#DejaVuSans-30" x="222.65625"/>
     </g>
    </g>
   </g>
   <g id="text_26">
    <g clip-path="url(#pafccb6ed36)">
     <!-- 16.00 -->
     <g transform="translate(351.701346 348.790696) rotate(-355.706583) scale(0.1 -0.1)">
      <use xlink:href="#DejaVuSans-31"/>
      <use xlink:href="#DejaVuSans-36" x="63.623047"/>
      <use xlink:href="#DejaVuSans-2e" x="127.246094"/>
      <use xlink:href="#DejaVuSans-30" x="159.033203"/>
      <use xlink:href="#DejaVuSans-30" x="222.65625"/>
     </g>
    </g>
   </g>
  </g>
 </g>
 <defs>
  <clipPath id="pafccb6ed36">
   <rect x="90" y="51.84" width="558" height="332.64"/>
  </clipPath>
 </defs>
</svg>
