<?xml version="1.0" encoding="utf-8" standalone="no"?>
<!DOCTYPE svg PUBLIC "-//W3C//DTD SVG 1.1//EN"
  "http://www.w3.org/Graphics/SVG/1.1/DTD/svg11.dtd">
<svg xmlns:xlink="http://www.w3.org/1999/xlink" width="720pt" height="432pt" viewBox="0 0 720 432" xmlns="http://www.w3.org/2000/svg" version="1.1">
 <metadata>
  <rdf:RDF xmlns:dc="http://purl.org/dc/elements/1.1/" xmlns:cc="http://creativecommons.org/ns#" xmlns:rdf="http://www.w3.org/1999/02/22-rdf-syntax-ns#">
   <cc:Work>
    <dc:type rdf:resource="http://purl.org/dc/dcmitype/StillImage"/>
    <dc:date>2024-06-12T13:33:37.435282</dc:date>
    <dc:format>image/svg+xml</dc:format>
    <dc:creator>
     <cc:Agent>
      <dc:title>Matplotlib v3.8.3, https://matplotlib.org/</dc:title>
     </cc:Agent>
    </dc:creator>
   </cc:Work>
  </rdf:RDF>
 </metadata>
 <defs>
  <style type="text/css">*{stroke-linejoin: round; stroke-linecap: butt}</style>
 </defs>
 <g id="figure_1">
  <g id="patch_1">
   <path d="M 0 432 
L 720 432 
L 720 0 
L 0 0 
z
" style="fill: #ffffff"/>
  </g>
  <g id="axes_1">
   <g id="patch_2">
    <path d="M 90 384.48 
L 648 384.48 
L 648 51.84 
L 90 51.84 
z
" style="fill: #ffffff"/>
   </g>
   <g id="QuadContourSet_1">
    <path clip-path="url(#pd638213bd0)" style="fill: #48186a"/>
    <path d="M 264.727273 384.48 
L 270.363636 384.48 
L 276 384.48 
L 281.636364 384.48 
L 287.272727 384.48 
L 292.909091 384.48 
L 298.545455 384.48 
L 304.181818 384.48 
L 309.818182 384.48 
L 315.454545 384.48 
L 321.090909 384.48 
L 326.727273 384.48 
L 332.363636 384.48 
L 338 384.48 
L 343.636364 384.48 
L 349.272727 384.48 
L 354.909091 384.48 
L 360.545455 384.48 
L 366.181818 384.48 
L 371.818182 384.48 
L 377.454545 384.48 
L 383.090909 384.48 
L 388.727273 384.48 
L 394.363636 384.48 
L 400 384.48 
L 405.636364 384.48 
L 411.272727 384.48 
L 416.909091 384.48 
L 422.545455 384.48 
L 428.181818 384.48 
L 433.818182 384.48 
L 439.454545 384.48 
L 445.090909 384.48 
L 450.727273 384.48 
L 456.363636 384.48 
L 462 384.48 
L 467.636364 384.48 
L 473.272727 384.48 
L 478.909091 384.48 
L 484.545455 384.48 
L 490.181818 384.48 
L 495.818182 384.48 
L 501.454545 384.48 
L 507.090909 384.48 
L 512.727273 384.48 
L 518.363636 384.48 
L 524 384.48 
L 529.636364 384.48 
L 535.272727 384.48 
L 540.909091 384.48 
L 546.545455 384.48 
L 552.181818 384.48 
L 557.818182 384.48 
L 563.454545 384.48 
L 569.090909 384.48 
L 574.727273 384.48 
L 580.363636 384.48 
L 586 384.48 
L 591.636364 384.48 
L 597.272727 384.48 
L 602.909091 384.48 
L 608.545455 384.48 
L 614.181818 384.48 
L 619.818182 384.48 
L 625.454545 384.48 
L 631.090909 384.48 
L 636.727273 384.48 
L 642.363636 384.48 
L 648 384.48 
L 642.363636 381.12 
L 642.363636 377.76 
L 642.363636 374.4 
L 642.363636 371.04 
L 642.363636 367.68 
L 642.363636 364.32 
L 642.363636 360.96 
L 642.363636 357.6 
L 642.363636 354.24 
L 642.363636 350.88 
L 642.363636 347.52 
L 642.363636 344.16 
L 642.363636 340.8 
L 642.363636 337.44 
L 642.363636 334.08 
L 642.363636 330.72 
L 642.363636 327.36 
L 642.363636 324 
L 636.727273 320.64 
L 636.727273 317.28 
L 636.727273 313.92 
L 636.727273 310.56 
L 636.727273 307.2 
L 636.727273 303.84 
L 636.727273 300.48 
L 636.727273 297.12 
L 636.727273 293.76 
L 636.727273 290.4 
L 631.090909 287.04 
L 631.090909 283.68 
L 631.090909 280.32 
L 631.090909 276.96 
L 631.090909 273.6 
L 631.090909 270.24 
L 631.090909 266.88 
L 631.090909 263.52 
L 631.090909 260.16 
L 625.454545 256.8 
L 625.454545 253.44 
L 625.454545 250.08 
L 625.454545 246.72 
L 625.454545 243.36 
L 625.454545 240 
L 625.454545 236.64 
L 619.818182 233.28 
L 619.818182 229.92 
L 619.818182 226.56 
L 619.818182 223.2 
L 619.818182 219.84 
L 619.818182 216.48 
L 614.181818 213.12 
L 614.181818 211.88704 
L 612.608107 213.12 
L 608.545455 216.302977 
L 608.319508 216.48 
L 604.030909 219.84 
L 602.909091 220.718914 
L 599.742311 223.2 
L 597.272727 225.134851 
L 595.865446 226.56 
L 592.305806 229.92 
L 591.636364 230.515687 
L 588.93079 233.28 
L 586 236.274418 
L 585.642187 236.64 
L 582.353584 240 
L 580.363636 242.03315 
L 579.268886 243.36 
L 576.350358 246.72 
L 574.727273 248.484723 
L 573.586283 250.08 
L 571.183112 253.44 
L 569.090909 256.365219 
L 568.829615 256.8 
L 566.760407 260.16 
L 564.598589 263.52 
L 563.454545 265.239291 
L 559.111349 263.52 
L 557.818182 262.973125 
L 556.103045 260.16 
L 554.054484 256.8 
L 552.181818 253.752048 
L 551.738218 253.44 
L 546.708317 250.08 
L 546.545455 249.971207 
L 541.615309 246.72 
L 540.909091 246.280656 
L 535.272727 246.266273 
L 534.975464 246.72 
L 533.208099 250.08 
L 530.583352 253.44 
L 529.636364 254.351426 
L 524 256.197888 
L 522.16204 256.8 
L 518.363636 258.04435 
L 514.315197 260.16 
L 512.727273 260.812288 
L 509.723939 263.52 
L 507.090909 265.893858 
L 505.997102 266.88 
L 502.270266 270.24 
L 501.454545 270.975428 
L 498.543429 273.6 
L 495.818182 276.056998 
L 495.100221 276.96 
L 492.278876 280.32 
L 490.181818 282.638702 
L 489.347697 283.68 
L 486.598482 287.04 
L 484.545455 289.561667 
L 484.046446 290.4 
L 481.992191 293.76 
L 479.846772 297.12 
L 478.909091 298.543146 
L 476.383832 300.48 
L 473.272727 303.127745 
L 472.235647 300.48 
L 470.842173 297.12 
L 469.353894 293.76 
L 467.760793 290.4 
L 467.636364 290.147165 
L 464.717262 287.04 
L 462 284.280329 
L 456.363636 286.666421 
L 455.372799 287.04 
L 450.727273 288.79152 
L 446.461127 290.4 
L 445.090909 290.916618 
L 439.454545 293.041717 
L 438.560653 293.76 
L 433.818182 296.785852 
L 433.384277 297.12 
L 429.021176 300.48 
L 428.181818 301.126385 
L 424.658075 303.84 
L 422.545455 305.466918 
L 420.590399 307.2 
L 416.909091 310.175632 
L 416.537354 310.56 
L 413.287774 313.92 
L 411.272727 316.003517 
L 410.317489 317.28 
L 407.655539 320.64 
L 405.636364 323.011343 
L 405.22065 324 
L 403.716746 327.36 
L 402.055167 330.72 
L 400.209744 334.08 
L 400 334.439723 
L 399.609274 334.08 
L 396.283709 330.72 
L 394.363636 328.499097 
L 393.602964 327.36 
L 391.321225 324 
L 388.98106 320.64 
L 388.727273 320.280712 
L 383.090909 319.354335 
L 380.59111 320.64 
L 377.454545 322.253159 
L 374.058055 324 
L 371.818182 325.151984 
L 367.524999 327.36 
L 366.181818 328.050808 
L 361.890239 330.72 
L 360.545455 331.442234 
L 356.437059 334.08 
L 354.909091 335.061021 
L 351.203763 337.44 
L 349.272727 338.679807 
L 345.970466 340.8 
L 343.636364 342.298594 
L 341.447608 344.16 
L 338 346.772668 
L 337.281254 347.52 
L 333.792665 350.88 
L 332.363636 352.140687 
L 330.774791 354.24 
L 328.294899 357.6 
L 326.727273 359.763319 
L 323.975061 357.6 
L 321.090909 354.688773 
L 315.573239 357.6 
L 315.454545 357.661271 
L 309.818182 360.570834 
L 309.064296 360.96 
L 304.181818 363.480398 
L 302.555352 364.32 
L 298.545455 366.389961 
L 296.046409 367.68 
L 292.909091 369.299524 
L 289.537466 371.04 
L 287.272727 372.209087 
L 283.028523 374.4 
L 281.636364 375.118651 
L 276.51958 377.76 
L 276 378.028214 
L 270.363636 380.937777 
L 270.010637 381.12 
L 264.727273 383.84734 
L 263.598397 384.48 
z
" clip-path="url(#pd638213bd0)" style="fill: #424086"/>
    <path d="M 106.909091 384.48 
L 112.545455 384.48 
L 118.181818 384.48 
L 123.818182 384.48 
L 129.454545 384.48 
L 135.090909 384.48 
L 140.727273 384.48 
L 146.363636 384.48 
L 152 384.48 
L 157.636364 384.48 
L 163.272727 384.48 
L 168.909091 384.48 
L 174.545455 384.48 
L 180.181818 384.48 
L 185.818182 384.48 
L 191.454545 384.48 
L 197.090909 384.48 
L 202.727273 384.48 
L 208.363636 384.48 
L 214 384.48 
L 219.636364 384.48 
L 225.272727 384.48 
L 230.909091 384.48 
L 236.545455 384.48 
L 242.181818 384.48 
L 247.818182 384.48 
L 253.454545 384.48 
L 259.090909 384.48 
L 263.598397 384.48 
L 264.727273 383.84734 
L 270.010637 381.12 
L 270.363636 380.937777 
L 276 378.028214 
L 276.51958 377.76 
L 281.636364 375.118651 
L 283.028523 374.4 
L 287.272727 372.209087 
L 289.537466 371.04 
L 292.909091 369.299524 
L 296.046409 367.68 
L 298.545455 366.389961 
L 302.555352 364.32 
L 304.181818 363.480398 
L 309.064296 360.96 
L 309.818182 360.570834 
L 315.454545 357.661271 
L 315.573239 357.6 
L 321.090909 354.688773 
L 323.975061 357.6 
L 326.727273 359.763319 
L 328.294899 357.6 
L 330.774791 354.24 
L 332.363636 352.140687 
L 333.792665 350.88 
L 337.281254 347.52 
L 338 346.772668 
L 341.447608 344.16 
L 343.636364 342.298594 
L 345.970466 340.8 
L 349.272727 338.679807 
L 351.203763 337.44 
L 354.909091 335.061021 
L 356.437059 334.08 
L 360.545455 331.442234 
L 361.890239 330.72 
L 366.181818 328.050808 
L 367.524999 327.36 
L 371.818182 325.151984 
L 374.058055 324 
L 377.454545 322.253159 
L 380.59111 320.64 
L 383.090909 319.354335 
L 388.727273 320.280712 
L 388.98106 320.64 
L 391.321225 324 
L 393.602964 327.36 
L 394.363636 328.499097 
L 396.283709 330.72 
L 399.609274 334.08 
L 400 334.439723 
L 400.209744 334.08 
L 402.055167 330.72 
L 403.716746 327.36 
L 405.22065 324 
L 405.636364 323.011343 
L 407.655539 320.64 
L 410.317489 317.28 
L 411.272727 316.003517 
L 413.287774 313.92 
L 416.537354 310.56 
L 416.909091 310.175632 
L 420.590399 307.2 
L 422.545455 305.466918 
L 424.658075 303.84 
L 428.181818 301.126385 
L 429.021176 300.48 
L 433.384277 297.12 
L 433.818182 296.785852 
L 438.560653 293.76 
L 439.454545 293.041717 
L 445.090909 290.916618 
L 446.461127 290.4 
L 450.727273 288.79152 
L 455.372799 287.04 
L 456.363636 286.666421 
L 462 284.280329 
L 464.717262 287.04 
L 467.636364 290.147165 
L 467.760793 290.4 
L 469.353894 293.76 
L 470.842173 297.12 
L 472.235647 300.48 
L 473.272727 303.127745 
L 476.383832 300.48 
L 478.909091 298.543146 
L 479.846772 297.12 
L 481.992191 293.76 
L 484.046446 290.4 
L 484.545455 289.561667 
L 486.598482 287.04 
L 489.347697 283.68 
L 490.181818 282.638702 
L 492.278876 280.32 
L 495.100221 276.96 
L 495.818182 276.056998 
L 498.543429 273.6 
L 501.454545 270.975428 
L 502.270266 270.24 
L 505.997102 266.88 
L 507.090909 265.893858 
L 509.723939 263.52 
L 512.727273 260.812288 
L 514.315197 260.16 
L 518.363636 258.04435 
L 522.16204 256.8 
L 524 256.197888 
L 529.636364 254.351426 
L 530.583352 253.44 
L 533.208099 250.08 
L 534.975464 246.72 
L 535.272727 246.266273 
L 540.909091 246.280656 
L 541.615309 246.72 
L 546.545455 249.971207 
L 546.708317 250.08 
L 551.738218 253.44 
L 552.181818 253.752048 
L 554.054484 256.8 
L 556.103045 260.16 
L 557.818182 262.973125 
L 559.111349 263.52 
L 563.454545 265.239291 
L 564.598589 263.52 
L 566.760407 260.16 
L 568.829615 256.8 
L 569.090909 256.365219 
L 571.183112 253.44 
L 573.586283 250.08 
L 574.727273 248.484723 
L 576.350358 246.72 
L 579.268886 243.36 
L 580.363636 242.03315 
L 582.353584 240 
L 585.642187 236.64 
L 586 236.274418 
L 588.93079 233.28 
L 591.636364 230.515687 
L 592.305806 229.92 
L 595.865446 226.56 
L 597.272727 225.134851 
L 599.742311 223.2 
L 602.909091 220.718914 
L 604.030909 219.84 
L 608.319508 216.48 
L 608.545455 216.302977 
L 612.608107 213.12 
L 614.181818 211.88704 
L 614.181818 209.76 
L 614.181818 206.4 
L 614.181818 203.04 
L 614.181818 199.68 
L 614.181818 196.32 
L 608.545455 192.96 
L 608.545455 189.6 
L 608.545455 186.24 
L 608.545455 182.88 
L 608.545455 179.52 
L 602.909091 176.16 
L 602.909091 172.8 
L 602.909091 169.44 
L 602.909091 166.08 
L 602.909091 162.72 
L 597.272727 159.36 
L 597.272727 156 
L 597.272727 152.64 
L 597.272727 149.28 
L 597.272727 145.92 
L 591.636364 142.56 
L 591.636364 139.2 
L 591.636364 135.84 
L 591.636364 132.48 
L 591.636364 129.12 
L 586 125.76 
L 586 122.4 
L 586 119.04 
L 586 115.68 
L 586 112.32 
L 580.363636 108.96 
L 580.363636 105.6 
L 580.363636 102.24 
L 580.363636 98.88 
L 580.363636 97.191773 
L 577.359966 98.88 
L 575.455977 102.24 
L 574.727273 103.492071 
L 573.683077 105.6 
L 572.018648 108.96 
L 570.354219 112.32 
L 569.090909 114.870257 
L 568.671138 115.68 
L 567.025361 119.04 
L 565.360932 122.4 
L 563.696503 125.76 
L 563.454545 126.248442 
L 563.134972 125.76 
L 560.943143 122.4 
L 558.762636 119.04 
L 557.818182 117.579259 
L 552.181818 116.297079 
L 546.545455 116.862515 
L 540.909091 117.847352 
L 537.222801 119.04 
L 535.272727 119.610439 
L 529.636364 121.845436 
L 528.237827 122.4 
L 524 124.080433 
L 519.764355 125.76 
L 518.363636 126.315429 
L 512.727273 128.550426 
L 511.290882 129.12 
L 507.090909 130.785422 
L 503.81407 132.48 
L 501.454545 133.895075 
L 500.263874 135.84 
L 498.206901 139.2 
L 496.149928 142.56 
L 495.818182 143.101896 
L 494.092955 145.92 
L 492.035982 149.28 
L 490.181818 152.308717 
L 490.009898 152.64 
L 488.221352 156 
L 486.34702 159.36 
L 484.545455 162.444483 
L 484.445137 162.72 
L 483.221736 166.08 
L 481.998335 169.44 
L 480.774934 172.8 
L 479.554859 176.16 
L 478.909091 177.92443 
L 476.926445 176.16 
L 473.32444 172.8 
L 473.272727 172.75024 
L 468.997838 169.44 
L 467.636364 168.4341 
L 462 166.458054 
L 459.167987 166.08 
L 456.363636 165.705639 
L 452.474969 166.08 
L 450.727273 166.234871 
L 445.090909 167.531985 
L 439.454545 168.829099 
L 436.799988 169.44 
L 433.818182 170.126212 
L 428.834643 172.8 
L 428.181818 173.192137 
L 426.193564 176.16 
L 423.942607 179.52 
L 422.545455 181.605527 
L 421.69165 182.88 
L 419.440692 186.24 
L 417.189735 189.6 
L 416.909091 190.018916 
L 415.454174 192.96 
L 413.718481 196.32 
L 411.898906 199.68 
L 411.272727 200.799918 
L 410.310972 203.04 
L 408.803249 206.4 
L 407.261163 209.76 
L 405.75684 213.12 
L 405.636364 213.389091 
L 404.214776 216.48 
L 402.705955 219.84 
L 401.233835 223.2 
L 400 226.080529 
L 398.130006 223.2 
L 395.898978 219.84 
L 394.363636 217.574705 
L 393.181181 216.48 
L 389.365177 213.12 
L 388.727273 212.582654 
L 383.287584 209.76 
L 383.090909 209.657946 
L 377.454545 208.809636 
L 371.818182 208.43603 
L 366.181818 208.710087 
L 363.570635 209.76 
L 360.545455 211.472042 
L 359.160243 213.12 
L 356.335953 216.48 
L 354.909091 218.177508 
L 353.511663 219.84 
L 350.687373 223.2 
L 349.272727 224.882975 
L 348.253507 226.56 
L 346.104846 229.92 
L 343.801138 233.28 
L 343.636364 233.511381 
L 341.81802 236.64 
L 339.865199 240 
L 338 243.209237 
L 337.937257 243.36 
L 336.579132 246.72 
L 335.293745 250.08 
L 334.075405 253.44 
L 332.918999 256.8 
L 332.363636 258.47672 
L 331.22932 256.8 
L 328.841482 253.44 
L 326.727273 250.642675 
L 325.815928 250.08 
L 321.090909 247.162716 
L 318.341911 250.08 
L 315.454545 252.364507 
L 314.671472 253.44 
L 312.225035 256.8 
L 309.818182 260.105634 
L 308.112606 256.8 
L 306.134682 253.44 
L 304.181818 250.532951 
L 302.43125 250.08 
L 298.545455 248.465331 
L 296.859175 250.08 
L 293.35016 253.44 
L 292.909091 253.862338 
L 289.841144 256.8 
L 287.272727 259.259346 
L 286.622405 260.16 
L 284.030498 263.52 
L 281.636364 266.332076 
L 281.240556 266.88 
L 278.813368 270.24 
L 276.38618 273.6 
L 276 274.134596 
L 274.692025 276.96 
L 273.009151 280.32 
L 271.169535 283.68 
L 270.363636 285.059558 
L 269.775189 287.04 
L 268.74253 290.4 
L 267.664232 293.76 
L 266.537203 297.12 
L 265.358062 300.48 
L 264.727273 302.215856 
L 264.013777 303.84 
L 262.499676 307.2 
L 260.932047 310.56 
L 259.308 313.92 
L 259.090909 314.36016 
L 258.932563 313.92 
L 257.716007 310.56 
L 256.485478 307.2 
L 255.240733 303.84 
L 253.981525 300.48 
L 253.454545 299.085333 
L 252.432698 297.12 
L 250.685714 293.76 
L 248.938729 290.4 
L 247.818182 288.244836 
L 245.709718 287.04 
L 242.181818 284.003109 
L 238.410031 287.04 
L 236.545455 288.541282 
L 234.236946 290.4 
L 230.909091 293.079455 
L 230.274926 293.76 
L 226.817343 297.12 
L 225.272727 298.453669 
L 223.478378 300.48 
L 220.503042 303.84 
L 219.636364 304.818727 
L 217.877385 307.2 
L 215.114321 310.56 
L 214 311.799736 
L 212.991224 313.92 
L 211.309882 317.28 
L 209.448434 320.64 
L 208.363636 322.352138 
L 207.758589 324 
L 206.497744 327.36 
L 205.220119 330.72 
L 203.906977 334.08 
L 202.727273 336.848775 
L 200.520996 334.08 
L 197.847436 330.72 
L 197.090909 329.768276 
L 195.376712 327.36 
L 193.526922 324 
L 192.10844 320.64 
L 191.454545 319.394393 
L 188.900607 320.64 
L 185.818182 322.893191 
L 184.304038 324 
L 180.181818 327.013261 
L 179.741988 327.36 
L 175.110901 330.72 
L 174.545455 331.13333 
L 171.416474 334.08 
L 168.909091 336.088692 
L 167.456607 337.44 
L 163.845035 340.8 
L 163.272727 341.332443 
L 160.521687 344.16 
L 157.636364 346.749724 
L 157.188452 347.52 
L 155.202169 350.88 
L 152.710655 354.24 
L 152 355.055447 
L 149.565351 357.6 
L 146.363636 360.811002 
L 141.77722 357.6 
L 140.727273 356.381777 
L 139.194415 357.6 
L 135.090909 360.861218 
L 134.966614 360.96 
L 130.738813 364.32 
L 129.454545 365.340658 
L 126.511012 367.68 
L 123.818182 369.820099 
L 122.283212 371.04 
L 118.181818 374.299539 
L 118.055411 374.4 
L 113.82761 377.76 
L 112.545455 378.778979 
L 109.599809 381.12 
L 106.909091 383.25842 
L 105.372008 384.48 
z
" clip-path="url(#pd638213bd0)" style="fill: #33638d"/>
    <path d="M 106.909091 383.25842 
L 109.599809 381.12 
L 112.545455 378.778979 
L 113.82761 377.76 
L 118.055411 374.4 
L 118.181818 374.299539 
L 122.283212 371.04 
L 123.818182 369.820099 
L 126.511012 367.68 
L 129.454545 365.340658 
L 130.738813 364.32 
L 134.966614 360.96 
L 135.090909 360.861218 
L 139.194415 357.6 
L 140.727273 356.381777 
L 141.77722 357.6 
L 146.363636 360.811002 
L 149.565351 357.6 
L 152 355.055447 
L 152.710655 354.24 
L 155.202169 350.88 
L 157.188452 347.52 
L 157.636364 346.749724 
L 160.521687 344.16 
L 163.272727 341.332443 
L 163.845035 340.8 
L 167.456607 337.44 
L 168.909091 336.088692 
L 171.416474 334.08 
L 174.545455 331.13333 
L 175.110901 330.72 
L 179.741988 327.36 
L 180.181818 327.013261 
L 184.304038 324 
L 185.818182 322.893191 
L 188.900607 320.64 
L 191.454545 319.394393 
L 192.10844 320.64 
L 193.526922 324 
L 195.376712 327.36 
L 197.090909 329.768276 
L 197.847436 330.72 
L 200.520996 334.08 
L 202.727273 336.848775 
L 203.906977 334.08 
L 205.220119 330.72 
L 206.497744 327.36 
L 207.758589 324 
L 208.363636 322.352138 
L 209.448434 320.64 
L 211.309882 317.28 
L 212.991224 313.92 
L 214 311.799736 
L 215.114321 310.56 
L 217.877385 307.2 
L 219.636364 304.818727 
L 220.503042 303.84 
L 223.478378 300.48 
L 225.272727 298.453669 
L 226.817343 297.12 
L 230.274926 293.76 
L 230.909091 293.079455 
L 234.236946 290.4 
L 236.545455 288.541282 
L 238.410031 287.04 
L 242.181818 284.003109 
L 245.709718 287.04 
L 247.818182 288.244836 
L 248.938729 290.4 
L 250.685714 293.76 
L 252.432698 297.12 
L 253.454545 299.085333 
L 253.981525 300.48 
L 255.240733 303.84 
L 256.485478 307.2 
L 257.716007 310.56 
L 258.932563 313.92 
L 259.090909 314.36016 
L 259.308 313.92 
L 260.932047 310.56 
L 262.499676 307.2 
L 264.013777 303.84 
L 264.727273 302.215856 
L 265.358062 300.48 
L 266.537203 297.12 
L 267.664232 293.76 
L 268.74253 290.4 
L 269.775189 287.04 
L 270.363636 285.059558 
L 271.169535 283.68 
L 273.009151 280.32 
L 274.692025 276.96 
L 276 274.134596 
L 276.38618 273.6 
L 278.813368 270.24 
L 281.240556 266.88 
L 281.636364 266.332076 
L 284.030498 263.52 
L 286.622405 260.16 
L 287.272727 259.259346 
L 289.841144 256.8 
L 292.909091 253.862338 
L 293.35016 253.44 
L 296.859175 250.08 
L 298.545455 248.465331 
L 302.43125 250.08 
L 304.181818 250.532951 
L 306.134682 253.44 
L 308.112606 256.8 
L 309.818182 260.105634 
L 312.225035 256.8 
L 314.671472 253.44 
L 315.454545 252.364507 
L 318.341911 250.08 
L 321.090909 247.162716 
L 325.815928 250.08 
L 326.727273 250.642675 
L 328.841482 253.44 
L 331.22932 256.8 
L 332.363636 258.47672 
L 332.918999 256.8 
L 334.075405 253.44 
L 335.293745 250.08 
L 336.579132 246.72 
L 337.937257 243.36 
L 338 243.209237 
L 339.865199 240 
L 341.81802 236.64 
L 343.636364 233.511381 
L 343.801138 233.28 
L 346.104846 229.92 
L 348.253507 226.56 
L 349.272727 224.882975 
L 350.687373 223.2 
L 353.511663 219.84 
L 354.909091 218.177508 
L 356.335953 216.48 
L 359.160243 213.12 
L 360.545455 211.472042 
L 363.570635 209.76 
L 366.181818 208.710087 
L 371.818182 208.43603 
L 377.454545 208.809636 
L 383.090909 209.657946 
L 383.287584 209.76 
L 388.727273 212.582654 
L 389.365177 213.12 
L 393.181181 216.48 
L 394.363636 217.574705 
L 395.898978 219.84 
L 398.130006 223.2 
L 400 226.080529 
L 401.233835 223.2 
L 402.705955 219.84 
L 404.214776 216.48 
L 405.636364 213.389091 
L 405.75684 213.12 
L 407.261163 209.76 
L 408.803249 206.4 
L 410.310972 203.04 
L 411.272727 200.799918 
L 411.898906 199.68 
L 413.718481 196.32 
L 415.454174 192.96 
L 416.909091 190.018916 
L 417.189735 189.6 
L 419.440692 186.24 
L 421.69165 182.88 
L 422.545455 181.605527 
L 423.942607 179.52 
L 426.193564 176.16 
L 428.181818 173.192137 
L 428.834643 172.8 
L 433.818182 170.126212 
L 436.799988 169.44 
L 439.454545 168.829099 
L 445.090909 167.531985 
L 450.727273 166.234871 
L 452.474969 166.08 
L 456.363636 165.705639 
L 459.167987 166.08 
L 462 166.458054 
L 467.636364 168.4341 
L 468.997838 169.44 
L 473.272727 172.75024 
L 473.32444 172.8 
L 476.926445 176.16 
L 478.909091 177.92443 
L 479.554859 176.16 
L 480.774934 172.8 
L 481.998335 169.44 
L 483.221736 166.08 
L 484.445137 162.72 
L 484.545455 162.444483 
L 486.34702 159.36 
L 488.221352 156 
L 490.009898 152.64 
L 490.181818 152.308717 
L 492.035982 149.28 
L 494.092955 145.92 
L 495.818182 143.101896 
L 496.149928 142.56 
L 498.206901 139.2 
L 500.263874 135.84 
L 501.454545 133.895075 
L 503.81407 132.48 
L 507.090909 130.785422 
L 511.290882 129.12 
L 512.727273 128.550426 
L 518.363636 126.315429 
L 519.764355 125.76 
L 524 124.080433 
L 528.237827 122.4 
L 529.636364 121.845436 
L 535.272727 119.610439 
L 537.222801 119.04 
L 540.909091 117.847352 
L 546.545455 116.862515 
L 552.181818 116.297079 
L 557.818182 117.579259 
L 558.762636 119.04 
L 560.943143 122.4 
L 563.134972 125.76 
L 563.454545 126.248442 
L 563.696503 125.76 
L 565.360932 122.4 
L 567.025361 119.04 
L 568.671138 115.68 
L 569.090909 114.870257 
L 570.354219 112.32 
L 572.018648 108.96 
L 573.683077 105.6 
L 574.727273 103.492071 
L 575.455977 102.24 
L 577.359966 98.88 
L 580.363636 97.191773 
L 580.363636 95.52 
L 574.727273 92.16 
L 574.727273 88.8 
L 574.727273 85.44 
L 574.727273 82.08 
L 569.090909 78.72 
L 569.090909 75.36 
L 569.090909 72 
L 569.090909 68.64 
L 569.090909 65.28 
L 563.454545 61.92 
L 563.454545 58.56 
L 563.454545 55.2 
L 563.454545 51.84 
L 557.818182 51.84 
L 552.181818 51.84 
L 546.545455 51.84 
L 540.909091 51.84 
L 535.272727 51.84 
L 529.636364 51.84 
L 524 51.84 
L 518.363636 51.84 
L 512.727273 51.84 
L 507.090909 51.84 
L 501.454545 51.84 
L 495.818182 51.84 
L 490.181818 51.84 
L 485.948066 51.84 
L 484.545455 52.628122 
L 480.100377 55.2 
L 478.909091 56.042065 
L 474.005159 58.56 
L 473.272727 58.835634 
L 468.322658 61.92 
L 467.636364 62.323286 
L 462.879443 65.28 
L 462 65.826627 
L 457.473695 68.64 
L 456.363636 69.329969 
L 452.067946 72 
L 450.727273 72.83331 
L 446.662198 75.36 
L 445.090909 76.336651 
L 441.25645 78.72 
L 439.454545 79.839993 
L 435.850701 82.08 
L 433.818182 83.343334 
L 430.444953 85.44 
L 428.181818 86.846675 
L 425.039205 88.8 
L 422.545455 90.350017 
L 419.633456 92.16 
L 416.909091 93.853358 
L 411.272727 94.784179 
L 410.952815 95.52 
L 409.89711 98.88 
L 409.071569 102.24 
L 408.221351 105.6 
L 407.345332 108.96 
L 406.442322 112.32 
L 405.636364 115.233916 
L 400 114.987628 
L 394.363636 113.057277 
L 388.727273 114.374463 
L 387.111242 115.68 
L 383.090909 118.927893 
L 382.952139 119.04 
L 378.793036 122.4 
L 377.454545 123.481322 
L 374.633933 125.76 
L 371.818182 128.034751 
L 370.47483 129.12 
L 366.315727 132.48 
L 366.181818 132.58818 
L 362.156624 135.84 
L 360.545455 137.141609 
L 357.915408 139.2 
L 354.909091 141.068035 
L 352.836891 139.2 
L 349.272727 135.853209 
L 343.636364 138.163361 
L 343.244263 139.2 
L 342.055126 142.56 
L 340.977434 145.92 
L 339.99622 149.28 
L 339.099084 152.64 
L 338.049595 156 
L 338 156.158341 
L 337.75926 156 
L 332.363636 152.808497 
L 330.046084 156 
L 327.702568 159.36 
L 326.727273 160.548832 
L 325.146432 162.72 
L 322.699995 166.08 
L 321.090909 168.28996 
L 320.253557 169.44 
L 317.80712 172.8 
L 315.454545 176.031087 
L 315.360683 176.16 
L 312.914246 179.52 
L 310.467809 182.88 
L 309.818182 183.772215 
L 306.576384 186.24 
L 304.181818 187.739504 
L 303.079531 186.24 
L 300.651872 182.88 
L 298.545455 179.898709 
L 298.07362 179.52 
L 293.860664 176.16 
L 292.909091 175.406385 
L 287.645885 172.8 
L 287.272727 172.615209 
L 287.12326 172.8 
L 284.63393 176.16 
L 282.511916 179.52 
L 281.636364 181.067644 
L 280.979144 182.88 
L 279.710969 186.24 
L 278.373719 189.6 
L 276.961593 192.96 
L 276 195.145168 
L 275.64516 196.32 
L 274.630323 199.68 
L 273.615487 203.04 
L 272.624736 206.4 
L 271.623441 209.76 
L 270.581679 213.12 
L 270.363636 213.806479 
L 269.55614 216.48 
L 268.541303 219.84 
L 267.526467 223.2 
L 266.51163 226.56 
L 265.496794 229.92 
L 264.727273 232.467789 
L 264.464631 233.28 
L 263.360948 236.64 
L 262.228809 240 
L 261.067099 243.36 
L 259.874644 246.72 
L 259.090909 248.880956 
L 258.213924 246.72 
L 256.835885 243.36 
L 255.439963 240 
L 254.025809 236.64 
L 253.454545 235.295023 
L 252.305302 233.28 
L 250.366951 229.92 
L 248.400555 226.56 
L 247.818182 225.574137 
L 245.677624 223.2 
L 242.643714 219.84 
L 242.181818 219.328969 
L 239.365096 216.48 
L 236.545455 213.630561 
L 235.64872 213.12 
L 230.909091 209.932041 
L 229.00018 213.12 
L 226.988253 216.48 
L 225.272727 219.344997 
L 225.04655 219.84 
L 223.434439 223.2 
L 221.675234 226.56 
L 219.74784 229.92 
L 219.636364 230.104981 
L 218.376803 233.28 
L 217.043859 236.64 
L 215.729031 240 
L 214.394519 243.36 
L 214 244.312764 
L 213.045026 246.72 
L 211.712082 250.08 
L 210.379138 253.44 
L 209.046194 256.8 
L 208.363636 258.520548 
L 207.892051 260.16 
L 206.908973 263.52 
L 205.902958 266.88 
L 204.873197 270.24 
L 203.818837 273.6 
L 202.738986 276.96 
L 202.727273 276.996007 
L 202.698959 276.96 
L 200.058881 273.6 
L 197.422886 270.24 
L 197.090909 269.816473 
L 195.457264 266.88 
L 193.580528 263.52 
L 191.695771 260.16 
L 191.454545 259.730995 
L 189.304662 256.8 
L 186.871795 253.44 
L 185.818182 251.970404 
L 182.619587 250.08 
L 180.181818 248.431957 
L 178.893911 250.08 
L 176.274464 253.44 
L 174.545455 255.657824 
L 173.826719 256.8 
L 171.502224 260.16 
L 168.909091 263.399884 
L 168.847624 263.52 
L 167.166547 266.88 
L 165.538559 270.24 
L 163.738095 273.6 
L 163.272727 274.414185 
L 161.969954 276.96 
L 160.250536 280.32 
L 158.531119 283.68 
L 157.636364 285.428486 
L 156.811701 287.04 
L 155.092284 290.4 
L 153.372866 293.76 
L 152 296.442787 
L 151.547646 297.12 
L 149.25729 300.48 
L 146.887443 303.84 
L 146.363636 304.56725 
L 146.050674 303.84 
L 144.620678 300.48 
L 143.216361 297.12 
L 141.837038 293.76 
L 140.727273 291.012517 
L 140.114743 290.4 
L 136.657508 287.04 
L 135.090909 285.56972 
L 133.074118 287.04 
L 129.454545 290.203974 
L 129.260878 290.4 
L 125.941314 293.76 
L 123.818182 295.908994 
L 123.097386 297.12 
L 120.823918 300.48 
L 118.181818 303.68745 
L 118.086121 303.84 
L 115.978352 307.2 
L 113.870582 310.56 
L 112.545455 312.672389 
L 111.762813 313.92 
L 109.655043 317.28 
L 107.547273 320.64 
L 106.909091 321.657328 
L 104.836225 324 
L 102.097956 327.36 
L 101.272727 328.437859 
L 99.837764 327.36 
L 95.636364 324.338549 
L 95.636364 327.36 
L 95.636364 330.72 
L 95.636364 334.08 
L 95.636364 337.44 
L 95.636364 340.8 
L 95.636364 344.16 
L 95.636364 347.52 
L 95.636364 350.88 
L 101.272727 354.24 
L 101.272727 357.6 
L 101.272727 360.96 
L 101.272727 364.32 
L 101.272727 367.68 
L 101.272727 371.04 
L 101.272727 374.4 
L 101.272727 377.76 
L 101.272727 381.12 
L 101.272727 384.48 
L 105.372008 384.48 
z
" clip-path="url(#pd638213bd0)" style="fill: #26828e"/>
    <path d="M 101.272727 328.437859 
L 102.097956 327.36 
L 104.836225 324 
L 106.909091 321.657328 
L 107.547273 320.64 
L 109.655043 317.28 
L 111.762813 313.92 
L 112.545455 312.672389 
L 113.870582 310.56 
L 115.978352 307.2 
L 118.086121 303.84 
L 118.181818 303.68745 
L 120.823918 300.48 
L 123.097386 297.12 
L 123.818182 295.908994 
L 125.941314 293.76 
L 129.260878 290.4 
L 129.454545 290.203974 
L 133.074118 287.04 
L 135.090909 285.56972 
L 136.657508 287.04 
L 140.114743 290.4 
L 140.727273 291.012517 
L 141.837038 293.76 
L 143.216361 297.12 
L 144.620678 300.48 
L 146.050674 303.84 
L 146.363636 304.56725 
L 146.887443 303.84 
L 149.25729 300.48 
L 151.547646 297.12 
L 152 296.442787 
L 153.372866 293.76 
L 155.092284 290.4 
L 156.811701 287.04 
L 157.636364 285.428486 
L 158.531119 283.68 
L 160.250536 280.32 
L 161.969954 276.96 
L 163.272727 274.414185 
L 163.738095 273.6 
L 165.538559 270.24 
L 167.166547 266.88 
L 168.847624 263.52 
L 168.909091 263.399884 
L 171.502224 260.16 
L 173.826719 256.8 
L 174.545455 255.657824 
L 176.274464 253.44 
L 178.893911 250.08 
L 180.181818 248.431957 
L 182.619587 250.08 
L 185.818182 251.970404 
L 186.871795 253.44 
L 189.304662 256.8 
L 191.454545 259.730995 
L 191.695771 260.16 
L 193.580528 263.52 
L 195.457264 266.88 
L 197.090909 269.816473 
L 197.422886 270.24 
L 200.058881 273.6 
L 202.698959 276.96 
L 202.727273 276.996007 
L 202.738986 276.96 
L 203.818837 273.6 
L 204.873197 270.24 
L 205.902958 266.88 
L 206.908973 263.52 
L 207.892051 260.16 
L 208.363636 258.520548 
L 209.046194 256.8 
L 210.379138 253.44 
L 211.712082 250.08 
L 213.045026 246.72 
L 214 244.312764 
L 214.394519 243.36 
L 215.729031 240 
L 217.043859 236.64 
L 218.376803 233.28 
L 219.636364 230.104981 
L 219.74784 229.92 
L 221.675234 226.56 
L 223.434439 223.2 
L 225.04655 219.84 
L 225.272727 219.344997 
L 226.988253 216.48 
L 229.00018 213.12 
L 230.909091 209.932041 
L 235.64872 213.12 
L 236.545455 213.630561 
L 239.365096 216.48 
L 242.181818 219.328969 
L 242.643714 219.84 
L 245.677624 223.2 
L 247.818182 225.574137 
L 248.400555 226.56 
L 250.366951 229.92 
L 252.305302 233.28 
L 253.454545 235.295023 
L 254.025809 236.64 
L 255.439963 240 
L 256.835885 243.36 
L 258.213924 246.72 
L 259.090909 248.880956 
L 259.874644 246.72 
L 261.067099 243.36 
L 262.228809 240 
L 263.360948 236.64 
L 264.464631 233.28 
L 264.727273 232.467789 
L 265.496794 229.92 
L 266.51163 226.56 
L 267.526467 223.2 
L 268.541303 219.84 
L 269.55614 216.48 
L 270.363636 213.806479 
L 270.581679 213.12 
L 271.623441 209.76 
L 272.624736 206.4 
L 273.615487 203.04 
L 274.630323 199.68 
L 275.64516 196.32 
L 276 195.145168 
L 276.961593 192.96 
L 278.373719 189.6 
L 279.710969 186.24 
L 280.979144 182.88 
L 281.636364 181.067644 
L 282.511916 179.52 
L 284.63393 176.16 
L 287.12326 172.8 
L 287.272727 172.615209 
L 287.645885 172.8 
L 292.909091 175.406385 
L 293.860664 176.16 
L 298.07362 179.52 
L 298.545455 179.898709 
L 300.651872 182.88 
L 303.079531 186.24 
L 304.181818 187.739504 
L 306.576384 186.24 
L 309.818182 183.772215 
L 310.467809 182.88 
L 312.914246 179.52 
L 315.360683 176.16 
L 315.454545 176.031087 
L 317.80712 172.8 
L 320.253557 169.44 
L 321.090909 168.28996 
L 322.699995 166.08 
L 325.146432 162.72 
L 326.727273 160.548832 
L 327.702568 159.36 
L 330.046084 156 
L 332.363636 152.808497 
L 337.75926 156 
L 338 156.158341 
L 338.049595 156 
L 339.099084 152.64 
L 339.99622 149.28 
L 340.977434 145.92 
L 342.055126 142.56 
L 343.244263 139.2 
L 343.636364 138.163361 
L 349.272727 135.853209 
L 352.836891 139.2 
L 354.909091 141.068035 
L 357.915408 139.2 
L 360.545455 137.141609 
L 362.156624 135.84 
L 366.181818 132.58818 
L 366.315727 132.48 
L 370.47483 129.12 
L 371.818182 128.034751 
L 374.633933 125.76 
L 377.454545 123.481322 
L 378.793036 122.4 
L 382.952139 119.04 
L 383.090909 118.927893 
L 387.111242 115.68 
L 388.727273 114.374463 
L 394.363636 113.057277 
L 400 114.987628 
L 405.636364 115.233916 
L 406.442322 112.32 
L 407.345332 108.96 
L 408.221351 105.6 
L 409.071569 102.24 
L 409.89711 98.88 
L 410.952815 95.52 
L 411.272727 94.784179 
L 416.909091 93.853358 
L 419.633456 92.16 
L 422.545455 90.350017 
L 425.039205 88.8 
L 428.181818 86.846675 
L 430.444953 85.44 
L 433.818182 83.343334 
L 435.850701 82.08 
L 439.454545 79.839993 
L 441.25645 78.72 
L 445.090909 76.336651 
L 446.662198 75.36 
L 450.727273 72.83331 
L 452.067946 72 
L 456.363636 69.329969 
L 457.473695 68.64 
L 462 65.826627 
L 462.879443 65.28 
L 467.636364 62.323286 
L 468.322658 61.92 
L 473.272727 58.835634 
L 474.005159 58.56 
L 478.909091 56.042065 
L 480.100377 55.2 
L 484.545455 52.628122 
L 485.948066 51.84 
L 484.545455 51.84 
L 478.909091 51.84 
L 473.272727 51.84 
L 467.636364 51.84 
L 462 51.84 
L 456.363636 51.84 
L 450.727273 51.84 
L 445.090909 51.84 
L 439.454545 51.84 
L 433.818182 51.84 
L 428.181818 51.84 
L 422.545455 51.84 
L 416.909091 51.84 
L 411.272727 51.84 
L 405.636364 51.84 
L 400 51.84 
L 394.363636 51.84 
L 388.727273 51.84 
L 383.090909 51.84 
L 377.454545 51.84 
L 371.90835 51.84 
L 371.818182 51.912844 
L 367.749247 55.2 
L 366.181818 56.466273 
L 363.590144 58.56 
L 360.545455 61.019702 
L 359.431041 61.92 
L 355.271938 65.28 
L 354.909091 65.573132 
L 351.112834 68.64 
L 349.272727 70.126561 
L 343.636364 70.030044 
L 340.956937 72 
L 338 73.993673 
L 336.323528 75.36 
L 332.363636 78.587317 
L 332.200835 78.72 
L 328.513684 82.08 
L 326.727273 84.215413 
L 325.835643 85.44 
L 323.389206 88.8 
L 321.090909 91.95654 
L 320.942769 92.16 
L 318.496331 95.52 
L 316.049894 98.88 
L 315.454545 99.697668 
L 313.603457 102.24 
L 311.15702 105.6 
L 309.818182 107.438795 
L 308.710583 108.96 
L 306.264146 112.32 
L 304.181818 115.179922 
L 298.545455 115.340671 
L 294.297161 112.32 
L 292.909091 111.340564 
L 287.272727 110.753347 
L 282.237499 112.32 
L 281.636364 112.486913 
L 279.974787 115.68 
L 278.438557 119.04 
L 277.082323 122.4 
L 276 125.397102 
L 275.890392 125.76 
L 274.875555 129.12 
L 273.860719 132.48 
L 272.845882 135.84 
L 271.831046 139.2 
L 270.816209 142.56 
L 270.363636 144.058412 
L 269.801372 145.92 
L 268.786536 149.28 
L 267.771699 152.64 
L 266.756862 156 
L 265.742026 159.36 
L 264.727273 162.719723 
L 264.727202 162.72 
L 263.858927 166.08 
L 262.973036 169.44 
L 262.068985 172.8 
L 261.146212 176.16 
L 260.204128 179.52 
L 259.24212 182.88 
L 259.090909 183.401751 
L 258.849826 182.88 
L 257.284111 179.52 
L 255.695222 176.16 
L 254.082639 172.8 
L 253.454545 171.504714 
L 252.092411 169.44 
L 249.845985 166.08 
L 247.818182 163.094245 
L 247.476608 162.72 
L 244.409932 159.36 
L 242.181818 156.918769 
L 241.261185 156 
L 237.887999 152.64 
L 236.545455 151.305476 
L 230.909091 150.158981 
L 227.349537 152.64 
L 225.272727 153.98222 
L 224.235899 156 
L 222.614186 159.36 
L 221.110994 162.72 
L 219.71379 166.08 
L 219.636364 166.27339 
L 218.380139 169.44 
L 217.047195 172.8 
L 215.714251 176.16 
L 214.381307 179.52 
L 214 180.481174 
L 213.048363 182.88 
L 211.715419 186.24 
L 210.382474 189.6 
L 209.04953 192.96 
L 208.363636 194.688958 
L 207.977994 196.32 
L 207.172397 199.68 
L 206.351415 203.04 
L 205.514604 206.4 
L 204.6615 209.76 
L 203.791624 213.12 
L 202.904475 216.48 
L 202.727273 217.143239 
L 202.212903 216.48 
L 199.609462 213.12 
L 197.090909 209.86467 
L 197.030925 209.76 
L 195.105309 206.4 
L 193.179576 203.04 
L 191.454545 200.030358 
L 191.222437 199.68 
L 189.005743 196.32 
L 186.805712 192.96 
L 185.818182 191.443535 
L 180.4864 189.6 
L 180.181818 189.497204 
L 180.057038 189.6 
L 175.889001 192.96 
L 174.545455 194.013429 
L 173.319254 196.32 
L 171.552238 199.68 
L 169.807606 203.04 
L 168.909091 204.787224 
L 168.083783 206.4 
L 166.364365 209.76 
L 164.644948 213.12 
L 163.272727 215.801525 
L 162.92553 216.48 
L 161.206113 219.84 
L 159.486695 223.2 
L 157.767278 226.56 
L 157.636364 226.815826 
L 156.011472 229.92 
L 154.257744 233.28 
L 152.509269 236.64 
L 152 237.620546 
L 150.710217 240 
L 148.888928 243.36 
L 147.06764 246.72 
L 146.363636 248.01878 
L 145.846051 246.72 
L 144.487946 243.36 
L 143.101622 240 
L 141.68619 236.64 
L 140.727273 234.403084 
L 139.674004 233.28 
L 136.560324 229.92 
L 135.090909 228.313275 
L 132.400613 229.92 
L 129.454545 231.61619 
L 128.506736 233.28 
L 126.558362 236.64 
L 124.562705 240 
L 123.818182 241.232979 
L 122.483875 243.36 
L 120.376106 246.72 
L 118.268336 250.08 
L 118.181818 250.217918 
L 116.160566 253.44 
L 114.052797 256.8 
L 112.545455 259.202857 
L 111.945027 260.16 
L 109.837258 263.52 
L 107.729488 266.88 
L 106.909091 268.187797 
L 101.272727 269.517823 
L 95.636364 267.927646 
L 95.636364 270.24 
L 95.636364 273.6 
L 95.636364 276.96 
L 95.636364 280.32 
L 95.636364 283.68 
L 95.636364 287.04 
L 95.636364 290.4 
L 95.636364 293.76 
L 95.636364 297.12 
L 95.636364 300.48 
L 95.636364 303.84 
L 95.636364 307.2 
L 95.636364 310.56 
L 95.636364 313.92 
L 95.636364 317.28 
L 95.636364 320.64 
L 95.636364 324 
L 95.636364 324.338549 
L 99.837764 327.36 
z
" clip-path="url(#pd638213bd0)" style="fill: #1fa088"/>
    <path d="M 101.272727 269.517823 
L 106.909091 268.187797 
L 107.729488 266.88 
L 109.837258 263.52 
L 111.945027 260.16 
L 112.545455 259.202857 
L 114.052797 256.8 
L 116.160566 253.44 
L 118.181818 250.217918 
L 118.268336 250.08 
L 120.376106 246.72 
L 122.483875 243.36 
L 123.818182 241.232979 
L 124.562705 240 
L 126.558362 236.64 
L 128.506736 233.28 
L 129.454545 231.61619 
L 132.400613 229.92 
L 135.090909 228.313275 
L 136.560324 229.92 
L 139.674004 233.28 
L 140.727273 234.403084 
L 141.68619 236.64 
L 143.101622 240 
L 144.487946 243.36 
L 145.846051 246.72 
L 146.363636 248.01878 
L 147.06764 246.72 
L 148.888928 243.36 
L 150.710217 240 
L 152 237.620546 
L 152.509269 236.64 
L 154.257744 233.28 
L 156.011472 229.92 
L 157.636364 226.815826 
L 157.767278 226.56 
L 159.486695 223.2 
L 161.206113 219.84 
L 162.92553 216.48 
L 163.272727 215.801525 
L 164.644948 213.12 
L 166.364365 209.76 
L 168.083783 206.4 
L 168.909091 204.787224 
L 169.807606 203.04 
L 171.552238 199.68 
L 173.319254 196.32 
L 174.545455 194.013429 
L 175.889001 192.96 
L 180.057038 189.6 
L 180.181818 189.497204 
L 180.4864 189.6 
L 185.818182 191.443535 
L 186.805712 192.96 
L 189.005743 196.32 
L 191.222437 199.68 
L 191.454545 200.030358 
L 193.179576 203.04 
L 195.105309 206.4 
L 197.030925 209.76 
L 197.090909 209.86467 
L 199.609462 213.12 
L 202.212903 216.48 
L 202.727273 217.143239 
L 202.904475 216.48 
L 203.791624 213.12 
L 204.6615 209.76 
L 205.514604 206.4 
L 206.351415 203.04 
L 207.172397 199.68 
L 207.977994 196.32 
L 208.363636 194.688958 
L 209.04953 192.96 
L 210.382474 189.6 
L 211.715419 186.24 
L 213.048363 182.88 
L 214 180.481174 
L 214.381307 179.52 
L 215.714251 176.16 
L 217.047195 172.8 
L 218.380139 169.44 
L 219.636364 166.27339 
L 219.71379 166.08 
L 221.110994 162.72 
L 222.614186 159.36 
L 224.235899 156 
L 225.272727 153.98222 
L 227.349537 152.64 
L 230.909091 150.158981 
L 236.545455 151.305476 
L 237.887999 152.64 
L 241.261185 156 
L 242.181818 156.918769 
L 244.409932 159.36 
L 247.476608 162.72 
L 247.818182 163.094245 
L 249.845985 166.08 
L 252.092411 169.44 
L 253.454545 171.504714 
L 254.082639 172.8 
L 255.695222 176.16 
L 257.284111 179.52 
L 258.849826 182.88 
L 259.090909 183.401751 
L 259.24212 182.88 
L 260.204128 179.52 
L 261.146212 176.16 
L 262.068985 172.8 
L 262.973036 169.44 
L 263.858927 166.08 
L 264.727202 162.72 
L 264.727273 162.719723 
L 265.742026 159.36 
L 266.756862 156 
L 267.771699 152.64 
L 268.786536 149.28 
L 269.801372 145.92 
L 270.363636 144.058412 
L 270.816209 142.56 
L 271.831046 139.2 
L 272.845882 135.84 
L 273.860719 132.48 
L 274.875555 129.12 
L 275.890392 125.76 
L 276 125.397102 
L 277.082323 122.4 
L 278.438557 119.04 
L 279.974787 115.68 
L 281.636364 112.486913 
L 282.237499 112.32 
L 287.272727 110.753347 
L 292.909091 111.340564 
L 294.297161 112.32 
L 298.545455 115.340671 
L 304.181818 115.179922 
L 306.264146 112.32 
L 308.710583 108.96 
L 309.818182 107.438795 
L 311.15702 105.6 
L 313.603457 102.24 
L 315.454545 99.697668 
L 316.049894 98.88 
L 318.496331 95.52 
L 320.942769 92.16 
L 321.090909 91.95654 
L 323.389206 88.8 
L 325.835643 85.44 
L 326.727273 84.215413 
L 328.513684 82.08 
L 332.200835 78.72 
L 332.363636 78.587317 
L 336.323528 75.36 
L 338 73.993673 
L 340.956937 72 
L 343.636364 70.030044 
L 349.272727 70.126561 
L 351.112834 68.64 
L 354.909091 65.573132 
L 355.271938 65.28 
L 359.431041 61.92 
L 360.545455 61.019702 
L 363.590144 58.56 
L 366.181818 56.466273 
L 367.749247 55.2 
L 371.818182 51.912844 
L 371.90835 51.84 
L 371.818182 51.84 
L 366.181818 51.84 
L 360.545455 51.84 
L 354.909091 51.84 
L 349.272727 51.84 
L 343.636364 51.84 
L 338 51.84 
L 332.363636 51.84 
L 326.727273 51.84 
L 321.090909 51.84 
L 315.454545 51.84 
L 309.818182 51.84 
L 304.181818 51.84 
L 298.545455 51.84 
L 294.909605 51.84 
L 292.909091 53.402524 
L 290.762483 55.2 
L 287.272727 58.122168 
L 286.749853 58.56 
L 282.737224 61.92 
L 281.636364 62.841812 
L 278.724594 65.28 
L 276 67.561456 
L 274.963867 68.64 
L 272.11782 72 
L 270.363636 74.506055 
L 270.274643 75.36 
L 269.988534 78.72 
L 269.700529 82.08 
L 269.410608 85.44 
L 269.118754 88.8 
L 268.824945 92.16 
L 268.529164 95.52 
L 268.231389 98.88 
L 267.9316 102.24 
L 267.629777 105.6 
L 267.325899 108.96 
L 267.019946 112.32 
L 266.711895 115.68 
L 266.401726 119.04 
L 266.089415 122.4 
L 265.774942 125.76 
L 264.727273 126.90373 
L 261.37465 125.76 
L 260.332154 122.4 
L 259.27957 119.04 
L 259.090909 118.441183 
L 257.640148 115.68 
L 255.87467 112.32 
L 254.109093 108.96 
L 253.454545 107.714404 
L 251.800391 105.6 
L 249.129468 102.24 
L 247.818182 100.614354 
L 246.235235 98.88 
L 243.16856 95.52 
L 242.181818 94.438878 
L 236.545455 93.81188 
L 234.428322 95.52 
L 230.909091 98.717579 
L 230.730331 98.88 
L 227.032341 102.24 
L 225.272727 103.838788 
L 223.33435 105.6 
L 219.636364 108.959997 
L 219.63636 108.96 
L 216.820338 112.32 
L 214.524233 115.68 
L 214 116.649584 
L 213.092602 119.04 
L 211.783814 122.4 
L 210.434429 125.76 
L 209.052867 129.12 
L 208.363636 130.857367 
L 208.037961 132.48 
L 207.355565 135.84 
L 206.662138 139.2 
L 205.95741 142.56 
L 205.241103 145.92 
L 204.51293 149.28 
L 203.772593 152.64 
L 203.019784 156 
L 202.727273 157.290471 
L 201.74003 156 
L 199.172222 152.64 
L 197.090909 149.912867 
L 196.728026 149.28 
L 194.801346 145.92 
L 192.87455 142.56 
L 191.454545 140.083889 
L 190.893916 139.2 
L 188.599772 135.84 
L 185.818182 133.339444 
L 182.64791 135.84 
L 180.181818 138.26369 
L 179.229128 139.2 
L 175.810345 142.56 
L 174.545455 143.803142 
L 172.391563 145.92 
L 168.97278 149.28 
L 168.909091 149.342594 
L 166.208788 152.64 
L 163.971688 156 
L 163.272727 157.210668 
L 162.161689 159.36 
L 160.442272 162.72 
L 158.722854 166.08 
L 157.636364 168.203166 
L 156.970943 169.44 
L 155.167065 172.8 
L 153.368742 176.16 
L 152 178.724318 
L 151.568701 179.52 
L 149.747412 182.88 
L 147.926124 186.24 
L 146.363636 189.122552 
L 144.957244 186.24 
L 143.279476 182.88 
L 141.558828 179.52 
L 140.727273 177.926385 
L 135.090909 176.485658 
L 132.272796 179.52 
L 129.454545 182.679365 
L 129.275573 182.88 
L 126.27835 186.24 
L 123.818182 188.997941 
L 123.282466 189.6 
L 120.590571 192.96 
L 118.318104 196.32 
L 118.181818 196.539646 
L 116.299791 199.68 
L 114.235011 203.04 
L 112.545455 205.733326 
L 111.614618 206.4 
L 107.325199 209.76 
L 106.909091 210.113686 
L 101.272727 210.597787 
L 101.272727 213.12 
L 101.272727 216.48 
L 95.636364 219.84 
L 95.636364 223.2 
L 95.636364 226.56 
L 95.636364 229.92 
L 95.636364 233.28 
L 95.636364 236.64 
L 95.636364 240 
L 95.636364 243.36 
L 95.636364 246.72 
L 95.636364 250.08 
L 95.636364 253.44 
L 95.636364 256.8 
L 95.636364 260.16 
L 95.636364 263.52 
L 95.636364 266.88 
L 95.636364 267.927646 
z
" clip-path="url(#pd638213bd0)" style="fill: #3fbc73"/>
    <path d="M 106.909091 210.113686 
L 107.325199 209.76 
L 111.614618 206.4 
L 112.545455 205.733326 
L 114.235011 203.04 
L 116.299791 199.68 
L 118.181818 196.539646 
L 118.318104 196.32 
L 120.590571 192.96 
L 123.282466 189.6 
L 123.818182 188.997941 
L 126.27835 186.24 
L 129.275573 182.88 
L 129.454545 182.679365 
L 132.272796 179.52 
L 135.090909 176.485658 
L 140.727273 177.926385 
L 141.558828 179.52 
L 143.279476 182.88 
L 144.957244 186.24 
L 146.363636 189.122552 
L 147.926124 186.24 
L 149.747412 182.88 
L 151.568701 179.52 
L 152 178.724318 
L 153.368742 176.16 
L 155.167065 172.8 
L 156.970943 169.44 
L 157.636364 168.203166 
L 158.722854 166.08 
L 160.442272 162.72 
L 162.161689 159.36 
L 163.272727 157.210668 
L 163.971688 156 
L 166.208788 152.64 
L 168.909091 149.342594 
L 168.97278 149.28 
L 172.391563 145.92 
L 174.545455 143.803142 
L 175.810345 142.56 
L 179.229128 139.2 
L 180.181818 138.26369 
L 182.64791 135.84 
L 185.818182 133.339444 
L 188.599772 135.84 
L 190.893916 139.2 
L 191.454545 140.083889 
L 192.87455 142.56 
L 194.801346 145.92 
L 196.728026 149.28 
L 197.090909 149.912867 
L 199.172222 152.64 
L 201.74003 156 
L 202.727273 157.290471 
L 203.019784 156 
L 203.772593 152.64 
L 204.51293 149.28 
L 205.241103 145.92 
L 205.95741 142.56 
L 206.662138 139.2 
L 207.355565 135.84 
L 208.037961 132.48 
L 208.363636 130.857367 
L 209.052867 129.12 
L 210.434429 125.76 
L 211.783814 122.4 
L 213.092602 119.04 
L 214 116.649584 
L 214.524233 115.68 
L 216.820338 112.32 
L 219.63636 108.96 
L 219.636364 108.959997 
L 223.33435 105.6 
L 225.272727 103.838788 
L 227.032341 102.24 
L 230.730331 98.88 
L 230.909091 98.717579 
L 234.428322 95.52 
L 236.545455 93.81188 
L 242.181818 94.438878 
L 243.16856 95.52 
L 246.235235 98.88 
L 247.818182 100.614354 
L 249.129468 102.24 
L 251.800391 105.6 
L 253.454545 107.714404 
L 254.109093 108.96 
L 255.87467 112.32 
L 257.640148 115.68 
L 259.090909 118.441183 
L 259.27957 119.04 
L 260.332154 122.4 
L 261.37465 125.76 
L 264.727273 126.90373 
L 265.774942 125.76 
L 266.089415 122.4 
L 266.401726 119.04 
L 266.711895 115.68 
L 267.019946 112.32 
L 267.325899 108.96 
L 267.629777 105.6 
L 267.9316 102.24 
L 268.231389 98.88 
L 268.529164 95.52 
L 268.824945 92.16 
L 269.118754 88.8 
L 269.410608 85.44 
L 269.700529 82.08 
L 269.988534 78.72 
L 270.274643 75.36 
L 270.363636 74.506055 
L 272.11782 72 
L 274.963867 68.64 
L 276 67.561456 
L 278.724594 65.28 
L 281.636364 62.841812 
L 282.737224 61.92 
L 286.749853 58.56 
L 287.272727 58.122168 
L 290.762483 55.2 
L 292.909091 53.402524 
L 294.909605 51.84 
L 292.909091 51.84 
L 287.272727 51.84 
L 281.636364 51.84 
L 276 51.84 
L 270.363636 51.84 
L 266.705093 51.84 
L 266.321028 55.2 
L 265.956482 58.56 
L 265.610003 61.92 
L 265.287789 65.28 
L 264.972585 68.64 
L 264.727273 71.305502 
L 263.845101 68.64 
L 262.72262 65.28 
L 261.588305 61.92 
L 260.441966 58.56 
L 259.283412 55.2 
L 259.090909 54.645157 
L 257.955446 52.516882 
L 253.454545 55.2 
L 247.818182 58.56 
L 242.181818 61.92 
L 236.545455 65.28 
L 230.909091 68.64 
L 230.909091 72 
L 225.272727 75.36 
L 222.156756 77.217521 
L 220.161957 78.72 
L 219.636364 79.179902 
L 215.074892 81.439225 
L 214 82.08 
L 208.363636 85.44 
L 208.363636 87.148964 
L 208.989696 88.8 
L 208.363636 89.334628 
L 204.465192 92.16 
L 203.134092 95.52 
L 202.727273 97.437703 
L 201.282701 95.52 
L 199.596582 94.026296 
L 197.090909 95.52 
L 191.454545 98.88 
L 191.454545 102.24 
L 185.818182 105.6 
L 180.181818 108.96 
L 174.545455 112.32 
L 174.545455 115.68 
L 168.909091 119.04 
L 163.272727 122.4 
L 157.636364 125.76 
L 157.636364 129.12 
L 152 132.48 
L 146.363636 135.84 
L 146.363636 139.2 
L 140.727273 142.56 
L 140.727273 145.92 
L 135.090909 149.28 
L 135.090909 152.64 
L 129.454545 156 
L 129.454545 159.36 
L 123.818182 162.72 
L 123.818182 166.08 
L 118.181818 169.44 
L 118.181818 172.8 
L 112.545455 176.16 
L 112.545455 179.52 
L 112.545455 182.88 
L 112.545455 186.24 
L 106.909091 189.6 
L 106.909091 192.96 
L 106.909091 196.32 
L 106.909091 199.68 
L 106.909091 203.04 
L 101.272727 206.4 
L 101.272727 209.76 
L 101.272727 210.597787 
z
" clip-path="url(#pd638213bd0)" style="fill: #84d44b"/>
    <path d="M 202.727273 97.437703 
L 203.134092 95.52 
L 204.465192 92.16 
L 208.363636 89.334628 
L 208.989696 88.8 
L 208.363636 87.148964 
L 208.363636 88.8 
L 202.727273 92.16 
L 199.596582 94.026296 
L 201.282701 95.52 
z
M 219.636364 79.179902 
L 220.161957 78.72 
L 222.156756 77.217521 
L 219.636364 78.72 
L 215.074892 81.439225 
z
M 264.727273 71.305502 
L 264.972585 68.64 
L 265.287789 65.28 
L 265.610003 61.92 
L 265.956482 58.56 
L 266.321028 55.2 
L 266.705093 51.84 
L 264.727273 51.84 
L 259.090909 51.84 
L 257.955446 52.516882 
L 259.090909 54.645157 
L 259.283412 55.2 
L 260.441966 58.56 
L 261.588305 61.92 
L 262.72262 65.28 
L 263.845101 68.64 
z
" clip-path="url(#pd638213bd0)" style="fill: #d8e219"/>
   </g>
   <g id="matplotlib.axis_1">
    <g id="xtick_1">
     <g id="line2d_1">
      <path d="M 99.581343 384.48 
L 99.581343 51.84 
" clip-path="url(#pd638213bd0)" style="fill: none; stroke: #b0b0b0; stroke-width: 0.8; stroke-linecap: square"/>
     </g>
     <g id="line2d_2">
      <defs>
       <path id="m02eaa6e6cd" d="M 0 0 
L 0 3.5 
" style="stroke: #000000; stroke-width: 0.8"/>
      </defs>
      <g>
       <use xlink:href="#m02eaa6e6cd" x="99.581343" y="384.48" style="stroke: #000000; stroke-width: 0.8"/>
      </g>
     </g>
     <g id="text_1">
      <!-- 5000 -->
      <g transform="translate(86.856343 399.078438) scale(0.1 -0.1)">
       <defs>
        <path id="DejaVuSans-35" d="M 691 4666 
L 3169 4666 
L 3169 4134 
L 1269 4134 
L 1269 2991 
Q 1406 3038 1543 3061 
Q 1681 3084 1819 3084 
Q 2600 3084 3056 2656 
Q 3513 2228 3513 1497 
Q 3513 744 3044 326 
Q 2575 -91 1722 -91 
Q 1428 -91 1123 -41 
Q 819 9 494 109 
L 494 744 
Q 775 591 1075 516 
Q 1375 441 1709 441 
Q 2250 441 2565 725 
Q 2881 1009 2881 1497 
Q 2881 1984 2565 2268 
Q 2250 2553 1709 2553 
Q 1456 2553 1204 2497 
Q 953 2441 691 2322 
L 691 4666 
z
" transform="scale(0.015625)"/>
        <path id="DejaVuSans-30" d="M 2034 4250 
Q 1547 4250 1301 3770 
Q 1056 3291 1056 2328 
Q 1056 1369 1301 889 
Q 1547 409 2034 409 
Q 2525 409 2770 889 
Q 3016 1369 3016 2328 
Q 3016 3291 2770 3770 
Q 2525 4250 2034 4250 
z
M 2034 4750 
Q 2819 4750 3233 4129 
Q 3647 3509 3647 2328 
Q 3647 1150 3233 529 
Q 2819 -91 2034 -91 
Q 1250 -91 836 529 
Q 422 1150 422 2328 
Q 422 3509 836 4129 
Q 1250 4750 2034 4750 
z
" transform="scale(0.015625)"/>
       </defs>
       <use xlink:href="#DejaVuSans-35"/>
       <use xlink:href="#DejaVuSans-30" x="63.623047"/>
       <use xlink:href="#DejaVuSans-30" x="127.246094"/>
       <use xlink:href="#DejaVuSans-30" x="190.869141"/>
      </g>
     </g>
    </g>
    <g id="xtick_2">
     <g id="line2d_3">
      <path d="M 166.026043 384.48 
L 166.026043 51.84 
" clip-path="url(#pd638213bd0)" style="fill: none; stroke: #b0b0b0; stroke-width: 0.8; stroke-linecap: square"/>
     </g>
     <g id="line2d_4">
      <g>
       <use xlink:href="#m02eaa6e6cd" x="166.026043" y="384.48" style="stroke: #000000; stroke-width: 0.8"/>
      </g>
     </g>
     <g id="text_2">
      <!-- 6000 -->
      <g transform="translate(153.301043 399.078438) scale(0.1 -0.1)">
       <defs>
        <path id="DejaVuSans-36" d="M 2113 2584 
Q 1688 2584 1439 2293 
Q 1191 2003 1191 1497 
Q 1191 994 1439 701 
Q 1688 409 2113 409 
Q 2538 409 2786 701 
Q 3034 994 3034 1497 
Q 3034 2003 2786 2293 
Q 2538 2584 2113 2584 
z
M 3366 4563 
L 3366 3988 
Q 3128 4100 2886 4159 
Q 2644 4219 2406 4219 
Q 1781 4219 1451 3797 
Q 1122 3375 1075 2522 
Q 1259 2794 1537 2939 
Q 1816 3084 2150 3084 
Q 2853 3084 3261 2657 
Q 3669 2231 3669 1497 
Q 3669 778 3244 343 
Q 2819 -91 2113 -91 
Q 1303 -91 875 529 
Q 447 1150 447 2328 
Q 447 3434 972 4092 
Q 1497 4750 2381 4750 
Q 2619 4750 2861 4703 
Q 3103 4656 3366 4563 
z
" transform="scale(0.015625)"/>
       </defs>
       <use xlink:href="#DejaVuSans-36"/>
       <use xlink:href="#DejaVuSans-30" x="63.623047"/>
       <use xlink:href="#DejaVuSans-30" x="127.246094"/>
       <use xlink:href="#DejaVuSans-30" x="190.869141"/>
      </g>
     </g>
    </g>
    <g id="xtick_3">
     <g id="line2d_5">
      <path d="M 232.470743 384.48 
L 232.470743 51.84 
" clip-path="url(#pd638213bd0)" style="fill: none; stroke: #b0b0b0; stroke-width: 0.8; stroke-linecap: square"/>
     </g>
     <g id="line2d_6">
      <g>
       <use xlink:href="#m02eaa6e6cd" x="232.470743" y="384.48" style="stroke: #000000; stroke-width: 0.8"/>
      </g>
     </g>
     <g id="text_3">
      <!-- 7000 -->
      <g transform="translate(219.745743 399.078438) scale(0.1 -0.1)">
       <defs>
        <path id="DejaVuSans-37" d="M 525 4666 
L 3525 4666 
L 3525 4397 
L 1831 0 
L 1172 0 
L 2766 4134 
L 525 4134 
L 525 4666 
z
" transform="scale(0.015625)"/>
       </defs>
       <use xlink:href="#DejaVuSans-37"/>
       <use xlink:href="#DejaVuSans-30" x="63.623047"/>
       <use xlink:href="#DejaVuSans-30" x="127.246094"/>
       <use xlink:href="#DejaVuSans-30" x="190.869141"/>
      </g>
     </g>
    </g>
    <g id="xtick_4">
     <g id="line2d_7">
      <path d="M 298.915443 384.48 
L 298.915443 51.84 
" clip-path="url(#pd638213bd0)" style="fill: none; stroke: #b0b0b0; stroke-width: 0.8; stroke-linecap: square"/>
     </g>
     <g id="line2d_8">
      <g>
       <use xlink:href="#m02eaa6e6cd" x="298.915443" y="384.48" style="stroke: #000000; stroke-width: 0.8"/>
      </g>
     </g>
     <g id="text_4">
      <!-- 8000 -->
      <g transform="translate(286.190443 399.078438) scale(0.1 -0.1)">
       <defs>
        <path id="DejaVuSans-38" d="M 2034 2216 
Q 1584 2216 1326 1975 
Q 1069 1734 1069 1313 
Q 1069 891 1326 650 
Q 1584 409 2034 409 
Q 2484 409 2743 651 
Q 3003 894 3003 1313 
Q 3003 1734 2745 1975 
Q 2488 2216 2034 2216 
z
M 1403 2484 
Q 997 2584 770 2862 
Q 544 3141 544 3541 
Q 544 4100 942 4425 
Q 1341 4750 2034 4750 
Q 2731 4750 3128 4425 
Q 3525 4100 3525 3541 
Q 3525 3141 3298 2862 
Q 3072 2584 2669 2484 
Q 3125 2378 3379 2068 
Q 3634 1759 3634 1313 
Q 3634 634 3220 271 
Q 2806 -91 2034 -91 
Q 1263 -91 848 271 
Q 434 634 434 1313 
Q 434 1759 690 2068 
Q 947 2378 1403 2484 
z
M 1172 3481 
Q 1172 3119 1398 2916 
Q 1625 2713 2034 2713 
Q 2441 2713 2670 2916 
Q 2900 3119 2900 3481 
Q 2900 3844 2670 4047 
Q 2441 4250 2034 4250 
Q 1625 4250 1398 4047 
Q 1172 3844 1172 3481 
z
" transform="scale(0.015625)"/>
       </defs>
       <use xlink:href="#DejaVuSans-38"/>
       <use xlink:href="#DejaVuSans-30" x="63.623047"/>
       <use xlink:href="#DejaVuSans-30" x="127.246094"/>
       <use xlink:href="#DejaVuSans-30" x="190.869141"/>
      </g>
     </g>
    </g>
    <g id="xtick_5">
     <g id="line2d_9">
      <path d="M 365.360143 384.48 
L 365.360143 51.84 
" clip-path="url(#pd638213bd0)" style="fill: none; stroke: #b0b0b0; stroke-width: 0.8; stroke-linecap: square"/>
     </g>
     <g id="line2d_10">
      <g>
       <use xlink:href="#m02eaa6e6cd" x="365.360143" y="384.48" style="stroke: #000000; stroke-width: 0.8"/>
      </g>
     </g>
     <g id="text_5">
      <!-- 9000 -->
      <g transform="translate(352.635143 399.078438) scale(0.1 -0.1)">
       <defs>
        <path id="DejaVuSans-39" d="M 703 97 
L 703 672 
Q 941 559 1184 500 
Q 1428 441 1663 441 
Q 2288 441 2617 861 
Q 2947 1281 2994 2138 
Q 2813 1869 2534 1725 
Q 2256 1581 1919 1581 
Q 1219 1581 811 2004 
Q 403 2428 403 3163 
Q 403 3881 828 4315 
Q 1253 4750 1959 4750 
Q 2769 4750 3195 4129 
Q 3622 3509 3622 2328 
Q 3622 1225 3098 567 
Q 2575 -91 1691 -91 
Q 1453 -91 1209 -44 
Q 966 3 703 97 
z
M 1959 2075 
Q 2384 2075 2632 2365 
Q 2881 2656 2881 3163 
Q 2881 3666 2632 3958 
Q 2384 4250 1959 4250 
Q 1534 4250 1286 3958 
Q 1038 3666 1038 3163 
Q 1038 2656 1286 2365 
Q 1534 2075 1959 2075 
z
" transform="scale(0.015625)"/>
       </defs>
       <use xlink:href="#DejaVuSans-39"/>
       <use xlink:href="#DejaVuSans-30" x="63.623047"/>
       <use xlink:href="#DejaVuSans-30" x="127.246094"/>
       <use xlink:href="#DejaVuSans-30" x="190.869141"/>
      </g>
     </g>
    </g>
    <g id="xtick_6">
     <g id="line2d_11">
      <path d="M 431.804843 384.48 
L 431.804843 51.84 
" clip-path="url(#pd638213bd0)" style="fill: none; stroke: #b0b0b0; stroke-width: 0.8; stroke-linecap: square"/>
     </g>
     <g id="line2d_12">
      <g>
       <use xlink:href="#m02eaa6e6cd" x="431.804843" y="384.48" style="stroke: #000000; stroke-width: 0.8"/>
      </g>
     </g>
     <g id="text_6">
      <!-- 10000 -->
      <g transform="translate(415.898593 399.078438) scale(0.1 -0.1)">
       <defs>
        <path id="DejaVuSans-31" d="M 794 531 
L 1825 531 
L 1825 4091 
L 703 3866 
L 703 4441 
L 1819 4666 
L 2450 4666 
L 2450 531 
L 3481 531 
L 3481 0 
L 794 0 
L 794 531 
z
" transform="scale(0.015625)"/>
       </defs>
       <use xlink:href="#DejaVuSans-31"/>
       <use xlink:href="#DejaVuSans-30" x="63.623047"/>
       <use xlink:href="#DejaVuSans-30" x="127.246094"/>
       <use xlink:href="#DejaVuSans-30" x="190.869141"/>
       <use xlink:href="#DejaVuSans-30" x="254.492188"/>
      </g>
     </g>
    </g>
    <g id="xtick_7">
     <g id="line2d_13">
      <path d="M 498.249543 384.48 
L 498.249543 51.84 
" clip-path="url(#pd638213bd0)" style="fill: none; stroke: #b0b0b0; stroke-width: 0.8; stroke-linecap: square"/>
     </g>
     <g id="line2d_14">
      <g>
       <use xlink:href="#m02eaa6e6cd" x="498.249543" y="384.48" style="stroke: #000000; stroke-width: 0.8"/>
      </g>
     </g>
     <g id="text_7">
      <!-- 11000 -->
      <g transform="translate(482.343293 399.078438) scale(0.1 -0.1)">
       <use xlink:href="#DejaVuSans-31"/>
       <use xlink:href="#DejaVuSans-31" x="63.623047"/>
       <use xlink:href="#DejaVuSans-30" x="127.246094"/>
       <use xlink:href="#DejaVuSans-30" x="190.869141"/>
       <use xlink:href="#DejaVuSans-30" x="254.492188"/>
      </g>
     </g>
    </g>
    <g id="xtick_8">
     <g id="line2d_15">
      <path d="M 564.694244 384.48 
L 564.694244 51.84 
" clip-path="url(#pd638213bd0)" style="fill: none; stroke: #b0b0b0; stroke-width: 0.8; stroke-linecap: square"/>
     </g>
     <g id="line2d_16">
      <g>
       <use xlink:href="#m02eaa6e6cd" x="564.694244" y="384.48" style="stroke: #000000; stroke-width: 0.8"/>
      </g>
     </g>
     <g id="text_8">
      <!-- 12000 -->
      <g transform="translate(548.787994 399.078438) scale(0.1 -0.1)">
       <defs>
        <path id="DejaVuSans-32" d="M 1228 531 
L 3431 531 
L 3431 0 
L 469 0 
L 469 531 
Q 828 903 1448 1529 
Q 2069 2156 2228 2338 
Q 2531 2678 2651 2914 
Q 2772 3150 2772 3378 
Q 2772 3750 2511 3984 
Q 2250 4219 1831 4219 
Q 1534 4219 1204 4116 
Q 875 4013 500 3803 
L 500 4441 
Q 881 4594 1212 4672 
Q 1544 4750 1819 4750 
Q 2544 4750 2975 4387 
Q 3406 4025 3406 3419 
Q 3406 3131 3298 2873 
Q 3191 2616 2906 2266 
Q 2828 2175 2409 1742 
Q 1991 1309 1228 531 
z
" transform="scale(0.015625)"/>
       </defs>
       <use xlink:href="#DejaVuSans-31"/>
       <use xlink:href="#DejaVuSans-32" x="63.623047"/>
       <use xlink:href="#DejaVuSans-30" x="127.246094"/>
       <use xlink:href="#DejaVuSans-30" x="190.869141"/>
       <use xlink:href="#DejaVuSans-30" x="254.492188"/>
      </g>
     </g>
    </g>
    <g id="xtick_9">
     <g id="line2d_17">
      <path d="M 631.138944 384.48 
L 631.138944 51.84 
" clip-path="url(#pd638213bd0)" style="fill: none; stroke: #b0b0b0; stroke-width: 0.8; stroke-linecap: square"/>
     </g>
     <g id="line2d_18">
      <g>
       <use xlink:href="#m02eaa6e6cd" x="631.138944" y="384.48" style="stroke: #000000; stroke-width: 0.8"/>
      </g>
     </g>
     <g id="text_9">
      <!-- 13000 -->
      <g transform="translate(615.232694 399.078438) scale(0.1 -0.1)">
       <defs>
        <path id="DejaVuSans-33" d="M 2597 2516 
Q 3050 2419 3304 2112 
Q 3559 1806 3559 1356 
Q 3559 666 3084 287 
Q 2609 -91 1734 -91 
Q 1441 -91 1130 -33 
Q 819 25 488 141 
L 488 750 
Q 750 597 1062 519 
Q 1375 441 1716 441 
Q 2309 441 2620 675 
Q 2931 909 2931 1356 
Q 2931 1769 2642 2001 
Q 2353 2234 1838 2234 
L 1294 2234 
L 1294 2753 
L 1863 2753 
Q 2328 2753 2575 2939 
Q 2822 3125 2822 3475 
Q 2822 3834 2567 4026 
Q 2313 4219 1838 4219 
Q 1578 4219 1281 4162 
Q 984 4106 628 3988 
L 628 4550 
Q 988 4650 1302 4700 
Q 1616 4750 1894 4750 
Q 2613 4750 3031 4423 
Q 3450 4097 3450 3541 
Q 3450 3153 3228 2886 
Q 3006 2619 2597 2516 
z
" transform="scale(0.015625)"/>
       </defs>
       <use xlink:href="#DejaVuSans-31"/>
       <use xlink:href="#DejaVuSans-33" x="63.623047"/>
       <use xlink:href="#DejaVuSans-30" x="127.246094"/>
       <use xlink:href="#DejaVuSans-30" x="190.869141"/>
       <use xlink:href="#DejaVuSans-30" x="254.492188"/>
      </g>
     </g>
    </g>
    <g id="text_10">
     <!-- $\dot{W}_{comp}$ [W] -->
     <g transform="translate(318.4 426.358125) scale(0.2 -0.2)">
      <defs>
       <path id="DejaVuSans-307" d="M -1894 4863 
L -1319 4863 
L -1319 4134 
L -1894 4134 
L -1894 4863 
z
M -1600 3584 
L -1600 3584 
z
" transform="scale(0.015625)"/>
       <path id="DejaVuSans-Oblique-57" d="M 616 4666 
L 1228 4666 
L 1453 697 
L 3213 4666 
L 3916 4666 
L 4147 697 
L 5888 4666 
L 6528 4666 
L 4453 0 
L 3659 0 
L 3444 3891 
L 1697 0 
L 903 0 
L 616 4666 
z
" transform="scale(0.015625)"/>
       <path id="DejaVuSans-Oblique-63" d="M 3431 3366 
L 3316 2797 
Q 3109 2947 2876 3022 
Q 2644 3097 2394 3097 
Q 2119 3097 1870 3000 
Q 1622 2903 1453 2725 
Q 1184 2453 1037 2087 
Q 891 1722 891 1331 
Q 891 859 1127 628 
Q 1363 397 1844 397 
Q 2081 397 2348 469 
Q 2616 541 2906 684 
L 2797 116 
Q 2547 13 2283 -39 
Q 2019 -91 1741 -91 
Q 1044 -91 669 257 
Q 294 606 294 1253 
Q 294 1797 489 2255 
Q 684 2713 1069 3078 
Q 1331 3328 1684 3456 
Q 2038 3584 2456 3584 
Q 2700 3584 2940 3529 
Q 3181 3475 3431 3366 
z
" transform="scale(0.015625)"/>
       <path id="DejaVuSans-Oblique-6f" d="M 1625 -91 
Q 1009 -91 651 289 
Q 294 669 294 1325 
Q 294 1706 417 2101 
Q 541 2497 738 2766 
Q 1047 3184 1428 3384 
Q 1809 3584 2291 3584 
Q 2888 3584 3255 3212 
Q 3622 2841 3622 2241 
Q 3622 1825 3500 1412 
Q 3378 1000 3181 728 
Q 2875 309 2494 109 
Q 2113 -91 1625 -91 
z
M 891 1344 
Q 891 869 1089 633 
Q 1288 397 1691 397 
Q 2269 397 2648 901 
Q 3028 1406 3028 2181 
Q 3028 2634 2825 2865 
Q 2622 3097 2228 3097 
Q 1903 3097 1650 2945 
Q 1397 2794 1197 2484 
Q 1050 2253 970 1956 
Q 891 1659 891 1344 
z
" transform="scale(0.015625)"/>
       <path id="DejaVuSans-Oblique-6d" d="M 5747 2113 
L 5338 0 
L 4763 0 
L 5166 2094 
Q 5191 2228 5203 2325 
Q 5216 2422 5216 2491 
Q 5216 2772 5059 2928 
Q 4903 3084 4622 3084 
Q 4203 3084 3875 2770 
Q 3547 2456 3450 1953 
L 3066 0 
L 2491 0 
L 2900 2094 
Q 2925 2209 2937 2307 
Q 2950 2406 2950 2484 
Q 2950 2769 2794 2926 
Q 2638 3084 2363 3084 
Q 1938 3084 1609 2770 
Q 1281 2456 1184 1953 
L 800 0 
L 225 0 
L 909 3500 
L 1484 3500 
L 1375 2956 
Q 1609 3263 1923 3423 
Q 2238 3584 2597 3584 
Q 2978 3584 3223 3384 
Q 3469 3184 3519 2828 
Q 3781 3197 4126 3390 
Q 4472 3584 4856 3584 
Q 5306 3584 5551 3325 
Q 5797 3066 5797 2591 
Q 5797 2488 5784 2364 
Q 5772 2241 5747 2113 
z
" transform="scale(0.015625)"/>
       <path id="DejaVuSans-Oblique-70" d="M 3175 2156 
Q 3175 2616 2975 2859 
Q 2775 3103 2400 3103 
Q 2144 3103 1911 2972 
Q 1678 2841 1497 2591 
Q 1319 2344 1212 1994 
Q 1106 1644 1106 1300 
Q 1106 863 1306 627 
Q 1506 391 1875 391 
Q 2147 391 2380 519 
Q 2613 647 2778 891 
Q 2956 1147 3065 1494 
Q 3175 1841 3175 2156 
z
M 1394 2969 
Q 1625 3272 1939 3428 
Q 2253 3584 2638 3584 
Q 3175 3584 3472 3232 
Q 3769 2881 3769 2247 
Q 3769 1728 3584 1258 
Q 3400 788 3053 416 
Q 2822 169 2531 39 
Q 2241 -91 1919 -91 
Q 1547 -91 1294 64 
Q 1041 219 916 525 
L 556 -1331 
L -19 -1331 
L 922 3500 
L 1497 3500 
L 1394 2969 
z
" transform="scale(0.015625)"/>
       <path id="DejaVuSans-20" transform="scale(0.015625)"/>
       <path id="DejaVuSans-5b" d="M 550 4863 
L 1875 4863 
L 1875 4416 
L 1125 4416 
L 1125 -397 
L 1875 -397 
L 1875 -844 
L 550 -844 
L 550 4863 
z
" transform="scale(0.015625)"/>
       <path id="DejaVuSans-57" d="M 213 4666 
L 850 4666 
L 1831 722 
L 2809 4666 
L 3519 4666 
L 4500 722 
L 5478 4666 
L 6119 4666 
L 4947 0 
L 4153 0 
L 3169 4050 
L 2175 0 
L 1381 0 
L 213 4666 
z
" transform="scale(0.015625)"/>
       <path id="DejaVuSans-5d" d="M 1947 4863 
L 1947 -844 
L 622 -844 
L 622 -397 
L 1369 -397 
L 1369 4416 
L 622 4416 
L 622 4863 
L 1947 4863 
z
" transform="scale(0.015625)"/>
      </defs>
      <use xlink:href="#DejaVuSans-307" transform="translate(87.312988 30.015625)"/>
      <use xlink:href="#DejaVuSans-Oblique-57" transform="translate(0 0.609375)"/>
      <use xlink:href="#DejaVuSans-Oblique-63" transform="translate(99.833984 -15.796875) scale(0.7)"/>
      <use xlink:href="#DejaVuSans-Oblique-6f" transform="translate(138.320312 -15.796875) scale(0.7)"/>
      <use xlink:href="#DejaVuSans-Oblique-6d" transform="translate(181.147461 -15.796875) scale(0.7)"/>
      <use xlink:href="#DejaVuSans-Oblique-70" transform="translate(249.335938 -15.796875) scale(0.7)"/>
      <use xlink:href="#DejaVuSans-20" transform="translate(296.503906 0.609375)"/>
      <use xlink:href="#DejaVuSans-5b" transform="translate(328.291016 0.609375)"/>
      <use xlink:href="#DejaVuSans-57" transform="translate(367.304688 0.609375)"/>
      <use xlink:href="#DejaVuSans-5d" transform="translate(466.181641 0.609375)"/>
     </g>
    </g>
   </g>
   <g id="matplotlib.axis_2">
    <g id="ytick_1">
     <g id="line2d_19">
      <path d="M 90 384.48 
L 648 384.48 
" clip-path="url(#pd638213bd0)" style="fill: none; stroke: #b0b0b0; stroke-width: 0.8; stroke-linecap: square"/>
     </g>
     <g id="line2d_20">
      <defs>
       <path id="m7a4f1a74f1" d="M 0 0 
L -3.5 0 
" style="stroke: #000000; stroke-width: 0.8"/>
      </defs>
      <g>
       <use xlink:href="#m7a4f1a74f1" x="90" y="384.48" style="stroke: #000000; stroke-width: 0.8"/>
      </g>
     </g>
     <g id="text_11">
      <!-- 40 -->
      <g transform="translate(70.275 388.279219) scale(0.1 -0.1)">
       <defs>
        <path id="DejaVuSans-34" d="M 2419 4116 
L 825 1625 
L 2419 1625 
L 2419 4116 
z
M 2253 4666 
L 3047 4666 
L 3047 1625 
L 3713 1625 
L 3713 1100 
L 3047 1100 
L 3047 0 
L 2419 0 
L 2419 1100 
L 313 1100 
L 313 1709 
L 2253 4666 
z
" transform="scale(0.015625)"/>
       </defs>
       <use xlink:href="#DejaVuSans-34"/>
       <use xlink:href="#DejaVuSans-30" x="63.623047"/>
      </g>
     </g>
    </g>
    <g id="ytick_2">
     <g id="line2d_21">
      <path d="M 90 342.9 
L 648 342.9 
" clip-path="url(#pd638213bd0)" style="fill: none; stroke: #b0b0b0; stroke-width: 0.8; stroke-linecap: square"/>
     </g>
     <g id="line2d_22">
      <g>
       <use xlink:href="#m7a4f1a74f1" x="90" y="342.9" style="stroke: #000000; stroke-width: 0.8"/>
      </g>
     </g>
     <g id="text_12">
      <!-- 45 -->
      <g transform="translate(70.275 346.699219) scale(0.1 -0.1)">
       <use xlink:href="#DejaVuSans-34"/>
       <use xlink:href="#DejaVuSans-35" x="63.623047"/>
      </g>
     </g>
    </g>
    <g id="ytick_3">
     <g id="line2d_23">
      <path d="M 90 301.32 
L 648 301.32 
" clip-path="url(#pd638213bd0)" style="fill: none; stroke: #b0b0b0; stroke-width: 0.8; stroke-linecap: square"/>
     </g>
     <g id="line2d_24">
      <g>
       <use xlink:href="#m7a4f1a74f1" x="90" y="301.32" style="stroke: #000000; stroke-width: 0.8"/>
      </g>
     </g>
     <g id="text_13">
      <!-- 50 -->
      <g transform="translate(70.275 305.119219) scale(0.1 -0.1)">
       <use xlink:href="#DejaVuSans-35"/>
       <use xlink:href="#DejaVuSans-30" x="63.623047"/>
      </g>
     </g>
    </g>
    <g id="ytick_4">
     <g id="line2d_25">
      <path d="M 90 259.74 
L 648 259.74 
" clip-path="url(#pd638213bd0)" style="fill: none; stroke: #b0b0b0; stroke-width: 0.8; stroke-linecap: square"/>
     </g>
     <g id="line2d_26">
      <g>
       <use xlink:href="#m7a4f1a74f1" x="90" y="259.74" style="stroke: #000000; stroke-width: 0.8"/>
      </g>
     </g>
     <g id="text_14">
      <!-- 55 -->
      <g transform="translate(70.275 263.539219) scale(0.1 -0.1)">
       <use xlink:href="#DejaVuSans-35"/>
       <use xlink:href="#DejaVuSans-35" x="63.623047"/>
      </g>
     </g>
    </g>
    <g id="ytick_5">
     <g id="line2d_27">
      <path d="M 90 218.16 
L 648 218.16 
" clip-path="url(#pd638213bd0)" style="fill: none; stroke: #b0b0b0; stroke-width: 0.8; stroke-linecap: square"/>
     </g>
     <g id="line2d_28">
      <g>
       <use xlink:href="#m7a4f1a74f1" x="90" y="218.16" style="stroke: #000000; stroke-width: 0.8"/>
      </g>
     </g>
     <g id="text_15">
      <!-- 60 -->
      <g transform="translate(70.275 221.959219) scale(0.1 -0.1)">
       <use xlink:href="#DejaVuSans-36"/>
       <use xlink:href="#DejaVuSans-30" x="63.623047"/>
      </g>
     </g>
    </g>
    <g id="ytick_6">
     <g id="line2d_29">
      <path d="M 90 176.58 
L 648 176.58 
" clip-path="url(#pd638213bd0)" style="fill: none; stroke: #b0b0b0; stroke-width: 0.8; stroke-linecap: square"/>
     </g>
     <g id="line2d_30">
      <g>
       <use xlink:href="#m7a4f1a74f1" x="90" y="176.58" style="stroke: #000000; stroke-width: 0.8"/>
      </g>
     </g>
     <g id="text_16">
      <!-- 65 -->
      <g transform="translate(70.275 180.379219) scale(0.1 -0.1)">
       <use xlink:href="#DejaVuSans-36"/>
       <use xlink:href="#DejaVuSans-35" x="63.623047"/>
      </g>
     </g>
    </g>
    <g id="ytick_7">
     <g id="line2d_31">
      <path d="M 90 135 
L 648 135 
" clip-path="url(#pd638213bd0)" style="fill: none; stroke: #b0b0b0; stroke-width: 0.8; stroke-linecap: square"/>
     </g>
     <g id="line2d_32">
      <g>
       <use xlink:href="#m7a4f1a74f1" x="90" y="135" style="stroke: #000000; stroke-width: 0.8"/>
      </g>
     </g>
     <g id="text_17">
      <!-- 70 -->
      <g transform="translate(70.275 138.799219) scale(0.1 -0.1)">
       <use xlink:href="#DejaVuSans-37"/>
       <use xlink:href="#DejaVuSans-30" x="63.623047"/>
      </g>
     </g>
    </g>
    <g id="ytick_8">
     <g id="line2d_33">
      <path d="M 90 93.42 
L 648 93.42 
" clip-path="url(#pd638213bd0)" style="fill: none; stroke: #b0b0b0; stroke-width: 0.8; stroke-linecap: square"/>
     </g>
     <g id="line2d_34">
      <g>
       <use xlink:href="#m7a4f1a74f1" x="90" y="93.42" style="stroke: #000000; stroke-width: 0.8"/>
      </g>
     </g>
     <g id="text_18">
      <!-- 75 -->
      <g transform="translate(70.275 97.219219) scale(0.1 -0.1)">
       <use xlink:href="#DejaVuSans-37"/>
       <use xlink:href="#DejaVuSans-35" x="63.623047"/>
      </g>
     </g>
    </g>
    <g id="ytick_9">
     <g id="line2d_35">
      <path d="M 90 51.84 
L 648 51.84 
" clip-path="url(#pd638213bd0)" style="fill: none; stroke: #b0b0b0; stroke-width: 0.8; stroke-linecap: square"/>
     </g>
     <g id="line2d_36">
      <g>
       <use xlink:href="#m7a4f1a74f1" x="90" y="51.84" style="stroke: #000000; stroke-width: 0.8"/>
      </g>
     </g>
     <g id="text_19">
      <!-- 80 -->
      <g transform="translate(70.275 55.639219) scale(0.1 -0.1)">
       <use xlink:href="#DejaVuSans-38"/>
       <use xlink:href="#DejaVuSans-30" x="63.623047"/>
      </g>
     </g>
    </g>
    <g id="text_20">
     <!-- $T_{DH+}$ -->
     <g transform="translate(62.115625 243.86) rotate(-90) scale(0.2 -0.2)">
      <defs>
       <path id="DejaVuSans-Oblique-54" d="M 378 4666 
L 4325 4666 
L 4225 4134 
L 2559 4134 
L 1759 0 
L 1125 0 
L 1925 4134 
L 275 4134 
L 378 4666 
z
" transform="scale(0.015625)"/>
       <path id="DejaVuSans-Oblique-44" d="M 1081 4666 
L 2438 4666 
Q 3519 4666 4070 4208 
Q 4622 3750 4622 2847 
Q 4622 2250 4412 1698 
Q 4203 1147 3834 769 
Q 3463 381 2891 190 
Q 2319 0 1538 0 
L 172 0 
L 1081 4666 
z
M 1613 4147 
L 909 519 
L 1734 519 
Q 2794 519 3375 1128 
Q 3956 1738 3956 2847 
Q 3956 3519 3581 3833 
Q 3206 4147 2406 4147 
L 1613 4147 
z
" transform="scale(0.015625)"/>
       <path id="DejaVuSans-Oblique-48" d="M 1081 4666 
L 1716 4666 
L 1344 2753 
L 3634 2753 
L 4006 4666 
L 4641 4666 
L 3731 0 
L 3097 0 
L 3531 2222 
L 1241 2222 
L 806 0 
L 172 0 
L 1081 4666 
z
" transform="scale(0.015625)"/>
       <path id="DejaVuSans-2b" d="M 2944 4013 
L 2944 2272 
L 4684 2272 
L 4684 1741 
L 2944 1741 
L 2944 0 
L 2419 0 
L 2419 1741 
L 678 1741 
L 678 2272 
L 2419 2272 
L 2419 4013 
L 2944 4013 
z
" transform="scale(0.015625)"/>
      </defs>
      <use xlink:href="#DejaVuSans-Oblique-54" transform="translate(0 0.09375)"/>
      <use xlink:href="#DejaVuSans-Oblique-44" transform="translate(61.083984 -16.3125) scale(0.7)"/>
      <use xlink:href="#DejaVuSans-Oblique-48" transform="translate(114.985352 -16.3125) scale(0.7)"/>
      <use xlink:href="#DejaVuSans-2b" transform="translate(181.259766 -16.3125) scale(0.7)"/>
     </g>
    </g>
   </g>
   <g id="QuadContourSet_2">
    <path clip-path="url(#pd638213bd0)" style="fill: none; stroke: #000000; stroke-width: 1.5"/>
    <path clip-path="url(#pd638213bd0)" style="fill: none; stroke: #000000; stroke-width: 1.5"/>
    <path d="M 263.598397 384.48 
L 264.727273 383.84734 
L 296.068662 367.668513 
M 321.837914 355.44279 
L 323.975061 357.6 
L 326.727273 359.763319 
L 332.363636 352.140687 
L 333.792665 350.88 
L 338 346.772668 
L 341.447608 344.16 
L 343.636364 342.298594 
L 360.545455 331.442234 
L 361.890239 330.72 
L 366.181818 328.050808 
L 383.090909 319.354335 
L 388.727273 320.280712 
L 393.602964 327.36 
L 394.363636 328.499097 
L 396.283709 330.72 
L 400 334.439723 
L 402.055167 330.72 
L 403.716746 327.36 
L 405.636364 323.011343 
L 407.655539 320.64 
L 411.272727 316.003517 
L 416.909091 310.175632 
L 420.590399 307.2 
L 422.545455 305.466918 
L 433.818182 296.785852 
L 438.560653 293.76 
L 439.454545 293.041717 
L 456.363636 286.666421 
L 462 284.280329 
L 467.636364 290.147165 
L 469.353894 293.76 
L 472.235647 300.48 
L 473.272727 303.127745 
L 476.383832 300.48 
L 478.909091 298.543146 
L 481.992191 293.76 
L 484.545455 289.561667 
L 490.181818 282.638702 
L 492.278876 280.32 
L 495.818182 276.056998 
L 512.727273 260.812288 
L 514.315197 260.16 
L 518.363636 258.04435 
L 529.636364 254.351426 
L 530.583352 253.44 
L 533.208099 250.08 
L 535.272727 246.266273 
L 540.909091 246.280656 
L 541.615309 246.72 
L 552.181818 253.752048 
L 557.818182 262.973125 
L 563.454545 265.239291 
L 566.760407 260.16 
L 569.090909 256.365219 
L 574.727273 248.484723 
L 576.350358 246.72 
L 580.363636 242.03315 
L 592.305806 229.92 
L 597.272727 225.134851 
L 614.181818 211.88704 
L 614.181818 211.88704 
" clip-path="url(#pd638213bd0)" style="fill: none; stroke: #000000; stroke-width: 1.5"/>
    <path d="M 105.372008 384.48 
L 129.242515 365.509167 
M 151.589945 355.484013 
L 152.710655 354.24 
L 155.202169 350.88 
L 157.636364 346.749724 
L 160.521687 344.16 
L 163.845035 340.8 
L 168.909091 336.088692 
L 171.416474 334.08 
L 175.110901 330.72 
L 188.900607 320.64 
L 191.454545 319.394393 
L 192.10844 320.64 
L 193.526922 324 
L 195.376712 327.36 
L 197.847436 330.72 
L 202.727273 336.848775 
L 205.220119 330.72 
L 208.363636 322.352138 
L 209.448434 320.64 
L 211.309882 317.28 
L 214 311.799736 
L 215.114321 310.56 
L 217.877385 307.2 
L 219.636364 304.818727 
L 225.272727 298.453669 
L 226.817343 297.12 
L 230.909091 293.079455 
L 242.181818 284.003109 
L 245.709718 287.04 
L 247.818182 288.244836 
L 253.454545 299.085333 
L 257.716007 310.56 
L 259.090909 314.36016 
L 262.499676 307.2 
L 264.727273 302.215856 
L 266.537203 297.12 
L 268.74253 290.4 
L 270.363636 285.059558 
L 273.009151 280.32 
L 276.38618 273.6 
L 281.636364 266.332076 
L 284.030498 263.52 
L 287.272727 259.259346 
L 298.545455 248.465331 
L 302.43125 250.08 
L 304.181818 250.532951 
L 306.134682 253.44 
L 308.112606 256.8 
L 309.818182 260.105634 
L 315.454545 252.364507 
L 318.341911 250.08 
L 321.090909 247.162716 
L 326.727273 250.642675 
L 328.841482 253.44 
L 332.363636 258.47672 
L 334.075405 253.44 
L 336.579132 246.72 
L 338 243.209237 
L 343.801138 233.28 
L 346.104846 229.92 
L 349.272727 224.882975 
L 360.545455 211.472042 
L 363.570635 209.76 
L 366.181818 208.710087 
L 371.818182 208.43603 
L 377.454545 208.809636 
L 383.287584 209.76 
L 388.727273 212.582654 
L 389.365177 213.12 
L 394.363636 217.574705 
L 400 226.080529 
L 404.214776 216.48 
L 410.310972 203.04 
L 411.272727 200.799918 
L 413.718481 196.32 
L 417.189735 189.6 
L 428.181818 173.192137 
L 428.834643 172.8 
L 433.818182 170.126212 
L 450.727273 166.234871 
L 456.363636 165.705639 
L 462 166.458054 
L 467.636364 168.4341 
L 468.997838 169.44 
L 473.32444 172.8 
L 478.909091 177.92443 
L 484.545455 162.444483 
L 488.221352 156 
L 490.181818 152.308717 
L 501.454545 133.895075 
L 503.81407 132.48 
L 507.090909 130.785422 
L 535.272727 119.610439 
L 540.909091 117.847352 
L 546.545455 116.862515 
L 552.181818 116.297079 
L 557.818182 117.579259 
L 563.454545 126.248442 
L 575.455977 102.24 
L 577.359966 98.88 
L 580.363636 97.191773 
L 580.363636 97.191773 
" clip-path="url(#pd638213bd0)" style="fill: none; stroke: #000000; stroke-width: 1.5"/>
    <path d="M 95.636364 324.338549 
L 101.272727 328.437859 
L 102.097956 327.36 
L 104.836225 324 
L 106.909091 321.657328 
L 118.181818 303.68745 
L 120.823918 300.48 
L 123.818182 295.908994 
L 129.454545 290.203974 
L 133.074118 287.04 
L 135.090909 285.56972 
L 140.114743 290.4 
L 140.727273 291.012517 
L 144.620678 300.48 
L 146.363636 304.56725 
L 149.25729 300.48 
L 152 296.442787 
L 163.738095 273.6 
L 165.538559 270.24 
L 168.909091 263.399884 
L 171.502224 260.16 
L 176.274464 253.44 
L 180.181818 248.431957 
L 182.619587 250.08 
L 185.818182 251.970404 
L 191.695771 260.16 
L 197.422886 270.24 
L 202.727273 276.996007 
L 202.738986 276.96 
L 205.902958 266.88 
L 208.363636 258.520548 
L 219.74784 229.92 
L 221.675234 226.56 
L 223.434439 223.2 
L 225.272727 219.344997 
L 230.909091 209.932041 
L 236.545455 213.630561 
L 242.643714 219.84 
L 247.818182 225.574137 
L 253.454545 235.295023 
L 258.213924 246.72 
L 259.090909 248.880956 
L 262.228809 240 
L 264.727273 232.467789 
L 276 195.145168 
L 278.373719 189.6 
L 280.979144 182.88 
L 281.636364 181.067644 
L 282.511916 179.52 
L 284.63393 176.16 
L 287.272727 172.615209 
L 292.909091 175.406385 
L 298.545455 179.898709 
L 304.181818 187.739504 
L 306.576384 186.24 
L 309.818182 183.772215 
L 332.363636 152.808497 
L 338 156.158341 
L 339.099084 152.64 
L 340.977434 145.92 
L 343.244263 139.2 
L 343.636364 138.163361 
L 349.272727 135.853209 
L 354.909091 141.068035 
L 357.915408 139.2 
L 362.156624 135.84 
L 388.727273 114.374463 
L 394.363636 113.057277 
L 400 114.987628 
L 405.636364 115.233916 
L 408.221351 105.6 
L 409.557046 100.264079 
M 432.092813 84.415755 
L 473.272727 58.835634 
L 474.005159 58.56 
L 478.909091 56.042065 
L 480.100377 55.2 
L 485.948066 51.84 
L 485.948066 51.84 
" clip-path="url(#pd638213bd0)" style="fill: none; stroke: #000000; stroke-width: 1.5"/>
    <path d="M 95.636364 267.927646 
L 101.272727 269.517823 
L 106.909091 268.187797 
L 124.562705 240 
L 129.454545 231.61619 
L 135.090909 228.313275 
L 140.727273 234.403084 
L 144.487946 243.36 
L 146.363636 248.01878 
L 154.257744 233.28 
L 163.272727 215.801525 
L 174.545455 194.013429 
L 180.181818 189.497204 
L 185.818182 191.443535 
L 191.454545 200.030358 
L 197.090909 209.86467 
L 202.727273 217.143239 
L 205.514604 206.4 
L 208.363636 194.688958 
L 221.110994 162.72 
L 224.235899 156 
L 225.272727 153.98222 
L 227.349537 152.64 
L 230.909091 150.158981 
L 236.545455 151.305476 
L 242.181818 156.918769 
L 247.818182 163.094245 
L 253.454545 171.504714 
L 258.849826 182.88 
L 259.090909 183.401751 
L 262.068985 172.8 
L 265.742026 159.36 
L 276 125.397102 
L 277.082323 122.4 
L 278.438557 119.04 
L 279.974787 115.68 
L 281.636364 112.486913 
L 282.237499 112.32 
L 287.272727 110.753347 
L 291.186313 111.161078 
M 316.753218 97.914037 
L 326.727273 84.215413 
L 328.513684 82.08 
L 332.363636 78.587317 
L 338 73.993673 
L 340.956937 72 
L 343.636364 70.030044 
L 349.272727 70.126561 
L 371.90835 51.84 
L 371.90835 51.84 
" clip-path="url(#pd638213bd0)" style="fill: none; stroke: #000000; stroke-width: 1.5"/>
    <path d="M 101.272727 210.597787 
L 106.909091 210.113686 
L 107.325199 209.76 
L 111.614618 206.4 
L 112.545455 205.733326 
L 114.235011 203.04 
L 116.299791 199.68 
L 118.081243 196.707466 
M 142.270438 180.909598 
L 143.279476 182.88 
L 144.957244 186.24 
L 146.363636 189.122552 
L 147.926124 186.24 
L 149.747412 182.88 
L 151.568701 179.52 
L 152 178.724318 
L 153.368742 176.16 
L 155.167065 172.8 
L 156.970943 169.44 
L 157.636364 168.203166 
L 158.722854 166.08 
L 160.442272 162.72 
L 162.161689 159.36 
L 163.272727 157.210668 
L 163.971688 156 
L 166.208788 152.64 
L 168.909091 149.342594 
L 168.97278 149.28 
L 172.391563 145.92 
L 174.545455 143.803142 
L 175.810345 142.56 
L 179.229128 139.2 
L 180.181818 138.26369 
L 182.64791 135.84 
L 185.818182 133.339444 
L 188.599772 135.84 
L 190.893916 139.2 
L 191.454545 140.083889 
L 192.87455 142.56 
L 194.801346 145.92 
L 196.728026 149.28 
L 197.090909 149.912867 
L 199.172222 152.64 
L 201.74003 156 
L 202.727273 157.290471 
L 203.019784 156 
L 203.772593 152.64 
L 204.51293 149.28 
L 205.241103 145.92 
L 205.95741 142.56 
L 206.662138 139.2 
L 207.355565 135.84 
L 208.037961 132.48 
L 208.363636 130.857367 
L 209.052867 129.12 
L 210.434429 125.76 
L 211.783814 122.4 
L 213.092602 119.04 
L 214 116.649584 
L 214.524233 115.68 
L 216.820338 112.32 
L 219.63636 108.96 
L 219.636364 108.959997 
L 223.33435 105.6 
L 225.272727 103.838788 
L 227.032341 102.24 
L 230.730331 98.88 
L 230.909091 98.717579 
L 234.428322 95.52 
L 236.545455 93.81188 
L 242.181818 94.438878 
L 243.16856 95.52 
L 246.235235 98.88 
L 247.818182 100.614354 
L 249.129468 102.24 
L 251.800391 105.6 
L 253.454545 107.714404 
L 254.109093 108.96 
L 255.87467 112.32 
L 257.640148 115.68 
L 259.090909 118.441183 
L 259.27957 119.04 
L 260.332154 122.4 
L 261.37465 125.76 
L 264.727273 126.90373 
L 265.774942 125.76 
L 266.089415 122.4 
L 266.401726 119.04 
L 266.711895 115.68 
L 267.019946 112.32 
L 267.325899 108.96 
L 267.629777 105.6 
L 267.9316 102.24 
L 268.231389 98.88 
L 268.529164 95.52 
L 268.824945 92.16 
L 269.118754 88.8 
L 269.410608 85.44 
L 269.700529 82.08 
L 269.988534 78.72 
L 270.274643 75.36 
L 270.363636 74.506055 
L 272.11782 72 
L 274.963867 68.64 
L 276 67.561456 
L 278.724594 65.28 
L 281.636364 62.841812 
L 282.737224 61.92 
L 286.749853 58.56 
L 287.272727 58.122168 
L 290.762483 55.2 
L 292.909091 53.402524 
L 294.909605 51.84 
" clip-path="url(#pd638213bd0)" style="fill: none; stroke: #000000; stroke-width: 1.5"/>
    <path d="M 199.596582 94.026296 
L 201.282701 95.52 
L 202.727273 97.437703 
L 203.134092 95.52 
L 204.465192 92.16 
L 208.363636 89.334628 
L 208.989696 88.8 
L 208.363636 87.148964 
M 215.074892 81.439225 
L 219.636364 79.179902 
L 220.161957 78.72 
L 222.156756 77.217521 
M 257.955446 52.516882 
L 259.090909 54.645157 
L 259.283412 55.2 
L 260.441966 58.56 
L 261.588305 61.92 
L 262.72262 65.28 
L 263.845101 68.64 
L 264.727273 71.305502 
L 264.972585 68.64 
L 265.287789 65.28 
L 265.610003 61.92 
L 265.956482 58.56 
L 266.321028 55.2 
L 266.705093 51.84 
" clip-path="url(#pd638213bd0)" style="fill: none; stroke: #000000; stroke-width: 1.5"/>
    <path clip-path="url(#pd638213bd0)" style="fill: none; stroke: #000000; stroke-width: 1.5"/>
   </g>
   <g id="patch_3">
    <path d="M 90 384.48 
L 90 51.84 
" style="fill: none; stroke: #000000; stroke-width: 0.8; stroke-linejoin: miter; stroke-linecap: square"/>
   </g>
   <g id="patch_4">
    <path d="M 648 384.48 
L 648 51.84 
" style="fill: none; stroke: #000000; stroke-width: 0.8; stroke-linejoin: miter; stroke-linecap: square"/>
   </g>
   <g id="patch_5">
    <path d="M 90 384.48 
L 648 384.48 
" style="fill: none; stroke: #000000; stroke-width: 0.8; stroke-linejoin: miter; stroke-linecap: square"/>
   </g>
   <g id="patch_6">
    <path d="M 90 51.84 
L 648 51.84 
" style="fill: none; stroke: #000000; stroke-width: 0.8; stroke-linejoin: miter; stroke-linecap: square"/>
   </g>
   <g id="text_21">
    <g clip-path="url(#pd638213bd0)">
     <!-- 4.00 -->
     <g transform="translate(300.448896 368.531562) rotate(-27.389547) scale(0.1 -0.1)">
      <defs>
       <path id="DejaVuSans-2e" d="M 684 794 
L 1344 794 
L 1344 0 
L 684 0 
L 684 794 
z
" transform="scale(0.015625)"/>
      </defs>
      <use xlink:href="#DejaVuSans-34"/>
      <use xlink:href="#DejaVuSans-2e" x="63.623047"/>
      <use xlink:href="#DejaVuSans-30" x="95.410156"/>
      <use xlink:href="#DejaVuSans-30" x="159.033203"/>
     </g>
    </g>
   </g>
   <g id="text_22">
    <g clip-path="url(#pd638213bd0)">
     <!-- 6.00 -->
     <g transform="translate(130.883602 362.268696) rotate(-16.960387) scale(0.1 -0.1)">
      <use xlink:href="#DejaVuSans-36"/>
      <use xlink:href="#DejaVuSans-2e" x="63.623047"/>
      <use xlink:href="#DejaVuSans-30" x="95.410156"/>
      <use xlink:href="#DejaVuSans-30" x="159.033203"/>
     </g>
    </g>
   </g>
   <g id="text_23">
    <g clip-path="url(#pd638213bd0)">
     <!-- 8.00 -->
     <g transform="translate(411.312425 100.053929) rotate(-29.570411) scale(0.1 -0.1)">
      <use xlink:href="#DejaVuSans-38"/>
      <use xlink:href="#DejaVuSans-2e" x="63.623047"/>
      <use xlink:href="#DejaVuSans-30" x="95.410156"/>
      <use xlink:href="#DejaVuSans-30" x="159.033203"/>
     </g>
    </g>
   </g>
   <g id="text_24">
    <g clip-path="url(#pd638213bd0)">
     <!-- 10.00 -->
     <g transform="translate(295.22324 121.838663) rotate(-29.85424) scale(0.1 -0.1)">
      <use xlink:href="#DejaVuSans-31"/>
      <use xlink:href="#DejaVuSans-30" x="63.623047"/>
      <use xlink:href="#DejaVuSans-2e" x="127.246094"/>
      <use xlink:href="#DejaVuSans-30" x="159.033203"/>
      <use xlink:href="#DejaVuSans-30" x="222.65625"/>
     </g>
    </g>
   </g>
   <g id="text_25">
    <g clip-path="url(#pd638213bd0)">
     <!-- 12.00 -->
     <g transform="translate(119.661032 193.837515) rotate(-37.823781) scale(0.1 -0.1)">
      <use xlink:href="#DejaVuSans-31"/>
      <use xlink:href="#DejaVuSans-32" x="63.623047"/>
      <use xlink:href="#DejaVuSans-2e" x="127.246094"/>
      <use xlink:href="#DejaVuSans-30" x="159.033203"/>
      <use xlink:href="#DejaVuSans-30" x="222.65625"/>
     </g>
    </g>
   </g>
  </g>
 </g>
 <defs>
  <clipPath id="pd638213bd0">
   <rect x="90" y="51.84" width="558" height="332.64"/>
  </clipPath>
 </defs>
</svg>
