<?xml version="1.0" encoding="utf-8" standalone="no"?>
<!DOCTYPE svg PUBLIC "-//W3C//DTD SVG 1.1//EN"
  "http://www.w3.org/Graphics/SVG/1.1/DTD/svg11.dtd">
<svg xmlns:xlink="http://www.w3.org/1999/xlink" width="720pt" height="432pt" viewBox="0 0 720 432" xmlns="http://www.w3.org/2000/svg" version="1.1">
 <metadata>
  <rdf:RDF xmlns:dc="http://purl.org/dc/elements/1.1/" xmlns:cc="http://creativecommons.org/ns#" xmlns:rdf="http://www.w3.org/1999/02/22-rdf-syntax-ns#">
   <cc:Work>
    <dc:type rdf:resource="http://purl.org/dc/dcmitype/StillImage"/>
    <dc:date>2024-06-18T13:24:03.041239</dc:date>
    <dc:format>image/svg+xml</dc:format>
    <dc:creator>
     <cc:Agent>
      <dc:title>Matplotlib v3.8.3, https://matplotlib.org/</dc:title>
     </cc:Agent>
    </dc:creator>
   </cc:Work>
  </rdf:RDF>
 </metadata>
 <defs>
  <style type="text/css">*{stroke-linejoin: round; stroke-linecap: butt}</style>
 </defs>
 <g id="figure_1">
  <g id="patch_1">
   <path d="M 0 432 
L 720 432 
L 720 0 
L 0 0 
z
" style="fill: #ffffff"/>
  </g>
  <g id="axes_1">
   <g id="patch_2">
    <path d="M 90 384.48 
L 536.4 384.48 
L 536.4 51.84 
L 90 51.84 
z
" style="fill: #ffffff"/>
   </g>
   <g id="QuadContourSet_1">
    <path clip-path="url(#pd095747d96)" style="fill: #460a5d"/>
    <path clip-path="url(#pd095747d96)" style="fill: #481d6f"/>
    <path d="M 378.581818 55.289119 
L 378.9395 55.2 
L 383.090909 53.409882 
L 387.6 52.916198 
L 391.168974 51.84 
L 387.6 51.84 
L 383.090909 51.84 
L 378.581818 51.84 
L 377.539171 51.84 
L 378.036381 55.2 
z
" clip-path="url(#pd095747d96)" style="fill: #472e7c"/>
    <path d="M 283.890909 102.351118 
L 284.413247 102.24 
L 288.4 101.061826 
L 292.909091 100.218368 
L 297.418182 98.903037 
L 297.494227 98.88 
L 301.927273 97.537055 
L 306.436364 96.171073 
L 308.58555 95.52 
L 310.945455 94.805092 
L 315.454545 93.43911 
L 319.676873 92.16 
L 319.963636 92.073128 
L 324.472727 90.707146 
L 328.981818 89.333565 
L 330.724596 88.8 
L 333.490909 87.953072 
L 338 86.572578 
L 341.699329 85.44 
L 342.509091 85.192085 
L 347.018182 83.811592 
L 351.527273 82.431098 
L 352.674062 82.08 
L 356.036364 81.050605 
L 360.545455 79.674605 
L 363.704609 78.72 
L 365.054545 78.31151 
L 369.563636 76.951826 
L 374.072727 75.592143 
L 374.842579 75.36 
L 378.581818 74.23246 
L 383.090909 72.872776 
L 385.98528 72 
L 387.6 71.513093 
L 392.109091 70.15341 
L 396.618182 68.737205 
L 396.791509 68.64 
L 401.127273 66.366946 
L 403.024756 65.28 
L 405.636364 63.783979 
L 408.890316 61.92 
L 410.145455 61.201012 
L 414.654545 58.618045 
L 414.755875 58.56 
L 419.163636 56.035078 
L 420.621434 55.2 
L 423.672727 53.452111 
L 426.486994 51.84 
L 423.672727 51.84 
L 419.163636 51.84 
L 414.654545 51.84 
L 410.145455 51.84 
L 405.636364 51.84 
L 401.127273 51.84 
L 396.618182 51.84 
L 392.109091 51.84 
L 391.168974 51.84 
L 387.6 52.916198 
L 383.090909 53.409882 
L 378.9395 55.2 
L 378.581818 55.289119 
L 378.036381 55.2 
L 377.539171 51.84 
L 374.072727 51.84 
L 369.563636 51.84 
L 365.054545 51.84 
L 360.545455 51.84 
L 356.036364 51.84 
L 351.527273 51.84 
L 347.018182 55.2 
L 342.509091 58.56 
L 338 58.56 
L 333.490909 61.92 
L 328.981818 65.28 
L 324.472727 65.28 
L 319.963636 68.64 
L 315.454545 72 
L 310.945455 75.36 
L 306.436364 75.36 
L 301.927273 78.72 
L 297.418182 82.08 
L 292.909091 85.44 
L 288.4 88.8 
L 283.890909 88.8 
L 282.292207 89.991291 
L 282.34556 92.16 
L 282.632035 95.52 
L 283.073032 98.88 
L 283.51403 102.24 
z
" clip-path="url(#pd095747d96)" style="fill: #423f85"/>
    <path d="M 229.781818 136.266447 
L 231.514409 135.84 
L 234.290909 135.156613 
L 238.8 134.04678 
L 243.309091 132.936947 
L 245.165599 132.48 
L 247.818182 131.827113 
L 252.327273 130.680626 
L 256.836364 129.409041 
L 257.846227 129.12 
L 261.345455 128.118459 
L 265.854545 126.827876 
L 269.585537 125.76 
L 270.363636 125.537294 
L 274.872727 124.246712 
L 279.381818 122.91949 
L 281.096648 122.4 
L 283.890909 121.553508 
L 288.4 120.187526 
L 292.187971 119.04 
L 292.909091 118.821544 
L 297.418182 117.455563 
L 301.927273 116.089464 
L 303.271388 115.68 
L 306.436364 114.717864 
L 310.945455 113.338677 
L 314.272749 112.32 
L 315.454545 111.958184 
L 319.963636 110.577691 
L 324.472727 109.197197 
L 325.247482 108.96 
L 328.981818 107.816704 
L 333.490909 106.437576 
L 336.2503 105.6 
L 338 105.067541 
L 342.509091 103.706821 
L 347.018182 102.347138 
L 347.373481 102.24 
L 351.527273 100.987455 
L 356.036364 99.627771 
L 358.516183 98.88 
L 360.545455 98.268088 
L 365.054545 96.908405 
L 369.164885 95.52 
L 369.563636 95.391555 
L 374.072727 92.857417 
L 375.290209 92.16 
L 378.581818 90.27445 
L 381.155768 88.8 
L 383.090909 87.691483 
L 387.021328 85.44 
L 387.6 85.108516 
L 392.109091 82.525549 
L 392.886887 82.08 
L 396.618182 79.942582 
L 398.752447 78.72 
L 401.127273 77.359616 
L 404.618006 75.36 
L 405.636364 74.776649 
L 410.145455 72.193682 
L 410.483566 72 
L 414.654545 69.610715 
L 416.349125 68.64 
L 419.163636 67.027748 
L 422.214684 65.28 
L 423.672727 64.444781 
L 428.080244 61.92 
L 428.181818 61.861815 
L 428.519466 61.668398 
L 432.690909 58.56 
L 437.2 55.2 
L 441.709091 51.84 
L 437.2 51.84 
L 432.690909 51.84 
L 428.181818 51.84 
L 426.486994 51.84 
L 423.672727 53.452111 
L 420.621434 55.2 
L 419.163636 56.035078 
L 414.755875 58.56 
L 414.654545 58.618045 
L 410.145455 61.201012 
L 408.890316 61.92 
L 405.636364 63.783979 
L 403.024756 65.28 
L 401.127273 66.366946 
L 396.791509 68.64 
L 396.618182 68.737205 
L 392.109091 70.15341 
L 387.6 71.513093 
L 385.98528 72 
L 383.090909 72.872776 
L 378.581818 74.23246 
L 374.842579 75.36 
L 374.072727 75.592143 
L 369.563636 76.951826 
L 365.054545 78.31151 
L 363.704609 78.72 
L 360.545455 79.674605 
L 356.036364 81.050605 
L 352.674062 82.08 
L 351.527273 82.431098 
L 347.018182 83.811592 
L 342.509091 85.192085 
L 341.699329 85.44 
L 338 86.572578 
L 333.490909 87.953072 
L 330.724596 88.8 
L 328.981818 89.333565 
L 324.472727 90.707146 
L 319.963636 92.073128 
L 319.676873 92.16 
L 315.454545 93.43911 
L 310.945455 94.805092 
L 308.58555 95.52 
L 306.436364 96.171073 
L 301.927273 97.537055 
L 297.494227 98.88 
L 297.418182 98.903037 
L 292.909091 100.218368 
L 288.4 101.061826 
L 284.413247 102.24 
L 283.890909 102.351118 
L 283.51403 102.24 
L 283.073032 98.88 
L 282.632035 95.52 
L 282.34556 92.16 
L 282.292207 89.991291 
L 279.381818 92.16 
L 274.872727 95.52 
L 270.363636 98.88 
L 265.854545 98.88 
L 261.345455 102.24 
L 256.836364 105.6 
L 252.327273 108.96 
L 247.818182 112.32 
L 243.309091 115.68 
L 238.8 119.04 
L 234.290909 119.04 
L 229.781818 122.4 
L 226.98998 124.48037 
L 226.982419 125.76 
L 226.976043 129.12 
L 227.040181 132.48 
L 228.360709 135.84 
z
" clip-path="url(#pd095747d96)" style="fill: #3d4e8a"/>
    <path d="M 193.709091 162.368288 
L 198.218182 162.182132 
L 202.727273 161.437883 
L 207.236364 160.693633 
L 211.745455 159.949383 
L 214.862339 159.36 
L 216.254545 159.10497 
L 220.763636 158.001264 
L 225.272727 156.891431 
L 228.89448 156 
L 229.781818 155.781597 
L 234.290909 154.671764 
L 238.8 153.437385 
L 241.585938 152.64 
L 243.309091 152.146803 
L 247.818182 150.85622 
L 252.327273 149.565638 
L 253.325247 149.28 
L 256.836364 148.275056 
L 261.345455 146.935942 
L 264.699069 145.92 
L 265.854545 145.569961 
L 270.363636 144.203979 
L 274.872727 142.837997 
L 275.790392 142.56 
L 279.381818 141.472015 
L 283.890909 140.103218 
L 286.843767 139.2 
L 288.4 138.724283 
L 292.909091 137.343789 
L 297.418182 135.963296 
L 297.820902 135.84 
L 301.927273 134.582803 
L 306.436364 133.202309 
L 308.801995 132.48 
L 310.945455 131.824804 
L 315.454545 130.461816 
L 319.904384 129.12 
L 319.963636 129.102133 
L 324.472727 127.74245 
L 328.981818 126.382766 
L 331.047086 125.76 
L 333.490909 125.023083 
L 338 123.659043 
L 340.769357 122.4 
L 342.509091 121.742741 
L 347.018182 119.347888 
L 347.555662 119.04 
L 351.527273 116.764921 
L 353.421221 115.68 
L 356.036364 114.181954 
L 359.286781 112.32 
L 360.545455 111.598987 
L 365.054545 109.01602 
L 365.15234 108.96 
L 369.563636 106.433053 
L 371.0179 105.6 
L 374.072727 103.850087 
L 376.883459 102.24 
L 378.581818 101.26712 
L 382.749018 98.88 
L 383.090909 98.684153 
L 387.6 96.101186 
L 388.614578 95.52 
L 392.109091 93.518219 
L 394.480137 92.16 
L 396.618182 90.935252 
L 396.618182 88.8 
L 401.127273 85.44 
L 405.636364 82.08 
L 410.145455 78.72 
L 414.654545 75.36 
L 419.163636 72 
L 423.672727 68.64 
L 423.672727 65.28 
L 428.181818 61.92 
L 428.519466 61.668398 
L 428.181818 61.861815 
L 428.080244 61.92 
L 423.672727 64.444781 
L 422.214684 65.28 
L 419.163636 67.027748 
L 416.349125 68.64 
L 414.654545 69.610715 
L 410.483566 72 
L 410.145455 72.193682 
L 405.636364 74.776649 
L 404.618006 75.36 
L 401.127273 77.359616 
L 398.752447 78.72 
L 396.618182 79.942582 
L 392.886887 82.08 
L 392.109091 82.525549 
L 387.6 85.108516 
L 387.021328 85.44 
L 383.090909 87.691483 
L 381.155768 88.8 
L 378.581818 90.27445 
L 375.290209 92.16 
L 374.072727 92.857417 
L 369.563636 95.391555 
L 369.164885 95.52 
L 365.054545 96.908405 
L 360.545455 98.268088 
L 358.516183 98.88 
L 356.036364 99.627771 
L 351.527273 100.987455 
L 347.373481 102.24 
L 347.018182 102.347138 
L 342.509091 103.706821 
L 338 105.067541 
L 336.2503 105.6 
L 333.490909 106.437576 
L 328.981818 107.816704 
L 325.247482 108.96 
L 324.472727 109.197197 
L 319.963636 110.577691 
L 315.454545 111.958184 
L 314.272749 112.32 
L 310.945455 113.338677 
L 306.436364 114.717864 
L 303.271388 115.68 
L 301.927273 116.089464 
L 297.418182 117.455563 
L 292.909091 118.821544 
L 292.187971 119.04 
L 288.4 120.187526 
L 283.890909 121.553508 
L 281.096648 122.4 
L 279.381818 122.91949 
L 274.872727 124.246712 
L 270.363636 125.537294 
L 269.585537 125.76 
L 265.854545 126.827876 
L 261.345455 128.118459 
L 257.846227 129.12 
L 256.836364 129.409041 
L 252.327273 130.680626 
L 247.818182 131.827113 
L 245.165599 132.48 
L 243.309091 132.936947 
L 238.8 134.04678 
L 234.290909 135.156613 
L 231.514409 135.84 
L 229.781818 136.266447 
L 228.360709 135.84 
L 227.040181 132.48 
L 226.976043 129.12 
L 226.982419 125.76 
L 226.98998 124.48037 
L 225.272727 125.76 
L 220.763636 129.12 
L 216.254545 132.48 
L 211.745455 135.84 
L 207.236364 139.2 
L 202.727273 142.56 
L 198.218182 145.92 
L 193.709091 149.28 
L 190.378055 151.762159 
L 190.429539 152.64 
L 190.687243 156 
L 191.057397 159.36 
z
" clip-path="url(#pd095747d96)" style="fill: #365d8d"/>
    <path d="M 166.654545 184.359114 
L 171.163636 185.200242 
L 175.672727 185.15218 
L 180.181818 185.104119 
L 184.690909 184.990102 
L 189.2 184.311265 
L 193.709091 183.567015 
L 197.871422 182.88 
L 198.218182 182.822765 
L 202.727273 181.95112 
L 207.236364 180.845914 
L 211.745455 179.736081 
L 212.623361 179.52 
L 216.254545 178.626248 
L 220.763636 177.465729 
L 225.272727 176.175147 
L 225.325648 176.16 
L 229.781818 174.884564 
L 234.290909 173.593982 
L 237.064957 172.8 
L 238.8 172.3034 
L 243.309091 170.952395 
L 247.818182 169.586413 
L 248.30149 169.44 
L 252.327273 168.220432 
L 256.836364 166.85445 
L 259.392253 166.08 
L 261.345455 165.488221 
L 265.854545 164.109888 
L 270.363636 162.729395 
L 270.394323 162.72 
L 274.872727 161.348902 
L 279.381818 159.968408 
L 281.369056 159.36 
L 283.890909 158.587915 
L 288.4 157.216811 
L 292.435287 156 
L 292.909091 155.857128 
L 297.418182 154.497444 
L 301.927273 153.137761 
L 303.577988 152.64 
L 306.436364 151.778078 
L 310.945455 150.259362 
L 312.926545 149.28 
L 315.454545 148.216929 
L 319.77358 145.92 
L 319.963636 145.83206 
L 324.472727 143.255392 
L 325.686674 142.56 
L 328.981818 140.672425 
L 331.552234 139.2 
L 333.490909 138.089458 
L 337.417793 135.84 
L 338 135.506491 
L 342.509091 132.923525 
L 343.283353 132.48 
L 347.018182 130.340558 
L 349.148912 129.12 
L 351.527273 127.757591 
L 355.014471 125.76 
L 356.036364 125.174624 
L 359.433276 123.228752 
L 360.545455 122.4 
L 365.054545 119.04 
L 369.563636 115.68 
L 374.072727 112.32 
L 374.072727 108.96 
L 378.581818 105.6 
L 383.090909 102.24 
L 387.6 98.88 
L 392.109091 95.52 
L 396.618182 92.16 
L 396.618182 90.935252 
L 394.480137 92.16 
L 392.109091 93.518219 
L 388.614578 95.52 
L 387.6 96.101186 
L 383.090909 98.684153 
L 382.749018 98.88 
L 378.581818 101.26712 
L 376.883459 102.24 
L 374.072727 103.850087 
L 371.0179 105.6 
L 369.563636 106.433053 
L 365.15234 108.96 
L 365.054545 109.01602 
L 360.545455 111.598987 
L 359.286781 112.32 
L 356.036364 114.181954 
L 353.421221 115.68 
L 351.527273 116.764921 
L 347.555662 119.04 
L 347.018182 119.347888 
L 342.509091 121.742741 
L 340.769357 122.4 
L 338 123.659043 
L 333.490909 125.023083 
L 331.047086 125.76 
L 328.981818 126.382766 
L 324.472727 127.74245 
L 319.963636 129.102133 
L 319.904384 129.12 
L 315.454545 130.461816 
L 310.945455 131.824804 
L 308.801995 132.48 
L 306.436364 133.202309 
L 301.927273 134.582803 
L 297.820902 135.84 
L 297.418182 135.963296 
L 292.909091 137.343789 
L 288.4 138.724283 
L 286.843767 139.2 
L 283.890909 140.103218 
L 279.381818 141.472015 
L 275.790392 142.56 
L 274.872727 142.837997 
L 270.363636 144.203979 
L 265.854545 145.569961 
L 264.699069 145.92 
L 261.345455 146.935942 
L 256.836364 148.275056 
L 253.325247 149.28 
L 252.327273 149.565638 
L 247.818182 150.85622 
L 243.309091 152.146803 
L 241.585938 152.64 
L 238.8 153.437385 
L 234.290909 154.671764 
L 229.781818 155.781597 
L 228.89448 156 
L 225.272727 156.891431 
L 220.763636 158.001264 
L 216.254545 159.10497 
L 214.862339 159.36 
L 211.745455 159.949383 
L 207.236364 160.693633 
L 202.727273 161.437883 
L 198.218182 162.182132 
L 193.709091 162.368288 
L 191.057397 159.36 
L 190.687243 156 
L 190.429539 152.64 
L 190.378055 151.762159 
L 189.2 152.64 
L 184.690909 156 
L 180.181818 159.36 
L 180.181818 162.72 
L 175.672727 166.08 
L 171.163636 169.44 
L 166.654545 172.8 
L 164.482002 174.418895 
L 164.632596 176.16 
L 164.921368 179.52 
L 165.275571 182.88 
z
" clip-path="url(#pd095747d96)" style="fill: #306a8e"/>
    <path d="M 157.636364 207.171049 
L 162.145455 207.757656 
L 166.654545 207.709595 
L 171.163636 207.661534 
L 175.672727 207.184647 
L 180.181818 206.440397 
L 180.426566 206.4 
L 184.690909 205.696147 
L 189.2 204.800398 
L 193.709091 203.690565 
L 196.352242 203.04 
L 198.218182 202.580732 
L 202.727273 201.455041 
L 207.236364 200.203491 
L 209.065358 199.68 
L 211.745455 198.912908 
L 216.254545 197.622326 
L 220.763636 196.33156 
L 220.80185 196.32 
L 225.272727 194.968848 
L 229.781818 193.602866 
L 231.903912 192.96 
L 234.290909 192.236884 
L 238.8 190.869867 
L 242.965293 189.6 
L 243.309091 189.495407 
L 247.818182 188.115 
L 252.327273 186.734507 
L 253.942476 186.24 
L 256.836364 185.354014 
L 261.345455 183.977492 
L 264.971673 182.88 
L 265.854545 182.612123 
L 270.363636 181.252439 
L 274.872727 179.892756 
L 276.108891 179.52 
L 279.381818 178.533073 
L 283.890909 176.92696 
L 285.353118 176.16 
L 288.4 174.775677 
L 291.965928 172.8 
L 292.909091 172.32883 
L 297.418182 169.745863 
L 297.952127 169.44 
L 301.927273 167.162896 
L 303.817687 166.08 
L 306.436364 164.579929 
L 309.683246 162.72 
L 310.945455 161.996962 
L 315.454545 159.413996 
L 315.548806 159.36 
L 319.963636 156.831029 
L 321.414365 156 
L 324.472727 154.248062 
L 327.279924 152.64 
L 328.981818 151.665095 
L 328.981818 149.28 
L 333.490909 145.92 
L 338 142.56 
L 342.509091 139.2 
L 347.018182 135.84 
L 351.527273 132.48 
L 351.527273 129.12 
L 356.036364 125.76 
L 359.433276 123.228752 
L 356.036364 125.174624 
L 355.014471 125.76 
L 351.527273 127.757591 
L 349.148912 129.12 
L 347.018182 130.340558 
L 343.283353 132.48 
L 342.509091 132.923525 
L 338 135.506491 
L 337.417793 135.84 
L 333.490909 138.089458 
L 331.552234 139.2 
L 328.981818 140.672425 
L 325.686674 142.56 
L 324.472727 143.255392 
L 319.963636 145.83206 
L 319.77358 145.92 
L 315.454545 148.216929 
L 312.926545 149.28 
L 310.945455 150.259362 
L 306.436364 151.778078 
L 303.577988 152.64 
L 301.927273 153.137761 
L 297.418182 154.497444 
L 292.909091 155.857128 
L 292.435287 156 
L 288.4 157.216811 
L 283.890909 158.587915 
L 281.369056 159.36 
L 279.381818 159.968408 
L 274.872727 161.348902 
L 270.394323 162.72 
L 270.363636 162.729395 
L 265.854545 164.109888 
L 261.345455 165.488221 
L 259.392253 166.08 
L 256.836364 166.85445 
L 252.327273 168.220432 
L 248.30149 169.44 
L 247.818182 169.586413 
L 243.309091 170.952395 
L 238.8 172.3034 
L 237.064957 172.8 
L 234.290909 173.593982 
L 229.781818 174.884564 
L 225.325648 176.16 
L 225.272727 176.175147 
L 220.763636 177.465729 
L 216.254545 178.626248 
L 212.623361 179.52 
L 211.745455 179.736081 
L 207.236364 180.845914 
L 202.727273 181.95112 
L 198.218182 182.822765 
L 197.871422 182.88 
L 193.709091 183.567015 
L 189.2 184.311265 
L 184.690909 184.990102 
L 180.181818 185.104119 
L 175.672727 185.15218 
L 171.163636 185.200242 
L 166.654545 184.359114 
L 165.275571 182.88 
L 164.921368 179.52 
L 164.632596 176.16 
L 164.482002 174.418895 
L 162.145455 176.16 
L 157.636364 179.52 
L 157.636364 182.88 
L 153.127273 186.24 
L 148.618182 189.6 
L 144.91964 192.35601 
L 144.898827 192.96 
L 145.0903 196.32 
L 145.396296 199.68 
L 146.702872 203.04 
L 148.618182 204.672157 
L 153.127273 205.921603 
L 154.853747 206.4 
z
" clip-path="url(#pd095747d96)" style="fill: #2a778e"/>
    <path d="M 148.618182 229.982984 
L 153.127273 230.315071 
L 157.636364 230.26701 
L 162.145455 230.058029 
L 162.981711 229.92 
L 166.654545 229.313779 
L 171.163636 228.569529 
L 175.672727 227.645049 
L 180.081123 226.56 
L 180.181818 226.535216 
L 184.690909 225.425382 
L 189.2 224.231835 
L 192.805068 223.2 
L 193.709091 222.941252 
L 198.218182 221.65067 
L 202.727273 220.351282 
L 204.41501 219.84 
L 207.236364 218.9853 
L 211.745455 217.619319 
L 215.506333 216.48 
L 216.254545 216.253337 
L 220.763636 214.880931 
L 225.272727 213.500606 
L 226.515896 213.12 
L 229.781818 212.120113 
L 234.290909 210.74015 
L 237.514905 209.76 
L 238.8 209.368309 
L 243.309091 208.007434 
L 247.818182 206.647751 
L 248.639794 206.4 
L 252.327273 205.288068 
L 256.836364 203.640166 
L 257.931138 203.04 
L 261.345455 201.395047 
L 264.343392 199.68 
L 265.854545 198.819301 
L 270.21758 196.32 
L 270.363636 196.236334 
L 274.872727 193.653367 
L 276.08314 192.96 
L 279.381818 191.0704 
L 281.948699 189.6 
L 283.890909 188.487433 
L 287.814259 186.24 
L 288.4 185.904467 
L 290.347086 184.789107 
L 292.909091 182.88 
L 297.418182 179.52 
L 301.927273 176.16 
L 306.436364 172.8 
L 306.436364 169.44 
L 310.945455 166.08 
L 315.454545 162.72 
L 319.963636 159.36 
L 324.472727 156 
L 328.981818 152.64 
L 328.981818 151.665095 
L 327.279924 152.64 
L 324.472727 154.248062 
L 321.414365 156 
L 319.963636 156.831029 
L 315.548806 159.36 
L 315.454545 159.413996 
L 310.945455 161.996962 
L 309.683246 162.72 
L 306.436364 164.579929 
L 303.817687 166.08 
L 301.927273 167.162896 
L 297.952127 169.44 
L 297.418182 169.745863 
L 292.909091 172.32883 
L 291.965928 172.8 
L 288.4 174.775677 
L 285.353118 176.16 
L 283.890909 176.92696 
L 279.381818 178.533073 
L 276.108891 179.52 
L 274.872727 179.892756 
L 270.363636 181.252439 
L 265.854545 182.612123 
L 264.971673 182.88 
L 261.345455 183.977492 
L 256.836364 185.354014 
L 253.942476 186.24 
L 252.327273 186.734507 
L 247.818182 188.115 
L 243.309091 189.495407 
L 242.965293 189.6 
L 238.8 190.869867 
L 234.290909 192.236884 
L 231.903912 192.96 
L 229.781818 193.602866 
L 225.272727 194.968848 
L 220.80185 196.32 
L 220.763636 196.33156 
L 216.254545 197.622326 
L 211.745455 198.912908 
L 209.065358 199.68 
L 207.236364 200.203491 
L 202.727273 201.455041 
L 198.218182 202.580732 
L 196.352242 203.04 
L 193.709091 203.690565 
L 189.2 204.800398 
L 184.690909 205.696147 
L 180.426566 206.4 
L 180.181818 206.440397 
L 175.672727 207.184647 
L 171.163636 207.661534 
L 166.654545 207.709595 
L 162.145455 207.757656 
L 157.636364 207.171049 
L 154.853747 206.4 
L 153.127273 205.921603 
L 148.618182 204.672157 
L 146.702872 203.04 
L 145.396296 199.68 
L 145.0903 196.32 
L 144.898827 192.96 
L 144.91964 192.35601 
L 144.109091 192.96 
L 144.109091 196.32 
L 139.6 199.68 
L 135.090909 203.04 
L 135.090909 206.4 
L 130.581818 209.76 
L 129.858176 210.29923 
L 129.857795 213.12 
L 129.877796 216.48 
L 130.448055 219.84 
L 130.581818 220.118428 
L 134.404215 223.2 
L 135.090909 223.753605 
L 138.571975 226.56 
L 139.6 227.316429 
L 144.109091 228.733538 
L 148.390881 229.92 
z
" clip-path="url(#pd095747d96)" style="fill: #25838e"/>
    <path d="M 135.090909 251.545473 
L 139.6 252.794919 
L 144.109091 252.872486 
L 148.618182 252.824425 
L 153.127273 252.187161 
L 157.636364 251.442911 
L 162.145455 250.489699 
L 163.810004 250.08 
L 166.654545 249.379866 
L 171.163636 248.237307 
L 175.672727 246.969596 
L 176.544778 246.72 
L 180.181818 245.679014 
L 184.690909 244.367735 
L 188.017431 243.36 
L 189.2 243.001753 
L 193.709091 241.635771 
L 198.218182 240.266705 
L 199.089317 240 
L 202.727273 238.886211 
L 207.236364 237.505718 
L 210.064164 236.64 
L 211.745455 236.125272 
L 216.254545 234.762429 
L 220.763636 233.402746 
L 221.170696 233.28 
L 225.272727 232.043063 
L 229.781818 230.385716 
L 230.602744 229.92 
L 234.290909 227.892739 
L 236.617474 226.56 
L 238.8 225.309772 
L 242.483033 223.2 
L 243.309091 222.726805 
L 247.818182 220.143838 
L 248.348593 219.84 
L 252.327273 217.560871 
L 254.214152 216.48 
L 256.836364 214.977904 
L 256.836364 213.12 
L 261.345455 209.76 
L 265.854545 206.4 
L 270.363636 203.04 
L 274.872727 199.68 
L 279.381818 196.32 
L 279.381818 192.96 
L 283.890909 189.6 
L 288.4 186.24 
L 290.347086 184.789107 
L 288.4 185.904467 
L 287.814259 186.24 
L 283.890909 188.487433 
L 281.948699 189.6 
L 279.381818 191.0704 
L 276.08314 192.96 
L 274.872727 193.653367 
L 270.363636 196.236334 
L 270.21758 196.32 
L 265.854545 198.819301 
L 264.343392 199.68 
L 261.345455 201.395047 
L 257.931138 203.04 
L 256.836364 203.640166 
L 252.327273 205.288068 
L 248.639794 206.4 
L 247.818182 206.647751 
L 243.309091 208.007434 
L 238.8 209.368309 
L 237.514905 209.76 
L 234.290909 210.74015 
L 229.781818 212.120113 
L 226.515896 213.12 
L 225.272727 213.500606 
L 220.763636 214.880931 
L 216.254545 216.253337 
L 215.506333 216.48 
L 211.745455 217.619319 
L 207.236364 218.9853 
L 204.41501 219.84 
L 202.727273 220.351282 
L 198.218182 221.65067 
L 193.709091 222.941252 
L 192.805068 223.2 
L 189.2 224.231835 
L 184.690909 225.425382 
L 180.181818 226.535216 
L 180.081123 226.56 
L 175.672727 227.645049 
L 171.163636 228.569529 
L 166.654545 229.313779 
L 162.981711 229.92 
L 162.145455 230.058029 
L 157.636364 230.26701 
L 153.127273 230.315071 
L 148.618182 229.982984 
L 148.390881 229.92 
L 144.109091 228.733538 
L 139.6 227.316429 
L 138.571975 226.56 
L 135.090909 223.753605 
L 134.404215 223.2 
L 130.581818 220.118428 
L 130.448055 219.84 
L 129.877796 216.48 
L 129.857795 213.12 
L 129.858176 210.29923 
L 126.072727 213.12 
L 126.072727 216.48 
L 121.563636 219.84 
L 121.563636 223.2 
L 117.757774 226.035981 
L 117.788902 226.56 
L 117.866008 229.92 
L 118.316635 233.28 
L 119.379563 236.64 
L 121.311331 240 
L 121.563636 240.438844 
L 123.668382 243.36 
L 126.072727 246.123831 
L 126.812218 246.72 
L 130.581818 249.759008 
L 131.292311 250.08 
z
" clip-path="url(#pd095747d96)" style="fill: #21918c"/>
    <path d="M 126.072727 274.357408 
L 130.581818 275.433885 
L 135.090909 275.429901 
L 139.6 275.060543 
L 144.109091 274.312645 
L 147.347784 273.6 
L 148.618182 273.33435 
L 153.127273 272.224517 
L 157.636364 270.99794 
L 160.284488 270.24 
L 162.145455 269.707358 
L 166.654545 268.384188 
L 171.163636 267.018206 
L 171.618347 266.88 
L 175.672727 265.649358 
L 180.181818 264.271817 
L 182.63747 263.52 
L 184.690909 262.891324 
L 189.2 261.518449 
L 193.701608 260.16 
L 193.709091 260.157741 
L 198.218182 258.798058 
L 202.727273 256.966177 
L 203.017368 256.8 
L 207.236364 254.38321 
L 208.882927 253.44 
L 211.745455 251.800243 
L 214.748486 250.08 
L 216.254545 249.217276 
L 220.614046 246.72 
L 220.763636 246.634309 
L 221.260897 246.349461 
L 225.272727 243.36 
L 229.781818 240 
L 234.290909 236.64 
L 234.290909 233.28 
L 238.8 229.92 
L 243.309091 226.56 
L 247.818182 223.2 
L 252.327273 219.84 
L 256.836364 216.48 
L 256.836364 214.977904 
L 254.214152 216.48 
L 252.327273 217.560871 
L 248.348593 219.84 
L 247.818182 220.143838 
L 243.309091 222.726805 
L 242.483033 223.2 
L 238.8 225.309772 
L 236.617474 226.56 
L 234.290909 227.892739 
L 230.602744 229.92 
L 229.781818 230.385716 
L 225.272727 232.043063 
L 221.170696 233.28 
L 220.763636 233.402746 
L 216.254545 234.762429 
L 211.745455 236.125272 
L 210.064164 236.64 
L 207.236364 237.505718 
L 202.727273 238.886211 
L 199.089317 240 
L 198.218182 240.266705 
L 193.709091 241.635771 
L 189.2 243.001753 
L 188.017431 243.36 
L 184.690909 244.367735 
L 180.181818 245.679014 
L 176.544778 246.72 
L 175.672727 246.969596 
L 171.163636 248.237307 
L 166.654545 249.379866 
L 163.810004 250.08 
L 162.145455 250.489699 
L 157.636364 251.442911 
L 153.127273 252.187161 
L 148.618182 252.824425 
L 144.109091 252.872486 
L 139.6 252.794919 
L 135.090909 251.545473 
L 131.292311 250.08 
L 130.581818 249.759008 
L 126.812218 246.72 
L 126.072727 246.123831 
L 123.668382 243.36 
L 121.563636 240.438844 
L 121.311331 240 
L 119.379563 236.64 
L 118.316635 233.28 
L 117.866008 229.92 
L 117.788902 226.56 
L 117.757774 226.035981 
L 117.054545 226.56 
L 117.054545 229.92 
L 112.545455 233.28 
L 112.545455 236.64 
L 108.056736 239.98482 
L 108.057941 240 
L 108.621615 243.36 
L 109.185289 246.72 
L 109.749399 250.08 
L 110.495546 253.44 
L 111.371599 256.8 
L 112.414718 260.16 
L 112.545455 260.54031 
L 114.25857 263.52 
L 116.190338 266.88 
L 117.054545 268.278609 
L 119.220221 270.24 
L 121.563636 272.129234 
L 124.376423 273.6 
z
" clip-path="url(#pd095747d96)" style="fill: #1e9d89"/>
    <path d="M 117.054545 297.169343 
L 121.563636 298.035377 
L 126.072727 297.921045 
L 130.581818 297.187959 
L 130.876832 297.12 
L 135.090909 296.179001 
L 139.6 295.02587 
L 144.024154 293.76 
L 144.109091 293.735702 
L 148.618182 292.40064 
L 153.127273 291.033346 
L 155.200957 290.4 
L 157.636364 289.657422 
L 162.145455 288.280068 
L 166.236231 287.04 
L 166.654545 286.912868 
L 171.163636 285.445118 
L 174.915792 283.68 
L 175.672727 283.381357 
L 180.181818 280.873681 
L 181.14838 280.32 
L 184.690909 278.290714 
L 184.690909 276.96 
L 189.2 273.6 
L 193.709091 270.24 
L 198.218182 266.88 
L 202.727273 263.52 
L 207.236364 260.16 
L 211.745455 256.8 
L 211.745455 253.44 
L 216.254545 250.08 
L 220.763636 246.72 
L 221.260897 246.349461 
L 220.763636 246.634309 
L 220.614046 246.72 
L 216.254545 249.217276 
L 214.748486 250.08 
L 211.745455 251.800243 
L 208.882927 253.44 
L 207.236364 254.38321 
L 203.017368 256.8 
L 202.727273 256.966177 
L 198.218182 258.798058 
L 193.709091 260.157741 
L 193.701608 260.16 
L 189.2 261.518449 
L 184.690909 262.891324 
L 182.63747 263.52 
L 180.181818 264.271817 
L 175.672727 265.649358 
L 171.618347 266.88 
L 171.163636 267.018206 
L 166.654545 268.384188 
L 162.145455 269.707358 
L 160.284488 270.24 
L 157.636364 270.99794 
L 153.127273 272.224517 
L 148.618182 273.33435 
L 147.347784 273.6 
L 144.109091 274.312645 
L 139.6 275.060543 
L 135.090909 275.429901 
L 130.581818 275.433885 
L 126.072727 274.357408 
L 124.376423 273.6 
L 121.563636 272.129234 
L 119.220221 270.24 
L 117.054545 268.278609 
L 116.190338 266.88 
L 114.25857 263.52 
L 112.545455 260.54031 
L 112.414718 260.16 
L 111.371599 256.8 
L 110.495546 253.44 
L 109.749399 250.08 
L 109.185289 246.72 
L 108.621615 243.36 
L 108.057941 240 
L 108.056736 239.98482 
L 108.036364 240 
L 108.036364 243.36 
L 103.527273 246.72 
L 103.527273 250.08 
L 103.527273 253.44 
L 99.991738 256.074544 
L 100.114262 256.8 
L 100.682066 260.16 
L 101.349424 263.52 
L 102.167958 266.88 
L 103.195599 270.24 
L 103.527273 271.23513 
L 104.131158 273.6 
L 104.76679 276.96 
L 105.522188 280.32 
L 106.41868 283.68 
L 107.499867 287.04 
L 108.036364 288.484616 
L 109.294442 290.4 
L 111.892795 293.76 
L 112.545455 294.499461 
L 116.957263 297.12 
z
" clip-path="url(#pd095747d96)" style="fill: #23a983"/>
    <path d="M 108.036364 319.981278 
L 112.545455 320.592791 
L 117.054545 320.063057 
L 121.563636 319.011504 
L 126.072727 317.759869 
L 127.675778 317.28 
L 130.581818 316.417093 
L 135.090909 315.043028 
L 138.777038 313.92 
L 139.6 313.66877 
L 144.109091 311.992741 
L 146.9394 310.56 
L 148.618182 309.831965 
L 152.174707 307.909815 
L 153.127273 307.2 
L 157.636364 303.84 
L 162.145455 300.48 
L 162.145455 297.12 
L 166.654545 293.76 
L 171.163636 290.4 
L 175.672727 287.04 
L 180.181818 283.68 
L 184.690909 280.32 
L 184.690909 278.290714 
L 181.14838 280.32 
L 180.181818 280.873681 
L 175.672727 283.381357 
L 174.915792 283.68 
L 171.163636 285.445118 
L 166.654545 286.912868 
L 166.236231 287.04 
L 162.145455 288.280068 
L 157.636364 289.657422 
L 155.200957 290.4 
L 153.127273 291.033346 
L 148.618182 292.40064 
L 144.109091 293.735702 
L 144.024154 293.76 
L 139.6 295.02587 
L 135.090909 296.179001 
L 130.876832 297.12 
L 130.581818 297.187959 
L 126.072727 297.921045 
L 121.563636 298.035377 
L 117.054545 297.169343 
L 116.957263 297.12 
L 112.545455 294.499461 
L 111.892795 293.76 
L 109.294442 290.4 
L 108.036364 288.484616 
L 107.499867 287.04 
L 106.41868 283.68 
L 105.522188 280.32 
L 104.76679 276.96 
L 104.131158 273.6 
L 103.527273 271.23513 
L 103.195599 270.24 
L 102.167958 266.88 
L 101.349424 263.52 
L 100.682066 260.16 
L 100.114262 256.8 
L 99.991738 256.074544 
L 99.018182 256.8 
L 99.018182 260.16 
L 99.018182 263.52 
L 94.509091 266.88 
L 94.509091 270.24 
L 94.509091 273.6 
L 94.509091 276.96 
L 94.509091 278.453128 
L 94.815747 280.32 
L 95.341243 283.68 
L 95.783907 287.04 
L 96.239064 290.4 
L 96.844687 293.76 
L 97.583673 297.12 
L 98.41112 300.48 
L 99.018182 302.715781 
L 99.396311 303.84 
L 100.482574 307.2 
L 101.396042 310.56 
L 102.514139 313.92 
L 103.527273 316.428921 
L 104.34895 317.28 
z
" clip-path="url(#pd095747d96)" style="fill: #32b67a"/>
    <path d="M 99.018182 342.696872 
L 103.527273 342.919743 
L 108.036364 341.782811 
L 111.299172 340.8 
L 112.545455 340.427938 
L 117.054545 338.616975 
L 117.054545 337.44 
L 121.563636 334.08 
L 126.072727 330.72 
L 130.581818 327.36 
L 135.090909 324 
L 139.6 320.64 
L 139.6 317.28 
L 144.109091 313.92 
L 148.618182 310.56 
L 152.174707 307.909815 
L 148.618182 309.831965 
L 146.9394 310.56 
L 144.109091 311.992741 
L 139.6 313.66877 
L 138.777038 313.92 
L 135.090909 315.043028 
L 130.581818 316.417093 
L 127.675778 317.28 
L 126.072727 317.759869 
L 121.563636 319.011504 
L 117.054545 320.063057 
L 112.545455 320.592791 
L 108.036364 319.981278 
L 104.34895 317.28 
L 103.527273 316.428921 
L 102.514139 313.92 
L 101.396042 310.56 
L 100.482574 307.2 
L 99.396311 303.84 
L 99.018182 302.715781 
L 98.41112 300.48 
L 97.583673 297.12 
L 96.844687 293.76 
L 96.239064 290.4 
L 95.783907 287.04 
L 95.341243 283.68 
L 94.815747 280.32 
L 94.509091 278.453128 
L 94.509091 280.32 
L 94.509091 283.68 
L 94.509091 287.04 
L 94.509091 290.4 
L 94.509091 293.76 
L 94.509091 297.12 
L 94.509091 300.48 
L 94.509091 303.84 
L 94.509091 307.2 
L 94.509091 310.56 
L 94.509091 313.92 
L 94.509091 317.28 
L 94.509091 320.64 
L 94.509091 324 
L 94.509091 327.36 
L 94.509091 330.72 
L 94.509091 334.08 
L 94.509091 334.263859 
L 96.00431 337.44 
L 97.779902 340.8 
z
" clip-path="url(#pd095747d96)" style="fill: #48c16e"/>
    <path d="M 94.509091 357.6 
L 99.018182 354.24 
L 103.527273 350.88 
L 108.036364 347.52 
L 112.545455 344.16 
L 117.054545 340.8 
L 117.054545 338.616975 
L 112.545455 340.427938 
L 111.299172 340.8 
L 108.036364 341.782811 
L 103.527273 342.919743 
L 99.018182 342.696872 
L 97.779902 340.8 
L 96.00431 337.44 
L 94.509091 334.263859 
L 94.509091 337.44 
L 94.509091 340.8 
L 94.509091 344.16 
L 94.509091 347.52 
L 94.509091 350.88 
L 94.509091 354.24 
z
" clip-path="url(#pd095747d96)" style="fill: #65cb5e"/>
    <path clip-path="url(#pd095747d96)" style="fill: #84d44b"/>
    <path clip-path="url(#pd095747d96)" style="fill: #a8db34"/>
    <path clip-path="url(#pd095747d96)" style="fill: #cae11f"/>
    <path clip-path="url(#pd095747d96)" style="fill: #efe51c"/>
   </g>
   <g id="matplotlib.axis_1">
    <g id="xtick_1">
     <g id="line2d_1">
      <path d="M 129.225324 384.48 
L 129.225324 51.84 
" clip-path="url(#pd095747d96)" style="fill: none; stroke: #b0b0b0; stroke-width: 0.8; stroke-linecap: square"/>
     </g>
     <g id="line2d_2">
      <defs>
       <path id="mc051160afd" d="M 0 0 
L 0 3.5 
" style="stroke: #000000; stroke-width: 0.8"/>
      </defs>
      <g>
       <use xlink:href="#mc051160afd" x="129.225324" y="384.48" style="stroke: #000000; stroke-width: 0.8"/>
      </g>
     </g>
     <g id="text_1">
      <!-- 4000 -->
      <g transform="translate(116.500324 399.078438) scale(0.1 -0.1)">
       <defs>
        <path id="DejaVuSans-34" d="M 2419 4116 
L 825 1625 
L 2419 1625 
L 2419 4116 
z
M 2253 4666 
L 3047 4666 
L 3047 1625 
L 3713 1625 
L 3713 1100 
L 3047 1100 
L 3047 0 
L 2419 0 
L 2419 1100 
L 313 1100 
L 313 1709 
L 2253 4666 
z
" transform="scale(0.015625)"/>
        <path id="DejaVuSans-30" d="M 2034 4250 
Q 1547 4250 1301 3770 
Q 1056 3291 1056 2328 
Q 1056 1369 1301 889 
Q 1547 409 2034 409 
Q 2525 409 2770 889 
Q 3016 1369 3016 2328 
Q 3016 3291 2770 3770 
Q 2525 4250 2034 4250 
z
M 2034 4750 
Q 2819 4750 3233 4129 
Q 3647 3509 3647 2328 
Q 3647 1150 3233 529 
Q 2819 -91 2034 -91 
Q 1250 -91 836 529 
Q 422 1150 422 2328 
Q 422 3509 836 4129 
Q 1250 4750 2034 4750 
z
" transform="scale(0.015625)"/>
       </defs>
       <use xlink:href="#DejaVuSans-34"/>
       <use xlink:href="#DejaVuSans-30" x="63.623047"/>
       <use xlink:href="#DejaVuSans-30" x="127.246094"/>
       <use xlink:href="#DejaVuSans-30" x="190.869141"/>
      </g>
     </g>
    </g>
    <g id="xtick_2">
     <g id="line2d_3">
      <path d="M 197.525239 384.48 
L 197.525239 51.84 
" clip-path="url(#pd095747d96)" style="fill: none; stroke: #b0b0b0; stroke-width: 0.8; stroke-linecap: square"/>
     </g>
     <g id="line2d_4">
      <g>
       <use xlink:href="#mc051160afd" x="197.525239" y="384.48" style="stroke: #000000; stroke-width: 0.8"/>
      </g>
     </g>
     <g id="text_2">
      <!-- 6000 -->
      <g transform="translate(184.800239 399.078438) scale(0.1 -0.1)">
       <defs>
        <path id="DejaVuSans-36" d="M 2113 2584 
Q 1688 2584 1439 2293 
Q 1191 2003 1191 1497 
Q 1191 994 1439 701 
Q 1688 409 2113 409 
Q 2538 409 2786 701 
Q 3034 994 3034 1497 
Q 3034 2003 2786 2293 
Q 2538 2584 2113 2584 
z
M 3366 4563 
L 3366 3988 
Q 3128 4100 2886 4159 
Q 2644 4219 2406 4219 
Q 1781 4219 1451 3797 
Q 1122 3375 1075 2522 
Q 1259 2794 1537 2939 
Q 1816 3084 2150 3084 
Q 2853 3084 3261 2657 
Q 3669 2231 3669 1497 
Q 3669 778 3244 343 
Q 2819 -91 2113 -91 
Q 1303 -91 875 529 
Q 447 1150 447 2328 
Q 447 3434 972 4092 
Q 1497 4750 2381 4750 
Q 2619 4750 2861 4703 
Q 3103 4656 3366 4563 
z
" transform="scale(0.015625)"/>
       </defs>
       <use xlink:href="#DejaVuSans-36"/>
       <use xlink:href="#DejaVuSans-30" x="63.623047"/>
       <use xlink:href="#DejaVuSans-30" x="127.246094"/>
       <use xlink:href="#DejaVuSans-30" x="190.869141"/>
      </g>
     </g>
    </g>
    <g id="xtick_3">
     <g id="line2d_5">
      <path d="M 265.825154 384.48 
L 265.825154 51.84 
" clip-path="url(#pd095747d96)" style="fill: none; stroke: #b0b0b0; stroke-width: 0.8; stroke-linecap: square"/>
     </g>
     <g id="line2d_6">
      <g>
       <use xlink:href="#mc051160afd" x="265.825154" y="384.48" style="stroke: #000000; stroke-width: 0.8"/>
      </g>
     </g>
     <g id="text_3">
      <!-- 8000 -->
      <g transform="translate(253.100154 399.078438) scale(0.1 -0.1)">
       <defs>
        <path id="DejaVuSans-38" d="M 2034 2216 
Q 1584 2216 1326 1975 
Q 1069 1734 1069 1313 
Q 1069 891 1326 650 
Q 1584 409 2034 409 
Q 2484 409 2743 651 
Q 3003 894 3003 1313 
Q 3003 1734 2745 1975 
Q 2488 2216 2034 2216 
z
M 1403 2484 
Q 997 2584 770 2862 
Q 544 3141 544 3541 
Q 544 4100 942 4425 
Q 1341 4750 2034 4750 
Q 2731 4750 3128 4425 
Q 3525 4100 3525 3541 
Q 3525 3141 3298 2862 
Q 3072 2584 2669 2484 
Q 3125 2378 3379 2068 
Q 3634 1759 3634 1313 
Q 3634 634 3220 271 
Q 2806 -91 2034 -91 
Q 1263 -91 848 271 
Q 434 634 434 1313 
Q 434 1759 690 2068 
Q 947 2378 1403 2484 
z
M 1172 3481 
Q 1172 3119 1398 2916 
Q 1625 2713 2034 2713 
Q 2441 2713 2670 2916 
Q 2900 3119 2900 3481 
Q 2900 3844 2670 4047 
Q 2441 4250 2034 4250 
Q 1625 4250 1398 4047 
Q 1172 3844 1172 3481 
z
" transform="scale(0.015625)"/>
       </defs>
       <use xlink:href="#DejaVuSans-38"/>
       <use xlink:href="#DejaVuSans-30" x="63.623047"/>
       <use xlink:href="#DejaVuSans-30" x="127.246094"/>
       <use xlink:href="#DejaVuSans-30" x="190.869141"/>
      </g>
     </g>
    </g>
    <g id="xtick_4">
     <g id="line2d_7">
      <path d="M 334.12507 384.48 
L 334.12507 51.84 
" clip-path="url(#pd095747d96)" style="fill: none; stroke: #b0b0b0; stroke-width: 0.8; stroke-linecap: square"/>
     </g>
     <g id="line2d_8">
      <g>
       <use xlink:href="#mc051160afd" x="334.12507" y="384.48" style="stroke: #000000; stroke-width: 0.8"/>
      </g>
     </g>
     <g id="text_4">
      <!-- 10000 -->
      <g transform="translate(318.21882 399.078438) scale(0.1 -0.1)">
       <defs>
        <path id="DejaVuSans-31" d="M 794 531 
L 1825 531 
L 1825 4091 
L 703 3866 
L 703 4441 
L 1819 4666 
L 2450 4666 
L 2450 531 
L 3481 531 
L 3481 0 
L 794 0 
L 794 531 
z
" transform="scale(0.015625)"/>
       </defs>
       <use xlink:href="#DejaVuSans-31"/>
       <use xlink:href="#DejaVuSans-30" x="63.623047"/>
       <use xlink:href="#DejaVuSans-30" x="127.246094"/>
       <use xlink:href="#DejaVuSans-30" x="190.869141"/>
       <use xlink:href="#DejaVuSans-30" x="254.492188"/>
      </g>
     </g>
    </g>
    <g id="xtick_5">
     <g id="line2d_9">
      <path d="M 402.424985 384.48 
L 402.424985 51.84 
" clip-path="url(#pd095747d96)" style="fill: none; stroke: #b0b0b0; stroke-width: 0.8; stroke-linecap: square"/>
     </g>
     <g id="line2d_10">
      <g>
       <use xlink:href="#mc051160afd" x="402.424985" y="384.48" style="stroke: #000000; stroke-width: 0.8"/>
      </g>
     </g>
     <g id="text_5">
      <!-- 12000 -->
      <g transform="translate(386.518735 399.078438) scale(0.1 -0.1)">
       <defs>
        <path id="DejaVuSans-32" d="M 1228 531 
L 3431 531 
L 3431 0 
L 469 0 
L 469 531 
Q 828 903 1448 1529 
Q 2069 2156 2228 2338 
Q 2531 2678 2651 2914 
Q 2772 3150 2772 3378 
Q 2772 3750 2511 3984 
Q 2250 4219 1831 4219 
Q 1534 4219 1204 4116 
Q 875 4013 500 3803 
L 500 4441 
Q 881 4594 1212 4672 
Q 1544 4750 1819 4750 
Q 2544 4750 2975 4387 
Q 3406 4025 3406 3419 
Q 3406 3131 3298 2873 
Q 3191 2616 2906 2266 
Q 2828 2175 2409 1742 
Q 1991 1309 1228 531 
z
" transform="scale(0.015625)"/>
       </defs>
       <use xlink:href="#DejaVuSans-31"/>
       <use xlink:href="#DejaVuSans-32" x="63.623047"/>
       <use xlink:href="#DejaVuSans-30" x="127.246094"/>
       <use xlink:href="#DejaVuSans-30" x="190.869141"/>
       <use xlink:href="#DejaVuSans-30" x="254.492188"/>
      </g>
     </g>
    </g>
    <g id="xtick_6">
     <g id="line2d_11">
      <path d="M 470.7249 384.48 
L 470.7249 51.84 
" clip-path="url(#pd095747d96)" style="fill: none; stroke: #b0b0b0; stroke-width: 0.8; stroke-linecap: square"/>
     </g>
     <g id="line2d_12">
      <g>
       <use xlink:href="#mc051160afd" x="470.7249" y="384.48" style="stroke: #000000; stroke-width: 0.8"/>
      </g>
     </g>
     <g id="text_6">
      <!-- 14000 -->
      <g transform="translate(454.81865 399.078438) scale(0.1 -0.1)">
       <use xlink:href="#DejaVuSans-31"/>
       <use xlink:href="#DejaVuSans-34" x="63.623047"/>
       <use xlink:href="#DejaVuSans-30" x="127.246094"/>
       <use xlink:href="#DejaVuSans-30" x="190.869141"/>
       <use xlink:href="#DejaVuSans-30" x="254.492188"/>
      </g>
     </g>
    </g>
    <g id="text_7">
     <!-- $\dot{W}_{comp}$ [W] -->
     <g transform="translate(262.6 426.358125) scale(0.2 -0.2)">
      <defs>
       <path id="DejaVuSans-307" d="M -1894 4863 
L -1319 4863 
L -1319 4134 
L -1894 4134 
L -1894 4863 
z
M -1600 3584 
L -1600 3584 
z
" transform="scale(0.015625)"/>
       <path id="DejaVuSans-Oblique-57" d="M 616 4666 
L 1228 4666 
L 1453 697 
L 3213 4666 
L 3916 4666 
L 4147 697 
L 5888 4666 
L 6528 4666 
L 4453 0 
L 3659 0 
L 3444 3891 
L 1697 0 
L 903 0 
L 616 4666 
z
" transform="scale(0.015625)"/>
       <path id="DejaVuSans-Oblique-63" d="M 3431 3366 
L 3316 2797 
Q 3109 2947 2876 3022 
Q 2644 3097 2394 3097 
Q 2119 3097 1870 3000 
Q 1622 2903 1453 2725 
Q 1184 2453 1037 2087 
Q 891 1722 891 1331 
Q 891 859 1127 628 
Q 1363 397 1844 397 
Q 2081 397 2348 469 
Q 2616 541 2906 684 
L 2797 116 
Q 2547 13 2283 -39 
Q 2019 -91 1741 -91 
Q 1044 -91 669 257 
Q 294 606 294 1253 
Q 294 1797 489 2255 
Q 684 2713 1069 3078 
Q 1331 3328 1684 3456 
Q 2038 3584 2456 3584 
Q 2700 3584 2940 3529 
Q 3181 3475 3431 3366 
z
" transform="scale(0.015625)"/>
       <path id="DejaVuSans-Oblique-6f" d="M 1625 -91 
Q 1009 -91 651 289 
Q 294 669 294 1325 
Q 294 1706 417 2101 
Q 541 2497 738 2766 
Q 1047 3184 1428 3384 
Q 1809 3584 2291 3584 
Q 2888 3584 3255 3212 
Q 3622 2841 3622 2241 
Q 3622 1825 3500 1412 
Q 3378 1000 3181 728 
Q 2875 309 2494 109 
Q 2113 -91 1625 -91 
z
M 891 1344 
Q 891 869 1089 633 
Q 1288 397 1691 397 
Q 2269 397 2648 901 
Q 3028 1406 3028 2181 
Q 3028 2634 2825 2865 
Q 2622 3097 2228 3097 
Q 1903 3097 1650 2945 
Q 1397 2794 1197 2484 
Q 1050 2253 970 1956 
Q 891 1659 891 1344 
z
" transform="scale(0.015625)"/>
       <path id="DejaVuSans-Oblique-6d" d="M 5747 2113 
L 5338 0 
L 4763 0 
L 5166 2094 
Q 5191 2228 5203 2325 
Q 5216 2422 5216 2491 
Q 5216 2772 5059 2928 
Q 4903 3084 4622 3084 
Q 4203 3084 3875 2770 
Q 3547 2456 3450 1953 
L 3066 0 
L 2491 0 
L 2900 2094 
Q 2925 2209 2937 2307 
Q 2950 2406 2950 2484 
Q 2950 2769 2794 2926 
Q 2638 3084 2363 3084 
Q 1938 3084 1609 2770 
Q 1281 2456 1184 1953 
L 800 0 
L 225 0 
L 909 3500 
L 1484 3500 
L 1375 2956 
Q 1609 3263 1923 3423 
Q 2238 3584 2597 3584 
Q 2978 3584 3223 3384 
Q 3469 3184 3519 2828 
Q 3781 3197 4126 3390 
Q 4472 3584 4856 3584 
Q 5306 3584 5551 3325 
Q 5797 3066 5797 2591 
Q 5797 2488 5784 2364 
Q 5772 2241 5747 2113 
z
" transform="scale(0.015625)"/>
       <path id="DejaVuSans-Oblique-70" d="M 3175 2156 
Q 3175 2616 2975 2859 
Q 2775 3103 2400 3103 
Q 2144 3103 1911 2972 
Q 1678 2841 1497 2591 
Q 1319 2344 1212 1994 
Q 1106 1644 1106 1300 
Q 1106 863 1306 627 
Q 1506 391 1875 391 
Q 2147 391 2380 519 
Q 2613 647 2778 891 
Q 2956 1147 3065 1494 
Q 3175 1841 3175 2156 
z
M 1394 2969 
Q 1625 3272 1939 3428 
Q 2253 3584 2638 3584 
Q 3175 3584 3472 3232 
Q 3769 2881 3769 2247 
Q 3769 1728 3584 1258 
Q 3400 788 3053 416 
Q 2822 169 2531 39 
Q 2241 -91 1919 -91 
Q 1547 -91 1294 64 
Q 1041 219 916 525 
L 556 -1331 
L -19 -1331 
L 922 3500 
L 1497 3500 
L 1394 2969 
z
" transform="scale(0.015625)"/>
       <path id="DejaVuSans-20" transform="scale(0.015625)"/>
       <path id="DejaVuSans-5b" d="M 550 4863 
L 1875 4863 
L 1875 4416 
L 1125 4416 
L 1125 -397 
L 1875 -397 
L 1875 -844 
L 550 -844 
L 550 4863 
z
" transform="scale(0.015625)"/>
       <path id="DejaVuSans-57" d="M 213 4666 
L 850 4666 
L 1831 722 
L 2809 4666 
L 3519 4666 
L 4500 722 
L 5478 4666 
L 6119 4666 
L 4947 0 
L 4153 0 
L 3169 4050 
L 2175 0 
L 1381 0 
L 213 4666 
z
" transform="scale(0.015625)"/>
       <path id="DejaVuSans-5d" d="M 1947 4863 
L 1947 -844 
L 622 -844 
L 622 -397 
L 1369 -397 
L 1369 4416 
L 622 4416 
L 622 4863 
L 1947 4863 
z
" transform="scale(0.015625)"/>
      </defs>
      <use xlink:href="#DejaVuSans-307" transform="translate(87.312988 30.015625)"/>
      <use xlink:href="#DejaVuSans-Oblique-57" transform="translate(0 0.609375)"/>
      <use xlink:href="#DejaVuSans-Oblique-63" transform="translate(99.833984 -15.796875) scale(0.7)"/>
      <use xlink:href="#DejaVuSans-Oblique-6f" transform="translate(138.320312 -15.796875) scale(0.7)"/>
      <use xlink:href="#DejaVuSans-Oblique-6d" transform="translate(181.147461 -15.796875) scale(0.7)"/>
      <use xlink:href="#DejaVuSans-Oblique-70" transform="translate(249.335938 -15.796875) scale(0.7)"/>
      <use xlink:href="#DejaVuSans-20" transform="translate(296.503906 0.609375)"/>
      <use xlink:href="#DejaVuSans-5b" transform="translate(328.291016 0.609375)"/>
      <use xlink:href="#DejaVuSans-57" transform="translate(367.304688 0.609375)"/>
      <use xlink:href="#DejaVuSans-5d" transform="translate(466.181641 0.609375)"/>
     </g>
    </g>
   </g>
   <g id="matplotlib.axis_2">
    <g id="ytick_1">
     <g id="line2d_13">
      <path d="M 90 384.48 
L 536.4 384.48 
" clip-path="url(#pd095747d96)" style="fill: none; stroke: #b0b0b0; stroke-width: 0.8; stroke-linecap: square"/>
     </g>
     <g id="line2d_14">
      <defs>
       <path id="me176c7d410" d="M 0 0 
L -3.5 0 
" style="stroke: #000000; stroke-width: 0.8"/>
      </defs>
      <g>
       <use xlink:href="#me176c7d410" x="90" y="384.48" style="stroke: #000000; stroke-width: 0.8"/>
      </g>
     </g>
     <g id="text_8">
      <!-- 10 -->
      <g transform="translate(70.275 388.279219) scale(0.1 -0.1)">
       <use xlink:href="#DejaVuSans-31"/>
       <use xlink:href="#DejaVuSans-30" x="63.623047"/>
      </g>
     </g>
    </g>
    <g id="ytick_2">
     <g id="line2d_15">
      <path d="M 90 342.9 
L 536.4 342.9 
" clip-path="url(#pd095747d96)" style="fill: none; stroke: #b0b0b0; stroke-width: 0.8; stroke-linecap: square"/>
     </g>
     <g id="line2d_16">
      <g>
       <use xlink:href="#me176c7d410" x="90" y="342.9" style="stroke: #000000; stroke-width: 0.8"/>
      </g>
     </g>
     <g id="text_9">
      <!-- 20 -->
      <g transform="translate(70.275 346.699219) scale(0.1 -0.1)">
       <use xlink:href="#DejaVuSans-32"/>
       <use xlink:href="#DejaVuSans-30" x="63.623047"/>
      </g>
     </g>
    </g>
    <g id="ytick_3">
     <g id="line2d_17">
      <path d="M 90 301.32 
L 536.4 301.32 
" clip-path="url(#pd095747d96)" style="fill: none; stroke: #b0b0b0; stroke-width: 0.8; stroke-linecap: square"/>
     </g>
     <g id="line2d_18">
      <g>
       <use xlink:href="#me176c7d410" x="90" y="301.32" style="stroke: #000000; stroke-width: 0.8"/>
      </g>
     </g>
     <g id="text_10">
      <!-- 30 -->
      <g transform="translate(70.275 305.119219) scale(0.1 -0.1)">
       <defs>
        <path id="DejaVuSans-33" d="M 2597 2516 
Q 3050 2419 3304 2112 
Q 3559 1806 3559 1356 
Q 3559 666 3084 287 
Q 2609 -91 1734 -91 
Q 1441 -91 1130 -33 
Q 819 25 488 141 
L 488 750 
Q 750 597 1062 519 
Q 1375 441 1716 441 
Q 2309 441 2620 675 
Q 2931 909 2931 1356 
Q 2931 1769 2642 2001 
Q 2353 2234 1838 2234 
L 1294 2234 
L 1294 2753 
L 1863 2753 
Q 2328 2753 2575 2939 
Q 2822 3125 2822 3475 
Q 2822 3834 2567 4026 
Q 2313 4219 1838 4219 
Q 1578 4219 1281 4162 
Q 984 4106 628 3988 
L 628 4550 
Q 988 4650 1302 4700 
Q 1616 4750 1894 4750 
Q 2613 4750 3031 4423 
Q 3450 4097 3450 3541 
Q 3450 3153 3228 2886 
Q 3006 2619 2597 2516 
z
" transform="scale(0.015625)"/>
       </defs>
       <use xlink:href="#DejaVuSans-33"/>
       <use xlink:href="#DejaVuSans-30" x="63.623047"/>
      </g>
     </g>
    </g>
    <g id="ytick_4">
     <g id="line2d_19">
      <path d="M 90 259.74 
L 536.4 259.74 
" clip-path="url(#pd095747d96)" style="fill: none; stroke: #b0b0b0; stroke-width: 0.8; stroke-linecap: square"/>
     </g>
     <g id="line2d_20">
      <g>
       <use xlink:href="#me176c7d410" x="90" y="259.74" style="stroke: #000000; stroke-width: 0.8"/>
      </g>
     </g>
     <g id="text_11">
      <!-- 40 -->
      <g transform="translate(70.275 263.539219) scale(0.1 -0.1)">
       <use xlink:href="#DejaVuSans-34"/>
       <use xlink:href="#DejaVuSans-30" x="63.623047"/>
      </g>
     </g>
    </g>
    <g id="ytick_5">
     <g id="line2d_21">
      <path d="M 90 218.16 
L 536.4 218.16 
" clip-path="url(#pd095747d96)" style="fill: none; stroke: #b0b0b0; stroke-width: 0.8; stroke-linecap: square"/>
     </g>
     <g id="line2d_22">
      <g>
       <use xlink:href="#me176c7d410" x="90" y="218.16" style="stroke: #000000; stroke-width: 0.8"/>
      </g>
     </g>
     <g id="text_12">
      <!-- 50 -->
      <g transform="translate(70.275 221.959219) scale(0.1 -0.1)">
       <defs>
        <path id="DejaVuSans-35" d="M 691 4666 
L 3169 4666 
L 3169 4134 
L 1269 4134 
L 1269 2991 
Q 1406 3038 1543 3061 
Q 1681 3084 1819 3084 
Q 2600 3084 3056 2656 
Q 3513 2228 3513 1497 
Q 3513 744 3044 326 
Q 2575 -91 1722 -91 
Q 1428 -91 1123 -41 
Q 819 9 494 109 
L 494 744 
Q 775 591 1075 516 
Q 1375 441 1709 441 
Q 2250 441 2565 725 
Q 2881 1009 2881 1497 
Q 2881 1984 2565 2268 
Q 2250 2553 1709 2553 
Q 1456 2553 1204 2497 
Q 953 2441 691 2322 
L 691 4666 
z
" transform="scale(0.015625)"/>
       </defs>
       <use xlink:href="#DejaVuSans-35"/>
       <use xlink:href="#DejaVuSans-30" x="63.623047"/>
      </g>
     </g>
    </g>
    <g id="ytick_6">
     <g id="line2d_23">
      <path d="M 90 176.58 
L 536.4 176.58 
" clip-path="url(#pd095747d96)" style="fill: none; stroke: #b0b0b0; stroke-width: 0.8; stroke-linecap: square"/>
     </g>
     <g id="line2d_24">
      <g>
       <use xlink:href="#me176c7d410" x="90" y="176.58" style="stroke: #000000; stroke-width: 0.8"/>
      </g>
     </g>
     <g id="text_13">
      <!-- 60 -->
      <g transform="translate(70.275 180.379219) scale(0.1 -0.1)">
       <use xlink:href="#DejaVuSans-36"/>
       <use xlink:href="#DejaVuSans-30" x="63.623047"/>
      </g>
     </g>
    </g>
    <g id="ytick_7">
     <g id="line2d_25">
      <path d="M 90 135 
L 536.4 135 
" clip-path="url(#pd095747d96)" style="fill: none; stroke: #b0b0b0; stroke-width: 0.8; stroke-linecap: square"/>
     </g>
     <g id="line2d_26">
      <g>
       <use xlink:href="#me176c7d410" x="90" y="135" style="stroke: #000000; stroke-width: 0.8"/>
      </g>
     </g>
     <g id="text_14">
      <!-- 70 -->
      <g transform="translate(70.275 138.799219) scale(0.1 -0.1)">
       <defs>
        <path id="DejaVuSans-37" d="M 525 4666 
L 3525 4666 
L 3525 4397 
L 1831 0 
L 1172 0 
L 2766 4134 
L 525 4134 
L 525 4666 
z
" transform="scale(0.015625)"/>
       </defs>
       <use xlink:href="#DejaVuSans-37"/>
       <use xlink:href="#DejaVuSans-30" x="63.623047"/>
      </g>
     </g>
    </g>
    <g id="ytick_8">
     <g id="line2d_27">
      <path d="M 90 93.42 
L 536.4 93.42 
" clip-path="url(#pd095747d96)" style="fill: none; stroke: #b0b0b0; stroke-width: 0.8; stroke-linecap: square"/>
     </g>
     <g id="line2d_28">
      <g>
       <use xlink:href="#me176c7d410" x="90" y="93.42" style="stroke: #000000; stroke-width: 0.8"/>
      </g>
     </g>
     <g id="text_15">
      <!-- 80 -->
      <g transform="translate(70.275 97.219219) scale(0.1 -0.1)">
       <use xlink:href="#DejaVuSans-38"/>
       <use xlink:href="#DejaVuSans-30" x="63.623047"/>
      </g>
     </g>
    </g>
    <g id="ytick_9">
     <g id="line2d_29">
      <path d="M 90 51.84 
L 536.4 51.84 
" clip-path="url(#pd095747d96)" style="fill: none; stroke: #b0b0b0; stroke-width: 0.8; stroke-linecap: square"/>
     </g>
     <g id="line2d_30">
      <g>
       <use xlink:href="#me176c7d410" x="90" y="51.84" style="stroke: #000000; stroke-width: 0.8"/>
      </g>
     </g>
     <g id="text_16">
      <!-- 90 -->
      <g transform="translate(70.275 55.639219) scale(0.1 -0.1)">
       <defs>
        <path id="DejaVuSans-39" d="M 703 97 
L 703 672 
Q 941 559 1184 500 
Q 1428 441 1663 441 
Q 2288 441 2617 861 
Q 2947 1281 2994 2138 
Q 2813 1869 2534 1725 
Q 2256 1581 1919 1581 
Q 1219 1581 811 2004 
Q 403 2428 403 3163 
Q 403 3881 828 4315 
Q 1253 4750 1959 4750 
Q 2769 4750 3195 4129 
Q 3622 3509 3622 2328 
Q 3622 1225 3098 567 
Q 2575 -91 1691 -91 
Q 1453 -91 1209 -44 
Q 966 3 703 97 
z
M 1959 2075 
Q 2384 2075 2632 2365 
Q 2881 2656 2881 3163 
Q 2881 3666 2632 3958 
Q 2384 4250 1959 4250 
Q 1534 4250 1286 3958 
Q 1038 3666 1038 3163 
Q 1038 2656 1286 2365 
Q 1534 2075 1959 2075 
z
" transform="scale(0.015625)"/>
       </defs>
       <use xlink:href="#DejaVuSans-39"/>
       <use xlink:href="#DejaVuSans-30" x="63.623047"/>
      </g>
     </g>
    </g>
    <g id="text_17">
     <!-- $T_{sto,LT}$ [C] -->
     <g transform="translate(61.275 269.96) rotate(-90) scale(0.2 -0.2)">
      <defs>
       <path id="DejaVuSans-Oblique-54" d="M 378 4666 
L 4325 4666 
L 4225 4134 
L 2559 4134 
L 1759 0 
L 1125 0 
L 1925 4134 
L 275 4134 
L 378 4666 
z
" transform="scale(0.015625)"/>
       <path id="DejaVuSans-Oblique-73" d="M 3200 3397 
L 3091 2853 
Q 2863 2978 2609 3040 
Q 2356 3103 2088 3103 
Q 1634 3103 1373 2948 
Q 1113 2794 1113 2528 
Q 1113 2219 1719 2053 
Q 1766 2041 1788 2034 
L 1972 1978 
Q 2547 1819 2739 1644 
Q 2931 1469 2931 1166 
Q 2931 609 2489 259 
Q 2047 -91 1331 -91 
Q 1053 -91 747 -37 
Q 441 16 72 128 
L 184 722 
Q 500 559 806 475 
Q 1113 391 1394 391 
Q 1816 391 2080 572 
Q 2344 753 2344 1031 
Q 2344 1331 1650 1516 
L 1591 1531 
L 1394 1581 
Q 956 1697 753 1886 
Q 550 2075 550 2369 
Q 550 2928 970 3256 
Q 1391 3584 2113 3584 
Q 2397 3584 2667 3537 
Q 2938 3491 3200 3397 
z
" transform="scale(0.015625)"/>
       <path id="DejaVuSans-Oblique-74" d="M 2706 3500 
L 2619 3053 
L 1472 3053 
L 1100 1153 
Q 1081 1047 1072 975 
Q 1063 903 1063 863 
Q 1063 663 1183 572 
Q 1303 481 1569 481 
L 2150 481 
L 2053 0 
L 1503 0 
Q 991 0 739 200 
Q 488 400 488 806 
Q 488 878 497 964 
Q 506 1050 525 1153 
L 897 3053 
L 409 3053 
L 500 3500 
L 978 3500 
L 1172 4494 
L 1747 4494 
L 1556 3500 
L 2706 3500 
z
" transform="scale(0.015625)"/>
       <path id="DejaVuSans-2c" d="M 750 794 
L 1409 794 
L 1409 256 
L 897 -744 
L 494 -744 
L 750 256 
L 750 794 
z
" transform="scale(0.015625)"/>
       <path id="DejaVuSans-Oblique-4c" d="M 1075 4666 
L 1709 4666 
L 909 525 
L 3181 525 
L 3078 0 
L 172 0 
L 1075 4666 
z
" transform="scale(0.015625)"/>
       <path id="DejaVuSans-b0" d="M 1600 4347 
Q 1350 4347 1178 4173 
Q 1006 4000 1006 3750 
Q 1006 3503 1178 3333 
Q 1350 3163 1600 3163 
Q 1850 3163 2022 3333 
Q 2194 3503 2194 3750 
Q 2194 3997 2020 4172 
Q 1847 4347 1600 4347 
z
M 1600 4750 
Q 1800 4750 1984 4673 
Q 2169 4597 2303 4453 
Q 2447 4313 2519 4134 
Q 2591 3956 2591 3750 
Q 2591 3338 2302 3052 
Q 2013 2766 1594 2766 
Q 1172 2766 890 3047 
Q 609 3328 609 3750 
Q 609 4169 896 4459 
Q 1184 4750 1600 4750 
z
" transform="scale(0.015625)"/>
       <path id="DejaVuSans-43" d="M 4122 4306 
L 4122 3641 
Q 3803 3938 3442 4084 
Q 3081 4231 2675 4231 
Q 1875 4231 1450 3742 
Q 1025 3253 1025 2328 
Q 1025 1406 1450 917 
Q 1875 428 2675 428 
Q 3081 428 3442 575 
Q 3803 722 4122 1019 
L 4122 359 
Q 3791 134 3420 21 
Q 3050 -91 2638 -91 
Q 1578 -91 968 557 
Q 359 1206 359 2328 
Q 359 3453 968 4101 
Q 1578 4750 2638 4750 
Q 3056 4750 3426 4639 
Q 3797 4528 4122 4306 
z
" transform="scale(0.015625)"/>
      </defs>
      <use xlink:href="#DejaVuSans-Oblique-54" transform="translate(0 0.015625)"/>
      <use xlink:href="#DejaVuSans-Oblique-73" transform="translate(61.083984 -16.390625) scale(0.7)"/>
      <use xlink:href="#DejaVuSans-Oblique-74" transform="translate(97.553711 -16.390625) scale(0.7)"/>
      <use xlink:href="#DejaVuSans-Oblique-6f" transform="translate(125 -16.390625) scale(0.7)"/>
      <use xlink:href="#DejaVuSans-2c" transform="translate(167.827148 -16.390625) scale(0.7)"/>
      <use xlink:href="#DejaVuSans-Oblique-4c" transform="translate(203.71582 -16.390625) scale(0.7)"/>
      <use xlink:href="#DejaVuSans-Oblique-54" transform="translate(242.714844 -16.390625) scale(0.7)"/>
      <use xlink:href="#DejaVuSans-20" transform="translate(288.208008 0.015625)"/>
      <use xlink:href="#DejaVuSans-5b" transform="translate(319.995117 0.015625)"/>
      <use xlink:href="#DejaVuSans-b0" transform="translate(359.008789 0.015625)"/>
      <use xlink:href="#DejaVuSans-43" transform="translate(409.008789 0.015625)"/>
      <use xlink:href="#DejaVuSans-5d" transform="translate(478.833008 0.015625)"/>
     </g>
    </g>
   </g>
   <g id="QuadContourSet_2">
    <path clip-path="url(#pd095747d96)" style="fill: none; stroke: #000000; stroke-width: 1.5"/>
    <path clip-path="url(#pd095747d96)" style="fill: none; stroke: #000000; stroke-width: 1.5"/>
    <path clip-path="url(#pd095747d96)" style="fill: none; stroke: #000000; stroke-width: 1.5"/>
    <path d="M 391.168974 51.84 
L 387.6 52.916198 
L 384.095583 53.299884 
" clip-path="url(#pd095747d96)" style="fill: none; stroke: #000000; stroke-width: 1.5"/>
    <path d="M 426.486994 51.84 
L 423.672727 53.452111 
L 420.621434 55.2 
L 419.664946 55.74791 
M 409.846804 61.37209 
L 408.890316 61.92 
L 405.636364 63.783979 
L 403.024756 65.28 
L 401.127273 66.366946 
L 396.791509 68.64 
L 396.618182 68.737205 
L 392.109091 70.15341 
L 387.6 71.513093 
L 385.98528 72 
L 383.090909 72.872776 
L 378.581818 74.23246 
L 374.842579 75.36 
L 374.072727 75.592143 
L 369.563636 76.951826 
L 365.054545 78.31151 
L 363.704609 78.72 
L 360.545455 79.674605 
L 356.036364 81.050605 
L 352.674062 82.08 
L 351.527273 82.431098 
L 347.018182 83.811592 
L 342.509091 85.192085 
L 341.699329 85.44 
L 338 86.572578 
L 333.490909 87.953072 
L 330.724596 88.8 
L 328.981818 89.333565 
L 324.472727 90.707146 
L 319.963636 92.073128 
L 319.676873 92.16 
L 315.454545 93.43911 
L 310.945455 94.805092 
L 308.58555 95.52 
L 306.436364 96.171073 
L 301.927273 97.537055 
L 297.494227 98.88 
L 297.418182 98.903037 
L 292.909091 100.218368 
L 288.4 101.061826 
L 284.413247 102.24 
L 283.890909 102.351118 
L 283.51403 102.24 
L 283.073032 98.88 
L 282.632035 95.52 
L 282.34556 92.16 
L 282.292207 89.991291 
" clip-path="url(#pd095747d96)" style="fill: none; stroke: #000000; stroke-width: 1.5"/>
    <path d="M 428.519466 61.668398 
L 428.181818 61.861815 
L 428.080244 61.92 
L 427.123755 62.46791 
M 417.305613 68.09209 
L 416.349125 68.64 
L 414.654545 69.610715 
L 410.483566 72 
L 410.145455 72.193682 
L 405.636364 74.776649 
L 404.618006 75.36 
L 401.127273 77.359616 
L 398.752447 78.72 
L 396.618182 79.942582 
L 392.886887 82.08 
L 392.109091 82.525549 
L 387.6 85.108516 
L 387.021328 85.44 
L 383.090909 87.691483 
L 381.155768 88.8 
L 378.581818 90.27445 
L 375.290209 92.16 
L 374.072727 92.857417 
L 369.563636 95.391555 
L 369.164885 95.52 
L 365.054545 96.908405 
L 360.545455 98.268088 
L 358.516183 98.88 
L 356.036364 99.627771 
L 351.527273 100.987455 
L 347.373481 102.24 
L 347.018182 102.347138 
L 342.509091 103.706821 
L 338 105.067541 
L 336.2503 105.6 
L 333.490909 106.437576 
L 328.981818 107.816704 
L 325.247482 108.96 
L 324.472727 109.197197 
L 319.963636 110.577691 
L 315.454545 111.958184 
L 314.272749 112.32 
L 310.945455 113.338677 
L 306.436364 114.717864 
L 303.271388 115.68 
L 301.927273 116.089464 
L 297.418182 117.455563 
L 292.909091 118.821544 
L 292.187971 119.04 
L 288.4 120.187526 
L 283.890909 121.553508 
L 281.096648 122.4 
L 279.381818 122.91949 
L 274.872727 124.246712 
L 270.363636 125.537294 
L 269.585537 125.76 
L 265.854545 126.827876 
L 261.345455 128.118459 
L 257.846227 129.12 
L 256.836364 129.409041 
L 252.327273 130.680626 
L 247.818182 131.827113 
L 245.165599 132.48 
L 243.309091 132.936947 
L 238.8 134.04678 
L 234.290909 135.156613 
L 231.514409 135.84 
L 229.781818 136.266447 
L 228.360709 135.84 
L 227.040181 132.48 
L 226.976043 129.12 
L 226.982419 125.76 
L 226.98998 124.48037 
" clip-path="url(#pd095747d96)" style="fill: none; stroke: #000000; stroke-width: 1.5"/>
    <path d="M 396.618182 90.935252 
L 394.480137 92.16 
L 392.541798 93.270349 
M 382.658202 98.932023 
L 378.581818 101.26712 
L 376.883459 102.24 
L 374.072727 103.850087 
L 371.0179 105.6 
L 369.563636 106.433053 
L 365.15234 108.96 
L 365.054545 109.01602 
L 360.545455 111.598987 
L 359.286781 112.32 
L 356.036364 114.181954 
L 353.421221 115.68 
L 351.527273 116.764921 
L 347.555662 119.04 
L 347.018182 119.347888 
L 342.509091 121.742741 
L 340.769357 122.4 
L 338 123.659043 
L 333.490909 125.023083 
L 331.047086 125.76 
L 328.981818 126.382766 
L 324.472727 127.74245 
L 319.963636 129.102133 
L 319.904384 129.12 
L 315.454545 130.461816 
L 310.945455 131.824804 
L 308.801995 132.48 
L 306.436364 133.202309 
L 301.927273 134.582803 
L 297.820902 135.84 
L 297.418182 135.963296 
L 292.909091 137.343789 
L 288.4 138.724283 
L 286.843767 139.2 
L 283.890909 140.103218 
L 279.381818 141.472015 
L 275.790392 142.56 
L 274.872727 142.837997 
L 270.363636 144.203979 
L 265.854545 145.569961 
L 264.699069 145.92 
L 261.345455 146.935942 
L 256.836364 148.275056 
L 253.325247 149.28 
L 252.327273 149.565638 
L 247.818182 150.85622 
L 243.309091 152.146803 
L 241.585938 152.64 
L 238.8 153.437385 
L 234.290909 154.671764 
L 229.781818 155.781597 
L 228.89448 156 
L 225.272727 156.891431 
L 220.763636 158.001264 
L 216.254545 159.10497 
L 214.862339 159.36 
L 211.745455 159.949383 
L 207.236364 160.693633 
L 202.727273 161.437883 
L 198.218182 162.182132 
L 193.709091 162.368288 
L 191.057397 159.36 
L 190.687243 156 
L 190.429539 152.64 
L 190.378055 151.762159 
" clip-path="url(#pd095747d96)" style="fill: none; stroke: #000000; stroke-width: 1.5"/>
    <path d="M 359.433276 123.228752 
L 356.036364 125.174624 
L 355.014471 125.76 
L 354.057983 126.30791 
M 344.239841 131.93209 
L 343.283353 132.48 
L 342.509091 132.923525 
L 338 135.506491 
L 337.417793 135.84 
L 333.490909 138.089458 
L 331.552234 139.2 
L 328.981818 140.672425 
L 325.686674 142.56 
L 324.472727 143.255392 
L 319.963636 145.83206 
L 319.77358 145.92 
L 315.454545 148.216929 
L 312.926545 149.28 
L 310.945455 150.259362 
L 306.436364 151.778078 
L 303.577988 152.64 
L 301.927273 153.137761 
L 297.418182 154.497444 
L 292.909091 155.857128 
L 292.435287 156 
L 288.4 157.216811 
L 283.890909 158.587915 
L 281.369056 159.36 
L 279.381818 159.968408 
L 274.872727 161.348902 
L 270.394323 162.72 
L 270.363636 162.729395 
L 265.854545 164.109888 
L 261.345455 165.488221 
L 259.392253 166.08 
L 256.836364 166.85445 
L 252.327273 168.220432 
L 248.30149 169.44 
L 247.818182 169.586413 
L 243.309091 170.952395 
L 238.8 172.3034 
L 237.064957 172.8 
L 234.290909 173.593982 
L 229.781818 174.884564 
L 225.325648 176.16 
L 225.272727 176.175147 
L 220.763636 177.465729 
L 216.254545 178.626248 
L 212.623361 179.52 
L 211.745455 179.736081 
L 207.236364 180.845914 
L 202.727273 181.95112 
L 198.218182 182.822765 
L 197.871422 182.88 
L 193.709091 183.567015 
L 189.2 184.311265 
L 184.690909 184.990102 
L 180.181818 185.104119 
L 175.672727 185.15218 
L 171.163636 185.200242 
L 166.654545 184.359114 
L 165.275571 182.88 
L 164.921368 179.52 
L 164.632596 176.16 
L 164.482002 174.418895 
" clip-path="url(#pd095747d96)" style="fill: none; stroke: #000000; stroke-width: 1.5"/>
    <path d="M 328.981818 151.665095 
L 327.279924 152.64 
L 324.905434 154.000192 
M 315.021838 159.661866 
L 310.945455 161.996962 
L 309.683246 162.72 
L 306.436364 164.579929 
L 303.817687 166.08 
L 301.927273 167.162896 
L 297.952127 169.44 
L 297.418182 169.745863 
L 292.909091 172.32883 
L 291.965928 172.8 
L 288.4 174.775677 
L 285.353118 176.16 
L 283.890909 176.92696 
L 279.381818 178.533073 
L 276.108891 179.52 
L 274.872727 179.892756 
L 270.363636 181.252439 
L 265.854545 182.612123 
L 264.971673 182.88 
L 261.345455 183.977492 
L 256.836364 185.354014 
L 253.942476 186.24 
L 252.327273 186.734507 
L 247.818182 188.115 
L 243.309091 189.495407 
L 242.965293 189.6 
L 238.8 190.869867 
L 234.290909 192.236884 
L 231.903912 192.96 
L 229.781818 193.602866 
L 225.272727 194.968848 
L 220.80185 196.32 
L 220.763636 196.33156 
L 216.254545 197.622326 
L 211.745455 198.912908 
L 209.065358 199.68 
L 207.236364 200.203491 
L 202.727273 201.455041 
L 198.218182 202.580732 
L 196.352242 203.04 
L 193.709091 203.690565 
L 189.2 204.800398 
L 184.690909 205.696147 
L 180.426566 206.4 
L 180.181818 206.440397 
L 175.672727 207.184647 
L 171.163636 207.661534 
L 166.654545 207.709595 
L 162.145455 207.757656 
L 157.636364 207.171049 
L 154.853747 206.4 
L 153.127273 205.921603 
L 148.618182 204.672157 
L 146.702872 203.04 
L 145.396296 199.68 
L 145.0903 196.32 
L 144.898827 192.96 
L 144.91964 192.35601 
" clip-path="url(#pd095747d96)" style="fill: none; stroke: #000000; stroke-width: 1.5"/>
    <path d="M 290.347086 184.789107 
L 288.4 185.904467 
L 287.814259 186.24 
L 286.890497 186.769163 
M 277.006901 192.430837 
L 276.08314 192.96 
L 274.872727 193.653367 
L 270.363636 196.236334 
L 270.21758 196.32 
L 265.854545 198.819301 
L 264.343392 199.68 
L 261.345455 201.395047 
L 257.931138 203.04 
L 256.836364 203.640166 
L 252.327273 205.288068 
L 248.639794 206.4 
L 247.818182 206.647751 
L 243.309091 208.007434 
L 238.8 209.368309 
L 237.514905 209.76 
L 234.290909 210.74015 
L 229.781818 212.120113 
L 226.515896 213.12 
L 225.272727 213.500606 
L 220.763636 214.880931 
L 216.254545 216.253337 
L 215.506333 216.48 
L 211.745455 217.619319 
L 207.236364 218.9853 
L 204.41501 219.84 
L 202.727273 220.351282 
L 198.218182 221.65067 
L 193.709091 222.941252 
L 192.805068 223.2 
L 189.2 224.231835 
L 184.690909 225.425382 
L 180.181818 226.535216 
L 180.081123 226.56 
L 175.672727 227.645049 
L 171.163636 228.569529 
L 166.654545 229.313779 
L 162.981711 229.92 
L 162.145455 230.058029 
L 157.636364 230.26701 
L 153.127273 230.315071 
L 148.618182 229.982984 
L 148.390881 229.92 
L 144.109091 228.733538 
L 139.6 227.316429 
L 138.571975 226.56 
L 135.090909 223.753605 
L 134.404215 223.2 
L 130.581818 220.118428 
L 130.448055 219.84 
L 129.877796 216.48 
L 129.857795 213.12 
L 129.858176 210.29923 
" clip-path="url(#pd095747d96)" style="fill: none; stroke: #000000; stroke-width: 1.5"/>
    <path d="M 256.836364 214.977904 
L 254.214152 216.48 
L 252.327273 217.560871 
L 248.348593 219.84 
L 247.818182 220.143838 
L 243.309091 222.726805 
L 242.483033 223.2 
L 238.8 225.309772 
L 236.617474 226.56 
L 234.290909 227.892739 
L 230.602744 229.92 
L 229.781818 230.385716 
L 225.272727 232.043063 
L 221.170696 233.28 
L 220.763636 233.402746 
L 216.254545 234.762429 
L 211.745455 236.125272 
L 210.064164 236.64 
L 207.236364 237.505718 
L 202.727273 238.886211 
L 199.089317 240 
L 198.218182 240.266705 
L 193.709091 241.635771 
L 192.423077 242.025356 
M 176.939244 246.607097 
L 176.544778 246.72 
L 175.672727 246.969596 
L 171.163636 248.237307 
L 166.654545 249.379866 
L 163.810004 250.08 
L 162.145455 250.489699 
L 157.636364 251.442911 
L 153.127273 252.187161 
L 148.618182 252.824425 
L 144.109091 252.872486 
L 139.6 252.794919 
L 135.090909 251.545473 
L 131.292311 250.08 
L 130.581818 249.759008 
L 126.812218 246.72 
L 126.072727 246.123831 
L 123.668382 243.36 
L 121.563636 240.438844 
L 121.311331 240 
L 119.379563 236.64 
L 118.316635 233.28 
L 117.866008 229.92 
L 117.788902 226.56 
L 117.757774 226.035981 
" clip-path="url(#pd095747d96)" style="fill: none; stroke: #000000; stroke-width: 1.5"/>
    <path d="M 221.260897 246.349461 
L 220.763636 246.634309 
L 220.614046 246.72 
L 216.254545 249.217276 
L 214.748486 250.08 
L 211.745455 251.800243 
L 210.282792 252.638107 
M 195.368304 259.657417 
L 193.709091 260.157741 
L 193.701608 260.16 
L 189.2 261.518449 
L 184.690909 262.891324 
L 182.63747 263.52 
L 180.181818 264.271817 
L 175.672727 265.649358 
L 171.618347 266.88 
L 171.163636 267.018206 
L 166.654545 268.384188 
L 162.145455 269.707358 
L 160.284488 270.24 
L 157.636364 270.99794 
L 153.127273 272.224517 
L 148.618182 273.33435 
L 147.347784 273.6 
L 144.109091 274.312645 
L 139.6 275.060543 
L 135.090909 275.429901 
L 130.581818 275.433885 
L 126.072727 274.357408 
L 124.376423 273.6 
L 121.563636 272.129234 
L 119.220221 270.24 
L 117.054545 268.278609 
L 116.190338 266.88 
L 114.25857 263.52 
L 112.545455 260.54031 
L 112.414718 260.16 
L 111.371599 256.8 
L 110.495546 253.44 
L 109.749399 250.08 
L 109.185289 246.72 
L 108.621615 243.36 
L 108.057941 240 
L 108.056736 239.98482 
" clip-path="url(#pd095747d96)" style="fill: none; stroke: #000000; stroke-width: 1.5"/>
    <path d="M 184.690909 278.290714 
L 181.14838 280.32 
L 180.181818 280.873681 
L 175.672727 283.381357 
L 174.915792 283.68 
L 171.163636 285.445118 
L 169.863671 285.868269 
M 154.416616 290.639554 
L 153.127273 291.033346 
L 148.618182 292.40064 
L 144.109091 293.735702 
L 144.024154 293.76 
L 139.6 295.02587 
L 135.090909 296.179001 
L 130.876832 297.12 
L 130.581818 297.187959 
L 126.072727 297.921045 
L 121.563636 298.035377 
L 117.054545 297.169343 
L 116.957263 297.12 
L 112.545455 294.499461 
L 111.892795 293.76 
L 109.294442 290.4 
L 108.036364 288.484616 
L 107.499867 287.04 
L 106.41868 283.68 
L 105.522188 280.32 
L 104.76679 276.96 
L 104.131158 273.6 
L 103.527273 271.23513 
L 103.195599 270.24 
L 102.167958 266.88 
L 101.349424 263.52 
L 100.682066 260.16 
L 100.114262 256.8 
L 99.991738 256.074544 
" clip-path="url(#pd095747d96)" style="fill: none; stroke: #000000; stroke-width: 1.5"/>
    <path d="M 152.174707 307.909815 
L 148.618182 309.831965 
L 146.9394 310.56 
L 144.109091 311.992741 
L 139.6 313.66877 
L 138.777038 313.92 
L 135.409526 314.945957 
M 119.903587 319.39864 
L 117.054545 320.063057 
L 112.545455 320.592791 
L 108.036364 319.981278 
L 104.34895 317.28 
L 103.527273 316.428921 
L 102.514139 313.92 
L 101.396042 310.56 
L 100.482574 307.2 
L 99.396311 303.84 
L 99.018182 302.715781 
L 98.41112 300.48 
L 97.583673 297.12 
L 96.844687 293.76 
L 96.239064 290.4 
L 95.783907 287.04 
L 95.341243 283.68 
L 94.815747 280.32 
L 94.509091 278.453128 
" clip-path="url(#pd095747d96)" style="fill: none; stroke: #000000; stroke-width: 1.5"/>
    <path d="M 117.054545 338.616975 
L 112.545455 340.427938 
L 111.299172 340.8 
L 111.299061 340.800034 
M 96.961537 339.251387 
L 96.00431 337.44 
L 94.509091 334.263859 
" clip-path="url(#pd095747d96)" style="fill: none; stroke: #000000; stroke-width: 1.5"/>
    <path clip-path="url(#pd095747d96)" style="fill: none; stroke: #000000; stroke-width: 1.5"/>
    <path clip-path="url(#pd095747d96)" style="fill: none; stroke: #000000; stroke-width: 1.5"/>
    <path clip-path="url(#pd095747d96)" style="fill: none; stroke: #000000; stroke-width: 1.5"/>
    <path clip-path="url(#pd095747d96)" style="fill: none; stroke: #000000; stroke-width: 1.5"/>
    <path clip-path="url(#pd095747d96)" style="fill: none; stroke: #000000; stroke-width: 1.5"/>
   </g>
   <g id="patch_3">
    <path d="M 90 384.48 
L 90 51.84 
" style="fill: none; stroke: #000000; stroke-width: 0.8; stroke-linejoin: miter; stroke-linecap: square"/>
   </g>
   <g id="patch_4">
    <path d="M 536.4 384.48 
L 536.4 51.84 
" style="fill: none; stroke: #000000; stroke-width: 0.8; stroke-linejoin: miter; stroke-linecap: square"/>
   </g>
   <g id="patch_5">
    <path d="M 90 384.48 
L 536.4 384.48 
" style="fill: none; stroke: #000000; stroke-width: 0.8; stroke-linejoin: miter; stroke-linecap: square"/>
   </g>
   <g id="patch_6">
    <path d="M 90 51.84 
L 536.4 51.84 
" style="fill: none; stroke: #000000; stroke-width: 0.8; stroke-linejoin: miter; stroke-linecap: square"/>
   </g>
   <g id="text_18">
    <g clip-path="url(#pd095747d96)">
     <!-- 3 -->
     <g transform="translate(375.256106 57.241349) rotate(-348.057421) scale(0.1 -0.1)">
      <use xlink:href="#DejaVuSans-33"/>
     </g>
    </g>
   </g>
   <g id="text_19">
    <g clip-path="url(#pd095747d96)">
     <!-- 4 -->
     <g transform="translate(413.013413 62.39384) rotate(-24.620486) scale(0.1 -0.1)">
      <use xlink:href="#DejaVuSans-34"/>
     </g>
    </g>
   </g>
   <g id="text_20">
    <g clip-path="url(#pd095747d96)">
     <!-- 5 -->
     <g transform="translate(420.472222 69.11384) rotate(-24.620486) scale(0.1 -0.1)">
      <use xlink:href="#DejaVuSans-35"/>
     </g>
    </g>
   </g>
   <g id="text_21">
    <g clip-path="url(#pd095747d96)">
     <!-- 6 -->
     <g transform="translate(385.857538 99.935026) rotate(-24.620486) scale(0.1 -0.1)">
      <use xlink:href="#DejaVuSans-36"/>
     </g>
    </g>
   </g>
   <g id="text_22">
    <g clip-path="url(#pd095747d96)">
     <!-- 7 -->
     <g transform="translate(347.40645 132.95384) rotate(-24.620486) scale(0.1 -0.1)">
      <use xlink:href="#DejaVuSans-37"/>
     </g>
    </g>
   </g>
   <g id="text_23">
    <g clip-path="url(#pd095747d96)">
     <!-- 8 -->
     <g transform="translate(318.221174 160.664869) rotate(-24.620486) scale(0.1 -0.1)">
      <use xlink:href="#DejaVuSans-38"/>
     </g>
    </g>
   </g>
   <g id="text_24">
    <g clip-path="url(#pd095747d96)">
     <!-- 9 -->
     <g transform="translate(280.206237 193.43384) rotate(-24.620486) scale(0.1 -0.1)">
      <use xlink:href="#DejaVuSans-39"/>
     </g>
    </g>
   </g>
   <g id="text_25">
    <g clip-path="url(#pd095747d96)">
     <!-- 10 -->
     <g transform="translate(179.137554 248.521745) rotate(-13.351089) scale(0.1 -0.1)">
      <use xlink:href="#DejaVuSans-31"/>
      <use xlink:href="#DejaVuSans-30" x="63.623047"/>
     </g>
    </g>
   </g>
   <g id="text_26">
    <g clip-path="url(#pd095747d96)">
     <!-- 11 -->
     <g transform="translate(198.108642 261.698976) rotate(-21.496976) scale(0.1 -0.1)">
      <use xlink:href="#DejaVuSans-31"/>
      <use xlink:href="#DejaVuSans-31" x="63.623047"/>
     </g>
    </g>
   </g>
   <g id="text_27">
    <g clip-path="url(#pd095747d96)">
     <!-- 12 -->
     <g transform="translate(156.619236 292.470111) rotate(-13.723759) scale(0.1 -0.1)">
      <use xlink:href="#DejaVuSans-31"/>
      <use xlink:href="#DejaVuSans-32" x="63.623047"/>
     </g>
    </g>
   </g>
   <g id="text_28">
    <g clip-path="url(#pd095747d96)">
     <!-- 13 -->
     <g transform="translate(122.108949 321.415936) rotate(-13.164839) scale(0.1 -0.1)">
      <use xlink:href="#DejaVuSans-31"/>
      <use xlink:href="#DejaVuSans-33" x="63.623047"/>
     </g>
    </g>
   </g>
   <g id="text_29">
    <g clip-path="url(#pd095747d96)">
     <!-- 14 -->
     <g transform="translate(97.284058 345.939317) rotate(-2.364983) scale(0.1 -0.1)">
      <use xlink:href="#DejaVuSans-31"/>
      <use xlink:href="#DejaVuSans-34" x="63.623047"/>
     </g>
    </g>
   </g>
  </g>
  <g id="axes_2">
   <g id="patch_7">
    <path d="M 564.3 384.48 
L 580.932 384.48 
L 580.932 51.84 
L 564.3 51.84 
z
" style="fill: #ffffff"/>
   </g>
   <g id="QuadMesh_1">
    <path d="M 564.3 384.48 
L 580.932 384.48 
L 580.932 366.972632 
L 564.3 366.972632 
L 564.3 384.48 
" clip-path="url(#pf267ab01fa)" style="fill: #460a5d"/>
    <path d="M 564.3 366.972632 
L 580.932 366.972632 
L 580.932 349.465263 
L 564.3 349.465263 
L 564.3 366.972632 
" clip-path="url(#pf267ab01fa)" style="fill: #481d6f"/>
    <path d="M 564.3 349.465263 
L 580.932 349.465263 
L 580.932 331.957895 
L 564.3 331.957895 
L 564.3 349.465263 
" clip-path="url(#pf267ab01fa)" style="fill: #472e7c"/>
    <path d="M 564.3 331.957895 
L 580.932 331.957895 
L 580.932 314.450526 
L 564.3 314.450526 
L 564.3 331.957895 
" clip-path="url(#pf267ab01fa)" style="fill: #423f85"/>
    <path d="M 564.3 314.450526 
L 580.932 314.450526 
L 580.932 296.943158 
L 564.3 296.943158 
L 564.3 314.450526 
" clip-path="url(#pf267ab01fa)" style="fill: #3d4e8a"/>
    <path d="M 564.3 296.943158 
L 580.932 296.943158 
L 580.932 279.435789 
L 564.3 279.435789 
L 564.3 296.943158 
" clip-path="url(#pf267ab01fa)" style="fill: #365d8d"/>
    <path d="M 564.3 279.435789 
L 580.932 279.435789 
L 580.932 261.928421 
L 564.3 261.928421 
L 564.3 279.435789 
" clip-path="url(#pf267ab01fa)" style="fill: #306a8e"/>
    <path d="M 564.3 261.928421 
L 580.932 261.928421 
L 580.932 244.421053 
L 564.3 244.421053 
L 564.3 261.928421 
" clip-path="url(#pf267ab01fa)" style="fill: #2a778e"/>
    <path d="M 564.3 244.421053 
L 580.932 244.421053 
L 580.932 226.913684 
L 564.3 226.913684 
L 564.3 244.421053 
" clip-path="url(#pf267ab01fa)" style="fill: #25838e"/>
    <path d="M 564.3 226.913684 
L 580.932 226.913684 
L 580.932 209.406316 
L 564.3 209.406316 
L 564.3 226.913684 
" clip-path="url(#pf267ab01fa)" style="fill: #21918c"/>
    <path d="M 564.3 209.406316 
L 580.932 209.406316 
L 580.932 191.898947 
L 564.3 191.898947 
L 564.3 209.406316 
" clip-path="url(#pf267ab01fa)" style="fill: #1e9d89"/>
    <path d="M 564.3 191.898947 
L 580.932 191.898947 
L 580.932 174.391579 
L 564.3 174.391579 
L 564.3 191.898947 
" clip-path="url(#pf267ab01fa)" style="fill: #23a983"/>
    <path d="M 564.3 174.391579 
L 580.932 174.391579 
L 580.932 156.884211 
L 564.3 156.884211 
L 564.3 174.391579 
" clip-path="url(#pf267ab01fa)" style="fill: #32b67a"/>
    <path d="M 564.3 156.884211 
L 580.932 156.884211 
L 580.932 139.376842 
L 564.3 139.376842 
L 564.3 156.884211 
" clip-path="url(#pf267ab01fa)" style="fill: #48c16e"/>
    <path d="M 564.3 139.376842 
L 580.932 139.376842 
L 580.932 121.869474 
L 564.3 121.869474 
L 564.3 139.376842 
" clip-path="url(#pf267ab01fa)" style="fill: #65cb5e"/>
    <path d="M 564.3 121.869474 
L 580.932 121.869474 
L 580.932 104.362105 
L 564.3 104.362105 
L 564.3 121.869474 
" clip-path="url(#pf267ab01fa)" style="fill: #84d44b"/>
    <path d="M 564.3 104.362105 
L 580.932 104.362105 
L 580.932 86.854737 
L 564.3 86.854737 
L 564.3 104.362105 
" clip-path="url(#pf267ab01fa)" style="fill: #a8db34"/>
    <path d="M 564.3 86.854737 
L 580.932 86.854737 
L 580.932 69.347368 
L 564.3 69.347368 
L 564.3 86.854737 
" clip-path="url(#pf267ab01fa)" style="fill: #cae11f"/>
    <path d="M 564.3 69.347368 
L 580.932 69.347368 
L 580.932 51.84 
L 564.3 51.84 
L 564.3 69.347368 
" clip-path="url(#pf267ab01fa)" style="fill: #efe51c"/>
   </g>
   <g id="matplotlib.axis_3"/>
   <g id="matplotlib.axis_4">
    <g id="ytick_10">
     <g id="line2d_31">
      <defs>
       <path id="mb6fbb70aea" d="M 0 0 
L 3.5 0 
" style="stroke: #000000; stroke-width: 0.8"/>
      </defs>
      <g>
       <use xlink:href="#mb6fbb70aea" x="580.932" y="384.48" style="stroke: #000000; stroke-width: 0.8"/>
      </g>
     </g>
     <g id="text_30">
      <!-- 0 -->
      <g transform="translate(587.932 388.279219) scale(0.1 -0.1)">
       <use xlink:href="#DejaVuSans-30"/>
      </g>
     </g>
    </g>
    <g id="ytick_11">
     <g id="line2d_32">
      <g>
       <use xlink:href="#mb6fbb70aea" x="580.932" y="349.465263" style="stroke: #000000; stroke-width: 0.8"/>
      </g>
     </g>
     <g id="text_31">
      <!-- 2 -->
      <g transform="translate(587.932 353.264482) scale(0.1 -0.1)">
       <use xlink:href="#DejaVuSans-32"/>
      </g>
     </g>
    </g>
    <g id="ytick_12">
     <g id="line2d_33">
      <g>
       <use xlink:href="#mb6fbb70aea" x="580.932" y="314.450526" style="stroke: #000000; stroke-width: 0.8"/>
      </g>
     </g>
     <g id="text_32">
      <!-- 4 -->
      <g transform="translate(587.932 318.249745) scale(0.1 -0.1)">
       <use xlink:href="#DejaVuSans-34"/>
      </g>
     </g>
    </g>
    <g id="ytick_13">
     <g id="line2d_34">
      <g>
       <use xlink:href="#mb6fbb70aea" x="580.932" y="279.435789" style="stroke: #000000; stroke-width: 0.8"/>
      </g>
     </g>
     <g id="text_33">
      <!-- 6 -->
      <g transform="translate(587.932 283.235008) scale(0.1 -0.1)">
       <use xlink:href="#DejaVuSans-36"/>
      </g>
     </g>
    </g>
    <g id="ytick_14">
     <g id="line2d_35">
      <g>
       <use xlink:href="#mb6fbb70aea" x="580.932" y="244.421053" style="stroke: #000000; stroke-width: 0.8"/>
      </g>
     </g>
     <g id="text_34">
      <!-- 8 -->
      <g transform="translate(587.932 248.220271) scale(0.1 -0.1)">
       <use xlink:href="#DejaVuSans-38"/>
      </g>
     </g>
    </g>
    <g id="ytick_15">
     <g id="line2d_36">
      <g>
       <use xlink:href="#mb6fbb70aea" x="580.932" y="209.406316" style="stroke: #000000; stroke-width: 0.8"/>
      </g>
     </g>
     <g id="text_35">
      <!-- 10 -->
      <g transform="translate(587.932 213.205535) scale(0.1 -0.1)">
       <use xlink:href="#DejaVuSans-31"/>
       <use xlink:href="#DejaVuSans-30" x="63.623047"/>
      </g>
     </g>
    </g>
    <g id="ytick_16">
     <g id="line2d_37">
      <g>
       <use xlink:href="#mb6fbb70aea" x="580.932" y="174.391579" style="stroke: #000000; stroke-width: 0.8"/>
      </g>
     </g>
     <g id="text_36">
      <!-- 12 -->
      <g transform="translate(587.932 178.190798) scale(0.1 -0.1)">
       <use xlink:href="#DejaVuSans-31"/>
       <use xlink:href="#DejaVuSans-32" x="63.623047"/>
      </g>
     </g>
    </g>
    <g id="ytick_17">
     <g id="line2d_38">
      <g>
       <use xlink:href="#mb6fbb70aea" x="580.932" y="139.376842" style="stroke: #000000; stroke-width: 0.8"/>
      </g>
     </g>
     <g id="text_37">
      <!-- 14 -->
      <g transform="translate(587.932 143.176061) scale(0.1 -0.1)">
       <use xlink:href="#DejaVuSans-31"/>
       <use xlink:href="#DejaVuSans-34" x="63.623047"/>
      </g>
     </g>
    </g>
    <g id="ytick_18">
     <g id="line2d_39">
      <g>
       <use xlink:href="#mb6fbb70aea" x="580.932" y="104.362105" style="stroke: #000000; stroke-width: 0.8"/>
      </g>
     </g>
     <g id="text_38">
      <!-- 16 -->
      <g transform="translate(587.932 108.161324) scale(0.1 -0.1)">
       <use xlink:href="#DejaVuSans-31"/>
       <use xlink:href="#DejaVuSans-36" x="63.623047"/>
      </g>
     </g>
    </g>
    <g id="ytick_19">
     <g id="line2d_40">
      <g>
       <use xlink:href="#mb6fbb70aea" x="580.932" y="69.347368" style="stroke: #000000; stroke-width: 0.8"/>
      </g>
     </g>
     <g id="text_39">
      <!-- 18 -->
      <g transform="translate(587.932 73.146587) scale(0.1 -0.1)">
       <use xlink:href="#DejaVuSans-31"/>
       <use xlink:href="#DejaVuSans-38" x="63.623047"/>
      </g>
     </g>
    </g>
    <g id="text_40">
     <!-- COP -->
     <g transform="translate(616.8145 234.8675) rotate(-90) scale(0.16 -0.16)">
      <defs>
       <path id="DejaVuSans-4f" d="M 2522 4238 
Q 1834 4238 1429 3725 
Q 1025 3213 1025 2328 
Q 1025 1447 1429 934 
Q 1834 422 2522 422 
Q 3209 422 3611 934 
Q 4013 1447 4013 2328 
Q 4013 3213 3611 3725 
Q 3209 4238 2522 4238 
z
M 2522 4750 
Q 3503 4750 4090 4092 
Q 4678 3434 4678 2328 
Q 4678 1225 4090 567 
Q 3503 -91 2522 -91 
Q 1538 -91 948 565 
Q 359 1222 359 2328 
Q 359 3434 948 4092 
Q 1538 4750 2522 4750 
z
" transform="scale(0.015625)"/>
       <path id="DejaVuSans-50" d="M 1259 4147 
L 1259 2394 
L 2053 2394 
Q 2494 2394 2734 2622 
Q 2975 2850 2975 3272 
Q 2975 3691 2734 3919 
Q 2494 4147 2053 4147 
L 1259 4147 
z
M 628 4666 
L 2053 4666 
Q 2838 4666 3239 4311 
Q 3641 3956 3641 3272 
Q 3641 2581 3239 2228 
Q 2838 1875 2053 1875 
L 1259 1875 
L 1259 0 
L 628 0 
L 628 4666 
z
" transform="scale(0.015625)"/>
      </defs>
      <use xlink:href="#DejaVuSans-43"/>
      <use xlink:href="#DejaVuSans-4f" x="69.824219"/>
      <use xlink:href="#DejaVuSans-50" x="148.535156"/>
     </g>
    </g>
   </g>
   <g id="LineCollection_1"/>
   <g id="patch_8">
    <path d="M 564.3 384.48 
L 572.616 384.48 
L 580.932 384.48 
L 580.932 51.84 
L 572.616 51.84 
L 564.3 51.84 
L 564.3 384.48 
z
" style="fill: none; stroke: #000000; stroke-width: 0.8; stroke-linejoin: miter; stroke-linecap: square"/>
   </g>
  </g>
 </g>
 <defs>
  <clipPath id="pd095747d96">
   <rect x="90" y="51.84" width="446.4" height="332.64"/>
  </clipPath>
  <clipPath id="pf267ab01fa">
   <rect x="564.3" y="51.84" width="16.632" height="332.64"/>
  </clipPath>
 </defs>
</svg>
