<?xml version="1.0" encoding="utf-8" standalone="no"?>
<!DOCTYPE svg PUBLIC "-//W3C//DTD SVG 1.1//EN"
  "http://www.w3.org/Graphics/SVG/1.1/DTD/svg11.dtd">
<svg xmlns:xlink="http://www.w3.org/1999/xlink" width="720pt" height="432pt" viewBox="0 0 720 432" xmlns="http://www.w3.org/2000/svg" version="1.1">
 <metadata>
  <rdf:RDF xmlns:dc="http://purl.org/dc/elements/1.1/" xmlns:cc="http://creativecommons.org/ns#" xmlns:rdf="http://www.w3.org/1999/02/22-rdf-syntax-ns#">
   <cc:Work>
    <dc:type rdf:resource="http://purl.org/dc/dcmitype/StillImage"/>
    <dc:date>2024-06-13T15:33:00.962408</dc:date>
    <dc:format>image/svg+xml</dc:format>
    <dc:creator>
     <cc:Agent>
      <dc:title>Matplotlib v3.8.3, https://matplotlib.org/</dc:title>
     </cc:Agent>
    </dc:creator>
   </cc:Work>
  </rdf:RDF>
 </metadata>
 <defs>
  <style type="text/css">*{stroke-linejoin: round; stroke-linecap: butt}</style>
 </defs>
 <g id="figure_1">
  <g id="patch_1">
   <path d="M 0 432 
L 720 432 
L 720 0 
L 0 0 
z
" style="fill: #ffffff"/>
  </g>
  <g id="axes_1">
   <g id="patch_2">
    <path d="M 90 384.48 
L 648 384.48 
L 648 51.84 
L 90 51.84 
z
" style="fill: #ffffff"/>
   </g>
   <g id="QuadContourSet_1">
    <path clip-path="url(#pd47704a915)" style="fill: #48186a"/>
    <path d="M 631.090909 169.730366 
L 636.727273 170.43794 
L 642.363636 171.145514 
L 648 171.853089 
L 648 169.44 
L 648 166.08 
L 648 162.72 
L 648 159.36 
L 648 156 
L 648 152.64 
L 648 149.28 
L 648 145.92 
L 648 142.56 
L 648 139.2 
L 648 135.84 
L 648 132.48 
L 648 129.12 
L 648 125.76 
L 648 122.4 
L 648 119.04 
L 648 115.68 
L 648 112.32 
L 648 108.96 
L 648 105.6 
L 648 102.24 
L 648 98.88 
L 648 95.52 
L 648 92.16 
L 648 88.8 
L 648 85.44 
L 648 82.08 
L 648 78.72 
L 648 75.36 
L 648 72 
L 648 68.64 
L 648 65.28 
L 648 61.92 
L 648 58.56 
L 648 55.2 
L 648 51.84 
L 642.363636 51.84 
L 636.727273 51.84 
L 631.090909 51.84 
L 625.454545 51.84 
L 619.818182 51.84 
L 614.181818 51.84 
L 608.545455 51.84 
L 602.909091 51.84 
L 597.272727 51.84 
L 591.636364 51.84 
L 586 51.84 
L 580.363636 51.84 
L 574.727273 51.84 
L 569.090909 51.84 
L 563.454545 51.84 
L 557.818182 51.84 
L 552.181818 51.84 
L 546.545455 51.84 
L 540.909091 51.84 
L 535.272727 51.84 
L 529.636364 51.84 
L 524 51.84 
L 518.363636 51.84 
L 512.727273 51.84 
L 507.090909 51.84 
L 501.454545 51.84 
L 495.818182 51.84 
L 490.181818 51.84 
L 484.545455 51.84 
L 478.909091 51.84 
L 473.272727 51.84 
L 467.636364 51.84 
L 462 51.84 
L 456.363636 51.84 
L 450.727273 51.84 
L 445.090909 51.84 
L 439.454545 51.84 
L 433.818182 51.84 
L 428.181818 51.84 
L 422.545455 51.84 
L 416.909091 51.84 
L 411.272727 51.84 
L 405.636364 51.84 
L 400 51.84 
L 394.363636 51.84 
L 388.727273 51.84 
L 383.090909 51.84 
L 377.454545 51.84 
L 371.818182 51.84 
L 366.181818 51.84 
L 360.545455 51.84 
L 354.909091 51.84 
L 349.272727 51.84 
L 343.636364 51.84 
L 338 51.84 
L 332.363636 51.84 
L 326.727273 51.84 
L 321.090909 51.84 
L 315.454545 51.84 
L 309.818182 51.84 
L 304.181818 51.84 
L 298.545455 51.84 
L 292.909091 51.84 
L 287.272727 51.84 
L 281.636364 51.84 
L 276 51.84 
L 270.363636 51.84 
L 264.727273 51.84 
L 259.090909 51.84 
L 253.454545 51.84 
L 247.818182 51.84 
L 242.181818 51.84 
L 236.545455 51.84 
L 230.909091 51.84 
L 225.272727 51.84 
L 219.636364 51.84 
L 214 51.84 
L 208.363636 51.84 
L 202.727273 51.84 
L 197.090909 51.84 
L 191.454545 51.84 
L 185.818182 51.84 
L 180.181818 51.84 
L 174.545455 51.84 
L 168.909091 51.84 
L 163.272727 51.84 
L 157.636364 51.84 
L 152 51.84 
L 146.363636 51.84 
L 140.727273 51.84 
L 135.090909 51.84 
L 129.454545 51.84 
L 123.818182 51.84 
L 118.181818 51.84 
L 112.545455 51.84 
L 106.909091 51.84 
L 101.272727 51.84 
L 95.636364 51.84 
L 90 51.84 
L 90 55.2 
L 90 58.56 
L 90 61.92 
L 90 65.28 
L 90 68.64 
L 90 72 
L 90 75.36 
L 90 78.72 
L 90 82.08 
L 90 85.44 
L 90 88.8 
L 90 92.16 
L 90 95.52 
L 90 98.88 
L 90 102.24 
L 90 105.6 
L 90 108.96 
L 90 112.32 
L 90 115.68 
L 90 119.04 
L 90 122.4 
L 90 123.673238 
L 95.636364 123.673238 
L 101.272727 123.673238 
L 106.909091 123.673238 
L 112.545455 123.673238 
L 118.181818 123.673238 
L 123.818182 123.673238 
L 129.454545 123.673238 
L 135.090909 123.673238 
L 140.727273 123.673238 
L 146.363636 123.673238 
L 152 123.673238 
L 157.636364 123.673238 
L 163.272727 123.673238 
L 168.909091 123.933101 
L 174.545455 124.25793 
L 180.181818 124.574981 
L 185.818182 124.861431 
L 191.454545 125.083777 
L 197.090909 125.306122 
L 202.727273 125.582917 
L 204.745322 125.76 
L 208.363636 126.077506 
L 214 126.583426 
L 219.636364 127.165557 
L 225.272727 127.828008 
L 230.909091 128.49046 
L 236.265436 129.12 
L 236.545455 129.152911 
L 242.181818 129.777179 
L 247.818182 130.375992 
L 253.454545 130.974805 
L 259.090909 131.573618 
L 264.727273 132.172431 
L 267.62229 132.48 
L 270.363636 132.760542 
L 276 133.282539 
L 281.636364 133.853696 
L 287.272727 134.508339 
L 292.909091 135.162983 
L 298.545455 135.817627 
L 298.738085 135.84 
L 304.181818 136.379672 
L 309.818182 136.956795 
L 315.454545 137.556244 
L 321.090909 138.108192 
L 326.727273 138.619937 
L 332.363636 139.131683 
L 333.116083 139.2 
L 338 139.643428 
L 343.636364 140.155174 
L 349.272727 140.666919 
L 354.909091 141.15786 
L 360.545455 141.643599 
L 366.181818 142.129338 
L 371.179081 142.56 
L 371.818182 142.616761 
L 377.454545 143.221889 
L 383.090909 143.888714 
L 388.727273 144.553345 
L 394.363636 145.209198 
L 400 145.865051 
L 400.472232 145.92 
L 405.636364 146.520903 
L 411.272727 147.122755 
L 416.909091 147.698564 
L 422.545455 148.260171 
L 428.181818 148.816612 
L 432.904842 149.28 
L 433.818182 149.370774 
L 439.454545 149.976769 
L 445.090909 150.616117 
L 450.727273 151.255466 
L 456.363636 151.894814 
L 462 152.534163 
L 462.942741 152.64 
L 467.636364 153.162019 
L 473.272727 153.788888 
L 478.909091 154.415758 
L 484.545455 155.042627 
L 490.181818 155.669497 
L 493.153466 156 
L 495.818182 156.260007 
L 501.454545 156.795618 
L 507.090909 157.3097 
L 512.727273 157.823783 
L 518.363636 158.337865 
L 524 158.851947 
L 529.570261 159.36 
L 529.636364 159.366239 
L 535.272727 160.008856 
L 540.909091 160.534654 
L 546.545455 161.029297 
L 552.181818 161.52394 
L 557.818182 162.018583 
L 563.454545 162.58952 
L 564.490586 162.72 
L 569.090909 163.323716 
L 574.727273 164.030137 
L 580.363636 164.603528 
L 586 165.176919 
L 591.636364 165.750103 
L 594.888314 166.08 
L 597.272727 166.321879 
L 602.909091 166.893568 
L 608.545455 167.465237 
L 614.181818 167.992633 
L 619.818182 168.490513 
L 625.454545 169.038653 
L 628.777923 169.44 
z
" clip-path="url(#pd47704a915)" style="fill: #424086"/>
    <path d="M 648 233.65539 
L 648 233.28 
L 648 229.92 
L 648 226.56 
L 648 223.2 
L 648 219.84 
L 648 216.48 
L 648 213.12 
L 648 209.76 
L 648 206.4 
L 648 203.04 
L 648 199.68 
L 648 196.32 
L 648 192.96 
L 648 189.6 
L 648 186.24 
L 648 182.88 
L 648 179.52 
L 648 176.16 
L 648 172.8 
L 648 171.853089 
L 642.363636 171.145514 
L 636.727273 170.43794 
L 631.090909 169.730366 
L 628.777923 169.44 
L 625.454545 169.038653 
L 619.818182 168.490513 
L 614.181818 167.992633 
L 608.545455 167.465237 
L 602.909091 166.893568 
L 597.272727 166.321879 
L 594.888314 166.08 
L 591.636364 165.750103 
L 586 165.176919 
L 580.363636 164.603528 
L 574.727273 164.030137 
L 569.090909 163.323716 
L 564.490586 162.72 
L 563.454545 162.58952 
L 557.818182 162.018583 
L 552.181818 161.52394 
L 546.545455 161.029297 
L 540.909091 160.534654 
L 535.272727 160.008856 
L 529.636364 159.366239 
L 529.570261 159.36 
L 524 158.851947 
L 518.363636 158.337865 
L 512.727273 157.823783 
L 507.090909 157.3097 
L 501.454545 156.795618 
L 495.818182 156.260007 
L 493.153466 156 
L 490.181818 155.669497 
L 484.545455 155.042627 
L 478.909091 154.415758 
L 473.272727 153.788888 
L 467.636364 153.162019 
L 462.942741 152.64 
L 462 152.534163 
L 456.363636 151.894814 
L 450.727273 151.255466 
L 445.090909 150.616117 
L 439.454545 149.976769 
L 433.818182 149.370774 
L 432.904842 149.28 
L 428.181818 148.816612 
L 422.545455 148.260171 
L 416.909091 147.698564 
L 411.272727 147.122755 
L 405.636364 146.520903 
L 400.472232 145.92 
L 400 145.865051 
L 394.363636 145.209198 
L 388.727273 144.553345 
L 383.090909 143.888714 
L 377.454545 143.221889 
L 371.818182 142.616761 
L 371.179081 142.56 
L 366.181818 142.129338 
L 360.545455 141.643599 
L 354.909091 141.15786 
L 349.272727 140.666919 
L 343.636364 140.155174 
L 338 139.643428 
L 333.116083 139.2 
L 332.363636 139.131683 
L 326.727273 138.619937 
L 321.090909 138.108192 
L 315.454545 137.556244 
L 309.818182 136.956795 
L 304.181818 136.379672 
L 298.738085 135.84 
L 298.545455 135.817627 
L 292.909091 135.162983 
L 287.272727 134.508339 
L 281.636364 133.853696 
L 276 133.282539 
L 270.363636 132.760542 
L 267.62229 132.48 
L 264.727273 132.172431 
L 259.090909 131.573618 
L 253.454545 130.974805 
L 247.818182 130.375992 
L 242.181818 129.777179 
L 236.545455 129.152911 
L 236.265436 129.12 
L 230.909091 128.49046 
L 225.272727 127.828008 
L 219.636364 127.165557 
L 214 126.583426 
L 208.363636 126.077506 
L 204.745322 125.76 
L 202.727273 125.582917 
L 197.090909 125.306122 
L 191.454545 125.083777 
L 185.818182 124.861431 
L 180.181818 124.574981 
L 174.545455 124.25793 
L 168.909091 123.933101 
L 163.272727 123.673238 
L 157.636364 123.673238 
L 152 123.673238 
L 146.363636 123.673238 
L 140.727273 123.673238 
L 135.090909 123.673238 
L 129.454545 123.673238 
L 123.818182 123.673238 
L 118.181818 123.673238 
L 112.545455 123.673238 
L 106.909091 123.673238 
L 101.272727 123.673238 
L 95.636364 123.673238 
L 90 123.673238 
L 90 125.76 
L 90 129.12 
L 90 132.48 
L 90 135.84 
L 90 139.2 
L 90 142.56 
L 90 145.92 
L 90 149.28 
L 90 152.64 
L 90 156 
L 90 159.36 
L 90 162.72 
L 90 166.08 
L 90 169.44 
L 90 172.8 
L 90 176.16 
L 90 179.52 
L 90 182.88 
L 90 183.313193 
L 95.636364 183.313193 
L 101.272727 183.313193 
L 106.909091 183.313193 
L 112.545455 183.313193 
L 118.181818 183.313193 
L 123.818182 183.313193 
L 129.454545 183.313193 
L 135.090909 183.313193 
L 140.727273 183.313193 
L 146.363636 183.313193 
L 152 183.313193 
L 157.636364 183.313193 
L 163.272727 183.313193 
L 168.909091 183.677466 
L 174.545455 184.132808 
L 180.181818 184.547681 
L 185.818182 184.928007 
L 191.454545 185.294601 
L 197.090909 185.661195 
L 202.727273 186.060265 
L 204.642413 186.24 
L 208.363636 186.589236 
L 214 187.118206 
L 219.636364 187.672615 
L 225.272727 188.283154 
L 230.909091 188.909663 
L 236.545455 189.536171 
L 237.103151 189.6 
L 242.181818 190.181264 
L 247.818182 190.838748 
L 253.454545 191.496231 
L 259.090909 192.153715 
L 264.727273 192.808461 
L 266.112485 192.96 
L 270.363636 193.423846 
L 276 193.986482 
L 281.636364 194.649785 
L 287.272727 195.313088 
L 292.909091 195.97639 
L 295.828886 196.32 
L 298.545455 196.60272 
L 304.181818 197.18931 
L 309.818182 197.781642 
L 315.454545 198.387344 
L 321.090909 198.963837 
L 326.727273 199.513784 
L 328.430814 199.68 
L 332.363636 200.045431 
L 338 200.569151 
L 343.636364 201.092872 
L 349.272727 201.616592 
L 354.909091 202.17663 
L 360.545455 202.745746 
L 363.459655 203.04 
L 366.181818 203.314863 
L 371.818182 203.885642 
L 377.454545 204.498978 
L 383.090909 205.188849 
L 388.727273 205.868371 
L 393.422955 206.4 
L 394.363636 206.506501 
L 400 207.14463 
L 405.636364 207.766247 
L 411.272727 208.361563 
L 416.909091 208.931306 
L 422.545455 209.50105 
L 425.260071 209.76 
L 428.181818 210.038708 
L 433.818182 210.554976 
L 439.454545 211.129179 
L 445.090909 211.812864 
L 450.727273 212.502431 
L 455.775141 213.12 
L 456.363636 213.191998 
L 462 213.881565 
L 467.636364 214.438255 
L 473.272727 215.048531 
L 478.909091 215.689867 
L 484.545455 216.331203 
L 485.853149 216.48 
L 490.181818 216.920945 
L 495.818182 217.495101 
L 501.454545 218.130738 
L 507.090909 218.748786 
L 512.727273 219.359628 
L 517.159773 219.84 
L 518.363636 219.962026 
L 524 220.533342 
L 529.636364 221.104657 
L 535.272727 221.675972 
L 540.909091 222.224439 
L 546.545455 222.767194 
L 551.04003 223.2 
L 552.181818 223.309949 
L 557.818182 223.852704 
L 563.454545 224.417832 
L 569.090909 225.036724 
L 574.727273 225.644068 
L 580.363636 226.168052 
L 584.579716 226.56 
L 586 226.692037 
L 591.636364 227.225114 
L 597.272727 227.832424 
L 602.909091 228.5245 
L 608.545455 229.216575 
L 614.181818 229.88812 
L 614.454963 229.92 
L 619.818182 230.545976 
L 625.454545 231.203833 
L 631.090909 231.861689 
L 636.727273 232.497959 
L 642.363636 233.085174 
L 644.289419 233.28 
z
" clip-path="url(#pd47704a915)" style="fill: #33638d"/>
    <path d="M 648 273.776111 
L 648 273.6 
L 648 270.24 
L 648 266.88 
L 648 263.52 
L 648 260.16 
L 648 256.8 
L 648 253.44 
L 648 250.08 
L 648 246.72 
L 648 243.36 
L 648 240 
L 648 236.64 
L 648 233.65539 
L 644.289419 233.28 
L 642.363636 233.085174 
L 636.727273 232.497959 
L 631.090909 231.861689 
L 625.454545 231.203833 
L 619.818182 230.545976 
L 614.454963 229.92 
L 614.181818 229.88812 
L 608.545455 229.216575 
L 602.909091 228.5245 
L 597.272727 227.832424 
L 591.636364 227.225114 
L 586 226.692037 
L 584.579716 226.56 
L 580.363636 226.168052 
L 574.727273 225.644068 
L 569.090909 225.036724 
L 563.454545 224.417832 
L 557.818182 223.852704 
L 552.181818 223.309949 
L 551.04003 223.2 
L 546.545455 222.767194 
L 540.909091 222.224439 
L 535.272727 221.675972 
L 529.636364 221.104657 
L 524 220.533342 
L 518.363636 219.962026 
L 517.159773 219.84 
L 512.727273 219.359628 
L 507.090909 218.748786 
L 501.454545 218.130738 
L 495.818182 217.495101 
L 490.181818 216.920945 
L 485.853149 216.48 
L 484.545455 216.331203 
L 478.909091 215.689867 
L 473.272727 215.048531 
L 467.636364 214.438255 
L 462 213.881565 
L 456.363636 213.191998 
L 455.775141 213.12 
L 450.727273 212.502431 
L 445.090909 211.812864 
L 439.454545 211.129179 
L 433.818182 210.554976 
L 428.181818 210.038708 
L 425.260071 209.76 
L 422.545455 209.50105 
L 416.909091 208.931306 
L 411.272727 208.361563 
L 405.636364 207.766247 
L 400 207.14463 
L 394.363636 206.506501 
L 393.422955 206.4 
L 388.727273 205.868371 
L 383.090909 205.188849 
L 377.454545 204.498978 
L 371.818182 203.885642 
L 366.181818 203.314863 
L 363.459655 203.04 
L 360.545455 202.745746 
L 354.909091 202.17663 
L 349.272727 201.616592 
L 343.636364 201.092872 
L 338 200.569151 
L 332.363636 200.045431 
L 328.430814 199.68 
L 326.727273 199.513784 
L 321.090909 198.963837 
L 315.454545 198.387344 
L 309.818182 197.781642 
L 304.181818 197.18931 
L 298.545455 196.60272 
L 295.828886 196.32 
L 292.909091 195.97639 
L 287.272727 195.313088 
L 281.636364 194.649785 
L 276 193.986482 
L 270.363636 193.423846 
L 266.112485 192.96 
L 264.727273 192.808461 
L 259.090909 192.153715 
L 253.454545 191.496231 
L 247.818182 190.838748 
L 242.181818 190.181264 
L 237.103151 189.6 
L 236.545455 189.536171 
L 230.909091 188.909663 
L 225.272727 188.283154 
L 219.636364 187.672615 
L 214 187.118206 
L 208.363636 186.589236 
L 204.642413 186.24 
L 202.727273 186.060265 
L 197.090909 185.661195 
L 191.454545 185.294601 
L 185.818182 184.928007 
L 180.181818 184.547681 
L 174.545455 184.132808 
L 168.909091 183.677466 
L 163.272727 183.313193 
L 157.636364 183.313193 
L 152 183.313193 
L 146.363636 183.313193 
L 140.727273 183.313193 
L 135.090909 183.313193 
L 129.454545 183.313193 
L 123.818182 183.313193 
L 118.181818 183.313193 
L 112.545455 183.313193 
L 106.909091 183.313193 
L 101.272727 183.313193 
L 95.636364 183.313193 
L 90 183.313193 
L 90 186.24 
L 90 189.6 
L 90 192.96 
L 90 196.32 
L 90 199.68 
L 90 203.04 
L 90 206.4 
L 90 209.76 
L 90 213.12 
L 90 216.48 
L 90 219.84 
L 90 223.2 
L 90 223.356522 
L 95.636364 223.356522 
L 101.272727 223.356522 
L 106.909091 223.356522 
L 112.545455 223.356522 
L 118.181818 223.356522 
L 123.818182 223.356522 
L 129.454545 223.356522 
L 135.090909 223.356522 
L 140.727273 223.356522 
L 146.363636 223.356522 
L 152 223.356522 
L 157.636364 223.356522 
L 163.272727 223.356522 
L 168.909091 223.69078 
L 174.545455 224.108602 
L 180.181818 224.526425 
L 185.818182 224.944247 
L 191.454545 225.392549 
L 197.090909 225.868666 
L 202.727273 226.374748 
L 204.437049 226.56 
L 208.363636 226.985441 
L 214 227.596135 
L 219.636364 228.186029 
L 225.272727 228.754289 
L 230.909091 229.302566 
L 236.545455 229.850843 
L 237.17571 229.92 
L 242.181818 230.469315 
L 247.818182 231.134585 
L 253.454545 231.799854 
L 259.090909 232.465124 
L 264.727273 233.125431 
L 266.217885 233.28 
L 270.363636 233.708798 
L 276 234.27626 
L 281.636364 234.911609 
L 287.272727 235.546957 
L 292.909091 236.182306 
L 296.969431 236.64 
L 298.545455 236.810019 
L 304.181818 237.418061 
L 309.818182 238.020577 
L 315.454545 238.618071 
L 321.090909 239.227014 
L 326.727273 239.849373 
L 328.091413 240 
L 332.363636 240.42676 
L 338 240.989787 
L 343.636364 241.552813 
L 349.272727 242.11584 
L 354.909091 242.723381 
L 360.545455 243.33106 
L 360.825803 243.36 
L 366.181818 243.912886 
L 371.818182 244.494711 
L 377.454545 245.076537 
L 383.090909 245.658362 
L 388.727273 246.258775 
L 392.579926 246.72 
L 394.363636 246.933539 
L 400 247.608303 
L 405.636364 248.238794 
L 411.272727 248.841049 
L 416.909091 249.426103 
L 422.545455 250.011157 
L 423.262839 250.08 
L 428.181818 250.552046 
L 433.818182 251.063491 
L 439.454545 251.592172 
L 445.090909 252.162623 
L 450.727273 252.749794 
L 456.363636 253.336965 
L 457.352691 253.44 
L 462 253.924136 
L 467.636364 254.583871 
L 473.272727 255.243607 
L 478.909091 255.903342 
L 484.545455 256.563078 
L 486.56957 256.8 
L 490.181818 257.216363 
L 495.818182 257.840639 
L 501.454545 258.460739 
L 507.090909 259.117398 
L 512.727273 259.774057 
L 516.03997 260.16 
L 518.363636 260.399636 
L 524 260.980906 
L 529.636364 261.562176 
L 535.272727 262.192993 
L 540.909091 262.78063 
L 546.545455 263.33825 
L 548.413083 263.52 
L 552.181818 263.886758 
L 557.818182 264.435267 
L 563.454545 264.983776 
L 569.090909 265.532285 
L 574.727273 266.083607 
L 580.363636 266.646185 
L 582.706184 266.88 
L 586 267.208763 
L 591.636364 267.771341 
L 597.272727 268.379282 
L 602.909091 269.066504 
L 608.545455 269.762058 
L 612.786249 270.24 
L 614.181818 270.397282 
L 619.818182 270.992287 
L 625.454545 271.587292 
L 631.090909 272.172192 
L 636.727273 272.734979 
L 642.363636 273.255545 
L 646.093183 273.6 
z
" clip-path="url(#pd47704a915)" style="fill: #26828e"/>
    <path d="M 631.090909 303.94181 
L 636.727273 304.512005 
L 642.363636 305.080809 
L 648 305.646425 
L 648 303.84 
L 648 300.48 
L 648 297.12 
L 648 293.76 
L 648 290.4 
L 648 287.04 
L 648 283.68 
L 648 280.32 
L 648 276.96 
L 648 273.776111 
L 646.093183 273.6 
L 642.363636 273.255545 
L 636.727273 272.734979 
L 631.090909 272.172192 
L 625.454545 271.587292 
L 619.818182 270.992287 
L 614.181818 270.397282 
L 612.786249 270.24 
L 608.545455 269.762058 
L 602.909091 269.066504 
L 597.272727 268.379282 
L 591.636364 267.771341 
L 586 267.208763 
L 582.706184 266.88 
L 580.363636 266.646185 
L 574.727273 266.083607 
L 569.090909 265.532285 
L 563.454545 264.983776 
L 557.818182 264.435267 
L 552.181818 263.886758 
L 548.413083 263.52 
L 546.545455 263.33825 
L 540.909091 262.78063 
L 535.272727 262.192993 
L 529.636364 261.562176 
L 524 260.980906 
L 518.363636 260.399636 
L 516.03997 260.16 
L 512.727273 259.774057 
L 507.090909 259.117398 
L 501.454545 258.460739 
L 495.818182 257.840639 
L 490.181818 257.216363 
L 486.56957 256.8 
L 484.545455 256.563078 
L 478.909091 255.903342 
L 473.272727 255.243607 
L 467.636364 254.583871 
L 462 253.924136 
L 457.352691 253.44 
L 456.363636 253.336965 
L 450.727273 252.749794 
L 445.090909 252.162623 
L 439.454545 251.592172 
L 433.818182 251.063491 
L 428.181818 250.552046 
L 423.262839 250.08 
L 422.545455 250.011157 
L 416.909091 249.426103 
L 411.272727 248.841049 
L 405.636364 248.238794 
L 400 247.608303 
L 394.363636 246.933539 
L 392.579926 246.72 
L 388.727273 246.258775 
L 383.090909 245.658362 
L 377.454545 245.076537 
L 371.818182 244.494711 
L 366.181818 243.912886 
L 360.825803 243.36 
L 360.545455 243.33106 
L 354.909091 242.723381 
L 349.272727 242.11584 
L 343.636364 241.552813 
L 338 240.989787 
L 332.363636 240.42676 
L 328.091413 240 
L 326.727273 239.849373 
L 321.090909 239.227014 
L 315.454545 238.618071 
L 309.818182 238.020577 
L 304.181818 237.418061 
L 298.545455 236.810019 
L 296.969431 236.64 
L 292.909091 236.182306 
L 287.272727 235.546957 
L 281.636364 234.911609 
L 276 234.27626 
L 270.363636 233.708798 
L 266.217885 233.28 
L 264.727273 233.125431 
L 259.090909 232.465124 
L 253.454545 231.799854 
L 247.818182 231.134585 
L 242.181818 230.469315 
L 237.17571 229.92 
L 236.545455 229.850843 
L 230.909091 229.302566 
L 225.272727 228.754289 
L 219.636364 228.186029 
L 214 227.596135 
L 208.363636 226.985441 
L 204.437049 226.56 
L 202.727273 226.374748 
L 197.090909 225.868666 
L 191.454545 225.392549 
L 185.818182 224.944247 
L 180.181818 224.526425 
L 174.545455 224.108602 
L 168.909091 223.69078 
L 163.272727 223.356522 
L 157.636364 223.356522 
L 152 223.356522 
L 146.363636 223.356522 
L 140.727273 223.356522 
L 135.090909 223.356522 
L 129.454545 223.356522 
L 123.818182 223.356522 
L 118.181818 223.356522 
L 112.545455 223.356522 
L 106.909091 223.356522 
L 101.272727 223.356522 
L 95.636364 223.356522 
L 90 223.356522 
L 90 226.56 
L 90 229.92 
L 90 233.28 
L 90 236.64 
L 90 240 
L 90 243.36 
L 90 246.72 
L 90 250.08 
L 90 253.44 
L 90 255.240808 
L 95.636364 255.240808 
L 101.272727 255.240808 
L 106.909091 255.240808 
L 112.545455 255.240808 
L 118.181818 255.240808 
L 123.818182 255.240808 
L 129.454545 255.240808 
L 135.090909 255.240808 
L 140.727273 255.240808 
L 146.363636 255.240808 
L 152 255.240808 
L 157.636364 255.240808 
L 163.272727 255.240808 
L 168.909091 255.606596 
L 174.545455 256.063832 
L 180.181818 256.521068 
L 183.620229 256.8 
L 185.818182 256.977869 
L 191.454545 257.433991 
L 197.090909 257.887303 
L 202.727273 258.357505 
L 208.363636 258.987573 
L 214 259.661539 
L 218.168615 260.16 
L 219.636364 260.325927 
L 225.272727 260.96311 
L 230.909091 261.600293 
L 236.545455 262.204013 
L 242.181818 262.778765 
L 247.818182 263.352119 
L 249.483772 263.52 
L 253.454545 263.92023 
L 259.090909 264.488341 
L 264.727273 265.056452 
L 270.363636 265.624562 
L 276 266.192673 
L 281.636364 266.743001 
L 283.039485 266.88 
L 287.272727 267.293329 
L 292.909091 267.843656 
L 298.545455 268.414251 
L 304.181818 269.025893 
L 309.818182 269.648713 
L 315.317204 270.24 
L 315.454545 270.254768 
L 321.090909 270.835675 
L 326.727273 271.415816 
L 332.363636 271.989946 
L 338 272.557928 
L 343.636364 273.125909 
L 348.340997 273.6 
L 349.272727 273.693891 
L 354.909091 274.328193 
L 360.545455 274.979075 
L 366.181818 275.629957 
L 371.818182 276.280839 
L 377.454545 276.931406 
L 377.711601 276.96 
L 383.090909 277.55727 
L 388.727273 278.153061 
L 394.363636 278.774939 
L 400 279.407493 
L 405.636364 280.040047 
L 408.130881 280.32 
L 411.272727 280.654048 
L 416.909091 281.253319 
L 422.545455 281.860495 
L 428.181818 282.454958 
L 433.818182 283.033908 
L 439.454545 283.612859 
L 440.108192 283.68 
L 445.090909 284.190298 
L 450.727273 284.767205 
L 456.363636 285.336633 
L 462 285.895635 
L 467.636364 286.524808 
L 472.251639 287.04 
L 473.272727 287.153982 
L 478.909091 287.742794 
L 484.545455 288.328988 
L 490.181818 288.913629 
L 495.818182 289.498271 
L 501.454545 290.094887 
L 504.252775 290.4 
L 507.090909 290.709464 
L 512.727273 291.324042 
L 518.363636 291.938228 
L 524 292.551615 
L 529.636364 293.164008 
L 535.12178 293.76 
L 535.272727 293.7764 
L 540.909091 294.310756 
L 546.545455 294.838893 
L 552.181818 295.422741 
L 557.818182 296.043764 
L 563.454545 296.664787 
L 567.586028 297.12 
L 569.090909 297.28581 
L 574.727273 297.905782 
L 580.363636 298.525741 
L 586 299.15355 
L 591.636364 299.782194 
L 597.272727 300.410838 
L 597.892826 300.48 
L 602.909091 301.01788 
L 608.545455 301.62225 
L 614.181818 302.210519 
L 619.818182 302.788053 
L 625.454545 303.365587 
L 630.084516 303.84 
z
" clip-path="url(#pd47704a915)" style="fill: #1fa088"/>
    <path d="M 636.727273 334.112662 
L 642.363636 334.701601 
L 648 335.29069 
L 648 334.08 
L 648 330.72 
L 648 327.36 
L 648 324 
L 648 320.64 
L 648 317.28 
L 648 313.92 
L 648 310.56 
L 648 307.2 
L 648 305.646425 
L 642.363636 305.080809 
L 636.727273 304.512005 
L 631.090909 303.94181 
L 630.084516 303.84 
L 625.454545 303.365587 
L 619.818182 302.788053 
L 614.181818 302.210519 
L 608.545455 301.62225 
L 602.909091 301.01788 
L 597.892826 300.48 
L 597.272727 300.410838 
L 591.636364 299.782194 
L 586 299.15355 
L 580.363636 298.525741 
L 574.727273 297.905782 
L 569.090909 297.28581 
L 567.586028 297.12 
L 563.454545 296.664787 
L 557.818182 296.043764 
L 552.181818 295.422741 
L 546.545455 294.838893 
L 540.909091 294.310756 
L 535.272727 293.7764 
L 535.12178 293.76 
L 529.636364 293.164008 
L 524 292.551615 
L 518.363636 291.938228 
L 512.727273 291.324042 
L 507.090909 290.709464 
L 504.252775 290.4 
L 501.454545 290.094887 
L 495.818182 289.498271 
L 490.181818 288.913629 
L 484.545455 288.328988 
L 478.909091 287.742794 
L 473.272727 287.153982 
L 472.251639 287.04 
L 467.636364 286.524808 
L 462 285.895635 
L 456.363636 285.336633 
L 450.727273 284.767205 
L 445.090909 284.190298 
L 440.108192 283.68 
L 439.454545 283.612859 
L 433.818182 283.033908 
L 428.181818 282.454958 
L 422.545455 281.860495 
L 416.909091 281.253319 
L 411.272727 280.654048 
L 408.130881 280.32 
L 405.636364 280.040047 
L 400 279.407493 
L 394.363636 278.774939 
L 388.727273 278.153061 
L 383.090909 277.55727 
L 377.711601 276.96 
L 377.454545 276.931406 
L 371.818182 276.280839 
L 366.181818 275.629957 
L 360.545455 274.979075 
L 354.909091 274.328193 
L 349.272727 273.693891 
L 348.340997 273.6 
L 343.636364 273.125909 
L 338 272.557928 
L 332.363636 271.989946 
L 326.727273 271.415816 
L 321.090909 270.835675 
L 315.454545 270.254768 
L 315.317204 270.24 
L 309.818182 269.648713 
L 304.181818 269.025893 
L 298.545455 268.414251 
L 292.909091 267.843656 
L 287.272727 267.293329 
L 283.039485 266.88 
L 281.636364 266.743001 
L 276 266.192673 
L 270.363636 265.624562 
L 264.727273 265.056452 
L 259.090909 264.488341 
L 253.454545 263.92023 
L 249.483772 263.52 
L 247.818182 263.352119 
L 242.181818 262.778765 
L 236.545455 262.204013 
L 230.909091 261.600293 
L 225.272727 260.96311 
L 219.636364 260.325927 
L 218.168615 260.16 
L 214 259.661539 
L 208.363636 258.987573 
L 202.727273 258.357505 
L 197.090909 257.887303 
L 191.454545 257.433991 
L 185.818182 256.977869 
L 183.620229 256.8 
L 180.181818 256.521068 
L 174.545455 256.063832 
L 168.909091 255.606596 
L 163.272727 255.240808 
L 157.636364 255.240808 
L 152 255.240808 
L 146.363636 255.240808 
L 140.727273 255.240808 
L 135.090909 255.240808 
L 129.454545 255.240808 
L 123.818182 255.240808 
L 118.181818 255.240808 
L 112.545455 255.240808 
L 106.909091 255.240808 
L 101.272727 255.240808 
L 95.636364 255.240808 
L 90 255.240808 
L 90 256.8 
L 90 260.16 
L 90 263.52 
L 90 266.88 
L 90 270.24 
L 90 273.6 
L 90 276.96 
L 90 280.32 
L 90 283.68 
L 90 285.466284 
L 95.636364 285.466284 
L 101.272727 285.466284 
L 106.909091 285.466284 
L 112.545455 285.466284 
L 118.181818 285.466284 
L 123.818182 285.466284 
L 129.454545 285.466284 
L 135.090909 285.466284 
L 140.727273 285.466284 
L 146.363636 285.466284 
L 152 285.466284 
L 157.636364 285.466284 
L 163.272727 285.466284 
L 168.909091 285.891975 
L 174.545455 286.424088 
L 180.181818 286.956202 
L 181.06944 287.04 
L 185.818182 287.483457 
L 191.454545 287.958768 
L 197.090909 288.366162 
L 202.727273 288.792776 
L 208.363636 289.296273 
L 214 289.802406 
L 219.636364 290.313723 
L 220.455431 290.4 
L 225.272727 290.907434 
L 230.909091 291.501146 
L 236.545455 292.094858 
L 242.181818 292.702009 
L 247.818182 293.318119 
L 251.928248 293.76 
L 253.454545 293.921497 
L 259.090909 294.477986 
L 264.727273 295.034475 
L 270.363636 295.590963 
L 276 296.147452 
L 281.636364 296.7064 
L 285.807055 297.12 
L 287.272727 297.265348 
L 292.909091 297.824296 
L 298.545455 298.383244 
L 304.181818 298.942193 
L 309.818182 299.518023 
L 315.454545 300.103908 
L 319.133597 300.48 
L 321.090909 300.710763 
L 326.727273 301.37528 
L 332.363636 302.039797 
L 338 302.704314 
L 343.636364 303.368831 
L 348.602997 303.84 
L 349.272727 303.902438 
L 354.909091 304.371664 
L 360.545455 304.956164 
L 366.181818 305.559825 
L 371.818182 306.166896 
L 377.454545 306.773967 
L 381.410065 307.2 
L 383.090909 307.381037 
L 388.727273 307.977684 
L 394.363636 308.532637 
L 400 309.10746 
L 405.636364 309.716247 
L 411.272727 310.380029 
L 412.800911 310.56 
L 416.909091 311.043811 
L 422.545455 311.707594 
L 428.181818 312.295158 
L 433.818182 312.83191 
L 439.454545 313.368663 
L 445.090909 313.905569 
L 445.235396 313.92 
L 450.727273 314.469104 
L 456.363636 315.045606 
L 462 315.626133 
L 467.636364 316.279533 
L 473.272727 316.900559 
L 477.031274 317.28 
L 478.909091 317.46699 
L 484.545455 318.028252 
L 490.181818 318.589513 
L 495.818182 319.150774 
L 501.454545 319.708203 
L 507.090909 320.259883 
L 510.974465 320.64 
L 512.727273 320.832096 
L 518.363636 321.449802 
L 524 322.067508 
L 529.636364 322.685214 
L 535.272727 323.25199 
L 540.909091 323.76919 
L 543.085766 324 
L 546.545455 324.390406 
L 552.181818 325.026438 
L 557.818182 325.66247 
L 563.454545 326.298501 
L 569.090909 326.934533 
L 572.761483 327.36 
L 574.727273 327.58786 
L 580.363636 328.31037 
L 586 329.032879 
L 591.636364 329.755388 
L 597.272727 330.413836 
L 600.720191 330.72 
L 602.909091 330.905986 
L 608.545455 331.384896 
L 614.181818 331.901183 
L 619.818182 332.442387 
L 625.454545 332.983591 
L 631.090909 333.533104 
L 636.409971 334.08 
z
" clip-path="url(#pd47704a915)" style="fill: #3fbc73"/>
    <path d="M 591.636364 381.216761 
L 597.272727 381.746375 
L 602.909091 382.275988 
L 608.545455 382.82693 
L 614.181818 383.434412 
L 619.818182 384.08005 
L 623.309709 384.48 
L 625.454545 384.48 
L 631.090909 384.48 
L 636.727273 384.48 
L 642.363636 384.48 
L 648 384.48 
L 648 381.12 
L 648 377.76 
L 648 374.4 
L 648 371.04 
L 648 367.68 
L 648 364.32 
L 648 360.96 
L 648 357.6 
L 648 354.24 
L 648 350.88 
L 648 347.52 
L 648 344.16 
L 648 340.8 
L 648 337.44 
L 648 335.29069 
L 642.363636 334.701601 
L 636.727273 334.112662 
L 636.409971 334.08 
L 631.090909 333.533104 
L 625.454545 332.983591 
L 619.818182 332.442387 
L 614.181818 331.901183 
L 608.545455 331.384896 
L 602.909091 330.905986 
L 600.720191 330.72 
L 597.272727 330.413836 
L 591.636364 329.755388 
L 586 329.032879 
L 580.363636 328.31037 
L 574.727273 327.58786 
L 572.761483 327.36 
L 569.090909 326.934533 
L 563.454545 326.298501 
L 557.818182 325.66247 
L 552.181818 325.026438 
L 546.545455 324.390406 
L 543.085766 324 
L 540.909091 323.76919 
L 535.272727 323.25199 
L 529.636364 322.685214 
L 524 322.067508 
L 518.363636 321.449802 
L 512.727273 320.832096 
L 510.974465 320.64 
L 507.090909 320.259883 
L 501.454545 319.708203 
L 495.818182 319.150774 
L 490.181818 318.589513 
L 484.545455 318.028252 
L 478.909091 317.46699 
L 477.031274 317.28 
L 473.272727 316.900559 
L 467.636364 316.279533 
L 462 315.626133 
L 456.363636 315.045606 
L 450.727273 314.469104 
L 445.235396 313.92 
L 445.090909 313.905569 
L 439.454545 313.368663 
L 433.818182 312.83191 
L 428.181818 312.295158 
L 422.545455 311.707594 
L 416.909091 311.043811 
L 412.800911 310.56 
L 411.272727 310.380029 
L 405.636364 309.716247 
L 400 309.10746 
L 394.363636 308.532637 
L 388.727273 307.977684 
L 383.090909 307.381037 
L 381.410065 307.2 
L 377.454545 306.773967 
L 371.818182 306.166896 
L 366.181818 305.559825 
L 360.545455 304.956164 
L 354.909091 304.371664 
L 349.272727 303.902438 
L 348.602997 303.84 
L 343.636364 303.368831 
L 338 302.704314 
L 332.363636 302.039797 
L 326.727273 301.37528 
L 321.090909 300.710763 
L 319.133597 300.48 
L 315.454545 300.103908 
L 309.818182 299.518023 
L 304.181818 298.942193 
L 298.545455 298.383244 
L 292.909091 297.824296 
L 287.272727 297.265348 
L 285.807055 297.12 
L 281.636364 296.7064 
L 276 296.147452 
L 270.363636 295.590963 
L 264.727273 295.034475 
L 259.090909 294.477986 
L 253.454545 293.921497 
L 251.928248 293.76 
L 247.818182 293.318119 
L 242.181818 292.702009 
L 236.545455 292.094858 
L 230.909091 291.501146 
L 225.272727 290.907434 
L 220.455431 290.4 
L 219.636364 290.313723 
L 214 289.802406 
L 208.363636 289.296273 
L 202.727273 288.792776 
L 197.090909 288.366162 
L 191.454545 287.958768 
L 185.818182 287.483457 
L 181.06944 287.04 
L 180.181818 286.956202 
L 174.545455 286.424088 
L 168.909091 285.891975 
L 163.272727 285.466284 
L 157.636364 285.466284 
L 152 285.466284 
L 146.363636 285.466284 
L 140.727273 285.466284 
L 135.090909 285.466284 
L 129.454545 285.466284 
L 123.818182 285.466284 
L 118.181818 285.466284 
L 112.545455 285.466284 
L 106.909091 285.466284 
L 101.272727 285.466284 
L 95.636364 285.466284 
L 90 285.466284 
L 90 287.04 
L 90 290.4 
L 90 293.76 
L 90 297.12 
L 90 300.48 
L 90 303.84 
L 90 307.2 
L 90 310.56 
L 90 313.92 
L 90 317.28 
L 90 320.64 
L 90 324 
L 90 327.36 
L 90 330.72 
L 90 334.08 
L 90 337.44 
L 90 339.16989 
L 95.636364 339.16989 
L 101.272727 339.16989 
L 106.909091 339.16989 
L 112.545455 339.16989 
L 118.181818 339.16989 
L 123.818182 339.16989 
L 129.454545 339.16989 
L 135.090909 339.16989 
L 140.727273 339.16989 
L 146.363636 339.16989 
L 152 339.16989 
L 157.636364 339.16989 
L 163.272727 339.16989 
L 168.909091 339.555153 
L 174.545455 340.03673 
L 180.181818 340.518308 
L 183.478724 340.8 
L 185.818182 340.998815 
L 191.454545 341.477812 
L 197.090909 341.956809 
L 202.727273 342.490387 
L 208.363636 343.111072 
L 214 343.73391 
L 217.855892 344.16 
L 219.636364 344.356485 
L 225.272727 344.978491 
L 230.909091 345.600497 
L 236.545455 346.222503 
L 242.181818 346.815578 
L 247.818182 347.389365 
L 249.101423 347.52 
L 253.454545 347.963152 
L 259.090909 348.536939 
L 264.727273 349.123198 
L 270.363636 349.741952 
L 276 350.374588 
L 280.808159 350.88 
L 281.636364 350.967057 
L 287.272727 351.559527 
L 292.909091 352.151996 
L 298.545455 352.679385 
L 304.181818 353.13646 
L 309.818182 353.589912 
L 315.454545 354.063908 
L 317.420659 354.24 
L 321.090909 354.568721 
L 326.727273 355.069894 
L 332.363636 355.55256 
L 338 356.021101 
L 343.636364 356.489643 
L 349.272727 356.958185 
L 354.909091 357.512578 
L 355.764763 357.6 
L 360.545455 358.088434 
L 366.181818 358.66429 
L 371.818182 359.240146 
L 377.454545 359.81263 
L 383.090909 360.373124 
L 388.727273 360.907411 
L 389.208538 360.96 
L 394.363636 361.524638 
L 400 362.141989 
L 405.636364 362.759341 
L 411.272727 363.376692 
L 416.909091 363.994043 
L 419.88505 364.32 
L 422.545455 364.612131 
L 428.181818 365.192602 
L 433.818182 365.761587 
L 439.454545 366.333514 
L 445.090909 366.905441 
L 450.727273 367.477369 
L 452.724213 367.68 
L 456.363636 368.049296 
L 462 368.621223 
L 467.636364 369.167023 
L 473.272727 369.712823 
L 478.909091 370.258623 
L 484.545455 370.804423 
L 486.892528 371.04 
L 490.181818 371.373021 
L 495.818182 371.950978 
L 501.454545 372.514314 
L 507.090909 373.05572 
L 512.727273 373.599249 
L 518.363636 374.149172 
L 520.546829 374.4 
L 524 374.797748 
L 529.636364 375.4443 
L 535.272727 376.091864 
L 540.909091 376.568514 
L 546.545455 377.002435 
L 552.181818 377.489625 
L 555.057407 377.76 
L 557.818182 378.022341 
L 563.454545 378.557933 
L 569.090909 379.093525 
L 574.727273 379.627921 
L 580.363636 380.157535 
L 586 380.687148 
L 590.606591 381.12 
z
" clip-path="url(#pd47704a915)" style="fill: #84d44b"/>
    <path d="M 95.636364 384.48 
L 101.272727 384.48 
L 106.909091 384.48 
L 112.545455 384.48 
L 118.181818 384.48 
L 123.818182 384.48 
L 129.454545 384.48 
L 135.090909 384.48 
L 140.727273 384.48 
L 146.363636 384.48 
L 152 384.48 
L 157.636364 384.48 
L 163.272727 384.48 
L 168.909091 384.48 
L 174.545455 384.48 
L 180.181818 384.48 
L 185.818182 384.48 
L 191.454545 384.48 
L 197.090909 384.48 
L 202.727273 384.48 
L 208.363636 384.48 
L 214 384.48 
L 219.636364 384.48 
L 225.272727 384.48 
L 230.909091 384.48 
L 236.545455 384.48 
L 242.181818 384.48 
L 247.818182 384.48 
L 253.454545 384.48 
L 259.090909 384.48 
L 264.727273 384.48 
L 270.363636 384.48 
L 276 384.48 
L 281.636364 384.48 
L 287.272727 384.48 
L 292.909091 384.48 
L 298.545455 384.48 
L 304.181818 384.48 
L 309.818182 384.48 
L 315.454545 384.48 
L 321.090909 384.48 
L 326.727273 384.48 
L 332.363636 384.48 
L 338 384.48 
L 343.636364 384.48 
L 349.272727 384.48 
L 354.909091 384.48 
L 360.545455 384.48 
L 366.181818 384.48 
L 371.818182 384.48 
L 377.454545 384.48 
L 383.090909 384.48 
L 388.727273 384.48 
L 394.363636 384.48 
L 400 384.48 
L 405.636364 384.48 
L 411.272727 384.48 
L 416.909091 384.48 
L 422.545455 384.48 
L 428.181818 384.48 
L 433.818182 384.48 
L 439.454545 384.48 
L 445.090909 384.48 
L 450.727273 384.48 
L 456.363636 384.48 
L 462 384.48 
L 467.636364 384.48 
L 473.272727 384.48 
L 478.909091 384.48 
L 484.545455 384.48 
L 490.181818 384.48 
L 495.818182 384.48 
L 501.454545 384.48 
L 507.090909 384.48 
L 512.727273 384.48 
L 518.363636 384.48 
L 524 384.48 
L 529.636364 384.48 
L 535.272727 384.48 
L 540.909091 384.48 
L 546.545455 384.48 
L 552.181818 384.48 
L 557.818182 384.48 
L 563.454545 384.48 
L 569.090909 384.48 
L 574.727273 384.48 
L 580.363636 384.48 
L 586 384.48 
L 591.636364 384.48 
L 597.272727 384.48 
L 602.909091 384.48 
L 608.545455 384.48 
L 614.181818 384.48 
L 619.818182 384.48 
L 623.309709 384.48 
L 619.818182 384.08005 
L 614.181818 383.434412 
L 608.545455 382.82693 
L 602.909091 382.275988 
L 597.272727 381.746375 
L 591.636364 381.216761 
L 590.606591 381.12 
L 586 380.687148 
L 580.363636 380.157535 
L 574.727273 379.627921 
L 569.090909 379.093525 
L 563.454545 378.557933 
L 557.818182 378.022341 
L 555.057407 377.76 
L 552.181818 377.489625 
L 546.545455 377.002435 
L 540.909091 376.568514 
L 535.272727 376.091864 
L 529.636364 375.4443 
L 524 374.797748 
L 520.546829 374.4 
L 518.363636 374.149172 
L 512.727273 373.599249 
L 507.090909 373.05572 
L 501.454545 372.514314 
L 495.818182 371.950978 
L 490.181818 371.373021 
L 486.892528 371.04 
L 484.545455 370.804423 
L 478.909091 370.258623 
L 473.272727 369.712823 
L 467.636364 369.167023 
L 462 368.621223 
L 456.363636 368.049296 
L 452.724213 367.68 
L 450.727273 367.477369 
L 445.090909 366.905441 
L 439.454545 366.333514 
L 433.818182 365.761587 
L 428.181818 365.192602 
L 422.545455 364.612131 
L 419.88505 364.32 
L 416.909091 363.994043 
L 411.272727 363.376692 
L 405.636364 362.759341 
L 400 362.141989 
L 394.363636 361.524638 
L 389.208538 360.96 
L 388.727273 360.907411 
L 383.090909 360.373124 
L 377.454545 359.81263 
L 371.818182 359.240146 
L 366.181818 358.66429 
L 360.545455 358.088434 
L 355.764763 357.6 
L 354.909091 357.512578 
L 349.272727 356.958185 
L 343.636364 356.489643 
L 338 356.021101 
L 332.363636 355.55256 
L 326.727273 355.069894 
L 321.090909 354.568721 
L 317.420659 354.24 
L 315.454545 354.063908 
L 309.818182 353.589912 
L 304.181818 353.13646 
L 298.545455 352.679385 
L 292.909091 352.151996 
L 287.272727 351.559527 
L 281.636364 350.967057 
L 280.808159 350.88 
L 276 350.374588 
L 270.363636 349.741952 
L 264.727273 349.123198 
L 259.090909 348.536939 
L 253.454545 347.963152 
L 249.101423 347.52 
L 247.818182 347.389365 
L 242.181818 346.815578 
L 236.545455 346.222503 
L 230.909091 345.600497 
L 225.272727 344.978491 
L 219.636364 344.356485 
L 217.855892 344.16 
L 214 343.73391 
L 208.363636 343.111072 
L 202.727273 342.490387 
L 197.090909 341.956809 
L 191.454545 341.477812 
L 185.818182 340.998815 
L 183.478724 340.8 
L 180.181818 340.518308 
L 174.545455 340.03673 
L 168.909091 339.555153 
L 163.272727 339.16989 
L 157.636364 339.16989 
L 152 339.16989 
L 146.363636 339.16989 
L 140.727273 339.16989 
L 135.090909 339.16989 
L 129.454545 339.16989 
L 123.818182 339.16989 
L 118.181818 339.16989 
L 112.545455 339.16989 
L 106.909091 339.16989 
L 101.272727 339.16989 
L 95.636364 339.16989 
L 90 339.16989 
L 90 340.8 
L 90 344.16 
L 90 347.52 
L 90 350.88 
L 90 354.24 
L 90 357.6 
L 90 360.96 
L 90 364.32 
L 90 367.68 
L 90 371.04 
L 90 374.4 
L 90 377.76 
L 90 381.12 
L 90 384.48 
z
" clip-path="url(#pd47704a915)" style="fill: #d8e219"/>
   </g>
   <g id="matplotlib.axis_1">
    <g id="xtick_1">
     <g id="line2d_1">
      <path d="M 127.2 384.48 
L 127.2 51.84 
" clip-path="url(#pd47704a915)" style="fill: none; stroke: #b0b0b0; stroke-width: 0.8; stroke-linecap: square"/>
     </g>
     <g id="line2d_2">
      <defs>
       <path id="ma33c144ccd" d="M 0 0 
L 0 3.5 
" style="stroke: #000000; stroke-width: 0.8"/>
      </defs>
      <g>
       <use xlink:href="#ma33c144ccd" x="127.2" y="384.48" style="stroke: #000000; stroke-width: 0.8"/>
      </g>
     </g>
     <g id="text_1">
      <!-- 6 -->
      <g transform="translate(124.01875 399.078438) scale(0.1 -0.1)">
       <defs>
        <path id="DejaVuSans-36" d="M 2113 2584 
Q 1688 2584 1439 2293 
Q 1191 2003 1191 1497 
Q 1191 994 1439 701 
Q 1688 409 2113 409 
Q 2538 409 2786 701 
Q 3034 994 3034 1497 
Q 3034 2003 2786 2293 
Q 2538 2584 2113 2584 
z
M 3366 4563 
L 3366 3988 
Q 3128 4100 2886 4159 
Q 2644 4219 2406 4219 
Q 1781 4219 1451 3797 
Q 1122 3375 1075 2522 
Q 1259 2794 1537 2939 
Q 1816 3084 2150 3084 
Q 2853 3084 3261 2657 
Q 3669 2231 3669 1497 
Q 3669 778 3244 343 
Q 2819 -91 2113 -91 
Q 1303 -91 875 529 
Q 447 1150 447 2328 
Q 447 3434 972 4092 
Q 1497 4750 2381 4750 
Q 2619 4750 2861 4703 
Q 3103 4656 3366 4563 
z
" transform="scale(0.015625)"/>
       </defs>
       <use xlink:href="#DejaVuSans-36"/>
      </g>
     </g>
    </g>
    <g id="xtick_2">
     <g id="line2d_3">
      <path d="M 201.6 384.48 
L 201.6 51.84 
" clip-path="url(#pd47704a915)" style="fill: none; stroke: #b0b0b0; stroke-width: 0.8; stroke-linecap: square"/>
     </g>
     <g id="line2d_4">
      <g>
       <use xlink:href="#ma33c144ccd" x="201.6" y="384.48" style="stroke: #000000; stroke-width: 0.8"/>
      </g>
     </g>
     <g id="text_2">
      <!-- 8 -->
      <g transform="translate(198.41875 399.078438) scale(0.1 -0.1)">
       <defs>
        <path id="DejaVuSans-38" d="M 2034 2216 
Q 1584 2216 1326 1975 
Q 1069 1734 1069 1313 
Q 1069 891 1326 650 
Q 1584 409 2034 409 
Q 2484 409 2743 651 
Q 3003 894 3003 1313 
Q 3003 1734 2745 1975 
Q 2488 2216 2034 2216 
z
M 1403 2484 
Q 997 2584 770 2862 
Q 544 3141 544 3541 
Q 544 4100 942 4425 
Q 1341 4750 2034 4750 
Q 2731 4750 3128 4425 
Q 3525 4100 3525 3541 
Q 3525 3141 3298 2862 
Q 3072 2584 2669 2484 
Q 3125 2378 3379 2068 
Q 3634 1759 3634 1313 
Q 3634 634 3220 271 
Q 2806 -91 2034 -91 
Q 1263 -91 848 271 
Q 434 634 434 1313 
Q 434 1759 690 2068 
Q 947 2378 1403 2484 
z
M 1172 3481 
Q 1172 3119 1398 2916 
Q 1625 2713 2034 2713 
Q 2441 2713 2670 2916 
Q 2900 3119 2900 3481 
Q 2900 3844 2670 4047 
Q 2441 4250 2034 4250 
Q 1625 4250 1398 4047 
Q 1172 3844 1172 3481 
z
" transform="scale(0.015625)"/>
       </defs>
       <use xlink:href="#DejaVuSans-38"/>
      </g>
     </g>
    </g>
    <g id="xtick_3">
     <g id="line2d_5">
      <path d="M 276 384.48 
L 276 51.84 
" clip-path="url(#pd47704a915)" style="fill: none; stroke: #b0b0b0; stroke-width: 0.8; stroke-linecap: square"/>
     </g>
     <g id="line2d_6">
      <g>
       <use xlink:href="#ma33c144ccd" x="276" y="384.48" style="stroke: #000000; stroke-width: 0.8"/>
      </g>
     </g>
     <g id="text_3">
      <!-- 10 -->
      <g transform="translate(269.6375 399.078438) scale(0.1 -0.1)">
       <defs>
        <path id="DejaVuSans-31" d="M 794 531 
L 1825 531 
L 1825 4091 
L 703 3866 
L 703 4441 
L 1819 4666 
L 2450 4666 
L 2450 531 
L 3481 531 
L 3481 0 
L 794 0 
L 794 531 
z
" transform="scale(0.015625)"/>
        <path id="DejaVuSans-30" d="M 2034 4250 
Q 1547 4250 1301 3770 
Q 1056 3291 1056 2328 
Q 1056 1369 1301 889 
Q 1547 409 2034 409 
Q 2525 409 2770 889 
Q 3016 1369 3016 2328 
Q 3016 3291 2770 3770 
Q 2525 4250 2034 4250 
z
M 2034 4750 
Q 2819 4750 3233 4129 
Q 3647 3509 3647 2328 
Q 3647 1150 3233 529 
Q 2819 -91 2034 -91 
Q 1250 -91 836 529 
Q 422 1150 422 2328 
Q 422 3509 836 4129 
Q 1250 4750 2034 4750 
z
" transform="scale(0.015625)"/>
       </defs>
       <use xlink:href="#DejaVuSans-31"/>
       <use xlink:href="#DejaVuSans-30" x="63.623047"/>
      </g>
     </g>
    </g>
    <g id="xtick_4">
     <g id="line2d_7">
      <path d="M 350.4 384.48 
L 350.4 51.84 
" clip-path="url(#pd47704a915)" style="fill: none; stroke: #b0b0b0; stroke-width: 0.8; stroke-linecap: square"/>
     </g>
     <g id="line2d_8">
      <g>
       <use xlink:href="#ma33c144ccd" x="350.4" y="384.48" style="stroke: #000000; stroke-width: 0.8"/>
      </g>
     </g>
     <g id="text_4">
      <!-- 12 -->
      <g transform="translate(344.0375 399.078438) scale(0.1 -0.1)">
       <defs>
        <path id="DejaVuSans-32" d="M 1228 531 
L 3431 531 
L 3431 0 
L 469 0 
L 469 531 
Q 828 903 1448 1529 
Q 2069 2156 2228 2338 
Q 2531 2678 2651 2914 
Q 2772 3150 2772 3378 
Q 2772 3750 2511 3984 
Q 2250 4219 1831 4219 
Q 1534 4219 1204 4116 
Q 875 4013 500 3803 
L 500 4441 
Q 881 4594 1212 4672 
Q 1544 4750 1819 4750 
Q 2544 4750 2975 4387 
Q 3406 4025 3406 3419 
Q 3406 3131 3298 2873 
Q 3191 2616 2906 2266 
Q 2828 2175 2409 1742 
Q 1991 1309 1228 531 
z
" transform="scale(0.015625)"/>
       </defs>
       <use xlink:href="#DejaVuSans-31"/>
       <use xlink:href="#DejaVuSans-32" x="63.623047"/>
      </g>
     </g>
    </g>
    <g id="xtick_5">
     <g id="line2d_9">
      <path d="M 424.8 384.48 
L 424.8 51.84 
" clip-path="url(#pd47704a915)" style="fill: none; stroke: #b0b0b0; stroke-width: 0.8; stroke-linecap: square"/>
     </g>
     <g id="line2d_10">
      <g>
       <use xlink:href="#ma33c144ccd" x="424.8" y="384.48" style="stroke: #000000; stroke-width: 0.8"/>
      </g>
     </g>
     <g id="text_5">
      <!-- 14 -->
      <g transform="translate(418.4375 399.078438) scale(0.1 -0.1)">
       <defs>
        <path id="DejaVuSans-34" d="M 2419 4116 
L 825 1625 
L 2419 1625 
L 2419 4116 
z
M 2253 4666 
L 3047 4666 
L 3047 1625 
L 3713 1625 
L 3713 1100 
L 3047 1100 
L 3047 0 
L 2419 0 
L 2419 1100 
L 313 1100 
L 313 1709 
L 2253 4666 
z
" transform="scale(0.015625)"/>
       </defs>
       <use xlink:href="#DejaVuSans-31"/>
       <use xlink:href="#DejaVuSans-34" x="63.623047"/>
      </g>
     </g>
    </g>
    <g id="xtick_6">
     <g id="line2d_11">
      <path d="M 499.2 384.48 
L 499.2 51.84 
" clip-path="url(#pd47704a915)" style="fill: none; stroke: #b0b0b0; stroke-width: 0.8; stroke-linecap: square"/>
     </g>
     <g id="line2d_12">
      <g>
       <use xlink:href="#ma33c144ccd" x="499.2" y="384.48" style="stroke: #000000; stroke-width: 0.8"/>
      </g>
     </g>
     <g id="text_6">
      <!-- 16 -->
      <g transform="translate(492.8375 399.078438) scale(0.1 -0.1)">
       <use xlink:href="#DejaVuSans-31"/>
       <use xlink:href="#DejaVuSans-36" x="63.623047"/>
      </g>
     </g>
    </g>
    <g id="xtick_7">
     <g id="line2d_13">
      <path d="M 573.6 384.48 
L 573.6 51.84 
" clip-path="url(#pd47704a915)" style="fill: none; stroke: #b0b0b0; stroke-width: 0.8; stroke-linecap: square"/>
     </g>
     <g id="line2d_14">
      <g>
       <use xlink:href="#ma33c144ccd" x="573.6" y="384.48" style="stroke: #000000; stroke-width: 0.8"/>
      </g>
     </g>
     <g id="text_7">
      <!-- 18 -->
      <g transform="translate(567.2375 399.078438) scale(0.1 -0.1)">
       <use xlink:href="#DejaVuSans-31"/>
       <use xlink:href="#DejaVuSans-38" x="63.623047"/>
      </g>
     </g>
    </g>
    <g id="xtick_8">
     <g id="line2d_15">
      <path d="M 648 384.48 
L 648 51.84 
" clip-path="url(#pd47704a915)" style="fill: none; stroke: #b0b0b0; stroke-width: 0.8; stroke-linecap: square"/>
     </g>
     <g id="line2d_16">
      <g>
       <use xlink:href="#ma33c144ccd" x="648" y="384.48" style="stroke: #000000; stroke-width: 0.8"/>
      </g>
     </g>
     <g id="text_8">
      <!-- 20 -->
      <g transform="translate(641.6375 399.078438) scale(0.1 -0.1)">
       <use xlink:href="#DejaVuSans-32"/>
       <use xlink:href="#DejaVuSans-30" x="63.623047"/>
      </g>
     </g>
    </g>
    <g id="text_9">
     <!-- $glide_{cd}$ [K] -->
     <g transform="translate(318.4 420.358125) scale(0.2 -0.2)">
      <defs>
       <path id="DejaVuSans-Oblique-67" d="M 3816 3500 
L 3219 434 
Q 3047 -456 2561 -893 
Q 2075 -1331 1253 -1331 
Q 950 -1331 690 -1286 
Q 431 -1241 206 -1147 
L 313 -588 
Q 525 -725 762 -790 
Q 1000 -856 1269 -856 
Q 1816 -856 2167 -557 
Q 2519 -259 2631 300 
L 2681 563 
Q 2441 288 2122 144 
Q 1803 0 1434 0 
Q 903 0 598 351 
Q 294 703 294 1319 
Q 294 1803 478 2267 
Q 663 2731 997 3091 
Q 1219 3328 1514 3456 
Q 1809 3584 2131 3584 
Q 2484 3584 2746 3420 
Q 3009 3256 3138 2956 
L 3238 3500 
L 3816 3500 
z
M 2950 2216 
Q 2950 2641 2750 2872 
Q 2550 3103 2181 3103 
Q 1953 3103 1747 3012 
Q 1541 2922 1394 2759 
Q 1156 2491 1023 2127 
Q 891 1763 891 1375 
Q 891 944 1092 712 
Q 1294 481 1672 481 
Q 2219 481 2584 976 
Q 2950 1472 2950 2216 
z
" transform="scale(0.015625)"/>
       <path id="DejaVuSans-Oblique-6c" d="M 1172 4863 
L 1747 4863 
L 800 0 
L 225 0 
L 1172 4863 
z
" transform="scale(0.015625)"/>
       <path id="DejaVuSans-Oblique-69" d="M 1172 4863 
L 1747 4863 
L 1606 4134 
L 1031 4134 
L 1172 4863 
z
M 909 3500 
L 1484 3500 
L 800 0 
L 225 0 
L 909 3500 
z
" transform="scale(0.015625)"/>
       <path id="DejaVuSans-Oblique-64" d="M 2675 525 
Q 2444 222 2128 65 
Q 1813 -91 1428 -91 
Q 903 -91 598 267 
Q 294 625 294 1247 
Q 294 1766 478 2236 
Q 663 2706 1013 3078 
Q 1244 3325 1534 3454 
Q 1825 3584 2144 3584 
Q 2481 3584 2739 3421 
Q 2997 3259 3138 2956 
L 3513 4863 
L 4091 4863 
L 3144 0 
L 2566 0 
L 2675 525 
z
M 891 1350 
Q 891 897 1095 644 
Q 1300 391 1663 391 
Q 1931 391 2161 520 
Q 2391 650 2566 903 
Q 2750 1166 2856 1509 
Q 2963 1853 2963 2188 
Q 2963 2622 2758 2865 
Q 2553 3109 2194 3109 
Q 1922 3109 1687 2981 
Q 1453 2853 1288 2613 
Q 1106 2353 998 2009 
Q 891 1666 891 1350 
z
" transform="scale(0.015625)"/>
       <path id="DejaVuSans-Oblique-65" d="M 3078 2063 
Q 3088 2113 3092 2166 
Q 3097 2219 3097 2272 
Q 3097 2653 2873 2875 
Q 2650 3097 2266 3097 
Q 1838 3097 1509 2826 
Q 1181 2556 1013 2059 
L 3078 2063 
z
M 3578 1613 
L 903 1613 
Q 884 1494 878 1425 
Q 872 1356 872 1306 
Q 872 872 1139 634 
Q 1406 397 1894 397 
Q 2269 397 2603 481 
Q 2938 566 3225 728 
L 3116 159 
Q 2806 34 2476 -28 
Q 2147 -91 1806 -91 
Q 1078 -91 686 257 
Q 294 606 294 1247 
Q 294 1794 489 2264 
Q 684 2734 1063 3103 
Q 1306 3334 1642 3459 
Q 1978 3584 2356 3584 
Q 2950 3584 3301 3228 
Q 3653 2872 3653 2272 
Q 3653 2128 3634 1964 
Q 3616 1800 3578 1613 
z
" transform="scale(0.015625)"/>
       <path id="DejaVuSans-Oblique-63" d="M 3431 3366 
L 3316 2797 
Q 3109 2947 2876 3022 
Q 2644 3097 2394 3097 
Q 2119 3097 1870 3000 
Q 1622 2903 1453 2725 
Q 1184 2453 1037 2087 
Q 891 1722 891 1331 
Q 891 859 1127 628 
Q 1363 397 1844 397 
Q 2081 397 2348 469 
Q 2616 541 2906 684 
L 2797 116 
Q 2547 13 2283 -39 
Q 2019 -91 1741 -91 
Q 1044 -91 669 257 
Q 294 606 294 1253 
Q 294 1797 489 2255 
Q 684 2713 1069 3078 
Q 1331 3328 1684 3456 
Q 2038 3584 2456 3584 
Q 2700 3584 2940 3529 
Q 3181 3475 3431 3366 
z
" transform="scale(0.015625)"/>
       <path id="DejaVuSans-20" transform="scale(0.015625)"/>
       <path id="DejaVuSans-5b" d="M 550 4863 
L 1875 4863 
L 1875 4416 
L 1125 4416 
L 1125 -397 
L 1875 -397 
L 1875 -844 
L 550 -844 
L 550 4863 
z
" transform="scale(0.015625)"/>
       <path id="DejaVuSans-4b" d="M 628 4666 
L 1259 4666 
L 1259 2694 
L 3353 4666 
L 4166 4666 
L 1850 2491 
L 4331 0 
L 3500 0 
L 1259 2247 
L 1259 0 
L 628 0 
L 628 4666 
z
" transform="scale(0.015625)"/>
       <path id="DejaVuSans-5d" d="M 1947 4863 
L 1947 -844 
L 622 -844 
L 622 -397 
L 1369 -397 
L 1369 4416 
L 622 4416 
L 622 4863 
L 1947 4863 
z
" transform="scale(0.015625)"/>
      </defs>
      <use xlink:href="#DejaVuSans-Oblique-67" transform="translate(0 0.015625)"/>
      <use xlink:href="#DejaVuSans-Oblique-6c" transform="translate(63.476562 0.015625)"/>
      <use xlink:href="#DejaVuSans-Oblique-69" transform="translate(91.259766 0.015625)"/>
      <use xlink:href="#DejaVuSans-Oblique-64" transform="translate(119.042969 0.015625)"/>
      <use xlink:href="#DejaVuSans-Oblique-65" transform="translate(182.519531 0.015625)"/>
      <use xlink:href="#DejaVuSans-Oblique-63" transform="translate(244.042969 -16.390625) scale(0.7)"/>
      <use xlink:href="#DejaVuSans-Oblique-64" transform="translate(282.529297 -16.390625) scale(0.7)"/>
      <use xlink:href="#DejaVuSans-20" transform="translate(329.697266 0.015625)"/>
      <use xlink:href="#DejaVuSans-5b" transform="translate(361.484375 0.015625)"/>
      <use xlink:href="#DejaVuSans-4b" transform="translate(400.498047 0.015625)"/>
      <use xlink:href="#DejaVuSans-5d" transform="translate(466.074219 0.015625)"/>
     </g>
    </g>
   </g>
   <g id="matplotlib.axis_2">
    <g id="ytick_1">
     <g id="line2d_17">
      <path d="M 90 384.48 
L 648 384.48 
" clip-path="url(#pd47704a915)" style="fill: none; stroke: #b0b0b0; stroke-width: 0.8; stroke-linecap: square"/>
     </g>
     <g id="line2d_18">
      <defs>
       <path id="m56a8c4d7bf" d="M 0 0 
L -3.5 0 
" style="stroke: #000000; stroke-width: 0.8"/>
      </defs>
      <g>
       <use xlink:href="#m56a8c4d7bf" x="90" y="384.48" style="stroke: #000000; stroke-width: 0.8"/>
      </g>
     </g>
     <g id="text_10">
      <!-- 10 -->
      <g transform="translate(70.275 388.279219) scale(0.1 -0.1)">
       <use xlink:href="#DejaVuSans-31"/>
       <use xlink:href="#DejaVuSans-30" x="63.623047"/>
      </g>
     </g>
    </g>
    <g id="ytick_2">
     <g id="line2d_19">
      <path d="M 90 342.9 
L 648 342.9 
" clip-path="url(#pd47704a915)" style="fill: none; stroke: #b0b0b0; stroke-width: 0.8; stroke-linecap: square"/>
     </g>
     <g id="line2d_20">
      <g>
       <use xlink:href="#m56a8c4d7bf" x="90" y="342.9" style="stroke: #000000; stroke-width: 0.8"/>
      </g>
     </g>
     <g id="text_11">
      <!-- 20 -->
      <g transform="translate(70.275 346.699219) scale(0.1 -0.1)">
       <use xlink:href="#DejaVuSans-32"/>
       <use xlink:href="#DejaVuSans-30" x="63.623047"/>
      </g>
     </g>
    </g>
    <g id="ytick_3">
     <g id="line2d_21">
      <path d="M 90 301.32 
L 648 301.32 
" clip-path="url(#pd47704a915)" style="fill: none; stroke: #b0b0b0; stroke-width: 0.8; stroke-linecap: square"/>
     </g>
     <g id="line2d_22">
      <g>
       <use xlink:href="#m56a8c4d7bf" x="90" y="301.32" style="stroke: #000000; stroke-width: 0.8"/>
      </g>
     </g>
     <g id="text_12">
      <!-- 30 -->
      <g transform="translate(70.275 305.119219) scale(0.1 -0.1)">
       <defs>
        <path id="DejaVuSans-33" d="M 2597 2516 
Q 3050 2419 3304 2112 
Q 3559 1806 3559 1356 
Q 3559 666 3084 287 
Q 2609 -91 1734 -91 
Q 1441 -91 1130 -33 
Q 819 25 488 141 
L 488 750 
Q 750 597 1062 519 
Q 1375 441 1716 441 
Q 2309 441 2620 675 
Q 2931 909 2931 1356 
Q 2931 1769 2642 2001 
Q 2353 2234 1838 2234 
L 1294 2234 
L 1294 2753 
L 1863 2753 
Q 2328 2753 2575 2939 
Q 2822 3125 2822 3475 
Q 2822 3834 2567 4026 
Q 2313 4219 1838 4219 
Q 1578 4219 1281 4162 
Q 984 4106 628 3988 
L 628 4550 
Q 988 4650 1302 4700 
Q 1616 4750 1894 4750 
Q 2613 4750 3031 4423 
Q 3450 4097 3450 3541 
Q 3450 3153 3228 2886 
Q 3006 2619 2597 2516 
z
" transform="scale(0.015625)"/>
       </defs>
       <use xlink:href="#DejaVuSans-33"/>
       <use xlink:href="#DejaVuSans-30" x="63.623047"/>
      </g>
     </g>
    </g>
    <g id="ytick_4">
     <g id="line2d_23">
      <path d="M 90 259.74 
L 648 259.74 
" clip-path="url(#pd47704a915)" style="fill: none; stroke: #b0b0b0; stroke-width: 0.8; stroke-linecap: square"/>
     </g>
     <g id="line2d_24">
      <g>
       <use xlink:href="#m56a8c4d7bf" x="90" y="259.74" style="stroke: #000000; stroke-width: 0.8"/>
      </g>
     </g>
     <g id="text_13">
      <!-- 40 -->
      <g transform="translate(70.275 263.539219) scale(0.1 -0.1)">
       <use xlink:href="#DejaVuSans-34"/>
       <use xlink:href="#DejaVuSans-30" x="63.623047"/>
      </g>
     </g>
    </g>
    <g id="ytick_5">
     <g id="line2d_25">
      <path d="M 90 218.16 
L 648 218.16 
" clip-path="url(#pd47704a915)" style="fill: none; stroke: #b0b0b0; stroke-width: 0.8; stroke-linecap: square"/>
     </g>
     <g id="line2d_26">
      <g>
       <use xlink:href="#m56a8c4d7bf" x="90" y="218.16" style="stroke: #000000; stroke-width: 0.8"/>
      </g>
     </g>
     <g id="text_14">
      <!-- 50 -->
      <g transform="translate(70.275 221.959219) scale(0.1 -0.1)">
       <defs>
        <path id="DejaVuSans-35" d="M 691 4666 
L 3169 4666 
L 3169 4134 
L 1269 4134 
L 1269 2991 
Q 1406 3038 1543 3061 
Q 1681 3084 1819 3084 
Q 2600 3084 3056 2656 
Q 3513 2228 3513 1497 
Q 3513 744 3044 326 
Q 2575 -91 1722 -91 
Q 1428 -91 1123 -41 
Q 819 9 494 109 
L 494 744 
Q 775 591 1075 516 
Q 1375 441 1709 441 
Q 2250 441 2565 725 
Q 2881 1009 2881 1497 
Q 2881 1984 2565 2268 
Q 2250 2553 1709 2553 
Q 1456 2553 1204 2497 
Q 953 2441 691 2322 
L 691 4666 
z
" transform="scale(0.015625)"/>
       </defs>
       <use xlink:href="#DejaVuSans-35"/>
       <use xlink:href="#DejaVuSans-30" x="63.623047"/>
      </g>
     </g>
    </g>
    <g id="ytick_6">
     <g id="line2d_27">
      <path d="M 90 176.58 
L 648 176.58 
" clip-path="url(#pd47704a915)" style="fill: none; stroke: #b0b0b0; stroke-width: 0.8; stroke-linecap: square"/>
     </g>
     <g id="line2d_28">
      <g>
       <use xlink:href="#m56a8c4d7bf" x="90" y="176.58" style="stroke: #000000; stroke-width: 0.8"/>
      </g>
     </g>
     <g id="text_15">
      <!-- 60 -->
      <g transform="translate(70.275 180.379219) scale(0.1 -0.1)">
       <use xlink:href="#DejaVuSans-36"/>
       <use xlink:href="#DejaVuSans-30" x="63.623047"/>
      </g>
     </g>
    </g>
    <g id="ytick_7">
     <g id="line2d_29">
      <path d="M 90 135 
L 648 135 
" clip-path="url(#pd47704a915)" style="fill: none; stroke: #b0b0b0; stroke-width: 0.8; stroke-linecap: square"/>
     </g>
     <g id="line2d_30">
      <g>
       <use xlink:href="#m56a8c4d7bf" x="90" y="135" style="stroke: #000000; stroke-width: 0.8"/>
      </g>
     </g>
     <g id="text_16">
      <!-- 70 -->
      <g transform="translate(70.275 138.799219) scale(0.1 -0.1)">
       <defs>
        <path id="DejaVuSans-37" d="M 525 4666 
L 3525 4666 
L 3525 4397 
L 1831 0 
L 1172 0 
L 2766 4134 
L 525 4134 
L 525 4666 
z
" transform="scale(0.015625)"/>
       </defs>
       <use xlink:href="#DejaVuSans-37"/>
       <use xlink:href="#DejaVuSans-30" x="63.623047"/>
      </g>
     </g>
    </g>
    <g id="ytick_8">
     <g id="line2d_31">
      <path d="M 90 93.42 
L 648 93.42 
" clip-path="url(#pd47704a915)" style="fill: none; stroke: #b0b0b0; stroke-width: 0.8; stroke-linecap: square"/>
     </g>
     <g id="line2d_32">
      <g>
       <use xlink:href="#m56a8c4d7bf" x="90" y="93.42" style="stroke: #000000; stroke-width: 0.8"/>
      </g>
     </g>
     <g id="text_17">
      <!-- 80 -->
      <g transform="translate(70.275 97.219219) scale(0.1 -0.1)">
       <use xlink:href="#DejaVuSans-38"/>
       <use xlink:href="#DejaVuSans-30" x="63.623047"/>
      </g>
     </g>
    </g>
    <g id="ytick_9">
     <g id="line2d_33">
      <path d="M 90 51.84 
L 648 51.84 
" clip-path="url(#pd47704a915)" style="fill: none; stroke: #b0b0b0; stroke-width: 0.8; stroke-linecap: square"/>
     </g>
     <g id="line2d_34">
      <g>
       <use xlink:href="#m56a8c4d7bf" x="90" y="51.84" style="stroke: #000000; stroke-width: 0.8"/>
      </g>
     </g>
     <g id="text_18">
      <!-- 90 -->
      <g transform="translate(70.275 55.639219) scale(0.1 -0.1)">
       <defs>
        <path id="DejaVuSans-39" d="M 703 97 
L 703 672 
Q 941 559 1184 500 
Q 1428 441 1663 441 
Q 2288 441 2617 861 
Q 2947 1281 2994 2138 
Q 2813 1869 2534 1725 
Q 2256 1581 1919 1581 
Q 1219 1581 811 2004 
Q 403 2428 403 3163 
Q 403 3881 828 4315 
Q 1253 4750 1959 4750 
Q 2769 4750 3195 4129 
Q 3622 3509 3622 2328 
Q 3622 1225 3098 567 
Q 2575 -91 1691 -91 
Q 1453 -91 1209 -44 
Q 966 3 703 97 
z
M 1959 2075 
Q 2384 2075 2632 2365 
Q 2881 2656 2881 3163 
Q 2881 3666 2632 3958 
Q 2384 4250 1959 4250 
Q 1534 4250 1286 3958 
Q 1038 3666 1038 3163 
Q 1038 2656 1286 2365 
Q 1534 2075 1959 2075 
z
" transform="scale(0.015625)"/>
       </defs>
       <use xlink:href="#DejaVuSans-39"/>
       <use xlink:href="#DejaVuSans-30" x="63.623047"/>
      </g>
     </g>
    </g>
    <g id="text_19">
     <!-- $T_{sto,HT}$ [C] -->
     <g transform="translate(61.275 271.36) rotate(-90) scale(0.2 -0.2)">
      <defs>
       <path id="DejaVuSans-Oblique-54" d="M 378 4666 
L 4325 4666 
L 4225 4134 
L 2559 4134 
L 1759 0 
L 1125 0 
L 1925 4134 
L 275 4134 
L 378 4666 
z
" transform="scale(0.015625)"/>
       <path id="DejaVuSans-Oblique-73" d="M 3200 3397 
L 3091 2853 
Q 2863 2978 2609 3040 
Q 2356 3103 2088 3103 
Q 1634 3103 1373 2948 
Q 1113 2794 1113 2528 
Q 1113 2219 1719 2053 
Q 1766 2041 1788 2034 
L 1972 1978 
Q 2547 1819 2739 1644 
Q 2931 1469 2931 1166 
Q 2931 609 2489 259 
Q 2047 -91 1331 -91 
Q 1053 -91 747 -37 
Q 441 16 72 128 
L 184 722 
Q 500 559 806 475 
Q 1113 391 1394 391 
Q 1816 391 2080 572 
Q 2344 753 2344 1031 
Q 2344 1331 1650 1516 
L 1591 1531 
L 1394 1581 
Q 956 1697 753 1886 
Q 550 2075 550 2369 
Q 550 2928 970 3256 
Q 1391 3584 2113 3584 
Q 2397 3584 2667 3537 
Q 2938 3491 3200 3397 
z
" transform="scale(0.015625)"/>
       <path id="DejaVuSans-Oblique-74" d="M 2706 3500 
L 2619 3053 
L 1472 3053 
L 1100 1153 
Q 1081 1047 1072 975 
Q 1063 903 1063 863 
Q 1063 663 1183 572 
Q 1303 481 1569 481 
L 2150 481 
L 2053 0 
L 1503 0 
Q 991 0 739 200 
Q 488 400 488 806 
Q 488 878 497 964 
Q 506 1050 525 1153 
L 897 3053 
L 409 3053 
L 500 3500 
L 978 3500 
L 1172 4494 
L 1747 4494 
L 1556 3500 
L 2706 3500 
z
" transform="scale(0.015625)"/>
       <path id="DejaVuSans-Oblique-6f" d="M 1625 -91 
Q 1009 -91 651 289 
Q 294 669 294 1325 
Q 294 1706 417 2101 
Q 541 2497 738 2766 
Q 1047 3184 1428 3384 
Q 1809 3584 2291 3584 
Q 2888 3584 3255 3212 
Q 3622 2841 3622 2241 
Q 3622 1825 3500 1412 
Q 3378 1000 3181 728 
Q 2875 309 2494 109 
Q 2113 -91 1625 -91 
z
M 891 1344 
Q 891 869 1089 633 
Q 1288 397 1691 397 
Q 2269 397 2648 901 
Q 3028 1406 3028 2181 
Q 3028 2634 2825 2865 
Q 2622 3097 2228 3097 
Q 1903 3097 1650 2945 
Q 1397 2794 1197 2484 
Q 1050 2253 970 1956 
Q 891 1659 891 1344 
z
" transform="scale(0.015625)"/>
       <path id="DejaVuSans-2c" d="M 750 794 
L 1409 794 
L 1409 256 
L 897 -744 
L 494 -744 
L 750 256 
L 750 794 
z
" transform="scale(0.015625)"/>
       <path id="DejaVuSans-Oblique-48" d="M 1081 4666 
L 1716 4666 
L 1344 2753 
L 3634 2753 
L 4006 4666 
L 4641 4666 
L 3731 0 
L 3097 0 
L 3531 2222 
L 1241 2222 
L 806 0 
L 172 0 
L 1081 4666 
z
" transform="scale(0.015625)"/>
       <path id="DejaVuSans-b0" d="M 1600 4347 
Q 1350 4347 1178 4173 
Q 1006 4000 1006 3750 
Q 1006 3503 1178 3333 
Q 1350 3163 1600 3163 
Q 1850 3163 2022 3333 
Q 2194 3503 2194 3750 
Q 2194 3997 2020 4172 
Q 1847 4347 1600 4347 
z
M 1600 4750 
Q 1800 4750 1984 4673 
Q 2169 4597 2303 4453 
Q 2447 4313 2519 4134 
Q 2591 3956 2591 3750 
Q 2591 3338 2302 3052 
Q 2013 2766 1594 2766 
Q 1172 2766 890 3047 
Q 609 3328 609 3750 
Q 609 4169 896 4459 
Q 1184 4750 1600 4750 
z
" transform="scale(0.015625)"/>
       <path id="DejaVuSans-43" d="M 4122 4306 
L 4122 3641 
Q 3803 3938 3442 4084 
Q 3081 4231 2675 4231 
Q 1875 4231 1450 3742 
Q 1025 3253 1025 2328 
Q 1025 1406 1450 917 
Q 1875 428 2675 428 
Q 3081 428 3442 575 
Q 3803 722 4122 1019 
L 4122 359 
Q 3791 134 3420 21 
Q 3050 -91 2638 -91 
Q 1578 -91 968 557 
Q 359 1206 359 2328 
Q 359 3453 968 4101 
Q 1578 4750 2638 4750 
Q 3056 4750 3426 4639 
Q 3797 4528 4122 4306 
z
" transform="scale(0.015625)"/>
      </defs>
      <use xlink:href="#DejaVuSans-Oblique-54" transform="translate(0 0.015625)"/>
      <use xlink:href="#DejaVuSans-Oblique-73" transform="translate(61.083984 -16.390625) scale(0.7)"/>
      <use xlink:href="#DejaVuSans-Oblique-74" transform="translate(97.553711 -16.390625) scale(0.7)"/>
      <use xlink:href="#DejaVuSans-Oblique-6f" transform="translate(125 -16.390625) scale(0.7)"/>
      <use xlink:href="#DejaVuSans-2c" transform="translate(167.827148 -16.390625) scale(0.7)"/>
      <use xlink:href="#DejaVuSans-Oblique-48" transform="translate(203.71582 -16.390625) scale(0.7)"/>
      <use xlink:href="#DejaVuSans-Oblique-54" transform="translate(256.352539 -16.390625) scale(0.7)"/>
      <use xlink:href="#DejaVuSans-20" transform="translate(301.845703 0.015625)"/>
      <use xlink:href="#DejaVuSans-5b" transform="translate(333.632812 0.015625)"/>
      <use xlink:href="#DejaVuSans-b0" transform="translate(372.646484 0.015625)"/>
      <use xlink:href="#DejaVuSans-43" transform="translate(422.646484 0.015625)"/>
      <use xlink:href="#DejaVuSans-5d" transform="translate(492.470703 0.015625)"/>
     </g>
    </g>
   </g>
   <g id="QuadContourSet_2">
    <path clip-path="url(#pd47704a915)" style="fill: none; stroke: #000000; stroke-width: 1.5"/>
    <path clip-path="url(#pd47704a915)" style="fill: none; stroke: #000000; stroke-width: 1.5"/>
    <path d="M 648 171.853089 
L 642.363636 171.145514 
L 636.727273 170.43794 
L 631.090909 169.730366 
L 628.777923 169.44 
L 625.454545 169.038653 
L 619.818182 168.490513 
L 614.181818 167.992633 
L 608.545455 167.465237 
L 602.909091 166.893568 
L 597.272727 166.321879 
L 594.888314 166.08 
L 591.636364 165.750103 
L 586 165.176919 
L 580.363636 164.603528 
L 574.727273 164.030137 
L 569.090909 163.323716 
L 564.490586 162.72 
L 563.454545 162.58952 
L 557.818182 162.018583 
L 552.181818 161.52394 
L 546.545455 161.029297 
L 540.909091 160.534654 
L 535.272727 160.008856 
L 529.636364 159.366239 
L 529.570261 159.36 
L 524 158.851947 
L 518.363636 158.337865 
L 512.727273 157.823783 
L 507.090909 157.3097 
L 501.454545 156.795618 
L 495.818182 156.260007 
L 493.153466 156 
L 490.181818 155.669497 
L 484.545455 155.042627 
L 478.909091 154.415758 
L 473.272727 153.788888 
L 467.636364 153.162019 
L 462.942741 152.64 
L 462 152.534163 
L 456.363636 151.894814 
L 450.727273 151.255466 
L 447.441638 150.882767 
M 418.350692 147.842205 
L 416.909091 147.698564 
L 411.272727 147.122755 
L 405.636364 146.520903 
L 400.472232 145.92 
L 400 145.865051 
L 394.363636 145.209198 
L 388.727273 144.553345 
L 383.090909 143.888714 
L 377.454545 143.221889 
L 371.818182 142.616761 
L 371.179081 142.56 
L 366.181818 142.129338 
L 360.545455 141.643599 
L 354.909091 141.15786 
L 349.272727 140.666919 
L 343.636364 140.155174 
L 338 139.643428 
L 333.116083 139.2 
L 332.363636 139.131683 
L 326.727273 138.619937 
L 321.090909 138.108192 
L 315.454545 137.556244 
L 309.818182 136.956795 
L 304.181818 136.379672 
L 298.738085 135.84 
L 298.545455 135.817627 
L 292.909091 135.162983 
L 287.272727 134.508339 
L 281.636364 133.853696 
L 276 133.282539 
L 270.363636 132.760542 
L 267.62229 132.48 
L 264.727273 132.172431 
L 259.090909 131.573618 
L 253.454545 130.974805 
L 247.818182 130.375992 
L 242.181818 129.777179 
L 236.545455 129.152911 
L 236.265436 129.12 
L 230.909091 128.49046 
L 225.272727 127.828008 
L 219.636364 127.165557 
L 214 126.583426 
L 208.363636 126.077506 
L 204.745322 125.76 
L 202.727273 125.582917 
L 197.090909 125.306122 
L 191.454545 125.083777 
L 185.818182 124.861431 
L 180.181818 124.574981 
L 174.545455 124.25793 
L 168.909091 123.933101 
L 163.272727 123.673238 
L 157.636364 123.673238 
L 152 123.673238 
L 146.363636 123.673238 
L 140.727273 123.673238 
L 135.090909 123.673238 
L 129.454545 123.673238 
L 123.818182 123.673238 
L 118.181818 123.673238 
L 112.545455 123.673238 
L 106.909091 123.673238 
L 101.272727 123.673238 
L 95.636364 123.673238 
L 90 123.673238 
" clip-path="url(#pd47704a915)" style="fill: none; stroke: #000000; stroke-width: 1.5"/>
    <path d="M 648 233.65539 
L 644.289419 233.28 
L 642.363636 233.085174 
L 636.727273 232.497959 
L 631.090909 231.861689 
L 625.454545 231.203833 
L 619.818182 230.545976 
L 614.454963 229.92 
L 614.181818 229.88812 
L 608.545455 229.216575 
L 602.909091 228.5245 
L 597.272727 227.832424 
L 591.636364 227.225114 
L 586 226.692037 
L 584.579716 226.56 
L 580.363636 226.168052 
L 574.727273 225.644068 
L 569.090909 225.036724 
L 563.454545 224.417832 
L 557.818182 223.852704 
L 552.181818 223.309949 
L 551.04003 223.2 
L 546.545455 222.767194 
L 540.909091 222.224439 
L 535.272727 221.675972 
L 529.636364 221.104657 
L 524 220.533342 
L 518.363636 219.962026 
L 517.159773 219.84 
L 512.727273 219.359628 
L 507.090909 218.748786 
L 501.454545 218.130738 
L 495.818182 217.495101 
L 490.181818 216.920945 
L 485.853149 216.48 
L 484.545455 216.331203 
L 478.909091 215.689867 
L 473.272727 215.048531 
L 467.636364 214.438255 
L 462 213.881565 
L 456.363636 213.191998 
L 455.775141 213.12 
L 450.727273 212.502431 
L 448.393074 212.216859 
M 419.214337 209.164329 
L 416.909091 208.931306 
L 411.272727 208.361563 
L 405.636364 207.766247 
L 400 207.14463 
L 394.363636 206.506501 
L 393.422955 206.4 
L 388.727273 205.868371 
L 383.090909 205.188849 
L 377.454545 204.498978 
L 371.818182 203.885642 
L 366.181818 203.314863 
L 363.459655 203.04 
L 360.545455 202.745746 
L 354.909091 202.17663 
L 349.272727 201.616592 
L 343.636364 201.092872 
L 338 200.569151 
L 332.363636 200.045431 
L 328.430814 199.68 
L 326.727273 199.513784 
L 321.090909 198.963837 
L 315.454545 198.387344 
L 309.818182 197.781642 
L 304.181818 197.18931 
L 298.545455 196.60272 
L 295.828886 196.32 
L 292.909091 195.97639 
L 287.272727 195.313088 
L 281.636364 194.649785 
L 276 193.986482 
L 270.363636 193.423846 
L 266.112485 192.96 
L 264.727273 192.808461 
L 259.090909 192.153715 
L 253.454545 191.496231 
L 247.818182 190.838748 
L 242.181818 190.181264 
L 237.103151 189.6 
L 236.545455 189.536171 
L 230.909091 188.909663 
L 225.272727 188.283154 
L 219.636364 187.672615 
L 214 187.118206 
L 208.363636 186.589236 
L 204.642413 186.24 
L 202.727273 186.060265 
L 197.090909 185.661195 
L 191.454545 185.294601 
L 185.818182 184.928007 
L 180.181818 184.547681 
L 174.545455 184.132808 
L 168.909091 183.677466 
L 163.272727 183.313193 
L 157.636364 183.313193 
L 152 183.313193 
L 146.363636 183.313193 
L 140.727273 183.313193 
L 135.090909 183.313193 
L 129.454545 183.313193 
L 123.818182 183.313193 
L 118.181818 183.313193 
L 112.545455 183.313193 
L 106.909091 183.313193 
L 101.272727 183.313193 
L 95.636364 183.313193 
L 90 183.313193 
" clip-path="url(#pd47704a915)" style="fill: none; stroke: #000000; stroke-width: 1.5"/>
    <path d="M 648 273.776111 
L 646.093183 273.6 
L 642.363636 273.255545 
L 636.727273 272.734979 
L 631.090909 272.172192 
L 625.454545 271.587292 
L 619.818182 270.992287 
L 614.181818 270.397282 
L 612.786249 270.24 
L 608.545455 269.762058 
L 602.909091 269.066504 
L 597.272727 268.379282 
L 594.958355 268.129653 
M 565.764258 265.208548 
L 563.454545 264.983776 
L 557.818182 264.435267 
L 552.181818 263.886758 
L 548.413083 263.52 
L 546.545455 263.33825 
L 540.909091 262.78063 
L 535.272727 262.192993 
L 529.636364 261.562176 
L 524 260.980906 
L 518.363636 260.399636 
L 516.03997 260.16 
L 512.727273 259.774057 
L 507.090909 259.117398 
L 501.454545 258.460739 
L 495.818182 257.840639 
L 490.181818 257.216363 
L 486.56957 256.8 
L 484.545455 256.563078 
L 478.909091 255.903342 
L 473.272727 255.243607 
L 467.636364 254.583871 
L 462 253.924136 
L 457.352691 253.44 
L 456.363636 253.336965 
L 450.727273 252.749794 
L 445.090909 252.162623 
L 439.454545 251.592172 
L 433.818182 251.063491 
L 428.181818 250.552046 
L 423.262839 250.08 
L 422.545455 250.011157 
L 416.909091 249.426103 
L 411.272727 248.841049 
L 405.636364 248.238794 
L 400 247.608303 
L 394.363636 246.933539 
L 392.579926 246.72 
L 388.727273 246.258775 
L 383.090909 245.658362 
L 377.454545 245.076537 
L 371.818182 244.494711 
L 366.181818 243.912886 
L 360.825803 243.36 
L 360.545455 243.33106 
L 354.909091 242.723381 
L 349.272727 242.11584 
L 343.636364 241.552813 
L 338 240.989787 
L 332.363636 240.42676 
L 328.091413 240 
L 326.727273 239.849373 
L 321.090909 239.227014 
L 315.454545 238.618071 
L 309.818182 238.020577 
L 304.181818 237.418061 
L 298.545455 236.810019 
L 296.969431 236.64 
L 292.909091 236.182306 
L 287.272727 235.546957 
L 281.636364 234.911609 
L 276 234.27626 
L 270.363636 233.708798 
L 266.217885 233.28 
L 264.727273 233.125431 
L 259.090909 232.465124 
L 253.454545 231.799854 
L 247.818182 231.134585 
L 242.181818 230.469315 
L 237.17571 229.92 
L 236.545455 229.850843 
L 230.909091 229.302566 
L 225.272727 228.754289 
L 219.636364 228.186029 
L 214 227.596135 
L 208.363636 226.985441 
L 204.437049 226.56 
L 202.727273 226.374748 
L 197.090909 225.868666 
L 191.454545 225.392549 
L 185.818182 224.944247 
L 180.181818 224.526425 
L 174.545455 224.108602 
L 168.909091 223.69078 
L 163.272727 223.356522 
L 157.636364 223.356522 
L 152 223.356522 
L 146.363636 223.356522 
L 140.727273 223.356522 
L 135.090909 223.356522 
L 129.454545 223.356522 
L 123.818182 223.356522 
L 118.181818 223.356522 
L 112.545455 223.356522 
L 106.909091 223.356522 
L 101.272727 223.356522 
L 95.636364 223.356522 
L 90 223.356522 
" clip-path="url(#pd47704a915)" style="fill: none; stroke: #000000; stroke-width: 1.5"/>
    <path d="M 648 305.646425 
L 642.363636 305.080809 
L 636.727273 304.512005 
L 631.090909 303.94181 
L 630.084516 303.84 
L 625.454545 303.365587 
L 619.818182 302.788053 
L 614.181818 302.210519 
L 608.545455 301.62225 
L 602.909091 301.01788 
L 597.892826 300.48 
L 597.272727 300.410838 
L 591.636364 299.782194 
L 586 299.15355 
L 580.363636 298.525741 
L 575.531121 297.994199 
M 540.090809 294.233179 
L 535.272727 293.7764 
L 535.12178 293.76 
L 529.636364 293.164008 
L 524 292.551615 
L 518.363636 291.938228 
L 512.727273 291.324042 
L 507.090909 290.709464 
L 504.252775 290.4 
L 501.454545 290.094887 
L 495.818182 289.498271 
L 490.181818 288.913629 
L 484.545455 288.328988 
L 478.909091 287.742794 
L 473.272727 287.153982 
L 472.251639 287.04 
L 467.636364 286.524808 
L 462 285.895635 
L 456.363636 285.336633 
L 450.727273 284.767205 
L 445.090909 284.190298 
L 440.108192 283.68 
L 439.454545 283.612859 
L 433.818182 283.033908 
L 428.181818 282.454958 
L 422.545455 281.860495 
L 416.909091 281.253319 
L 411.272727 280.654048 
L 408.130881 280.32 
L 405.636364 280.040047 
L 400 279.407493 
L 394.363636 278.774939 
L 388.727273 278.153061 
L 383.090909 277.55727 
L 377.711601 276.96 
L 377.454545 276.931406 
L 371.818182 276.280839 
L 366.181818 275.629957 
L 360.545455 274.979075 
L 354.909091 274.328193 
L 349.272727 273.693891 
L 348.340997 273.6 
L 343.636364 273.125909 
L 338 272.557928 
L 332.363636 271.989946 
L 326.727273 271.415816 
L 321.090909 270.835675 
L 315.454545 270.254768 
L 315.317204 270.24 
L 309.818182 269.648713 
L 304.181818 269.025893 
L 298.545455 268.414251 
L 292.909091 267.843656 
L 287.272727 267.293329 
L 283.039485 266.88 
L 281.636364 266.743001 
L 276 266.192673 
L 270.363636 265.624562 
L 264.727273 265.056452 
L 259.090909 264.488341 
L 253.454545 263.92023 
L 249.483772 263.52 
L 247.818182 263.352119 
L 242.181818 262.778765 
L 236.545455 262.204013 
L 230.909091 261.600293 
L 225.272727 260.96311 
L 219.636364 260.325927 
L 218.168615 260.16 
L 214 259.661539 
L 208.363636 258.987573 
L 202.727273 258.357505 
L 197.090909 257.887303 
L 191.454545 257.433991 
L 185.818182 256.977869 
L 183.620229 256.8 
L 180.181818 256.521068 
L 174.545455 256.063832 
L 168.909091 255.606596 
L 163.272727 255.240808 
L 157.636364 255.240808 
L 152 255.240808 
L 146.363636 255.240808 
L 140.727273 255.240808 
L 135.090909 255.240808 
L 129.454545 255.240808 
L 123.818182 255.240808 
L 118.181818 255.240808 
L 112.545455 255.240808 
L 106.909091 255.240808 
L 101.272727 255.240808 
L 95.636364 255.240808 
L 90 255.240808 
" clip-path="url(#pd47704a915)" style="fill: none; stroke: #000000; stroke-width: 1.5"/>
    <path d="M 648 335.29069 
L 642.363636 334.701601 
L 636.727273 334.112662 
L 636.409971 334.08 
L 631.090909 333.533104 
L 625.454545 332.983591 
L 619.818182 332.442387 
L 614.181818 331.901183 
L 608.545455 331.384896 
L 602.909091 330.905986 
L 600.720191 330.72 
L 597.272727 330.413836 
L 591.636364 329.755388 
L 586 329.032879 
L 580.363636 328.31037 
L 574.727273 327.58786 
L 572.761483 327.36 
L 569.090909 326.934533 
L 563.454545 326.298501 
L 557.818182 325.66247 
L 552.181818 325.026438 
L 546.545455 324.390406 
L 543.085766 324 
L 540.909091 323.76919 
L 535.272727 323.25199 
L 529.636364 322.685214 
L 524 322.067508 
L 518.363636 321.449802 
L 512.727273 320.832096 
L 510.974465 320.64 
L 507.090909 320.259883 
L 501.454545 319.708203 
L 495.818182 319.150774 
L 490.181818 318.589513 
L 484.545455 318.028252 
L 478.909091 317.46699 
L 477.031274 317.28 
L 473.272727 316.900559 
L 467.636364 316.279533 
L 462 315.626133 
L 456.363636 315.045606 
L 450.727273 314.469104 
L 445.235396 313.92 
L 445.090909 313.905569 
L 439.454545 313.368663 
L 433.818182 312.83191 
L 428.181818 312.295158 
L 422.545455 311.707594 
L 416.909091 311.043811 
L 412.800911 310.56 
L 411.272727 310.380029 
L 405.636364 309.716247 
L 400 309.10746 
L 394.363636 308.532637 
L 389.537575 308.057466 
M 354.096053 304.303979 
L 349.272727 303.902438 
L 348.602997 303.84 
L 343.636364 303.368831 
L 338 302.704314 
L 332.363636 302.039797 
L 326.727273 301.37528 
L 321.090909 300.710763 
L 319.133597 300.48 
L 315.454545 300.103908 
L 309.818182 299.518023 
L 304.181818 298.942193 
L 298.545455 298.383244 
L 292.909091 297.824296 
L 287.272727 297.265348 
L 285.807055 297.12 
L 281.636364 296.7064 
L 276 296.147452 
L 270.363636 295.590963 
L 264.727273 295.034475 
L 259.090909 294.477986 
L 253.454545 293.921497 
L 251.928248 293.76 
L 247.818182 293.318119 
L 242.181818 292.702009 
L 236.545455 292.094858 
L 230.909091 291.501146 
L 225.272727 290.907434 
L 220.455431 290.4 
L 219.636364 290.313723 
L 214 289.802406 
L 208.363636 289.296273 
L 202.727273 288.792776 
L 197.090909 288.366162 
L 191.454545 287.958768 
L 185.818182 287.483457 
L 181.06944 287.04 
L 180.181818 286.956202 
L 174.545455 286.424088 
L 168.909091 285.891975 
L 163.272727 285.466284 
L 157.636364 285.466284 
L 152 285.466284 
L 146.363636 285.466284 
L 140.727273 285.466284 
L 135.090909 285.466284 
L 129.454545 285.466284 
L 123.818182 285.466284 
L 118.181818 285.466284 
L 112.545455 285.466284 
L 106.909091 285.466284 
L 101.272727 285.466284 
L 95.636364 285.466284 
L 90 285.466284 
" clip-path="url(#pd47704a915)" style="fill: none; stroke: #000000; stroke-width: 1.5"/>
    <path d="M 623.309709 384.48 
L 619.818182 384.08005 
L 614.181818 383.434412 
L 608.545455 382.82693 
L 602.909091 382.275988 
L 597.272727 381.746375 
L 591.636364 381.216761 
L 590.606591 381.12 
L 586 380.687148 
L 580.363636 380.157535 
L 574.727273 379.627921 
L 569.090909 379.093525 
L 563.454545 378.557933 
L 557.818182 378.022341 
L 555.057407 377.76 
L 552.181818 377.489625 
L 547.37938 377.074517 
M 511.921023 373.5215 
L 507.090909 373.05572 
L 501.454545 372.514314 
L 495.818182 371.950978 
L 490.181818 371.373021 
L 486.892528 371.04 
L 484.545455 370.804423 
L 478.909091 370.258623 
L 473.272727 369.712823 
L 467.636364 369.167023 
L 462 368.621223 
L 456.363636 368.049296 
L 452.724213 367.68 
L 450.727273 367.477369 
L 445.090909 366.905441 
L 439.454545 366.333514 
L 433.818182 365.761587 
L 428.181818 365.192602 
L 422.545455 364.612131 
L 419.88505 364.32 
L 416.909091 363.994043 
L 411.272727 363.376692 
L 405.636364 362.759341 
L 400 362.141989 
L 394.363636 361.524638 
L 389.208538 360.96 
L 388.727273 360.907411 
L 383.090909 360.373124 
L 377.454545 359.81263 
L 371.818182 359.240146 
L 366.181818 358.66429 
L 360.545455 358.088434 
L 355.764763 357.6 
L 354.909091 357.512578 
L 349.272727 356.958185 
L 343.636364 356.489643 
L 338 356.021101 
L 332.363636 355.55256 
L 326.727273 355.069894 
L 321.090909 354.568721 
L 317.420659 354.24 
L 315.454545 354.063908 
L 309.818182 353.589912 
L 304.181818 353.13646 
L 298.545455 352.679385 
L 292.909091 352.151996 
L 287.272727 351.559527 
L 281.636364 350.967057 
L 280.808159 350.88 
L 276 350.374588 
L 270.363636 349.741952 
L 264.727273 349.123198 
L 259.090909 348.536939 
L 253.454545 347.963152 
L 249.101423 347.52 
L 247.818182 347.389365 
L 242.181818 346.815578 
L 236.545455 346.222503 
L 230.909091 345.600497 
L 225.272727 344.978491 
L 219.636364 344.356485 
L 217.855892 344.16 
L 214 343.73391 
L 208.363636 343.111072 
L 202.727273 342.490387 
L 197.090909 341.956809 
L 191.454545 341.477812 
L 185.818182 340.998815 
L 183.478724 340.8 
L 180.181818 340.518308 
L 174.545455 340.03673 
L 168.909091 339.555153 
L 163.272727 339.16989 
L 157.636364 339.16989 
L 152 339.16989 
L 146.363636 339.16989 
L 140.727273 339.16989 
L 135.090909 339.16989 
L 129.454545 339.16989 
L 123.818182 339.16989 
L 118.181818 339.16989 
L 112.545455 339.16989 
L 106.909091 339.16989 
L 101.272727 339.16989 
L 95.636364 339.16989 
L 90 339.16989 
" clip-path="url(#pd47704a915)" style="fill: none; stroke: #000000; stroke-width: 1.5"/>
    <path clip-path="url(#pd47704a915)" style="fill: none; stroke: #000000; stroke-width: 1.5"/>
   </g>
   <g id="patch_3">
    <path d="M 90 384.48 
L 90 51.84 
" style="fill: none; stroke: #000000; stroke-width: 0.8; stroke-linejoin: miter; stroke-linecap: square"/>
   </g>
   <g id="patch_4">
    <path d="M 648 384.48 
L 648 51.84 
" style="fill: none; stroke: #000000; stroke-width: 0.8; stroke-linejoin: miter; stroke-linecap: square"/>
   </g>
   <g id="patch_5">
    <path d="M 90 384.48 
L 648 384.48 
" style="fill: none; stroke: #000000; stroke-width: 0.8; stroke-linejoin: miter; stroke-linecap: square"/>
   </g>
   <g id="patch_6">
    <path d="M 90 51.84 
L 648 51.84 
" style="fill: none; stroke: #000000; stroke-width: 0.8; stroke-linejoin: miter; stroke-linecap: square"/>
   </g>
   <g id="text_20">
    <g clip-path="url(#pd47704a915)">
     <!-- 4.00 -->
     <g transform="translate(421.546533 150.874518) rotate(-354.070388) scale(0.1 -0.1)">
      <defs>
       <path id="DejaVuSans-2e" d="M 684 794 
L 1344 794 
L 1344 0 
L 684 0 
L 684 794 
z
" transform="scale(0.015625)"/>
      </defs>
      <use xlink:href="#DejaVuSans-34"/>
      <use xlink:href="#DejaVuSans-2e" x="63.623047"/>
      <use xlink:href="#DejaVuSans-30" x="95.410156"/>
      <use xlink:href="#DejaVuSans-30" x="159.033203"/>
     </g>
    </g>
   </g>
   <g id="text_21">
    <g clip-path="url(#pd47704a915)">
     <!-- 6.00 -->
     <g transform="translate(422.462207 212.166033) rotate(-354.153829) scale(0.1 -0.1)">
      <use xlink:href="#DejaVuSans-36"/>
      <use xlink:href="#DejaVuSans-2e" x="63.623047"/>
      <use xlink:href="#DejaVuSans-30" x="95.410156"/>
      <use xlink:href="#DejaVuSans-30" x="159.033203"/>
     </g>
    </g>
   </g>
   <g id="text_22">
    <g clip-path="url(#pd47704a915)">
     <!-- 8.00 -->
     <g transform="translate(569.012604 268.291702) rotate(-354.327726) scale(0.1 -0.1)">
      <use xlink:href="#DejaVuSans-38"/>
      <use xlink:href="#DejaVuSans-2e" x="63.623047"/>
      <use xlink:href="#DejaVuSans-30" x="95.410156"/>
      <use xlink:href="#DejaVuSans-30" x="159.033203"/>
     </g>
    </g>
   </g>
   <g id="text_23">
    <g clip-path="url(#pd47704a915)">
     <!-- 10.00 -->
     <g transform="translate(543.291575 297.262051) rotate(-353.882667) scale(0.1 -0.1)">
      <use xlink:href="#DejaVuSans-31"/>
      <use xlink:href="#DejaVuSans-30" x="63.623047"/>
      <use xlink:href="#DejaVuSans-2e" x="127.246094"/>
      <use xlink:href="#DejaVuSans-30" x="159.033203"/>
      <use xlink:href="#DejaVuSans-30" x="222.65625"/>
     </g>
    </g>
   </g>
   <g id="text_24">
    <g clip-path="url(#pd47704a915)">
     <!-- 12.00 -->
     <g transform="translate(357.291795 307.387811) rotate(-353.893036) scale(0.1 -0.1)">
      <use xlink:href="#DejaVuSans-31"/>
      <use xlink:href="#DejaVuSans-32" x="63.623047"/>
      <use xlink:href="#DejaVuSans-2e" x="127.246094"/>
      <use xlink:href="#DejaVuSans-30" x="159.033203"/>
      <use xlink:href="#DejaVuSans-30" x="222.65625"/>
     </g>
    </g>
   </g>
   <g id="text_25">
    <g clip-path="url(#pd47704a915)">
     <!-- 14.00 -->
     <g transform="translate(515.114614 376.719179) rotate(-354.105917) scale(0.1 -0.1)">
      <use xlink:href="#DejaVuSans-31"/>
      <use xlink:href="#DejaVuSans-34" x="63.623047"/>
      <use xlink:href="#DejaVuSans-2e" x="127.246094"/>
      <use xlink:href="#DejaVuSans-30" x="159.033203"/>
      <use xlink:href="#DejaVuSans-30" x="222.65625"/>
     </g>
    </g>
   </g>
  </g>
 </g>
 <defs>
  <clipPath id="pd47704a915">
   <rect x="90" y="51.84" width="558" height="332.64"/>
  </clipPath>
 </defs>
</svg>
