<?xml version="1.0" encoding="utf-8" standalone="no"?>
<!DOCTYPE svg PUBLIC "-//W3C//DTD SVG 1.1//EN"
  "http://www.w3.org/Graphics/SVG/1.1/DTD/svg11.dtd">
<svg xmlns:xlink="http://www.w3.org/1999/xlink" width="720pt" height="432pt" viewBox="0 0 720 432" xmlns="http://www.w3.org/2000/svg" version="1.1">
 <metadata>
  <rdf:RDF xmlns:dc="http://purl.org/dc/elements/1.1/" xmlns:cc="http://creativecommons.org/ns#" xmlns:rdf="http://www.w3.org/1999/02/22-rdf-syntax-ns#">
   <cc:Work>
    <dc:type rdf:resource="http://purl.org/dc/dcmitype/StillImage"/>
    <dc:date>2024-06-18T13:11:42.854813</dc:date>
    <dc:format>image/svg+xml</dc:format>
    <dc:creator>
     <cc:Agent>
      <dc:title>Matplotlib v3.8.3, https://matplotlib.org/</dc:title>
     </cc:Agent>
    </dc:creator>
   </cc:Work>
  </rdf:RDF>
 </metadata>
 <defs>
  <style type="text/css">*{stroke-linejoin: round; stroke-linecap: butt}</style>
 </defs>
 <g id="figure_1">
  <g id="patch_1">
   <path d="M 0 432 
L 720 432 
L 720 0 
L 0 0 
z
" style="fill: #ffffff"/>
  </g>
  <g id="axes_1">
   <g id="patch_2">
    <path d="M 90 384.48 
L 536.4 384.48 
L 536.4 51.84 
L 90 51.84 
z
" style="fill: #ffffff"/>
   </g>
   <g id="QuadContourSet_1">
    <path clip-path="url(#p5a0ab6ecff)" style="fill: #460a5d"/>
    <path clip-path="url(#p5a0ab6ecff)" style="fill: #481d6f"/>
    <path clip-path="url(#p5a0ab6ecff)" style="fill: #472e7c"/>
    <path clip-path="url(#p5a0ab6ecff)" style="fill: #423f85"/>
    <path clip-path="url(#p5a0ab6ecff)" style="fill: #3d4e8a"/>
    <path clip-path="url(#p5a0ab6ecff)" style="fill: #365d8d"/>
    <path clip-path="url(#p5a0ab6ecff)" style="fill: #306a8e"/>
    <path clip-path="url(#p5a0ab6ecff)" style="fill: #2a778e"/>
    <path d="M 401.127273 55.308654 
L 405.636364 55.722204 
L 410.145455 56.179574 
L 414.654545 56.637066 
L 419.163636 57.061133 
L 423.672727 57.425288 
L 428.181818 57.788463 
L 432.690909 58.077426 
L 437.2 58.314284 
L 441.709091 58.55067 
L 441.709091 55.2 
L 446.218182 51.84 
L 441.709091 51.84 
L 437.2 51.84 
L 432.690909 51.84 
L 428.181818 51.84 
L 423.672727 51.84 
L 419.163636 51.84 
L 414.654545 51.84 
L 410.145455 51.84 
L 405.636364 51.84 
L 401.127273 51.84 
L 396.618182 51.84 
L 392.109091 51.84 
L 387.6 51.84 
L 383.090909 51.84 
L 378.581818 51.84 
L 374.072727 51.84 
L 373.099577 51.84 
L 374.072727 51.980593 
L 378.581818 52.632028 
L 383.090909 53.260432 
L 387.6 53.852355 
L 392.109091 54.444277 
L 396.618182 54.899798 
L 399.928977 55.2 
z
" clip-path="url(#p5a0ab6ecff)" style="fill: #25838e"/>
    <path d="M 401.127273 89.012035 
L 405.636364 89.248421 
L 409.286854 89.439796 
L 410.145455 88.8 
L 410.145455 85.44 
L 414.654545 82.08 
L 419.163636 78.72 
L 423.672727 75.36 
L 428.181818 72 
L 428.181818 68.64 
L 432.690909 65.28 
L 437.2 61.92 
L 441.709091 58.56 
L 441.709091 58.55067 
L 437.2 58.314284 
L 432.690909 58.077426 
L 428.181818 57.788463 
L 423.672727 57.425288 
L 419.163636 57.061133 
L 414.654545 56.637066 
L 410.145455 56.179574 
L 405.636364 55.722204 
L 401.127273 55.308654 
L 399.928977 55.2 
L 396.618182 54.899798 
L 392.109091 54.444277 
L 387.6 53.852355 
L 383.090909 53.260432 
L 378.581818 52.632028 
L 374.072727 51.980593 
L 373.099577 51.84 
L 369.563636 51.84 
L 365.054545 51.84 
L 360.545455 51.84 
L 356.036364 51.84 
L 351.527273 51.84 
L 347.018182 51.84 
L 342.509091 51.84 
L 338 51.84 
L 333.490909 51.84 
L 328.981818 51.84 
L 324.472727 51.84 
L 319.963636 51.84 
L 315.454545 51.84 
L 310.945455 51.84 
L 306.436364 51.84 
L 301.927273 51.84 
L 297.418182 51.84 
L 292.909091 51.84 
L 288.4 51.84 
L 283.890909 51.84 
L 279.381818 51.84 
L 274.872727 51.84 
L 270.363636 51.84 
L 265.854545 51.84 
L 261.345455 51.84 
L 256.836364 51.84 
L 252.327273 51.84 
L 247.818182 51.84 
L 243.309091 51.84 
L 238.8 51.84 
L 234.290909 51.84 
L 229.781818 51.84 
L 225.272727 51.84 
L 220.763636 51.84 
L 217.912667 51.84 
L 220.763636 55.060443 
L 220.955824 55.2 
L 225.272727 57.416571 
L 229.781818 56.962639 
L 234.290909 56.508708 
L 238.8 56.054776 
L 243.309091 56.896345 
L 247.818182 58.452471 
L 248.127263 58.56 
L 252.327273 60.025434 
L 256.836364 61.617551 
L 257.602566 61.92 
L 261.345455 63.717507 
L 263.071877 65.28 
L 265.854545 67.798443 
L 266.784395 68.64 
L 270.363636 71.879379 
L 270.496912 72 
L 274.209429 75.36 
L 274.872727 75.771403 
L 279.381818 75.765131 
L 283.890909 75.705263 
L 288.4 75.645396 
L 292.909091 75.585529 
L 297.418182 75.525662 
L 301.927273 75.472174 
L 306.436364 76.120218 
L 310.945455 76.972884 
L 315.454545 77.851752 
L 319.74897 78.72 
L 319.963636 78.763401 
L 324.472727 79.623934 
L 328.981818 80.322526 
L 333.490909 81.02341 
L 338 81.798286 
L 339.612485 82.08 
L 342.509091 82.586061 
L 347.018182 83.30373 
L 351.527273 83.955165 
L 356.036364 84.592345 
L 360.545455 85.1878 
L 362.466639 85.44 
L 365.054545 85.77352 
L 369.563636 86.224129 
L 374.072727 86.632985 
L 378.581818 87.062422 
L 383.090909 87.519914 
L 387.6 87.969371 
L 392.109091 88.345143 
L 396.618182 88.708319 
L 397.954324 88.8 
z
" clip-path="url(#p5a0ab6ecff)" style="fill: #21918c"/>
    <path d="M 360.545455 119.264998 
L 365.054545 119.628174 
L 369.563636 119.946172 
L 374.072727 120.182558 
L 376.85292 120.328308 
L 378.581818 119.04 
L 378.581818 115.68 
L 383.090909 112.32 
L 387.6 108.96 
L 392.109091 105.6 
L 396.618182 102.24 
L 396.618182 98.88 
L 401.127273 95.52 
L 405.636364 92.16 
L 409.286854 89.439796 
L 405.636364 89.248421 
L 401.127273 89.012035 
L 397.954324 88.8 
L 396.618182 88.708319 
L 392.109091 88.345143 
L 387.6 87.969371 
L 383.090909 87.519914 
L 378.581818 87.062422 
L 374.072727 86.632985 
L 369.563636 86.224129 
L 365.054545 85.77352 
L 362.466639 85.44 
L 360.545455 85.1878 
L 356.036364 84.592345 
L 351.527273 83.955165 
L 347.018182 83.30373 
L 342.509091 82.586061 
L 339.612485 82.08 
L 338 81.798286 
L 333.490909 81.02341 
L 328.981818 80.322526 
L 324.472727 79.623934 
L 319.963636 78.763401 
L 319.74897 78.72 
L 315.454545 77.851752 
L 310.945455 76.972884 
L 306.436364 76.120218 
L 301.927273 75.472174 
L 297.418182 75.525662 
L 292.909091 75.585529 
L 288.4 75.645396 
L 283.890909 75.705263 
L 279.381818 75.765131 
L 274.872727 75.771403 
L 274.209429 75.36 
L 270.496912 72 
L 270.363636 71.879379 
L 266.784395 68.64 
L 265.854545 67.798443 
L 263.071877 65.28 
L 261.345455 63.717507 
L 257.602566 61.92 
L 256.836364 61.617551 
L 252.327273 60.025434 
L 248.127263 58.56 
L 247.818182 58.452471 
L 243.309091 56.896345 
L 238.8 56.054776 
L 234.290909 56.508708 
L 229.781818 56.962639 
L 225.272727 57.416571 
L 220.955824 55.2 
L 220.763636 55.060443 
L 217.912667 51.84 
L 216.254545 51.84 
L 211.745455 51.84 
L 207.236364 51.84 
L 202.727273 51.84 
L 198.218182 51.84 
L 193.709091 51.84 
L 189.2 51.84 
L 184.690909 55.2 
L 180.181818 55.2 
L 175.672727 58.56 
L 171.163636 61.92 
L 169.419406 61.92 
L 171.163636 63.651065 
L 175.672727 63.794603 
L 177.604764 65.28 
L 180.181818 67.544986 
L 182.248747 68.64 
L 184.690909 69.809561 
L 188.832608 72 
L 189.2 72.203443 
L 193.709091 74.17097 
L 195.825287 75.36 
L 198.218182 76.871996 
L 199.932373 78.72 
L 202.727273 81.854442 
L 202.926953 82.08 
L 205.901468 85.44 
L 207.236364 86.947892 
L 208.875983 88.8 
L 211.745455 92.041343 
L 216.254545 91.676883 
L 220.763636 91.222951 
L 225.272727 90.76902 
L 229.781818 91.458008 
L 231.815939 92.16 
L 234.290909 93.014133 
L 238.8 94.593191 
L 241.424848 95.52 
L 243.309091 96.185308 
L 247.261739 98.88 
L 247.818182 99.341526 
L 251.020751 102.24 
L 252.327273 103.422462 
L 254.733269 105.6 
L 256.836364 107.503398 
L 261.345455 108.212049 
L 265.854545 108.152182 
L 270.363636 108.092315 
L 274.872727 108.032448 
L 279.381818 107.972581 
L 283.890909 108.169357 
L 288.132701 108.96 
L 288.4 109.010546 
L 292.909091 109.874632 
L 297.418182 110.786282 
L 301.927273 111.641424 
L 306.26929 112.32 
L 306.436364 112.345885 
L 310.945455 113.057371 
L 315.454545 113.845147 
L 319.963636 114.613406 
L 324.472727 115.278302 
L 327.253189 115.68 
L 328.981818 115.927591 
L 333.490909 116.523245 
L 338 117.099124 
L 342.509091 117.548461 
L 347.018182 117.957317 
L 351.527273 118.402763 
L 356.036364 118.860255 
L 358.018316 119.04 
z
" clip-path="url(#p5a0ab6ecff)" style="fill: #1e9d89"/>
    <path d="M 319.963636 149.285612 
L 324.472727 149.743104 
L 328.981818 150.184057 
L 333.490909 150.548029 
L 338 150.874174 
L 342.509091 151.116695 
L 344.418986 151.21682 
L 347.018182 149.28 
L 347.018182 145.92 
L 351.527273 142.56 
L 356.036364 139.2 
L 360.545455 135.84 
L 365.054545 132.48 
L 365.054545 129.12 
L 369.563636 125.76 
L 374.072727 122.4 
L 376.85292 120.328308 
L 374.072727 120.182558 
L 369.563636 119.946172 
L 365.054545 119.628174 
L 360.545455 119.264998 
L 358.018316 119.04 
L 356.036364 118.860255 
L 351.527273 118.402763 
L 347.018182 117.957317 
L 342.509091 117.548461 
L 338 117.099124 
L 333.490909 116.523245 
L 328.981818 115.927591 
L 327.253189 115.68 
L 324.472727 115.278302 
L 319.963636 114.613406 
L 315.454545 113.845147 
L 310.945455 113.057371 
L 306.436364 112.345885 
L 306.26929 112.32 
L 301.927273 111.641424 
L 297.418182 110.786282 
L 292.909091 109.874632 
L 288.4 109.010546 
L 288.132701 108.96 
L 283.890909 108.169357 
L 279.381818 107.972581 
L 274.872727 108.032448 
L 270.363636 108.092315 
L 265.854545 108.152182 
L 261.345455 108.212049 
L 256.836364 107.503398 
L 254.733269 105.6 
L 252.327273 103.422462 
L 251.020751 102.24 
L 247.818182 99.341526 
L 247.261739 98.88 
L 243.309091 96.185308 
L 241.424848 95.52 
L 238.8 94.593191 
L 234.290909 93.014133 
L 231.815939 92.16 
L 229.781818 91.458008 
L 225.272727 90.76902 
L 220.763636 91.222951 
L 216.254545 91.676883 
L 211.745455 92.041343 
L 208.875983 88.8 
L 207.236364 86.947892 
L 205.901468 85.44 
L 202.926953 82.08 
L 202.727273 81.854442 
L 199.932373 78.72 
L 198.218182 76.871996 
L 195.825287 75.36 
L 193.709091 74.17097 
L 189.2 72.203443 
L 188.832608 72 
L 184.690909 69.809561 
L 182.248747 68.64 
L 180.181818 67.544986 
L 177.604764 65.28 
L 175.672727 63.794603 
L 171.163636 63.651065 
L 169.419406 61.92 
L 166.654545 61.92 
L 162.145455 65.28 
L 157.636364 65.28 
L 153.127273 68.64 
L 148.618182 68.64 
L 144.109091 72 
L 139.6 72 
L 135.090909 75.36 
L 132.205975 77.509741 
L 133.72911 78.72 
L 135.090909 79.802063 
L 138.059997 82.08 
L 139.6 83.303927 
L 143.023904 85.44 
L 144.109091 86.10529 
L 147.5031 88.8 
L 148.618182 89.678156 
L 153.127273 91.846408 
L 153.376733 92.16 
L 155.755061 95.52 
L 157.636364 98.763261 
L 157.689175 98.88 
L 159.612605 102.24 
L 162.145455 105.015405 
L 165.764409 102.24 
L 166.654545 101.398404 
L 168.833071 102.24 
L 171.163636 103.272595 
L 174.230927 105.6 
L 175.672727 106.585742 
L 180.181818 108.755047 
L 180.589803 108.96 
L 184.690909 110.898404 
L 187.073861 112.32 
L 189.2 113.776989 
L 190.915754 115.68 
L 193.709091 118.835342 
L 193.890269 119.04 
L 196.864784 122.4 
L 198.218182 123.928792 
L 201.249682 125.76 
L 202.727273 126.391126 
L 207.236364 125.937195 
L 208.996513 125.76 
L 211.745455 125.483263 
L 214.253648 125.76 
L 216.254545 126.01967 
L 220.763636 127.575795 
L 225.156576 129.12 
L 225.272727 129.160948 
L 229.781818 130.983574 
L 231.54459 132.48 
L 234.290909 134.965546 
L 235.257108 135.84 
L 238.8 139.046481 
L 239.098138 139.2 
L 243.309091 140.658968 
L 247.818182 140.599101 
L 252.327273 140.539234 
L 256.836364 140.479366 
L 261.345455 140.435187 
L 265.854545 141.048208 
L 270.363636 141.902251 
L 273.64035 142.56 
L 274.872727 142.809162 
L 279.381818 143.670651 
L 283.890909 144.369243 
L 288.4 145.104232 
L 292.909091 145.892008 
L 293.083422 145.92 
L 297.418182 146.601439 
L 301.927273 147.250498 
L 306.436364 147.858691 
L 310.945455 148.440499 
L 315.454545 148.872792 
L 319.902887 149.28 
z
" clip-path="url(#p5a0ab6ecff)" style="fill: #23a983"/>
    <path d="M 283.890909 179.778418 
L 288.4 180.197124 
L 292.909091 180.625952 
L 297.418182 181.077973 
L 301.927273 181.467884 
L 306.436364 181.800406 
L 310.945455 182.050832 
L 311.985052 182.105332 
L 315.454545 179.52 
L 315.454545 176.16 
L 319.963636 172.8 
L 324.472727 169.44 
L 328.981818 166.08 
L 333.490909 162.72 
L 333.490909 159.36 
L 338 156 
L 342.509091 152.64 
L 344.418986 151.21682 
L 342.509091 151.116695 
L 338 150.874174 
L 333.490909 150.548029 
L 328.981818 150.184057 
L 324.472727 149.743104 
L 319.963636 149.285612 
L 319.902887 149.28 
L 315.454545 148.872792 
L 310.945455 148.440499 
L 306.436364 147.858691 
L 301.927273 147.250498 
L 297.418182 146.601439 
L 293.083422 145.92 
L 292.909091 145.892008 
L 288.4 145.104232 
L 283.890909 144.369243 
L 279.381818 143.670651 
L 274.872727 142.809162 
L 273.64035 142.56 
L 270.363636 141.902251 
L 265.854545 141.048208 
L 261.345455 140.435187 
L 256.836364 140.479366 
L 252.327273 140.539234 
L 247.818182 140.599101 
L 243.309091 140.658968 
L 239.098138 139.2 
L 238.8 139.046481 
L 235.257108 135.84 
L 234.290909 134.965546 
L 231.54459 132.48 
L 229.781818 130.983574 
L 225.272727 129.160948 
L 225.156576 129.12 
L 220.763636 127.575795 
L 216.254545 126.01967 
L 214.253648 125.76 
L 211.745455 125.483263 
L 208.996513 125.76 
L 207.236364 125.937195 
L 202.727273 126.391126 
L 201.249682 125.76 
L 198.218182 123.928792 
L 196.864784 122.4 
L 193.890269 119.04 
L 193.709091 118.835342 
L 190.915754 115.68 
L 189.2 113.776989 
L 187.073861 112.32 
L 184.690909 110.898404 
L 180.589803 108.96 
L 180.181818 108.755047 
L 175.672727 106.585742 
L 174.230927 105.6 
L 171.163636 103.272595 
L 168.833071 102.24 
L 166.654545 101.398404 
L 165.764409 102.24 
L 162.145455 105.015405 
L 159.612605 102.24 
L 157.689175 98.88 
L 157.636364 98.763261 
L 155.755061 95.52 
L 153.376733 92.16 
L 153.127273 91.846408 
L 148.618182 89.678156 
L 147.5031 88.8 
L 144.109091 86.10529 
L 143.023904 85.44 
L 139.6 83.303927 
L 138.059997 82.08 
L 135.090909 79.802063 
L 133.72911 78.72 
L 132.205975 77.509741 
L 130.581818 78.72 
L 126.072727 78.72 
L 121.563636 82.08 
L 117.054545 85.44 
L 112.545455 88.8 
L 108.036364 92.16 
L 103.527273 95.52 
L 103.211358 95.755408 
L 103.527273 95.983129 
L 106.779566 98.88 
L 108.036364 99.964249 
L 110.735104 102.24 
L 112.545455 103.803291 
L 115.432779 105.6 
L 117.054545 106.574784 
L 117.889377 108.96 
L 119.064002 112.32 
L 120.237011 115.68 
L 121.408407 119.04 
L 121.563636 119.483406 
L 122.277456 119.04 
L 126.072727 116.464643 
L 130.157803 119.04 
L 130.581818 119.313662 
L 135.090909 121.850956 
L 135.71405 122.4 
L 139.6 125.693132 
L 139.704111 125.76 
L 144.109091 128.708478 
L 144.796574 129.12 
L 148.618182 131.297249 
L 149.496323 132.48 
L 151.671564 135.84 
L 153.127273 138.51076 
L 153.834968 139.2 
L 157.636364 141.505963 
L 162.145455 139.905189 
L 165.63465 142.56 
L 166.654545 143.361923 
L 171.163636 145.336881 
L 172.303754 145.92 
L 175.672727 147.625838 
L 178.255898 149.28 
L 180.181818 150.722791 
L 181.87907 152.64 
L 184.690909 155.816242 
L 184.853585 156 
L 187.8281 159.36 
L 189.2 160.718408 
L 193.709091 160.651438 
L 198.218182 160.197507 
L 202.727273 160.581332 
L 207.236364 162.138137 
L 208.888665 162.72 
L 211.745455 163.728705 
L 215.666959 166.08 
L 216.254545 166.508629 
L 219.493464 169.44 
L 220.763636 170.589565 
L 224.503556 172.8 
L 225.272727 173.105887 
L 229.781818 173.046019 
L 234.290909 172.986152 
L 238.8 172.926285 
L 243.309091 173.08587 
L 247.818182 173.938536 
L 252.327273 174.832043 
L 256.836364 175.688962 
L 259.844118 176.16 
L 261.345455 176.393428 
L 265.854545 177.151094 
L 270.363636 177.91359 
L 274.872727 178.576012 
L 279.381818 179.194136 
L 281.864154 179.52 
z
" clip-path="url(#p5a0ab6ecff)" style="fill: #32b67a"/>
    <path d="M 247.818182 209.899149 
L 252.327273 210.529581 
L 256.836364 211.091837 
L 261.345455 211.52245 
L 265.854545 211.966293 
L 270.363636 212.384971 
L 274.872727 212.740019 
L 279.381818 212.984969 
L 279.551118 212.993844 
L 283.890909 209.76 
L 283.890909 206.4 
L 288.4 203.04 
L 292.909091 199.68 
L 297.418182 196.32 
L 297.418182 192.96 
L 301.927273 189.6 
L 306.436364 186.24 
L 310.945455 182.88 
L 311.985052 182.105332 
L 310.945455 182.050832 
L 306.436364 181.800406 
L 301.927273 181.467884 
L 297.418182 181.077973 
L 292.909091 180.625952 
L 288.4 180.197124 
L 283.890909 179.778418 
L 281.864154 179.52 
L 279.381818 179.194136 
L 274.872727 178.576012 
L 270.363636 177.91359 
L 265.854545 177.151094 
L 261.345455 176.393428 
L 259.844118 176.16 
L 256.836364 175.688962 
L 252.327273 174.832043 
L 247.818182 173.938536 
L 243.309091 173.08587 
L 238.8 172.926285 
L 234.290909 172.986152 
L 229.781818 173.046019 
L 225.272727 173.105887 
L 224.503556 172.8 
L 220.763636 170.589565 
L 219.493464 169.44 
L 216.254545 166.508629 
L 215.666959 166.08 
L 211.745455 163.728705 
L 208.888665 162.72 
L 207.236364 162.138137 
L 202.727273 160.581332 
L 198.218182 160.197507 
L 193.709091 160.651438 
L 189.2 160.718408 
L 187.8281 159.36 
L 184.853585 156 
L 184.690909 155.816242 
L 181.87907 152.64 
L 180.181818 150.722791 
L 178.255898 149.28 
L 175.672727 147.625838 
L 172.303754 145.92 
L 171.163636 145.336881 
L 166.654545 143.361923 
L 165.63465 142.56 
L 162.145455 139.905189 
L 157.636364 141.505963 
L 153.834968 139.2 
L 153.127273 138.51076 
L 151.671564 135.84 
L 149.496323 132.48 
L 148.618182 131.297249 
L 144.796574 129.12 
L 144.109091 128.708478 
L 139.704111 125.76 
L 139.6 125.693132 
L 135.71405 122.4 
L 135.090909 121.850956 
L 130.581818 119.313662 
L 130.157803 119.04 
L 126.072727 116.464643 
L 122.277456 119.04 
L 121.563636 119.483406 
L 121.408407 119.04 
L 120.237011 115.68 
L 119.064002 112.32 
L 117.889377 108.96 
L 117.054545 106.574784 
L 115.432779 105.6 
L 112.545455 103.803291 
L 110.735104 102.24 
L 108.036364 99.964249 
L 106.779566 98.88 
L 103.527273 95.983129 
L 103.211358 95.755408 
L 99.018182 98.88 
L 99.018182 102.24 
L 94.509091 105.6 
L 94.509091 108.96 
L 94.509091 112.32 
L 94.509091 115.68 
L 94.509091 119.04 
L 94.509091 122.4 
L 94.509091 125.76 
L 94.509091 129.12 
L 94.509091 132.48 
L 94.509091 135.84 
L 94.509091 139.2 
L 94.509091 142.56 
L 94.509091 145.92 
L 94.509091 147.038077 
L 95.009611 145.92 
L 95.99201 142.56 
L 97.016031 139.2 
L 98.478286 135.84 
L 99.018182 134.880526 
L 102.005712 135.84 
L 103.527273 136.260789 
L 108.036364 138.97533 
L 108.253304 139.2 
L 111.440234 142.56 
L 112.545455 143.751896 
L 117.054545 145.161663 
L 117.321509 145.92 
L 118.505869 149.28 
L 119.678804 152.64 
L 120.837904 156 
L 121.563636 158.121872 
L 126.072727 158.52027 
L 127.074898 159.36 
L 130.581818 162.368288 
L 131.172031 162.72 
L 135.090909 165.035981 
L 136.871367 166.08 
L 139.6 167.692505 
L 142.141811 169.44 
L 144.109091 170.74809 
L 145.537323 172.8 
L 147.539617 176.16 
L 148.618182 178.258259 
L 153.127273 177.996522 
L 157.636364 179.418379 
L 157.790156 179.52 
L 162.145455 182.113062 
L 163.678952 182.88 
L 166.654545 184.353273 
L 169.36575 186.24 
L 171.163636 187.703691 
L 172.842386 189.6 
L 175.672727 192.797142 
L 175.878712 192.96 
L 180.181818 195.365682 
L 184.690909 194.91175 
L 189.2 195.142995 
L 192.601551 196.32 
L 193.709091 196.704345 
L 198.218182 198.323393 
L 200.017303 199.68 
L 202.727273 202.132648 
L 203.729821 203.04 
L 207.236364 205.445593 
L 211.745455 205.492938 
L 216.254545 205.433071 
L 220.763636 205.373204 
L 225.272727 205.976198 
L 227.45608 206.4 
L 229.781818 206.854923 
L 234.290909 207.717368 
L 238.8 208.423081 
L 243.309091 209.197955 
L 246.908086 209.76 
z
" clip-path="url(#p5a0ab6ecff)" style="fill: #48c16e"/>
    <path d="M 243.309091 243.664478 
L 247.117184 243.882356 
L 247.818182 243.36 
L 252.327273 240 
L 252.327273 236.64 
L 256.836364 233.28 
L 261.345455 229.92 
L 265.854545 226.56 
L 265.854545 223.2 
L 270.363636 219.84 
L 274.872727 216.48 
L 279.381818 213.12 
L 279.551118 212.993844 
L 279.381818 212.984969 
L 274.872727 212.740019 
L 270.363636 212.384971 
L 265.854545 211.966293 
L 261.345455 211.52245 
L 256.836364 211.091837 
L 252.327273 210.529581 
L 247.818182 209.899149 
L 246.908086 209.76 
L 243.309091 209.197955 
L 238.8 208.423081 
L 234.290909 207.717368 
L 229.781818 206.854923 
L 227.45608 206.4 
L 225.272727 205.976198 
L 220.763636 205.373204 
L 216.254545 205.433071 
L 211.745455 205.492938 
L 207.236364 205.445593 
L 203.729821 203.04 
L 202.727273 202.132648 
L 200.017303 199.68 
L 198.218182 198.323393 
L 193.709091 196.704345 
L 192.601551 196.32 
L 189.2 195.142995 
L 184.690909 194.91175 
L 180.181818 195.365682 
L 175.878712 192.96 
L 175.672727 192.797142 
L 172.842386 189.6 
L 171.163636 187.703691 
L 169.36575 186.24 
L 166.654545 184.353273 
L 163.678952 182.88 
L 162.145455 182.113062 
L 157.790156 179.52 
L 157.636364 179.418379 
L 153.127273 177.996522 
L 148.618182 178.258259 
L 147.539617 176.16 
L 145.537323 172.8 
L 144.109091 170.74809 
L 142.141811 169.44 
L 139.6 167.692505 
L 136.871367 166.08 
L 135.090909 165.035981 
L 131.172031 162.72 
L 130.581818 162.368288 
L 127.074898 159.36 
L 126.072727 158.52027 
L 121.563636 158.121872 
L 120.837904 156 
L 119.678804 152.64 
L 118.505869 149.28 
L 117.321509 145.92 
L 117.054545 145.161663 
L 112.545455 143.751896 
L 111.440234 142.56 
L 108.253304 139.2 
L 108.036364 138.97533 
L 103.527273 136.260789 
L 102.005712 135.84 
L 99.018182 134.880526 
L 98.478286 135.84 
L 97.016031 139.2 
L 95.99201 142.56 
L 95.009611 145.92 
L 94.509091 147.038077 
L 94.509091 149.28 
L 94.509091 152.64 
L 99.018182 156 
L 99.018182 159.36 
L 99.018182 162.72 
L 99.018182 166.08 
L 99.018182 169.44 
L 99.018182 172.8 
L 99.018182 176.16 
L 99.018182 179.52 
L 99.018182 182.88 
L 99.018182 186.24 
L 100.223428 187.138103 
L 100.452021 186.24 
L 101.288479 182.88 
L 102.289781 179.52 
L 103.378458 176.16 
L 103.527273 175.713454 
L 104.421008 176.16 
L 108.036364 177.986412 
L 109.267687 179.52 
L 111.911039 182.88 
L 112.545455 183.700501 
L 117.054545 183.995548 
L 117.768535 186.24 
L 118.862747 189.6 
L 119.988525 192.96 
L 121.147256 196.32 
L 121.563636 197.503835 
L 124.818091 199.68 
L 126.072727 200.575897 
L 129.674589 203.04 
L 130.581818 203.655138 
L 134.039567 206.4 
L 135.090909 207.240137 
L 138.926437 209.76 
L 139.6 210.198931 
L 141.513602 213.12 
L 143.367046 216.48 
L 144.109091 218.005758 
L 147.338553 216.48 
L 148.618182 216.015775 
L 149.366942 216.48 
L 153.127273 218.889242 
L 155.072392 219.84 
L 157.636364 221.080707 
L 160.456676 223.2 
L 162.145455 224.684591 
L 163.805702 226.56 
L 166.654545 229.778042 
L 171.163636 229.625994 
L 175.672727 229.704657 
L 176.29376 229.92 
L 180.181818 231.272103 
L 184.06229 233.28 
L 184.690909 233.675731 
L 187.966177 236.64 
L 189.2 237.557475 
L 193.709091 237.939857 
L 198.218182 237.879989 
L 202.727273 238.01386 
L 207.236364 238.879772 
L 211.745455 239.737369 
L 213.391242 240 
L 216.254545 240.457041 
L 220.763636 241.220024 
L 225.272727 241.860725 
L 229.781818 242.420683 
L 234.290909 242.852552 
L 238.8 243.306619 
L 239.450647 243.36 
z
" clip-path="url(#p5a0ab6ecff)" style="fill: #65cb5e"/>
    <path d="M 202.727273 273.761262 
L 207.236364 274.187224 
L 211.745455 274.579964 
L 214.68325 274.770868 
L 216.254545 273.6 
L 220.763636 270.24 
L 220.763636 266.88 
L 225.272727 263.52 
L 229.781818 260.16 
L 234.290909 256.8 
L 234.290909 253.44 
L 238.8 250.08 
L 243.309091 246.72 
L 247.117184 243.882356 
L 243.309091 243.664478 
L 239.450647 243.36 
L 238.8 243.306619 
L 234.290909 242.852552 
L 229.781818 242.420683 
L 225.272727 241.860725 
L 220.763636 241.220024 
L 216.254545 240.457041 
L 213.391242 240 
L 211.745455 239.737369 
L 207.236364 238.879772 
L 202.727273 238.01386 
L 198.218182 237.879989 
L 193.709091 237.939857 
L 189.2 237.557475 
L 187.966177 236.64 
L 184.690909 233.675731 
L 184.06229 233.28 
L 180.181818 231.272103 
L 176.29376 229.92 
L 175.672727 229.704657 
L 171.163636 229.625994 
L 166.654545 229.778042 
L 163.805702 226.56 
L 162.145455 224.684591 
L 160.456676 223.2 
L 157.636364 221.080707 
L 155.072392 219.84 
L 153.127273 218.889242 
L 149.366942 216.48 
L 148.618182 216.015775 
L 147.338553 216.48 
L 144.109091 218.005758 
L 143.367046 216.48 
L 141.513602 213.12 
L 139.6 210.198931 
L 138.926437 209.76 
L 135.090909 207.240137 
L 134.039567 206.4 
L 130.581818 203.655138 
L 129.674589 203.04 
L 126.072727 200.575897 
L 124.818091 199.68 
L 121.563636 197.503835 
L 121.147256 196.32 
L 119.988525 192.96 
L 118.862747 189.6 
L 117.768535 186.24 
L 117.054545 183.995548 
L 112.545455 183.700501 
L 111.911039 182.88 
L 109.267687 179.52 
L 108.036364 177.986412 
L 104.421008 176.16 
L 103.527273 175.713454 
L 103.378458 176.16 
L 102.289781 179.52 
L 101.288479 182.88 
L 100.452021 186.24 
L 100.223428 187.138103 
L 103.527273 189.6 
L 103.527273 192.96 
L 103.527273 196.32 
L 103.527273 199.68 
L 103.527273 203.04 
L 103.527273 206.4 
L 103.527273 209.76 
L 103.527273 213.12 
L 103.527273 216.48 
L 103.527273 219.84 
L 103.527273 223.2 
L 106.314178 225.276694 
L 105.985242 223.2 
L 107.138319 219.84 
L 108.036364 217.115239 
L 110.546009 219.84 
L 112.545455 222.519533 
L 113.570312 223.2 
L 117.054545 225.706751 
L 117.380878 226.56 
L 118.69535 229.92 
L 120.077952 233.28 
L 121.462297 236.64 
L 121.563636 236.885799 
L 124.005179 240 
L 126.072727 242.910442 
L 126.590031 243.36 
L 130.524679 246.72 
L 130.581818 246.768035 
L 135.090909 249.649772 
L 135.382514 250.08 
L 137.730796 253.44 
L 139.6 255.501314 
L 144.109091 255.548079 
L 146.48537 256.8 
L 148.618182 257.808141 
L 151.532584 260.16 
L 153.127273 261.665491 
L 155.901242 263.52 
L 157.636364 264.340237 
L 162.145455 264.266319 
L 166.654545 265.83986 
L 168.202913 266.88 
L 171.163636 269.29975 
L 174.823613 270.24 
L 175.672727 270.386775 
L 180.181818 270.33026 
L 184.690909 270.907599 
L 189.2 271.764085 
L 193.709091 272.503902 
L 198.218182 273.196564 
L 201.400568 273.6 
z
M 108.494706 233.28 
L 108.036364 231.610311 
L 108.036364 233.28 
L 108.036364 234.760643 
z
" clip-path="url(#p5a0ab6ecff)" style="fill: #84d44b"/>
    <path d="M 171.163636 304.517896 
L 175.672727 305.087804 
L 180.181818 305.502826 
L 182.249316 305.659381 
L 184.690909 303.84 
L 189.2 300.48 
L 189.2 297.12 
L 193.709091 293.76 
L 198.218182 290.4 
L 202.727273 287.04 
L 202.727273 283.68 
L 207.236364 280.32 
L 211.745455 276.96 
L 214.68325 274.770868 
L 211.745455 274.579964 
L 207.236364 274.187224 
L 202.727273 273.761262 
L 201.400568 273.6 
L 198.218182 273.196564 
L 193.709091 272.503902 
L 189.2 271.764085 
L 184.690909 270.907599 
L 180.181818 270.33026 
L 175.672727 270.386775 
L 174.823613 270.24 
L 171.163636 269.29975 
L 168.202913 266.88 
L 166.654545 265.83986 
L 162.145455 264.266319 
L 157.636364 264.340237 
L 155.901242 263.52 
L 153.127273 261.665491 
L 151.532584 260.16 
L 148.618182 257.808141 
L 146.48537 256.8 
L 144.109091 255.548079 
L 139.6 255.501314 
L 137.730796 253.44 
L 135.382514 250.08 
L 135.090909 249.649772 
L 130.581818 246.768035 
L 130.524679 246.72 
L 126.590031 243.36 
L 126.072727 242.910442 
L 124.005179 240 
L 121.563636 236.885799 
L 121.462297 236.64 
L 120.077952 233.28 
L 118.69535 229.92 
L 117.380878 226.56 
L 117.054545 225.706751 
L 113.570312 223.2 
L 112.545455 222.519533 
L 110.546009 219.84 
L 108.036364 217.115239 
L 107.138319 219.84 
L 105.985242 223.2 
L 106.314178 225.276694 
L 108.036364 226.56 
L 108.036364 229.92 
L 108.036364 231.610311 
L 108.494706 233.28 
L 108.036364 234.760643 
L 108.036364 236.64 
L 108.036364 240 
L 108.036364 243.36 
L 108.036364 246.72 
L 108.036364 250.08 
L 108.036364 253.44 
L 108.036364 256.8 
L 112.545455 260.16 
L 112.545455 263.52 
L 112.545455 266.88 
L 112.545455 270.24 
L 112.545455 273.6 
L 112.545455 276.96 
L 112.545455 279.412254 
L 113.216571 276.96 
L 114.209679 273.6 
L 113.928444 270.24 
L 112.779168 266.88 
L 117.054545 265.389917 
L 117.671122 266.88 
L 119.062718 270.24 
L 120.45608 273.6 
L 121.563636 276.267762 
L 121.906518 276.96 
L 123.50954 280.32 
L 125.017601 283.68 
L 126.072727 286.155475 
L 127.395049 287.04 
L 130.581818 289.100613 
L 132.319422 290.4 
L 135.090909 292.233638 
L 138.170779 293.76 
L 139.6 294.535575 
L 142.596374 297.12 
L 144.109091 298.567799 
L 148.618182 298.84428 
L 152.439441 300.48 
L 153.127273 300.842833 
L 157.636364 302.833694 
L 162.145455 302.973697 
L 166.654545 303.786651 
L 166.975642 303.84 
z
" clip-path="url(#p5a0ab6ecff)" style="fill: #a8db34"/>
    <path d="M 139.6 335.280613 
L 144.109091 335.818704 
L 148.618182 336.410609 
L 149.841371 336.528527 
L 153.127273 334.08 
L 157.636364 330.72 
L 157.636364 327.36 
L 162.145455 324 
L 166.654545 320.64 
L 171.163636 317.28 
L 171.163636 313.92 
L 175.672727 310.56 
L 180.181818 307.2 
L 182.249316 305.659381 
L 180.181818 305.502826 
L 175.672727 305.087804 
L 171.163636 304.517896 
L 166.975642 303.84 
L 166.654545 303.786651 
L 162.145455 302.973697 
L 157.636364 302.833694 
L 153.127273 300.842833 
L 152.439441 300.48 
L 148.618182 298.84428 
L 144.109091 298.567799 
L 142.596374 297.12 
L 139.6 294.535575 
L 138.170779 293.76 
L 135.090909 292.233638 
L 132.319422 290.4 
L 130.581818 289.100613 
L 127.395049 287.04 
L 126.072727 286.155475 
L 125.017601 283.68 
L 123.50954 280.32 
L 121.906518 276.96 
L 121.563636 276.267762 
L 120.45608 273.6 
L 119.062718 270.24 
L 117.671122 266.88 
L 117.054545 265.389917 
L 112.779168 266.88 
L 113.928444 270.24 
L 114.209679 273.6 
L 113.216571 276.96 
L 112.545455 279.412254 
L 112.545455 280.32 
L 112.545455 283.68 
L 112.545455 287.04 
L 112.545455 290.4 
L 117.054545 293.76 
L 117.054545 297.12 
L 117.054545 300.48 
L 117.054545 303.84 
L 117.054545 307.2 
L 117.054545 310.56 
L 117.054545 313.92 
L 117.054545 317.28 
L 117.054545 320.64 
L 117.054545 324 
L 117.054545 324.147356 
L 117.123034 324 
L 118.71008 320.64 
L 120.586515 317.28 
L 121.563636 315.649726 
L 122.177308 317.28 
L 123.402032 320.64 
L 124.586317 324 
L 125.733505 327.36 
L 126.072727 328.374984 
L 129.806351 330.72 
L 130.581818 331.198697 
L 135.090909 333.460188 
L 136.536908 334.08 
z
" clip-path="url(#p5a0ab6ecff)" style="fill: #cae11f"/>
    <path d="M 126.072727 360.96 
L 126.072727 357.6 
L 130.581818 354.24 
L 135.090909 350.88 
L 139.6 347.52 
L 139.6 344.16 
L 144.109091 340.8 
L 148.618182 337.44 
L 149.841371 336.528527 
L 148.618182 336.410609 
L 144.109091 335.818704 
L 139.6 335.280613 
L 136.536908 334.08 
L 135.090909 333.460188 
L 130.581818 331.198697 
L 129.806351 330.72 
L 126.072727 328.374984 
L 125.733505 327.36 
L 124.586317 324 
L 123.402032 320.64 
L 122.177308 317.28 
L 121.563636 315.649726 
L 120.586515 317.28 
L 118.71008 320.64 
L 117.123034 324 
L 117.054545 324.147356 
L 117.054545 327.36 
L 121.563636 330.72 
L 121.563636 334.08 
L 121.563636 337.44 
L 121.563636 340.8 
L 121.563636 344.16 
L 121.563636 347.52 
L 121.563636 350.88 
L 121.563636 354.24 
L 121.563636 357.6 
z
" clip-path="url(#p5a0ab6ecff)" style="fill: #efe51c"/>
   </g>
   <g id="matplotlib.axis_1">
    <g id="xtick_1">
     <g id="line2d_1">
      <path d="M 146.3602 384.48 
L 146.3602 51.84 
" clip-path="url(#p5a0ab6ecff)" style="fill: none; stroke: #b0b0b0; stroke-width: 0.8; stroke-linecap: square"/>
     </g>
     <g id="line2d_2">
      <defs>
       <path id="m8681f4c0af" d="M 0 0 
L 0 3.5 
" style="stroke: #000000; stroke-width: 0.8"/>
      </defs>
      <g>
       <use xlink:href="#m8681f4c0af" x="146.3602" y="384.48" style="stroke: #000000; stroke-width: 0.8"/>
      </g>
     </g>
     <g id="text_1">
      <!-- 9000 -->
      <g transform="translate(133.6352 399.078438) scale(0.1 -0.1)">
       <defs>
        <path id="DejaVuSans-39" d="M 703 97 
L 703 672 
Q 941 559 1184 500 
Q 1428 441 1663 441 
Q 2288 441 2617 861 
Q 2947 1281 2994 2138 
Q 2813 1869 2534 1725 
Q 2256 1581 1919 1581 
Q 1219 1581 811 2004 
Q 403 2428 403 3163 
Q 403 3881 828 4315 
Q 1253 4750 1959 4750 
Q 2769 4750 3195 4129 
Q 3622 3509 3622 2328 
Q 3622 1225 3098 567 
Q 2575 -91 1691 -91 
Q 1453 -91 1209 -44 
Q 966 3 703 97 
z
M 1959 2075 
Q 2384 2075 2632 2365 
Q 2881 2656 2881 3163 
Q 2881 3666 2632 3958 
Q 2384 4250 1959 4250 
Q 1534 4250 1286 3958 
Q 1038 3666 1038 3163 
Q 1038 2656 1286 2365 
Q 1534 2075 1959 2075 
z
" transform="scale(0.015625)"/>
        <path id="DejaVuSans-30" d="M 2034 4250 
Q 1547 4250 1301 3770 
Q 1056 3291 1056 2328 
Q 1056 1369 1301 889 
Q 1547 409 2034 409 
Q 2525 409 2770 889 
Q 3016 1369 3016 2328 
Q 3016 3291 2770 3770 
Q 2525 4250 2034 4250 
z
M 2034 4750 
Q 2819 4750 3233 4129 
Q 3647 3509 3647 2328 
Q 3647 1150 3233 529 
Q 2819 -91 2034 -91 
Q 1250 -91 836 529 
Q 422 1150 422 2328 
Q 422 3509 836 4129 
Q 1250 4750 2034 4750 
z
" transform="scale(0.015625)"/>
       </defs>
       <use xlink:href="#DejaVuSans-39"/>
       <use xlink:href="#DejaVuSans-30" x="63.623047"/>
       <use xlink:href="#DejaVuSans-30" x="127.246094"/>
       <use xlink:href="#DejaVuSans-30" x="190.869141"/>
      </g>
     </g>
    </g>
    <g id="xtick_2">
     <g id="line2d_3">
      <path d="M 214.0441 384.48 
L 214.0441 51.84 
" clip-path="url(#p5a0ab6ecff)" style="fill: none; stroke: #b0b0b0; stroke-width: 0.8; stroke-linecap: square"/>
     </g>
     <g id="line2d_4">
      <g>
       <use xlink:href="#m8681f4c0af" x="214.0441" y="384.48" style="stroke: #000000; stroke-width: 0.8"/>
      </g>
     </g>
     <g id="text_2">
      <!-- 10000 -->
      <g transform="translate(198.13785 399.078438) scale(0.1 -0.1)">
       <defs>
        <path id="DejaVuSans-31" d="M 794 531 
L 1825 531 
L 1825 4091 
L 703 3866 
L 703 4441 
L 1819 4666 
L 2450 4666 
L 2450 531 
L 3481 531 
L 3481 0 
L 794 0 
L 794 531 
z
" transform="scale(0.015625)"/>
       </defs>
       <use xlink:href="#DejaVuSans-31"/>
       <use xlink:href="#DejaVuSans-30" x="63.623047"/>
       <use xlink:href="#DejaVuSans-30" x="127.246094"/>
       <use xlink:href="#DejaVuSans-30" x="190.869141"/>
       <use xlink:href="#DejaVuSans-30" x="254.492188"/>
      </g>
     </g>
    </g>
    <g id="xtick_3">
     <g id="line2d_5">
      <path d="M 281.727999 384.48 
L 281.727999 51.84 
" clip-path="url(#p5a0ab6ecff)" style="fill: none; stroke: #b0b0b0; stroke-width: 0.8; stroke-linecap: square"/>
     </g>
     <g id="line2d_6">
      <g>
       <use xlink:href="#m8681f4c0af" x="281.727999" y="384.48" style="stroke: #000000; stroke-width: 0.8"/>
      </g>
     </g>
     <g id="text_3">
      <!-- 11000 -->
      <g transform="translate(265.821749 399.078438) scale(0.1 -0.1)">
       <use xlink:href="#DejaVuSans-31"/>
       <use xlink:href="#DejaVuSans-31" x="63.623047"/>
       <use xlink:href="#DejaVuSans-30" x="127.246094"/>
       <use xlink:href="#DejaVuSans-30" x="190.869141"/>
       <use xlink:href="#DejaVuSans-30" x="254.492188"/>
      </g>
     </g>
    </g>
    <g id="xtick_4">
     <g id="line2d_7">
      <path d="M 349.411899 384.48 
L 349.411899 51.84 
" clip-path="url(#p5a0ab6ecff)" style="fill: none; stroke: #b0b0b0; stroke-width: 0.8; stroke-linecap: square"/>
     </g>
     <g id="line2d_8">
      <g>
       <use xlink:href="#m8681f4c0af" x="349.411899" y="384.48" style="stroke: #000000; stroke-width: 0.8"/>
      </g>
     </g>
     <g id="text_4">
      <!-- 12000 -->
      <g transform="translate(333.505649 399.078438) scale(0.1 -0.1)">
       <defs>
        <path id="DejaVuSans-32" d="M 1228 531 
L 3431 531 
L 3431 0 
L 469 0 
L 469 531 
Q 828 903 1448 1529 
Q 2069 2156 2228 2338 
Q 2531 2678 2651 2914 
Q 2772 3150 2772 3378 
Q 2772 3750 2511 3984 
Q 2250 4219 1831 4219 
Q 1534 4219 1204 4116 
Q 875 4013 500 3803 
L 500 4441 
Q 881 4594 1212 4672 
Q 1544 4750 1819 4750 
Q 2544 4750 2975 4387 
Q 3406 4025 3406 3419 
Q 3406 3131 3298 2873 
Q 3191 2616 2906 2266 
Q 2828 2175 2409 1742 
Q 1991 1309 1228 531 
z
" transform="scale(0.015625)"/>
       </defs>
       <use xlink:href="#DejaVuSans-31"/>
       <use xlink:href="#DejaVuSans-32" x="63.623047"/>
       <use xlink:href="#DejaVuSans-30" x="127.246094"/>
       <use xlink:href="#DejaVuSans-30" x="190.869141"/>
       <use xlink:href="#DejaVuSans-30" x="254.492188"/>
      </g>
     </g>
    </g>
    <g id="xtick_5">
     <g id="line2d_9">
      <path d="M 417.095799 384.48 
L 417.095799 51.84 
" clip-path="url(#p5a0ab6ecff)" style="fill: none; stroke: #b0b0b0; stroke-width: 0.8; stroke-linecap: square"/>
     </g>
     <g id="line2d_10">
      <g>
       <use xlink:href="#m8681f4c0af" x="417.095799" y="384.48" style="stroke: #000000; stroke-width: 0.8"/>
      </g>
     </g>
     <g id="text_5">
      <!-- 13000 -->
      <g transform="translate(401.189549 399.078438) scale(0.1 -0.1)">
       <defs>
        <path id="DejaVuSans-33" d="M 2597 2516 
Q 3050 2419 3304 2112 
Q 3559 1806 3559 1356 
Q 3559 666 3084 287 
Q 2609 -91 1734 -91 
Q 1441 -91 1130 -33 
Q 819 25 488 141 
L 488 750 
Q 750 597 1062 519 
Q 1375 441 1716 441 
Q 2309 441 2620 675 
Q 2931 909 2931 1356 
Q 2931 1769 2642 2001 
Q 2353 2234 1838 2234 
L 1294 2234 
L 1294 2753 
L 1863 2753 
Q 2328 2753 2575 2939 
Q 2822 3125 2822 3475 
Q 2822 3834 2567 4026 
Q 2313 4219 1838 4219 
Q 1578 4219 1281 4162 
Q 984 4106 628 3988 
L 628 4550 
Q 988 4650 1302 4700 
Q 1616 4750 1894 4750 
Q 2613 4750 3031 4423 
Q 3450 4097 3450 3541 
Q 3450 3153 3228 2886 
Q 3006 2619 2597 2516 
z
" transform="scale(0.015625)"/>
       </defs>
       <use xlink:href="#DejaVuSans-31"/>
       <use xlink:href="#DejaVuSans-33" x="63.623047"/>
       <use xlink:href="#DejaVuSans-30" x="127.246094"/>
       <use xlink:href="#DejaVuSans-30" x="190.869141"/>
       <use xlink:href="#DejaVuSans-30" x="254.492188"/>
      </g>
     </g>
    </g>
    <g id="xtick_6">
     <g id="line2d_11">
      <path d="M 484.779698 384.48 
L 484.779698 51.84 
" clip-path="url(#p5a0ab6ecff)" style="fill: none; stroke: #b0b0b0; stroke-width: 0.8; stroke-linecap: square"/>
     </g>
     <g id="line2d_12">
      <g>
       <use xlink:href="#m8681f4c0af" x="484.779698" y="384.48" style="stroke: #000000; stroke-width: 0.8"/>
      </g>
     </g>
     <g id="text_6">
      <!-- 14000 -->
      <g transform="translate(468.873448 399.078438) scale(0.1 -0.1)">
       <defs>
        <path id="DejaVuSans-34" d="M 2419 4116 
L 825 1625 
L 2419 1625 
L 2419 4116 
z
M 2253 4666 
L 3047 4666 
L 3047 1625 
L 3713 1625 
L 3713 1100 
L 3047 1100 
L 3047 0 
L 2419 0 
L 2419 1100 
L 313 1100 
L 313 1709 
L 2253 4666 
z
" transform="scale(0.015625)"/>
       </defs>
       <use xlink:href="#DejaVuSans-31"/>
       <use xlink:href="#DejaVuSans-34" x="63.623047"/>
       <use xlink:href="#DejaVuSans-30" x="127.246094"/>
       <use xlink:href="#DejaVuSans-30" x="190.869141"/>
       <use xlink:href="#DejaVuSans-30" x="254.492188"/>
      </g>
     </g>
    </g>
    <g id="text_7">
     <!-- $\dot{W}_{comp}$ [W] -->
     <g transform="translate(262.6 426.358125) scale(0.2 -0.2)">
      <defs>
       <path id="DejaVuSans-307" d="M -1894 4863 
L -1319 4863 
L -1319 4134 
L -1894 4134 
L -1894 4863 
z
M -1600 3584 
L -1600 3584 
z
" transform="scale(0.015625)"/>
       <path id="DejaVuSans-Oblique-57" d="M 616 4666 
L 1228 4666 
L 1453 697 
L 3213 4666 
L 3916 4666 
L 4147 697 
L 5888 4666 
L 6528 4666 
L 4453 0 
L 3659 0 
L 3444 3891 
L 1697 0 
L 903 0 
L 616 4666 
z
" transform="scale(0.015625)"/>
       <path id="DejaVuSans-Oblique-63" d="M 3431 3366 
L 3316 2797 
Q 3109 2947 2876 3022 
Q 2644 3097 2394 3097 
Q 2119 3097 1870 3000 
Q 1622 2903 1453 2725 
Q 1184 2453 1037 2087 
Q 891 1722 891 1331 
Q 891 859 1127 628 
Q 1363 397 1844 397 
Q 2081 397 2348 469 
Q 2616 541 2906 684 
L 2797 116 
Q 2547 13 2283 -39 
Q 2019 -91 1741 -91 
Q 1044 -91 669 257 
Q 294 606 294 1253 
Q 294 1797 489 2255 
Q 684 2713 1069 3078 
Q 1331 3328 1684 3456 
Q 2038 3584 2456 3584 
Q 2700 3584 2940 3529 
Q 3181 3475 3431 3366 
z
" transform="scale(0.015625)"/>
       <path id="DejaVuSans-Oblique-6f" d="M 1625 -91 
Q 1009 -91 651 289 
Q 294 669 294 1325 
Q 294 1706 417 2101 
Q 541 2497 738 2766 
Q 1047 3184 1428 3384 
Q 1809 3584 2291 3584 
Q 2888 3584 3255 3212 
Q 3622 2841 3622 2241 
Q 3622 1825 3500 1412 
Q 3378 1000 3181 728 
Q 2875 309 2494 109 
Q 2113 -91 1625 -91 
z
M 891 1344 
Q 891 869 1089 633 
Q 1288 397 1691 397 
Q 2269 397 2648 901 
Q 3028 1406 3028 2181 
Q 3028 2634 2825 2865 
Q 2622 3097 2228 3097 
Q 1903 3097 1650 2945 
Q 1397 2794 1197 2484 
Q 1050 2253 970 1956 
Q 891 1659 891 1344 
z
" transform="scale(0.015625)"/>
       <path id="DejaVuSans-Oblique-6d" d="M 5747 2113 
L 5338 0 
L 4763 0 
L 5166 2094 
Q 5191 2228 5203 2325 
Q 5216 2422 5216 2491 
Q 5216 2772 5059 2928 
Q 4903 3084 4622 3084 
Q 4203 3084 3875 2770 
Q 3547 2456 3450 1953 
L 3066 0 
L 2491 0 
L 2900 2094 
Q 2925 2209 2937 2307 
Q 2950 2406 2950 2484 
Q 2950 2769 2794 2926 
Q 2638 3084 2363 3084 
Q 1938 3084 1609 2770 
Q 1281 2456 1184 1953 
L 800 0 
L 225 0 
L 909 3500 
L 1484 3500 
L 1375 2956 
Q 1609 3263 1923 3423 
Q 2238 3584 2597 3584 
Q 2978 3584 3223 3384 
Q 3469 3184 3519 2828 
Q 3781 3197 4126 3390 
Q 4472 3584 4856 3584 
Q 5306 3584 5551 3325 
Q 5797 3066 5797 2591 
Q 5797 2488 5784 2364 
Q 5772 2241 5747 2113 
z
" transform="scale(0.015625)"/>
       <path id="DejaVuSans-Oblique-70" d="M 3175 2156 
Q 3175 2616 2975 2859 
Q 2775 3103 2400 3103 
Q 2144 3103 1911 2972 
Q 1678 2841 1497 2591 
Q 1319 2344 1212 1994 
Q 1106 1644 1106 1300 
Q 1106 863 1306 627 
Q 1506 391 1875 391 
Q 2147 391 2380 519 
Q 2613 647 2778 891 
Q 2956 1147 3065 1494 
Q 3175 1841 3175 2156 
z
M 1394 2969 
Q 1625 3272 1939 3428 
Q 2253 3584 2638 3584 
Q 3175 3584 3472 3232 
Q 3769 2881 3769 2247 
Q 3769 1728 3584 1258 
Q 3400 788 3053 416 
Q 2822 169 2531 39 
Q 2241 -91 1919 -91 
Q 1547 -91 1294 64 
Q 1041 219 916 525 
L 556 -1331 
L -19 -1331 
L 922 3500 
L 1497 3500 
L 1394 2969 
z
" transform="scale(0.015625)"/>
       <path id="DejaVuSans-20" transform="scale(0.015625)"/>
       <path id="DejaVuSans-5b" d="M 550 4863 
L 1875 4863 
L 1875 4416 
L 1125 4416 
L 1125 -397 
L 1875 -397 
L 1875 -844 
L 550 -844 
L 550 4863 
z
" transform="scale(0.015625)"/>
       <path id="DejaVuSans-57" d="M 213 4666 
L 850 4666 
L 1831 722 
L 2809 4666 
L 3519 4666 
L 4500 722 
L 5478 4666 
L 6119 4666 
L 4947 0 
L 4153 0 
L 3169 4050 
L 2175 0 
L 1381 0 
L 213 4666 
z
" transform="scale(0.015625)"/>
       <path id="DejaVuSans-5d" d="M 1947 4863 
L 1947 -844 
L 622 -844 
L 622 -397 
L 1369 -397 
L 1369 4416 
L 622 4416 
L 622 4863 
L 1947 4863 
z
" transform="scale(0.015625)"/>
      </defs>
      <use xlink:href="#DejaVuSans-307" transform="translate(87.312988 30.015625)"/>
      <use xlink:href="#DejaVuSans-Oblique-57" transform="translate(0 0.609375)"/>
      <use xlink:href="#DejaVuSans-Oblique-63" transform="translate(99.833984 -15.796875) scale(0.7)"/>
      <use xlink:href="#DejaVuSans-Oblique-6f" transform="translate(138.320312 -15.796875) scale(0.7)"/>
      <use xlink:href="#DejaVuSans-Oblique-6d" transform="translate(181.147461 -15.796875) scale(0.7)"/>
      <use xlink:href="#DejaVuSans-Oblique-70" transform="translate(249.335938 -15.796875) scale(0.7)"/>
      <use xlink:href="#DejaVuSans-20" transform="translate(296.503906 0.609375)"/>
      <use xlink:href="#DejaVuSans-5b" transform="translate(328.291016 0.609375)"/>
      <use xlink:href="#DejaVuSans-57" transform="translate(367.304688 0.609375)"/>
      <use xlink:href="#DejaVuSans-5d" transform="translate(466.181641 0.609375)"/>
     </g>
    </g>
   </g>
   <g id="matplotlib.axis_2">
    <g id="ytick_1">
     <g id="line2d_13">
      <path d="M 90 384.48 
L 536.4 384.48 
" clip-path="url(#p5a0ab6ecff)" style="fill: none; stroke: #b0b0b0; stroke-width: 0.8; stroke-linecap: square"/>
     </g>
     <g id="line2d_14">
      <defs>
       <path id="mfaea2cb4c7" d="M 0 0 
L -3.5 0 
" style="stroke: #000000; stroke-width: 0.8"/>
      </defs>
      <g>
       <use xlink:href="#mfaea2cb4c7" x="90" y="384.48" style="stroke: #000000; stroke-width: 0.8"/>
      </g>
     </g>
     <g id="text_8">
      <!-- 10 -->
      <g transform="translate(70.275 388.279219) scale(0.1 -0.1)">
       <use xlink:href="#DejaVuSans-31"/>
       <use xlink:href="#DejaVuSans-30" x="63.623047"/>
      </g>
     </g>
    </g>
    <g id="ytick_2">
     <g id="line2d_15">
      <path d="M 90 342.9 
L 536.4 342.9 
" clip-path="url(#p5a0ab6ecff)" style="fill: none; stroke: #b0b0b0; stroke-width: 0.8; stroke-linecap: square"/>
     </g>
     <g id="line2d_16">
      <g>
       <use xlink:href="#mfaea2cb4c7" x="90" y="342.9" style="stroke: #000000; stroke-width: 0.8"/>
      </g>
     </g>
     <g id="text_9">
      <!-- 20 -->
      <g transform="translate(70.275 346.699219) scale(0.1 -0.1)">
       <use xlink:href="#DejaVuSans-32"/>
       <use xlink:href="#DejaVuSans-30" x="63.623047"/>
      </g>
     </g>
    </g>
    <g id="ytick_3">
     <g id="line2d_17">
      <path d="M 90 301.32 
L 536.4 301.32 
" clip-path="url(#p5a0ab6ecff)" style="fill: none; stroke: #b0b0b0; stroke-width: 0.8; stroke-linecap: square"/>
     </g>
     <g id="line2d_18">
      <g>
       <use xlink:href="#mfaea2cb4c7" x="90" y="301.32" style="stroke: #000000; stroke-width: 0.8"/>
      </g>
     </g>
     <g id="text_10">
      <!-- 30 -->
      <g transform="translate(70.275 305.119219) scale(0.1 -0.1)">
       <use xlink:href="#DejaVuSans-33"/>
       <use xlink:href="#DejaVuSans-30" x="63.623047"/>
      </g>
     </g>
    </g>
    <g id="ytick_4">
     <g id="line2d_19">
      <path d="M 90 259.74 
L 536.4 259.74 
" clip-path="url(#p5a0ab6ecff)" style="fill: none; stroke: #b0b0b0; stroke-width: 0.8; stroke-linecap: square"/>
     </g>
     <g id="line2d_20">
      <g>
       <use xlink:href="#mfaea2cb4c7" x="90" y="259.74" style="stroke: #000000; stroke-width: 0.8"/>
      </g>
     </g>
     <g id="text_11">
      <!-- 40 -->
      <g transform="translate(70.275 263.539219) scale(0.1 -0.1)">
       <use xlink:href="#DejaVuSans-34"/>
       <use xlink:href="#DejaVuSans-30" x="63.623047"/>
      </g>
     </g>
    </g>
    <g id="ytick_5">
     <g id="line2d_21">
      <path d="M 90 218.16 
L 536.4 218.16 
" clip-path="url(#p5a0ab6ecff)" style="fill: none; stroke: #b0b0b0; stroke-width: 0.8; stroke-linecap: square"/>
     </g>
     <g id="line2d_22">
      <g>
       <use xlink:href="#mfaea2cb4c7" x="90" y="218.16" style="stroke: #000000; stroke-width: 0.8"/>
      </g>
     </g>
     <g id="text_12">
      <!-- 50 -->
      <g transform="translate(70.275 221.959219) scale(0.1 -0.1)">
       <defs>
        <path id="DejaVuSans-35" d="M 691 4666 
L 3169 4666 
L 3169 4134 
L 1269 4134 
L 1269 2991 
Q 1406 3038 1543 3061 
Q 1681 3084 1819 3084 
Q 2600 3084 3056 2656 
Q 3513 2228 3513 1497 
Q 3513 744 3044 326 
Q 2575 -91 1722 -91 
Q 1428 -91 1123 -41 
Q 819 9 494 109 
L 494 744 
Q 775 591 1075 516 
Q 1375 441 1709 441 
Q 2250 441 2565 725 
Q 2881 1009 2881 1497 
Q 2881 1984 2565 2268 
Q 2250 2553 1709 2553 
Q 1456 2553 1204 2497 
Q 953 2441 691 2322 
L 691 4666 
z
" transform="scale(0.015625)"/>
       </defs>
       <use xlink:href="#DejaVuSans-35"/>
       <use xlink:href="#DejaVuSans-30" x="63.623047"/>
      </g>
     </g>
    </g>
    <g id="ytick_6">
     <g id="line2d_23">
      <path d="M 90 176.58 
L 536.4 176.58 
" clip-path="url(#p5a0ab6ecff)" style="fill: none; stroke: #b0b0b0; stroke-width: 0.8; stroke-linecap: square"/>
     </g>
     <g id="line2d_24">
      <g>
       <use xlink:href="#mfaea2cb4c7" x="90" y="176.58" style="stroke: #000000; stroke-width: 0.8"/>
      </g>
     </g>
     <g id="text_13">
      <!-- 60 -->
      <g transform="translate(70.275 180.379219) scale(0.1 -0.1)">
       <defs>
        <path id="DejaVuSans-36" d="M 2113 2584 
Q 1688 2584 1439 2293 
Q 1191 2003 1191 1497 
Q 1191 994 1439 701 
Q 1688 409 2113 409 
Q 2538 409 2786 701 
Q 3034 994 3034 1497 
Q 3034 2003 2786 2293 
Q 2538 2584 2113 2584 
z
M 3366 4563 
L 3366 3988 
Q 3128 4100 2886 4159 
Q 2644 4219 2406 4219 
Q 1781 4219 1451 3797 
Q 1122 3375 1075 2522 
Q 1259 2794 1537 2939 
Q 1816 3084 2150 3084 
Q 2853 3084 3261 2657 
Q 3669 2231 3669 1497 
Q 3669 778 3244 343 
Q 2819 -91 2113 -91 
Q 1303 -91 875 529 
Q 447 1150 447 2328 
Q 447 3434 972 4092 
Q 1497 4750 2381 4750 
Q 2619 4750 2861 4703 
Q 3103 4656 3366 4563 
z
" transform="scale(0.015625)"/>
       </defs>
       <use xlink:href="#DejaVuSans-36"/>
       <use xlink:href="#DejaVuSans-30" x="63.623047"/>
      </g>
     </g>
    </g>
    <g id="ytick_7">
     <g id="line2d_25">
      <path d="M 90 135 
L 536.4 135 
" clip-path="url(#p5a0ab6ecff)" style="fill: none; stroke: #b0b0b0; stroke-width: 0.8; stroke-linecap: square"/>
     </g>
     <g id="line2d_26">
      <g>
       <use xlink:href="#mfaea2cb4c7" x="90" y="135" style="stroke: #000000; stroke-width: 0.8"/>
      </g>
     </g>
     <g id="text_14">
      <!-- 70 -->
      <g transform="translate(70.275 138.799219) scale(0.1 -0.1)">
       <defs>
        <path id="DejaVuSans-37" d="M 525 4666 
L 3525 4666 
L 3525 4397 
L 1831 0 
L 1172 0 
L 2766 4134 
L 525 4134 
L 525 4666 
z
" transform="scale(0.015625)"/>
       </defs>
       <use xlink:href="#DejaVuSans-37"/>
       <use xlink:href="#DejaVuSans-30" x="63.623047"/>
      </g>
     </g>
    </g>
    <g id="ytick_8">
     <g id="line2d_27">
      <path d="M 90 93.42 
L 536.4 93.42 
" clip-path="url(#p5a0ab6ecff)" style="fill: none; stroke: #b0b0b0; stroke-width: 0.8; stroke-linecap: square"/>
     </g>
     <g id="line2d_28">
      <g>
       <use xlink:href="#mfaea2cb4c7" x="90" y="93.42" style="stroke: #000000; stroke-width: 0.8"/>
      </g>
     </g>
     <g id="text_15">
      <!-- 80 -->
      <g transform="translate(70.275 97.219219) scale(0.1 -0.1)">
       <defs>
        <path id="DejaVuSans-38" d="M 2034 2216 
Q 1584 2216 1326 1975 
Q 1069 1734 1069 1313 
Q 1069 891 1326 650 
Q 1584 409 2034 409 
Q 2484 409 2743 651 
Q 3003 894 3003 1313 
Q 3003 1734 2745 1975 
Q 2488 2216 2034 2216 
z
M 1403 2484 
Q 997 2584 770 2862 
Q 544 3141 544 3541 
Q 544 4100 942 4425 
Q 1341 4750 2034 4750 
Q 2731 4750 3128 4425 
Q 3525 4100 3525 3541 
Q 3525 3141 3298 2862 
Q 3072 2584 2669 2484 
Q 3125 2378 3379 2068 
Q 3634 1759 3634 1313 
Q 3634 634 3220 271 
Q 2806 -91 2034 -91 
Q 1263 -91 848 271 
Q 434 634 434 1313 
Q 434 1759 690 2068 
Q 947 2378 1403 2484 
z
M 1172 3481 
Q 1172 3119 1398 2916 
Q 1625 2713 2034 2713 
Q 2441 2713 2670 2916 
Q 2900 3119 2900 3481 
Q 2900 3844 2670 4047 
Q 2441 4250 2034 4250 
Q 1625 4250 1398 4047 
Q 1172 3844 1172 3481 
z
" transform="scale(0.015625)"/>
       </defs>
       <use xlink:href="#DejaVuSans-38"/>
       <use xlink:href="#DejaVuSans-30" x="63.623047"/>
      </g>
     </g>
    </g>
    <g id="ytick_9">
     <g id="line2d_29">
      <path d="M 90 51.84 
L 536.4 51.84 
" clip-path="url(#p5a0ab6ecff)" style="fill: none; stroke: #b0b0b0; stroke-width: 0.8; stroke-linecap: square"/>
     </g>
     <g id="line2d_30">
      <g>
       <use xlink:href="#mfaea2cb4c7" x="90" y="51.84" style="stroke: #000000; stroke-width: 0.8"/>
      </g>
     </g>
     <g id="text_16">
      <!-- 90 -->
      <g transform="translate(70.275 55.639219) scale(0.1 -0.1)">
       <use xlink:href="#DejaVuSans-39"/>
       <use xlink:href="#DejaVuSans-30" x="63.623047"/>
      </g>
     </g>
    </g>
    <g id="text_17">
     <!-- $T_{sto,LT}$ [C] -->
     <g transform="translate(61.275 269.96) rotate(-90) scale(0.2 -0.2)">
      <defs>
       <path id="DejaVuSans-Oblique-54" d="M 378 4666 
L 4325 4666 
L 4225 4134 
L 2559 4134 
L 1759 0 
L 1125 0 
L 1925 4134 
L 275 4134 
L 378 4666 
z
" transform="scale(0.015625)"/>
       <path id="DejaVuSans-Oblique-73" d="M 3200 3397 
L 3091 2853 
Q 2863 2978 2609 3040 
Q 2356 3103 2088 3103 
Q 1634 3103 1373 2948 
Q 1113 2794 1113 2528 
Q 1113 2219 1719 2053 
Q 1766 2041 1788 2034 
L 1972 1978 
Q 2547 1819 2739 1644 
Q 2931 1469 2931 1166 
Q 2931 609 2489 259 
Q 2047 -91 1331 -91 
Q 1053 -91 747 -37 
Q 441 16 72 128 
L 184 722 
Q 500 559 806 475 
Q 1113 391 1394 391 
Q 1816 391 2080 572 
Q 2344 753 2344 1031 
Q 2344 1331 1650 1516 
L 1591 1531 
L 1394 1581 
Q 956 1697 753 1886 
Q 550 2075 550 2369 
Q 550 2928 970 3256 
Q 1391 3584 2113 3584 
Q 2397 3584 2667 3537 
Q 2938 3491 3200 3397 
z
" transform="scale(0.015625)"/>
       <path id="DejaVuSans-Oblique-74" d="M 2706 3500 
L 2619 3053 
L 1472 3053 
L 1100 1153 
Q 1081 1047 1072 975 
Q 1063 903 1063 863 
Q 1063 663 1183 572 
Q 1303 481 1569 481 
L 2150 481 
L 2053 0 
L 1503 0 
Q 991 0 739 200 
Q 488 400 488 806 
Q 488 878 497 964 
Q 506 1050 525 1153 
L 897 3053 
L 409 3053 
L 500 3500 
L 978 3500 
L 1172 4494 
L 1747 4494 
L 1556 3500 
L 2706 3500 
z
" transform="scale(0.015625)"/>
       <path id="DejaVuSans-2c" d="M 750 794 
L 1409 794 
L 1409 256 
L 897 -744 
L 494 -744 
L 750 256 
L 750 794 
z
" transform="scale(0.015625)"/>
       <path id="DejaVuSans-Oblique-4c" d="M 1075 4666 
L 1709 4666 
L 909 525 
L 3181 525 
L 3078 0 
L 172 0 
L 1075 4666 
z
" transform="scale(0.015625)"/>
       <path id="DejaVuSans-b0" d="M 1600 4347 
Q 1350 4347 1178 4173 
Q 1006 4000 1006 3750 
Q 1006 3503 1178 3333 
Q 1350 3163 1600 3163 
Q 1850 3163 2022 3333 
Q 2194 3503 2194 3750 
Q 2194 3997 2020 4172 
Q 1847 4347 1600 4347 
z
M 1600 4750 
Q 1800 4750 1984 4673 
Q 2169 4597 2303 4453 
Q 2447 4313 2519 4134 
Q 2591 3956 2591 3750 
Q 2591 3338 2302 3052 
Q 2013 2766 1594 2766 
Q 1172 2766 890 3047 
Q 609 3328 609 3750 
Q 609 4169 896 4459 
Q 1184 4750 1600 4750 
z
" transform="scale(0.015625)"/>
       <path id="DejaVuSans-43" d="M 4122 4306 
L 4122 3641 
Q 3803 3938 3442 4084 
Q 3081 4231 2675 4231 
Q 1875 4231 1450 3742 
Q 1025 3253 1025 2328 
Q 1025 1406 1450 917 
Q 1875 428 2675 428 
Q 3081 428 3442 575 
Q 3803 722 4122 1019 
L 4122 359 
Q 3791 134 3420 21 
Q 3050 -91 2638 -91 
Q 1578 -91 968 557 
Q 359 1206 359 2328 
Q 359 3453 968 4101 
Q 1578 4750 2638 4750 
Q 3056 4750 3426 4639 
Q 3797 4528 4122 4306 
z
" transform="scale(0.015625)"/>
      </defs>
      <use xlink:href="#DejaVuSans-Oblique-54" transform="translate(0 0.015625)"/>
      <use xlink:href="#DejaVuSans-Oblique-73" transform="translate(61.083984 -16.390625) scale(0.7)"/>
      <use xlink:href="#DejaVuSans-Oblique-74" transform="translate(97.553711 -16.390625) scale(0.7)"/>
      <use xlink:href="#DejaVuSans-Oblique-6f" transform="translate(125 -16.390625) scale(0.7)"/>
      <use xlink:href="#DejaVuSans-2c" transform="translate(167.827148 -16.390625) scale(0.7)"/>
      <use xlink:href="#DejaVuSans-Oblique-4c" transform="translate(203.71582 -16.390625) scale(0.7)"/>
      <use xlink:href="#DejaVuSans-Oblique-54" transform="translate(242.714844 -16.390625) scale(0.7)"/>
      <use xlink:href="#DejaVuSans-20" transform="translate(288.208008 0.015625)"/>
      <use xlink:href="#DejaVuSans-5b" transform="translate(319.995117 0.015625)"/>
      <use xlink:href="#DejaVuSans-b0" transform="translate(359.008789 0.015625)"/>
      <use xlink:href="#DejaVuSans-43" transform="translate(409.008789 0.015625)"/>
      <use xlink:href="#DejaVuSans-5d" transform="translate(478.833008 0.015625)"/>
     </g>
    </g>
   </g>
   <g id="QuadContourSet_2">
    <path clip-path="url(#p5a0ab6ecff)" style="fill: none; stroke: #000000; stroke-width: 1.5"/>
    <path clip-path="url(#p5a0ab6ecff)" style="fill: none; stroke: #000000; stroke-width: 1.5"/>
    <path clip-path="url(#p5a0ab6ecff)" style="fill: none; stroke: #000000; stroke-width: 1.5"/>
    <path clip-path="url(#p5a0ab6ecff)" style="fill: none; stroke: #000000; stroke-width: 1.5"/>
    <path clip-path="url(#p5a0ab6ecff)" style="fill: none; stroke: #000000; stroke-width: 1.5"/>
    <path clip-path="url(#p5a0ab6ecff)" style="fill: none; stroke: #000000; stroke-width: 1.5"/>
    <path clip-path="url(#p5a0ab6ecff)" style="fill: none; stroke: #000000; stroke-width: 1.5"/>
    <path clip-path="url(#p5a0ab6ecff)" style="fill: none; stroke: #000000; stroke-width: 1.5"/>
    <path clip-path="url(#p5a0ab6ecff)" style="fill: none; stroke: #000000; stroke-width: 1.5"/>
    <path d="M 441.709091 58.55067 
L 437.2 58.314284 
L 432.690909 58.077426 
L 428.181818 57.788463 
L 423.672727 57.425288 
L 419.163636 57.061133 
L 414.654545 56.637066 
L 410.145455 56.179574 
L 405.636364 55.722204 
L 401.127273 55.308654 
L 399.928977 55.2 
L 397.527999 54.982294 
M 386.702822 53.734579 
L 383.090909 53.260432 
L 378.581818 52.632028 
L 374.072727 51.980593 
L 373.099577 51.84 
" clip-path="url(#p5a0ab6ecff)" style="fill: none; stroke: #000000; stroke-width: 1.5"/>
    <path d="M 409.286854 89.439796 
L 405.636364 89.248421 
L 401.127273 89.012035 
L 397.954324 88.8 
L 396.618182 88.708319 
L 392.109091 88.345143 
L 387.6 87.969371 
L 386.512129 87.860934 
M 370.647886 86.322442 
L 369.563636 86.224129 
L 365.054545 85.77352 
L 362.466639 85.44 
L 360.545455 85.1878 
L 356.036364 84.592345 
L 351.527273 83.955165 
L 347.018182 83.30373 
L 342.509091 82.586061 
L 339.612485 82.08 
L 338 81.798286 
L 333.490909 81.02341 
L 328.981818 80.322526 
L 324.472727 79.623934 
L 319.963636 78.763401 
L 319.74897 78.72 
L 315.454545 77.851752 
L 310.945455 76.972884 
L 306.436364 76.120218 
L 301.927273 75.472174 
L 297.418182 75.525662 
L 292.909091 75.585529 
L 288.4 75.645396 
L 283.890909 75.705263 
L 279.381818 75.765131 
L 274.872727 75.771403 
L 274.209429 75.36 
L 270.496912 72 
L 270.363636 71.879379 
L 266.784395 68.64 
L 265.854545 67.798443 
L 263.071877 65.28 
L 261.345455 63.717507 
L 257.602566 61.92 
L 256.836364 61.617551 
L 252.327273 60.025434 
L 248.127263 58.56 
L 247.818182 58.452471 
L 243.309091 56.896345 
L 238.8 56.054776 
L 234.290909 56.508708 
L 229.781818 56.962639 
L 225.272727 57.416571 
L 220.955824 55.2 
L 220.763636 55.060443 
L 217.912667 51.84 
" clip-path="url(#p5a0ab6ecff)" style="fill: none; stroke: #000000; stroke-width: 1.5"/>
    <path d="M 376.85292 120.328308 
L 374.072727 120.182558 
L 369.563636 119.946172 
L 365.054545 119.628174 
L 360.545455 119.264998 
L 358.018316 119.04 
L 356.036364 118.860255 
L 354.984752 118.753558 
M 339.049007 117.203659 
L 338 117.099124 
L 333.490909 116.523245 
L 328.981818 115.927591 
L 327.253189 115.68 
L 324.472727 115.278302 
L 319.963636 114.613406 
L 315.454545 113.845147 
L 310.945455 113.057371 
L 306.436364 112.345885 
L 306.26929 112.32 
L 301.927273 111.641424 
L 297.418182 110.786282 
L 292.909091 109.874632 
L 288.4 109.010546 
L 288.132701 108.96 
L 283.890909 108.169357 
L 279.381818 107.972581 
L 274.872727 108.032448 
L 270.363636 108.092315 
L 265.854545 108.152182 
L 261.345455 108.212049 
L 256.836364 107.503398 
L 254.733269 105.6 
L 252.327273 103.422462 
L 251.020751 102.24 
L 247.818182 99.341526 
L 247.261739 98.88 
L 243.309091 96.185308 
L 241.424848 95.52 
L 238.8 94.593191 
L 234.290909 93.014133 
L 231.815939 92.16 
L 229.781818 91.458008 
L 225.272727 90.76902 
L 220.763636 91.222951 
L 216.254545 91.676883 
L 211.745455 92.041343 
L 208.875983 88.8 
L 207.236364 86.947892 
L 205.901468 85.44 
L 202.926953 82.08 
L 202.727273 81.854442 
L 199.932373 78.72 
L 198.218182 76.871996 
L 195.825287 75.36 
L 193.709091 74.17097 
L 189.2 72.203443 
L 188.832608 72 
L 184.690909 69.809561 
L 182.248747 68.64 
L 180.181818 67.544986 
L 177.604764 65.28 
L 175.672727 63.794603 
L 171.163636 63.651065 
L 169.419406 61.92 
" clip-path="url(#p5a0ab6ecff)" style="fill: none; stroke: #000000; stroke-width: 1.5"/>
    <path d="M 344.418986 151.21682 
L 342.509091 151.116695 
L 338 150.874174 
L 333.490909 150.548029 
L 328.981818 150.184057 
L 324.472727 149.743104 
L 323.387208 149.632967 
M 307.529937 147.999795 
L 306.436364 147.858691 
L 301.927273 147.250498 
L 297.418182 146.601439 
L 293.083422 145.92 
L 292.909091 145.892008 
L 288.4 145.104232 
L 283.890909 144.369243 
L 279.381818 143.670651 
L 274.872727 142.809162 
L 273.64035 142.56 
L 270.363636 141.902251 
L 265.854545 141.048208 
L 261.345455 140.435187 
L 256.836364 140.479366 
L 252.327273 140.539234 
L 247.818182 140.599101 
L 243.309091 140.658968 
L 239.098138 139.2 
L 238.8 139.046481 
L 235.257108 135.84 
L 234.290909 134.965546 
L 231.54459 132.48 
L 229.781818 130.983574 
L 225.272727 129.160948 
L 225.156576 129.12 
L 220.763636 127.575795 
L 216.254545 126.01967 
L 214.253648 125.76 
L 211.745455 125.483263 
L 208.996513 125.76 
L 207.236364 125.937195 
L 202.727273 126.391126 
L 201.249682 125.76 
L 198.218182 123.928792 
L 196.864784 122.4 
L 193.890269 119.04 
L 193.709091 118.835342 
L 190.915754 115.68 
L 189.2 113.776989 
L 187.073861 112.32 
L 184.690909 110.898404 
L 180.589803 108.96 
L 180.181818 108.755047 
L 175.672727 106.585742 
L 174.230927 105.6 
L 171.163636 103.272595 
L 168.833071 102.24 
L 166.654545 101.398404 
L 165.764409 102.24 
L 162.145455 105.015405 
L 159.612605 102.24 
L 157.689175 98.88 
L 157.636364 98.763261 
L 155.755061 95.52 
L 153.376733 92.16 
L 153.127273 91.846408 
L 148.618182 89.678156 
L 147.5031 88.8 
L 144.109091 86.10529 
L 143.023904 85.44 
L 139.6 83.303927 
L 138.059997 82.08 
L 135.090909 79.802063 
L 133.72911 78.72 
L 132.205975 77.509741 
" clip-path="url(#p5a0ab6ecff)" style="fill: none; stroke: #000000; stroke-width: 1.5"/>
    <path d="M 311.985052 182.105332 
L 310.945455 182.050832 
L 306.436364 181.800406 
L 301.927273 181.467884 
L 297.418182 181.077973 
L 292.909091 180.625952 
L 289.793187 180.32962 
M 273.955155 178.441213 
L 270.363636 177.91359 
L 265.854545 177.151094 
L 261.345455 176.393428 
L 259.844118 176.16 
L 256.836364 175.688962 
L 252.327273 174.832043 
L 247.818182 173.938536 
L 243.309091 173.08587 
L 238.8 172.926285 
L 234.290909 172.986152 
L 229.781818 173.046019 
L 225.272727 173.105887 
L 224.503556 172.8 
L 220.763636 170.589565 
L 219.493464 169.44 
L 216.254545 166.508629 
L 215.666959 166.08 
L 211.745455 163.728705 
L 208.888665 162.72 
L 207.236364 162.138137 
L 202.727273 160.581332 
L 198.218182 160.197507 
L 193.709091 160.651438 
L 189.2 160.718408 
L 187.8281 159.36 
L 184.853585 156 
L 184.690909 155.816242 
L 181.87907 152.64 
L 180.181818 150.722791 
L 178.255898 149.28 
L 175.672727 147.625838 
L 172.303754 145.92 
L 171.163636 145.336881 
L 166.654545 143.361923 
L 165.63465 142.56 
L 162.145455 139.905189 
L 157.636364 141.505963 
L 153.834968 139.2 
L 153.127273 138.51076 
L 151.671564 135.84 
L 149.496323 132.48 
L 148.618182 131.297249 
L 144.796574 129.12 
L 144.109091 128.708478 
L 139.704111 125.76 
L 139.6 125.693132 
L 135.71405 122.4 
L 135.090909 121.850956 
L 130.581818 119.313662 
L 130.157803 119.04 
L 126.072727 116.464643 
L 122.277456 119.04 
L 121.563636 119.483406 
L 121.408407 119.04 
L 120.237011 115.68 
L 119.064002 112.32 
L 117.889377 108.96 
L 117.054545 106.574784 
L 115.432779 105.6 
L 112.545455 103.803291 
L 110.735104 102.24 
L 108.036364 99.964249 
L 106.779566 98.88 
L 103.527273 95.983129 
L 103.211358 95.755408 
" clip-path="url(#p5a0ab6ecff)" style="fill: none; stroke: #000000; stroke-width: 1.5"/>
    <path d="M 279.551118 212.993844 
L 279.381818 212.984969 
L 274.872727 212.740019 
L 270.363636 212.384971 
L 265.854545 211.966293 
L 261.345455 211.52245 
L 256.836364 211.091837 
L 255.729179 210.953778 
M 239.928738 208.617052 
L 238.8 208.423081 
L 234.290909 207.717368 
L 229.781818 206.854923 
L 227.45608 206.4 
L 225.272727 205.976198 
L 220.763636 205.373204 
L 216.254545 205.433071 
L 211.745455 205.492938 
L 207.236364 205.445593 
L 203.729821 203.04 
L 202.727273 202.132648 
L 200.017303 199.68 
L 198.218182 198.323393 
L 193.709091 196.704345 
L 192.601551 196.32 
L 189.2 195.142995 
L 184.690909 194.91175 
L 180.181818 195.365682 
L 175.878712 192.96 
L 175.672727 192.797142 
L 172.842386 189.6 
L 171.163636 187.703691 
L 169.36575 186.24 
L 166.654545 184.353273 
L 163.678952 182.88 
L 162.145455 182.113062 
L 157.790156 179.52 
L 157.636364 179.418379 
L 153.127273 177.996522 
L 148.618182 178.258259 
L 147.539617 176.16 
L 145.537323 172.8 
L 144.109091 170.74809 
L 142.141811 169.44 
L 139.6 167.692505 
L 136.871367 166.08 
L 135.090909 165.035981 
L 131.172031 162.72 
L 130.581818 162.368288 
L 127.074898 159.36 
L 126.072727 158.52027 
L 121.563636 158.121872 
L 120.837904 156 
L 119.678804 152.64 
L 118.505869 149.28 
L 117.321509 145.92 
L 117.054545 145.161663 
L 112.545455 143.751896 
L 111.440234 142.56 
L 108.253304 139.2 
L 108.036364 138.97533 
L 103.527273 136.260789 
L 102.005712 135.84 
L 99.018182 134.880526 
L 98.478286 135.84 
L 97.016031 139.2 
L 95.99201 142.56 
L 95.009611 145.92 
L 94.509091 147.038077 
" clip-path="url(#p5a0ab6ecff)" style="fill: none; stroke: #000000; stroke-width: 1.5"/>
    <path d="M 247.117184 243.882356 
L 243.309091 243.664478 
L 239.450647 243.36 
L 238.8 243.306619 
L 234.290909 242.852552 
L 229.781818 242.420683 
L 225.272727 241.860725 
L 224.147627 241.700858 
M 208.373956 239.096134 
L 207.236364 238.879772 
L 202.727273 238.01386 
L 198.218182 237.879989 
L 193.709091 237.939857 
L 189.2 237.557475 
L 187.966177 236.64 
L 184.690909 233.675731 
L 184.06229 233.28 
L 180.181818 231.272103 
L 176.29376 229.92 
L 175.672727 229.704657 
L 171.163636 229.625994 
L 166.654545 229.778042 
L 163.805702 226.56 
L 162.145455 224.684591 
L 160.456676 223.2 
L 157.636364 221.080707 
L 155.072392 219.84 
L 153.127273 218.889242 
L 149.366942 216.48 
L 148.618182 216.015775 
L 147.338553 216.48 
L 144.109091 218.005758 
L 143.367046 216.48 
L 141.513602 213.12 
L 139.6 210.198931 
L 138.926437 209.76 
L 135.090909 207.240137 
L 134.039567 206.4 
L 130.581818 203.655138 
L 129.674589 203.04 
L 126.072727 200.575897 
L 124.818091 199.68 
L 121.563636 197.503835 
L 121.147256 196.32 
L 119.988525 192.96 
L 118.862747 189.6 
L 117.768535 186.24 
L 117.054545 183.995548 
L 112.545455 183.700501 
L 111.911039 182.88 
L 109.267687 179.52 
L 108.036364 177.986412 
L 104.421008 176.16 
L 103.527273 175.713454 
L 103.378458 176.16 
L 102.289781 179.52 
L 101.288479 182.88 
L 100.452021 186.24 
L 100.223428 187.138103 
" clip-path="url(#p5a0ab6ecff)" style="fill: none; stroke: #000000; stroke-width: 1.5"/>
    <path d="M 214.68325 274.770868 
L 211.745455 274.579964 
L 207.236364 274.187224 
L 202.727273 273.761262 
L 201.400568 273.6 
L 198.218182 273.196564 
L 193.709091 272.503902 
L 192.601966 272.322253 
M 176.722676 270.373615 
L 175.672727 270.386775 
L 174.823613 270.24 
L 171.163636 269.29975 
L 168.202913 266.88 
L 166.654545 265.83986 
L 162.145455 264.266319 
L 157.636364 264.340237 
L 155.901242 263.52 
L 153.127273 261.665491 
L 151.532584 260.16 
L 148.618182 257.808141 
L 146.48537 256.8 
L 144.109091 255.548079 
L 139.6 255.501314 
L 137.730796 253.44 
L 135.382514 250.08 
L 135.090909 249.649772 
L 130.581818 246.768035 
L 130.524679 246.72 
L 126.590031 243.36 
L 126.072727 242.910442 
L 124.005179 240 
L 121.563636 236.885799 
L 121.462297 236.64 
L 120.077952 233.28 
L 118.69535 229.92 
L 117.380878 226.56 
L 117.054545 225.706751 
L 113.570312 223.2 
L 112.545455 222.519533 
L 110.546009 219.84 
L 108.036364 217.115239 
L 107.138319 219.84 
L 105.985242 223.2 
L 106.314178 225.276694 
M 108.036364 231.610311 
L 108.494706 233.28 
L 108.036364 234.760643 
" clip-path="url(#p5a0ab6ecff)" style="fill: none; stroke: #000000; stroke-width: 1.5"/>
    <path d="M 182.249316 305.659381 
L 180.181818 305.502826 
L 175.672727 305.087804 
L 171.163636 304.517896 
L 166.975642 303.84 
L 166.654545 303.786651 
L 162.145455 302.973697 
L 160.809277 302.93221 
M 145.451667 298.650121 
L 144.109091 298.567799 
L 142.596374 297.12 
L 139.6 294.535575 
L 138.170779 293.76 
L 135.090909 292.233638 
L 132.319422 290.4 
L 130.581818 289.100613 
L 127.395049 287.04 
L 126.072727 286.155475 
L 125.017601 283.68 
L 123.50954 280.32 
L 121.906518 276.96 
L 121.563636 276.267762 
L 120.45608 273.6 
L 119.062718 270.24 
L 117.671122 266.88 
L 117.054545 265.389917 
L 112.779168 266.88 
L 113.928444 270.24 
L 114.209679 273.6 
L 113.216571 276.96 
L 112.545455 279.412254 
" clip-path="url(#p5a0ab6ecff)" style="fill: none; stroke: #000000; stroke-width: 1.5"/>
    <path d="M 149.841371 336.528527 
L 148.618182 336.410609 
L 144.109091 335.818704 
L 139.6 335.280613 
L 136.536908 334.08 
L 135.090909 333.460188 
L 133.318439 332.571223 
M 122.882883 319.215727 
L 122.177308 317.28 
L 121.563636 315.649726 
L 120.586515 317.28 
L 118.71008 320.64 
L 117.123034 324 
L 117.054545 324.147356 
" clip-path="url(#p5a0ab6ecff)" style="fill: none; stroke: #000000; stroke-width: 1.5"/>
    <path clip-path="url(#p5a0ab6ecff)" style="fill: none; stroke: #000000; stroke-width: 1.5"/>
   </g>
   <g id="patch_3">
    <path d="M 90 384.48 
L 90 51.84 
" style="fill: none; stroke: #000000; stroke-width: 0.8; stroke-linejoin: miter; stroke-linecap: square"/>
   </g>
   <g id="patch_4">
    <path d="M 536.4 384.48 
L 536.4 51.84 
" style="fill: none; stroke: #000000; stroke-width: 0.8; stroke-linejoin: miter; stroke-linecap: square"/>
   </g>
   <g id="patch_5">
    <path d="M 90 384.48 
L 536.4 384.48 
" style="fill: none; stroke: #000000; stroke-width: 0.8; stroke-linejoin: miter; stroke-linecap: square"/>
   </g>
   <g id="patch_6">
    <path d="M 90 51.84 
L 536.4 51.84 
" style="fill: none; stroke: #000000; stroke-width: 0.8; stroke-linejoin: miter; stroke-linecap: square"/>
   </g>
   <g id="text_18">
    <g clip-path="url(#p5a0ab6ecff)">
     <!-- 9 -->
     <g transform="translate(388.686222 56.897534) rotate(-354.69218) scale(0.1 -0.1)">
      <use xlink:href="#DejaVuSans-39"/>
     </g>
    </g>
   </g>
   <g id="text_19">
    <g clip-path="url(#p5a0ab6ecff)">
     <!-- 10 -->
     <g transform="translate(372.023105 89.31605) rotate(-355.517075) scale(0.1 -0.1)">
      <use xlink:href="#DejaVuSans-31"/>
      <use xlink:href="#DejaVuSans-30" x="63.623047"/>
     </g>
    </g>
   </g>
   <g id="text_20">
    <g clip-path="url(#p5a0ab6ecff)">
     <!-- 11 -->
     <g transform="translate(340.464141 120.224498) rotate(-355.635517) scale(0.1 -0.1)">
      <use xlink:href="#DejaVuSans-31"/>
      <use xlink:href="#DejaVuSans-31" x="63.623047"/>
     </g>
    </g>
   </g>
   <g id="text_21">
    <g clip-path="url(#p5a0ab6ecff)">
     <!-- 12 -->
     <g transform="translate(308.899326 151.136563) rotate(-355.605705) scale(0.1 -0.1)">
      <use xlink:href="#DejaVuSans-31"/>
      <use xlink:href="#DejaVuSans-32" x="63.623047"/>
     </g>
    </g>
   </g>
   <g id="text_22">
    <g clip-path="url(#p5a0ab6ecff)">
     <!-- 13 -->
     <g transform="translate(275.266287 181.656281) rotate(-354.495037) scale(0.1 -0.1)">
      <use xlink:href="#DejaVuSans-31"/>
      <use xlink:href="#DejaVuSans-33" x="63.623047"/>
     </g>
    </g>
   </g>
   <g id="text_23">
    <g clip-path="url(#p5a0ab6ecff)">
     <!-- 14 -->
     <g transform="translate(241.175837 211.892843) rotate(-353.261013) scale(0.1 -0.1)">
      <use xlink:href="#DejaVuSans-31"/>
      <use xlink:href="#DejaVuSans-34" x="63.623047"/>
     </g>
    </g>
   </g>
   <g id="text_24">
    <g clip-path="url(#p5a0ab6ecff)">
     <!-- 15 -->
     <g transform="translate(209.586267 242.362197) rotate(-352.498808) scale(0.1 -0.1)">
      <use xlink:href="#DejaVuSans-31"/>
      <use xlink:href="#DejaVuSans-35" x="63.623047"/>
     </g>
    </g>
   </g>
   <g id="text_25">
    <g clip-path="url(#p5a0ab6ecff)">
     <!-- 16 -->
     <g transform="translate(178.045791 272.89203) rotate(-353.18113) scale(0.1 -0.1)">
      <use xlink:href="#DejaVuSans-31"/>
      <use xlink:href="#DejaVuSans-36" x="63.623047"/>
     </g>
    </g>
   </g>
   <g id="text_26">
    <g clip-path="url(#p5a0ab6ecff)">
     <!-- 17 -->
     <g transform="translate(146.217985 301.440579) rotate(-341.49848) scale(0.1 -0.1)">
      <use xlink:href="#DejaVuSans-31"/>
      <use xlink:href="#DejaVuSans-37" x="63.623047"/>
     </g>
    </g>
   </g>
   <g id="text_27">
    <g clip-path="url(#p5a0ab6ecff)">
     <!-- 18 -->
     <g transform="translate(119.699577 325.640298) rotate(-313.330016) scale(0.1 -0.1)">
      <use xlink:href="#DejaVuSans-31"/>
      <use xlink:href="#DejaVuSans-38" x="63.623047"/>
     </g>
    </g>
   </g>
  </g>
  <g id="axes_2">
   <g id="patch_7">
    <path d="M 564.3 384.48 
L 580.932 384.48 
L 580.932 51.84 
L 564.3 51.84 
z
" style="fill: #ffffff"/>
   </g>
   <g id="QuadMesh_1">
    <path d="M 564.3 384.48 
L 580.932 384.48 
L 580.932 366.972632 
L 564.3 366.972632 
L 564.3 384.48 
" clip-path="url(#p5e330025a7)" style="fill: #460a5d"/>
    <path d="M 564.3 366.972632 
L 580.932 366.972632 
L 580.932 349.465263 
L 564.3 349.465263 
L 564.3 366.972632 
" clip-path="url(#p5e330025a7)" style="fill: #481d6f"/>
    <path d="M 564.3 349.465263 
L 580.932 349.465263 
L 580.932 331.957895 
L 564.3 331.957895 
L 564.3 349.465263 
" clip-path="url(#p5e330025a7)" style="fill: #472e7c"/>
    <path d="M 564.3 331.957895 
L 580.932 331.957895 
L 580.932 314.450526 
L 564.3 314.450526 
L 564.3 331.957895 
" clip-path="url(#p5e330025a7)" style="fill: #423f85"/>
    <path d="M 564.3 314.450526 
L 580.932 314.450526 
L 580.932 296.943158 
L 564.3 296.943158 
L 564.3 314.450526 
" clip-path="url(#p5e330025a7)" style="fill: #3d4e8a"/>
    <path d="M 564.3 296.943158 
L 580.932 296.943158 
L 580.932 279.435789 
L 564.3 279.435789 
L 564.3 296.943158 
" clip-path="url(#p5e330025a7)" style="fill: #365d8d"/>
    <path d="M 564.3 279.435789 
L 580.932 279.435789 
L 580.932 261.928421 
L 564.3 261.928421 
L 564.3 279.435789 
" clip-path="url(#p5e330025a7)" style="fill: #306a8e"/>
    <path d="M 564.3 261.928421 
L 580.932 261.928421 
L 580.932 244.421053 
L 564.3 244.421053 
L 564.3 261.928421 
" clip-path="url(#p5e330025a7)" style="fill: #2a778e"/>
    <path d="M 564.3 244.421053 
L 580.932 244.421053 
L 580.932 226.913684 
L 564.3 226.913684 
L 564.3 244.421053 
" clip-path="url(#p5e330025a7)" style="fill: #25838e"/>
    <path d="M 564.3 226.913684 
L 580.932 226.913684 
L 580.932 209.406316 
L 564.3 209.406316 
L 564.3 226.913684 
" clip-path="url(#p5e330025a7)" style="fill: #21918c"/>
    <path d="M 564.3 209.406316 
L 580.932 209.406316 
L 580.932 191.898947 
L 564.3 191.898947 
L 564.3 209.406316 
" clip-path="url(#p5e330025a7)" style="fill: #1e9d89"/>
    <path d="M 564.3 191.898947 
L 580.932 191.898947 
L 580.932 174.391579 
L 564.3 174.391579 
L 564.3 191.898947 
" clip-path="url(#p5e330025a7)" style="fill: #23a983"/>
    <path d="M 564.3 174.391579 
L 580.932 174.391579 
L 580.932 156.884211 
L 564.3 156.884211 
L 564.3 174.391579 
" clip-path="url(#p5e330025a7)" style="fill: #32b67a"/>
    <path d="M 564.3 156.884211 
L 580.932 156.884211 
L 580.932 139.376842 
L 564.3 139.376842 
L 564.3 156.884211 
" clip-path="url(#p5e330025a7)" style="fill: #48c16e"/>
    <path d="M 564.3 139.376842 
L 580.932 139.376842 
L 580.932 121.869474 
L 564.3 121.869474 
L 564.3 139.376842 
" clip-path="url(#p5e330025a7)" style="fill: #65cb5e"/>
    <path d="M 564.3 121.869474 
L 580.932 121.869474 
L 580.932 104.362105 
L 564.3 104.362105 
L 564.3 121.869474 
" clip-path="url(#p5e330025a7)" style="fill: #84d44b"/>
    <path d="M 564.3 104.362105 
L 580.932 104.362105 
L 580.932 86.854737 
L 564.3 86.854737 
L 564.3 104.362105 
" clip-path="url(#p5e330025a7)" style="fill: #a8db34"/>
    <path d="M 564.3 86.854737 
L 580.932 86.854737 
L 580.932 69.347368 
L 564.3 69.347368 
L 564.3 86.854737 
" clip-path="url(#p5e330025a7)" style="fill: #cae11f"/>
    <path d="M 564.3 69.347368 
L 580.932 69.347368 
L 580.932 51.84 
L 564.3 51.84 
L 564.3 69.347368 
" clip-path="url(#p5e330025a7)" style="fill: #efe51c"/>
   </g>
   <g id="matplotlib.axis_3"/>
   <g id="matplotlib.axis_4">
    <g id="ytick_10">
     <g id="line2d_31">
      <defs>
       <path id="m5fa0e0d142" d="M 0 0 
L 3.5 0 
" style="stroke: #000000; stroke-width: 0.8"/>
      </defs>
      <g>
       <use xlink:href="#m5fa0e0d142" x="580.932" y="384.48" style="stroke: #000000; stroke-width: 0.8"/>
      </g>
     </g>
     <g id="text_28">
      <!-- 0 -->
      <g transform="translate(587.932 388.279219) scale(0.1 -0.1)">
       <use xlink:href="#DejaVuSans-30"/>
      </g>
     </g>
    </g>
    <g id="ytick_11">
     <g id="line2d_32">
      <g>
       <use xlink:href="#m5fa0e0d142" x="580.932" y="349.465263" style="stroke: #000000; stroke-width: 0.8"/>
      </g>
     </g>
     <g id="text_29">
      <!-- 2 -->
      <g transform="translate(587.932 353.264482) scale(0.1 -0.1)">
       <use xlink:href="#DejaVuSans-32"/>
      </g>
     </g>
    </g>
    <g id="ytick_12">
     <g id="line2d_33">
      <g>
       <use xlink:href="#m5fa0e0d142" x="580.932" y="314.450526" style="stroke: #000000; stroke-width: 0.8"/>
      </g>
     </g>
     <g id="text_30">
      <!-- 4 -->
      <g transform="translate(587.932 318.249745) scale(0.1 -0.1)">
       <use xlink:href="#DejaVuSans-34"/>
      </g>
     </g>
    </g>
    <g id="ytick_13">
     <g id="line2d_34">
      <g>
       <use xlink:href="#m5fa0e0d142" x="580.932" y="279.435789" style="stroke: #000000; stroke-width: 0.8"/>
      </g>
     </g>
     <g id="text_31">
      <!-- 6 -->
      <g transform="translate(587.932 283.235008) scale(0.1 -0.1)">
       <use xlink:href="#DejaVuSans-36"/>
      </g>
     </g>
    </g>
    <g id="ytick_14">
     <g id="line2d_35">
      <g>
       <use xlink:href="#m5fa0e0d142" x="580.932" y="244.421053" style="stroke: #000000; stroke-width: 0.8"/>
      </g>
     </g>
     <g id="text_32">
      <!-- 8 -->
      <g transform="translate(587.932 248.220271) scale(0.1 -0.1)">
       <use xlink:href="#DejaVuSans-38"/>
      </g>
     </g>
    </g>
    <g id="ytick_15">
     <g id="line2d_36">
      <g>
       <use xlink:href="#m5fa0e0d142" x="580.932" y="209.406316" style="stroke: #000000; stroke-width: 0.8"/>
      </g>
     </g>
     <g id="text_33">
      <!-- 10 -->
      <g transform="translate(587.932 213.205535) scale(0.1 -0.1)">
       <use xlink:href="#DejaVuSans-31"/>
       <use xlink:href="#DejaVuSans-30" x="63.623047"/>
      </g>
     </g>
    </g>
    <g id="ytick_16">
     <g id="line2d_37">
      <g>
       <use xlink:href="#m5fa0e0d142" x="580.932" y="174.391579" style="stroke: #000000; stroke-width: 0.8"/>
      </g>
     </g>
     <g id="text_34">
      <!-- 12 -->
      <g transform="translate(587.932 178.190798) scale(0.1 -0.1)">
       <use xlink:href="#DejaVuSans-31"/>
       <use xlink:href="#DejaVuSans-32" x="63.623047"/>
      </g>
     </g>
    </g>
    <g id="ytick_17">
     <g id="line2d_38">
      <g>
       <use xlink:href="#m5fa0e0d142" x="580.932" y="139.376842" style="stroke: #000000; stroke-width: 0.8"/>
      </g>
     </g>
     <g id="text_35">
      <!-- 14 -->
      <g transform="translate(587.932 143.176061) scale(0.1 -0.1)">
       <use xlink:href="#DejaVuSans-31"/>
       <use xlink:href="#DejaVuSans-34" x="63.623047"/>
      </g>
     </g>
    </g>
    <g id="ytick_18">
     <g id="line2d_39">
      <g>
       <use xlink:href="#m5fa0e0d142" x="580.932" y="104.362105" style="stroke: #000000; stroke-width: 0.8"/>
      </g>
     </g>
     <g id="text_36">
      <!-- 16 -->
      <g transform="translate(587.932 108.161324) scale(0.1 -0.1)">
       <use xlink:href="#DejaVuSans-31"/>
       <use xlink:href="#DejaVuSans-36" x="63.623047"/>
      </g>
     </g>
    </g>
    <g id="ytick_19">
     <g id="line2d_40">
      <g>
       <use xlink:href="#m5fa0e0d142" x="580.932" y="69.347368" style="stroke: #000000; stroke-width: 0.8"/>
      </g>
     </g>
     <g id="text_37">
      <!-- 18 -->
      <g transform="translate(587.932 73.146587) scale(0.1 -0.1)">
       <use xlink:href="#DejaVuSans-31"/>
       <use xlink:href="#DejaVuSans-38" x="63.623047"/>
      </g>
     </g>
    </g>
    <g id="text_38">
     <!-- COP -->
     <g transform="translate(616.8145 234.8675) rotate(-90) scale(0.16 -0.16)">
      <defs>
       <path id="DejaVuSans-4f" d="M 2522 4238 
Q 1834 4238 1429 3725 
Q 1025 3213 1025 2328 
Q 1025 1447 1429 934 
Q 1834 422 2522 422 
Q 3209 422 3611 934 
Q 4013 1447 4013 2328 
Q 4013 3213 3611 3725 
Q 3209 4238 2522 4238 
z
M 2522 4750 
Q 3503 4750 4090 4092 
Q 4678 3434 4678 2328 
Q 4678 1225 4090 567 
Q 3503 -91 2522 -91 
Q 1538 -91 948 565 
Q 359 1222 359 2328 
Q 359 3434 948 4092 
Q 1538 4750 2522 4750 
z
" transform="scale(0.015625)"/>
       <path id="DejaVuSans-50" d="M 1259 4147 
L 1259 2394 
L 2053 2394 
Q 2494 2394 2734 2622 
Q 2975 2850 2975 3272 
Q 2975 3691 2734 3919 
Q 2494 4147 2053 4147 
L 1259 4147 
z
M 628 4666 
L 2053 4666 
Q 2838 4666 3239 4311 
Q 3641 3956 3641 3272 
Q 3641 2581 3239 2228 
Q 2838 1875 2053 1875 
L 1259 1875 
L 1259 0 
L 628 0 
L 628 4666 
z
" transform="scale(0.015625)"/>
      </defs>
      <use xlink:href="#DejaVuSans-43"/>
      <use xlink:href="#DejaVuSans-4f" x="69.824219"/>
      <use xlink:href="#DejaVuSans-50" x="148.535156"/>
     </g>
    </g>
   </g>
   <g id="LineCollection_1"/>
   <g id="patch_8">
    <path d="M 564.3 384.48 
L 572.616 384.48 
L 580.932 384.48 
L 580.932 51.84 
L 572.616 51.84 
L 564.3 51.84 
L 564.3 384.48 
z
" style="fill: none; stroke: #000000; stroke-width: 0.8; stroke-linejoin: miter; stroke-linecap: square"/>
   </g>
  </g>
 </g>
 <defs>
  <clipPath id="p5a0ab6ecff">
   <rect x="90" y="51.84" width="446.4" height="332.64"/>
  </clipPath>
  <clipPath id="p5e330025a7">
   <rect x="564.3" y="51.84" width="16.632" height="332.64"/>
  </clipPath>
 </defs>
</svg>
