<?xml version="1.0" encoding="utf-8" standalone="no"?>
<!DOCTYPE svg PUBLIC "-//W3C//DTD SVG 1.1//EN"
  "http://www.w3.org/Graphics/SVG/1.1/DTD/svg11.dtd">
<svg xmlns:xlink="http://www.w3.org/1999/xlink" width="720pt" height="432pt" viewBox="0 0 720 432" xmlns="http://www.w3.org/2000/svg" version="1.1">
 <metadata>
  <rdf:RDF xmlns:dc="http://purl.org/dc/elements/1.1/" xmlns:cc="http://creativecommons.org/ns#" xmlns:rdf="http://www.w3.org/1999/02/22-rdf-syntax-ns#">
   <cc:Work>
    <dc:type rdf:resource="http://purl.org/dc/dcmitype/StillImage"/>
    <dc:date>2024-06-14T15:27:57.983570</dc:date>
    <dc:format>image/svg+xml</dc:format>
    <dc:creator>
     <cc:Agent>
      <dc:title>Matplotlib v3.8.3, https://matplotlib.org/</dc:title>
     </cc:Agent>
    </dc:creator>
   </cc:Work>
  </rdf:RDF>
 </metadata>
 <defs>
  <style type="text/css">*{stroke-linejoin: round; stroke-linecap: butt}</style>
 </defs>
 <g id="figure_1">
  <g id="patch_1">
   <path d="M 0 432 
L 720 432 
L 720 0 
L 0 0 
z
" style="fill: #ffffff"/>
  </g>
  <g id="axes_1">
   <g id="patch_2">
    <path d="M 90 384.48 
L 648 384.48 
L 648 51.84 
L 90 51.84 
z
" style="fill: #ffffff"/>
   </g>
   <g id="QuadContourSet_1">
    <path clip-path="url(#pb34fe81115)" style="fill: #471365"/>
    <path clip-path="url(#pb34fe81115)" style="fill: #463480"/>
    <path d="M 343.636364 66.295006 
L 349.272727 66.652263 
L 354.909091 66.801959 
L 360.545455 66.951656 
L 366.181818 67.101353 
L 371.818182 67.191007 
L 377.454545 67.008968 
L 383.090909 66.783178 
L 388.727273 66.557388 
L 394.363636 66.331598 
L 400 66.105809 
L 405.636364 65.880019 
L 411.272727 65.654229 
L 416.909091 65.419976 
L 417.78895 65.28 
L 422.545455 64.619977 
L 428.181818 63.337901 
L 433.818182 62.024499 
L 434.266631 61.92 
L 439.454545 60.711097 
L 445.090909 59.397695 
L 448.685815 58.56 
L 450.727273 58.084293 
L 456.363636 56.770892 
L 462 55.45749 
L 463.104998 55.2 
L 467.636364 54.144088 
L 473.272727 52.830686 
L 477.524181 51.84 
L 473.272727 51.84 
L 467.636364 51.84 
L 462 51.84 
L 456.363636 51.84 
L 450.727273 51.84 
L 445.090909 51.84 
L 439.454545 51.84 
L 433.818182 51.84 
L 428.181818 51.84 
L 422.545455 51.84 
L 416.909091 51.84 
L 411.272727 51.84 
L 405.636364 51.84 
L 400 51.84 
L 394.363636 51.84 
L 388.727273 51.84 
L 383.090909 51.84 
L 377.454545 51.84 
L 371.818182 51.84 
L 366.181818 51.84 
L 360.545455 51.84 
L 354.909091 51.84 
L 349.272727 55.2 
L 343.636364 55.2 
L 339.079838 57.916278 
L 339.235836 58.56 
L 340.088421 61.92 
L 340.820143 65.28 
z
" clip-path="url(#pb34fe81115)" style="fill: #3b528b"/>
    <path d="M 287.272727 119.291723 
L 292.909091 119.44142 
L 298.545455 119.591117 
L 304.181818 119.740814 
L 309.818182 119.890511 
L 315.454545 120.040207 
L 321.090909 120.185626 
L 326.727273 120.084341 
L 332.363636 119.858551 
L 338 119.632761 
L 343.636364 119.406972 
L 349.272727 119.181182 
L 352.797033 119.04 
L 354.909091 118.955392 
L 360.545455 118.729602 
L 366.181818 117.775818 
L 371.818182 116.462416 
L 375.175862 115.68 
L 377.454545 115.149014 
L 383.090909 113.835613 
L 388.727273 112.522211 
L 389.595045 112.32 
L 394.363636 111.208809 
L 400 109.895407 
L 404.014228 108.96 
L 405.636364 108.582005 
L 411.272727 107.268603 
L 416.909091 106.040689 
L 420.536157 105.6 
L 422.545455 105.35587 
L 428.181818 104.653536 
L 433.818182 103.930788 
L 439.454545 103.184217 
L 445.090909 102.405019 
L 446.251959 102.24 
L 450.727273 101.603152 
L 456.363636 100.810866 
L 462 99.939779 
L 462 98.88 
L 467.636364 95.52 
L 473.272727 92.16 
L 478.909091 88.8 
L 484.545455 85.44 
L 490.181818 82.08 
L 490.181818 78.72 
L 495.818182 75.36 
L 501.454545 72 
L 507.090909 68.64 
L 512.727273 65.28 
L 518.363636 61.92 
L 518.363636 58.56 
L 524 55.2 
L 529.636364 51.84 
L 524 51.84 
L 518.363636 51.84 
L 512.727273 51.84 
L 507.090909 51.84 
L 501.454545 51.84 
L 495.818182 51.84 
L 490.181818 51.84 
L 484.545455 51.84 
L 478.909091 51.84 
L 477.524181 51.84 
L 473.272727 52.830686 
L 467.636364 54.144088 
L 463.104998 55.2 
L 462 55.45749 
L 456.363636 56.770892 
L 450.727273 58.084293 
L 448.685815 58.56 
L 445.090909 59.397695 
L 439.454545 60.711097 
L 434.266631 61.92 
L 433.818182 62.024499 
L 428.181818 63.337901 
L 422.545455 64.619977 
L 417.78895 65.28 
L 416.909091 65.419976 
L 411.272727 65.654229 
L 405.636364 65.880019 
L 400 66.105809 
L 394.363636 66.331598 
L 388.727273 66.557388 
L 383.090909 66.783178 
L 377.454545 67.008968 
L 371.818182 67.191007 
L 366.181818 67.101353 
L 360.545455 66.951656 
L 354.909091 66.801959 
L 349.272727 66.652263 
L 343.636364 66.295006 
L 340.820143 65.28 
L 340.088421 61.92 
L 339.235836 58.56 
L 339.079838 57.916278 
L 338 58.56 
L 332.363636 58.56 
L 326.727273 61.92 
L 321.090909 65.28 
L 315.454545 65.28 
L 309.818182 68.64 
L 304.181818 68.64 
L 298.545455 72 
L 292.909091 75.36 
L 287.272727 75.36 
L 281.636364 78.72 
L 276 82.08 
L 270.363636 82.08 
L 264.727273 85.44 
L 259.090909 85.44 
L 253.454545 88.8 
L 247.818182 92.16 
L 242.181818 92.16 
L 236.545455 95.52 
L 230.909091 98.88 
L 229.607417 99.655965 
L 229.872035 102.24 
L 230.428098 105.6 
L 230.909091 106.487078 
L 233.8987 108.96 
L 236.545455 109.774069 
L 242.181818 111.507658 
L 244.822959 112.32 
L 247.818182 113.241248 
L 253.454545 114.796492 
L 259.090909 115.578405 
L 259.843432 115.68 
L 264.727273 116.339349 
L 270.363636 117.100294 
L 276 117.861238 
L 281.636364 118.622183 
L 285.049227 119.04 
z
" clip-path="url(#pb34fe81115)" style="fill: #2f6c8e"/>
    <path d="M 259.090909 172.829365 
L 264.727273 172.979062 
L 270.363636 173.128758 
L 276 173.159714 
L 281.636364 172.933925 
L 284.979506 172.8 
L 287.272727 172.708135 
L 292.909091 172.482345 
L 298.545455 172.256555 
L 304.181818 172.030765 
L 309.818182 170.900334 
L 315.454545 169.586932 
L 316.085092 169.44 
L 321.090909 168.27353 
L 326.727273 166.960128 
L 330.504275 166.08 
L 332.363636 165.646726 
L 338 164.333324 
L 343.636364 163.035256 
L 345.410283 162.72 
L 349.272727 161.988491 
L 354.909091 161.247431 
L 360.545455 160.531121 
L 366.181818 159.785797 
L 369.204286 159.36 
L 371.818182 158.993464 
L 377.454545 158.198552 
L 383.090909 157.343433 
L 383.090909 156 
L 388.727273 152.64 
L 394.363636 149.28 
L 400 145.92 
L 405.636364 142.56 
L 405.636364 139.2 
L 411.272727 135.84 
L 416.909091 132.48 
L 422.545455 129.12 
L 428.181818 125.76 
L 433.818182 122.4 
L 433.818182 119.04 
L 439.454545 115.68 
L 445.090909 112.32 
L 450.727273 108.96 
L 456.363636 105.6 
L 462 102.24 
L 462 99.939779 
L 456.363636 100.810866 
L 450.727273 101.603152 
L 446.251959 102.24 
L 445.090909 102.405019 
L 439.454545 103.184217 
L 433.818182 103.930788 
L 428.181818 104.653536 
L 422.545455 105.35587 
L 420.536157 105.6 
L 416.909091 106.040689 
L 411.272727 107.268603 
L 405.636364 108.582005 
L 404.014228 108.96 
L 400 109.895407 
L 394.363636 111.208809 
L 389.595045 112.32 
L 388.727273 112.522211 
L 383.090909 113.835613 
L 377.454545 115.149014 
L 375.175862 115.68 
L 371.818182 116.462416 
L 366.181818 117.775818 
L 360.545455 118.729602 
L 354.909091 118.955392 
L 352.797033 119.04 
L 349.272727 119.181182 
L 343.636364 119.406972 
L 338 119.632761 
L 332.363636 119.858551 
L 326.727273 120.084341 
L 321.090909 120.185626 
L 315.454545 120.040207 
L 309.818182 119.890511 
L 304.181818 119.740814 
L 298.545455 119.591117 
L 292.909091 119.44142 
L 287.272727 119.291723 
L 285.049227 119.04 
L 281.636364 118.622183 
L 276 117.861238 
L 270.363636 117.100294 
L 264.727273 116.339349 
L 259.843432 115.68 
L 259.090909 115.578405 
L 253.454545 114.796492 
L 247.818182 113.241248 
L 244.822959 112.32 
L 242.181818 111.507658 
L 236.545455 109.774069 
L 233.8987 108.96 
L 230.909091 106.487078 
L 230.428098 105.6 
L 229.872035 102.24 
L 229.607417 99.655965 
L 225.272727 102.24 
L 219.636364 102.24 
L 214 105.6 
L 208.363636 108.96 
L 202.727273 112.32 
L 197.090909 112.32 
L 191.454545 115.68 
L 185.818182 119.04 
L 180.181818 122.4 
L 174.545455 125.76 
L 168.909091 129.12 
L 163.272727 132.48 
L 162.685993 132.829769 
L 163.110964 135.84 
L 163.272727 136.113609 
L 165.097461 139.2 
L 167.083957 142.56 
L 168.909091 145.647067 
L 169.182709 145.92 
L 173.37503 149.28 
L 174.545455 150.007529 
L 179.160786 152.64 
L 180.181818 153.222371 
L 185.051645 156 
L 185.818182 156.437214 
L 190.942503 159.36 
L 191.454545 159.652056 
L 197.090909 162.10073 
L 199.10432 162.72 
L 202.727273 163.83432 
L 208.363636 165.56791 
L 210.028579 166.08 
L 214 167.301499 
L 219.636364 168.927908 
L 223.220677 169.44 
L 225.272727 169.71704 
L 230.909091 170.477984 
L 236.545455 171.238929 
L 242.181818 171.999874 
L 247.818182 172.528429 
L 253.454545 172.679668 
L 257.985272 172.8 
z
" clip-path="url(#pb34fe81115)" style="fill: #25848e"/>
    <path d="M 191.454545 223.855675 
L 197.090909 224.616619 
L 202.727273 225.377564 
L 208.363636 225.768219 
L 214 225.917916 
L 219.636364 226.067613 
L 225.272727 226.21474 
L 230.909091 226.009298 
L 236.545455 225.783508 
L 242.181818 225.557718 
L 247.818182 225.140558 
L 253.454545 224.024849 
L 256.994322 223.2 
L 259.090909 222.711447 
L 264.727273 221.398045 
L 270.363636 220.084644 
L 271.413505 219.84 
L 276 218.771242 
L 281.636364 217.838769 
L 287.272727 217.131763 
L 292.198943 216.48 
L 292.909091 216.386452 
L 298.545455 215.587712 
L 300.506807 215.310781 
L 304.181818 213.12 
L 309.818182 209.76 
L 315.454545 206.4 
L 321.090909 203.04 
L 326.727273 199.68 
L 326.727273 196.32 
L 332.363636 192.96 
L 338 189.6 
L 343.636364 186.24 
L 349.272727 182.88 
L 354.909091 179.52 
L 354.909091 176.16 
L 360.545455 172.8 
L 366.181818 169.44 
L 371.818182 166.08 
L 377.454545 162.72 
L 383.090909 159.36 
L 383.090909 157.343433 
L 377.454545 158.198552 
L 371.818182 158.993464 
L 369.204286 159.36 
L 366.181818 159.785797 
L 360.545455 160.531121 
L 354.909091 161.247431 
L 349.272727 161.988491 
L 345.410283 162.72 
L 343.636364 163.035256 
L 338 164.333324 
L 332.363636 165.646726 
L 330.504275 166.08 
L 326.727273 166.960128 
L 321.090909 168.27353 
L 316.085092 169.44 
L 315.454545 169.586932 
L 309.818182 170.900334 
L 304.181818 172.030765 
L 298.545455 172.256555 
L 292.909091 172.482345 
L 287.272727 172.708135 
L 284.979506 172.8 
L 281.636364 172.933925 
L 276 173.159714 
L 270.363636 173.128758 
L 264.727273 172.979062 
L 259.090909 172.829365 
L 257.985272 172.8 
L 253.454545 172.679668 
L 247.818182 172.528429 
L 242.181818 171.999874 
L 236.545455 171.238929 
L 230.909091 170.477984 
L 225.272727 169.71704 
L 223.220677 169.44 
L 219.636364 168.927908 
L 214 167.301499 
L 210.028579 166.08 
L 208.363636 165.56791 
L 202.727273 163.83432 
L 199.10432 162.72 
L 197.090909 162.10073 
L 191.454545 159.652056 
L 190.942503 159.36 
L 185.818182 156.437214 
L 185.051645 156 
L 180.181818 153.222371 
L 179.160786 152.64 
L 174.545455 150.007529 
L 173.37503 149.28 
L 169.182709 145.92 
L 168.909091 145.647067 
L 167.083957 142.56 
L 165.097461 139.2 
L 163.272727 136.113609 
L 163.110964 135.84 
L 162.685993 132.829769 
L 157.636364 135.84 
L 152 139.2 
L 146.363636 142.56 
L 140.727273 145.92 
L 135.090909 149.28 
L 129.454545 152.64 
L 123.818182 156 
L 123.818182 159.36 
L 118.826026 162.335969 
L 119.039912 162.72 
L 121.106235 166.08 
L 123.077906 169.44 
L 123.818182 170.654983 
L 125.096019 172.8 
L 126.889503 176.16 
L 128.468913 179.52 
L 129.454545 181.84186 
L 129.890851 182.88 
L 131.661309 186.24 
L 134.283271 189.6 
L 135.090909 190.387323 
L 140.727273 192.062628 
L 141.354081 192.96 
L 143.578646 196.32 
L 145.609186 199.68 
L 146.363636 200.956093 
L 147.627349 203.04 
L 150.079578 206.4 
L 152 208.549812 
L 154.121739 209.76 
L 157.636364 211.764655 
L 160.012598 213.12 
L 163.272727 214.979497 
L 166.029941 216.48 
L 168.909091 217.894571 
L 174.545455 219.628161 
L 175.2342 219.84 
L 180.181818 221.361751 
L 185.818182 223.084781 
L 186.597922 223.2 
z
" clip-path="url(#pb34fe81115)" style="fill: #1e9c89"/>
    <path d="M 152 277.143318 
L 157.636364 277.99431 
L 163.272727 278.745914 
L 168.909091 279.006467 
L 174.545455 279.156164 
L 180.181818 279.084671 
L 185.818182 278.858881 
L 191.454545 278.350231 
L 197.090909 277.149365 
L 197.903553 276.96 
L 202.727273 275.835963 
L 208.363636 274.61749 
L 214 273.732238 
L 214.973404 273.6 
L 219.636364 272.970932 
L 221.010921 272.780587 
L 225.272727 270.24 
L 230.909091 266.88 
L 236.545455 263.52 
L 242.181818 260.16 
L 242.181818 256.8 
L 247.818182 253.44 
L 253.454545 250.08 
L 259.090909 246.72 
L 264.727273 243.36 
L 270.363636 240 
L 270.363636 236.64 
L 276 233.28 
L 281.636364 229.92 
L 287.272727 226.56 
L 292.909091 223.2 
L 298.545455 219.84 
L 298.545455 216.48 
L 300.506807 215.310781 
L 298.545455 215.587712 
L 292.909091 216.386452 
L 292.198943 216.48 
L 287.272727 217.131763 
L 281.636364 217.838769 
L 276 218.771242 
L 271.413505 219.84 
L 270.363636 220.084644 
L 264.727273 221.398045 
L 259.090909 222.711447 
L 256.994322 223.2 
L 253.454545 224.024849 
L 247.818182 225.140558 
L 242.181818 225.557718 
L 236.545455 225.783508 
L 230.909091 226.009298 
L 225.272727 226.21474 
L 219.636364 226.067613 
L 214 225.917916 
L 208.363636 225.768219 
L 202.727273 225.377564 
L 197.090909 224.616619 
L 191.454545 223.855675 
L 186.597922 223.2 
L 185.818182 223.084781 
L 180.181818 221.361751 
L 175.2342 219.84 
L 174.545455 219.628161 
L 168.909091 217.894571 
L 166.029941 216.48 
L 163.272727 214.979497 
L 160.012598 213.12 
L 157.636364 211.764655 
L 154.121739 209.76 
L 152 208.549812 
L 150.079578 206.4 
L 147.627349 203.04 
L 146.363636 200.956093 
L 145.609186 199.68 
L 143.578646 196.32 
L 141.354081 192.96 
L 140.727273 192.062628 
L 135.090909 190.387323 
L 134.283271 189.6 
L 131.661309 186.24 
L 129.890851 182.88 
L 129.454545 181.84186 
L 128.468913 179.52 
L 126.889503 176.16 
L 125.096019 172.8 
L 123.818182 170.654983 
L 123.077906 169.44 
L 121.106235 166.08 
L 119.039912 162.72 
L 118.826026 162.335969 
L 118.181818 162.72 
L 112.545455 166.08 
L 112.545455 169.44 
L 106.909091 172.8 
L 106.909091 176.16 
L 101.272727 179.52 
L 101.272727 182.88 
L 95.636364 186.24 
L 95.636364 189.6 
L 95.636364 192.96 
L 95.636364 196.32 
L 95.636364 199.68 
L 95.636364 203.04 
L 95.636364 206.4 
L 95.636364 207.908852 
L 96.505395 209.76 
L 98.021951 213.12 
L 99.408384 216.48 
L 100.69271 219.84 
L 101.272727 221.405216 
L 102.179128 223.2 
L 103.848798 226.56 
L 105.483944 229.92 
L 106.88923 233.28 
L 106.909091 233.331724 
L 108.64112 236.64 
L 110.821749 240 
L 112.545455 242.18385 
L 113.274635 243.36 
L 115.180969 246.72 
L 116.861821 250.08 
L 118.181818 253.030142 
L 118.592843 253.44 
L 123.154693 256.8 
L 123.818182 257.20234 
L 125.898068 260.16 
L 128.076881 263.52 
L 129.454545 265.798576 
L 130.549594 266.88 
L 134.981889 270.24 
L 135.090909 270.306938 
L 140.727273 273.521781 
L 140.937575 273.6 
L 146.363636 275.422002 
L 151.364079 276.96 
z
" clip-path="url(#pb34fe81115)" style="fill: #2fb47c"/>
    <path d="M 118.181818 331.200203 
L 123.818182 332.053761 
L 129.454545 332.156374 
L 135.090909 331.587282 
L 139.178407 330.72 
L 140.727273 330.379456 
L 141.556283 330.225803 
L 146.363636 327.36 
L 152 324 
L 157.636364 320.64 
L 163.272727 317.28 
L 163.272727 313.92 
L 168.909091 310.56 
L 174.545455 307.2 
L 180.181818 303.84 
L 185.818182 300.48 
L 191.454545 297.12 
L 191.454545 293.76 
L 197.090909 290.4 
L 202.727273 287.04 
L 208.363636 283.68 
L 214 280.32 
L 219.636364 276.96 
L 219.636364 273.6 
L 221.010921 272.780587 
L 219.636364 272.970932 
L 214.973404 273.6 
L 214 273.732238 
L 208.363636 274.61749 
L 202.727273 275.835963 
L 197.903553 276.96 
L 197.090909 277.149365 
L 191.454545 278.350231 
L 185.818182 278.858881 
L 180.181818 279.084671 
L 174.545455 279.156164 
L 168.909091 279.006467 
L 163.272727 278.745914 
L 157.636364 277.99431 
L 152 277.143318 
L 151.364079 276.96 
L 146.363636 275.422002 
L 140.937575 273.6 
L 140.727273 273.521781 
L 135.090909 270.306938 
L 134.981889 270.24 
L 130.549594 266.88 
L 129.454545 265.798576 
L 128.076881 263.52 
L 125.898068 260.16 
L 123.818182 257.20234 
L 123.154693 256.8 
L 118.592843 253.44 
L 118.181818 253.030142 
L 116.861821 250.08 
L 115.180969 246.72 
L 113.274635 243.36 
L 112.545455 242.18385 
L 110.821749 240 
L 108.64112 236.64 
L 106.909091 233.331724 
L 106.88923 233.28 
L 105.483944 229.92 
L 103.848798 226.56 
L 102.179128 223.2 
L 101.272727 221.405216 
L 100.69271 219.84 
L 99.408384 216.48 
L 98.021951 213.12 
L 96.505395 209.76 
L 95.636364 207.908852 
L 95.636364 209.76 
L 95.636364 213.12 
L 95.636364 216.48 
L 95.636364 219.84 
L 95.636364 223.2 
L 95.636364 226.56 
L 95.636364 229.92 
L 95.636364 233.28 
L 95.636364 236.64 
L 95.636364 240 
L 95.636364 243.36 
L 95.636364 246.72 
L 95.636364 250.08 
L 95.636364 253.44 
L 95.636364 256.8 
L 95.636364 260.16 
L 95.636364 263.52 
L 95.636364 266.88 
L 95.636364 270.24 
L 95.636364 273.6 
L 95.636364 276.96 
L 95.636364 280.32 
L 95.636364 283.68 
L 95.636364 287.04 
L 95.636364 290.4 
L 95.636364 293.76 
L 95.636364 297.12 
L 95.636364 300.48 
L 95.636364 303.84 
L 95.636364 307.2 
L 95.636364 308.024909 
L 98.400769 310.56 
L 101.272727 313.315404 
L 101.629559 313.92 
L 103.542119 317.28 
L 105.260678 320.64 
L 106.813165 324 
L 106.909091 324.132671 
L 110.902865 327.36 
L 112.545455 328.849222 
L 116.902634 330.72 
z
" clip-path="url(#pb34fe81115)" style="fill: #5ec962"/>
    <path d="M 101.272727 360.96 
L 106.909091 357.6 
L 106.909091 354.24 
L 112.545455 350.88 
L 118.181818 347.52 
L 123.818182 344.16 
L 129.454545 340.8 
L 135.090909 337.44 
L 135.090909 334.08 
L 140.727273 330.72 
L 141.556283 330.225803 
L 140.727273 330.379456 
L 139.178407 330.72 
L 135.090909 331.587282 
L 129.454545 332.156374 
L 123.818182 332.053761 
L 118.181818 331.200203 
L 116.902634 330.72 
L 112.545455 328.849222 
L 110.902865 327.36 
L 106.909091 324.132671 
L 106.813165 324 
L 105.260678 320.64 
L 103.542119 317.28 
L 101.629559 313.92 
L 101.272727 313.315404 
L 98.400769 310.56 
L 95.636364 308.024909 
L 95.636364 310.56 
L 101.272727 313.92 
L 101.272727 317.28 
L 101.272727 320.64 
L 101.272727 324 
L 101.272727 327.36 
L 101.272727 330.72 
L 101.272727 334.08 
L 101.272727 337.44 
L 101.272727 340.8 
L 101.272727 344.16 
L 101.272727 347.52 
L 101.272727 350.88 
L 101.272727 354.24 
L 101.272727 357.6 
z
" clip-path="url(#pb34fe81115)" style="fill: #9bd93c"/>
    <path clip-path="url(#pb34fe81115)" style="fill: #dfe318"/>
   </g>
   <g id="matplotlib.axis_1">
    <g id="xtick_1">
     <g id="line2d_1">
      <path d="M 146.211832 384.48 
L 146.211832 51.84 
" clip-path="url(#pb34fe81115)" style="fill: none; stroke: #b0b0b0; stroke-width: 0.8; stroke-linecap: square"/>
     </g>
     <g id="line2d_2">
      <defs>
       <path id="m1b2f52a5a7" d="M 0 0 
L 0 3.5 
" style="stroke: #000000; stroke-width: 0.8"/>
      </defs>
      <g>
       <use xlink:href="#m1b2f52a5a7" x="146.211832" y="384.48" style="stroke: #000000; stroke-width: 0.8"/>
      </g>
     </g>
     <g id="text_1">
      <!-- 6000 -->
      <g transform="translate(133.486832 399.078438) scale(0.1 -0.1)">
       <defs>
        <path id="DejaVuSans-36" d="M 2113 2584 
Q 1688 2584 1439 2293 
Q 1191 2003 1191 1497 
Q 1191 994 1439 701 
Q 1688 409 2113 409 
Q 2538 409 2786 701 
Q 3034 994 3034 1497 
Q 3034 2003 2786 2293 
Q 2538 2584 2113 2584 
z
M 3366 4563 
L 3366 3988 
Q 3128 4100 2886 4159 
Q 2644 4219 2406 4219 
Q 1781 4219 1451 3797 
Q 1122 3375 1075 2522 
Q 1259 2794 1537 2939 
Q 1816 3084 2150 3084 
Q 2853 3084 3261 2657 
Q 3669 2231 3669 1497 
Q 3669 778 3244 343 
Q 2819 -91 2113 -91 
Q 1303 -91 875 529 
Q 447 1150 447 2328 
Q 447 3434 972 4092 
Q 1497 4750 2381 4750 
Q 2619 4750 2861 4703 
Q 3103 4656 3366 4563 
z
" transform="scale(0.015625)"/>
        <path id="DejaVuSans-30" d="M 2034 4250 
Q 1547 4250 1301 3770 
Q 1056 3291 1056 2328 
Q 1056 1369 1301 889 
Q 1547 409 2034 409 
Q 2525 409 2770 889 
Q 3016 1369 3016 2328 
Q 3016 3291 2770 3770 
Q 2525 4250 2034 4250 
z
M 2034 4750 
Q 2819 4750 3233 4129 
Q 3647 3509 3647 2328 
Q 3647 1150 3233 529 
Q 2819 -91 2034 -91 
Q 1250 -91 836 529 
Q 422 1150 422 2328 
Q 422 3509 836 4129 
Q 1250 4750 2034 4750 
z
" transform="scale(0.015625)"/>
       </defs>
       <use xlink:href="#DejaVuSans-36"/>
       <use xlink:href="#DejaVuSans-30" x="63.623047"/>
       <use xlink:href="#DejaVuSans-30" x="127.246094"/>
       <use xlink:href="#DejaVuSans-30" x="190.869141"/>
      </g>
     </g>
    </g>
    <g id="xtick_2">
     <g id="line2d_3">
      <path d="M 249.687611 384.48 
L 249.687611 51.84 
" clip-path="url(#pb34fe81115)" style="fill: none; stroke: #b0b0b0; stroke-width: 0.8; stroke-linecap: square"/>
     </g>
     <g id="line2d_4">
      <g>
       <use xlink:href="#m1b2f52a5a7" x="249.687611" y="384.48" style="stroke: #000000; stroke-width: 0.8"/>
      </g>
     </g>
     <g id="text_2">
      <!-- 8000 -->
      <g transform="translate(236.962611 399.078438) scale(0.1 -0.1)">
       <defs>
        <path id="DejaVuSans-38" d="M 2034 2216 
Q 1584 2216 1326 1975 
Q 1069 1734 1069 1313 
Q 1069 891 1326 650 
Q 1584 409 2034 409 
Q 2484 409 2743 651 
Q 3003 894 3003 1313 
Q 3003 1734 2745 1975 
Q 2488 2216 2034 2216 
z
M 1403 2484 
Q 997 2584 770 2862 
Q 544 3141 544 3541 
Q 544 4100 942 4425 
Q 1341 4750 2034 4750 
Q 2731 4750 3128 4425 
Q 3525 4100 3525 3541 
Q 3525 3141 3298 2862 
Q 3072 2584 2669 2484 
Q 3125 2378 3379 2068 
Q 3634 1759 3634 1313 
Q 3634 634 3220 271 
Q 2806 -91 2034 -91 
Q 1263 -91 848 271 
Q 434 634 434 1313 
Q 434 1759 690 2068 
Q 947 2378 1403 2484 
z
M 1172 3481 
Q 1172 3119 1398 2916 
Q 1625 2713 2034 2713 
Q 2441 2713 2670 2916 
Q 2900 3119 2900 3481 
Q 2900 3844 2670 4047 
Q 2441 4250 2034 4250 
Q 1625 4250 1398 4047 
Q 1172 3844 1172 3481 
z
" transform="scale(0.015625)"/>
       </defs>
       <use xlink:href="#DejaVuSans-38"/>
       <use xlink:href="#DejaVuSans-30" x="63.623047"/>
       <use xlink:href="#DejaVuSans-30" x="127.246094"/>
       <use xlink:href="#DejaVuSans-30" x="190.869141"/>
      </g>
     </g>
    </g>
    <g id="xtick_3">
     <g id="line2d_5">
      <path d="M 353.16339 384.48 
L 353.16339 51.84 
" clip-path="url(#pb34fe81115)" style="fill: none; stroke: #b0b0b0; stroke-width: 0.8; stroke-linecap: square"/>
     </g>
     <g id="line2d_6">
      <g>
       <use xlink:href="#m1b2f52a5a7" x="353.16339" y="384.48" style="stroke: #000000; stroke-width: 0.8"/>
      </g>
     </g>
     <g id="text_3">
      <!-- 10000 -->
      <g transform="translate(337.25714 399.078438) scale(0.1 -0.1)">
       <defs>
        <path id="DejaVuSans-31" d="M 794 531 
L 1825 531 
L 1825 4091 
L 703 3866 
L 703 4441 
L 1819 4666 
L 2450 4666 
L 2450 531 
L 3481 531 
L 3481 0 
L 794 0 
L 794 531 
z
" transform="scale(0.015625)"/>
       </defs>
       <use xlink:href="#DejaVuSans-31"/>
       <use xlink:href="#DejaVuSans-30" x="63.623047"/>
       <use xlink:href="#DejaVuSans-30" x="127.246094"/>
       <use xlink:href="#DejaVuSans-30" x="190.869141"/>
       <use xlink:href="#DejaVuSans-30" x="254.492188"/>
      </g>
     </g>
    </g>
    <g id="xtick_4">
     <g id="line2d_7">
      <path d="M 456.639169 384.48 
L 456.639169 51.84 
" clip-path="url(#pb34fe81115)" style="fill: none; stroke: #b0b0b0; stroke-width: 0.8; stroke-linecap: square"/>
     </g>
     <g id="line2d_8">
      <g>
       <use xlink:href="#m1b2f52a5a7" x="456.639169" y="384.48" style="stroke: #000000; stroke-width: 0.8"/>
      </g>
     </g>
     <g id="text_4">
      <!-- 12000 -->
      <g transform="translate(440.732919 399.078438) scale(0.1 -0.1)">
       <defs>
        <path id="DejaVuSans-32" d="M 1228 531 
L 3431 531 
L 3431 0 
L 469 0 
L 469 531 
Q 828 903 1448 1529 
Q 2069 2156 2228 2338 
Q 2531 2678 2651 2914 
Q 2772 3150 2772 3378 
Q 2772 3750 2511 3984 
Q 2250 4219 1831 4219 
Q 1534 4219 1204 4116 
Q 875 4013 500 3803 
L 500 4441 
Q 881 4594 1212 4672 
Q 1544 4750 1819 4750 
Q 2544 4750 2975 4387 
Q 3406 4025 3406 3419 
Q 3406 3131 3298 2873 
Q 3191 2616 2906 2266 
Q 2828 2175 2409 1742 
Q 1991 1309 1228 531 
z
" transform="scale(0.015625)"/>
       </defs>
       <use xlink:href="#DejaVuSans-31"/>
       <use xlink:href="#DejaVuSans-32" x="63.623047"/>
       <use xlink:href="#DejaVuSans-30" x="127.246094"/>
       <use xlink:href="#DejaVuSans-30" x="190.869141"/>
       <use xlink:href="#DejaVuSans-30" x="254.492188"/>
      </g>
     </g>
    </g>
    <g id="xtick_5">
     <g id="line2d_9">
      <path d="M 560.114948 384.48 
L 560.114948 51.84 
" clip-path="url(#pb34fe81115)" style="fill: none; stroke: #b0b0b0; stroke-width: 0.8; stroke-linecap: square"/>
     </g>
     <g id="line2d_10">
      <g>
       <use xlink:href="#m1b2f52a5a7" x="560.114948" y="384.48" style="stroke: #000000; stroke-width: 0.8"/>
      </g>
     </g>
     <g id="text_5">
      <!-- 14000 -->
      <g transform="translate(544.208698 399.078438) scale(0.1 -0.1)">
       <defs>
        <path id="DejaVuSans-34" d="M 2419 4116 
L 825 1625 
L 2419 1625 
L 2419 4116 
z
M 2253 4666 
L 3047 4666 
L 3047 1625 
L 3713 1625 
L 3713 1100 
L 3047 1100 
L 3047 0 
L 2419 0 
L 2419 1100 
L 313 1100 
L 313 1709 
L 2253 4666 
z
" transform="scale(0.015625)"/>
       </defs>
       <use xlink:href="#DejaVuSans-31"/>
       <use xlink:href="#DejaVuSans-34" x="63.623047"/>
       <use xlink:href="#DejaVuSans-30" x="127.246094"/>
       <use xlink:href="#DejaVuSans-30" x="190.869141"/>
       <use xlink:href="#DejaVuSans-30" x="254.492188"/>
      </g>
     </g>
    </g>
    <g id="text_6">
     <!-- $\dot{W}_{comp}$ [W] -->
     <g transform="translate(318.4 426.358125) scale(0.2 -0.2)">
      <defs>
       <path id="DejaVuSans-307" d="M -1894 4863 
L -1319 4863 
L -1319 4134 
L -1894 4134 
L -1894 4863 
z
M -1600 3584 
L -1600 3584 
z
" transform="scale(0.015625)"/>
       <path id="DejaVuSans-Oblique-57" d="M 616 4666 
L 1228 4666 
L 1453 697 
L 3213 4666 
L 3916 4666 
L 4147 697 
L 5888 4666 
L 6528 4666 
L 4453 0 
L 3659 0 
L 3444 3891 
L 1697 0 
L 903 0 
L 616 4666 
z
" transform="scale(0.015625)"/>
       <path id="DejaVuSans-Oblique-63" d="M 3431 3366 
L 3316 2797 
Q 3109 2947 2876 3022 
Q 2644 3097 2394 3097 
Q 2119 3097 1870 3000 
Q 1622 2903 1453 2725 
Q 1184 2453 1037 2087 
Q 891 1722 891 1331 
Q 891 859 1127 628 
Q 1363 397 1844 397 
Q 2081 397 2348 469 
Q 2616 541 2906 684 
L 2797 116 
Q 2547 13 2283 -39 
Q 2019 -91 1741 -91 
Q 1044 -91 669 257 
Q 294 606 294 1253 
Q 294 1797 489 2255 
Q 684 2713 1069 3078 
Q 1331 3328 1684 3456 
Q 2038 3584 2456 3584 
Q 2700 3584 2940 3529 
Q 3181 3475 3431 3366 
z
" transform="scale(0.015625)"/>
       <path id="DejaVuSans-Oblique-6f" d="M 1625 -91 
Q 1009 -91 651 289 
Q 294 669 294 1325 
Q 294 1706 417 2101 
Q 541 2497 738 2766 
Q 1047 3184 1428 3384 
Q 1809 3584 2291 3584 
Q 2888 3584 3255 3212 
Q 3622 2841 3622 2241 
Q 3622 1825 3500 1412 
Q 3378 1000 3181 728 
Q 2875 309 2494 109 
Q 2113 -91 1625 -91 
z
M 891 1344 
Q 891 869 1089 633 
Q 1288 397 1691 397 
Q 2269 397 2648 901 
Q 3028 1406 3028 2181 
Q 3028 2634 2825 2865 
Q 2622 3097 2228 3097 
Q 1903 3097 1650 2945 
Q 1397 2794 1197 2484 
Q 1050 2253 970 1956 
Q 891 1659 891 1344 
z
" transform="scale(0.015625)"/>
       <path id="DejaVuSans-Oblique-6d" d="M 5747 2113 
L 5338 0 
L 4763 0 
L 5166 2094 
Q 5191 2228 5203 2325 
Q 5216 2422 5216 2491 
Q 5216 2772 5059 2928 
Q 4903 3084 4622 3084 
Q 4203 3084 3875 2770 
Q 3547 2456 3450 1953 
L 3066 0 
L 2491 0 
L 2900 2094 
Q 2925 2209 2937 2307 
Q 2950 2406 2950 2484 
Q 2950 2769 2794 2926 
Q 2638 3084 2363 3084 
Q 1938 3084 1609 2770 
Q 1281 2456 1184 1953 
L 800 0 
L 225 0 
L 909 3500 
L 1484 3500 
L 1375 2956 
Q 1609 3263 1923 3423 
Q 2238 3584 2597 3584 
Q 2978 3584 3223 3384 
Q 3469 3184 3519 2828 
Q 3781 3197 4126 3390 
Q 4472 3584 4856 3584 
Q 5306 3584 5551 3325 
Q 5797 3066 5797 2591 
Q 5797 2488 5784 2364 
Q 5772 2241 5747 2113 
z
" transform="scale(0.015625)"/>
       <path id="DejaVuSans-Oblique-70" d="M 3175 2156 
Q 3175 2616 2975 2859 
Q 2775 3103 2400 3103 
Q 2144 3103 1911 2972 
Q 1678 2841 1497 2591 
Q 1319 2344 1212 1994 
Q 1106 1644 1106 1300 
Q 1106 863 1306 627 
Q 1506 391 1875 391 
Q 2147 391 2380 519 
Q 2613 647 2778 891 
Q 2956 1147 3065 1494 
Q 3175 1841 3175 2156 
z
M 1394 2969 
Q 1625 3272 1939 3428 
Q 2253 3584 2638 3584 
Q 3175 3584 3472 3232 
Q 3769 2881 3769 2247 
Q 3769 1728 3584 1258 
Q 3400 788 3053 416 
Q 2822 169 2531 39 
Q 2241 -91 1919 -91 
Q 1547 -91 1294 64 
Q 1041 219 916 525 
L 556 -1331 
L -19 -1331 
L 922 3500 
L 1497 3500 
L 1394 2969 
z
" transform="scale(0.015625)"/>
       <path id="DejaVuSans-20" transform="scale(0.015625)"/>
       <path id="DejaVuSans-5b" d="M 550 4863 
L 1875 4863 
L 1875 4416 
L 1125 4416 
L 1125 -397 
L 1875 -397 
L 1875 -844 
L 550 -844 
L 550 4863 
z
" transform="scale(0.015625)"/>
       <path id="DejaVuSans-57" d="M 213 4666 
L 850 4666 
L 1831 722 
L 2809 4666 
L 3519 4666 
L 4500 722 
L 5478 4666 
L 6119 4666 
L 4947 0 
L 4153 0 
L 3169 4050 
L 2175 0 
L 1381 0 
L 213 4666 
z
" transform="scale(0.015625)"/>
       <path id="DejaVuSans-5d" d="M 1947 4863 
L 1947 -844 
L 622 -844 
L 622 -397 
L 1369 -397 
L 1369 4416 
L 622 4416 
L 622 4863 
L 1947 4863 
z
" transform="scale(0.015625)"/>
      </defs>
      <use xlink:href="#DejaVuSans-307" transform="translate(87.312988 30.015625)"/>
      <use xlink:href="#DejaVuSans-Oblique-57" transform="translate(0 0.609375)"/>
      <use xlink:href="#DejaVuSans-Oblique-63" transform="translate(99.833984 -15.796875) scale(0.7)"/>
      <use xlink:href="#DejaVuSans-Oblique-6f" transform="translate(138.320312 -15.796875) scale(0.7)"/>
      <use xlink:href="#DejaVuSans-Oblique-6d" transform="translate(181.147461 -15.796875) scale(0.7)"/>
      <use xlink:href="#DejaVuSans-Oblique-70" transform="translate(249.335938 -15.796875) scale(0.7)"/>
      <use xlink:href="#DejaVuSans-20" transform="translate(296.503906 0.609375)"/>
      <use xlink:href="#DejaVuSans-5b" transform="translate(328.291016 0.609375)"/>
      <use xlink:href="#DejaVuSans-57" transform="translate(367.304688 0.609375)"/>
      <use xlink:href="#DejaVuSans-5d" transform="translate(466.181641 0.609375)"/>
     </g>
    </g>
   </g>
   <g id="matplotlib.axis_2">
    <g id="ytick_1">
     <g id="line2d_11">
      <path d="M 90 384.48 
L 648 384.48 
" clip-path="url(#pb34fe81115)" style="fill: none; stroke: #b0b0b0; stroke-width: 0.8; stroke-linecap: square"/>
     </g>
     <g id="line2d_12">
      <defs>
       <path id="m3d817c514b" d="M 0 0 
L -3.5 0 
" style="stroke: #000000; stroke-width: 0.8"/>
      </defs>
      <g>
       <use xlink:href="#m3d817c514b" x="90" y="384.48" style="stroke: #000000; stroke-width: 0.8"/>
      </g>
     </g>
     <g id="text_7">
      <!-- 10 -->
      <g transform="translate(70.275 388.279219) scale(0.1 -0.1)">
       <use xlink:href="#DejaVuSans-31"/>
       <use xlink:href="#DejaVuSans-30" x="63.623047"/>
      </g>
     </g>
    </g>
    <g id="ytick_2">
     <g id="line2d_13">
      <path d="M 90 342.9 
L 648 342.9 
" clip-path="url(#pb34fe81115)" style="fill: none; stroke: #b0b0b0; stroke-width: 0.8; stroke-linecap: square"/>
     </g>
     <g id="line2d_14">
      <g>
       <use xlink:href="#m3d817c514b" x="90" y="342.9" style="stroke: #000000; stroke-width: 0.8"/>
      </g>
     </g>
     <g id="text_8">
      <!-- 20 -->
      <g transform="translate(70.275 346.699219) scale(0.1 -0.1)">
       <use xlink:href="#DejaVuSans-32"/>
       <use xlink:href="#DejaVuSans-30" x="63.623047"/>
      </g>
     </g>
    </g>
    <g id="ytick_3">
     <g id="line2d_15">
      <path d="M 90 301.32 
L 648 301.32 
" clip-path="url(#pb34fe81115)" style="fill: none; stroke: #b0b0b0; stroke-width: 0.8; stroke-linecap: square"/>
     </g>
     <g id="line2d_16">
      <g>
       <use xlink:href="#m3d817c514b" x="90" y="301.32" style="stroke: #000000; stroke-width: 0.8"/>
      </g>
     </g>
     <g id="text_9">
      <!-- 30 -->
      <g transform="translate(70.275 305.119219) scale(0.1 -0.1)">
       <defs>
        <path id="DejaVuSans-33" d="M 2597 2516 
Q 3050 2419 3304 2112 
Q 3559 1806 3559 1356 
Q 3559 666 3084 287 
Q 2609 -91 1734 -91 
Q 1441 -91 1130 -33 
Q 819 25 488 141 
L 488 750 
Q 750 597 1062 519 
Q 1375 441 1716 441 
Q 2309 441 2620 675 
Q 2931 909 2931 1356 
Q 2931 1769 2642 2001 
Q 2353 2234 1838 2234 
L 1294 2234 
L 1294 2753 
L 1863 2753 
Q 2328 2753 2575 2939 
Q 2822 3125 2822 3475 
Q 2822 3834 2567 4026 
Q 2313 4219 1838 4219 
Q 1578 4219 1281 4162 
Q 984 4106 628 3988 
L 628 4550 
Q 988 4650 1302 4700 
Q 1616 4750 1894 4750 
Q 2613 4750 3031 4423 
Q 3450 4097 3450 3541 
Q 3450 3153 3228 2886 
Q 3006 2619 2597 2516 
z
" transform="scale(0.015625)"/>
       </defs>
       <use xlink:href="#DejaVuSans-33"/>
       <use xlink:href="#DejaVuSans-30" x="63.623047"/>
      </g>
     </g>
    </g>
    <g id="ytick_4">
     <g id="line2d_17">
      <path d="M 90 259.74 
L 648 259.74 
" clip-path="url(#pb34fe81115)" style="fill: none; stroke: #b0b0b0; stroke-width: 0.8; stroke-linecap: square"/>
     </g>
     <g id="line2d_18">
      <g>
       <use xlink:href="#m3d817c514b" x="90" y="259.74" style="stroke: #000000; stroke-width: 0.8"/>
      </g>
     </g>
     <g id="text_10">
      <!-- 40 -->
      <g transform="translate(70.275 263.539219) scale(0.1 -0.1)">
       <use xlink:href="#DejaVuSans-34"/>
       <use xlink:href="#DejaVuSans-30" x="63.623047"/>
      </g>
     </g>
    </g>
    <g id="ytick_5">
     <g id="line2d_19">
      <path d="M 90 218.16 
L 648 218.16 
" clip-path="url(#pb34fe81115)" style="fill: none; stroke: #b0b0b0; stroke-width: 0.8; stroke-linecap: square"/>
     </g>
     <g id="line2d_20">
      <g>
       <use xlink:href="#m3d817c514b" x="90" y="218.16" style="stroke: #000000; stroke-width: 0.8"/>
      </g>
     </g>
     <g id="text_11">
      <!-- 50 -->
      <g transform="translate(70.275 221.959219) scale(0.1 -0.1)">
       <defs>
        <path id="DejaVuSans-35" d="M 691 4666 
L 3169 4666 
L 3169 4134 
L 1269 4134 
L 1269 2991 
Q 1406 3038 1543 3061 
Q 1681 3084 1819 3084 
Q 2600 3084 3056 2656 
Q 3513 2228 3513 1497 
Q 3513 744 3044 326 
Q 2575 -91 1722 -91 
Q 1428 -91 1123 -41 
Q 819 9 494 109 
L 494 744 
Q 775 591 1075 516 
Q 1375 441 1709 441 
Q 2250 441 2565 725 
Q 2881 1009 2881 1497 
Q 2881 1984 2565 2268 
Q 2250 2553 1709 2553 
Q 1456 2553 1204 2497 
Q 953 2441 691 2322 
L 691 4666 
z
" transform="scale(0.015625)"/>
       </defs>
       <use xlink:href="#DejaVuSans-35"/>
       <use xlink:href="#DejaVuSans-30" x="63.623047"/>
      </g>
     </g>
    </g>
    <g id="ytick_6">
     <g id="line2d_21">
      <path d="M 90 176.58 
L 648 176.58 
" clip-path="url(#pb34fe81115)" style="fill: none; stroke: #b0b0b0; stroke-width: 0.8; stroke-linecap: square"/>
     </g>
     <g id="line2d_22">
      <g>
       <use xlink:href="#m3d817c514b" x="90" y="176.58" style="stroke: #000000; stroke-width: 0.8"/>
      </g>
     </g>
     <g id="text_12">
      <!-- 60 -->
      <g transform="translate(70.275 180.379219) scale(0.1 -0.1)">
       <use xlink:href="#DejaVuSans-36"/>
       <use xlink:href="#DejaVuSans-30" x="63.623047"/>
      </g>
     </g>
    </g>
    <g id="ytick_7">
     <g id="line2d_23">
      <path d="M 90 135 
L 648 135 
" clip-path="url(#pb34fe81115)" style="fill: none; stroke: #b0b0b0; stroke-width: 0.8; stroke-linecap: square"/>
     </g>
     <g id="line2d_24">
      <g>
       <use xlink:href="#m3d817c514b" x="90" y="135" style="stroke: #000000; stroke-width: 0.8"/>
      </g>
     </g>
     <g id="text_13">
      <!-- 70 -->
      <g transform="translate(70.275 138.799219) scale(0.1 -0.1)">
       <defs>
        <path id="DejaVuSans-37" d="M 525 4666 
L 3525 4666 
L 3525 4397 
L 1831 0 
L 1172 0 
L 2766 4134 
L 525 4134 
L 525 4666 
z
" transform="scale(0.015625)"/>
       </defs>
       <use xlink:href="#DejaVuSans-37"/>
       <use xlink:href="#DejaVuSans-30" x="63.623047"/>
      </g>
     </g>
    </g>
    <g id="ytick_8">
     <g id="line2d_25">
      <path d="M 90 93.42 
L 648 93.42 
" clip-path="url(#pb34fe81115)" style="fill: none; stroke: #b0b0b0; stroke-width: 0.8; stroke-linecap: square"/>
     </g>
     <g id="line2d_26">
      <g>
       <use xlink:href="#m3d817c514b" x="90" y="93.42" style="stroke: #000000; stroke-width: 0.8"/>
      </g>
     </g>
     <g id="text_14">
      <!-- 80 -->
      <g transform="translate(70.275 97.219219) scale(0.1 -0.1)">
       <use xlink:href="#DejaVuSans-38"/>
       <use xlink:href="#DejaVuSans-30" x="63.623047"/>
      </g>
     </g>
    </g>
    <g id="ytick_9">
     <g id="line2d_27">
      <path d="M 90 51.84 
L 648 51.84 
" clip-path="url(#pb34fe81115)" style="fill: none; stroke: #b0b0b0; stroke-width: 0.8; stroke-linecap: square"/>
     </g>
     <g id="line2d_28">
      <g>
       <use xlink:href="#m3d817c514b" x="90" y="51.84" style="stroke: #000000; stroke-width: 0.8"/>
      </g>
     </g>
     <g id="text_15">
      <!-- 90 -->
      <g transform="translate(70.275 55.639219) scale(0.1 -0.1)">
       <defs>
        <path id="DejaVuSans-39" d="M 703 97 
L 703 672 
Q 941 559 1184 500 
Q 1428 441 1663 441 
Q 2288 441 2617 861 
Q 2947 1281 2994 2138 
Q 2813 1869 2534 1725 
Q 2256 1581 1919 1581 
Q 1219 1581 811 2004 
Q 403 2428 403 3163 
Q 403 3881 828 4315 
Q 1253 4750 1959 4750 
Q 2769 4750 3195 4129 
Q 3622 3509 3622 2328 
Q 3622 1225 3098 567 
Q 2575 -91 1691 -91 
Q 1453 -91 1209 -44 
Q 966 3 703 97 
z
M 1959 2075 
Q 2384 2075 2632 2365 
Q 2881 2656 2881 3163 
Q 2881 3666 2632 3958 
Q 2384 4250 1959 4250 
Q 1534 4250 1286 3958 
Q 1038 3666 1038 3163 
Q 1038 2656 1286 2365 
Q 1534 2075 1959 2075 
z
" transform="scale(0.015625)"/>
       </defs>
       <use xlink:href="#DejaVuSans-39"/>
       <use xlink:href="#DejaVuSans-30" x="63.623047"/>
      </g>
     </g>
    </g>
    <g id="text_16">
     <!-- $T_{sto,HT}$ -->
     <g transform="translate(61.275 248.36) rotate(-90) scale(0.2 -0.2)">
      <defs>
       <path id="DejaVuSans-Oblique-54" d="M 378 4666 
L 4325 4666 
L 4225 4134 
L 2559 4134 
L 1759 0 
L 1125 0 
L 1925 4134 
L 275 4134 
L 378 4666 
z
" transform="scale(0.015625)"/>
       <path id="DejaVuSans-Oblique-73" d="M 3200 3397 
L 3091 2853 
Q 2863 2978 2609 3040 
Q 2356 3103 2088 3103 
Q 1634 3103 1373 2948 
Q 1113 2794 1113 2528 
Q 1113 2219 1719 2053 
Q 1766 2041 1788 2034 
L 1972 1978 
Q 2547 1819 2739 1644 
Q 2931 1469 2931 1166 
Q 2931 609 2489 259 
Q 2047 -91 1331 -91 
Q 1053 -91 747 -37 
Q 441 16 72 128 
L 184 722 
Q 500 559 806 475 
Q 1113 391 1394 391 
Q 1816 391 2080 572 
Q 2344 753 2344 1031 
Q 2344 1331 1650 1516 
L 1591 1531 
L 1394 1581 
Q 956 1697 753 1886 
Q 550 2075 550 2369 
Q 550 2928 970 3256 
Q 1391 3584 2113 3584 
Q 2397 3584 2667 3537 
Q 2938 3491 3200 3397 
z
" transform="scale(0.015625)"/>
       <path id="DejaVuSans-Oblique-74" d="M 2706 3500 
L 2619 3053 
L 1472 3053 
L 1100 1153 
Q 1081 1047 1072 975 
Q 1063 903 1063 863 
Q 1063 663 1183 572 
Q 1303 481 1569 481 
L 2150 481 
L 2053 0 
L 1503 0 
Q 991 0 739 200 
Q 488 400 488 806 
Q 488 878 497 964 
Q 506 1050 525 1153 
L 897 3053 
L 409 3053 
L 500 3500 
L 978 3500 
L 1172 4494 
L 1747 4494 
L 1556 3500 
L 2706 3500 
z
" transform="scale(0.015625)"/>
       <path id="DejaVuSans-2c" d="M 750 794 
L 1409 794 
L 1409 256 
L 897 -744 
L 494 -744 
L 750 256 
L 750 794 
z
" transform="scale(0.015625)"/>
       <path id="DejaVuSans-Oblique-48" d="M 1081 4666 
L 1716 4666 
L 1344 2753 
L 3634 2753 
L 4006 4666 
L 4641 4666 
L 3731 0 
L 3097 0 
L 3531 2222 
L 1241 2222 
L 806 0 
L 172 0 
L 1081 4666 
z
" transform="scale(0.015625)"/>
      </defs>
      <use xlink:href="#DejaVuSans-Oblique-54" transform="translate(0 0.09375)"/>
      <use xlink:href="#DejaVuSans-Oblique-73" transform="translate(61.083984 -16.3125) scale(0.7)"/>
      <use xlink:href="#DejaVuSans-Oblique-74" transform="translate(97.553711 -16.3125) scale(0.7)"/>
      <use xlink:href="#DejaVuSans-Oblique-6f" transform="translate(125 -16.3125) scale(0.7)"/>
      <use xlink:href="#DejaVuSans-2c" transform="translate(167.827148 -16.3125) scale(0.7)"/>
      <use xlink:href="#DejaVuSans-Oblique-48" transform="translate(203.71582 -16.3125) scale(0.7)"/>
      <use xlink:href="#DejaVuSans-Oblique-54" transform="translate(256.352539 -16.3125) scale(0.7)"/>
     </g>
    </g>
   </g>
   <g id="QuadContourSet_2">
    <path clip-path="url(#pb34fe81115)" style="fill: none; stroke: #000000; stroke-width: 1.5"/>
    <path clip-path="url(#pb34fe81115)" style="fill: none; stroke: #000000; stroke-width: 1.5"/>
    <path clip-path="url(#pb34fe81115)" style="fill: none; stroke: #000000; stroke-width: 1.5"/>
    <path d="M 477.524181 51.84 
L 473.272727 52.830686 
L 467.636364 54.144088 
L 463.104998 55.2 
L 462 55.45749 
L 456.363636 56.770892 
L 450.727273 58.084293 
L 448.685815 58.56 
L 445.090909 59.397695 
L 439.454545 60.711097 
L 434.266631 61.92 
L 433.818182 62.024499 
L 431.295069 62.612442 
M 402.251192 66.015627 
L 400 66.105809 
L 394.363636 66.331598 
L 388.727273 66.557388 
L 383.090909 66.783178 
L 377.454545 67.008968 
L 371.818182 67.191007 
L 366.181818 67.101353 
L 360.545455 66.951656 
L 354.909091 66.801959 
L 349.272727 66.652263 
L 343.636364 66.295006 
L 340.820143 65.28 
L 340.088421 61.92 
L 339.235836 58.56 
L 339.079838 57.916278 
" clip-path="url(#pb34fe81115)" style="fill: none; stroke: #000000; stroke-width: 1.5"/>
    <path d="M 462 99.939779 
L 456.363636 100.810866 
L 450.727273 101.603152 
L 446.251959 102.24 
L 445.090909 102.405019 
L 439.454545 103.184217 
L 433.818182 103.930788 
L 428.181818 104.653536 
L 422.545455 105.35587 
L 420.536157 105.6 
L 416.909091 106.040689 
L 411.272727 107.268603 
L 408.650868 107.879557 
M 380.076405 114.538061 
L 377.454545 115.149014 
L 375.175862 115.68 
L 371.818182 116.462416 
L 366.181818 117.775818 
L 360.545455 118.729602 
L 354.909091 118.955392 
L 352.797033 119.04 
L 349.272727 119.181182 
L 343.636364 119.406972 
L 338 119.632761 
L 332.363636 119.858551 
L 326.727273 120.084341 
L 321.090909 120.185626 
L 315.454545 120.040207 
L 309.818182 119.890511 
L 304.181818 119.740814 
L 298.545455 119.591117 
L 292.909091 119.44142 
L 287.272727 119.291723 
L 285.049227 119.04 
L 281.636364 118.622183 
L 276 117.861238 
L 270.363636 117.100294 
L 264.727273 116.339349 
L 259.843432 115.68 
L 259.090909 115.578405 
L 253.454545 114.796492 
L 247.818182 113.241248 
L 244.822959 112.32 
L 242.181818 111.507658 
L 236.545455 109.774069 
L 233.8987 108.96 
L 230.909091 106.487078 
L 230.428098 105.6 
L 229.872035 102.24 
L 229.607417 99.655965 
" clip-path="url(#pb34fe81115)" style="fill: none; stroke: #000000; stroke-width: 1.5"/>
    <path d="M 383.090909 157.343433 
L 377.454545 158.198552 
L 371.818182 158.993464 
L 369.204286 159.36 
L 366.181818 159.785797 
L 360.545455 160.531121 
L 354.909091 161.247431 
L 349.272727 161.988491 
L 345.410283 162.72 
L 343.636364 163.035256 
L 338 164.333324 
L 332.363636 165.646726 
L 330.504275 166.08 
L 326.727273 166.960128 
L 321.090909 168.27353 
L 316.085092 169.44 
L 316.080907 169.440975 
M 280.739736 172.969843 
L 276 173.159714 
L 270.363636 173.128758 
L 264.727273 172.979062 
L 259.090909 172.829365 
L 257.985272 172.8 
L 253.454545 172.679668 
L 247.818182 172.528429 
L 242.181818 171.999874 
L 236.545455 171.238929 
L 230.909091 170.477984 
L 225.272727 169.71704 
L 223.220677 169.44 
L 219.636364 168.927908 
L 214 167.301499 
L 210.028579 166.08 
L 208.363636 165.56791 
L 202.727273 163.83432 
L 199.10432 162.72 
L 197.090909 162.10073 
L 191.454545 159.652056 
L 190.942503 159.36 
L 185.818182 156.437214 
L 185.051645 156 
L 180.181818 153.222371 
L 179.160786 152.64 
L 174.545455 150.007529 
L 173.37503 149.28 
L 169.182709 145.92 
L 168.909091 145.647067 
L 167.083957 142.56 
L 165.097461 139.2 
L 163.272727 136.113609 
L 163.110964 135.84 
L 162.685993 132.829769 
" clip-path="url(#pb34fe81115)" style="fill: none; stroke: #000000; stroke-width: 1.5"/>
    <path d="M 300.506807 215.310781 
L 298.545455 215.587712 
L 292.909091 216.386452 
L 292.198943 216.48 
L 287.272727 217.131763 
L 281.636364 217.838769 
L 276 218.771242 
L 271.413505 219.84 
L 270.363636 220.084644 
L 264.727273 221.398045 
L 259.090909 222.711447 
L 256.994322 223.2 
L 253.454545 224.024849 
L 247.818182 225.140558 
L 242.181818 225.557718 
L 236.545455 225.783508 
L 231.811626 225.973143 
M 196.254234 224.503663 
L 191.454545 223.855675 
L 186.597922 223.2 
L 185.818182 223.084781 
L 180.181818 221.361751 
L 175.2342 219.84 
L 174.545455 219.628161 
L 168.909091 217.894571 
L 166.029941 216.48 
L 163.272727 214.979497 
L 160.012598 213.12 
L 157.636364 211.764655 
L 154.121739 209.76 
L 152 208.549812 
L 150.079578 206.4 
L 147.627349 203.04 
L 146.363636 200.956093 
L 145.609186 199.68 
L 143.578646 196.32 
L 141.354081 192.96 
L 140.727273 192.062628 
L 135.090909 190.387323 
L 134.283271 189.6 
L 131.661309 186.24 
L 129.890851 182.88 
L 129.454545 181.84186 
L 128.468913 179.52 
L 126.889503 176.16 
L 125.096019 172.8 
L 123.818182 170.654983 
L 123.077906 169.44 
L 121.106235 166.08 
L 119.039912 162.72 
L 118.826026 162.335969 
" clip-path="url(#pb34fe81115)" style="fill: none; stroke: #000000; stroke-width: 1.5"/>
    <path d="M 221.010921 272.780587 
L 219.636364 272.970932 
L 214.973404 273.6 
L 214 273.732238 
L 208.363636 274.61749 
L 202.727273 275.835963 
L 197.903553 276.96 
L 197.090909 277.149365 
L 191.454545 278.350231 
L 185.818182 278.858881 
L 180.181818 279.084671 
L 174.545455 279.156164 
L 168.909091 279.006467 
L 163.272727 278.745914 
L 157.912068 278.031075 
M 127.293569 262.312036 
L 125.898068 260.16 
L 123.818182 257.20234 
L 123.154693 256.8 
L 118.592843 253.44 
L 118.181818 253.030142 
L 116.861821 250.08 
L 115.180969 246.72 
L 113.274635 243.36 
L 112.545455 242.18385 
L 110.821749 240 
L 108.64112 236.64 
L 106.909091 233.331724 
L 106.88923 233.28 
L 105.483944 229.92 
L 103.848798 226.56 
L 102.179128 223.2 
L 101.272727 221.405216 
L 100.69271 219.84 
L 99.408384 216.48 
L 98.021951 213.12 
L 96.505395 209.76 
L 95.636364 207.908852 
" clip-path="url(#pb34fe81115)" style="fill: none; stroke: #000000; stroke-width: 1.5"/>
    <path d="M 141.556283 330.225803 
L 140.727273 330.379456 
L 139.178407 330.72 
L 135.090909 331.587282 
L 129.454545 332.156374 
L 127.656575 332.123641 
M 100.89537 312.953362 
L 98.400769 310.56 
L 95.636364 308.024909 
" clip-path="url(#pb34fe81115)" style="fill: none; stroke: #000000; stroke-width: 1.5"/>
    <path clip-path="url(#pb34fe81115)" style="fill: none; stroke: #000000; stroke-width: 1.5"/>
    <path clip-path="url(#pb34fe81115)" style="fill: none; stroke: #000000; stroke-width: 1.5"/>
   </g>
   <g id="patch_3">
    <path d="M 90 384.48 
L 90 51.84 
" style="fill: none; stroke: #000000; stroke-width: 0.8; stroke-linejoin: miter; stroke-linecap: square"/>
   </g>
   <g id="patch_4">
    <path d="M 648 384.48 
L 648 51.84 
" style="fill: none; stroke: #000000; stroke-width: 0.8; stroke-linejoin: miter; stroke-linecap: square"/>
   </g>
   <g id="patch_5">
    <path d="M 90 384.48 
L 648 384.48 
" style="fill: none; stroke: #000000; stroke-width: 0.8; stroke-linejoin: miter; stroke-linecap: square"/>
   </g>
   <g id="patch_6">
    <path d="M 90 51.84 
L 648 51.84 
" style="fill: none; stroke: #000000; stroke-width: 0.8; stroke-linejoin: miter; stroke-linecap: square"/>
   </g>
   <g id="text_17">
    <g clip-path="url(#pb34fe81115)">
     <!-- 6.00 -->
     <g transform="translate(406.15023 69.394971) rotate(-6.35661) scale(0.1 -0.1)">
      <defs>
       <path id="DejaVuSans-2e" d="M 684 794 
L 1344 794 
L 1344 0 
L 684 0 
L 684 794 
z
" transform="scale(0.015625)"/>
      </defs>
      <use xlink:href="#DejaVuSans-36"/>
      <use xlink:href="#DejaVuSans-2e" x="63.623047"/>
      <use xlink:href="#DejaVuSans-30" x="95.410156"/>
      <use xlink:href="#DejaVuSans-30" x="159.033203"/>
     </g>
    </g>
   </g>
   <g id="text_18">
    <g clip-path="url(#pb34fe81115)">
     <!-- 8.00 -->
     <g transform="translate(384.147521 116.422699) rotate(-13.117154) scale(0.1 -0.1)">
      <use xlink:href="#DejaVuSans-38"/>
      <use xlink:href="#DejaVuSans-2e" x="63.623047"/>
      <use xlink:href="#DejaVuSans-30" x="95.410156"/>
      <use xlink:href="#DejaVuSans-30" x="159.033203"/>
     </g>
    </g>
   </g>
   <g id="text_19">
    <g clip-path="url(#pb34fe81115)">
     <!-- 10.00 -->
     <g transform="translate(284.540096 176.300869) rotate(-5.195808) scale(0.1 -0.1)">
      <use xlink:href="#DejaVuSans-31"/>
      <use xlink:href="#DejaVuSans-30" x="63.623047"/>
      <use xlink:href="#DejaVuSans-2e" x="127.246094"/>
      <use xlink:href="#DejaVuSans-30" x="159.033203"/>
      <use xlink:href="#DejaVuSans-30" x="222.65625"/>
     </g>
    </g>
   </g>
   <g id="text_20">
    <g clip-path="url(#pb34fe81115)">
     <!-- 12.00 -->
     <g transform="translate(199.588126 228.109813) rotate(-357.736549) scale(0.1 -0.1)">
      <use xlink:href="#DejaVuSans-31"/>
      <use xlink:href="#DejaVuSans-32" x="63.623047"/>
      <use xlink:href="#DejaVuSans-2e" x="127.246094"/>
      <use xlink:href="#DejaVuSans-30" x="159.033203"/>
      <use xlink:href="#DejaVuSans-30" x="222.65625"/>
     </g>
    </g>
   </g>
   <g id="text_21">
    <g clip-path="url(#pb34fe81115)">
     <!-- 14.00 -->
     <g transform="translate(126.635267 269.790571) rotate(-334.258551) scale(0.1 -0.1)">
      <use xlink:href="#DejaVuSans-31"/>
      <use xlink:href="#DejaVuSans-34" x="63.623047"/>
      <use xlink:href="#DejaVuSans-2e" x="127.246094"/>
      <use xlink:href="#DejaVuSans-30" x="159.033203"/>
      <use xlink:href="#DejaVuSans-30" x="222.65625"/>
     </g>
    </g>
   </g>
   <g id="text_22">
    <g clip-path="url(#pb34fe81115)">
     <!-- 16.00 -->
     <g transform="translate(97.821867 320.926182) rotate(-322.898711) scale(0.1 -0.1)">
      <use xlink:href="#DejaVuSans-31"/>
      <use xlink:href="#DejaVuSans-36" x="63.623047"/>
      <use xlink:href="#DejaVuSans-2e" x="127.246094"/>
      <use xlink:href="#DejaVuSans-30" x="159.033203"/>
      <use xlink:href="#DejaVuSans-30" x="222.65625"/>
     </g>
    </g>
   </g>
  </g>
 </g>
 <defs>
  <clipPath id="pb34fe81115">
   <rect x="90" y="51.84" width="558" height="332.64"/>
  </clipPath>
 </defs>
</svg>
