<?xml version="1.0" encoding="utf-8" standalone="no"?>
<!DOCTYPE svg PUBLIC "-//W3C//DTD SVG 1.1//EN"
  "http://www.w3.org/Graphics/SVG/1.1/DTD/svg11.dtd">
<svg xmlns:xlink="http://www.w3.org/1999/xlink" width="720pt" height="432pt" viewBox="0 0 720 432" xmlns="http://www.w3.org/2000/svg" version="1.1">
 <metadata>
  <rdf:RDF xmlns:dc="http://purl.org/dc/elements/1.1/" xmlns:cc="http://creativecommons.org/ns#" xmlns:rdf="http://www.w3.org/1999/02/22-rdf-syntax-ns#">
   <cc:Work>
    <dc:type rdf:resource="http://purl.org/dc/dcmitype/StillImage"/>
    <dc:date>2024-06-14T15:13:12.947555</dc:date>
    <dc:format>image/svg+xml</dc:format>
    <dc:creator>
     <cc:Agent>
      <dc:title>Matplotlib v3.8.3, https://matplotlib.org/</dc:title>
     </cc:Agent>
    </dc:creator>
   </cc:Work>
  </rdf:RDF>
 </metadata>
 <defs>
  <style type="text/css">*{stroke-linejoin: round; stroke-linecap: butt}</style>
 </defs>
 <g id="figure_1">
  <g id="patch_1">
   <path d="M 0 432 
L 720 432 
L 720 0 
L 0 0 
z
" style="fill: #ffffff"/>
  </g>
  <g id="axes_1">
   <g id="patch_2">
    <path d="M 90 384.48 
L 648 384.48 
L 648 51.84 
L 90 51.84 
z
" style="fill: #ffffff"/>
   </g>
   <g id="QuadContourSet_1">
    <path d="M 95.636364 384.48 
L 101.272727 384.48 
L 106.909091 384.48 
L 112.545455 384.48 
L 118.181818 384.48 
L 123.818182 384.48 
L 129.454545 384.48 
L 135.090909 384.48 
L 140.727273 384.48 
L 146.363636 384.48 
L 152 384.48 
L 157.636364 384.48 
L 163.272727 384.48 
L 168.909091 384.48 
L 174.545455 384.48 
L 180.181818 384.48 
L 185.818182 384.48 
L 191.454545 384.48 
L 197.090909 384.48 
L 202.727273 384.48 
L 208.363636 384.48 
L 214 384.48 
L 219.636364 384.48 
L 225.272727 384.48 
L 230.909091 384.48 
L 236.545455 384.48 
L 242.181818 384.48 
L 247.818182 384.48 
L 253.454545 384.48 
L 259.090909 384.48 
L 264.727273 384.48 
L 270.363636 384.48 
L 276 384.48 
L 281.636364 384.48 
L 287.272727 384.48 
L 292.909091 384.48 
L 298.545455 384.48 
L 304.181818 384.48 
L 309.818182 384.48 
L 315.454545 384.48 
L 321.090909 384.48 
L 326.727273 384.48 
L 332.363636 381.12 
L 338 381.12 
L 343.636364 381.12 
L 349.272727 377.76 
L 354.909091 377.76 
L 360.545455 377.76 
L 366.181818 374.4 
L 371.818182 374.4 
L 377.454545 374.4 
L 383.090909 371.04 
L 388.727273 371.04 
L 394.363636 371.04 
L 400 367.68 
L 405.636364 367.68 
L 411.272727 367.68 
L 416.909091 364.32 
L 422.545455 364.32 
L 428.181818 364.32 
L 433.818182 360.96 
L 439.454545 360.96 
L 445.090909 360.96 
L 450.727273 357.6 
L 456.363636 357.6 
L 462 357.6 
L 467.636364 354.24 
L 473.272727 354.24 
L 478.909091 354.24 
L 484.545455 350.88 
L 490.181818 350.88 
L 495.818182 350.88 
L 501.454545 347.52 
L 507.090909 347.52 
L 512.727273 347.52 
L 518.363636 344.16 
L 524 344.16 
L 529.636364 344.16 
L 535.272727 340.8 
L 540.909091 340.8 
L 546.545455 340.8 
L 552.181818 337.44 
L 557.818182 337.44 
L 563.454545 337.44 
L 569.090909 334.08 
L 574.727273 330.72 
L 580.363636 327.36 
L 586 324 
L 591.636364 320.64 
L 597.272727 317.28 
L 602.909091 313.92 
L 608.545455 310.56 
L 614.181818 307.2 
L 619.818182 303.84 
L 625.454545 300.48 
L 631.090909 297.12 
L 636.727273 293.76 
L 642.363636 290.4 
L 648 287.04 
L 648 283.68 
L 648 280.32 
L 648 276.96 
L 648 273.6 
L 648 270.24 
L 648 269.25677 
L 642.994407 270.24 
L 642.363636 270.3639 
L 636.727273 271.471029 
L 631.090909 272.578159 
L 625.888748 273.6 
L 625.454545 273.683626 
L 619.818182 274.652347 
L 614.181818 275.468772 
L 608.545455 276.285197 
L 603.886808 276.96 
L 602.909091 277.101622 
L 597.272727 277.918047 
L 591.636364 278.734472 
L 586 279.550897 
L 580.690334 280.32 
L 580.363636 280.367322 
L 574.727273 281.183747 
L 569.090909 282.000172 
L 563.454545 282.897541 
L 558.612716 283.68 
L 557.818182 283.8084 
L 552.181818 284.719259 
L 546.545455 285.630118 
L 540.909091 286.540978 
L 537.821159 287.04 
L 535.272727 287.470588 
L 529.636364 288.422919 
L 524 289.37525 
L 518.363636 290.327581 
L 517.935026 290.4 
L 512.727273 291.392934 
L 507.090909 292.467589 
L 501.454545 293.542244 
L 500.312454 293.76 
L 495.818182 294.596372 
L 490.181818 295.564797 
L 484.545455 296.529514 
L 481.090228 297.12 
L 478.909091 297.492749 
L 473.272727 298.47677 
L 467.636364 299.478336 
L 462.100744 300.48 
L 462 300.49823 
L 456.363636 301.518124 
L 450.727273 302.538018 
L 445.090909 303.557912 
L 443.531969 303.84 
L 439.454545 304.577806 
L 433.818182 305.597699 
L 428.181818 306.617593 
L 424.963194 307.2 
L 422.545455 307.637487 
L 416.909091 308.657381 
L 411.272727 309.677275 
L 406.584437 310.56 
L 405.636364 310.738506 
L 400 311.830739 
L 394.363636 312.922972 
L 389.218568 313.92 
L 388.727273 314.015205 
L 383.090909 315.107438 
L 377.454545 316.199671 
L 371.818182 317.18851 
L 371.254297 317.28 
L 366.181818 318.093038 
L 360.545455 318.996458 
L 354.909091 319.899878 
L 350.291532 320.64 
L 349.272727 320.803298 
L 343.636364 321.706718 
L 338 322.610138 
L 332.363636 323.513558 
L 329.175313 324 
L 326.727273 324.373497 
L 321.090909 325.17546 
L 315.454545 325.977423 
L 309.818182 326.779386 
L 305.737504 327.36 
L 304.181818 327.581349 
L 298.545455 328.383312 
L 292.909091 329.185275 
L 287.272727 329.987238 
L 282.12272 330.72 
L 281.636364 330.789201 
L 276 331.591164 
L 270.363636 332.393127 
L 264.727273 333.19509 
L 259.090909 333.997364 
L 258.517013 334.08 
L 253.454545 334.818594 
L 247.818182 335.663659 
L 242.181818 336.463613 
L 236.545455 337.263566 
L 235.302321 337.44 
L 230.909091 338.133356 
L 225.272727 339.022908 
L 219.636364 339.91246 
L 214.012745 340.8 
L 214 340.802012 
L 208.363636 341.691563 
L 202.727273 342.581115 
L 197.090909 343.470667 
L 192.72317 344.16 
L 191.454545 344.360219 
L 185.818182 345.24888 
L 180.181818 346.130933 
L 174.545455 347.008354 
L 171.092869 347.52 
L 168.909091 347.843619 
L 163.272727 348.425938 
L 157.636364 349.008257 
L 152 349.590577 
L 146.363636 350.161821 
L 140.727273 350.700636 
L 138.851003 350.88 
L 135.090909 351.23945 
L 129.454545 351.778265 
L 123.818182 352.317079 
L 118.181818 352.855894 
L 112.545455 353.394708 
L 106.909091 353.933522 
L 103.703128 354.24 
L 101.272727 354.472337 
L 95.636364 355.011151 
L 90 355.549966 
L 90 357.6 
L 90 360.96 
L 90 364.32 
L 90 367.68 
L 90 371.04 
L 90 374.4 
L 90 377.76 
L 90 381.12 
L 90 384.48 
z
" clip-path="url(#p2bac6c5e08)" style="fill: #481668"/>
    <path d="M 95.636364 355.011151 
L 101.272727 354.472337 
L 103.703128 354.24 
L 106.909091 353.933522 
L 112.545455 353.394708 
L 118.181818 352.855894 
L 123.818182 352.317079 
L 129.454545 351.778265 
L 135.090909 351.23945 
L 138.851003 350.88 
L 140.727273 350.700636 
L 146.363636 350.161821 
L 152 349.590577 
L 157.636364 349.008257 
L 163.272727 348.425938 
L 168.909091 347.843619 
L 171.092869 347.52 
L 174.545455 347.008354 
L 180.181818 346.130933 
L 185.818182 345.24888 
L 191.454545 344.360219 
L 192.72317 344.16 
L 197.090909 343.470667 
L 202.727273 342.581115 
L 208.363636 341.691563 
L 214 340.802012 
L 214.012745 340.8 
L 219.636364 339.91246 
L 225.272727 339.022908 
L 230.909091 338.133356 
L 235.302321 337.44 
L 236.545455 337.263566 
L 242.181818 336.463613 
L 247.818182 335.663659 
L 253.454545 334.818594 
L 258.517013 334.08 
L 259.090909 333.997364 
L 264.727273 333.19509 
L 270.363636 332.393127 
L 276 331.591164 
L 281.636364 330.789201 
L 282.12272 330.72 
L 287.272727 329.987238 
L 292.909091 329.185275 
L 298.545455 328.383312 
L 304.181818 327.581349 
L 305.737504 327.36 
L 309.818182 326.779386 
L 315.454545 325.977423 
L 321.090909 325.17546 
L 326.727273 324.373497 
L 329.175313 324 
L 332.363636 323.513558 
L 338 322.610138 
L 343.636364 321.706718 
L 349.272727 320.803298 
L 350.291532 320.64 
L 354.909091 319.899878 
L 360.545455 318.996458 
L 366.181818 318.093038 
L 371.254297 317.28 
L 371.818182 317.18851 
L 377.454545 316.199671 
L 383.090909 315.107438 
L 388.727273 314.015205 
L 389.218568 313.92 
L 394.363636 312.922972 
L 400 311.830739 
L 405.636364 310.738506 
L 406.584437 310.56 
L 411.272727 309.677275 
L 416.909091 308.657381 
L 422.545455 307.637487 
L 424.963194 307.2 
L 428.181818 306.617593 
L 433.818182 305.597699 
L 439.454545 304.577806 
L 443.531969 303.84 
L 445.090909 303.557912 
L 450.727273 302.538018 
L 456.363636 301.518124 
L 462 300.49823 
L 462.100744 300.48 
L 467.636364 299.478336 
L 473.272727 298.47677 
L 478.909091 297.492749 
L 481.090228 297.12 
L 484.545455 296.529514 
L 490.181818 295.564797 
L 495.818182 294.596372 
L 500.312454 293.76 
L 501.454545 293.542244 
L 507.090909 292.467589 
L 512.727273 291.392934 
L 517.935026 290.4 
L 518.363636 290.327581 
L 524 289.37525 
L 529.636364 288.422919 
L 535.272727 287.470588 
L 537.821159 287.04 
L 540.909091 286.540978 
L 546.545455 285.630118 
L 552.181818 284.719259 
L 557.818182 283.8084 
L 558.612716 283.68 
L 563.454545 282.897541 
L 569.090909 282.000172 
L 574.727273 281.183747 
L 580.363636 280.367322 
L 580.690334 280.32 
L 586 279.550897 
L 591.636364 278.734472 
L 597.272727 277.918047 
L 602.909091 277.101622 
L 603.886808 276.96 
L 608.545455 276.285197 
L 614.181818 275.468772 
L 619.818182 274.652347 
L 625.454545 273.683626 
L 625.888748 273.6 
L 631.090909 272.578159 
L 636.727273 271.471029 
L 642.363636 270.3639 
L 642.994407 270.24 
L 648 269.25677 
L 648 266.88 
L 648 263.52 
L 648 260.16 
L 648 256.8 
L 648 253.44 
L 648 250.08 
L 648 246.72 
L 648 243.36 
L 648 240 
L 648 236.64 
L 648 233.28 
L 648 229.92 
L 648 226.56 
L 648 223.2 
L 648 219.84 
L 648 216.48 
L 648 213.12 
L 648 210.717775 
L 642.363636 211.723619 
L 636.727273 212.729464 
L 634.53886 213.12 
L 631.090909 213.735309 
L 625.454545 214.741153 
L 619.818182 215.746998 
L 615.710721 216.48 
L 614.181818 216.752842 
L 608.545455 217.804261 
L 602.909091 218.889407 
L 598.136822 219.84 
L 597.272727 220.01212 
L 591.636364 221.134832 
L 586 222.257545 
L 581.268582 223.2 
L 580.363636 223.380257 
L 574.727273 224.502969 
L 569.090909 225.625682 
L 563.615025 226.56 
L 563.454545 226.587382 
L 557.818182 227.522246 
L 552.181818 228.457111 
L 546.545455 229.361769 
L 542.609802 229.92 
L 540.909091 230.154963 
L 535.272727 230.933657 
L 529.636364 231.712352 
L 524 232.491047 
L 518.363636 233.269741 
L 518.289383 233.28 
L 512.727273 234.048436 
L 507.090909 234.827131 
L 501.454545 235.605826 
L 495.818182 236.38452 
L 493.968964 236.64 
L 490.181818 237.163215 
L 484.545455 238.001253 
L 478.909091 238.863029 
L 473.272727 239.724805 
L 471.472839 240 
L 467.636364 240.618262 
L 462 241.526581 
L 456.363636 242.434901 
L 450.727273 243.343221 
L 450.623153 243.36 
L 445.090909 244.320725 
L 439.454545 245.299531 
L 433.818182 246.278337 
L 431.274907 246.72 
L 428.181818 247.257143 
L 422.545455 248.235949 
L 416.909091 249.169614 
L 411.272727 250.069912 
L 411.212032 250.08 
L 405.636364 251.0067 
L 400 251.970854 
L 394.363636 252.936236 
L 391.43637 253.44 
L 388.727273 253.906218 
L 383.090909 254.903872 
L 377.454545 255.908232 
L 372.450034 256.8 
L 371.818182 256.912592 
L 366.181818 257.916951 
L 360.545455 258.921311 
L 354.909091 259.925671 
L 353.594062 260.16 
L 349.272727 260.930031 
L 343.636364 261.934391 
L 338 262.938751 
L 334.738089 263.52 
L 332.363636 263.943111 
L 326.727273 264.880079 
L 321.090909 265.727193 
L 315.454545 266.574306 
L 313.420579 266.88 
L 309.818182 267.42142 
L 304.181818 268.268534 
L 298.545455 269.115647 
L 292.909091 269.93691 
L 290.775184 270.24 
L 287.272727 270.73581 
L 281.636364 271.533697 
L 276 272.331584 
L 270.363636 273.129471 
L 267.039769 273.6 
L 264.727273 273.927358 
L 259.090909 274.725246 
L 253.454545 275.523133 
L 247.818182 276.316744 
L 243.187298 276.96 
L 242.181818 277.099667 
L 236.545455 277.88259 
L 230.909091 278.665512 
L 225.272727 279.448435 
L 219.636364 280.231358 
L 218.998216 280.32 
L 214 281.01428 
L 208.363636 281.797203 
L 202.727273 282.580126 
L 197.090909 283.363048 
L 194.809133 283.68 
L 191.454545 284.145971 
L 185.818182 284.928894 
L 180.181818 285.711817 
L 174.545455 286.514391 
L 170.728775 287.04 
L 168.909091 287.298105 
L 163.272727 287.57559 
L 157.636364 287.928714 
L 152 288.281838 
L 146.363636 288.634962 
L 140.727273 288.988085 
L 135.090909 289.341209 
L 129.454545 289.694333 
L 123.818182 290.047457 
L 118.19109 290.4 
L 118.181818 290.400609 
L 112.545455 290.771096 
L 106.909091 291.141582 
L 101.272727 291.512069 
L 95.636364 291.894136 
L 90 292.331481 
L 90 293.76 
L 90 297.12 
L 90 300.48 
L 90 303.84 
L 90 307.2 
L 90 310.56 
L 90 313.92 
L 90 317.28 
L 90 320.64 
L 90 324 
L 90 327.36 
L 90 330.72 
L 90 334.08 
L 90 337.44 
L 90 340.8 
L 90 344.16 
L 90 347.52 
L 90 350.88 
L 90 354.24 
L 90 355.549966 
z
" clip-path="url(#p2bac6c5e08)" style="fill: #443983"/>
    <path d="M 95.636364 291.894136 
L 101.272727 291.512069 
L 106.909091 291.141582 
L 112.545455 290.771096 
L 118.181818 290.400609 
L 118.19109 290.4 
L 123.818182 290.047457 
L 129.454545 289.694333 
L 135.090909 289.341209 
L 140.727273 288.988085 
L 146.363636 288.634962 
L 152 288.281838 
L 157.636364 287.928714 
L 163.272727 287.57559 
L 168.909091 287.298105 
L 170.728775 287.04 
L 174.545455 286.514391 
L 180.181818 285.711817 
L 185.818182 284.928894 
L 191.454545 284.145971 
L 194.809133 283.68 
L 197.090909 283.363048 
L 202.727273 282.580126 
L 208.363636 281.797203 
L 214 281.01428 
L 218.998216 280.32 
L 219.636364 280.231358 
L 225.272727 279.448435 
L 230.909091 278.665512 
L 236.545455 277.88259 
L 242.181818 277.099667 
L 243.187298 276.96 
L 247.818182 276.316744 
L 253.454545 275.523133 
L 259.090909 274.725246 
L 264.727273 273.927358 
L 267.039769 273.6 
L 270.363636 273.129471 
L 276 272.331584 
L 281.636364 271.533697 
L 287.272727 270.73581 
L 290.775184 270.24 
L 292.909091 269.93691 
L 298.545455 269.115647 
L 304.181818 268.268534 
L 309.818182 267.42142 
L 313.420579 266.88 
L 315.454545 266.574306 
L 321.090909 265.727193 
L 326.727273 264.880079 
L 332.363636 263.943111 
L 334.738089 263.52 
L 338 262.938751 
L 343.636364 261.934391 
L 349.272727 260.930031 
L 353.594062 260.16 
L 354.909091 259.925671 
L 360.545455 258.921311 
L 366.181818 257.916951 
L 371.818182 256.912592 
L 372.450034 256.8 
L 377.454545 255.908232 
L 383.090909 254.903872 
L 388.727273 253.906218 
L 391.43637 253.44 
L 394.363636 252.936236 
L 400 251.970854 
L 405.636364 251.0067 
L 411.212032 250.08 
L 411.272727 250.069912 
L 416.909091 249.169614 
L 422.545455 248.235949 
L 428.181818 247.257143 
L 431.274907 246.72 
L 433.818182 246.278337 
L 439.454545 245.299531 
L 445.090909 244.320725 
L 450.623153 243.36 
L 450.727273 243.343221 
L 456.363636 242.434901 
L 462 241.526581 
L 467.636364 240.618262 
L 471.472839 240 
L 473.272727 239.724805 
L 478.909091 238.863029 
L 484.545455 238.001253 
L 490.181818 237.163215 
L 493.968964 236.64 
L 495.818182 236.38452 
L 501.454545 235.605826 
L 507.090909 234.827131 
L 512.727273 234.048436 
L 518.289383 233.28 
L 518.363636 233.269741 
L 524 232.491047 
L 529.636364 231.712352 
L 535.272727 230.933657 
L 540.909091 230.154963 
L 542.609802 229.92 
L 546.545455 229.361769 
L 552.181818 228.457111 
L 557.818182 227.522246 
L 563.454545 226.587382 
L 563.615025 226.56 
L 569.090909 225.625682 
L 574.727273 224.502969 
L 580.363636 223.380257 
L 581.268582 223.2 
L 586 222.257545 
L 591.636364 221.134832 
L 597.272727 220.01212 
L 598.136822 219.84 
L 602.909091 218.889407 
L 608.545455 217.804261 
L 614.181818 216.752842 
L 615.710721 216.48 
L 619.818182 215.746998 
L 625.454545 214.741153 
L 631.090909 213.735309 
L 634.53886 213.12 
L 636.727273 212.729464 
L 642.363636 211.723619 
L 648 210.717775 
L 648 209.76 
L 648 206.4 
L 648 203.04 
L 648 199.68 
L 648 196.32 
L 648 192.96 
L 648 189.6 
L 648 186.24 
L 648 182.88 
L 648 179.52 
L 648 176.16 
L 648 172.8 
L 648 169.44 
L 648 166.08 
L 648 162.72 
L 648 161.366359 
L 642.363636 162.348842 
L 640.23436 162.72 
L 636.727273 163.331326 
L 631.090909 164.31381 
L 625.454545 165.296294 
L 620.958539 166.08 
L 619.818182 166.278777 
L 614.181818 167.235436 
L 608.545455 168.151557 
L 602.909091 169.032393 
L 600.300859 169.44 
L 597.272727 169.913228 
L 591.636364 170.794064 
L 586 171.6749 
L 580.363636 172.555736 
L 578.800618 172.8 
L 574.727273 173.436571 
L 569.090909 174.317407 
L 563.454545 175.294616 
L 558.543885 176.16 
L 557.818182 176.287887 
L 552.181818 177.281159 
L 546.545455 178.27443 
L 540.909091 179.213105 
L 538.845143 179.52 
L 535.272727 180.039036 
L 529.636364 180.857942 
L 524 181.676849 
L 518.363636 182.495755 
L 515.718959 182.88 
L 512.727273 183.314662 
L 507.090909 184.133568 
L 501.454545 184.952475 
L 495.818182 185.771381 
L 492.592775 186.24 
L 490.181818 186.590288 
L 484.545455 187.407905 
L 478.909091 188.225006 
L 473.272727 189.042107 
L 469.424386 189.6 
L 467.636364 189.859209 
L 462 190.67631 
L 456.363636 191.493412 
L 450.727273 192.310513 
L 446.247114 192.96 
L 445.090909 193.135743 
L 439.454545 193.992472 
L 433.818182 194.8492 
L 428.181818 195.705928 
L 424.141877 196.32 
L 422.545455 196.571816 
L 416.909091 197.460882 
L 411.272727 198.349948 
L 405.636364 199.248653 
L 402.952695 199.68 
L 400 200.154588 
L 394.363636 201.087773 
L 388.727273 202.027493 
L 383.090909 202.967212 
L 382.654332 203.04 
L 377.454545 203.906931 
L 371.818182 204.846651 
L 366.181818 205.78637 
L 362.501312 206.4 
L 360.545455 206.726089 
L 354.909091 207.665809 
L 349.272727 208.605528 
L 343.636364 209.545247 
L 342.348293 209.76 
L 338 210.484966 
L 332.363636 211.424686 
L 326.727273 212.295266 
L 321.090909 213.073662 
L 320.755377 213.12 
L 315.454545 213.852058 
L 309.818182 214.630454 
L 304.181818 215.408849 
L 298.545455 216.187245 
L 296.425617 216.48 
L 292.909091 216.965641 
L 287.272727 217.736085 
L 281.636364 218.486342 
L 276 219.234396 
L 271.436954 219.84 
L 270.363636 219.98245 
L 264.727273 220.730504 
L 259.090909 221.478558 
L 253.454545 222.226611 
L 247.818182 223.009031 
L 246.578599 223.2 
L 242.181818 223.877365 
L 236.545455 224.745698 
L 230.909091 225.614032 
L 225.272727 226.482366 
L 224.75262 226.56 
L 219.636364 227.315183 
L 214 228.13645 
L 208.363636 228.957716 
L 202.727273 229.778983 
L 201.759472 229.92 
L 197.090909 230.60025 
L 191.454545 231.421517 
L 185.818182 232.242783 
L 180.181818 233.06405 
L 178.699753 233.28 
L 174.545455 233.885317 
L 168.909091 234.615291 
L 163.272727 234.797505 
L 157.636364 234.97972 
L 152 235.161934 
L 146.363636 235.344149 
L 140.727273 235.526363 
L 135.090909 235.708578 
L 129.454545 235.890792 
L 123.818182 236.073007 
L 118.181818 236.255222 
L 112.545455 236.437436 
L 106.909091 236.619651 
L 106.279631 236.64 
L 101.272727 236.801865 
L 95.636364 236.945115 
L 90 237.057763 
L 90 240 
L 90 243.36 
L 90 246.72 
L 90 250.08 
L 90 253.44 
L 90 256.8 
L 90 260.16 
L 90 263.52 
L 90 266.88 
L 90 270.24 
L 90 273.6 
L 90 276.96 
L 90 280.32 
L 90 283.68 
L 90 287.04 
L 90 290.4 
L 90 292.331481 
z
" clip-path="url(#p2bac6c5e08)" style="fill: #375a8c"/>
    <path d="M 95.636364 236.945115 
L 101.272727 236.801865 
L 106.279631 236.64 
L 106.909091 236.619651 
L 112.545455 236.437436 
L 118.181818 236.255222 
L 123.818182 236.073007 
L 129.454545 235.890792 
L 135.090909 235.708578 
L 140.727273 235.526363 
L 146.363636 235.344149 
L 152 235.161934 
L 157.636364 234.97972 
L 163.272727 234.797505 
L 168.909091 234.615291 
L 174.545455 233.885317 
L 178.699753 233.28 
L 180.181818 233.06405 
L 185.818182 232.242783 
L 191.454545 231.421517 
L 197.090909 230.60025 
L 201.759472 229.92 
L 202.727273 229.778983 
L 208.363636 228.957716 
L 214 228.13645 
L 219.636364 227.315183 
L 224.75262 226.56 
L 225.272727 226.482366 
L 230.909091 225.614032 
L 236.545455 224.745698 
L 242.181818 223.877365 
L 246.578599 223.2 
L 247.818182 223.009031 
L 253.454545 222.226611 
L 259.090909 221.478558 
L 264.727273 220.730504 
L 270.363636 219.98245 
L 271.436954 219.84 
L 276 219.234396 
L 281.636364 218.486342 
L 287.272727 217.736085 
L 292.909091 216.965641 
L 296.425617 216.48 
L 298.545455 216.187245 
L 304.181818 215.408849 
L 309.818182 214.630454 
L 315.454545 213.852058 
L 320.755377 213.12 
L 321.090909 213.073662 
L 326.727273 212.295266 
L 332.363636 211.424686 
L 338 210.484966 
L 342.348293 209.76 
L 343.636364 209.545247 
L 349.272727 208.605528 
L 354.909091 207.665809 
L 360.545455 206.726089 
L 362.501312 206.4 
L 366.181818 205.78637 
L 371.818182 204.846651 
L 377.454545 203.906931 
L 382.654332 203.04 
L 383.090909 202.967212 
L 388.727273 202.027493 
L 394.363636 201.087773 
L 400 200.154588 
L 402.952695 199.68 
L 405.636364 199.248653 
L 411.272727 198.349948 
L 416.909091 197.460882 
L 422.545455 196.571816 
L 424.141877 196.32 
L 428.181818 195.705928 
L 433.818182 194.8492 
L 439.454545 193.992472 
L 445.090909 193.135743 
L 446.247114 192.96 
L 450.727273 192.310513 
L 456.363636 191.493412 
L 462 190.67631 
L 467.636364 189.859209 
L 469.424386 189.6 
L 473.272727 189.042107 
L 478.909091 188.225006 
L 484.545455 187.407905 
L 490.181818 186.590288 
L 492.592775 186.24 
L 495.818182 185.771381 
L 501.454545 184.952475 
L 507.090909 184.133568 
L 512.727273 183.314662 
L 515.718959 182.88 
L 518.363636 182.495755 
L 524 181.676849 
L 529.636364 180.857942 
L 535.272727 180.039036 
L 538.845143 179.52 
L 540.909091 179.213105 
L 546.545455 178.27443 
L 552.181818 177.281159 
L 557.818182 176.287887 
L 558.543885 176.16 
L 563.454545 175.294616 
L 569.090909 174.317407 
L 574.727273 173.436571 
L 578.800618 172.8 
L 580.363636 172.555736 
L 586 171.6749 
L 591.636364 170.794064 
L 597.272727 169.913228 
L 600.300859 169.44 
L 602.909091 169.032393 
L 608.545455 168.151557 
L 614.181818 167.235436 
L 619.818182 166.278777 
L 620.958539 166.08 
L 625.454545 165.296294 
L 631.090909 164.31381 
L 636.727273 163.331326 
L 640.23436 162.72 
L 642.363636 162.348842 
L 648 161.366359 
L 648 159.36 
L 648 156 
L 648 152.64 
L 648 149.28 
L 648 145.92 
L 648 142.56 
L 648 139.2 
L 648 135.84 
L 648 132.48 
L 648 129.12 
L 648 125.76 
L 648 122.4 
L 648 119.04 
L 648 116.134738 
L 642.363636 116.943353 
L 636.727273 117.751969 
L 631.090909 118.560585 
L 627.749198 119.04 
L 625.454545 119.3692 
L 619.818182 120.177816 
L 614.181818 120.993322 
L 608.545455 121.831017 
L 604.955005 122.4 
L 602.909091 122.724219 
L 597.272727 123.617421 
L 591.636364 124.510623 
L 586 125.403825 
L 583.752436 125.76 
L 580.363636 126.297028 
L 574.727273 127.19023 
L 569.090909 128.083432 
L 563.454545 129.032995 
L 562.943162 129.12 
L 557.818182 129.99195 
L 552.181818 130.950906 
L 546.545455 131.909862 
L 543.032481 132.48 
L 540.909091 132.81686 
L 535.272727 133.678623 
L 529.636364 134.540386 
L 524 135.402149 
L 521.136234 135.84 
L 518.363636 136.263912 
L 512.727273 137.125675 
L 507.090909 137.987438 
L 501.454545 138.849201 
L 499.16014 139.2 
L 495.818182 139.710963 
L 490.181818 140.572726 
L 484.545455 141.446771 
L 478.909091 142.3001 
L 477.094918 142.56 
L 473.272727 143.101648 
L 467.636364 143.900385 
L 462 144.699123 
L 456.363636 145.49786 
L 453.384765 145.92 
L 450.727273 146.322844 
L 445.090909 147.177248 
L 439.454545 148.031653 
L 433.818182 148.886057 
L 431.219408 149.28 
L 428.181818 149.753667 
L 422.545455 150.632573 
L 416.909091 151.511479 
L 411.272727 152.390386 
L 409.646081 152.64 
L 405.636364 153.255304 
L 400 154.10973 
L 394.363636 154.953408 
L 388.727273 155.781458 
L 387.232471 156 
L 383.090909 156.605501 
L 377.454545 157.429543 
L 371.818182 158.253586 
L 366.181818 159.077628 
L 364.250426 159.36 
L 360.545455 159.901671 
L 354.909091 160.725713 
L 349.272727 161.549756 
L 343.636364 162.373798 
L 341.268381 162.72 
L 338 163.197841 
L 332.363636 164.021883 
L 326.727273 164.845405 
L 321.090909 165.668234 
L 318.270317 166.08 
L 315.454545 166.491062 
L 309.818182 167.313891 
L 304.181818 168.136719 
L 298.545455 168.959548 
L 295.254362 169.44 
L 292.909091 169.782376 
L 287.272727 170.569406 
L 281.636364 171.263726 
L 276 171.958046 
L 270.363636 172.652366 
L 269.165172 172.8 
L 264.727273 173.346686 
L 259.090909 174.041006 
L 253.454545 174.735326 
L 247.818182 175.454202 
L 242.719737 176.16 
L 242.181818 176.234466 
L 236.545455 177.014731 
L 230.909091 177.794995 
L 225.272727 178.575259 
L 219.636364 179.355524 
L 218.448243 179.52 
L 214 180.135788 
L 208.363636 180.916052 
L 202.727273 181.696317 
L 197.090909 182.476581 
L 194.17675 182.88 
L 191.454545 183.256846 
L 185.818182 184.068934 
L 180.181818 184.900975 
L 174.545455 185.745759 
L 170.698309 186.24 
L 168.909091 186.46986 
L 163.272727 186.46986 
L 157.636364 186.474597 
L 152 186.54637 
L 146.363636 186.644123 
L 140.727273 186.741875 
L 135.090909 186.839627 
L 129.454545 186.937379 
L 123.818182 187.035132 
L 118.181818 187.132884 
L 112.545455 187.230636 
L 106.909091 187.328388 
L 101.272727 187.426141 
L 95.636364 187.523893 
L 90 187.621645 
L 90 189.6 
L 90 192.96 
L 90 196.32 
L 90 199.68 
L 90 203.04 
L 90 206.4 
L 90 209.76 
L 90 213.12 
L 90 216.48 
L 90 219.84 
L 90 223.2 
L 90 226.56 
L 90 229.92 
L 90 233.28 
L 90 236.64 
L 90 237.057763 
z
" clip-path="url(#p2bac6c5e08)" style="fill: #2b758e"/>
    <path d="M 95.636364 187.523893 
L 101.272727 187.426141 
L 106.909091 187.328388 
L 112.545455 187.230636 
L 118.181818 187.132884 
L 123.818182 187.035132 
L 129.454545 186.937379 
L 135.090909 186.839627 
L 140.727273 186.741875 
L 146.363636 186.644123 
L 152 186.54637 
L 157.636364 186.474597 
L 163.272727 186.46986 
L 168.909091 186.46986 
L 170.698309 186.24 
L 174.545455 185.745759 
L 180.181818 184.900975 
L 185.818182 184.068934 
L 191.454545 183.256846 
L 194.17675 182.88 
L 197.090909 182.476581 
L 202.727273 181.696317 
L 208.363636 180.916052 
L 214 180.135788 
L 218.448243 179.52 
L 219.636364 179.355524 
L 225.272727 178.575259 
L 230.909091 177.794995 
L 236.545455 177.014731 
L 242.181818 176.234466 
L 242.719737 176.16 
L 247.818182 175.454202 
L 253.454545 174.735326 
L 259.090909 174.041006 
L 264.727273 173.346686 
L 269.165172 172.8 
L 270.363636 172.652366 
L 276 171.958046 
L 281.636364 171.263726 
L 287.272727 170.569406 
L 292.909091 169.782376 
L 295.254362 169.44 
L 298.545455 168.959548 
L 304.181818 168.136719 
L 309.818182 167.313891 
L 315.454545 166.491062 
L 318.270317 166.08 
L 321.090909 165.668234 
L 326.727273 164.845405 
L 332.363636 164.021883 
L 338 163.197841 
L 341.268381 162.72 
L 343.636364 162.373798 
L 349.272727 161.549756 
L 354.909091 160.725713 
L 360.545455 159.901671 
L 364.250426 159.36 
L 366.181818 159.077628 
L 371.818182 158.253586 
L 377.454545 157.429543 
L 383.090909 156.605501 
L 387.232471 156 
L 388.727273 155.781458 
L 394.363636 154.953408 
L 400 154.10973 
L 405.636364 153.255304 
L 409.646081 152.64 
L 411.272727 152.390386 
L 416.909091 151.511479 
L 422.545455 150.632573 
L 428.181818 149.753667 
L 431.219408 149.28 
L 433.818182 148.886057 
L 439.454545 148.031653 
L 445.090909 147.177248 
L 450.727273 146.322844 
L 453.384765 145.92 
L 456.363636 145.49786 
L 462 144.699123 
L 467.636364 143.900385 
L 473.272727 143.101648 
L 477.094918 142.56 
L 478.909091 142.3001 
L 484.545455 141.446771 
L 490.181818 140.572726 
L 495.818182 139.710963 
L 499.16014 139.2 
L 501.454545 138.849201 
L 507.090909 137.987438 
L 512.727273 137.125675 
L 518.363636 136.263912 
L 521.136234 135.84 
L 524 135.402149 
L 529.636364 134.540386 
L 535.272727 133.678623 
L 540.909091 132.81686 
L 543.032481 132.48 
L 546.545455 131.909862 
L 552.181818 130.950906 
L 557.818182 129.99195 
L 562.943162 129.12 
L 563.454545 129.032995 
L 569.090909 128.083432 
L 574.727273 127.19023 
L 580.363636 126.297028 
L 583.752436 125.76 
L 586 125.403825 
L 591.636364 124.510623 
L 597.272727 123.617421 
L 602.909091 122.724219 
L 604.955005 122.4 
L 608.545455 121.831017 
L 614.181818 120.993322 
L 619.818182 120.177816 
L 625.454545 119.3692 
L 627.749198 119.04 
L 631.090909 118.560585 
L 636.727273 117.751969 
L 642.363636 116.943353 
L 648 116.134738 
L 648 115.68 
L 648 112.32 
L 648 108.96 
L 648 105.6 
L 648 102.24 
L 648 98.88 
L 648 95.52 
L 648 92.16 
L 648 88.8 
L 648 85.44 
L 648 82.08 
L 648 78.72 
L 648 75.36 
L 648 74.626198 
L 643.883916 75.36 
L 642.363636 75.631031 
L 636.727273 76.635864 
L 631.090909 77.640697 
L 625.454545 78.64553 
L 625.036826 78.72 
L 619.818182 79.650363 
L 614.181818 80.568429 
L 608.545455 81.357846 
L 603.315051 82.08 
L 602.909091 82.13605 
L 597.272727 82.914255 
L 591.636364 83.69246 
L 586 84.470665 
L 580.363636 85.248869 
L 578.97932 85.44 
L 574.727273 86.027074 
L 569.090909 86.805279 
L 563.454545 87.632588 
L 557.818182 88.46808 
L 555.579001 88.8 
L 552.181818 89.303573 
L 546.545455 90.139066 
L 540.909091 90.974559 
L 535.272727 91.810051 
L 532.911919 92.16 
L 529.636364 92.645544 
L 524 93.481037 
L 518.363636 94.31653 
L 512.727273 95.152022 
L 510.244838 95.52 
L 507.090909 95.987515 
L 501.454545 96.823008 
L 495.818182 97.658501 
L 490.181818 98.487674 
L 487.425289 98.88 
L 484.545455 99.326024 
L 478.909091 100.192497 
L 473.272727 101.05897 
L 467.636364 101.925443 
L 465.590188 102.24 
L 462 102.799869 
L 456.363636 103.678826 
L 450.727273 104.557784 
L 445.090909 105.436742 
L 444.044006 105.6 
L 439.454545 106.315699 
L 433.818182 107.194657 
L 428.181818 108.073615 
L 422.545455 108.925084 
L 422.30173 108.96 
L 416.909091 109.724199 
L 411.272727 110.522936 
L 405.636364 111.288055 
L 400 112.02796 
L 397.775332 112.32 
L 394.363636 112.767865 
L 388.727273 113.507771 
L 383.090909 114.245895 
L 377.454545 114.982194 
L 372.105891 115.68 
L 371.818182 115.717536 
L 366.181818 116.452877 
L 360.545455 117.188218 
L 354.909091 117.923559 
L 349.272727 118.658901 
L 346.351616 119.04 
L 343.636364 119.394242 
L 338 120.129583 
L 332.363636 120.864925 
L 326.727273 121.65236 
L 321.809556 122.4 
L 321.090909 122.509256 
L 315.454545 123.366151 
L 309.818182 124.223046 
L 304.181818 125.079942 
L 299.708626 125.76 
L 298.545455 125.935963 
L 292.909091 126.742882 
L 287.272727 127.458123 
L 281.636364 128.173363 
L 276 128.888604 
L 274.176509 129.12 
L 270.363636 129.603844 
L 264.727273 130.319084 
L 259.090909 131.034325 
L 253.454545 131.749565 
L 247.818182 132.449889 
L 247.562211 132.48 
L 242.181818 133.112921 
L 236.545455 133.775953 
L 230.909091 134.438985 
L 225.272727 135.194105 
L 220.746578 135.84 
L 219.636364 135.998431 
L 214 136.802756 
L 208.363636 137.607082 
L 202.727273 138.411407 
L 197.201158 139.2 
L 197.090909 139.215733 
L 191.454545 140.020058 
L 185.818182 140.824384 
L 180.181818 141.62871 
L 174.545455 142.433035 
L 173.507453 142.56 
L 168.909091 143.122457 
L 163.272727 143.122457 
L 157.636364 143.122457 
L 152 143.122457 
L 146.363636 143.122457 
L 140.727273 143.122457 
L 135.090909 143.122457 
L 129.454545 143.122457 
L 123.818182 143.122457 
L 118.181818 143.122457 
L 112.545455 143.122457 
L 106.909091 143.122457 
L 101.272727 143.122457 
L 95.636364 143.122457 
L 90 143.122457 
L 90 145.92 
L 90 149.28 
L 90 152.64 
L 90 156 
L 90 159.36 
L 90 162.72 
L 90 166.08 
L 90 169.44 
L 90 172.8 
L 90 176.16 
L 90 179.52 
L 90 182.88 
L 90 186.24 
L 90 187.621645 
z
" clip-path="url(#p2bac6c5e08)" style="fill: #21918c"/>
    <path d="M 95.636364 143.122457 
L 101.272727 143.122457 
L 106.909091 143.122457 
L 112.545455 143.122457 
L 118.181818 143.122457 
L 123.818182 143.122457 
L 129.454545 143.122457 
L 135.090909 143.122457 
L 140.727273 143.122457 
L 146.363636 143.122457 
L 152 143.122457 
L 157.636364 143.122457 
L 163.272727 143.122457 
L 168.909091 143.122457 
L 173.507453 142.56 
L 174.545455 142.433035 
L 180.181818 141.62871 
L 185.818182 140.824384 
L 191.454545 140.020058 
L 197.090909 139.215733 
L 197.201158 139.2 
L 202.727273 138.411407 
L 208.363636 137.607082 
L 214 136.802756 
L 219.636364 135.998431 
L 220.746578 135.84 
L 225.272727 135.194105 
L 230.909091 134.438985 
L 236.545455 133.775953 
L 242.181818 133.112921 
L 247.562211 132.48 
L 247.818182 132.449889 
L 253.454545 131.749565 
L 259.090909 131.034325 
L 264.727273 130.319084 
L 270.363636 129.603844 
L 274.176509 129.12 
L 276 128.888604 
L 281.636364 128.173363 
L 287.272727 127.458123 
L 292.909091 126.742882 
L 298.545455 125.935963 
L 299.708626 125.76 
L 304.181818 125.079942 
L 309.818182 124.223046 
L 315.454545 123.366151 
L 321.090909 122.509256 
L 321.809556 122.4 
L 326.727273 121.65236 
L 332.363636 120.864925 
L 338 120.129583 
L 343.636364 119.394242 
L 346.351616 119.04 
L 349.272727 118.658901 
L 354.909091 117.923559 
L 360.545455 117.188218 
L 366.181818 116.452877 
L 371.818182 115.717536 
L 372.105891 115.68 
L 377.454545 114.982194 
L 383.090909 114.245895 
L 388.727273 113.507771 
L 394.363636 112.767865 
L 397.775332 112.32 
L 400 112.02796 
L 405.636364 111.288055 
L 411.272727 110.522936 
L 416.909091 109.724199 
L 422.30173 108.96 
L 422.545455 108.925084 
L 428.181818 108.073615 
L 433.818182 107.194657 
L 439.454545 106.315699 
L 444.044006 105.6 
L 445.090909 105.436742 
L 450.727273 104.557784 
L 456.363636 103.678826 
L 462 102.799869 
L 465.590188 102.24 
L 467.636364 101.925443 
L 473.272727 101.05897 
L 478.909091 100.192497 
L 484.545455 99.326024 
L 487.425289 98.88 
L 490.181818 98.487674 
L 495.818182 97.658501 
L 501.454545 96.823008 
L 507.090909 95.987515 
L 510.244838 95.52 
L 512.727273 95.152022 
L 518.363636 94.31653 
L 524 93.481037 
L 529.636364 92.645544 
L 532.911919 92.16 
L 535.272727 91.810051 
L 540.909091 90.974559 
L 546.545455 90.139066 
L 552.181818 89.303573 
L 555.579001 88.8 
L 557.818182 88.46808 
L 563.454545 87.632588 
L 569.090909 86.805279 
L 574.727273 86.027074 
L 578.97932 85.44 
L 580.363636 85.248869 
L 586 84.470665 
L 591.636364 83.69246 
L 597.272727 82.914255 
L 602.909091 82.13605 
L 603.315051 82.08 
L 608.545455 81.357846 
L 614.181818 80.568429 
L 619.818182 79.650363 
L 625.036826 78.72 
L 625.454545 78.64553 
L 631.090909 77.640697 
L 636.727273 76.635864 
L 642.363636 75.631031 
L 643.883916 75.36 
L 648 74.626198 
L 648 72 
L 648 68.64 
L 648 65.28 
L 648 61.92 
L 648 58.56 
L 648 55.2 
L 648 51.84 
L 642.363636 51.84 
L 636.727273 51.84 
L 631.090909 51.84 
L 625.454545 51.84 
L 619.818182 51.84 
L 614.181818 51.84 
L 608.545455 51.84 
L 602.909091 51.84 
L 597.272727 51.84 
L 591.636364 51.84 
L 586 51.84 
L 580.363636 51.84 
L 574.727273 51.84 
L 569.090909 51.84 
L 563.454545 51.84 
L 557.818182 51.84 
L 552.181818 51.84 
L 550.014959 51.84 
L 546.545455 52.324531 
L 540.909091 53.111672 
L 535.272727 53.898814 
L 529.636364 54.685956 
L 525.955526 55.2 
L 524 55.473097 
L 518.363636 56.260239 
L 512.727273 57.047381 
L 507.090909 57.834522 
L 501.896093 58.56 
L 501.454545 58.621664 
L 495.818182 59.408806 
L 490.181818 60.195947 
L 484.545455 60.991151 
L 478.909091 61.78958 
L 477.988415 61.92 
L 473.272727 62.588009 
L 467.636364 63.379977 
L 462 64.168149 
L 456.363636 64.954325 
L 454.028762 65.28 
L 450.727273 65.740501 
L 445.090909 66.526678 
L 439.454545 67.312854 
L 433.818182 68.09903 
L 429.939788 68.64 
L 428.181818 68.885207 
L 422.545455 69.671383 
L 416.909091 70.457559 
L 411.272727 71.243736 
L 405.847983 72 
L 405.636364 72.029502 
L 400 72.814961 
L 394.363636 73.600419 
L 388.727273 74.385878 
L 383.090909 75.171336 
L 381.73708 75.36 
L 377.454545 75.956795 
L 371.818182 76.724409 
L 366.181818 77.420877 
L 360.545455 78.083576 
L 355.132564 78.72 
L 354.909091 78.746275 
L 349.272727 79.408974 
L 343.636364 80.071673 
L 338 80.734372 
L 332.363636 81.397071 
L 326.939482 82.08 
L 326.727273 82.106718 
L 321.090909 82.878963 
L 315.454545 83.651208 
L 309.818182 84.423453 
L 304.181818 85.195698 
L 302.398739 85.44 
L 298.545455 85.967943 
L 292.909091 86.740188 
L 287.272727 87.512433 
L 281.636364 88.284678 
L 277.875197 88.8 
L 276 89.056923 
L 270.363636 89.829168 
L 264.727273 90.614351 
L 259.090909 91.416309 
L 253.990385 92.16 
L 253.454545 92.238129 
L 247.818182 92.998417 
L 242.181818 93.604875 
L 236.545455 94.211333 
L 230.909091 94.817791 
L 225.272727 95.424249 
L 224.382825 95.52 
L 219.636364 96.030707 
L 214 96.637165 
L 208.363636 97.243623 
L 202.727273 97.850081 
L 197.090909 98.456539 
L 193.155298 98.88 
L 191.454545 99.077436 
L 185.818182 99.731749 
L 180.181818 100.386061 
L 174.545455 101.040373 
L 168.909091 101.678782 
L 163.272727 101.678782 
L 157.636364 101.678782 
L 152 101.678782 
L 146.363636 101.678782 
L 140.727273 101.678782 
L 135.090909 101.678782 
L 129.454545 101.678782 
L 123.818182 101.678782 
L 118.181818 101.678782 
L 112.545455 101.678782 
L 106.909091 101.678782 
L 101.272727 101.678782 
L 95.636364 101.678782 
L 90 101.678782 
L 90 102.24 
L 90 105.6 
L 90 108.96 
L 90 112.32 
L 90 115.68 
L 90 119.04 
L 90 122.4 
L 90 125.76 
L 90 129.12 
L 90 132.48 
L 90 135.84 
L 90 139.2 
L 90 142.56 
L 90 143.122457 
z
" clip-path="url(#p2bac6c5e08)" style="fill: #25ab82"/>
    <path d="M 95.636364 101.678782 
L 101.272727 101.678782 
L 106.909091 101.678782 
L 112.545455 101.678782 
L 118.181818 101.678782 
L 123.818182 101.678782 
L 129.454545 101.678782 
L 135.090909 101.678782 
L 140.727273 101.678782 
L 146.363636 101.678782 
L 152 101.678782 
L 157.636364 101.678782 
L 163.272727 101.678782 
L 168.909091 101.678782 
L 174.545455 101.040373 
L 180.181818 100.386061 
L 185.818182 99.731749 
L 191.454545 99.077436 
L 193.155298 98.88 
L 197.090909 98.456539 
L 202.727273 97.850081 
L 208.363636 97.243623 
L 214 96.637165 
L 219.636364 96.030707 
L 224.382825 95.52 
L 225.272727 95.424249 
L 230.909091 94.817791 
L 236.545455 94.211333 
L 242.181818 93.604875 
L 247.818182 92.998417 
L 253.454545 92.238129 
L 253.990385 92.16 
L 259.090909 91.416309 
L 264.727273 90.614351 
L 270.363636 89.829168 
L 276 89.056923 
L 277.875197 88.8 
L 281.636364 88.284678 
L 287.272727 87.512433 
L 292.909091 86.740188 
L 298.545455 85.967943 
L 302.398739 85.44 
L 304.181818 85.195698 
L 309.818182 84.423453 
L 315.454545 83.651208 
L 321.090909 82.878963 
L 326.727273 82.106718 
L 326.939482 82.08 
L 332.363636 81.397071 
L 338 80.734372 
L 343.636364 80.071673 
L 349.272727 79.408974 
L 354.909091 78.746275 
L 355.132564 78.72 
L 360.545455 78.083576 
L 366.181818 77.420877 
L 371.818182 76.724409 
L 377.454545 75.956795 
L 381.73708 75.36 
L 383.090909 75.171336 
L 388.727273 74.385878 
L 394.363636 73.600419 
L 400 72.814961 
L 405.636364 72.029502 
L 405.847983 72 
L 411.272727 71.243736 
L 416.909091 70.457559 
L 422.545455 69.671383 
L 428.181818 68.885207 
L 429.939788 68.64 
L 433.818182 68.09903 
L 439.454545 67.312854 
L 445.090909 66.526678 
L 450.727273 65.740501 
L 454.028762 65.28 
L 456.363636 64.954325 
L 462 64.168149 
L 467.636364 63.379977 
L 473.272727 62.588009 
L 477.988415 61.92 
L 478.909091 61.78958 
L 484.545455 60.991151 
L 490.181818 60.195947 
L 495.818182 59.408806 
L 501.454545 58.621664 
L 501.896093 58.56 
L 507.090909 57.834522 
L 512.727273 57.047381 
L 518.363636 56.260239 
L 524 55.473097 
L 525.955526 55.2 
L 529.636364 54.685956 
L 535.272727 53.898814 
L 540.909091 53.111672 
L 546.545455 52.324531 
L 550.014959 51.84 
L 546.545455 51.84 
L 540.909091 51.84 
L 535.272727 51.84 
L 529.636364 51.84 
L 524 51.84 
L 518.363636 51.84 
L 512.727273 51.84 
L 507.090909 51.84 
L 501.454545 51.84 
L 495.818182 51.84 
L 490.181818 51.84 
L 484.545455 51.84 
L 478.909091 51.84 
L 473.272727 51.84 
L 467.636364 51.84 
L 462 51.84 
L 456.363636 51.84 
L 450.727273 51.84 
L 445.090909 51.84 
L 439.454545 51.84 
L 433.818182 51.84 
L 428.181818 51.84 
L 422.545455 51.84 
L 416.909091 51.84 
L 411.272727 51.84 
L 405.636364 51.84 
L 400 51.84 
L 394.363636 51.84 
L 388.727273 51.84 
L 383.090909 51.84 
L 377.454545 51.84 
L 371.818182 51.84 
L 366.181818 51.84 
L 360.545455 51.84 
L 354.909091 51.84 
L 349.272727 51.84 
L 343.636364 51.84 
L 338 51.84 
L 332.363636 51.84 
L 326.727273 51.84 
L 321.090909 51.84 
L 315.454545 51.84 
L 309.818182 51.84 
L 304.181818 51.84 
L 298.545455 51.84 
L 292.909091 51.84 
L 287.272727 51.84 
L 281.636364 51.84 
L 279.31133 51.84 
L 276 52.322814 
L 270.363636 53.144634 
L 264.727273 53.966454 
L 259.090909 54.788274 
L 256.267131 55.2 
L 253.454545 55.610094 
L 247.818182 56.370382 
L 242.181818 56.962298 
L 236.545455 57.51957 
L 230.909091 58.035423 
L 225.272727 58.551275 
L 225.177397 58.56 
L 219.636364 59.067128 
L 214 59.58298 
L 208.363636 60.098832 
L 202.727273 60.614685 
L 197.090909 61.130537 
L 191.454545 61.646389 
L 188.464989 61.92 
L 185.818182 62.162242 
L 180.181818 62.678094 
L 174.545455 63.193946 
L 168.909091 63.636105 
L 163.272727 63.636105 
L 157.636364 63.636105 
L 152 63.636105 
L 146.363636 63.636105 
L 140.727273 63.636105 
L 135.090909 63.636105 
L 129.454545 63.636105 
L 123.818182 63.636105 
L 118.181818 63.636105 
L 112.545455 63.636105 
L 106.909091 63.636105 
L 101.272727 63.636105 
L 95.636364 63.636105 
L 90 63.636105 
L 90 65.28 
L 90 68.64 
L 90 72 
L 90 75.36 
L 90 78.72 
L 90 82.08 
L 90 85.44 
L 90 88.8 
L 90 92.16 
L 90 95.52 
L 90 98.88 
L 90 101.678782 
z
" clip-path="url(#p2bac6c5e08)" style="fill: #4ec36b"/>
    <path d="M 95.636364 63.636105 
L 101.272727 63.636105 
L 106.909091 63.636105 
L 112.545455 63.636105 
L 118.181818 63.636105 
L 123.818182 63.636105 
L 129.454545 63.636105 
L 135.090909 63.636105 
L 140.727273 63.636105 
L 146.363636 63.636105 
L 152 63.636105 
L 157.636364 63.636105 
L 163.272727 63.636105 
L 168.909091 63.636105 
L 174.545455 63.193946 
L 180.181818 62.678094 
L 185.818182 62.162242 
L 188.464989 61.92 
L 191.454545 61.646389 
L 197.090909 61.130537 
L 202.727273 60.614685 
L 208.363636 60.098832 
L 214 59.58298 
L 219.636364 59.067128 
L 225.177397 58.56 
L 225.272727 58.551275 
L 230.909091 58.035423 
L 236.545455 57.51957 
L 242.181818 56.962298 
L 247.818182 56.370382 
L 253.454545 55.610094 
L 256.267131 55.2 
L 259.090909 54.788274 
L 264.727273 53.966454 
L 270.363636 53.144634 
L 276 52.322814 
L 279.31133 51.84 
L 276 51.84 
L 270.363636 51.84 
L 264.727273 51.84 
L 259.090909 51.84 
L 253.454545 51.84 
L 247.818182 51.84 
L 242.181818 51.84 
L 236.545455 51.84 
L 230.909091 51.84 
L 225.272727 51.84 
L 219.636364 51.84 
L 214 51.84 
L 208.363636 51.84 
L 202.727273 51.84 
L 197.090909 51.84 
L 191.454545 51.84 
L 185.818182 51.84 
L 180.181818 51.84 
L 174.545455 51.84 
L 168.909091 51.84 
L 163.272727 51.84 
L 157.636364 51.84 
L 152 51.84 
L 146.363636 51.84 
L 140.727273 51.84 
L 135.090909 51.84 
L 129.454545 51.84 
L 123.818182 51.84 
L 118.181818 51.84 
L 112.545455 51.84 
L 106.909091 51.84 
L 101.272727 51.84 
L 95.636364 51.84 
L 90 51.84 
L 90 55.2 
L 90 58.56 
L 90 61.92 
L 90 63.636105 
z
" clip-path="url(#p2bac6c5e08)" style="fill: #90d743"/>
    <path clip-path="url(#p2bac6c5e08)" style="fill: #dae319"/>
   </g>
   <g id="matplotlib.axis_1">
    <g id="xtick_1">
     <g id="line2d_1">
      <path d="M 129.857143 384.48 
L 129.857143 51.84 
" clip-path="url(#p2bac6c5e08)" style="fill: none; stroke: #b0b0b0; stroke-width: 0.8; stroke-linecap: square"/>
     </g>
     <g id="line2d_2">
      <defs>
       <path id="mc5f4d5978d" d="M 0 0 
L 0 3.5 
" style="stroke: #000000; stroke-width: 0.8"/>
      </defs>
      <g>
       <use xlink:href="#mc5f4d5978d" x="129.857143" y="384.48" style="stroke: #000000; stroke-width: 0.8"/>
      </g>
     </g>
     <g id="text_1">
      <!-- 6 -->
      <g transform="translate(126.675893 399.078438) scale(0.1 -0.1)">
       <defs>
        <path id="DejaVuSans-36" d="M 2113 2584 
Q 1688 2584 1439 2293 
Q 1191 2003 1191 1497 
Q 1191 994 1439 701 
Q 1688 409 2113 409 
Q 2538 409 2786 701 
Q 3034 994 3034 1497 
Q 3034 2003 2786 2293 
Q 2538 2584 2113 2584 
z
M 3366 4563 
L 3366 3988 
Q 3128 4100 2886 4159 
Q 2644 4219 2406 4219 
Q 1781 4219 1451 3797 
Q 1122 3375 1075 2522 
Q 1259 2794 1537 2939 
Q 1816 3084 2150 3084 
Q 2853 3084 3261 2657 
Q 3669 2231 3669 1497 
Q 3669 778 3244 343 
Q 2819 -91 2113 -91 
Q 1303 -91 875 529 
Q 447 1150 447 2328 
Q 447 3434 972 4092 
Q 1497 4750 2381 4750 
Q 2619 4750 2861 4703 
Q 3103 4656 3366 4563 
z
" transform="scale(0.015625)"/>
       </defs>
       <use xlink:href="#DejaVuSans-36"/>
      </g>
     </g>
    </g>
    <g id="xtick_2">
     <g id="line2d_3">
      <path d="M 209.571429 384.48 
L 209.571429 51.84 
" clip-path="url(#p2bac6c5e08)" style="fill: none; stroke: #b0b0b0; stroke-width: 0.8; stroke-linecap: square"/>
     </g>
     <g id="line2d_4">
      <g>
       <use xlink:href="#mc5f4d5978d" x="209.571429" y="384.48" style="stroke: #000000; stroke-width: 0.8"/>
      </g>
     </g>
     <g id="text_2">
      <!-- 8 -->
      <g transform="translate(206.390179 399.078438) scale(0.1 -0.1)">
       <defs>
        <path id="DejaVuSans-38" d="M 2034 2216 
Q 1584 2216 1326 1975 
Q 1069 1734 1069 1313 
Q 1069 891 1326 650 
Q 1584 409 2034 409 
Q 2484 409 2743 651 
Q 3003 894 3003 1313 
Q 3003 1734 2745 1975 
Q 2488 2216 2034 2216 
z
M 1403 2484 
Q 997 2584 770 2862 
Q 544 3141 544 3541 
Q 544 4100 942 4425 
Q 1341 4750 2034 4750 
Q 2731 4750 3128 4425 
Q 3525 4100 3525 3541 
Q 3525 3141 3298 2862 
Q 3072 2584 2669 2484 
Q 3125 2378 3379 2068 
Q 3634 1759 3634 1313 
Q 3634 634 3220 271 
Q 2806 -91 2034 -91 
Q 1263 -91 848 271 
Q 434 634 434 1313 
Q 434 1759 690 2068 
Q 947 2378 1403 2484 
z
M 1172 3481 
Q 1172 3119 1398 2916 
Q 1625 2713 2034 2713 
Q 2441 2713 2670 2916 
Q 2900 3119 2900 3481 
Q 2900 3844 2670 4047 
Q 2441 4250 2034 4250 
Q 1625 4250 1398 4047 
Q 1172 3844 1172 3481 
z
" transform="scale(0.015625)"/>
       </defs>
       <use xlink:href="#DejaVuSans-38"/>
      </g>
     </g>
    </g>
    <g id="xtick_3">
     <g id="line2d_5">
      <path d="M 289.285714 384.48 
L 289.285714 51.84 
" clip-path="url(#p2bac6c5e08)" style="fill: none; stroke: #b0b0b0; stroke-width: 0.8; stroke-linecap: square"/>
     </g>
     <g id="line2d_6">
      <g>
       <use xlink:href="#mc5f4d5978d" x="289.285714" y="384.48" style="stroke: #000000; stroke-width: 0.8"/>
      </g>
     </g>
     <g id="text_3">
      <!-- 10 -->
      <g transform="translate(282.923214 399.078438) scale(0.1 -0.1)">
       <defs>
        <path id="DejaVuSans-31" d="M 794 531 
L 1825 531 
L 1825 4091 
L 703 3866 
L 703 4441 
L 1819 4666 
L 2450 4666 
L 2450 531 
L 3481 531 
L 3481 0 
L 794 0 
L 794 531 
z
" transform="scale(0.015625)"/>
        <path id="DejaVuSans-30" d="M 2034 4250 
Q 1547 4250 1301 3770 
Q 1056 3291 1056 2328 
Q 1056 1369 1301 889 
Q 1547 409 2034 409 
Q 2525 409 2770 889 
Q 3016 1369 3016 2328 
Q 3016 3291 2770 3770 
Q 2525 4250 2034 4250 
z
M 2034 4750 
Q 2819 4750 3233 4129 
Q 3647 3509 3647 2328 
Q 3647 1150 3233 529 
Q 2819 -91 2034 -91 
Q 1250 -91 836 529 
Q 422 1150 422 2328 
Q 422 3509 836 4129 
Q 1250 4750 2034 4750 
z
" transform="scale(0.015625)"/>
       </defs>
       <use xlink:href="#DejaVuSans-31"/>
       <use xlink:href="#DejaVuSans-30" x="63.623047"/>
      </g>
     </g>
    </g>
    <g id="xtick_4">
     <g id="line2d_7">
      <path d="M 369 384.48 
L 369 51.84 
" clip-path="url(#p2bac6c5e08)" style="fill: none; stroke: #b0b0b0; stroke-width: 0.8; stroke-linecap: square"/>
     </g>
     <g id="line2d_8">
      <g>
       <use xlink:href="#mc5f4d5978d" x="369" y="384.48" style="stroke: #000000; stroke-width: 0.8"/>
      </g>
     </g>
     <g id="text_4">
      <!-- 12 -->
      <g transform="translate(362.6375 399.078438) scale(0.1 -0.1)">
       <defs>
        <path id="DejaVuSans-32" d="M 1228 531 
L 3431 531 
L 3431 0 
L 469 0 
L 469 531 
Q 828 903 1448 1529 
Q 2069 2156 2228 2338 
Q 2531 2678 2651 2914 
Q 2772 3150 2772 3378 
Q 2772 3750 2511 3984 
Q 2250 4219 1831 4219 
Q 1534 4219 1204 4116 
Q 875 4013 500 3803 
L 500 4441 
Q 881 4594 1212 4672 
Q 1544 4750 1819 4750 
Q 2544 4750 2975 4387 
Q 3406 4025 3406 3419 
Q 3406 3131 3298 2873 
Q 3191 2616 2906 2266 
Q 2828 2175 2409 1742 
Q 1991 1309 1228 531 
z
" transform="scale(0.015625)"/>
       </defs>
       <use xlink:href="#DejaVuSans-31"/>
       <use xlink:href="#DejaVuSans-32" x="63.623047"/>
      </g>
     </g>
    </g>
    <g id="xtick_5">
     <g id="line2d_9">
      <path d="M 448.714286 384.48 
L 448.714286 51.84 
" clip-path="url(#p2bac6c5e08)" style="fill: none; stroke: #b0b0b0; stroke-width: 0.8; stroke-linecap: square"/>
     </g>
     <g id="line2d_10">
      <g>
       <use xlink:href="#mc5f4d5978d" x="448.714286" y="384.48" style="stroke: #000000; stroke-width: 0.8"/>
      </g>
     </g>
     <g id="text_5">
      <!-- 14 -->
      <g transform="translate(442.351786 399.078438) scale(0.1 -0.1)">
       <defs>
        <path id="DejaVuSans-34" d="M 2419 4116 
L 825 1625 
L 2419 1625 
L 2419 4116 
z
M 2253 4666 
L 3047 4666 
L 3047 1625 
L 3713 1625 
L 3713 1100 
L 3047 1100 
L 3047 0 
L 2419 0 
L 2419 1100 
L 313 1100 
L 313 1709 
L 2253 4666 
z
" transform="scale(0.015625)"/>
       </defs>
       <use xlink:href="#DejaVuSans-31"/>
       <use xlink:href="#DejaVuSans-34" x="63.623047"/>
      </g>
     </g>
    </g>
    <g id="xtick_6">
     <g id="line2d_11">
      <path d="M 528.428571 384.48 
L 528.428571 51.84 
" clip-path="url(#p2bac6c5e08)" style="fill: none; stroke: #b0b0b0; stroke-width: 0.8; stroke-linecap: square"/>
     </g>
     <g id="line2d_12">
      <g>
       <use xlink:href="#mc5f4d5978d" x="528.428571" y="384.48" style="stroke: #000000; stroke-width: 0.8"/>
      </g>
     </g>
     <g id="text_6">
      <!-- 16 -->
      <g transform="translate(522.066071 399.078438) scale(0.1 -0.1)">
       <use xlink:href="#DejaVuSans-31"/>
       <use xlink:href="#DejaVuSans-36" x="63.623047"/>
      </g>
     </g>
    </g>
    <g id="xtick_7">
     <g id="line2d_13">
      <path d="M 608.142857 384.48 
L 608.142857 51.84 
" clip-path="url(#p2bac6c5e08)" style="fill: none; stroke: #b0b0b0; stroke-width: 0.8; stroke-linecap: square"/>
     </g>
     <g id="line2d_14">
      <g>
       <use xlink:href="#mc5f4d5978d" x="608.142857" y="384.48" style="stroke: #000000; stroke-width: 0.8"/>
      </g>
     </g>
     <g id="text_7">
      <!-- 18 -->
      <g transform="translate(601.780357 399.078438) scale(0.1 -0.1)">
       <use xlink:href="#DejaVuSans-31"/>
       <use xlink:href="#DejaVuSans-38" x="63.623047"/>
      </g>
     </g>
    </g>
    <g id="text_8">
     <!-- $glide_{ev}$ [K] -->
     <g transform="translate(318.3 420.358125) scale(0.2 -0.2)">
      <defs>
       <path id="DejaVuSans-Oblique-67" d="M 3816 3500 
L 3219 434 
Q 3047 -456 2561 -893 
Q 2075 -1331 1253 -1331 
Q 950 -1331 690 -1286 
Q 431 -1241 206 -1147 
L 313 -588 
Q 525 -725 762 -790 
Q 1000 -856 1269 -856 
Q 1816 -856 2167 -557 
Q 2519 -259 2631 300 
L 2681 563 
Q 2441 288 2122 144 
Q 1803 0 1434 0 
Q 903 0 598 351 
Q 294 703 294 1319 
Q 294 1803 478 2267 
Q 663 2731 997 3091 
Q 1219 3328 1514 3456 
Q 1809 3584 2131 3584 
Q 2484 3584 2746 3420 
Q 3009 3256 3138 2956 
L 3238 3500 
L 3816 3500 
z
M 2950 2216 
Q 2950 2641 2750 2872 
Q 2550 3103 2181 3103 
Q 1953 3103 1747 3012 
Q 1541 2922 1394 2759 
Q 1156 2491 1023 2127 
Q 891 1763 891 1375 
Q 891 944 1092 712 
Q 1294 481 1672 481 
Q 2219 481 2584 976 
Q 2950 1472 2950 2216 
z
" transform="scale(0.015625)"/>
       <path id="DejaVuSans-Oblique-6c" d="M 1172 4863 
L 1747 4863 
L 800 0 
L 225 0 
L 1172 4863 
z
" transform="scale(0.015625)"/>
       <path id="DejaVuSans-Oblique-69" d="M 1172 4863 
L 1747 4863 
L 1606 4134 
L 1031 4134 
L 1172 4863 
z
M 909 3500 
L 1484 3500 
L 800 0 
L 225 0 
L 909 3500 
z
" transform="scale(0.015625)"/>
       <path id="DejaVuSans-Oblique-64" d="M 2675 525 
Q 2444 222 2128 65 
Q 1813 -91 1428 -91 
Q 903 -91 598 267 
Q 294 625 294 1247 
Q 294 1766 478 2236 
Q 663 2706 1013 3078 
Q 1244 3325 1534 3454 
Q 1825 3584 2144 3584 
Q 2481 3584 2739 3421 
Q 2997 3259 3138 2956 
L 3513 4863 
L 4091 4863 
L 3144 0 
L 2566 0 
L 2675 525 
z
M 891 1350 
Q 891 897 1095 644 
Q 1300 391 1663 391 
Q 1931 391 2161 520 
Q 2391 650 2566 903 
Q 2750 1166 2856 1509 
Q 2963 1853 2963 2188 
Q 2963 2622 2758 2865 
Q 2553 3109 2194 3109 
Q 1922 3109 1687 2981 
Q 1453 2853 1288 2613 
Q 1106 2353 998 2009 
Q 891 1666 891 1350 
z
" transform="scale(0.015625)"/>
       <path id="DejaVuSans-Oblique-65" d="M 3078 2063 
Q 3088 2113 3092 2166 
Q 3097 2219 3097 2272 
Q 3097 2653 2873 2875 
Q 2650 3097 2266 3097 
Q 1838 3097 1509 2826 
Q 1181 2556 1013 2059 
L 3078 2063 
z
M 3578 1613 
L 903 1613 
Q 884 1494 878 1425 
Q 872 1356 872 1306 
Q 872 872 1139 634 
Q 1406 397 1894 397 
Q 2269 397 2603 481 
Q 2938 566 3225 728 
L 3116 159 
Q 2806 34 2476 -28 
Q 2147 -91 1806 -91 
Q 1078 -91 686 257 
Q 294 606 294 1247 
Q 294 1794 489 2264 
Q 684 2734 1063 3103 
Q 1306 3334 1642 3459 
Q 1978 3584 2356 3584 
Q 2950 3584 3301 3228 
Q 3653 2872 3653 2272 
Q 3653 2128 3634 1964 
Q 3616 1800 3578 1613 
z
" transform="scale(0.015625)"/>
       <path id="DejaVuSans-Oblique-76" d="M 459 3500 
L 1069 3500 
L 1581 525 
L 3256 3500 
L 3866 3500 
L 1875 0 
L 1100 0 
L 459 3500 
z
" transform="scale(0.015625)"/>
       <path id="DejaVuSans-20" transform="scale(0.015625)"/>
       <path id="DejaVuSans-5b" d="M 550 4863 
L 1875 4863 
L 1875 4416 
L 1125 4416 
L 1125 -397 
L 1875 -397 
L 1875 -844 
L 550 -844 
L 550 4863 
z
" transform="scale(0.015625)"/>
       <path id="DejaVuSans-4b" d="M 628 4666 
L 1259 4666 
L 1259 2694 
L 3353 4666 
L 4166 4666 
L 1850 2491 
L 4331 0 
L 3500 0 
L 1259 2247 
L 1259 0 
L 628 0 
L 628 4666 
z
" transform="scale(0.015625)"/>
       <path id="DejaVuSans-5d" d="M 1947 4863 
L 1947 -844 
L 622 -844 
L 622 -397 
L 1369 -397 
L 1369 4416 
L 622 4416 
L 622 4863 
L 1947 4863 
z
" transform="scale(0.015625)"/>
      </defs>
      <use xlink:href="#DejaVuSans-Oblique-67" transform="translate(0 0.015625)"/>
      <use xlink:href="#DejaVuSans-Oblique-6c" transform="translate(63.476562 0.015625)"/>
      <use xlink:href="#DejaVuSans-Oblique-69" transform="translate(91.259766 0.015625)"/>
      <use xlink:href="#DejaVuSans-Oblique-64" transform="translate(119.042969 0.015625)"/>
      <use xlink:href="#DejaVuSans-Oblique-65" transform="translate(182.519531 0.015625)"/>
      <use xlink:href="#DejaVuSans-Oblique-65" transform="translate(244.042969 -16.390625) scale(0.7)"/>
      <use xlink:href="#DejaVuSans-Oblique-76" transform="translate(287.109375 -16.390625) scale(0.7)"/>
      <use xlink:href="#DejaVuSans-20" transform="translate(331.269531 0.015625)"/>
      <use xlink:href="#DejaVuSans-5b" transform="translate(363.056641 0.015625)"/>
      <use xlink:href="#DejaVuSans-4b" transform="translate(402.070312 0.015625)"/>
      <use xlink:href="#DejaVuSans-5d" transform="translate(467.646484 0.015625)"/>
     </g>
    </g>
   </g>
   <g id="matplotlib.axis_2">
    <g id="ytick_1">
     <g id="line2d_15">
      <path d="M 90 384.48 
L 648 384.48 
" clip-path="url(#p2bac6c5e08)" style="fill: none; stroke: #b0b0b0; stroke-width: 0.8; stroke-linecap: square"/>
     </g>
     <g id="line2d_16">
      <defs>
       <path id="m041f7e5012" d="M 0 0 
L -3.5 0 
" style="stroke: #000000; stroke-width: 0.8"/>
      </defs>
      <g>
       <use xlink:href="#m041f7e5012" x="90" y="384.48" style="stroke: #000000; stroke-width: 0.8"/>
      </g>
     </g>
     <g id="text_9">
      <!-- 65 -->
      <g transform="translate(70.275 388.279219) scale(0.1 -0.1)">
       <defs>
        <path id="DejaVuSans-35" d="M 691 4666 
L 3169 4666 
L 3169 4134 
L 1269 4134 
L 1269 2991 
Q 1406 3038 1543 3061 
Q 1681 3084 1819 3084 
Q 2600 3084 3056 2656 
Q 3513 2228 3513 1497 
Q 3513 744 3044 326 
Q 2575 -91 1722 -91 
Q 1428 -91 1123 -41 
Q 819 9 494 109 
L 494 744 
Q 775 591 1075 516 
Q 1375 441 1709 441 
Q 2250 441 2565 725 
Q 2881 1009 2881 1497 
Q 2881 1984 2565 2268 
Q 2250 2553 1709 2553 
Q 1456 2553 1204 2497 
Q 953 2441 691 2322 
L 691 4666 
z
" transform="scale(0.015625)"/>
       </defs>
       <use xlink:href="#DejaVuSans-36"/>
       <use xlink:href="#DejaVuSans-35" x="63.623047"/>
      </g>
     </g>
    </g>
    <g id="ytick_2">
     <g id="line2d_17">
      <path d="M 90 336.96 
L 648 336.96 
" clip-path="url(#p2bac6c5e08)" style="fill: none; stroke: #b0b0b0; stroke-width: 0.8; stroke-linecap: square"/>
     </g>
     <g id="line2d_18">
      <g>
       <use xlink:href="#m041f7e5012" x="90" y="336.96" style="stroke: #000000; stroke-width: 0.8"/>
      </g>
     </g>
     <g id="text_10">
      <!-- 70 -->
      <g transform="translate(70.275 340.759219) scale(0.1 -0.1)">
       <defs>
        <path id="DejaVuSans-37" d="M 525 4666 
L 3525 4666 
L 3525 4397 
L 1831 0 
L 1172 0 
L 2766 4134 
L 525 4134 
L 525 4666 
z
" transform="scale(0.015625)"/>
       </defs>
       <use xlink:href="#DejaVuSans-37"/>
       <use xlink:href="#DejaVuSans-30" x="63.623047"/>
      </g>
     </g>
    </g>
    <g id="ytick_3">
     <g id="line2d_19">
      <path d="M 90 289.44 
L 648 289.44 
" clip-path="url(#p2bac6c5e08)" style="fill: none; stroke: #b0b0b0; stroke-width: 0.8; stroke-linecap: square"/>
     </g>
     <g id="line2d_20">
      <g>
       <use xlink:href="#m041f7e5012" x="90" y="289.44" style="stroke: #000000; stroke-width: 0.8"/>
      </g>
     </g>
     <g id="text_11">
      <!-- 75 -->
      <g transform="translate(70.275 293.239219) scale(0.1 -0.1)">
       <use xlink:href="#DejaVuSans-37"/>
       <use xlink:href="#DejaVuSans-35" x="63.623047"/>
      </g>
     </g>
    </g>
    <g id="ytick_4">
     <g id="line2d_21">
      <path d="M 90 241.92 
L 648 241.92 
" clip-path="url(#p2bac6c5e08)" style="fill: none; stroke: #b0b0b0; stroke-width: 0.8; stroke-linecap: square"/>
     </g>
     <g id="line2d_22">
      <g>
       <use xlink:href="#m041f7e5012" x="90" y="241.92" style="stroke: #000000; stroke-width: 0.8"/>
      </g>
     </g>
     <g id="text_12">
      <!-- 80 -->
      <g transform="translate(70.275 245.719219) scale(0.1 -0.1)">
       <use xlink:href="#DejaVuSans-38"/>
       <use xlink:href="#DejaVuSans-30" x="63.623047"/>
      </g>
     </g>
    </g>
    <g id="ytick_5">
     <g id="line2d_23">
      <path d="M 90 194.4 
L 648 194.4 
" clip-path="url(#p2bac6c5e08)" style="fill: none; stroke: #b0b0b0; stroke-width: 0.8; stroke-linecap: square"/>
     </g>
     <g id="line2d_24">
      <g>
       <use xlink:href="#m041f7e5012" x="90" y="194.4" style="stroke: #000000; stroke-width: 0.8"/>
      </g>
     </g>
     <g id="text_13">
      <!-- 85 -->
      <g transform="translate(70.275 198.199219) scale(0.1 -0.1)">
       <use xlink:href="#DejaVuSans-38"/>
       <use xlink:href="#DejaVuSans-35" x="63.623047"/>
      </g>
     </g>
    </g>
    <g id="ytick_6">
     <g id="line2d_25">
      <path d="M 90 146.88 
L 648 146.88 
" clip-path="url(#p2bac6c5e08)" style="fill: none; stroke: #b0b0b0; stroke-width: 0.8; stroke-linecap: square"/>
     </g>
     <g id="line2d_26">
      <g>
       <use xlink:href="#m041f7e5012" x="90" y="146.88" style="stroke: #000000; stroke-width: 0.8"/>
      </g>
     </g>
     <g id="text_14">
      <!-- 90 -->
      <g transform="translate(70.275 150.679219) scale(0.1 -0.1)">
       <defs>
        <path id="DejaVuSans-39" d="M 703 97 
L 703 672 
Q 941 559 1184 500 
Q 1428 441 1663 441 
Q 2288 441 2617 861 
Q 2947 1281 2994 2138 
Q 2813 1869 2534 1725 
Q 2256 1581 1919 1581 
Q 1219 1581 811 2004 
Q 403 2428 403 3163 
Q 403 3881 828 4315 
Q 1253 4750 1959 4750 
Q 2769 4750 3195 4129 
Q 3622 3509 3622 2328 
Q 3622 1225 3098 567 
Q 2575 -91 1691 -91 
Q 1453 -91 1209 -44 
Q 966 3 703 97 
z
M 1959 2075 
Q 2384 2075 2632 2365 
Q 2881 2656 2881 3163 
Q 2881 3666 2632 3958 
Q 2384 4250 1959 4250 
Q 1534 4250 1286 3958 
Q 1038 3666 1038 3163 
Q 1038 2656 1286 2365 
Q 1534 2075 1959 2075 
z
" transform="scale(0.015625)"/>
       </defs>
       <use xlink:href="#DejaVuSans-39"/>
       <use xlink:href="#DejaVuSans-30" x="63.623047"/>
      </g>
     </g>
    </g>
    <g id="ytick_7">
     <g id="line2d_27">
      <path d="M 90 99.36 
L 648 99.36 
" clip-path="url(#p2bac6c5e08)" style="fill: none; stroke: #b0b0b0; stroke-width: 0.8; stroke-linecap: square"/>
     </g>
     <g id="line2d_28">
      <g>
       <use xlink:href="#m041f7e5012" x="90" y="99.36" style="stroke: #000000; stroke-width: 0.8"/>
      </g>
     </g>
     <g id="text_15">
      <!-- 95 -->
      <g transform="translate(70.275 103.159219) scale(0.1 -0.1)">
       <use xlink:href="#DejaVuSans-39"/>
       <use xlink:href="#DejaVuSans-35" x="63.623047"/>
      </g>
     </g>
    </g>
    <g id="ytick_8">
     <g id="line2d_29">
      <path d="M 90 51.84 
L 648 51.84 
" clip-path="url(#p2bac6c5e08)" style="fill: none; stroke: #b0b0b0; stroke-width: 0.8; stroke-linecap: square"/>
     </g>
     <g id="line2d_30">
      <g>
       <use xlink:href="#m041f7e5012" x="90" y="51.84" style="stroke: #000000; stroke-width: 0.8"/>
      </g>
     </g>
     <g id="text_16">
      <!-- 100 -->
      <g transform="translate(63.9125 55.639219) scale(0.1 -0.1)">
       <use xlink:href="#DejaVuSans-31"/>
       <use xlink:href="#DejaVuSans-30" x="63.623047"/>
       <use xlink:href="#DejaVuSans-30" x="127.246094"/>
      </g>
     </g>
    </g>
    <g id="text_17">
     <!-- $T_{sto,HT}$ [C] -->
     <g transform="translate(54.9125 271.36) rotate(-90) scale(0.2 -0.2)">
      <defs>
       <path id="DejaVuSans-Oblique-54" d="M 378 4666 
L 4325 4666 
L 4225 4134 
L 2559 4134 
L 1759 0 
L 1125 0 
L 1925 4134 
L 275 4134 
L 378 4666 
z
" transform="scale(0.015625)"/>
       <path id="DejaVuSans-Oblique-73" d="M 3200 3397 
L 3091 2853 
Q 2863 2978 2609 3040 
Q 2356 3103 2088 3103 
Q 1634 3103 1373 2948 
Q 1113 2794 1113 2528 
Q 1113 2219 1719 2053 
Q 1766 2041 1788 2034 
L 1972 1978 
Q 2547 1819 2739 1644 
Q 2931 1469 2931 1166 
Q 2931 609 2489 259 
Q 2047 -91 1331 -91 
Q 1053 -91 747 -37 
Q 441 16 72 128 
L 184 722 
Q 500 559 806 475 
Q 1113 391 1394 391 
Q 1816 391 2080 572 
Q 2344 753 2344 1031 
Q 2344 1331 1650 1516 
L 1591 1531 
L 1394 1581 
Q 956 1697 753 1886 
Q 550 2075 550 2369 
Q 550 2928 970 3256 
Q 1391 3584 2113 3584 
Q 2397 3584 2667 3537 
Q 2938 3491 3200 3397 
z
" transform="scale(0.015625)"/>
       <path id="DejaVuSans-Oblique-74" d="M 2706 3500 
L 2619 3053 
L 1472 3053 
L 1100 1153 
Q 1081 1047 1072 975 
Q 1063 903 1063 863 
Q 1063 663 1183 572 
Q 1303 481 1569 481 
L 2150 481 
L 2053 0 
L 1503 0 
Q 991 0 739 200 
Q 488 400 488 806 
Q 488 878 497 964 
Q 506 1050 525 1153 
L 897 3053 
L 409 3053 
L 500 3500 
L 978 3500 
L 1172 4494 
L 1747 4494 
L 1556 3500 
L 2706 3500 
z
" transform="scale(0.015625)"/>
       <path id="DejaVuSans-Oblique-6f" d="M 1625 -91 
Q 1009 -91 651 289 
Q 294 669 294 1325 
Q 294 1706 417 2101 
Q 541 2497 738 2766 
Q 1047 3184 1428 3384 
Q 1809 3584 2291 3584 
Q 2888 3584 3255 3212 
Q 3622 2841 3622 2241 
Q 3622 1825 3500 1412 
Q 3378 1000 3181 728 
Q 2875 309 2494 109 
Q 2113 -91 1625 -91 
z
M 891 1344 
Q 891 869 1089 633 
Q 1288 397 1691 397 
Q 2269 397 2648 901 
Q 3028 1406 3028 2181 
Q 3028 2634 2825 2865 
Q 2622 3097 2228 3097 
Q 1903 3097 1650 2945 
Q 1397 2794 1197 2484 
Q 1050 2253 970 1956 
Q 891 1659 891 1344 
z
" transform="scale(0.015625)"/>
       <path id="DejaVuSans-2c" d="M 750 794 
L 1409 794 
L 1409 256 
L 897 -744 
L 494 -744 
L 750 256 
L 750 794 
z
" transform="scale(0.015625)"/>
       <path id="DejaVuSans-Oblique-48" d="M 1081 4666 
L 1716 4666 
L 1344 2753 
L 3634 2753 
L 4006 4666 
L 4641 4666 
L 3731 0 
L 3097 0 
L 3531 2222 
L 1241 2222 
L 806 0 
L 172 0 
L 1081 4666 
z
" transform="scale(0.015625)"/>
       <path id="DejaVuSans-b0" d="M 1600 4347 
Q 1350 4347 1178 4173 
Q 1006 4000 1006 3750 
Q 1006 3503 1178 3333 
Q 1350 3163 1600 3163 
Q 1850 3163 2022 3333 
Q 2194 3503 2194 3750 
Q 2194 3997 2020 4172 
Q 1847 4347 1600 4347 
z
M 1600 4750 
Q 1800 4750 1984 4673 
Q 2169 4597 2303 4453 
Q 2447 4313 2519 4134 
Q 2591 3956 2591 3750 
Q 2591 3338 2302 3052 
Q 2013 2766 1594 2766 
Q 1172 2766 890 3047 
Q 609 3328 609 3750 
Q 609 4169 896 4459 
Q 1184 4750 1600 4750 
z
" transform="scale(0.015625)"/>
       <path id="DejaVuSans-43" d="M 4122 4306 
L 4122 3641 
Q 3803 3938 3442 4084 
Q 3081 4231 2675 4231 
Q 1875 4231 1450 3742 
Q 1025 3253 1025 2328 
Q 1025 1406 1450 917 
Q 1875 428 2675 428 
Q 3081 428 3442 575 
Q 3803 722 4122 1019 
L 4122 359 
Q 3791 134 3420 21 
Q 3050 -91 2638 -91 
Q 1578 -91 968 557 
Q 359 1206 359 2328 
Q 359 3453 968 4101 
Q 1578 4750 2638 4750 
Q 3056 4750 3426 4639 
Q 3797 4528 4122 4306 
z
" transform="scale(0.015625)"/>
      </defs>
      <use xlink:href="#DejaVuSans-Oblique-54" transform="translate(0 0.015625)"/>
      <use xlink:href="#DejaVuSans-Oblique-73" transform="translate(61.083984 -16.390625) scale(0.7)"/>
      <use xlink:href="#DejaVuSans-Oblique-74" transform="translate(97.553711 -16.390625) scale(0.7)"/>
      <use xlink:href="#DejaVuSans-Oblique-6f" transform="translate(125 -16.390625) scale(0.7)"/>
      <use xlink:href="#DejaVuSans-2c" transform="translate(167.827148 -16.390625) scale(0.7)"/>
      <use xlink:href="#DejaVuSans-Oblique-48" transform="translate(203.71582 -16.390625) scale(0.7)"/>
      <use xlink:href="#DejaVuSans-Oblique-54" transform="translate(256.352539 -16.390625) scale(0.7)"/>
      <use xlink:href="#DejaVuSans-20" transform="translate(301.845703 0.015625)"/>
      <use xlink:href="#DejaVuSans-5b" transform="translate(333.632812 0.015625)"/>
      <use xlink:href="#DejaVuSans-b0" transform="translate(372.646484 0.015625)"/>
      <use xlink:href="#DejaVuSans-43" transform="translate(422.646484 0.015625)"/>
      <use xlink:href="#DejaVuSans-5d" transform="translate(492.470703 0.015625)"/>
     </g>
    </g>
   </g>
   <g id="QuadContourSet_2">
    <path clip-path="url(#p2bac6c5e08)" style="fill: none; stroke: #000000; stroke-width: 1.5"/>
    <path d="M 90 355.549966 
L 95.636364 355.011151 
L 101.272727 354.472337 
L 103.703128 354.24 
L 106.909091 353.933522 
L 112.545455 353.394708 
L 118.181818 352.855894 
L 123.818182 352.317079 
L 129.454545 351.778265 
L 135.090909 351.23945 
L 138.851003 350.88 
L 140.727273 350.700636 
L 146.363636 350.161821 
L 152 349.590577 
L 157.636364 349.008257 
L 163.272727 348.425938 
L 168.909091 347.843619 
L 171.092869 347.52 
L 174.545455 347.008354 
L 180.181818 346.130933 
L 185.818182 345.24888 
L 191.454545 344.360219 
L 192.72317 344.16 
L 197.090909 343.470667 
L 202.727273 342.581115 
L 208.363636 341.691563 
L 214 340.802012 
L 214.012745 340.8 
L 219.636364 339.91246 
L 225.272727 339.022908 
L 230.909091 338.133356 
L 235.302321 337.44 
L 236.545455 337.263566 
L 242.181818 336.463613 
L 247.818182 335.663659 
L 253.454545 334.818594 
L 258.517013 334.08 
L 259.090909 333.997364 
L 264.727273 333.19509 
L 270.363636 332.393127 
L 276 331.591164 
L 281.636364 330.789201 
L 282.12272 330.72 
L 287.272727 329.987238 
L 292.909091 329.185275 
L 298.545455 328.383312 
L 304.181818 327.581349 
L 305.737504 327.36 
L 309.818182 326.779386 
L 315.454545 325.977423 
L 321.090909 325.17546 
L 326.727273 324.373497 
L 329.175313 324 
L 332.363636 323.513558 
L 338 322.610138 
L 343.636364 321.706718 
L 349.272727 320.803298 
L 350.291532 320.64 
L 354.909091 319.899878 
L 360.545455 318.996458 
L 366.181818 318.093038 
L 371.254297 317.28 
L 371.818182 317.18851 
L 377.454545 316.199671 
L 383.090909 315.107438 
L 388.727273 314.015205 
L 389.218568 313.92 
L 394.363636 312.922972 
L 400 311.830739 
L 405.636364 310.738506 
L 406.584437 310.56 
L 411.272727 309.677275 
L 416.909091 308.657381 
L 422.545455 307.637487 
L 424.963194 307.2 
L 428.181818 306.617593 
L 433.818182 305.597699 
L 439.454545 304.577806 
L 443.531969 303.84 
L 445.090909 303.557912 
L 449.534979 302.753762 
M 497.040224 294.368953 
L 500.312454 293.76 
L 501.454545 293.542244 
L 507.090909 292.467589 
L 512.727273 291.392934 
L 517.935026 290.4 
L 518.363636 290.327581 
L 524 289.37525 
L 529.636364 288.422919 
L 535.272727 287.470588 
L 537.821159 287.04 
L 540.909091 286.540978 
L 546.545455 285.630118 
L 552.181818 284.719259 
L 557.818182 283.8084 
L 558.612716 283.68 
L 563.454545 282.897541 
L 569.090909 282.000172 
L 574.727273 281.183747 
L 580.363636 280.367322 
L 580.690334 280.32 
L 586 279.550897 
L 591.636364 278.734472 
L 597.272727 277.918047 
L 602.909091 277.101622 
L 603.886808 276.96 
L 608.545455 276.285197 
L 614.181818 275.468772 
L 619.818182 274.652347 
L 625.454545 273.683626 
L 625.888748 273.6 
L 631.090909 272.578159 
L 636.727273 271.471029 
L 642.363636 270.3639 
L 642.994407 270.24 
L 648 269.25677 
" clip-path="url(#p2bac6c5e08)" style="fill: none; stroke: #000000; stroke-width: 1.5"/>
    <path d="M 90 292.331481 
L 95.636364 291.894136 
L 101.272727 291.512069 
L 106.909091 291.141582 
L 112.545455 290.771096 
L 118.181818 290.400609 
L 118.19109 290.4 
L 123.818182 290.047457 
L 129.454545 289.694333 
L 135.090909 289.341209 
L 140.727273 288.988085 
L 146.363636 288.634962 
L 152 288.281838 
L 157.636364 287.928714 
L 163.272727 287.57559 
L 168.909091 287.298105 
L 170.728775 287.04 
L 174.545455 286.514391 
L 180.181818 285.711817 
L 185.818182 284.928894 
L 191.454545 284.145971 
L 194.809133 283.68 
L 197.090909 283.363048 
L 202.727273 282.580126 
L 208.363636 281.797203 
L 214 281.01428 
L 218.998216 280.32 
L 219.636364 280.231358 
L 225.272727 279.448435 
L 230.909091 278.665512 
L 236.545455 277.88259 
L 242.181818 277.099667 
L 243.187298 276.96 
L 247.818182 276.316744 
L 253.454545 275.523133 
L 259.090909 274.725246 
L 264.727273 273.927358 
L 267.039769 273.6 
L 270.363636 273.129471 
L 276 272.331584 
L 281.636364 271.533697 
L 287.272727 270.73581 
L 290.775184 270.24 
L 292.909091 269.93691 
L 298.545455 269.115647 
L 304.181818 268.268534 
L 309.818182 267.42142 
L 313.420579 266.88 
L 315.454545 266.574306 
L 321.090909 265.727193 
L 326.727273 264.880079 
L 332.363636 263.943111 
L 334.738089 263.52 
L 338 262.938751 
L 343.636364 261.934391 
L 349.272727 260.930031 
L 353.594062 260.16 
L 354.909091 259.925671 
L 360.545455 258.921311 
L 366.181818 257.916951 
L 371.818182 256.912592 
L 372.450034 256.8 
L 377.454545 255.908232 
L 383.090909 254.903872 
L 388.727273 253.906218 
L 391.43637 253.44 
L 394.363636 252.936236 
L 400 251.970854 
L 405.636364 251.0067 
L 411.212032 250.08 
L 411.272727 250.069912 
L 416.909091 249.169614 
L 422.545455 248.235949 
L 428.181818 247.257143 
L 431.274907 246.72 
L 433.818182 246.278337 
L 439.454545 245.299531 
L 445.090909 244.320725 
L 449.504391 243.554283 
M 497.089157 236.208928 
L 501.454545 235.605826 
L 507.090909 234.827131 
L 512.727273 234.048436 
L 518.289383 233.28 
L 518.363636 233.269741 
L 524 232.491047 
L 529.636364 231.712352 
L 535.272727 230.933657 
L 540.909091 230.154963 
L 542.609802 229.92 
L 546.545455 229.361769 
L 552.181818 228.457111 
L 557.818182 227.522246 
L 563.454545 226.587382 
L 563.615025 226.56 
L 569.090909 225.625682 
L 574.727273 224.502969 
L 580.363636 223.380257 
L 581.268582 223.2 
L 586 222.257545 
L 591.636364 221.134832 
L 597.272727 220.01212 
L 598.136822 219.84 
L 602.909091 218.889407 
L 608.545455 217.804261 
L 614.181818 216.752842 
L 615.710721 216.48 
L 619.818182 215.746998 
L 625.454545 214.741153 
L 631.090909 213.735309 
L 634.53886 213.12 
L 636.727273 212.729464 
L 642.363636 211.723619 
L 648 210.717775 
" clip-path="url(#p2bac6c5e08)" style="fill: none; stroke: #000000; stroke-width: 1.5"/>
    <path d="M 90 237.057763 
L 95.636364 236.945115 
L 101.272727 236.801865 
L 106.279631 236.64 
L 106.909091 236.619651 
L 112.545455 236.437436 
L 118.181818 236.255222 
L 123.818182 236.073007 
L 129.454545 235.890792 
L 135.090909 235.708578 
L 140.727273 235.526363 
L 146.363636 235.344149 
L 152 235.161934 
L 157.636364 234.97972 
L 163.272727 234.797505 
L 168.909091 234.615291 
L 174.545455 233.885317 
L 178.699753 233.28 
L 180.181818 233.06405 
L 185.818182 232.242783 
L 191.454545 231.421517 
L 197.090909 230.60025 
L 201.759472 229.92 
L 202.727273 229.778983 
L 208.363636 228.957716 
L 214 228.13645 
L 219.636364 227.315183 
L 224.75262 226.56 
L 225.272727 226.482366 
L 230.909091 225.614032 
L 236.545455 224.745698 
L 242.181818 223.877365 
L 246.578599 223.2 
L 247.818182 223.009031 
L 253.454545 222.226611 
L 259.090909 221.478558 
L 264.727273 220.730504 
L 270.363636 219.98245 
L 271.436954 219.84 
L 276 219.234396 
L 281.636364 218.486342 
L 287.272727 217.736085 
L 292.909091 216.965641 
L 296.425617 216.48 
L 298.545455 216.187245 
L 304.181818 215.408849 
L 309.818182 214.630454 
L 315.454545 213.852058 
L 320.755377 213.12 
L 321.090909 213.073662 
L 326.727273 212.295266 
L 332.363636 211.424686 
L 338 210.484966 
L 342.348293 209.76 
L 343.636364 209.545247 
L 349.272727 208.605528 
L 354.909091 207.665809 
L 360.545455 206.726089 
L 362.501312 206.4 
L 366.181818 205.78637 
L 371.818182 204.846651 
L 377.454545 203.906931 
L 382.654332 203.04 
L 383.090909 202.967212 
L 388.727273 202.027493 
L 394.363636 201.087773 
L 400 200.154588 
L 402.952695 199.68 
L 405.636364 199.248653 
L 411.272727 198.349948 
L 416.909091 197.460882 
L 422.545455 196.571816 
L 424.141877 196.32 
L 428.181818 195.705928 
L 433.818182 194.8492 
L 439.454545 193.992472 
L 445.090909 193.135743 
L 446.247114 192.96 
L 450.727273 192.310513 
L 455.083154 191.679043 
M 502.734383 184.766527 
L 507.090909 184.133568 
L 512.727273 183.314662 
L 515.718959 182.88 
L 518.363636 182.495755 
L 524 181.676849 
L 529.636364 180.857942 
L 535.272727 180.039036 
L 538.845143 179.52 
L 540.909091 179.213105 
L 546.545455 178.27443 
L 552.181818 177.281159 
L 557.818182 176.287887 
L 558.543885 176.16 
L 563.454545 175.294616 
L 569.090909 174.317407 
L 574.727273 173.436571 
L 578.800618 172.8 
L 580.363636 172.555736 
L 586 171.6749 
L 591.636364 170.794064 
L 597.272727 169.913228 
L 600.300859 169.44 
L 602.909091 169.032393 
L 608.545455 168.151557 
L 614.181818 167.235436 
L 619.818182 166.278777 
L 620.958539 166.08 
L 625.454545 165.296294 
L 631.090909 164.31381 
L 636.727273 163.331326 
L 640.23436 162.72 
L 642.363636 162.348842 
L 648 161.366359 
" clip-path="url(#p2bac6c5e08)" style="fill: none; stroke: #000000; stroke-width: 1.5"/>
    <path d="M 90 187.621645 
L 95.636364 187.523893 
L 101.272727 187.426141 
L 106.909091 187.328388 
L 112.545455 187.230636 
L 118.181818 187.132884 
L 123.818182 187.035132 
L 129.454545 186.937379 
L 135.090909 186.839627 
L 140.727273 186.741875 
L 146.363636 186.644123 
L 152 186.54637 
L 157.636364 186.474597 
L 163.272727 186.46986 
L 167.608109 186.46986 
M 215.302123 179.95553 
L 218.448243 179.52 
L 219.636364 179.355524 
L 225.272727 178.575259 
L 230.909091 177.794995 
L 236.545455 177.014731 
L 242.181818 176.234466 
L 242.719737 176.16 
L 247.818182 175.454202 
L 253.454545 174.735326 
L 259.090909 174.041006 
L 264.727273 173.346686 
L 269.165172 172.8 
L 270.363636 172.652366 
L 276 171.958046 
L 281.636364 171.263726 
L 287.272727 170.569406 
L 292.909091 169.782376 
L 295.254362 169.44 
L 298.545455 168.959548 
L 304.181818 168.136719 
L 309.818182 167.313891 
L 315.454545 166.491062 
L 318.270317 166.08 
L 321.090909 165.668234 
L 326.727273 164.845405 
L 332.363636 164.021883 
L 338 163.197841 
L 341.268381 162.72 
L 343.636364 162.373798 
L 349.272727 161.549756 
L 354.909091 160.725713 
L 360.545455 159.901671 
L 364.250426 159.36 
L 366.181818 159.077628 
L 371.818182 158.253586 
L 377.454545 157.429543 
L 383.090909 156.605501 
L 387.232471 156 
L 388.727273 155.781458 
L 394.363636 154.953408 
L 400 154.10973 
L 405.636364 153.255304 
L 409.646081 152.64 
L 411.272727 152.390386 
L 416.909091 151.511479 
L 422.545455 150.632573 
L 428.181818 149.753667 
L 431.219408 149.28 
L 433.818182 148.886057 
L 439.454545 148.031653 
L 445.090909 147.177248 
L 450.727273 146.322844 
L 453.384765 145.92 
L 456.363636 145.49786 
L 462 144.699123 
L 467.636364 143.900385 
L 473.272727 143.101648 
L 477.094918 142.56 
L 478.909091 142.3001 
L 484.545455 141.446771 
L 490.181818 140.572726 
L 495.818182 139.710963 
L 499.16014 139.2 
L 501.454545 138.849201 
L 507.090909 137.987438 
L 512.727273 137.125675 
L 518.363636 136.263912 
L 521.136234 135.84 
L 524 135.402149 
L 529.636364 134.540386 
L 535.272727 133.678623 
L 540.909091 132.81686 
L 543.032481 132.48 
L 546.545455 131.909862 
L 552.181818 130.950906 
L 557.818182 129.99195 
L 562.943162 129.12 
L 563.454545 129.032995 
L 569.090909 128.083432 
L 574.727273 127.19023 
L 580.363636 126.297028 
L 583.752436 125.76 
L 586 125.403825 
L 591.636364 124.510623 
L 597.272727 123.617421 
L 602.909091 122.724219 
L 604.955005 122.4 
L 608.545455 121.831017 
L 614.181818 120.993322 
L 619.818182 120.177816 
L 625.454545 119.3692 
L 627.749198 119.04 
L 631.090909 118.560585 
L 636.727273 117.751969 
L 642.363636 116.943353 
L 648 116.134738 
" clip-path="url(#p2bac6c5e08)" style="fill: none; stroke: #000000; stroke-width: 1.5"/>
    <path d="M 90 143.122457 
L 95.636364 143.122457 
L 101.272727 143.122457 
L 106.909091 143.122457 
L 112.545455 143.122457 
L 118.181818 143.122457 
L 123.818182 143.122457 
L 129.454545 143.122457 
L 135.090909 143.122457 
L 140.727273 143.122457 
L 146.363636 143.122457 
L 152 143.122457 
L 157.636364 143.122457 
L 163.272727 143.122457 
L 168.909091 143.122457 
L 173.507453 142.56 
L 174.545455 142.433035 
L 180.181818 141.62871 
L 185.818182 140.824384 
L 191.454545 140.020058 
L 197.090909 139.215733 
L 197.201158 139.2 
L 202.727273 138.411407 
L 208.363636 137.607082 
L 214 136.802756 
L 219.636364 135.998431 
L 220.746578 135.84 
L 225.272727 135.194105 
L 230.909091 134.438985 
L 236.545455 133.775953 
L 242.181818 133.112921 
L 247.562211 132.48 
L 247.818182 132.449889 
L 253.454545 131.749565 
L 259.090909 131.034325 
L 264.727273 130.319084 
L 270.363636 129.603844 
L 274.176509 129.12 
L 276 128.888604 
L 281.636364 128.173363 
L 287.272727 127.458123 
L 292.909091 126.742882 
L 298.545455 125.935963 
L 299.708626 125.76 
L 304.181818 125.079942 
L 309.818182 124.223046 
L 315.454545 123.366151 
L 321.090909 122.509256 
L 321.809556 122.4 
L 326.727273 121.65236 
L 332.363636 120.864925 
L 338 120.129583 
L 343.636364 119.394242 
L 346.351616 119.04 
L 349.272727 118.658901 
L 354.909091 117.923559 
L 360.545455 117.188218 
L 366.181818 116.452877 
L 371.818182 115.717536 
L 372.105891 115.68 
L 377.454545 114.982194 
L 383.090909 114.245895 
L 388.727273 113.507771 
L 394.363636 112.767865 
L 397.775332 112.32 
L 400 112.02796 
L 405.636364 111.288055 
L 411.272727 110.522936 
L 416.909091 109.724199 
L 422.30173 108.96 
L 422.545455 108.925084 
L 428.181818 108.073615 
L 433.818182 107.194657 
L 439.454545 106.315699 
L 444.044006 105.6 
L 445.090909 105.436742 
L 450.727273 104.557784 
L 456.363636 103.678826 
L 462 102.799869 
L 463.630977 102.545527 
M 511.2433 95.371995 
L 512.727273 95.152022 
L 518.363636 94.31653 
L 524 93.481037 
L 529.636364 92.645544 
L 532.911919 92.16 
L 535.272727 91.810051 
L 540.909091 90.974559 
L 546.545455 90.139066 
L 552.181818 89.303573 
L 555.579001 88.8 
L 557.818182 88.46808 
L 563.454545 87.632588 
L 569.090909 86.805279 
L 574.727273 86.027074 
L 578.97932 85.44 
L 580.363636 85.248869 
L 586 84.470665 
L 591.636364 83.69246 
L 597.272727 82.914255 
L 602.909091 82.13605 
L 603.315051 82.08 
L 608.545455 81.357846 
L 614.181818 80.568429 
L 619.818182 79.650363 
L 625.036826 78.72 
L 625.454545 78.64553 
L 631.090909 77.640697 
L 636.727273 76.635864 
L 642.363636 75.631031 
L 643.883916 75.36 
L 648 74.626198 
" clip-path="url(#p2bac6c5e08)" style="fill: none; stroke: #000000; stroke-width: 1.5"/>
    <path d="M 90 101.678782 
L 95.636364 101.678782 
L 101.272727 101.678782 
L 106.909091 101.678782 
L 112.545455 101.678782 
L 118.181818 101.678782 
L 123.818182 101.678782 
L 129.454545 101.678782 
L 135.090909 101.678782 
L 140.727273 101.678782 
L 146.363636 101.678782 
L 152 101.678782 
L 157.636364 101.678782 
L 163.272727 101.678782 
L 168.909091 101.678782 
L 174.545455 101.040373 
L 180.181818 100.386061 
L 185.818182 99.731749 
L 191.454545 99.077436 
L 193.155298 98.88 
L 197.090909 98.456539 
L 202.727273 97.850081 
L 208.363636 97.243623 
L 212.563875 96.791688 
M 260.475796 91.219263 
L 264.727273 90.614351 
L 270.363636 89.829168 
L 276 89.056923 
L 277.875197 88.8 
L 281.636364 88.284678 
L 287.272727 87.512433 
L 292.909091 86.740188 
L 298.545455 85.967943 
L 302.398739 85.44 
L 304.181818 85.195698 
L 309.818182 84.423453 
L 315.454545 83.651208 
L 321.090909 82.878963 
L 326.727273 82.106718 
L 326.939482 82.08 
L 332.363636 81.397071 
L 338 80.734372 
L 343.636364 80.071673 
L 349.272727 79.408974 
L 354.909091 78.746275 
L 355.132564 78.72 
L 360.545455 78.083576 
L 366.181818 77.420877 
L 371.818182 76.724409 
L 377.454545 75.956795 
L 381.73708 75.36 
L 383.090909 75.171336 
L 388.727273 74.385878 
L 394.363636 73.600419 
L 400 72.814961 
L 405.636364 72.029502 
L 405.847983 72 
L 411.272727 71.243736 
L 416.909091 70.457559 
L 422.545455 69.671383 
L 428.181818 68.885207 
L 429.939788 68.64 
L 433.818182 68.09903 
L 439.454545 67.312854 
L 445.090909 66.526678 
L 450.727273 65.740501 
L 454.028762 65.28 
L 456.363636 64.954325 
L 462 64.168149 
L 467.636364 63.379977 
L 473.272727 62.588009 
L 477.988415 61.92 
L 478.909091 61.78958 
L 484.545455 60.991151 
L 490.181818 60.195947 
L 495.818182 59.408806 
L 501.454545 58.621664 
L 501.896093 58.56 
L 507.090909 57.834522 
L 512.727273 57.047381 
L 518.363636 56.260239 
L 524 55.473097 
L 525.955526 55.2 
L 529.636364 54.685956 
L 535.272727 53.898814 
L 540.909091 53.111672 
L 546.545455 52.324531 
L 550.014959 51.84 
" clip-path="url(#p2bac6c5e08)" style="fill: none; stroke: #000000; stroke-width: 1.5"/>
    <path d="M 90 63.636105 
L 95.636364 63.636105 
L 101.272727 63.636105 
L 106.909091 63.636105 
L 112.545455 63.636105 
L 118.181818 63.636105 
L 123.818182 63.636105 
L 129.454545 63.636105 
L 135.090909 63.636105 
L 140.727273 63.636105 
L 146.363636 63.636105 
L 152 63.636105 
L 157.636364 63.636105 
L 163.272727 63.636105 
L 167.467532 63.636105 
M 215.429345 59.452163 
L 219.636364 59.067128 
L 225.177397 58.56 
L 225.272727 58.551275 
L 230.909091 58.035423 
L 236.545455 57.51957 
L 242.181818 56.962298 
L 247.818182 56.370382 
L 253.454545 55.610094 
L 256.267131 55.2 
L 259.090909 54.788274 
L 264.727273 53.966454 
L 270.363636 53.144634 
L 276 52.322814 
L 279.31133 51.84 
" clip-path="url(#p2bac6c5e08)" style="fill: none; stroke: #000000; stroke-width: 1.5"/>
    <path clip-path="url(#p2bac6c5e08)" style="fill: none; stroke: #000000; stroke-width: 1.5"/>
    <path clip-path="url(#p2bac6c5e08)" style="fill: none; stroke: #000000; stroke-width: 1.5"/>
   </g>
   <g id="patch_3">
    <path d="M 90 384.48 
L 90 51.84 
" style="fill: none; stroke: #000000; stroke-width: 0.8; stroke-linejoin: miter; stroke-linecap: square"/>
   </g>
   <g id="patch_4">
    <path d="M 648 384.48 
L 648 51.84 
" style="fill: none; stroke: #000000; stroke-width: 0.8; stroke-linejoin: miter; stroke-linecap: square"/>
   </g>
   <g id="patch_5">
    <path d="M 90 384.48 
L 648 384.48 
" style="fill: none; stroke: #000000; stroke-width: 0.8; stroke-linejoin: miter; stroke-linecap: square"/>
   </g>
   <g id="patch_6">
    <path d="M 90 51.84 
L 648 51.84 
" style="fill: none; stroke: #000000; stroke-width: 0.8; stroke-linejoin: miter; stroke-linecap: square"/>
   </g>
   <g id="text_18">
    <g clip-path="url(#p2bac6c5e08)">
     <!-- 1000.00 -->
     <g transform="translate(453.388013 304.780145) rotate(-9.986959) scale(0.1 -0.1)">
      <defs>
       <path id="DejaVuSans-2e" d="M 684 794 
L 1344 794 
L 1344 0 
L 684 0 
L 684 794 
z
" transform="scale(0.015625)"/>
      </defs>
      <use xlink:href="#DejaVuSans-31"/>
      <use xlink:href="#DejaVuSans-30" x="63.623047"/>
      <use xlink:href="#DejaVuSans-30" x="127.246094"/>
      <use xlink:href="#DejaVuSans-30" x="190.869141"/>
      <use xlink:href="#DejaVuSans-2e" x="254.492188"/>
      <use xlink:href="#DejaVuSans-30" x="286.279297"/>
      <use xlink:href="#DejaVuSans-30" x="349.902344"/>
     </g>
    </g>
   </g>
   <g id="text_19">
    <g clip-path="url(#p2bac6c5e08)">
     <!-- 2000.00 -->
     <g transform="translate(453.261949 245.61574) rotate(-8.802352) scale(0.1 -0.1)">
      <use xlink:href="#DejaVuSans-32"/>
      <use xlink:href="#DejaVuSans-30" x="63.623047"/>
      <use xlink:href="#DejaVuSans-30" x="127.246094"/>
      <use xlink:href="#DejaVuSans-30" x="190.869141"/>
      <use xlink:href="#DejaVuSans-2e" x="254.492188"/>
      <use xlink:href="#DejaVuSans-30" x="286.279297"/>
      <use xlink:href="#DejaVuSans-30" x="349.902344"/>
     </g>
    </g>
   </g>
   <g id="text_20">
    <g clip-path="url(#p2bac6c5e08)">
     <!-- 3000.00 -->
     <g transform="translate(458.842789 193.923944) rotate(-8.253382) scale(0.1 -0.1)">
      <defs>
       <path id="DejaVuSans-33" d="M 2597 2516 
Q 3050 2419 3304 2112 
Q 3559 1806 3559 1356 
Q 3559 666 3084 287 
Q 2609 -91 1734 -91 
Q 1441 -91 1130 -33 
Q 819 25 488 141 
L 488 750 
Q 750 597 1062 519 
Q 1375 441 1716 441 
Q 2309 441 2620 675 
Q 2931 909 2931 1356 
Q 2931 1769 2642 2001 
Q 2353 2234 1838 2234 
L 1294 2234 
L 1294 2753 
L 1863 2753 
Q 2328 2753 2575 2939 
Q 2822 3125 2822 3475 
Q 2822 3834 2567 4026 
Q 2313 4219 1838 4219 
Q 1578 4219 1281 4162 
Q 984 4106 628 3988 
L 628 4550 
Q 988 4650 1302 4700 
Q 1616 4750 1894 4750 
Q 2613 4750 3031 4423 
Q 3450 4097 3450 3541 
Q 3450 3153 3228 2886 
Q 3006 2619 2597 2516 
z
" transform="scale(0.015625)"/>
      </defs>
      <use xlink:href="#DejaVuSans-33"/>
      <use xlink:href="#DejaVuSans-30" x="63.623047"/>
      <use xlink:href="#DejaVuSans-30" x="127.246094"/>
      <use xlink:href="#DejaVuSans-30" x="190.869141"/>
      <use xlink:href="#DejaVuSans-2e" x="254.492188"/>
      <use xlink:href="#DejaVuSans-30" x="286.279297"/>
      <use xlink:href="#DejaVuSans-30" x="349.902344"/>
     </g>
    </g>
   </g>
   <g id="text_21">
    <g clip-path="url(#p2bac6c5e08)">
     <!-- 4000.00 -->
     <g transform="translate(171.36721 188.8812) rotate(-8.040533) scale(0.1 -0.1)">
      <use xlink:href="#DejaVuSans-34"/>
      <use xlink:href="#DejaVuSans-30" x="63.623047"/>
      <use xlink:href="#DejaVuSans-30" x="127.246094"/>
      <use xlink:href="#DejaVuSans-30" x="190.869141"/>
      <use xlink:href="#DejaVuSans-2e" x="254.492188"/>
      <use xlink:href="#DejaVuSans-30" x="286.279297"/>
      <use xlink:href="#DejaVuSans-30" x="349.902344"/>
     </g>
    </g>
   </g>
   <g id="text_22">
    <g clip-path="url(#p2bac6c5e08)">
     <!-- 5000.00 -->
     <g transform="translate(467.389666 104.685874) rotate(-8.558953) scale(0.1 -0.1)">
      <use xlink:href="#DejaVuSans-35"/>
      <use xlink:href="#DejaVuSans-30" x="63.623047"/>
      <use xlink:href="#DejaVuSans-30" x="127.246094"/>
      <use xlink:href="#DejaVuSans-30" x="190.869141"/>
      <use xlink:href="#DejaVuSans-2e" x="254.492188"/>
      <use xlink:href="#DejaVuSans-30" x="286.279297"/>
      <use xlink:href="#DejaVuSans-30" x="349.902344"/>
     </g>
    </g>
   </g>
   <g id="text_23">
    <g clip-path="url(#p2bac6c5e08)">
     <!-- 6000.00 -->
     <g transform="translate(216.31757 99.307122) rotate(-6.538232) scale(0.1 -0.1)">
      <use xlink:href="#DejaVuSans-36"/>
      <use xlink:href="#DejaVuSans-30" x="63.623047"/>
      <use xlink:href="#DejaVuSans-30" x="127.246094"/>
      <use xlink:href="#DejaVuSans-30" x="190.869141"/>
      <use xlink:href="#DejaVuSans-2e" x="254.492188"/>
      <use xlink:href="#DejaVuSans-30" x="286.279297"/>
      <use xlink:href="#DejaVuSans-30" x="349.902344"/>
     </g>
    </g>
   </g>
   <g id="text_24">
    <g clip-path="url(#p2bac6c5e08)">
     <!-- 7000.00 -->
     <g transform="translate(171.110412 66.256231) rotate(-5.165788) scale(0.1 -0.1)">
      <use xlink:href="#DejaVuSans-37"/>
      <use xlink:href="#DejaVuSans-30" x="63.623047"/>
      <use xlink:href="#DejaVuSans-30" x="127.246094"/>
      <use xlink:href="#DejaVuSans-30" x="190.869141"/>
      <use xlink:href="#DejaVuSans-2e" x="254.492188"/>
      <use xlink:href="#DejaVuSans-30" x="286.279297"/>
      <use xlink:href="#DejaVuSans-30" x="349.902344"/>
     </g>
    </g>
   </g>
  </g>
 </g>
 <defs>
  <clipPath id="p2bac6c5e08">
   <rect x="90" y="51.84" width="558" height="332.64"/>
  </clipPath>
 </defs>
</svg>
