<?xml version="1.0" encoding="utf-8" standalone="no"?>
<!DOCTYPE svg PUBLIC "-//W3C//DTD SVG 1.1//EN"
  "http://www.w3.org/Graphics/SVG/1.1/DTD/svg11.dtd">
<svg xmlns:xlink="http://www.w3.org/1999/xlink" width="720pt" height="432pt" viewBox="0 0 720 432" xmlns="http://www.w3.org/2000/svg" version="1.1">
 <metadata>
  <rdf:RDF xmlns:dc="http://purl.org/dc/elements/1.1/" xmlns:cc="http://creativecommons.org/ns#" xmlns:rdf="http://www.w3.org/1999/02/22-rdf-syntax-ns#">
   <cc:Work>
    <dc:type rdf:resource="http://purl.org/dc/dcmitype/StillImage"/>
    <dc:date>2024-06-14T15:13:08.634618</dc:date>
    <dc:format>image/svg+xml</dc:format>
    <dc:creator>
     <cc:Agent>
      <dc:title>Matplotlib v3.8.3, https://matplotlib.org/</dc:title>
     </cc:Agent>
    </dc:creator>
   </cc:Work>
  </rdf:RDF>
 </metadata>
 <defs>
  <style type="text/css">*{stroke-linejoin: round; stroke-linecap: butt}</style>
 </defs>
 <g id="figure_1">
  <g id="patch_1">
   <path d="M 0 432 
L 720 432 
L 720 0 
L 0 0 
z
" style="fill: #ffffff"/>
  </g>
  <g id="axes_1">
   <g id="patch_2">
    <path d="M 90 384.48 
L 648 384.48 
L 648 51.84 
L 90 51.84 
z
" style="fill: #ffffff"/>
   </g>
   <g id="QuadContourSet_1">
    <path d="M 225.272727 384.48 
L 230.909091 384.48 
L 236.545455 384.48 
L 242.181818 384.48 
L 247.818182 384.48 
L 253.454545 384.48 
L 259.090909 384.48 
L 264.727273 384.48 
L 270.363636 384.48 
L 276 384.48 
L 281.636364 384.48 
L 287.272727 384.48 
L 292.909091 384.48 
L 298.545455 384.48 
L 304.181818 384.48 
L 309.818182 384.48 
L 315.454545 384.48 
L 321.090909 384.48 
L 326.727273 384.48 
L 332.363636 381.12 
L 338 381.12 
L 343.636364 381.12 
L 349.272727 377.76 
L 354.909091 377.76 
L 360.545455 377.76 
L 366.181818 374.4 
L 371.818182 374.4 
L 377.454545 374.4 
L 383.090909 371.04 
L 388.727273 371.04 
L 394.363636 371.04 
L 400 367.68 
L 405.636364 367.68 
L 411.272727 367.68 
L 416.909091 364.32 
L 422.545455 364.32 
L 428.181818 364.32 
L 433.818182 360.96 
L 439.454545 360.96 
L 445.090909 360.96 
L 450.727273 357.6 
L 456.363636 357.6 
L 462 357.6 
L 467.636364 354.24 
L 473.272727 354.24 
L 478.909091 354.24 
L 484.545455 350.88 
L 490.181818 350.88 
L 495.818182 350.88 
L 501.454545 347.52 
L 507.090909 347.52 
L 512.727273 347.52 
L 518.363636 344.16 
L 524 344.16 
L 529.636364 344.16 
L 535.272727 340.8 
L 540.909091 340.8 
L 546.545455 340.8 
L 552.181818 337.44 
L 557.818182 337.44 
L 563.454545 337.44 
L 569.090909 334.08 
L 574.727273 330.72 
L 580.363636 327.36 
L 586 324 
L 590.894399 321.082307 
L 586 321.822507 
L 580.363636 322.674917 
L 574.727273 323.527328 
L 571.601839 324 
L 569.090909 324.379738 
L 563.454545 325.245231 
L 557.818182 326.112905 
L 552.181818 326.980578 
L 550.256792 327.36 
L 546.545455 328.148593 
L 540.909091 329.346221 
L 535.272727 330.543848 
L 534.443707 330.72 
L 529.636364 331.741475 
L 524 332.939102 
L 518.630622 334.08 
L 518.363636 334.135048 
L 512.727273 335.297171 
L 507.090909 336.459294 
L 502.334427 337.44 
L 501.454545 337.594021 
L 495.818182 338.580649 
L 490.181818 339.567277 
L 484.545455 340.55078 
L 483.139573 340.8 
L 478.909091 341.540533 
L 473.272727 342.50643 
L 467.636364 343.485607 
L 463.780077 344.16 
L 462 344.462081 
L 456.363636 345.398384 
L 450.727273 346.363913 
L 445.090909 347.307454 
L 443.82124 347.52 
L 439.454545 348.250996 
L 433.818182 349.194537 
L 428.181818 350.138079 
L 423.749858 350.88 
L 422.545455 351.08162 
L 416.909091 352.025162 
L 411.272727 352.968703 
L 405.636364 353.912245 
L 403.678476 354.24 
L 400 354.855786 
L 394.363636 355.799328 
L 388.727273 356.742869 
L 383.607095 357.6 
L 383.090909 357.686411 
L 377.454545 358.629952 
L 371.818182 359.558848 
L 366.181818 360.469962 
L 363.054275 360.96 
L 360.545455 361.353093 
L 354.909091 362.236225 
L 349.272727 363.119356 
L 343.636364 364.002487 
L 341.60992 364.32 
L 338 364.885619 
L 332.363636 365.76875 
L 326.727273 366.579945 
L 321.090909 367.295225 
L 318.058902 367.68 
L 315.454545 368.010504 
L 309.818182 368.725784 
L 304.181818 369.506554 
L 298.545455 370.513901 
L 295.818373 371.04 
L 292.909091 371.601249 
L 287.272727 372.688596 
L 281.636364 373.775944 
L 278.401513 374.4 
L 276 374.863292 
L 270.363636 375.950639 
L 264.727273 377.037987 
L 260.984653 377.76 
L 259.090909 378.125335 
L 253.454545 379.212682 
L 247.818182 380.197276 
L 242.181818 380.996644 
L 241.493733 381.12 
L 236.545455 382.060324 
L 230.909091 383.131404 
L 225.272727 384.202485 
L 223.812356 384.48 
z
" clip-path="url(#p88e1820fd9)" style="fill: #481668"/>
    <path d="M 95.636364 384.48 
L 101.272727 384.48 
L 106.909091 384.48 
L 112.545455 384.48 
L 118.181818 384.48 
L 123.818182 384.48 
L 129.454545 384.48 
L 135.090909 384.48 
L 140.727273 384.48 
L 146.363636 384.48 
L 152 384.48 
L 157.636364 384.48 
L 163.272727 384.48 
L 168.909091 384.48 
L 174.545455 384.48 
L 180.181818 384.48 
L 185.818182 384.48 
L 191.454545 384.48 
L 197.090909 384.48 
L 202.727273 384.48 
L 208.363636 384.48 
L 214 384.48 
L 219.636364 384.48 
L 223.812356 384.48 
L 225.272727 384.202485 
L 230.909091 383.131404 
L 236.545455 382.060324 
L 241.493733 381.12 
L 242.181818 380.996644 
L 247.818182 380.197276 
L 253.454545 379.212682 
L 259.090909 378.125335 
L 260.984653 377.76 
L 264.727273 377.037987 
L 270.363636 375.950639 
L 276 374.863292 
L 278.401513 374.4 
L 281.636364 373.775944 
L 287.272727 372.688596 
L 292.909091 371.601249 
L 295.818373 371.04 
L 298.545455 370.513901 
L 304.181818 369.506554 
L 309.818182 368.725784 
L 315.454545 368.010504 
L 318.058902 367.68 
L 321.090909 367.295225 
L 326.727273 366.579945 
L 332.363636 365.76875 
L 338 364.885619 
L 341.60992 364.32 
L 343.636364 364.002487 
L 349.272727 363.119356 
L 354.909091 362.236225 
L 360.545455 361.353093 
L 363.054275 360.96 
L 366.181818 360.469962 
L 371.818182 359.558848 
L 377.454545 358.629952 
L 383.090909 357.686411 
L 383.607095 357.6 
L 388.727273 356.742869 
L 394.363636 355.799328 
L 400 354.855786 
L 403.678476 354.24 
L 405.636364 353.912245 
L 411.272727 352.968703 
L 416.909091 352.025162 
L 422.545455 351.08162 
L 423.749858 350.88 
L 428.181818 350.138079 
L 433.818182 349.194537 
L 439.454545 348.250996 
L 443.82124 347.52 
L 445.090909 347.307454 
L 450.727273 346.363913 
L 456.363636 345.398384 
L 462 344.462081 
L 463.780077 344.16 
L 467.636364 343.485607 
L 473.272727 342.50643 
L 478.909091 341.540533 
L 483.139573 340.8 
L 484.545455 340.55078 
L 490.181818 339.567277 
L 495.818182 338.580649 
L 501.454545 337.594021 
L 502.334427 337.44 
L 507.090909 336.459294 
L 512.727273 335.297171 
L 518.363636 334.135048 
L 518.630622 334.08 
L 524 332.939102 
L 529.636364 331.741475 
L 534.443707 330.72 
L 535.272727 330.543848 
L 540.909091 329.346221 
L 546.545455 328.148593 
L 550.256792 327.36 
L 552.181818 326.980578 
L 557.818182 326.112905 
L 563.454545 325.245231 
L 569.090909 324.379738 
L 571.601839 324 
L 574.727273 323.527328 
L 580.363636 322.674917 
L 586 321.822507 
L 590.894399 321.082307 
L 591.636364 320.64 
L 597.272727 317.28 
L 602.909091 313.92 
L 608.545455 310.56 
L 614.181818 307.2 
L 619.818182 303.84 
L 625.454545 300.48 
L 631.090909 297.12 
L 636.727273 293.76 
L 642.363636 290.4 
L 648 287.04 
L 648 284.733402 
L 642.363636 285.658636 
L 636.727273 286.641126 
L 634.486157 287.04 
L 631.090909 287.615221 
L 625.454545 288.570131 
L 619.818182 289.525041 
L 614.653726 290.4 
L 614.181818 290.471369 
L 608.545455 291.323779 
L 602.909091 292.17619 
L 597.272727 293.0286 
L 592.436518 293.76 
L 591.636364 293.881011 
L 586 294.733421 
L 580.363636 295.585832 
L 574.727273 296.438242 
L 570.21931 297.12 
L 569.090909 297.290653 
L 563.454545 298.156146 
L 557.818182 299.023819 
L 552.181818 299.891493 
L 548.358906 300.48 
L 546.545455 300.759166 
L 540.909091 301.62684 
L 535.272727 302.494514 
L 529.636364 303.362187 
L 526.532515 303.84 
L 524 304.229861 
L 518.363636 305.097534 
L 512.727273 306.131072 
L 507.696603 307.2 
L 507.090909 307.328699 
L 501.454545 308.526326 
L 495.818182 309.723954 
L 491.883518 310.56 
L 490.181818 310.921581 
L 484.545455 312.033988 
L 478.909091 313.112307 
L 474.687285 313.92 
L 473.272727 314.190626 
L 467.636364 315.268944 
L 462 316.347263 
L 457.124592 317.28 
L 456.363636 317.425582 
L 450.727273 318.503901 
L 445.090909 319.58222 
L 439.5619 320.64 
L 439.454545 320.660538 
L 433.818182 321.670196 
L 428.181818 322.623498 
L 422.545455 323.53333 
L 419.654456 324 
L 416.909091 324.443162 
L 411.272727 325.352994 
L 405.636364 326.26448 
L 400 327.177208 
L 398.871202 327.36 
L 394.363636 328.113092 
L 388.727273 329.184527 
L 383.090909 330.289468 
L 380.894746 330.72 
L 377.454545 331.39441 
L 371.818182 332.499352 
L 366.181818 333.604293 
L 363.755215 334.08 
L 360.545455 334.68744 
L 354.909091 335.754109 
L 349.272727 336.820778 
L 346.000709 337.44 
L 343.636364 337.810456 
L 338 338.693588 
L 332.363636 339.576719 
L 326.727273 340.387914 
L 323.480058 340.8 
L 321.090909 341.103194 
L 315.454545 341.818473 
L 309.818182 342.533753 
L 304.181818 343.249033 
L 298.545455 343.964312 
L 297.003448 344.16 
L 292.909091 344.679592 
L 287.272727 345.394872 
L 281.636364 346.110152 
L 276 346.825431 
L 270.526838 347.52 
L 270.363636 347.541481 
L 264.727273 348.454656 
L 259.090909 349.542004 
L 253.454545 350.629351 
L 252.019692 350.88 
L 247.818182 351.613945 
L 242.181818 352.341652 
L 236.545455 353.06936 
L 230.909091 353.797068 
L 227.478418 354.24 
L 225.272727 354.524776 
L 219.636364 355.252483 
L 214 355.980191 
L 208.363636 356.707899 
L 202.727273 357.507961 
L 202.213873 357.6 
L 197.090909 358.573519 
L 191.454545 359.6446 
L 185.818182 360.71568 
L 184.532495 360.96 
L 180.181818 361.786761 
L 174.545455 362.857842 
L 168.909091 363.87035 
L 165.07533 364.32 
L 163.272727 364.531422 
L 157.636364 365.192494 
L 152 365.853566 
L 146.363636 366.514638 
L 140.727273 367.17571 
L 136.427646 367.68 
L 135.090909 367.836782 
L 129.454545 368.497854 
L 123.818182 369.158926 
L 118.181818 369.819998 
L 112.545455 370.442335 
L 106.909091 370.916369 
L 105.439091 371.04 
L 101.272727 371.390403 
L 95.636364 371.864436 
L 90 372.33847 
L 90 374.4 
L 90 377.76 
L 90 381.12 
L 90 384.48 
z
" clip-path="url(#p88e1820fd9)" style="fill: #443983"/>
    <path d="M 95.636364 371.864436 
L 101.272727 371.390403 
L 105.439091 371.04 
L 106.909091 370.916369 
L 112.545455 370.442335 
L 118.181818 369.819998 
L 123.818182 369.158926 
L 129.454545 368.497854 
L 135.090909 367.836782 
L 136.427646 367.68 
L 140.727273 367.17571 
L 146.363636 366.514638 
L 152 365.853566 
L 157.636364 365.192494 
L 163.272727 364.531422 
L 165.07533 364.32 
L 168.909091 363.87035 
L 174.545455 362.857842 
L 180.181818 361.786761 
L 184.532495 360.96 
L 185.818182 360.71568 
L 191.454545 359.6446 
L 197.090909 358.573519 
L 202.213873 357.6 
L 202.727273 357.507961 
L 208.363636 356.707899 
L 214 355.980191 
L 219.636364 355.252483 
L 225.272727 354.524776 
L 227.478418 354.24 
L 230.909091 353.797068 
L 236.545455 353.06936 
L 242.181818 352.341652 
L 247.818182 351.613945 
L 252.019692 350.88 
L 253.454545 350.629351 
L 259.090909 349.542004 
L 264.727273 348.454656 
L 270.363636 347.541481 
L 270.526838 347.52 
L 276 346.825431 
L 281.636364 346.110152 
L 287.272727 345.394872 
L 292.909091 344.679592 
L 297.003448 344.16 
L 298.545455 343.964312 
L 304.181818 343.249033 
L 309.818182 342.533753 
L 315.454545 341.818473 
L 321.090909 341.103194 
L 323.480058 340.8 
L 326.727273 340.387914 
L 332.363636 339.576719 
L 338 338.693588 
L 343.636364 337.810456 
L 346.000709 337.44 
L 349.272727 336.820778 
L 354.909091 335.754109 
L 360.545455 334.68744 
L 363.755215 334.08 
L 366.181818 333.604293 
L 371.818182 332.499352 
L 377.454545 331.39441 
L 380.894746 330.72 
L 383.090909 330.289468 
L 388.727273 329.184527 
L 394.363636 328.113092 
L 398.871202 327.36 
L 400 327.177208 
L 405.636364 326.26448 
L 411.272727 325.352994 
L 416.909091 324.443162 
L 419.654456 324 
L 422.545455 323.53333 
L 428.181818 322.623498 
L 433.818182 321.670196 
L 439.454545 320.660538 
L 439.5619 320.64 
L 445.090909 319.58222 
L 450.727273 318.503901 
L 456.363636 317.425582 
L 457.124592 317.28 
L 462 316.347263 
L 467.636364 315.268944 
L 473.272727 314.190626 
L 474.687285 313.92 
L 478.909091 313.112307 
L 484.545455 312.033988 
L 490.181818 310.921581 
L 491.883518 310.56 
L 495.818182 309.723954 
L 501.454545 308.526326 
L 507.090909 307.328699 
L 507.696603 307.2 
L 512.727273 306.131072 
L 518.363636 305.097534 
L 524 304.229861 
L 526.532515 303.84 
L 529.636364 303.362187 
L 535.272727 302.494514 
L 540.909091 301.62684 
L 546.545455 300.759166 
L 548.358906 300.48 
L 552.181818 299.891493 
L 557.818182 299.023819 
L 563.454545 298.156146 
L 569.090909 297.290653 
L 570.21931 297.12 
L 574.727273 296.438242 
L 580.363636 295.585832 
L 586 294.733421 
L 591.636364 293.881011 
L 592.436518 293.76 
L 597.272727 293.0286 
L 602.909091 292.17619 
L 608.545455 291.323779 
L 614.181818 290.471369 
L 614.653726 290.4 
L 619.818182 289.525041 
L 625.454545 288.570131 
L 631.090909 287.615221 
L 634.486157 287.04 
L 636.727273 286.641126 
L 642.363636 285.658636 
L 648 284.733402 
L 648 283.68 
L 648 280.32 
L 648 276.96 
L 648 273.6 
L 648 270.24 
L 648 266.88 
L 648 263.52 
L 648 260.16 
L 648 256.8 
L 648 253.507718 
L 642.363636 254.421351 
L 636.727273 255.334984 
L 631.090909 256.248618 
L 627.689336 256.8 
L 625.454545 257.162251 
L 619.818182 258.075885 
L 614.181818 258.989518 
L 608.545455 259.903151 
L 606.96091 260.16 
L 602.909091 260.820658 
L 597.272727 261.783427 
L 591.636364 262.786587 
L 587.515606 263.52 
L 586 263.789748 
L 580.363636 264.792908 
L 574.727273 265.796068 
L 569.090909 266.799229 
L 568.643946 266.88 
L 563.454545 267.817785 
L 557.818182 268.838908 
L 552.181818 269.86003 
L 550.084472 270.24 
L 546.545455 270.881153 
L 540.909091 271.902275 
L 535.272727 272.923398 
L 531.538038 273.6 
L 529.636364 273.944521 
L 524 274.965643 
L 518.363636 275.986766 
L 512.991605 276.96 
L 512.727273 277.007888 
L 507.090909 277.934567 
L 501.454545 278.774311 
L 495.818182 279.557372 
L 490.328898 280.32 
L 490.181818 280.340434 
L 484.545455 281.129216 
L 478.909091 281.920287 
L 473.272727 282.885435 
L 469.176245 283.68 
L 467.636364 283.97868 
L 462 285.071925 
L 456.363636 286.16517 
L 451.853338 287.04 
L 450.727273 287.24652 
L 445.090909 288.280226 
L 439.454545 289.313933 
L 433.818182 290.347639 
L 433.53268 290.4 
L 428.181818 291.263746 
L 422.545455 292.173578 
L 416.909091 293.083409 
L 412.717646 293.76 
L 411.272727 293.993241 
L 405.636364 294.904728 
L 400 295.817455 
L 394.363636 296.730183 
L 391.956398 297.12 
L 388.727273 297.64291 
L 383.090909 298.555637 
L 377.454545 299.468365 
L 371.818182 300.381092 
L 371.207396 300.48 
L 366.181818 301.29382 
L 360.545455 302.206547 
L 354.909091 303.119274 
L 350.910975 303.84 
L 349.272727 304.148606 
L 343.636364 305.253548 
L 338 306.35849 
L 333.707413 307.2 
L 332.363636 307.463431 
L 326.727273 308.478369 
L 321.090909 309.3733 
L 315.454545 310.268232 
L 313.616965 310.56 
L 309.818182 311.163164 
L 304.181818 312.058096 
L 298.545455 312.953028 
L 292.909091 313.847432 
L 292.442642 313.92 
L 287.272727 314.724311 
L 281.636364 315.524033 
L 276 316.28679 
L 270.363636 317.049546 
L 268.660706 317.28 
L 264.727273 317.812303 
L 259.090909 318.575059 
L 253.454545 319.337815 
L 247.818182 320.133797 
L 244.572452 320.64 
L 242.181818 321.012842 
L 236.545455 321.891887 
L 230.909091 322.770932 
L 225.272727 323.649977 
L 223.028411 324 
L 219.636364 324.529022 
L 214 325.408067 
L 208.363636 326.287112 
L 202.727273 327.166157 
L 201.48437 327.36 
L 197.090909 328.045202 
L 191.454545 328.924247 
L 185.818182 329.803292 
L 180.181818 330.680147 
L 179.876116 330.72 
L 174.545455 331.414928 
L 168.909091 332.088858 
L 163.272727 332.42877 
L 157.636364 332.906853 
L 152 333.465127 
L 146.363636 334.023401 
L 145.792214 334.08 
L 140.727273 334.569255 
L 135.090909 335.113707 
L 129.454545 335.658159 
L 123.818182 336.202611 
L 118.181818 336.747062 
L 112.545455 337.291514 
L 111.008278 337.44 
L 106.909091 337.784753 
L 101.272727 338.258787 
L 95.636364 338.73282 
L 90 339.206854 
L 90 340.8 
L 90 344.16 
L 90 347.52 
L 90 350.88 
L 90 354.24 
L 90 357.6 
L 90 360.96 
L 90 364.32 
L 90 367.68 
L 90 371.04 
L 90 372.33847 
z
" clip-path="url(#p88e1820fd9)" style="fill: #375a8c"/>
    <path d="M 95.636364 338.73282 
L 101.272727 338.258787 
L 106.909091 337.784753 
L 111.008278 337.44 
L 112.545455 337.291514 
L 118.181818 336.747062 
L 123.818182 336.202611 
L 129.454545 335.658159 
L 135.090909 335.113707 
L 140.727273 334.569255 
L 145.792214 334.08 
L 146.363636 334.023401 
L 152 333.465127 
L 157.636364 332.906853 
L 163.272727 332.42877 
L 168.909091 332.088858 
L 174.545455 331.414928 
L 179.876116 330.72 
L 180.181818 330.680147 
L 185.818182 329.803292 
L 191.454545 328.924247 
L 197.090909 328.045202 
L 201.48437 327.36 
L 202.727273 327.166157 
L 208.363636 326.287112 
L 214 325.408067 
L 219.636364 324.529022 
L 223.028411 324 
L 225.272727 323.649977 
L 230.909091 322.770932 
L 236.545455 321.891887 
L 242.181818 321.012842 
L 244.572452 320.64 
L 247.818182 320.133797 
L 253.454545 319.337815 
L 259.090909 318.575059 
L 264.727273 317.812303 
L 268.660706 317.28 
L 270.363636 317.049546 
L 276 316.28679 
L 281.636364 315.524033 
L 287.272727 314.724311 
L 292.442642 313.92 
L 292.909091 313.847432 
L 298.545455 312.953028 
L 304.181818 312.058096 
L 309.818182 311.163164 
L 313.616965 310.56 
L 315.454545 310.268232 
L 321.090909 309.3733 
L 326.727273 308.478369 
L 332.363636 307.463431 
L 333.707413 307.2 
L 338 306.35849 
L 343.636364 305.253548 
L 349.272727 304.148606 
L 350.910975 303.84 
L 354.909091 303.119274 
L 360.545455 302.206547 
L 366.181818 301.29382 
L 371.207396 300.48 
L 371.818182 300.381092 
L 377.454545 299.468365 
L 383.090909 298.555637 
L 388.727273 297.64291 
L 391.956398 297.12 
L 394.363636 296.730183 
L 400 295.817455 
L 405.636364 294.904728 
L 411.272727 293.993241 
L 412.717646 293.76 
L 416.909091 293.083409 
L 422.545455 292.173578 
L 428.181818 291.263746 
L 433.53268 290.4 
L 433.818182 290.347639 
L 439.454545 289.313933 
L 445.090909 288.280226 
L 450.727273 287.24652 
L 451.853338 287.04 
L 456.363636 286.16517 
L 462 285.071925 
L 467.636364 283.97868 
L 469.176245 283.68 
L 473.272727 282.885435 
L 478.909091 281.920287 
L 484.545455 281.129216 
L 490.181818 280.340434 
L 490.328898 280.32 
L 495.818182 279.557372 
L 501.454545 278.774311 
L 507.090909 277.934567 
L 512.727273 277.007888 
L 512.991605 276.96 
L 518.363636 275.986766 
L 524 274.965643 
L 529.636364 273.944521 
L 531.538038 273.6 
L 535.272727 272.923398 
L 540.909091 271.902275 
L 546.545455 270.881153 
L 550.084472 270.24 
L 552.181818 269.86003 
L 557.818182 268.838908 
L 563.454545 267.817785 
L 568.643946 266.88 
L 569.090909 266.799229 
L 574.727273 265.796068 
L 580.363636 264.792908 
L 586 263.789748 
L 587.515606 263.52 
L 591.636364 262.786587 
L 597.272727 261.783427 
L 602.909091 260.820658 
L 606.96091 260.16 
L 608.545455 259.903151 
L 614.181818 258.989518 
L 619.818182 258.075885 
L 625.454545 257.162251 
L 627.689336 256.8 
L 631.090909 256.248618 
L 636.727273 255.334984 
L 642.363636 254.421351 
L 648 253.507718 
L 648 253.44 
L 648 250.08 
L 648 246.72 
L 648 243.36 
L 648 240 
L 648 236.64 
L 648 233.28 
L 648 229.92 
L 648 226.56 
L 648 223.2 
L 648 219.84 
L 648 217.448036 
L 642.363636 218.586566 
L 636.727273 219.725095 
L 636.158429 219.84 
L 631.090909 220.863625 
L 625.454545 222.002154 
L 619.818182 223.140683 
L 619.524531 223.2 
L 614.181818 224.279213 
L 608.545455 225.417742 
L 602.909091 226.556272 
L 602.890633 226.56 
L 597.272727 227.694801 
L 591.636364 228.812758 
L 586 229.908951 
L 585.939998 229.92 
L 580.363636 230.946807 
L 574.727273 231.984663 
L 569.090909 233.022519 
L 567.267483 233.28 
L 563.454545 233.818415 
L 557.818182 234.590842 
L 552.181818 235.471404 
L 546.545455 236.420955 
L 545.245241 236.64 
L 540.909091 237.370506 
L 535.272727 238.320056 
L 529.636364 239.269607 
L 525.300884 240 
L 524 240.200856 
L 518.363636 241.071109 
L 512.727273 241.941363 
L 507.090909 242.811616 
L 503.539193 243.36 
L 501.454545 243.649621 
L 495.818182 244.432682 
L 490.181818 245.215743 
L 484.545455 246.004525 
L 479.447712 246.72 
L 478.909091 246.795596 
L 473.272727 247.586667 
L 467.636364 248.377738 
L 462 249.168808 
L 456.363636 249.959879 
L 455.507776 250.08 
L 450.727273 250.75095 
L 445.090909 251.54202 
L 439.454545 252.333091 
L 433.818182 253.124162 
L 431.567841 253.44 
L 428.181818 253.949827 
L 422.545455 255.043072 
L 416.909091 256.136317 
L 413.487388 256.8 
L 411.272727 257.229562 
L 405.636364 258.324795 
L 400 259.421519 
L 396.204746 260.16 
L 394.363636 260.518243 
L 388.727273 261.614967 
L 383.090909 262.711692 
L 378.936793 263.52 
L 377.454545 263.808416 
L 371.818182 264.885039 
L 366.181818 265.898802 
L 360.545455 266.823778 
L 360.202862 266.88 
L 354.909091 267.748753 
L 349.272727 268.673729 
L 343.636364 269.598704 
L 339.728611 270.24 
L 338 270.52368 
L 332.363636 271.448655 
L 326.727273 272.271243 
L 321.090909 272.957312 
L 315.810945 273.6 
L 315.454545 273.643382 
L 309.818182 274.329451 
L 304.181818 275.081512 
L 298.545455 276.00098 
L 292.909091 276.956143 
L 292.88633 276.96 
L 287.272727 277.911306 
L 281.636364 278.866469 
L 276 279.821632 
L 273.059161 280.32 
L 270.363636 280.776796 
L 264.727273 281.731959 
L 259.090909 282.687122 
L 253.454545 283.642285 
L 253.226145 283.68 
L 247.818182 284.572992 
L 242.181818 285.442558 
L 236.545455 286.312124 
L 231.827501 287.04 
L 230.909091 287.174634 
L 225.272727 288.000895 
L 219.636364 288.827157 
L 214 289.653418 
L 208.907171 290.4 
L 208.363636 290.470857 
L 202.727273 291.205638 
L 197.090909 291.940418 
L 191.454545 292.675199 
L 185.818182 293.409979 
L 183.133238 293.76 
L 180.181818 294.14476 
L 174.545455 294.87954 
L 168.909091 295.553471 
L 163.272727 295.862302 
L 157.636364 296.171133 
L 152 296.479963 
L 146.363636 296.788794 
L 140.727273 297.097625 
L 140.318919 297.12 
L 135.090909 297.406456 
L 129.454545 297.715287 
L 123.818182 298.024118 
L 118.181818 298.332949 
L 112.545455 298.64178 
L 106.909091 298.984525 
L 101.272727 299.470172 
L 95.636364 300.028446 
L 91.077451 300.48 
L 90 300.58672 
L 90 303.84 
L 90 307.2 
L 90 310.56 
L 90 313.92 
L 90 317.28 
L 90 320.64 
L 90 324 
L 90 327.36 
L 90 330.72 
L 90 334.08 
L 90 337.44 
L 90 339.206854 
z
" clip-path="url(#p88e1820fd9)" style="fill: #2b758e"/>
    <path d="M 91.077451 300.48 
L 95.636364 300.028446 
L 101.272727 299.470172 
L 106.909091 298.984525 
L 112.545455 298.64178 
L 118.181818 298.332949 
L 123.818182 298.024118 
L 129.454545 297.715287 
L 135.090909 297.406456 
L 140.318919 297.12 
L 140.727273 297.097625 
L 146.363636 296.788794 
L 152 296.479963 
L 157.636364 296.171133 
L 163.272727 295.862302 
L 168.909091 295.553471 
L 174.545455 294.87954 
L 180.181818 294.14476 
L 183.133238 293.76 
L 185.818182 293.409979 
L 191.454545 292.675199 
L 197.090909 291.940418 
L 202.727273 291.205638 
L 208.363636 290.470857 
L 208.907171 290.4 
L 214 289.653418 
L 219.636364 288.827157 
L 225.272727 288.000895 
L 230.909091 287.174634 
L 231.827501 287.04 
L 236.545455 286.312124 
L 242.181818 285.442558 
L 247.818182 284.572992 
L 253.226145 283.68 
L 253.454545 283.642285 
L 259.090909 282.687122 
L 264.727273 281.731959 
L 270.363636 280.776796 
L 273.059161 280.32 
L 276 279.821632 
L 281.636364 278.866469 
L 287.272727 277.911306 
L 292.88633 276.96 
L 292.909091 276.956143 
L 298.545455 276.00098 
L 304.181818 275.081512 
L 309.818182 274.329451 
L 315.454545 273.643382 
L 315.810945 273.6 
L 321.090909 272.957312 
L 326.727273 272.271243 
L 332.363636 271.448655 
L 338 270.52368 
L 339.728611 270.24 
L 343.636364 269.598704 
L 349.272727 268.673729 
L 354.909091 267.748753 
L 360.202862 266.88 
L 360.545455 266.823778 
L 366.181818 265.898802 
L 371.818182 264.885039 
L 377.454545 263.808416 
L 378.936793 263.52 
L 383.090909 262.711692 
L 388.727273 261.614967 
L 394.363636 260.518243 
L 396.204746 260.16 
L 400 259.421519 
L 405.636364 258.324795 
L 411.272727 257.229562 
L 413.487388 256.8 
L 416.909091 256.136317 
L 422.545455 255.043072 
L 428.181818 253.949827 
L 431.567841 253.44 
L 433.818182 253.124162 
L 439.454545 252.333091 
L 445.090909 251.54202 
L 450.727273 250.75095 
L 455.507776 250.08 
L 456.363636 249.959879 
L 462 249.168808 
L 467.636364 248.377738 
L 473.272727 247.586667 
L 478.909091 246.795596 
L 479.447712 246.72 
L 484.545455 246.004525 
L 490.181818 245.215743 
L 495.818182 244.432682 
L 501.454545 243.649621 
L 503.539193 243.36 
L 507.090909 242.811616 
L 512.727273 241.941363 
L 518.363636 241.071109 
L 524 240.200856 
L 525.300884 240 
L 529.636364 239.269607 
L 535.272727 238.320056 
L 540.909091 237.370506 
L 545.245241 236.64 
L 546.545455 236.420955 
L 552.181818 235.471404 
L 557.818182 234.590842 
L 563.454545 233.818415 
L 567.267483 233.28 
L 569.090909 233.022519 
L 574.727273 231.984663 
L 580.363636 230.946807 
L 585.939998 229.92 
L 586 229.908951 
L 591.636364 228.812758 
L 597.272727 227.694801 
L 602.890633 226.56 
L 602.909091 226.556272 
L 608.545455 225.417742 
L 614.181818 224.279213 
L 619.524531 223.2 
L 619.818182 223.140683 
L 625.454545 222.002154 
L 631.090909 220.863625 
L 636.158429 219.84 
L 636.727273 219.725095 
L 642.363636 218.586566 
L 648 217.448036 
L 648 216.48 
L 648 213.12 
L 648 209.76 
L 648 206.4 
L 648 203.04 
L 648 199.68 
L 648 196.32 
L 648 192.96 
L 648 189.6 
L 648 186.24 
L 648 182.88 
L 648 179.52 
L 648 176.460066 
L 642.363636 177.582849 
L 636.727273 178.705632 
L 632.639149 179.52 
L 631.090909 179.828415 
L 625.454545 180.951198 
L 619.818182 182.073981 
L 615.771969 182.88 
L 614.181818 183.196764 
L 608.545455 184.319546 
L 602.909091 185.442329 
L 598.904789 186.24 
L 597.272727 186.565112 
L 591.636364 187.687895 
L 586 188.810678 
L 582.037609 189.6 
L 580.363636 189.933461 
L 574.727273 190.981661 
L 569.090909 191.914386 
L 563.454545 192.770864 
L 562.34237 192.96 
L 557.818182 193.632977 
L 552.181818 194.471391 
L 546.545455 195.309805 
L 540.909091 196.148219 
L 539.754267 196.32 
L 535.272727 196.920762 
L 529.636364 197.676331 
L 524 198.4319 
L 518.363636 199.187469 
L 514.689474 199.68 
L 512.727273 199.943038 
L 507.090909 200.698607 
L 501.454545 201.47729 
L 495.818182 202.37423 
L 491.866289 203.04 
L 490.181818 203.323781 
L 484.545455 204.280269 
L 478.909091 205.239532 
L 473.272727 206.196797 
L 472.048327 206.4 
L 467.636364 207.132215 
L 462 207.960389 
L 456.363636 208.742161 
L 450.727273 209.523934 
L 449.025303 209.76 
L 445.090909 210.305707 
L 439.454545 211.087479 
L 433.818182 211.869252 
L 428.181818 212.651025 
L 424.800638 213.12 
L 422.545455 213.432798 
L 416.909091 214.21457 
L 411.272727 214.996343 
L 405.636364 215.927749 
L 402.65381 216.48 
L 400 216.971381 
L 394.363636 218.015012 
L 388.727273 219.058643 
L 384.50738 219.84 
L 383.090909 220.102274 
L 377.454545 221.145906 
L 371.818182 222.189537 
L 366.36095 223.2 
L 366.181818 223.233168 
L 360.545455 224.276799 
L 354.909091 225.226233 
L 349.272727 226.093837 
L 346.244312 226.56 
L 343.636364 226.961441 
L 338 227.829045 
L 332.363636 228.696649 
L 326.727273 229.470663 
L 322.826289 229.92 
L 321.090909 230.119891 
L 315.454545 230.769118 
L 309.818182 231.492003 
L 304.181818 232.358299 
L 298.545455 233.239365 
L 298.285506 233.28 
L 292.909091 234.120432 
L 287.272727 235.001498 
L 281.636364 235.882565 
L 276.790897 236.64 
L 276 236.763632 
L 270.363636 237.644698 
L 264.727273 238.525765 
L 259.090909 239.406831 
L 255.296287 240 
L 253.454545 240.256637 
L 247.818182 241.057706 
L 242.181818 241.907947 
L 236.545455 242.791333 
L 232.917124 243.36 
L 230.909091 243.639823 
L 225.272727 244.42526 
L 219.636364 245.210698 
L 214 245.996135 
L 208.805486 246.72 
L 208.363636 246.781573 
L 202.727273 247.56701 
L 197.090909 248.352447 
L 191.454545 249.137885 
L 185.818182 249.923322 
L 184.693847 250.08 
L 180.181818 250.708759 
L 174.545455 251.494197 
L 168.909091 252.191163 
L 163.272727 252.357302 
L 157.636364 252.523441 
L 152 252.68958 
L 146.363636 252.855719 
L 140.727273 253.021858 
L 135.090909 253.187997 
L 129.454545 253.354136 
L 126.541553 253.44 
L 123.818182 253.520275 
L 118.181818 253.686414 
L 112.545455 253.864001 
L 106.909091 254.154426 
L 101.272727 254.557659 
L 95.636364 254.960892 
L 90 255.364125 
L 90 256.8 
L 90 260.16 
L 90 263.52 
L 90 266.88 
L 90 270.24 
L 90 273.6 
L 90 276.96 
L 90 280.32 
L 90 283.68 
L 90 287.04 
L 90 290.4 
L 90 293.76 
L 90 297.12 
L 90 300.48 
L 90 300.58672 
z
" clip-path="url(#p88e1820fd9)" style="fill: #21918c"/>
    <path d="M 95.636364 254.960892 
L 101.272727 254.557659 
L 106.909091 254.154426 
L 112.545455 253.864001 
L 118.181818 253.686414 
L 123.818182 253.520275 
L 126.541553 253.44 
L 129.454545 253.354136 
L 135.090909 253.187997 
L 140.727273 253.021858 
L 146.363636 252.855719 
L 152 252.68958 
L 157.636364 252.523441 
L 163.272727 252.357302 
L 168.909091 252.191163 
L 174.545455 251.494197 
L 180.181818 250.708759 
L 184.693847 250.08 
L 185.818182 249.923322 
L 191.454545 249.137885 
L 197.090909 248.352447 
L 202.727273 247.56701 
L 208.363636 246.781573 
L 208.805486 246.72 
L 214 245.996135 
L 219.636364 245.210698 
L 225.272727 244.42526 
L 230.909091 243.639823 
L 232.917124 243.36 
L 236.545455 242.791333 
L 242.181818 241.907947 
L 247.818182 241.057706 
L 253.454545 240.256637 
L 255.296287 240 
L 259.090909 239.406831 
L 264.727273 238.525765 
L 270.363636 237.644698 
L 276 236.763632 
L 276.790897 236.64 
L 281.636364 235.882565 
L 287.272727 235.001498 
L 292.909091 234.120432 
L 298.285506 233.28 
L 298.545455 233.239365 
L 304.181818 232.358299 
L 309.818182 231.492003 
L 315.454545 230.769118 
L 321.090909 230.119891 
L 322.826289 229.92 
L 326.727273 229.470663 
L 332.363636 228.696649 
L 338 227.829045 
L 343.636364 226.961441 
L 346.244312 226.56 
L 349.272727 226.093837 
L 354.909091 225.226233 
L 360.545455 224.276799 
L 366.181818 223.233168 
L 366.36095 223.2 
L 371.818182 222.189537 
L 377.454545 221.145906 
L 383.090909 220.102274 
L 384.50738 219.84 
L 388.727273 219.058643 
L 394.363636 218.015012 
L 400 216.971381 
L 402.65381 216.48 
L 405.636364 215.927749 
L 411.272727 214.996343 
L 416.909091 214.21457 
L 422.545455 213.432798 
L 424.800638 213.12 
L 428.181818 212.651025 
L 433.818182 211.869252 
L 439.454545 211.087479 
L 445.090909 210.305707 
L 449.025303 209.76 
L 450.727273 209.523934 
L 456.363636 208.742161 
L 462 207.960389 
L 467.636364 207.132215 
L 472.048327 206.4 
L 473.272727 206.196797 
L 478.909091 205.239532 
L 484.545455 204.280269 
L 490.181818 203.323781 
L 491.866289 203.04 
L 495.818182 202.37423 
L 501.454545 201.47729 
L 507.090909 200.698607 
L 512.727273 199.943038 
L 514.689474 199.68 
L 518.363636 199.187469 
L 524 198.4319 
L 529.636364 197.676331 
L 535.272727 196.920762 
L 539.754267 196.32 
L 540.909091 196.148219 
L 546.545455 195.309805 
L 552.181818 194.471391 
L 557.818182 193.632977 
L 562.34237 192.96 
L 563.454545 192.770864 
L 569.090909 191.914386 
L 574.727273 190.981661 
L 580.363636 189.933461 
L 582.037609 189.6 
L 586 188.810678 
L 591.636364 187.687895 
L 597.272727 186.565112 
L 598.904789 186.24 
L 602.909091 185.442329 
L 608.545455 184.319546 
L 614.181818 183.196764 
L 615.771969 182.88 
L 619.818182 182.073981 
L 625.454545 180.951198 
L 631.090909 179.828415 
L 632.639149 179.52 
L 636.727273 178.705632 
L 642.363636 177.582849 
L 648 176.460066 
L 648 176.16 
L 648 172.8 
L 648 169.44 
L 648 166.08 
L 648 162.72 
L 648 159.36 
L 648 156 
L 648 152.64 
L 648 149.28 
L 648 145.92 
L 648 142.56 
L 648 139.2 
L 648 135.84 
L 648 132.48 
L 648 129.12 
L 648 127.739467 
L 642.363636 128.641073 
L 639.369636 129.12 
L 636.727273 129.542679 
L 631.090909 130.444284 
L 625.454545 131.34589 
L 619.818182 132.247496 
L 618.36469 132.48 
L 614.181818 133.149102 
L 608.545455 134.050708 
L 602.909091 134.952314 
L 597.359744 135.84 
L 597.272727 135.853919 
L 591.636364 136.755525 
L 586 137.646936 
L 580.363636 138.504732 
L 575.360068 139.2 
L 574.727273 139.28793 
L 569.090909 140.071128 
L 563.454545 140.892603 
L 557.818182 141.783048 
L 553.414475 142.56 
L 552.181818 142.781607 
L 546.545455 143.79491 
L 540.909091 144.808214 
L 535.272727 145.821518 
L 534.724932 145.92 
L 529.636364 146.69114 
L 524 147.545296 
L 518.363636 148.399451 
L 512.727273 149.253606 
L 512.553105 149.28 
L 507.090909 150.058832 
L 501.454545 150.862498 
L 495.818182 151.708912 
L 490.34311 152.64 
L 490.181818 152.6681 
L 484.545455 153.59402 
L 478.909091 154.497517 
L 473.272727 155.377048 
L 468.912131 156 
L 467.636364 156.182255 
L 462 156.987462 
L 456.363636 157.792669 
L 450.727273 158.597876 
L 445.392481 159.36 
L 445.090909 159.403082 
L 439.454545 160.208289 
L 433.818182 161.013496 
L 428.181818 161.818703 
L 422.545455 162.62391 
L 421.872832 162.72 
L 416.909091 163.429116 
L 411.272727 164.234323 
L 405.636364 165.13322 
L 400.130183 166.08 
L 400 166.102385 
L 394.363636 167.071549 
L 388.727273 168.040714 
L 383.090909 169.009878 
L 380.589454 169.44 
L 377.454545 169.979043 
L 371.818182 170.948208 
L 366.181818 171.840078 
L 360.545455 172.596907 
L 358.95841 172.8 
L 354.909091 173.318187 
L 349.272727 174.039468 
L 343.636364 174.760748 
L 338 175.482028 
L 332.702062 176.16 
L 332.363636 176.203308 
L 326.727273 176.903565 
L 321.090909 177.575791 
L 315.454545 178.248017 
L 309.818182 178.920242 
L 304.789437 179.52 
L 304.181818 179.595343 
L 298.545455 180.427508 
L 292.909091 181.259674 
L 287.272727 182.091839 
L 281.934414 182.88 
L 281.636364 182.924005 
L 276 183.75617 
L 270.363636 184.588336 
L 264.727273 185.420501 
L 259.176704 186.24 
L 259.090909 186.252667 
L 253.454545 187.084833 
L 247.818182 187.924752 
L 242.181818 188.784057 
L 236.82987 189.6 
L 236.545455 189.643361 
L 230.909091 190.502666 
L 225.272727 191.36197 
L 219.636364 192.221275 
L 214.790906 192.96 
L 214 193.067566 
L 208.363636 193.834134 
L 202.727273 194.600701 
L 197.090909 195.367269 
L 191.454545 196.133836 
L 190.085733 196.32 
L 185.818182 196.856943 
L 180.181818 197.56611 
L 174.545455 198.36469 
L 168.909091 199.204945 
L 163.272727 199.40569 
L 157.636364 199.546579 
L 152 199.640352 
L 149.616908 199.68 
L 146.363636 199.734125 
L 140.727273 199.827899 
L 135.090909 199.921672 
L 129.454545 200.015446 
L 123.818182 200.109219 
L 118.181818 200.202992 
L 112.545455 200.296766 
L 106.909091 200.390539 
L 101.272727 200.484312 
L 95.636364 200.578086 
L 90 200.671859 
L 90 203.04 
L 90 206.4 
L 90 209.76 
L 90 213.12 
L 90 216.48 
L 90 219.84 
L 90 223.2 
L 90 226.56 
L 90 229.92 
L 90 233.28 
L 90 236.64 
L 90 240 
L 90 243.36 
L 90 246.72 
L 90 250.08 
L 90 253.44 
L 90 255.364125 
z
" clip-path="url(#p88e1820fd9)" style="fill: #25ab82"/>
    <path d="M 95.636364 200.578086 
L 101.272727 200.484312 
L 106.909091 200.390539 
L 112.545455 200.296766 
L 118.181818 200.202992 
L 123.818182 200.109219 
L 129.454545 200.015446 
L 135.090909 199.921672 
L 140.727273 199.827899 
L 146.363636 199.734125 
L 149.616908 199.68 
L 152 199.640352 
L 157.636364 199.546579 
L 163.272727 199.40569 
L 168.909091 199.204945 
L 174.545455 198.36469 
L 180.181818 197.56611 
L 185.818182 196.856943 
L 190.085733 196.32 
L 191.454545 196.133836 
L 197.090909 195.367269 
L 202.727273 194.600701 
L 208.363636 193.834134 
L 214 193.067566 
L 214.790906 192.96 
L 219.636364 192.221275 
L 225.272727 191.36197 
L 230.909091 190.502666 
L 236.545455 189.643361 
L 236.82987 189.6 
L 242.181818 188.784057 
L 247.818182 187.924752 
L 253.454545 187.084833 
L 259.090909 186.252667 
L 259.176704 186.24 
L 264.727273 185.420501 
L 270.363636 184.588336 
L 276 183.75617 
L 281.636364 182.924005 
L 281.934414 182.88 
L 287.272727 182.091839 
L 292.909091 181.259674 
L 298.545455 180.427508 
L 304.181818 179.595343 
L 304.789437 179.52 
L 309.818182 178.920242 
L 315.454545 178.248017 
L 321.090909 177.575791 
L 326.727273 176.903565 
L 332.363636 176.203308 
L 332.702062 176.16 
L 338 175.482028 
L 343.636364 174.760748 
L 349.272727 174.039468 
L 354.909091 173.318187 
L 358.95841 172.8 
L 360.545455 172.596907 
L 366.181818 171.840078 
L 371.818182 170.948208 
L 377.454545 169.979043 
L 380.589454 169.44 
L 383.090909 169.009878 
L 388.727273 168.040714 
L 394.363636 167.071549 
L 400 166.102385 
L 400.130183 166.08 
L 405.636364 165.13322 
L 411.272727 164.234323 
L 416.909091 163.429116 
L 421.872832 162.72 
L 422.545455 162.62391 
L 428.181818 161.818703 
L 433.818182 161.013496 
L 439.454545 160.208289 
L 445.090909 159.403082 
L 445.392481 159.36 
L 450.727273 158.597876 
L 456.363636 157.792669 
L 462 156.987462 
L 467.636364 156.182255 
L 468.912131 156 
L 473.272727 155.377048 
L 478.909091 154.497517 
L 484.545455 153.59402 
L 490.181818 152.6681 
L 490.34311 152.64 
L 495.818182 151.708912 
L 501.454545 150.862498 
L 507.090909 150.058832 
L 512.553105 149.28 
L 512.727273 149.253606 
L 518.363636 148.399451 
L 524 147.545296 
L 529.636364 146.69114 
L 534.724932 145.92 
L 535.272727 145.821518 
L 540.909091 144.808214 
L 546.545455 143.79491 
L 552.181818 142.781607 
L 553.414475 142.56 
L 557.818182 141.783048 
L 563.454545 140.892603 
L 569.090909 140.071128 
L 574.727273 139.28793 
L 575.360068 139.2 
L 580.363636 138.504732 
L 586 137.646936 
L 591.636364 136.755525 
L 597.272727 135.853919 
L 597.359744 135.84 
L 602.909091 134.952314 
L 608.545455 134.050708 
L 614.181818 133.149102 
L 618.36469 132.48 
L 619.818182 132.247496 
L 625.454545 131.34589 
L 631.090909 130.444284 
L 636.727273 129.542679 
L 639.369636 129.12 
L 642.363636 128.641073 
L 648 127.739467 
L 648 125.76 
L 648 122.4 
L 648 119.04 
L 648 115.68 
L 648 112.32 
L 648 108.96 
L 648 105.6 
L 648 102.24 
L 648 98.88 
L 648 95.52 
L 648 92.16 
L 648 88.8 
L 648 85.44 
L 648 82.08 
L 648 78.72 
L 648 75.36 
L 648 72 
L 648 68.64 
L 648 65.28 
L 648 63.147146 
L 642.363636 64.00767 
L 636.727273 64.868195 
L 634.029984 65.28 
L 631.090909 65.72872 
L 625.454545 66.589244 
L 619.818182 67.449769 
L 614.181818 68.310293 
L 612.022268 68.64 
L 608.545455 69.170818 
L 602.909091 70.031343 
L 597.272727 70.915675 
L 591.636364 71.826435 
L 590.564489 72 
L 586 72.73911 
L 580.363636 73.651784 
L 574.727273 74.564459 
L 569.814285 75.36 
L 569.090909 75.477133 
L 563.454545 76.434413 
L 557.818182 77.399126 
L 552.181818 78.36384 
L 550.100942 78.72 
L 546.545455 79.328553 
L 540.909091 80.293267 
L 535.272727 81.25798 
L 530.470054 82.08 
L 529.636364 82.222693 
L 524 83.187407 
L 518.363636 84.15212 
L 512.727273 85.085681 
L 510.005779 85.44 
L 507.090909 85.819495 
L 501.454545 86.516623 
L 495.818182 87.207554 
L 490.181818 87.898486 
L 484.545455 88.725786 
L 484.07111 88.8 
L 478.909091 89.607633 
L 473.272727 90.48948 
L 467.636364 91.371328 
L 462.595532 92.16 
L 462 92.253175 
L 456.363636 93.135022 
L 450.727273 94.01687 
L 445.090909 94.898717 
L 441.119954 95.52 
L 439.454545 95.780565 
L 433.818182 96.662412 
L 428.181818 97.544259 
L 422.545455 98.426107 
L 419.644377 98.88 
L 416.909091 99.23407 
L 411.272727 99.996926 
L 405.636364 100.765474 
L 400 101.459754 
L 394.363636 102.116136 
L 393.300019 102.24 
L 388.727273 102.759354 
L 383.090909 103.39951 
L 377.454545 104.039666 
L 371.818182 104.679821 
L 366.181818 105.319977 
L 363.716308 105.6 
L 360.545455 105.960133 
L 354.909091 106.600289 
L 349.272727 107.240444 
L 343.636364 107.8806 
L 338 108.520756 
L 334.132598 108.96 
L 332.363636 109.160912 
L 326.727273 109.825933 
L 321.090909 110.524109 
L 315.454545 111.222286 
L 309.818182 111.920462 
L 306.592716 112.32 
L 304.181818 112.618638 
L 298.545455 113.316814 
L 292.909091 114.01499 
L 287.272727 114.713166 
L 281.636364 115.411342 
L 279.516633 115.68 
L 276 116.141255 
L 270.363636 116.981036 
L 264.727273 117.820816 
L 259.090909 118.660597 
L 256.544466 119.04 
L 253.454545 119.500378 
L 247.818182 120.273447 
L 242.181818 120.879736 
L 236.545455 121.486026 
L 230.909091 122.092316 
L 228.04871 122.4 
L 225.272727 122.698606 
L 219.636364 123.304895 
L 214 123.911185 
L 208.363636 124.756515 
L 202.997616 125.76 
L 202.727273 125.810556 
L 197.090909 126.864597 
L 191.454545 127.918638 
L 185.818182 128.972679 
L 185.030401 129.12 
L 180.181818 130.02672 
L 174.545455 131.080761 
L 168.909091 131.984225 
L 163.272727 131.984225 
L 157.636364 131.984225 
L 152 131.984225 
L 146.363636 131.984225 
L 140.727273 131.984225 
L 135.090909 131.984225 
L 129.454545 131.984225 
L 123.818182 131.984225 
L 118.181818 131.984225 
L 112.545455 131.984225 
L 106.909091 131.984225 
L 101.272727 131.984225 
L 95.636364 131.984225 
L 90 131.984225 
L 90 132.48 
L 90 135.84 
L 90 139.2 
L 90 142.56 
L 90 145.92 
L 90 149.28 
L 90 152.64 
L 90 156 
L 90 159.36 
L 90 162.72 
L 90 166.08 
L 90 169.44 
L 90 172.8 
L 90 176.16 
L 90 179.52 
L 90 182.88 
L 90 186.24 
L 90 189.6 
L 90 192.96 
L 90 196.32 
L 90 199.68 
L 90 200.671859 
z
" clip-path="url(#p88e1820fd9)" style="fill: #4ec36b"/>
    <path d="M 95.636364 131.984225 
L 101.272727 131.984225 
L 106.909091 131.984225 
L 112.545455 131.984225 
L 118.181818 131.984225 
L 123.818182 131.984225 
L 129.454545 131.984225 
L 135.090909 131.984225 
L 140.727273 131.984225 
L 146.363636 131.984225 
L 152 131.984225 
L 157.636364 131.984225 
L 163.272727 131.984225 
L 168.909091 131.984225 
L 174.545455 131.080761 
L 180.181818 130.02672 
L 185.030401 129.12 
L 185.818182 128.972679 
L 191.454545 127.918638 
L 197.090909 126.864597 
L 202.727273 125.810556 
L 202.997616 125.76 
L 208.363636 124.756515 
L 214 123.911185 
L 219.636364 123.304895 
L 225.272727 122.698606 
L 228.04871 122.4 
L 230.909091 122.092316 
L 236.545455 121.486026 
L 242.181818 120.879736 
L 247.818182 120.273447 
L 253.454545 119.500378 
L 256.544466 119.04 
L 259.090909 118.660597 
L 264.727273 117.820816 
L 270.363636 116.981036 
L 276 116.141255 
L 279.516633 115.68 
L 281.636364 115.411342 
L 287.272727 114.713166 
L 292.909091 114.01499 
L 298.545455 113.316814 
L 304.181818 112.618638 
L 306.592716 112.32 
L 309.818182 111.920462 
L 315.454545 111.222286 
L 321.090909 110.524109 
L 326.727273 109.825933 
L 332.363636 109.160912 
L 334.132598 108.96 
L 338 108.520756 
L 343.636364 107.8806 
L 349.272727 107.240444 
L 354.909091 106.600289 
L 360.545455 105.960133 
L 363.716308 105.6 
L 366.181818 105.319977 
L 371.818182 104.679821 
L 377.454545 104.039666 
L 383.090909 103.39951 
L 388.727273 102.759354 
L 393.300019 102.24 
L 394.363636 102.116136 
L 400 101.459754 
L 405.636364 100.765474 
L 411.272727 99.996926 
L 416.909091 99.23407 
L 419.644377 98.88 
L 422.545455 98.426107 
L 428.181818 97.544259 
L 433.818182 96.662412 
L 439.454545 95.780565 
L 441.119954 95.52 
L 445.090909 94.898717 
L 450.727273 94.01687 
L 456.363636 93.135022 
L 462 92.253175 
L 462.595532 92.16 
L 467.636364 91.371328 
L 473.272727 90.48948 
L 478.909091 89.607633 
L 484.07111 88.8 
L 484.545455 88.725786 
L 490.181818 87.898486 
L 495.818182 87.207554 
L 501.454545 86.516623 
L 507.090909 85.819495 
L 510.005779 85.44 
L 512.727273 85.085681 
L 518.363636 84.15212 
L 524 83.187407 
L 529.636364 82.222693 
L 530.470054 82.08 
L 535.272727 81.25798 
L 540.909091 80.293267 
L 546.545455 79.328553 
L 550.100942 78.72 
L 552.181818 78.36384 
L 557.818182 77.399126 
L 563.454545 76.434413 
L 569.090909 75.477133 
L 569.814285 75.36 
L 574.727273 74.564459 
L 580.363636 73.651784 
L 586 72.73911 
L 590.564489 72 
L 591.636364 71.826435 
L 597.272727 70.915675 
L 602.909091 70.031343 
L 608.545455 69.170818 
L 612.022268 68.64 
L 614.181818 68.310293 
L 619.818182 67.449769 
L 625.454545 66.589244 
L 631.090909 65.72872 
L 634.029984 65.28 
L 636.727273 64.868195 
L 642.363636 64.00767 
L 648 63.147146 
L 648 61.92 
L 648 58.56 
L 648 55.2 
L 648 51.84 
L 642.363636 51.84 
L 636.727273 51.84 
L 631.090909 51.84 
L 625.454545 51.84 
L 619.818182 51.84 
L 614.181818 51.84 
L 608.545455 51.84 
L 602.909091 51.84 
L 597.272727 51.84 
L 591.636364 51.84 
L 586 51.84 
L 580.363636 51.84 
L 574.727273 51.84 
L 569.090909 51.84 
L 563.454545 51.84 
L 557.818182 51.84 
L 552.181818 51.84 
L 546.545455 51.84 
L 540.909091 51.84 
L 535.272727 51.84 
L 529.636364 51.84 
L 524 51.84 
L 518.363636 51.84 
L 512.727273 51.84 
L 507.090909 51.84 
L 501.454545 51.84 
L 495.818182 51.84 
L 490.181818 51.84 
L 484.545455 51.84 
L 478.909091 51.84 
L 473.272727 51.84 
L 467.636364 51.84 
L 462 51.84 
L 456.363636 51.84 
L 450.727273 51.84 
L 445.090909 51.84 
L 439.454545 51.84 
L 433.818182 51.84 
L 428.181818 51.84 
L 422.545455 51.84 
L 416.909091 51.84 
L 411.272727 51.84 
L 405.636364 51.84 
L 400 51.84 
L 394.363636 51.84 
L 388.727273 51.84 
L 383.090909 51.84 
L 377.454545 51.84 
L 371.818182 51.84 
L 366.181818 51.84 
L 360.545455 51.84 
L 354.909091 51.84 
L 349.272727 51.84 
L 343.636364 51.84 
L 338 51.84 
L 332.363636 51.84 
L 326.727273 51.84 
L 321.090909 51.84 
L 315.454545 51.84 
L 309.818182 51.84 
L 304.181818 51.84 
L 298.545455 51.84 
L 292.909091 51.84 
L 287.272727 51.84 
L 281.636364 51.84 
L 276 51.84 
L 270.363636 51.84 
L 264.727273 51.84 
L 259.090909 51.84 
L 253.454545 51.84 
L 247.818182 51.84 
L 242.181818 51.84 
L 236.545455 51.84 
L 230.909091 51.84 
L 225.272727 51.84 
L 219.636364 51.84 
L 214 51.84 
L 208.363636 51.84 
L 202.727273 51.84 
L 197.090909 51.84 
L 191.454545 51.84 
L 185.818182 51.84 
L 180.181818 51.84 
L 174.545455 51.84 
L 168.909091 51.84 
L 163.272727 51.84 
L 157.636364 51.84 
L 152 51.84 
L 146.363636 51.84 
L 140.727273 51.84 
L 135.090909 51.84 
L 129.454545 51.84 
L 123.818182 51.84 
L 118.181818 51.84 
L 112.545455 51.84 
L 106.909091 51.84 
L 101.272727 51.84 
L 95.636364 51.84 
L 90 51.84 
L 90 55.2 
L 90 58.56 
L 90 61.92 
L 90 65.28 
L 90 68.64 
L 90 72 
L 90 75.36 
L 90 78.72 
L 90 82.08 
L 90 85.44 
L 90 88.8 
L 90 92.16 
L 90 95.52 
L 90 98.88 
L 90 102.24 
L 90 105.6 
L 90 108.96 
L 90 112.32 
L 90 115.68 
L 90 119.04 
L 90 122.4 
L 90 125.76 
L 90 129.12 
L 90 131.984225 
z
" clip-path="url(#p88e1820fd9)" style="fill: #90d743"/>
    <path clip-path="url(#p88e1820fd9)" style="fill: #dae319"/>
   </g>
   <g id="matplotlib.axis_1">
    <g id="xtick_1">
     <g id="line2d_1">
      <path d="M 129.857143 384.48 
L 129.857143 51.84 
" clip-path="url(#p88e1820fd9)" style="fill: none; stroke: #b0b0b0; stroke-width: 0.8; stroke-linecap: square"/>
     </g>
     <g id="line2d_2">
      <defs>
       <path id="m2aef4d8759" d="M 0 0 
L 0 3.5 
" style="stroke: #000000; stroke-width: 0.8"/>
      </defs>
      <g>
       <use xlink:href="#m2aef4d8759" x="129.857143" y="384.48" style="stroke: #000000; stroke-width: 0.8"/>
      </g>
     </g>
     <g id="text_1">
      <!-- 6 -->
      <g transform="translate(126.675893 399.078438) scale(0.1 -0.1)">
       <defs>
        <path id="DejaVuSans-36" d="M 2113 2584 
Q 1688 2584 1439 2293 
Q 1191 2003 1191 1497 
Q 1191 994 1439 701 
Q 1688 409 2113 409 
Q 2538 409 2786 701 
Q 3034 994 3034 1497 
Q 3034 2003 2786 2293 
Q 2538 2584 2113 2584 
z
M 3366 4563 
L 3366 3988 
Q 3128 4100 2886 4159 
Q 2644 4219 2406 4219 
Q 1781 4219 1451 3797 
Q 1122 3375 1075 2522 
Q 1259 2794 1537 2939 
Q 1816 3084 2150 3084 
Q 2853 3084 3261 2657 
Q 3669 2231 3669 1497 
Q 3669 778 3244 343 
Q 2819 -91 2113 -91 
Q 1303 -91 875 529 
Q 447 1150 447 2328 
Q 447 3434 972 4092 
Q 1497 4750 2381 4750 
Q 2619 4750 2861 4703 
Q 3103 4656 3366 4563 
z
" transform="scale(0.015625)"/>
       </defs>
       <use xlink:href="#DejaVuSans-36"/>
      </g>
     </g>
    </g>
    <g id="xtick_2">
     <g id="line2d_3">
      <path d="M 209.571429 384.48 
L 209.571429 51.84 
" clip-path="url(#p88e1820fd9)" style="fill: none; stroke: #b0b0b0; stroke-width: 0.8; stroke-linecap: square"/>
     </g>
     <g id="line2d_4">
      <g>
       <use xlink:href="#m2aef4d8759" x="209.571429" y="384.48" style="stroke: #000000; stroke-width: 0.8"/>
      </g>
     </g>
     <g id="text_2">
      <!-- 8 -->
      <g transform="translate(206.390179 399.078438) scale(0.1 -0.1)">
       <defs>
        <path id="DejaVuSans-38" d="M 2034 2216 
Q 1584 2216 1326 1975 
Q 1069 1734 1069 1313 
Q 1069 891 1326 650 
Q 1584 409 2034 409 
Q 2484 409 2743 651 
Q 3003 894 3003 1313 
Q 3003 1734 2745 1975 
Q 2488 2216 2034 2216 
z
M 1403 2484 
Q 997 2584 770 2862 
Q 544 3141 544 3541 
Q 544 4100 942 4425 
Q 1341 4750 2034 4750 
Q 2731 4750 3128 4425 
Q 3525 4100 3525 3541 
Q 3525 3141 3298 2862 
Q 3072 2584 2669 2484 
Q 3125 2378 3379 2068 
Q 3634 1759 3634 1313 
Q 3634 634 3220 271 
Q 2806 -91 2034 -91 
Q 1263 -91 848 271 
Q 434 634 434 1313 
Q 434 1759 690 2068 
Q 947 2378 1403 2484 
z
M 1172 3481 
Q 1172 3119 1398 2916 
Q 1625 2713 2034 2713 
Q 2441 2713 2670 2916 
Q 2900 3119 2900 3481 
Q 2900 3844 2670 4047 
Q 2441 4250 2034 4250 
Q 1625 4250 1398 4047 
Q 1172 3844 1172 3481 
z
" transform="scale(0.015625)"/>
       </defs>
       <use xlink:href="#DejaVuSans-38"/>
      </g>
     </g>
    </g>
    <g id="xtick_3">
     <g id="line2d_5">
      <path d="M 289.285714 384.48 
L 289.285714 51.84 
" clip-path="url(#p88e1820fd9)" style="fill: none; stroke: #b0b0b0; stroke-width: 0.8; stroke-linecap: square"/>
     </g>
     <g id="line2d_6">
      <g>
       <use xlink:href="#m2aef4d8759" x="289.285714" y="384.48" style="stroke: #000000; stroke-width: 0.8"/>
      </g>
     </g>
     <g id="text_3">
      <!-- 10 -->
      <g transform="translate(282.923214 399.078438) scale(0.1 -0.1)">
       <defs>
        <path id="DejaVuSans-31" d="M 794 531 
L 1825 531 
L 1825 4091 
L 703 3866 
L 703 4441 
L 1819 4666 
L 2450 4666 
L 2450 531 
L 3481 531 
L 3481 0 
L 794 0 
L 794 531 
z
" transform="scale(0.015625)"/>
        <path id="DejaVuSans-30" d="M 2034 4250 
Q 1547 4250 1301 3770 
Q 1056 3291 1056 2328 
Q 1056 1369 1301 889 
Q 1547 409 2034 409 
Q 2525 409 2770 889 
Q 3016 1369 3016 2328 
Q 3016 3291 2770 3770 
Q 2525 4250 2034 4250 
z
M 2034 4750 
Q 2819 4750 3233 4129 
Q 3647 3509 3647 2328 
Q 3647 1150 3233 529 
Q 2819 -91 2034 -91 
Q 1250 -91 836 529 
Q 422 1150 422 2328 
Q 422 3509 836 4129 
Q 1250 4750 2034 4750 
z
" transform="scale(0.015625)"/>
       </defs>
       <use xlink:href="#DejaVuSans-31"/>
       <use xlink:href="#DejaVuSans-30" x="63.623047"/>
      </g>
     </g>
    </g>
    <g id="xtick_4">
     <g id="line2d_7">
      <path d="M 369 384.48 
L 369 51.84 
" clip-path="url(#p88e1820fd9)" style="fill: none; stroke: #b0b0b0; stroke-width: 0.8; stroke-linecap: square"/>
     </g>
     <g id="line2d_8">
      <g>
       <use xlink:href="#m2aef4d8759" x="369" y="384.48" style="stroke: #000000; stroke-width: 0.8"/>
      </g>
     </g>
     <g id="text_4">
      <!-- 12 -->
      <g transform="translate(362.6375 399.078438) scale(0.1 -0.1)">
       <defs>
        <path id="DejaVuSans-32" d="M 1228 531 
L 3431 531 
L 3431 0 
L 469 0 
L 469 531 
Q 828 903 1448 1529 
Q 2069 2156 2228 2338 
Q 2531 2678 2651 2914 
Q 2772 3150 2772 3378 
Q 2772 3750 2511 3984 
Q 2250 4219 1831 4219 
Q 1534 4219 1204 4116 
Q 875 4013 500 3803 
L 500 4441 
Q 881 4594 1212 4672 
Q 1544 4750 1819 4750 
Q 2544 4750 2975 4387 
Q 3406 4025 3406 3419 
Q 3406 3131 3298 2873 
Q 3191 2616 2906 2266 
Q 2828 2175 2409 1742 
Q 1991 1309 1228 531 
z
" transform="scale(0.015625)"/>
       </defs>
       <use xlink:href="#DejaVuSans-31"/>
       <use xlink:href="#DejaVuSans-32" x="63.623047"/>
      </g>
     </g>
    </g>
    <g id="xtick_5">
     <g id="line2d_9">
      <path d="M 448.714286 384.48 
L 448.714286 51.84 
" clip-path="url(#p88e1820fd9)" style="fill: none; stroke: #b0b0b0; stroke-width: 0.8; stroke-linecap: square"/>
     </g>
     <g id="line2d_10">
      <g>
       <use xlink:href="#m2aef4d8759" x="448.714286" y="384.48" style="stroke: #000000; stroke-width: 0.8"/>
      </g>
     </g>
     <g id="text_5">
      <!-- 14 -->
      <g transform="translate(442.351786 399.078438) scale(0.1 -0.1)">
       <defs>
        <path id="DejaVuSans-34" d="M 2419 4116 
L 825 1625 
L 2419 1625 
L 2419 4116 
z
M 2253 4666 
L 3047 4666 
L 3047 1625 
L 3713 1625 
L 3713 1100 
L 3047 1100 
L 3047 0 
L 2419 0 
L 2419 1100 
L 313 1100 
L 313 1709 
L 2253 4666 
z
" transform="scale(0.015625)"/>
       </defs>
       <use xlink:href="#DejaVuSans-31"/>
       <use xlink:href="#DejaVuSans-34" x="63.623047"/>
      </g>
     </g>
    </g>
    <g id="xtick_6">
     <g id="line2d_11">
      <path d="M 528.428571 384.48 
L 528.428571 51.84 
" clip-path="url(#p88e1820fd9)" style="fill: none; stroke: #b0b0b0; stroke-width: 0.8; stroke-linecap: square"/>
     </g>
     <g id="line2d_12">
      <g>
       <use xlink:href="#m2aef4d8759" x="528.428571" y="384.48" style="stroke: #000000; stroke-width: 0.8"/>
      </g>
     </g>
     <g id="text_6">
      <!-- 16 -->
      <g transform="translate(522.066071 399.078438) scale(0.1 -0.1)">
       <use xlink:href="#DejaVuSans-31"/>
       <use xlink:href="#DejaVuSans-36" x="63.623047"/>
      </g>
     </g>
    </g>
    <g id="xtick_7">
     <g id="line2d_13">
      <path d="M 608.142857 384.48 
L 608.142857 51.84 
" clip-path="url(#p88e1820fd9)" style="fill: none; stroke: #b0b0b0; stroke-width: 0.8; stroke-linecap: square"/>
     </g>
     <g id="line2d_14">
      <g>
       <use xlink:href="#m2aef4d8759" x="608.142857" y="384.48" style="stroke: #000000; stroke-width: 0.8"/>
      </g>
     </g>
     <g id="text_7">
      <!-- 18 -->
      <g transform="translate(601.780357 399.078438) scale(0.1 -0.1)">
       <use xlink:href="#DejaVuSans-31"/>
       <use xlink:href="#DejaVuSans-38" x="63.623047"/>
      </g>
     </g>
    </g>
    <g id="text_8">
     <!-- $glide_{ev}$ [K] -->
     <g transform="translate(318.3 420.358125) scale(0.2 -0.2)">
      <defs>
       <path id="DejaVuSans-Oblique-67" d="M 3816 3500 
L 3219 434 
Q 3047 -456 2561 -893 
Q 2075 -1331 1253 -1331 
Q 950 -1331 690 -1286 
Q 431 -1241 206 -1147 
L 313 -588 
Q 525 -725 762 -790 
Q 1000 -856 1269 -856 
Q 1816 -856 2167 -557 
Q 2519 -259 2631 300 
L 2681 563 
Q 2441 288 2122 144 
Q 1803 0 1434 0 
Q 903 0 598 351 
Q 294 703 294 1319 
Q 294 1803 478 2267 
Q 663 2731 997 3091 
Q 1219 3328 1514 3456 
Q 1809 3584 2131 3584 
Q 2484 3584 2746 3420 
Q 3009 3256 3138 2956 
L 3238 3500 
L 3816 3500 
z
M 2950 2216 
Q 2950 2641 2750 2872 
Q 2550 3103 2181 3103 
Q 1953 3103 1747 3012 
Q 1541 2922 1394 2759 
Q 1156 2491 1023 2127 
Q 891 1763 891 1375 
Q 891 944 1092 712 
Q 1294 481 1672 481 
Q 2219 481 2584 976 
Q 2950 1472 2950 2216 
z
" transform="scale(0.015625)"/>
       <path id="DejaVuSans-Oblique-6c" d="M 1172 4863 
L 1747 4863 
L 800 0 
L 225 0 
L 1172 4863 
z
" transform="scale(0.015625)"/>
       <path id="DejaVuSans-Oblique-69" d="M 1172 4863 
L 1747 4863 
L 1606 4134 
L 1031 4134 
L 1172 4863 
z
M 909 3500 
L 1484 3500 
L 800 0 
L 225 0 
L 909 3500 
z
" transform="scale(0.015625)"/>
       <path id="DejaVuSans-Oblique-64" d="M 2675 525 
Q 2444 222 2128 65 
Q 1813 -91 1428 -91 
Q 903 -91 598 267 
Q 294 625 294 1247 
Q 294 1766 478 2236 
Q 663 2706 1013 3078 
Q 1244 3325 1534 3454 
Q 1825 3584 2144 3584 
Q 2481 3584 2739 3421 
Q 2997 3259 3138 2956 
L 3513 4863 
L 4091 4863 
L 3144 0 
L 2566 0 
L 2675 525 
z
M 891 1350 
Q 891 897 1095 644 
Q 1300 391 1663 391 
Q 1931 391 2161 520 
Q 2391 650 2566 903 
Q 2750 1166 2856 1509 
Q 2963 1853 2963 2188 
Q 2963 2622 2758 2865 
Q 2553 3109 2194 3109 
Q 1922 3109 1687 2981 
Q 1453 2853 1288 2613 
Q 1106 2353 998 2009 
Q 891 1666 891 1350 
z
" transform="scale(0.015625)"/>
       <path id="DejaVuSans-Oblique-65" d="M 3078 2063 
Q 3088 2113 3092 2166 
Q 3097 2219 3097 2272 
Q 3097 2653 2873 2875 
Q 2650 3097 2266 3097 
Q 1838 3097 1509 2826 
Q 1181 2556 1013 2059 
L 3078 2063 
z
M 3578 1613 
L 903 1613 
Q 884 1494 878 1425 
Q 872 1356 872 1306 
Q 872 872 1139 634 
Q 1406 397 1894 397 
Q 2269 397 2603 481 
Q 2938 566 3225 728 
L 3116 159 
Q 2806 34 2476 -28 
Q 2147 -91 1806 -91 
Q 1078 -91 686 257 
Q 294 606 294 1247 
Q 294 1794 489 2264 
Q 684 2734 1063 3103 
Q 1306 3334 1642 3459 
Q 1978 3584 2356 3584 
Q 2950 3584 3301 3228 
Q 3653 2872 3653 2272 
Q 3653 2128 3634 1964 
Q 3616 1800 3578 1613 
z
" transform="scale(0.015625)"/>
       <path id="DejaVuSans-Oblique-76" d="M 459 3500 
L 1069 3500 
L 1581 525 
L 3256 3500 
L 3866 3500 
L 1875 0 
L 1100 0 
L 459 3500 
z
" transform="scale(0.015625)"/>
       <path id="DejaVuSans-20" transform="scale(0.015625)"/>
       <path id="DejaVuSans-5b" d="M 550 4863 
L 1875 4863 
L 1875 4416 
L 1125 4416 
L 1125 -397 
L 1875 -397 
L 1875 -844 
L 550 -844 
L 550 4863 
z
" transform="scale(0.015625)"/>
       <path id="DejaVuSans-4b" d="M 628 4666 
L 1259 4666 
L 1259 2694 
L 3353 4666 
L 4166 4666 
L 1850 2491 
L 4331 0 
L 3500 0 
L 1259 2247 
L 1259 0 
L 628 0 
L 628 4666 
z
" transform="scale(0.015625)"/>
       <path id="DejaVuSans-5d" d="M 1947 4863 
L 1947 -844 
L 622 -844 
L 622 -397 
L 1369 -397 
L 1369 4416 
L 622 4416 
L 622 4863 
L 1947 4863 
z
" transform="scale(0.015625)"/>
      </defs>
      <use xlink:href="#DejaVuSans-Oblique-67" transform="translate(0 0.015625)"/>
      <use xlink:href="#DejaVuSans-Oblique-6c" transform="translate(63.476562 0.015625)"/>
      <use xlink:href="#DejaVuSans-Oblique-69" transform="translate(91.259766 0.015625)"/>
      <use xlink:href="#DejaVuSans-Oblique-64" transform="translate(119.042969 0.015625)"/>
      <use xlink:href="#DejaVuSans-Oblique-65" transform="translate(182.519531 0.015625)"/>
      <use xlink:href="#DejaVuSans-Oblique-65" transform="translate(244.042969 -16.390625) scale(0.7)"/>
      <use xlink:href="#DejaVuSans-Oblique-76" transform="translate(287.109375 -16.390625) scale(0.7)"/>
      <use xlink:href="#DejaVuSans-20" transform="translate(331.269531 0.015625)"/>
      <use xlink:href="#DejaVuSans-5b" transform="translate(363.056641 0.015625)"/>
      <use xlink:href="#DejaVuSans-4b" transform="translate(402.070312 0.015625)"/>
      <use xlink:href="#DejaVuSans-5d" transform="translate(467.646484 0.015625)"/>
     </g>
    </g>
   </g>
   <g id="matplotlib.axis_2">
    <g id="ytick_1">
     <g id="line2d_15">
      <path d="M 90 384.48 
L 648 384.48 
" clip-path="url(#p88e1820fd9)" style="fill: none; stroke: #b0b0b0; stroke-width: 0.8; stroke-linecap: square"/>
     </g>
     <g id="line2d_16">
      <defs>
       <path id="m6dc81a43fb" d="M 0 0 
L -3.5 0 
" style="stroke: #000000; stroke-width: 0.8"/>
      </defs>
      <g>
       <use xlink:href="#m6dc81a43fb" x="90" y="384.48" style="stroke: #000000; stroke-width: 0.8"/>
      </g>
     </g>
     <g id="text_9">
      <!-- 65 -->
      <g transform="translate(70.275 388.279219) scale(0.1 -0.1)">
       <defs>
        <path id="DejaVuSans-35" d="M 691 4666 
L 3169 4666 
L 3169 4134 
L 1269 4134 
L 1269 2991 
Q 1406 3038 1543 3061 
Q 1681 3084 1819 3084 
Q 2600 3084 3056 2656 
Q 3513 2228 3513 1497 
Q 3513 744 3044 326 
Q 2575 -91 1722 -91 
Q 1428 -91 1123 -41 
Q 819 9 494 109 
L 494 744 
Q 775 591 1075 516 
Q 1375 441 1709 441 
Q 2250 441 2565 725 
Q 2881 1009 2881 1497 
Q 2881 1984 2565 2268 
Q 2250 2553 1709 2553 
Q 1456 2553 1204 2497 
Q 953 2441 691 2322 
L 691 4666 
z
" transform="scale(0.015625)"/>
       </defs>
       <use xlink:href="#DejaVuSans-36"/>
       <use xlink:href="#DejaVuSans-35" x="63.623047"/>
      </g>
     </g>
    </g>
    <g id="ytick_2">
     <g id="line2d_17">
      <path d="M 90 336.96 
L 648 336.96 
" clip-path="url(#p88e1820fd9)" style="fill: none; stroke: #b0b0b0; stroke-width: 0.8; stroke-linecap: square"/>
     </g>
     <g id="line2d_18">
      <g>
       <use xlink:href="#m6dc81a43fb" x="90" y="336.96" style="stroke: #000000; stroke-width: 0.8"/>
      </g>
     </g>
     <g id="text_10">
      <!-- 70 -->
      <g transform="translate(70.275 340.759219) scale(0.1 -0.1)">
       <defs>
        <path id="DejaVuSans-37" d="M 525 4666 
L 3525 4666 
L 3525 4397 
L 1831 0 
L 1172 0 
L 2766 4134 
L 525 4134 
L 525 4666 
z
" transform="scale(0.015625)"/>
       </defs>
       <use xlink:href="#DejaVuSans-37"/>
       <use xlink:href="#DejaVuSans-30" x="63.623047"/>
      </g>
     </g>
    </g>
    <g id="ytick_3">
     <g id="line2d_19">
      <path d="M 90 289.44 
L 648 289.44 
" clip-path="url(#p88e1820fd9)" style="fill: none; stroke: #b0b0b0; stroke-width: 0.8; stroke-linecap: square"/>
     </g>
     <g id="line2d_20">
      <g>
       <use xlink:href="#m6dc81a43fb" x="90" y="289.44" style="stroke: #000000; stroke-width: 0.8"/>
      </g>
     </g>
     <g id="text_11">
      <!-- 75 -->
      <g transform="translate(70.275 293.239219) scale(0.1 -0.1)">
       <use xlink:href="#DejaVuSans-37"/>
       <use xlink:href="#DejaVuSans-35" x="63.623047"/>
      </g>
     </g>
    </g>
    <g id="ytick_4">
     <g id="line2d_21">
      <path d="M 90 241.92 
L 648 241.92 
" clip-path="url(#p88e1820fd9)" style="fill: none; stroke: #b0b0b0; stroke-width: 0.8; stroke-linecap: square"/>
     </g>
     <g id="line2d_22">
      <g>
       <use xlink:href="#m6dc81a43fb" x="90" y="241.92" style="stroke: #000000; stroke-width: 0.8"/>
      </g>
     </g>
     <g id="text_12">
      <!-- 80 -->
      <g transform="translate(70.275 245.719219) scale(0.1 -0.1)">
       <use xlink:href="#DejaVuSans-38"/>
       <use xlink:href="#DejaVuSans-30" x="63.623047"/>
      </g>
     </g>
    </g>
    <g id="ytick_5">
     <g id="line2d_23">
      <path d="M 90 194.4 
L 648 194.4 
" clip-path="url(#p88e1820fd9)" style="fill: none; stroke: #b0b0b0; stroke-width: 0.8; stroke-linecap: square"/>
     </g>
     <g id="line2d_24">
      <g>
       <use xlink:href="#m6dc81a43fb" x="90" y="194.4" style="stroke: #000000; stroke-width: 0.8"/>
      </g>
     </g>
     <g id="text_13">
      <!-- 85 -->
      <g transform="translate(70.275 198.199219) scale(0.1 -0.1)">
       <use xlink:href="#DejaVuSans-38"/>
       <use xlink:href="#DejaVuSans-35" x="63.623047"/>
      </g>
     </g>
    </g>
    <g id="ytick_6">
     <g id="line2d_25">
      <path d="M 90 146.88 
L 648 146.88 
" clip-path="url(#p88e1820fd9)" style="fill: none; stroke: #b0b0b0; stroke-width: 0.8; stroke-linecap: square"/>
     </g>
     <g id="line2d_26">
      <g>
       <use xlink:href="#m6dc81a43fb" x="90" y="146.88" style="stroke: #000000; stroke-width: 0.8"/>
      </g>
     </g>
     <g id="text_14">
      <!-- 90 -->
      <g transform="translate(70.275 150.679219) scale(0.1 -0.1)">
       <defs>
        <path id="DejaVuSans-39" d="M 703 97 
L 703 672 
Q 941 559 1184 500 
Q 1428 441 1663 441 
Q 2288 441 2617 861 
Q 2947 1281 2994 2138 
Q 2813 1869 2534 1725 
Q 2256 1581 1919 1581 
Q 1219 1581 811 2004 
Q 403 2428 403 3163 
Q 403 3881 828 4315 
Q 1253 4750 1959 4750 
Q 2769 4750 3195 4129 
Q 3622 3509 3622 2328 
Q 3622 1225 3098 567 
Q 2575 -91 1691 -91 
Q 1453 -91 1209 -44 
Q 966 3 703 97 
z
M 1959 2075 
Q 2384 2075 2632 2365 
Q 2881 2656 2881 3163 
Q 2881 3666 2632 3958 
Q 2384 4250 1959 4250 
Q 1534 4250 1286 3958 
Q 1038 3666 1038 3163 
Q 1038 2656 1286 2365 
Q 1534 2075 1959 2075 
z
" transform="scale(0.015625)"/>
       </defs>
       <use xlink:href="#DejaVuSans-39"/>
       <use xlink:href="#DejaVuSans-30" x="63.623047"/>
      </g>
     </g>
    </g>
    <g id="ytick_7">
     <g id="line2d_27">
      <path d="M 90 99.36 
L 648 99.36 
" clip-path="url(#p88e1820fd9)" style="fill: none; stroke: #b0b0b0; stroke-width: 0.8; stroke-linecap: square"/>
     </g>
     <g id="line2d_28">
      <g>
       <use xlink:href="#m6dc81a43fb" x="90" y="99.36" style="stroke: #000000; stroke-width: 0.8"/>
      </g>
     </g>
     <g id="text_15">
      <!-- 95 -->
      <g transform="translate(70.275 103.159219) scale(0.1 -0.1)">
       <use xlink:href="#DejaVuSans-39"/>
       <use xlink:href="#DejaVuSans-35" x="63.623047"/>
      </g>
     </g>
    </g>
    <g id="ytick_8">
     <g id="line2d_29">
      <path d="M 90 51.84 
L 648 51.84 
" clip-path="url(#p88e1820fd9)" style="fill: none; stroke: #b0b0b0; stroke-width: 0.8; stroke-linecap: square"/>
     </g>
     <g id="line2d_30">
      <g>
       <use xlink:href="#m6dc81a43fb" x="90" y="51.84" style="stroke: #000000; stroke-width: 0.8"/>
      </g>
     </g>
     <g id="text_16">
      <!-- 100 -->
      <g transform="translate(63.9125 55.639219) scale(0.1 -0.1)">
       <use xlink:href="#DejaVuSans-31"/>
       <use xlink:href="#DejaVuSans-30" x="63.623047"/>
       <use xlink:href="#DejaVuSans-30" x="127.246094"/>
      </g>
     </g>
    </g>
    <g id="text_17">
     <!-- $T_{sto,HT}$ [C] -->
     <g transform="translate(54.9125 271.36) rotate(-90) scale(0.2 -0.2)">
      <defs>
       <path id="DejaVuSans-Oblique-54" d="M 378 4666 
L 4325 4666 
L 4225 4134 
L 2559 4134 
L 1759 0 
L 1125 0 
L 1925 4134 
L 275 4134 
L 378 4666 
z
" transform="scale(0.015625)"/>
       <path id="DejaVuSans-Oblique-73" d="M 3200 3397 
L 3091 2853 
Q 2863 2978 2609 3040 
Q 2356 3103 2088 3103 
Q 1634 3103 1373 2948 
Q 1113 2794 1113 2528 
Q 1113 2219 1719 2053 
Q 1766 2041 1788 2034 
L 1972 1978 
Q 2547 1819 2739 1644 
Q 2931 1469 2931 1166 
Q 2931 609 2489 259 
Q 2047 -91 1331 -91 
Q 1053 -91 747 -37 
Q 441 16 72 128 
L 184 722 
Q 500 559 806 475 
Q 1113 391 1394 391 
Q 1816 391 2080 572 
Q 2344 753 2344 1031 
Q 2344 1331 1650 1516 
L 1591 1531 
L 1394 1581 
Q 956 1697 753 1886 
Q 550 2075 550 2369 
Q 550 2928 970 3256 
Q 1391 3584 2113 3584 
Q 2397 3584 2667 3537 
Q 2938 3491 3200 3397 
z
" transform="scale(0.015625)"/>
       <path id="DejaVuSans-Oblique-74" d="M 2706 3500 
L 2619 3053 
L 1472 3053 
L 1100 1153 
Q 1081 1047 1072 975 
Q 1063 903 1063 863 
Q 1063 663 1183 572 
Q 1303 481 1569 481 
L 2150 481 
L 2053 0 
L 1503 0 
Q 991 0 739 200 
Q 488 400 488 806 
Q 488 878 497 964 
Q 506 1050 525 1153 
L 897 3053 
L 409 3053 
L 500 3500 
L 978 3500 
L 1172 4494 
L 1747 4494 
L 1556 3500 
L 2706 3500 
z
" transform="scale(0.015625)"/>
       <path id="DejaVuSans-Oblique-6f" d="M 1625 -91 
Q 1009 -91 651 289 
Q 294 669 294 1325 
Q 294 1706 417 2101 
Q 541 2497 738 2766 
Q 1047 3184 1428 3384 
Q 1809 3584 2291 3584 
Q 2888 3584 3255 3212 
Q 3622 2841 3622 2241 
Q 3622 1825 3500 1412 
Q 3378 1000 3181 728 
Q 2875 309 2494 109 
Q 2113 -91 1625 -91 
z
M 891 1344 
Q 891 869 1089 633 
Q 1288 397 1691 397 
Q 2269 397 2648 901 
Q 3028 1406 3028 2181 
Q 3028 2634 2825 2865 
Q 2622 3097 2228 3097 
Q 1903 3097 1650 2945 
Q 1397 2794 1197 2484 
Q 1050 2253 970 1956 
Q 891 1659 891 1344 
z
" transform="scale(0.015625)"/>
       <path id="DejaVuSans-2c" d="M 750 794 
L 1409 794 
L 1409 256 
L 897 -744 
L 494 -744 
L 750 256 
L 750 794 
z
" transform="scale(0.015625)"/>
       <path id="DejaVuSans-Oblique-48" d="M 1081 4666 
L 1716 4666 
L 1344 2753 
L 3634 2753 
L 4006 4666 
L 4641 4666 
L 3731 0 
L 3097 0 
L 3531 2222 
L 1241 2222 
L 806 0 
L 172 0 
L 1081 4666 
z
" transform="scale(0.015625)"/>
       <path id="DejaVuSans-b0" d="M 1600 4347 
Q 1350 4347 1178 4173 
Q 1006 4000 1006 3750 
Q 1006 3503 1178 3333 
Q 1350 3163 1600 3163 
Q 1850 3163 2022 3333 
Q 2194 3503 2194 3750 
Q 2194 3997 2020 4172 
Q 1847 4347 1600 4347 
z
M 1600 4750 
Q 1800 4750 1984 4673 
Q 2169 4597 2303 4453 
Q 2447 4313 2519 4134 
Q 2591 3956 2591 3750 
Q 2591 3338 2302 3052 
Q 2013 2766 1594 2766 
Q 1172 2766 890 3047 
Q 609 3328 609 3750 
Q 609 4169 896 4459 
Q 1184 4750 1600 4750 
z
" transform="scale(0.015625)"/>
       <path id="DejaVuSans-43" d="M 4122 4306 
L 4122 3641 
Q 3803 3938 3442 4084 
Q 3081 4231 2675 4231 
Q 1875 4231 1450 3742 
Q 1025 3253 1025 2328 
Q 1025 1406 1450 917 
Q 1875 428 2675 428 
Q 3081 428 3442 575 
Q 3803 722 4122 1019 
L 4122 359 
Q 3791 134 3420 21 
Q 3050 -91 2638 -91 
Q 1578 -91 968 557 
Q 359 1206 359 2328 
Q 359 3453 968 4101 
Q 1578 4750 2638 4750 
Q 3056 4750 3426 4639 
Q 3797 4528 4122 4306 
z
" transform="scale(0.015625)"/>
      </defs>
      <use xlink:href="#DejaVuSans-Oblique-54" transform="translate(0 0.015625)"/>
      <use xlink:href="#DejaVuSans-Oblique-73" transform="translate(61.083984 -16.390625) scale(0.7)"/>
      <use xlink:href="#DejaVuSans-Oblique-74" transform="translate(97.553711 -16.390625) scale(0.7)"/>
      <use xlink:href="#DejaVuSans-Oblique-6f" transform="translate(125 -16.390625) scale(0.7)"/>
      <use xlink:href="#DejaVuSans-2c" transform="translate(167.827148 -16.390625) scale(0.7)"/>
      <use xlink:href="#DejaVuSans-Oblique-48" transform="translate(203.71582 -16.390625) scale(0.7)"/>
      <use xlink:href="#DejaVuSans-Oblique-54" transform="translate(256.352539 -16.390625) scale(0.7)"/>
      <use xlink:href="#DejaVuSans-20" transform="translate(301.845703 0.015625)"/>
      <use xlink:href="#DejaVuSans-5b" transform="translate(333.632812 0.015625)"/>
      <use xlink:href="#DejaVuSans-b0" transform="translate(372.646484 0.015625)"/>
      <use xlink:href="#DejaVuSans-43" transform="translate(422.646484 0.015625)"/>
      <use xlink:href="#DejaVuSans-5d" transform="translate(492.470703 0.015625)"/>
     </g>
    </g>
   </g>
   <g id="QuadContourSet_2">
    <path clip-path="url(#p88e1820fd9)" style="fill: none; stroke: #000000; stroke-width: 1.5"/>
    <path d="M 223.812356 384.48 
L 225.272727 384.202485 
L 230.909091 383.131404 
L 236.545455 382.060324 
L 241.493733 381.12 
L 242.181818 380.996644 
L 247.818182 380.197276 
L 253.454545 379.212682 
L 259.090909 378.125335 
L 260.984653 377.76 
L 264.727273 377.037987 
L 270.363636 375.950639 
L 276 374.863292 
L 278.401513 374.4 
L 281.636364 373.775944 
L 287.272727 372.688596 
L 292.909091 371.601249 
L 295.818373 371.04 
L 298.545455 370.513901 
L 304.181818 369.506554 
L 309.818182 368.725784 
L 315.454545 368.010504 
L 318.058902 367.68 
L 321.090909 367.295225 
L 326.727273 366.579945 
L 332.363636 365.76875 
L 338 364.885619 
L 341.60992 364.32 
L 343.636364 364.002487 
L 349.272727 363.119356 
L 354.909091 362.236225 
L 360.545455 361.353093 
L 363.054275 360.96 
L 366.181818 360.469962 
L 371.818182 359.558848 
L 377.454545 358.629952 
L 383.090909 357.686411 
L 383.607095 357.6 
L 388.727273 356.742869 
L 394.363636 355.799328 
L 400 354.855786 
L 403.678476 354.24 
L 405.636364 353.912245 
L 408.076786 353.503712 
M 437.014123 348.659529 
L 439.454545 348.250996 
L 443.82124 347.52 
L 445.090909 347.307454 
L 450.727273 346.363913 
L 456.363636 345.398384 
L 462 344.462081 
L 463.780077 344.16 
L 467.636364 343.485607 
L 473.272727 342.50643 
L 478.909091 341.540533 
L 483.139573 340.8 
L 484.545455 340.55078 
L 490.181818 339.567277 
L 495.818182 338.580649 
L 501.454545 337.594021 
L 502.334427 337.44 
L 507.090909 336.459294 
L 512.727273 335.297171 
L 518.363636 334.135048 
L 518.630622 334.08 
L 524 332.939102 
L 529.636364 331.741475 
L 534.443707 330.72 
L 535.272727 330.543848 
L 540.909091 329.346221 
L 546.545455 328.148593 
L 550.256792 327.36 
L 552.181818 326.980578 
L 557.818182 326.112905 
L 563.454545 325.245231 
L 569.090909 324.379738 
L 571.601839 324 
L 574.727273 323.527328 
L 580.363636 322.674917 
L 586 321.822507 
L 590.894399 321.082307 
" clip-path="url(#p88e1820fd9)" style="fill: none; stroke: #000000; stroke-width: 1.5"/>
    <path d="M 90 372.33847 
L 95.636364 371.864436 
L 101.272727 371.390403 
L 105.439091 371.04 
L 106.909091 370.916369 
L 112.545455 370.442335 
L 118.181818 369.819998 
L 123.818182 369.158926 
L 129.454545 368.497854 
L 135.090909 367.836782 
L 136.427646 367.68 
L 140.727273 367.17571 
L 146.363636 366.514638 
L 152 365.853566 
L 157.636364 365.192494 
L 163.272727 364.531422 
L 165.07533 364.32 
L 168.909091 363.87035 
L 174.545455 362.857842 
L 180.181818 361.786761 
L 184.532495 360.96 
L 185.818182 360.71568 
L 191.454545 359.6446 
L 197.090909 358.573519 
L 202.213873 357.6 
L 202.727273 357.507961 
L 208.363636 356.707899 
L 214 355.980191 
L 219.636364 355.252483 
L 225.272727 354.524776 
L 227.478418 354.24 
L 230.909091 353.797068 
L 236.545455 353.06936 
L 242.181818 352.341652 
L 247.818182 351.613945 
L 252.019692 350.88 
L 253.454545 350.629351 
L 259.090909 349.542004 
L 264.727273 348.454656 
L 270.363636 347.541481 
L 270.526838 347.52 
L 276 346.825431 
L 281.636364 346.110152 
L 287.272727 345.394872 
L 292.909091 344.679592 
L 297.003448 344.16 
L 298.545455 343.964312 
L 304.181818 343.249033 
L 309.818182 342.533753 
L 315.454545 341.818473 
L 321.090909 341.103194 
L 323.480058 340.8 
L 326.727273 340.387914 
L 332.363636 339.576719 
L 338 338.693588 
L 343.636364 337.810456 
L 346.000709 337.44 
L 349.272727 336.820778 
L 354.909091 335.754109 
L 360.545455 334.68744 
L 363.755215 334.08 
L 366.181818 333.604293 
L 371.818182 332.499352 
L 377.454545 331.39441 
L 380.894746 330.72 
L 383.090909 330.289468 
L 388.727273 329.184527 
L 394.363636 328.113092 
L 398.871202 327.36 
L 400 327.177208 
L 405.636364 326.26448 
L 411.272727 325.352994 
L 413.743715 324.954122 
M 442.580361 320.062524 
L 445.090909 319.58222 
L 450.727273 318.503901 
L 456.363636 317.425582 
L 457.124592 317.28 
L 462 316.347263 
L 467.636364 315.268944 
L 473.272727 314.190626 
L 474.687285 313.92 
L 478.909091 313.112307 
L 484.545455 312.033988 
L 490.181818 310.921581 
L 491.883518 310.56 
L 495.818182 309.723954 
L 501.454545 308.526326 
L 507.090909 307.328699 
L 507.696603 307.2 
L 512.727273 306.131072 
L 518.363636 305.097534 
L 524 304.229861 
L 526.532515 303.84 
L 529.636364 303.362187 
L 535.272727 302.494514 
L 540.909091 301.62684 
L 546.545455 300.759166 
L 548.358906 300.48 
L 552.181818 299.891493 
L 557.818182 299.023819 
L 563.454545 298.156146 
L 569.090909 297.290653 
L 570.21931 297.12 
L 574.727273 296.438242 
L 580.363636 295.585832 
L 586 294.733421 
L 591.636364 293.881011 
L 592.436518 293.76 
L 597.272727 293.0286 
L 602.909091 292.17619 
L 608.545455 291.323779 
L 614.181818 290.471369 
L 614.653726 290.4 
L 619.818182 289.525041 
L 625.454545 288.570131 
L 631.090909 287.615221 
L 634.486157 287.04 
L 636.727273 286.641126 
L 642.363636 285.658636 
L 648 284.733402 
" clip-path="url(#p88e1820fd9)" style="fill: none; stroke: #000000; stroke-width: 1.5"/>
    <path d="M 90 339.206854 
L 95.636364 338.73282 
L 101.272727 338.258787 
L 106.909091 337.784753 
L 111.008278 337.44 
L 112.545455 337.291514 
L 118.181818 336.747062 
L 123.818182 336.202611 
L 129.454545 335.658159 
L 135.090909 335.113707 
L 140.727273 334.569255 
L 145.792214 334.08 
L 146.363636 334.023401 
L 152 333.465127 
L 157.636364 332.906853 
L 163.272727 332.42877 
L 168.909091 332.088858 
L 174.545455 331.414928 
L 179.876116 330.72 
L 180.181818 330.680147 
L 185.818182 329.803292 
L 191.454545 328.924247 
L 197.090909 328.045202 
L 201.48437 327.36 
L 202.727273 327.166157 
L 208.363636 326.287112 
L 214 325.408067 
L 219.636364 324.529022 
L 223.028411 324 
L 225.272727 323.649977 
L 230.909091 322.770932 
L 236.545455 321.891887 
L 242.181818 321.012842 
L 244.572452 320.64 
L 247.818182 320.133797 
L 253.454545 319.337815 
L 259.090909 318.575059 
L 264.727273 317.812303 
L 268.660706 317.28 
L 270.363636 317.049546 
L 276 316.28679 
L 281.636364 315.524033 
L 287.272727 314.724311 
L 292.442642 313.92 
L 292.909091 313.847432 
L 298.545455 312.953028 
L 304.181818 312.058096 
L 309.818182 311.163164 
L 313.616965 310.56 
L 315.454545 310.268232 
L 321.090909 309.3733 
L 326.727273 308.478369 
L 332.363636 307.463431 
L 333.707413 307.2 
L 338 306.35849 
L 343.636364 305.253548 
L 349.272727 304.148606 
L 350.910975 303.84 
L 354.909091 303.119274 
L 360.545455 302.206547 
L 366.181818 301.29382 
L 371.207396 300.48 
L 371.818182 300.381092 
L 377.454545 299.468365 
L 383.090909 298.555637 
L 388.727273 297.64291 
L 391.956398 297.12 
L 394.363636 296.730183 
L 400 295.817455 
L 405.636364 294.904728 
L 411.272727 293.993241 
L 412.717646 293.76 
L 416.909091 293.083409 
L 422.545455 292.173578 
L 428.181818 291.263746 
L 433.53268 290.4 
L 433.818182 290.347639 
L 439.454545 289.313933 
L 445.090909 288.280226 
L 450.727273 287.24652 
L 451.853338 287.04 
L 456.363636 286.16517 
L 462 285.071925 
L 467.636364 283.97868 
L 469.176245 283.68 
L 473.272727 282.885435 
L 478.909091 281.920287 
L 484.545455 281.129216 
L 490.181818 280.340434 
L 490.328898 280.32 
L 495.818182 279.557372 
L 501.454545 278.774311 
L 507.090909 277.934567 
L 512.727273 277.007888 
L 512.991605 276.96 
L 518.363636 275.986766 
L 524 274.965643 
L 529.636364 273.944521 
L 531.538038 273.6 
L 535.272727 272.923398 
L 540.909091 271.902275 
L 546.545455 270.881153 
L 549.063801 270.424912 
M 577.850594 265.240179 
L 580.363636 264.792908 
L 586 263.789748 
L 587.515606 263.52 
L 591.636364 262.786587 
L 597.272727 261.783427 
L 602.909091 260.820658 
L 606.96091 260.16 
L 608.545455 259.903151 
L 614.181818 258.989518 
L 619.818182 258.075885 
L 625.454545 257.162251 
L 627.689336 256.8 
L 631.090909 256.248618 
L 636.727273 255.334984 
L 642.363636 254.421351 
L 648 253.507718 
" clip-path="url(#p88e1820fd9)" style="fill: none; stroke: #000000; stroke-width: 1.5"/>
    <path d="M 90 300.58672 
L 91.077451 300.48 
L 95.636364 300.028446 
L 101.272727 299.470172 
L 106.909091 298.984525 
L 112.545455 298.64178 
L 118.181818 298.332949 
L 123.818182 298.024118 
L 129.454545 297.715287 
L 135.090909 297.406456 
L 140.318919 297.12 
L 140.727273 297.097625 
L 146.363636 296.788794 
L 152 296.479963 
L 157.636364 296.171133 
L 163.272727 295.862302 
L 168.909091 295.553471 
L 174.545455 294.87954 
L 180.181818 294.14476 
L 183.133238 293.76 
L 185.818182 293.409979 
L 191.454545 292.675199 
L 197.090909 291.940418 
L 202.727273 291.205638 
L 208.363636 290.470857 
L 208.907171 290.4 
L 214 289.653418 
L 219.636364 288.827157 
L 225.272727 288.000895 
L 230.909091 287.174634 
L 231.827501 287.04 
L 236.545455 286.312124 
L 242.181818 285.442558 
L 247.818182 284.572992 
L 253.226145 283.68 
L 253.454545 283.642285 
L 259.090909 282.687122 
L 264.727273 281.731959 
L 270.363636 280.776796 
L 273.059161 280.32 
L 276 279.821632 
L 281.636364 278.866469 
L 284.126039 278.444558 
M 313.022348 273.939434 
L 315.454545 273.643382 
L 315.810945 273.6 
L 321.090909 272.957312 
L 326.727273 272.271243 
L 332.363636 271.448655 
L 338 270.52368 
L 339.728611 270.24 
L 343.636364 269.598704 
L 349.272727 268.673729 
L 354.909091 267.748753 
L 360.202862 266.88 
L 360.545455 266.823778 
L 366.181818 265.898802 
L 371.818182 264.885039 
L 377.454545 263.808416 
L 378.936793 263.52 
L 383.090909 262.711692 
L 388.727273 261.614967 
L 394.363636 260.518243 
L 396.204746 260.16 
L 400 259.421519 
L 405.636364 258.324795 
L 411.272727 257.229562 
L 413.487388 256.8 
L 416.909091 256.136317 
L 422.545455 255.043072 
L 428.181818 253.949827 
L 431.567841 253.44 
L 433.818182 253.124162 
L 439.454545 252.333091 
L 445.090909 251.54202 
L 450.727273 250.75095 
L 455.507776 250.08 
L 456.363636 249.959879 
L 462 249.168808 
L 467.636364 248.377738 
L 473.272727 247.586667 
L 478.909091 246.795596 
L 479.447712 246.72 
L 484.545455 246.004525 
L 490.181818 245.215743 
L 495.818182 244.432682 
L 501.454545 243.649621 
L 503.539193 243.36 
L 507.090909 242.811616 
L 512.727273 241.941363 
L 518.363636 241.071109 
L 524 240.200856 
L 525.300884 240 
L 529.636364 239.269607 
L 535.272727 238.320056 
L 540.909091 237.370506 
L 545.245241 236.64 
L 546.545455 236.420955 
L 552.181818 235.471404 
L 557.818182 234.590842 
L 563.454545 233.818415 
L 567.267483 233.28 
L 569.090909 233.022519 
L 574.727273 231.984663 
L 580.363636 230.946807 
L 585.939998 229.92 
L 586 229.908951 
L 591.636364 228.812758 
L 597.272727 227.694801 
L 602.890633 226.56 
L 602.909091 226.556272 
L 608.545455 225.417742 
L 614.181818 224.279213 
L 619.524531 223.2 
L 619.818182 223.140683 
L 625.454545 222.002154 
L 631.090909 220.863625 
L 636.158429 219.84 
L 636.727273 219.725095 
L 642.363636 218.586566 
L 648 217.448036 
" clip-path="url(#p88e1820fd9)" style="fill: none; stroke: #000000; stroke-width: 1.5"/>
    <path d="M 90 255.364125 
L 95.636364 254.960892 
L 101.272727 254.557659 
L 106.909091 254.154426 
L 112.545455 253.864001 
L 118.181818 253.686414 
L 123.818182 253.520275 
L 126.541553 253.44 
L 129.454545 253.354136 
L 135.090909 253.187997 
L 140.727273 253.021858 
L 146.363636 252.855719 
L 152 252.68958 
L 157.636364 252.523441 
L 163.272727 252.357302 
L 168.909091 252.191163 
L 174.545455 251.494197 
L 180.181818 250.708759 
L 184.693847 250.08 
L 185.818182 249.923322 
L 191.454545 249.137885 
L 197.090909 248.352447 
L 202.727273 247.56701 
L 208.363636 246.781573 
L 208.805486 246.72 
L 214 245.996135 
L 219.636364 245.210698 
L 225.272727 244.42526 
L 230.909091 243.639823 
L 232.917124 243.36 
L 236.545455 242.791333 
L 242.181818 241.907947 
L 247.818182 241.057706 
L 253.454545 240.256637 
L 255.296287 240 
L 259.090909 239.406831 
L 264.727273 238.525765 
L 270.363636 237.644698 
L 276 236.763632 
L 276.790897 236.64 
L 281.636364 235.882565 
L 287.272727 235.001498 
L 289.732293 234.617023 
M 318.673184 230.398377 
L 321.090909 230.119891 
L 322.826289 229.92 
L 326.727273 229.470663 
L 332.363636 228.696649 
L 338 227.829045 
L 343.636364 226.961441 
L 346.244312 226.56 
L 349.272727 226.093837 
L 354.909091 225.226233 
L 360.545455 224.276799 
L 366.181818 223.233168 
L 366.36095 223.2 
L 371.818182 222.189537 
L 377.454545 221.145906 
L 383.090909 220.102274 
L 384.50738 219.84 
L 388.727273 219.058643 
L 394.363636 218.015012 
L 400 216.971381 
L 402.65381 216.48 
L 405.636364 215.927749 
L 411.272727 214.996343 
L 416.909091 214.21457 
L 422.545455 213.432798 
L 424.800638 213.12 
L 428.181818 212.651025 
L 433.818182 211.869252 
L 439.454545 211.087479 
L 445.090909 210.305707 
L 449.025303 209.76 
L 450.727273 209.523934 
L 456.363636 208.742161 
L 462 207.960389 
L 467.636364 207.132215 
L 472.048327 206.4 
L 473.272727 206.196797 
L 478.909091 205.239532 
L 484.545455 204.280269 
L 490.181818 203.323781 
L 491.866289 203.04 
L 495.818182 202.37423 
L 501.454545 201.47729 
L 507.090909 200.698607 
L 512.727273 199.943038 
L 514.689474 199.68 
L 518.363636 199.187469 
L 524 198.4319 
L 529.636364 197.676331 
L 535.272727 196.920762 
L 539.754267 196.32 
L 540.909091 196.148219 
L 546.545455 195.309805 
L 552.181818 194.471391 
L 557.818182 193.632977 
L 562.34237 192.96 
L 563.454545 192.770864 
L 569.090909 191.914386 
L 574.727273 190.981661 
L 580.363636 189.933461 
L 582.037609 189.6 
L 586 188.810678 
L 591.636364 187.687895 
L 597.272727 186.565112 
L 598.904789 186.24 
L 602.909091 185.442329 
L 608.545455 184.319546 
L 614.181818 183.196764 
L 615.771969 182.88 
L 619.818182 182.073981 
L 625.454545 180.951198 
L 631.090909 179.828415 
L 632.639149 179.52 
L 636.727273 178.705632 
L 642.363636 177.582849 
L 648 176.460066 
" clip-path="url(#p88e1820fd9)" style="fill: none; stroke: #000000; stroke-width: 1.5"/>
    <path d="M 90 200.671859 
L 95.636364 200.578086 
L 101.272727 200.484312 
L 106.909091 200.390539 
L 112.545455 200.296766 
L 118.181818 200.202992 
L 123.818182 200.109219 
L 129.454545 200.015446 
L 135.090909 199.921672 
L 140.727273 199.827899 
L 146.363636 199.734125 
L 149.616908 199.68 
L 152 199.640352 
L 157.636364 199.546579 
L 163.272727 199.40569 
L 168.909091 199.204945 
L 174.545455 198.36469 
L 180.181818 197.56611 
L 185.818182 196.856943 
L 190.085733 196.32 
L 191.454545 196.133836 
L 197.090909 195.367269 
L 202.727273 194.600701 
L 208.363636 193.834134 
L 214 193.067566 
L 214.790906 192.96 
L 219.636364 192.221275 
L 225.272727 191.36197 
L 230.909091 190.502666 
L 236.545455 189.643361 
L 236.82987 189.6 
L 242.181818 188.784057 
L 247.818182 187.924752 
L 253.454545 187.084833 
L 259.090909 186.252667 
L 259.176704 186.24 
L 264.727273 185.420501 
L 270.363636 184.588336 
L 276 183.75617 
L 281.636364 182.924005 
L 281.934414 182.88 
L 287.272727 182.091839 
L 292.909091 181.259674 
L 298.545455 180.427508 
L 304.181818 179.595343 
L 304.789437 179.52 
L 309.818182 178.920242 
L 315.454545 178.248017 
L 321.090909 177.575791 
L 326.727273 176.903565 
L 332.363636 176.203308 
L 332.702062 176.16 
L 338 175.482028 
L 343.636364 174.760748 
L 349.272727 174.039468 
L 354.909091 173.318187 
L 358.95841 172.8 
L 360.545455 172.596907 
L 366.181818 171.840078 
L 371.818182 170.948208 
L 377.454545 169.979043 
L 380.589454 169.44 
L 383.090909 169.009878 
L 388.727273 168.040714 
L 394.363636 167.071549 
L 400 166.102385 
L 400.130183 166.08 
L 405.636364 165.13322 
L 411.272727 164.234323 
L 416.909091 163.429116 
L 421.872832 162.72 
L 422.545455 162.62391 
L 428.181818 161.818703 
L 433.818182 161.013496 
L 439.454545 160.208289 
L 445.090909 159.403082 
L 445.392481 159.36 
L 450.727273 158.597876 
L 456.363636 157.792669 
L 462 156.987462 
L 467.636364 156.182255 
L 468.912131 156 
L 473.272727 155.377048 
L 478.909091 154.497517 
L 484.545455 153.59402 
L 490.181818 152.6681 
L 490.34311 152.64 
L 495.818182 151.708912 
L 501.454545 150.862498 
L 507.090909 150.058832 
L 512.553105 149.28 
L 512.727273 149.253606 
L 518.363636 148.399451 
L 524 147.545296 
L 529.636364 146.69114 
L 534.724932 145.92 
L 535.272727 145.821518 
L 540.909091 144.808214 
L 546.545455 143.79491 
L 552.181818 142.781607 
L 553.414475 142.56 
L 557.818182 141.783048 
L 560.842249 141.305299 
M 589.869005 137.035039 
L 591.636364 136.755525 
L 597.272727 135.853919 
L 597.359744 135.84 
L 602.909091 134.952314 
L 608.545455 134.050708 
L 614.181818 133.149102 
L 618.36469 132.48 
L 619.818182 132.247496 
L 625.454545 131.34589 
L 631.090909 130.444284 
L 636.727273 129.542679 
L 639.369636 129.12 
L 642.363636 128.641073 
L 648 127.739467 
" clip-path="url(#p88e1820fd9)" style="fill: none; stroke: #000000; stroke-width: 1.5"/>
    <path d="M 90 131.984225 
L 95.636364 131.984225 
L 101.272727 131.984225 
L 106.909091 131.984225 
L 112.545455 131.984225 
L 118.181818 131.984225 
L 123.818182 131.984225 
L 129.454545 131.984225 
L 135.090909 131.984225 
L 140.727273 131.984225 
L 146.363636 131.984225 
L 152 131.984225 
L 157.636364 131.984225 
L 163.272727 131.984225 
L 168.909091 131.984225 
L 174.545455 131.080761 
L 180.181818 130.02672 
L 185.030401 129.12 
L 185.818182 128.972679 
L 191.454545 127.918638 
L 197.090909 126.864597 
L 202.727273 125.810556 
L 202.997616 125.76 
L 208.363636 124.756515 
L 214 123.911185 
L 219.636364 123.304895 
L 225.272727 122.698606 
L 228.04871 122.4 
L 230.909091 122.092316 
L 236.545455 121.486026 
L 242.181818 120.879736 
L 247.818182 120.273447 
L 253.454545 119.500378 
L 256.544466 119.04 
L 259.090909 118.660597 
L 264.727273 117.820816 
L 270.363636 116.981036 
L 276 116.141255 
L 279.516633 115.68 
L 281.636364 115.411342 
L 287.272727 114.713166 
L 292.909091 114.01499 
L 298.545455 113.316814 
L 304.181818 112.618638 
L 306.592716 112.32 
L 309.818182 111.920462 
L 315.454545 111.222286 
L 321.090909 110.524109 
L 326.727273 109.825933 
L 332.363636 109.160912 
L 334.132598 108.96 
L 338 108.520756 
L 343.636364 107.8806 
L 349.272727 107.240444 
L 354.909091 106.600289 
L 360.545455 105.960133 
L 363.716308 105.6 
L 366.181818 105.319977 
L 371.818182 104.679821 
L 377.454545 104.039666 
L 383.090909 103.39951 
L 388.727273 102.759354 
L 393.300019 102.24 
L 394.363636 102.116136 
L 400 101.459754 
L 405.636364 100.765474 
L 411.272727 99.996926 
L 416.909091 99.23407 
L 419.644377 98.88 
L 422.545455 98.426107 
L 428.181818 97.544259 
L 433.818182 96.662412 
L 439.454545 95.780565 
L 441.119954 95.52 
L 445.090909 94.898717 
L 450.727273 94.01687 
L 456.363636 93.135022 
L 462 92.253175 
L 462.595532 92.16 
L 467.636364 91.371328 
L 473.272727 90.48948 
L 478.909091 89.607633 
L 484.07111 88.8 
L 484.545455 88.725786 
L 490.181818 87.898486 
L 495.818182 87.207554 
L 501.454545 86.516623 
L 507.090909 85.819495 
L 510.005779 85.44 
L 512.727273 85.085681 
L 518.363636 84.15212 
L 524 83.187407 
L 529.636364 82.222693 
L 530.470054 82.08 
L 535.272727 81.25798 
L 540.909091 80.293267 
L 546.545455 79.328553 
L 550.100942 78.72 
L 552.181818 78.36384 
L 557.818182 77.399126 
L 563.454545 76.434413 
L 569.090909 75.477133 
L 569.814285 75.36 
L 571.563044 75.07683 
M 600.439732 70.418779 
L 602.909091 70.031343 
L 608.545455 69.170818 
L 612.022268 68.64 
L 614.181818 68.310293 
L 619.818182 67.449769 
L 625.454545 66.589244 
L 631.090909 65.72872 
L 634.029984 65.28 
L 636.727273 64.868195 
L 642.363636 64.00767 
L 648 63.147146 
" clip-path="url(#p88e1820fd9)" style="fill: none; stroke: #000000; stroke-width: 1.5"/>
    <path clip-path="url(#p88e1820fd9)" style="fill: none; stroke: #000000; stroke-width: 1.5"/>
    <path clip-path="url(#p88e1820fd9)" style="fill: none; stroke: #000000; stroke-width: 1.5"/>
   </g>
   <g id="patch_3">
    <path d="M 90 384.48 
L 90 51.84 
" style="fill: none; stroke: #000000; stroke-width: 0.8; stroke-linejoin: miter; stroke-linecap: square"/>
   </g>
   <g id="patch_4">
    <path d="M 648 384.48 
L 648 51.84 
" style="fill: none; stroke: #000000; stroke-width: 0.8; stroke-linejoin: miter; stroke-linecap: square"/>
   </g>
   <g id="patch_5">
    <path d="M 90 384.48 
L 648 384.48 
" style="fill: none; stroke: #000000; stroke-width: 0.8; stroke-linejoin: miter; stroke-linecap: square"/>
   </g>
   <g id="patch_6">
    <path d="M 90 51.84 
L 648 51.84 
" style="fill: none; stroke: #000000; stroke-width: 0.8; stroke-linejoin: miter; stroke-linecap: square"/>
   </g>
   <g id="text_18">
    <g clip-path="url(#p88e1820fd9)">
     <!-- 0.01 -->
     <g transform="translate(412.021016 355.641209) rotate(-9.503339) scale(0.1 -0.1)">
      <defs>
       <path id="DejaVuSans-2e" d="M 684 794 
L 1344 794 
L 1344 0 
L 684 0 
L 684 794 
z
" transform="scale(0.015625)"/>
      </defs>
      <use xlink:href="#DejaVuSans-30"/>
      <use xlink:href="#DejaVuSans-2e" x="63.623047"/>
      <use xlink:href="#DejaVuSans-30" x="95.410156"/>
      <use xlink:href="#DejaVuSans-31" x="159.033203"/>
     </g>
    </g>
   </g>
   <g id="text_19">
    <g clip-path="url(#p88e1820fd9)">
     <!-- 0.02 -->
     <g transform="translate(417.658596 327.185893) rotate(-9.518617) scale(0.1 -0.1)">
      <use xlink:href="#DejaVuSans-30"/>
      <use xlink:href="#DejaVuSans-2e" x="63.623047"/>
      <use xlink:href="#DejaVuSans-30" x="95.410156"/>
      <use xlink:href="#DejaVuSans-32" x="159.033203"/>
     </g>
    </g>
   </g>
   <g id="text_20">
    <g clip-path="url(#p88e1820fd9)">
     <!-- 0.03 -->
     <g transform="translate(552.987933 272.508593) rotate(-10.219664) scale(0.1 -0.1)">
      <defs>
       <path id="DejaVuSans-33" d="M 2597 2516 
Q 3050 2419 3304 2112 
Q 3559 1806 3559 1356 
Q 3559 666 3084 287 
Q 2609 -91 1734 -91 
Q 1441 -91 1130 -33 
Q 819 25 488 141 
L 488 750 
Q 750 597 1062 519 
Q 1375 441 1716 441 
Q 2309 441 2620 675 
Q 2931 909 2931 1356 
Q 2931 1769 2642 2001 
Q 2353 2234 1838 2234 
L 1294 2234 
L 1294 2753 
L 1863 2753 
Q 2328 2753 2575 2939 
Q 2822 3125 2822 3475 
Q 2822 3834 2567 4026 
Q 2313 4219 1838 4219 
Q 1578 4219 1281 4162 
Q 984 4106 628 3988 
L 628 4550 
Q 988 4650 1302 4700 
Q 1616 4750 1894 4750 
Q 2613 4750 3031 4423 
Q 3450 4097 3450 3541 
Q 3450 3153 3228 2886 
Q 3006 2619 2597 2516 
z
" transform="scale(0.015625)"/>
      </defs>
      <use xlink:href="#DejaVuSans-30"/>
      <use xlink:href="#DejaVuSans-2e" x="63.623047"/>
      <use xlink:href="#DejaVuSans-30" x="95.410156"/>
      <use xlink:href="#DejaVuSans-33" x="159.033203"/>
     </g>
    </g>
   </g>
   <g id="text_21">
    <g clip-path="url(#p88e1820fd9)">
     <!-- 0.04 -->
     <g transform="translate(287.984521 280.47539) rotate(-9.040425) scale(0.1 -0.1)">
      <use xlink:href="#DejaVuSans-30"/>
      <use xlink:href="#DejaVuSans-2e" x="63.623047"/>
      <use xlink:href="#DejaVuSans-30" x="95.410156"/>
      <use xlink:href="#DejaVuSans-34" x="159.033203"/>
     </g>
    </g>
   </g>
   <g id="text_22">
    <g clip-path="url(#p88e1820fd9)">
     <!-- 0.05 -->
     <g transform="translate(293.57657 236.726637) rotate(-8.466164) scale(0.1 -0.1)">
      <use xlink:href="#DejaVuSans-30"/>
      <use xlink:href="#DejaVuSans-2e" x="63.623047"/>
      <use xlink:href="#DejaVuSans-30" x="95.410156"/>
      <use xlink:href="#DejaVuSans-35" x="159.033203"/>
     </g>
    </g>
   </g>
   <g id="text_23">
    <g clip-path="url(#p88e1820fd9)">
     <!-- 0.06 -->
     <g transform="translate(564.734577 143.518866) rotate(-8.199141) scale(0.1 -0.1)">
      <use xlink:href="#DejaVuSans-30"/>
      <use xlink:href="#DejaVuSans-2e" x="63.623047"/>
      <use xlink:href="#DejaVuSans-30" x="95.410156"/>
      <use xlink:href="#DejaVuSans-36" x="159.033203"/>
     </g>
    </g>
   </g>
   <g id="text_24">
    <g clip-path="url(#p88e1820fd9)">
     <!-- 0.07 -->
     <g transform="translate(575.451041 77.241679) rotate(-9.193278) scale(0.1 -0.1)">
      <use xlink:href="#DejaVuSans-30"/>
      <use xlink:href="#DejaVuSans-2e" x="63.623047"/>
      <use xlink:href="#DejaVuSans-30" x="95.410156"/>
      <use xlink:href="#DejaVuSans-37" x="159.033203"/>
     </g>
    </g>
   </g>
  </g>
 </g>
 <defs>
  <clipPath id="p88e1820fd9">
   <rect x="90" y="51.84" width="558" height="332.64"/>
  </clipPath>
 </defs>
</svg>
