<?xml version="1.0" encoding="utf-8" standalone="no"?>
<!DOCTYPE svg PUBLIC "-//W3C//DTD SVG 1.1//EN"
  "http://www.w3.org/Graphics/SVG/1.1/DTD/svg11.dtd">
<svg xmlns:xlink="http://www.w3.org/1999/xlink" width="720pt" height="432pt" viewBox="0 0 720 432" xmlns="http://www.w3.org/2000/svg" version="1.1">
 <metadata>
  <rdf:RDF xmlns:dc="http://purl.org/dc/elements/1.1/" xmlns:cc="http://creativecommons.org/ns#" xmlns:rdf="http://www.w3.org/1999/02/22-rdf-syntax-ns#">
   <cc:Work>
    <dc:type rdf:resource="http://purl.org/dc/dcmitype/StillImage"/>
    <dc:date>2024-06-18T14:17:30.630299</dc:date>
    <dc:format>image/svg+xml</dc:format>
    <dc:creator>
     <cc:Agent>
      <dc:title>Matplotlib v3.8.3, https://matplotlib.org/</dc:title>
     </cc:Agent>
    </dc:creator>
   </cc:Work>
  </rdf:RDF>
 </metadata>
 <defs>
  <style type="text/css">*{stroke-linejoin: round; stroke-linecap: butt}</style>
 </defs>
 <g id="figure_1">
  <g id="patch_1">
   <path d="M 0 432 
L 720 432 
L 720 0 
L 0 0 
z
" style="fill: #ffffff"/>
  </g>
  <g id="axes_1">
   <g id="patch_2">
    <path d="M 90 384.48 
L 536.4 384.48 
L 536.4 51.84 
L 90 51.84 
z
" style="fill: #ffffff"/>
   </g>
   <g id="QuadContourSet_1">
    <path d="M 94.509091 384.48 
L 99.018182 384.48 
L 103.527273 384.48 
L 108.036364 384.48 
L 112.545455 384.48 
L 117.054545 384.48 
L 121.563636 384.48 
L 126.072727 384.48 
L 130.581818 384.48 
L 135.090909 384.48 
L 139.6 384.48 
L 144.109091 384.48 
L 148.618182 384.48 
L 153.127273 384.48 
L 157.636364 384.48 
L 162.145455 384.48 
L 166.654545 384.48 
L 171.163636 384.48 
L 175.672727 384.48 
L 180.181818 384.48 
L 184.690909 384.48 
L 189.2 384.48 
L 193.709091 384.48 
L 198.218182 384.48 
L 202.727273 384.48 
L 207.236364 384.48 
L 211.745455 384.48 
L 216.254545 384.48 
L 220.763636 384.48 
L 225.272727 384.48 
L 229.781818 384.48 
L 234.290909 384.48 
L 238.8 384.48 
L 243.309091 384.48 
L 247.818182 384.48 
L 252.327273 384.48 
L 256.836364 384.48 
L 261.345455 384.48 
L 265.854545 384.48 
L 270.363636 384.48 
L 274.872727 384.48 
L 279.381818 384.48 
L 283.890909 381.12 
L 288.4 381.12 
L 292.909091 381.12 
L 297.418182 377.76 
L 301.927273 377.76 
L 306.436364 377.76 
L 310.945455 374.4 
L 315.454545 374.4 
L 319.963636 374.4 
L 324.472727 371.04 
L 328.981818 371.04 
L 333.490909 367.68 
L 338 367.68 
L 342.509091 367.68 
L 347.018182 364.32 
L 351.527273 364.32 
L 356.036364 364.32 
L 360.545455 360.96 
L 365.054545 360.96 
L 369.563636 360.96 
L 374.072727 357.6 
L 378.581818 357.6 
L 383.090909 357.6 
L 387.6 354.24 
L 392.109091 354.24 
L 396.618182 354.24 
L 401.127273 350.88 
L 405.636364 350.88 
L 410.145455 350.88 
L 414.654545 347.52 
L 419.163636 347.52 
L 423.672727 344.16 
L 428.181818 344.16 
L 432.690909 344.16 
L 437.2 340.8 
L 441.709091 340.8 
L 446.218182 340.8 
L 450.727273 337.44 
L 455.236364 337.44 
L 459.745455 337.44 
L 464.254545 334.08 
L 468.763636 334.08 
L 473.272727 334.08 
L 477.781818 330.72 
L 482.290909 330.72 
L 486.8 330.72 
L 491.309091 327.36 
L 495.818182 327.36 
L 500.327273 327.36 
L 504.836364 324 
L 509.345455 324 
L 513.854545 320.64 
L 518.363636 320.64 
L 522.872727 320.64 
L 527.381818 317.28 
L 531.890909 317.28 
L 536.4 317.28 
L 536.4 313.92 
L 536.4 310.56 
L 536.4 307.2 
L 536.4 303.84 
L 536.4 300.48 
L 536.4 297.12 
L 536.4 293.76 
L 536.4 290.4 
L 536.4 287.04 
L 536.4 283.68 
L 536.4 280.32 
L 536.4 276.96 
L 536.4 273.6 
L 536.4 270.24 
L 536.4 266.88 
L 536.4 263.52 
L 536.4 260.16 
L 536.4 256.8 
L 536.4 253.44 
L 536.4 250.08 
L 536.4 246.72 
L 536.4 243.36 
L 536.4 242.928623 
L 535.072371 243.36 
L 531.890909 244.393729 
L 527.381818 245.7866 
L 524.262218 246.72 
L 522.872727 247.135743 
L 518.363636 248.484886 
L 513.854545 249.834029 
L 513.032463 250.08 
L 509.345455 251.271503 
L 504.836364 252.728671 
L 502.635214 253.44 
L 500.327273 254.227898 
L 495.818182 255.767237 
L 492.79297 256.8 
L 491.309091 257.306575 
L 486.8 258.845914 
L 482.950726 260.16 
L 482.290909 260.379471 
L 477.781818 261.709069 
L 473.272727 262.985835 
L 471.346291 263.52 
L 468.763636 264.236122 
L 464.254545 265.481997 
L 459.745455 266.730995 
L 459.250814 266.88 
L 455.236364 268.064966 
L 450.727273 269.471297 
L 448.283112 270.24 
L 446.218182 270.889433 
L 441.709091 272.307569 
L 437.59969 273.6 
L 437.2 273.725705 
L 432.690909 275.143841 
L 428.181818 276.561977 
L 426.916269 276.96 
L 423.672727 277.980113 
L 419.163636 279.398249 
L 416.232847 280.32 
L 414.654545 280.816385 
L 410.145455 282.234521 
L 405.636364 283.541337 
L 405.141037 283.68 
L 401.127273 284.803624 
L 396.618182 286.065911 
L 393.138581 287.04 
L 392.109091 287.328198 
L 387.6 288.590485 
L 383.090909 289.852773 
L 381.177647 290.4 
L 378.581818 291.147532 
L 374.072727 292.450632 
L 369.563636 293.753733 
L 369.541949 293.76 
L 365.054545 295.056833 
L 360.545455 296.359933 
L 357.915409 297.12 
L 356.036364 297.663033 
L 351.527273 298.966133 
L 347.018182 300.269233 
L 346.282204 300.48 
L 342.509091 301.560533 
L 338 302.842983 
L 334.494491 303.84 
L 333.490909 304.125433 
L 328.981818 305.407883 
L 324.472727 306.690333 
L 322.68074 307.2 
L 319.963636 307.972783 
L 315.454545 309.255233 
L 310.945455 310.537683 
L 310.866989 310.56 
L 306.436364 311.820133 
L 301.927273 313.102583 
L 299.053238 313.92 
L 297.418182 314.385033 
L 292.909091 315.667483 
L 288.4 316.949934 
L 287.239487 317.28 
L 283.890909 318.331237 
L 279.381818 319.749488 
L 276.572705 320.64 
L 274.872727 321.192067 
L 270.363636 322.656394 
L 266.226277 324 
L 265.854545 324.12072 
L 261.345455 325.585046 
L 256.836364 327.049372 
L 255.879849 327.36 
L 252.327273 328.513698 
L 247.818182 329.978025 
L 245.533422 330.72 
L 243.309091 331.442351 
L 238.8 332.906677 
L 235.186994 334.08 
L 234.290909 334.358047 
L 229.781818 335.466696 
L 225.272727 336.486504 
L 221.05684 337.44 
L 220.763636 337.506313 
L 216.254545 338.583785 
L 211.745455 339.805417 
L 208.074408 340.8 
L 207.236364 341.027048 
L 202.727273 342.24868 
L 198.218182 343.470311 
L 195.672513 344.16 
L 193.709091 344.691943 
L 189.2 345.921637 
L 184.690909 347.160748 
L 183.383598 347.52 
L 180.181818 348.399858 
L 175.672727 349.638968 
L 171.163636 350.878078 
L 171.156642 350.88 
L 166.654545 352.117188 
L 162.145455 353.356298 
L 158.929687 354.24 
L 157.636364 354.595409 
L 153.127273 355.727442 
L 148.618182 356.217016 
L 144.109091 356.70659 
L 139.6 357.196164 
L 135.880572 357.6 
L 135.090909 357.685737 
L 130.581818 358.178356 
L 126.072727 358.748162 
L 121.563636 359.37812 
L 117.054545 360.008078 
L 112.545455 360.638036 
L 110.240912 360.96 
L 108.036364 361.267994 
L 103.527273 361.897952 
L 99.018182 362.52791 
L 94.509091 363.157868 
L 90 363.787825 
L 90 364.32 
L 90 367.68 
L 90 371.04 
L 90 374.4 
L 90 377.76 
L 90 381.12 
L 90 384.48 
z
" clip-path="url(#p6ba6ca6c04)" style="fill: #481668"/>
    <path d="M 94.509091 363.157868 
L 99.018182 362.52791 
L 103.527273 361.897952 
L 108.036364 361.267994 
L 110.240912 360.96 
L 112.545455 360.638036 
L 117.054545 360.008078 
L 121.563636 359.37812 
L 126.072727 358.748162 
L 130.581818 358.178356 
L 135.090909 357.685737 
L 135.880572 357.6 
L 139.6 357.196164 
L 144.109091 356.70659 
L 148.618182 356.217016 
L 153.127273 355.727442 
L 157.636364 354.595409 
L 158.929687 354.24 
L 162.145455 353.356298 
L 166.654545 352.117188 
L 171.156642 350.88 
L 171.163636 350.878078 
L 175.672727 349.638968 
L 180.181818 348.399858 
L 183.383598 347.52 
L 184.690909 347.160748 
L 189.2 345.921637 
L 193.709091 344.691943 
L 195.672513 344.16 
L 198.218182 343.470311 
L 202.727273 342.24868 
L 207.236364 341.027048 
L 208.074408 340.8 
L 211.745455 339.805417 
L 216.254545 338.583785 
L 220.763636 337.506313 
L 221.05684 337.44 
L 225.272727 336.486504 
L 229.781818 335.466696 
L 234.290909 334.358047 
L 235.186994 334.08 
L 238.8 332.906677 
L 243.309091 331.442351 
L 245.533422 330.72 
L 247.818182 329.978025 
L 252.327273 328.513698 
L 255.879849 327.36 
L 256.836364 327.049372 
L 261.345455 325.585046 
L 265.854545 324.12072 
L 266.226277 324 
L 270.363636 322.656394 
L 274.872727 321.192067 
L 276.572705 320.64 
L 279.381818 319.749488 
L 283.890909 318.331237 
L 287.239487 317.28 
L 288.4 316.949934 
L 292.909091 315.667483 
L 297.418182 314.385033 
L 299.053238 313.92 
L 301.927273 313.102583 
L 306.436364 311.820133 
L 310.866989 310.56 
L 310.945455 310.537683 
L 315.454545 309.255233 
L 319.963636 307.972783 
L 322.68074 307.2 
L 324.472727 306.690333 
L 328.981818 305.407883 
L 333.490909 304.125433 
L 334.494491 303.84 
L 338 302.842983 
L 342.509091 301.560533 
L 346.282204 300.48 
L 347.018182 300.269233 
L 351.527273 298.966133 
L 356.036364 297.663033 
L 357.915409 297.12 
L 360.545455 296.359933 
L 365.054545 295.056833 
L 369.541949 293.76 
L 369.563636 293.753733 
L 374.072727 292.450632 
L 378.581818 291.147532 
L 381.177647 290.4 
L 383.090909 289.852773 
L 387.6 288.590485 
L 392.109091 287.328198 
L 393.138581 287.04 
L 396.618182 286.065911 
L 401.127273 284.803624 
L 405.141037 283.68 
L 405.636364 283.541337 
L 410.145455 282.234521 
L 414.654545 280.816385 
L 416.232847 280.32 
L 419.163636 279.398249 
L 423.672727 277.980113 
L 426.916269 276.96 
L 428.181818 276.561977 
L 432.690909 275.143841 
L 437.2 273.725705 
L 437.59969 273.6 
L 441.709091 272.307569 
L 446.218182 270.889433 
L 448.283112 270.24 
L 450.727273 269.471297 
L 455.236364 268.064966 
L 459.250814 266.88 
L 459.745455 266.730995 
L 464.254545 265.481997 
L 468.763636 264.236122 
L 471.346291 263.52 
L 473.272727 262.985835 
L 477.781818 261.709069 
L 482.290909 260.379471 
L 482.950726 260.16 
L 486.8 258.845914 
L 491.309091 257.306575 
L 492.79297 256.8 
L 495.818182 255.767237 
L 500.327273 254.227898 
L 502.635214 253.44 
L 504.836364 252.728671 
L 509.345455 251.271503 
L 513.032463 250.08 
L 513.854545 249.834029 
L 518.363636 248.484886 
L 522.872727 247.135743 
L 524.262218 246.72 
L 527.381818 245.7866 
L 531.890909 244.393729 
L 535.072371 243.36 
L 536.4 242.928623 
L 536.4 240 
L 536.4 236.64 
L 536.4 233.28 
L 536.4 229.92 
L 536.4 226.56 
L 536.4 223.2 
L 536.4 219.84 
L 536.4 216.48 
L 536.4 213.12 
L 536.4 209.76 
L 536.4 206.4 
L 536.4 203.04 
L 536.4 199.68 
L 536.4 196.32 
L 536.4 192.96 
L 536.4 189.6 
L 536.4 186.24 
L 536.4 182.88 
L 536.4 179.52 
L 536.4 176.16 
L 536.4 174.773569 
L 531.890909 176.067411 
L 531.568232 176.16 
L 527.381818 177.361253 
L 522.872727 178.655095 
L 519.858499 179.52 
L 518.363636 179.948937 
L 513.854545 181.242779 
L 509.345455 182.536621 
L 508.148767 182.88 
L 504.836364 183.877085 
L 500.327273 185.234393 
L 496.986558 186.24 
L 495.818182 186.619632 
L 491.309091 188.084738 
L 486.8 189.549844 
L 486.645637 189.6 
L 482.290909 191.01495 
L 477.781818 192.436582 
L 476.039034 192.96 
L 473.272727 193.787693 
L 468.763636 195.15086 
L 464.902968 196.32 
L 464.254545 196.516364 
L 459.745455 197.919288 
L 455.236364 199.377114 
L 454.313387 199.68 
L 450.727273 200.856825 
L 446.218182 202.336536 
L 444.074532 203.04 
L 441.709091 203.816247 
L 437.2 205.295958 
L 433.835676 206.4 
L 432.690909 206.775669 
L 428.181818 208.25538 
L 423.672727 209.73509 
L 423.596821 209.76 
L 419.163636 211.214801 
L 414.654545 212.694512 
L 413.357966 213.12 
L 410.145455 214.174223 
L 405.636364 215.482021 
L 402.004518 216.48 
L 401.127273 216.721054 
L 396.618182 217.960087 
L 392.109091 219.199121 
L 389.776802 219.84 
L 387.6 220.438154 
L 383.090909 221.677187 
L 378.581818 222.874182 
L 377.31293 223.2 
L 374.072727 224.032001 
L 369.563636 225.18982 
L 365.054545 226.347639 
L 364.227511 226.56 
L 360.545455 227.505458 
L 356.036364 228.663277 
L 351.527273 229.821096 
L 351.142093 229.92 
L 347.018182 230.978915 
L 342.509091 232.134402 
L 338.031812 233.28 
L 338 233.28814 
L 333.490909 234.441878 
L 328.981818 235.595616 
L 324.900109 236.64 
L 324.472727 236.749354 
L 319.963636 237.903092 
L 315.454545 239.05683 
L 311.768406 240 
L 310.945455 240.210568 
L 306.436364 241.364306 
L 301.927273 242.518044 
L 298.636703 243.36 
L 297.418182 243.671782 
L 292.909091 244.82552 
L 288.4 245.985735 
L 285.712143 246.72 
L 283.890909 247.208971 
L 279.381818 248.417647 
L 274.872727 249.518894 
L 272.575262 250.08 
L 270.363636 250.666006 
L 265.854545 251.860763 
L 261.345455 253.055519 
L 259.894399 253.44 
L 256.836364 254.298897 
L 252.327273 255.565344 
L 247.931376 256.8 
L 247.818182 256.831792 
L 243.309091 258.09824 
L 238.8 259.364688 
L 235.968353 260.16 
L 234.290909 260.631136 
L 229.781818 261.897584 
L 225.272727 263.18776 
L 224.124745 263.52 
L 220.763636 264.492745 
L 216.254545 265.766603 
L 212.057018 266.88 
L 211.745455 266.962642 
L 207.236364 268.158681 
L 202.727273 269.35472 
L 199.53338 270.24 
L 198.218182 270.598802 
L 193.709091 271.921541 
L 189.2 273.252563 
L 188.022993 273.6 
L 184.690909 274.583586 
L 180.181818 275.914609 
L 176.64036 276.96 
L 175.672727 277.245632 
L 171.163636 278.576655 
L 166.654545 279.907678 
L 165.257726 280.32 
L 162.145455 281.238701 
L 157.636364 282.569723 
L 153.466349 283.68 
L 153.127273 283.77028 
L 148.618182 284.188037 
L 144.109091 284.605795 
L 139.6 285.023552 
L 135.090909 285.44131 
L 130.581818 285.859067 
L 126.072727 286.276825 
L 121.563636 286.713472 
L 118.343424 287.04 
L 117.054545 287.170897 
L 112.545455 287.628834 
L 108.036364 288.086771 
L 103.527273 288.544708 
L 99.018182 289.002646 
L 94.509091 289.460583 
L 90 289.91852 
L 90 290.4 
L 90 293.76 
L 90 297.12 
L 90 300.48 
L 90 303.84 
L 90 307.2 
L 90 310.56 
L 90 313.92 
L 90 317.28 
L 90 320.64 
L 90 324 
L 90 327.36 
L 90 330.72 
L 90 334.08 
L 90 337.44 
L 90 340.8 
L 90 344.16 
L 90 347.52 
L 90 350.88 
L 90 354.24 
L 90 357.6 
L 90 360.96 
L 90 363.787825 
z
" clip-path="url(#p6ba6ca6c04)" style="fill: #443983"/>
    <path d="M 94.509091 289.460583 
L 99.018182 289.002646 
L 103.527273 288.544708 
L 108.036364 288.086771 
L 112.545455 287.628834 
L 117.054545 287.170897 
L 118.343424 287.04 
L 121.563636 286.713472 
L 126.072727 286.276825 
L 130.581818 285.859067 
L 135.090909 285.44131 
L 139.6 285.023552 
L 144.109091 284.605795 
L 148.618182 284.188037 
L 153.127273 283.77028 
L 153.466349 283.68 
L 157.636364 282.569723 
L 162.145455 281.238701 
L 165.257726 280.32 
L 166.654545 279.907678 
L 171.163636 278.576655 
L 175.672727 277.245632 
L 176.64036 276.96 
L 180.181818 275.914609 
L 184.690909 274.583586 
L 188.022993 273.6 
L 189.2 273.252563 
L 193.709091 271.921541 
L 198.218182 270.598802 
L 199.53338 270.24 
L 202.727273 269.35472 
L 207.236364 268.158681 
L 211.745455 266.962642 
L 212.057018 266.88 
L 216.254545 265.766603 
L 220.763636 264.492745 
L 224.124745 263.52 
L 225.272727 263.18776 
L 229.781818 261.897584 
L 234.290909 260.631136 
L 235.968353 260.16 
L 238.8 259.364688 
L 243.309091 258.09824 
L 247.818182 256.831792 
L 247.931376 256.8 
L 252.327273 255.565344 
L 256.836364 254.298897 
L 259.894399 253.44 
L 261.345455 253.055519 
L 265.854545 251.860763 
L 270.363636 250.666006 
L 272.575262 250.08 
L 274.872727 249.518894 
L 279.381818 248.417647 
L 283.890909 247.208971 
L 285.712143 246.72 
L 288.4 245.985735 
L 292.909091 244.82552 
L 297.418182 243.671782 
L 298.636703 243.36 
L 301.927273 242.518044 
L 306.436364 241.364306 
L 310.945455 240.210568 
L 311.768406 240 
L 315.454545 239.05683 
L 319.963636 237.903092 
L 324.472727 236.749354 
L 324.900109 236.64 
L 328.981818 235.595616 
L 333.490909 234.441878 
L 338 233.28814 
L 338.031812 233.28 
L 342.509091 232.134402 
L 347.018182 230.978915 
L 351.142093 229.92 
L 351.527273 229.821096 
L 356.036364 228.663277 
L 360.545455 227.505458 
L 364.227511 226.56 
L 365.054545 226.347639 
L 369.563636 225.18982 
L 374.072727 224.032001 
L 377.31293 223.2 
L 378.581818 222.874182 
L 383.090909 221.677187 
L 387.6 220.438154 
L 389.776802 219.84 
L 392.109091 219.199121 
L 396.618182 217.960087 
L 401.127273 216.721054 
L 402.004518 216.48 
L 405.636364 215.482021 
L 410.145455 214.174223 
L 413.357966 213.12 
L 414.654545 212.694512 
L 419.163636 211.214801 
L 423.596821 209.76 
L 423.672727 209.73509 
L 428.181818 208.25538 
L 432.690909 206.775669 
L 433.835676 206.4 
L 437.2 205.295958 
L 441.709091 203.816247 
L 444.074532 203.04 
L 446.218182 202.336536 
L 450.727273 200.856825 
L 454.313387 199.68 
L 455.236364 199.377114 
L 459.745455 197.919288 
L 464.254545 196.516364 
L 464.902968 196.32 
L 468.763636 195.15086 
L 473.272727 193.787693 
L 476.039034 192.96 
L 477.781818 192.436582 
L 482.290909 191.01495 
L 486.645637 189.6 
L 486.8 189.549844 
L 491.309091 188.084738 
L 495.818182 186.619632 
L 496.986558 186.24 
L 500.327273 185.234393 
L 504.836364 183.877085 
L 508.148767 182.88 
L 509.345455 182.536621 
L 513.854545 181.242779 
L 518.363636 179.948937 
L 519.858499 179.52 
L 522.872727 178.655095 
L 527.381818 177.361253 
L 531.568232 176.16 
L 531.890909 176.067411 
L 536.4 174.773569 
L 536.4 172.8 
L 536.4 169.44 
L 536.4 166.08 
L 536.4 162.72 
L 536.4 159.36 
L 536.4 156 
L 536.4 152.64 
L 536.4 149.28 
L 536.4 145.92 
L 536.4 142.56 
L 536.4 139.2 
L 536.4 135.84 
L 536.4 132.48 
L 536.4 129.12 
L 536.4 125.76 
L 536.4 122.4 
L 536.4 119.04 
L 536.4 115.68 
L 536.4 113.852875 
L 531.890909 115.072952 
L 529.647415 115.68 
L 527.381818 116.303183 
L 522.872727 117.543469 
L 518.363636 118.783754 
L 517.432049 119.04 
L 513.854545 120.093863 
L 509.345455 121.422154 
L 506.026002 122.4 
L 504.836364 122.750444 
L 500.327273 124.078735 
L 495.818182 125.407026 
L 494.619955 125.76 
L 491.309091 126.735316 
L 486.8 128.063607 
L 483.213908 129.12 
L 482.290909 129.391898 
L 477.781818 130.720188 
L 473.272727 132.048479 
L 471.901365 132.48 
L 468.763636 133.467337 
L 464.254545 134.901289 
L 461.302752 135.84 
L 459.745455 136.335242 
L 455.236364 137.769194 
L 450.737168 139.2 
L 450.727273 139.203147 
L 446.218182 140.637099 
L 441.709091 142.071052 
L 440.171584 142.56 
L 437.2 143.505004 
L 432.690909 144.911389 
L 429.320081 145.92 
L 428.181818 146.259604 
L 423.672727 147.604905 
L 419.163636 148.950207 
L 418.058257 149.28 
L 414.654545 150.295508 
L 410.145455 151.640809 
L 406.356198 152.64 
L 405.636364 152.829813 
L 401.127273 153.956299 
L 396.618182 155.082784 
L 392.946755 156 
L 392.109091 156.20927 
L 387.6 157.335755 
L 383.090909 158.462241 
L 379.497362 159.36 
L 378.581818 159.588726 
L 374.072727 160.715212 
L 369.563636 161.841697 
L 366.203005 162.72 
L 365.054545 163.015579 
L 360.545455 164.268644 
L 356.036364 165.528311 
L 354.061543 166.08 
L 351.527273 166.787978 
L 347.018182 168.047645 
L 342.509091 169.215923 
L 341.59034 169.44 
L 338 170.315659 
L 333.490909 171.415395 
L 328.981818 172.619231 
L 328.322589 172.8 
L 324.472727 173.855682 
L 319.963636 175.092134 
L 316.069344 176.16 
L 315.454545 176.328586 
L 310.945455 177.565038 
L 306.436364 178.801489 
L 303.8161 179.52 
L 301.927273 180.037941 
L 297.418182 181.274393 
L 292.909091 182.510845 
L 291.562856 182.88 
L 288.4 183.76557 
L 283.890909 185.028073 
L 279.381818 186.228236 
L 279.33768 186.24 
L 274.872727 187.444741 
L 270.363636 188.661391 
L 266.885009 189.6 
L 265.854545 189.878041 
L 261.345455 191.094692 
L 256.836364 192.311342 
L 254.432339 192.96 
L 252.327273 193.527992 
L 247.818182 194.744643 
L 243.309091 195.961293 
L 241.979669 196.32 
L 238.8 197.177943 
L 234.290909 198.394594 
L 229.781818 199.611244 
L 229.526998 199.68 
L 225.272727 200.827894 
L 220.763636 202.044545 
L 217.001626 203.04 
L 216.254545 203.237683 
L 211.745455 204.372041 
L 207.236364 205.506398 
L 203.684283 206.4 
L 202.727273 206.640756 
L 198.218182 207.775114 
L 193.709091 208.909472 
L 190.328227 209.76 
L 189.2 210.04383 
L 184.690909 211.178187 
L 180.181818 212.315079 
L 177.049832 213.12 
L 175.672727 213.475327 
L 171.163636 214.638785 
L 166.654545 215.802242 
L 164.027828 216.48 
L 162.145455 216.965699 
L 157.636364 218.129156 
L 153.127273 219.178572 
L 148.618182 219.543737 
L 144.9599 219.84 
L 144.109091 219.908902 
L 139.6 220.274067 
L 135.090909 220.639232 
L 130.581818 221.004397 
L 126.072727 221.369562 
L 121.563636 221.734727 
L 117.054545 222.044747 
L 112.545455 222.192417 
L 108.036364 222.340087 
L 103.527273 222.487757 
L 99.018182 222.635427 
L 94.509091 222.783097 
L 90 222.930768 
L 90 223.2 
L 90 226.56 
L 90 229.92 
L 90 233.28 
L 90 236.64 
L 90 240 
L 90 243.36 
L 90 246.72 
L 90 250.08 
L 90 253.44 
L 90 256.8 
L 90 260.16 
L 90 263.52 
L 90 266.88 
L 90 270.24 
L 90 273.6 
L 90 276.96 
L 90 280.32 
L 90 283.68 
L 90 287.04 
L 90 289.91852 
z
" clip-path="url(#p6ba6ca6c04)" style="fill: #375a8c"/>
    <path d="M 94.509091 222.783097 
L 99.018182 222.635427 
L 103.527273 222.487757 
L 108.036364 222.340087 
L 112.545455 222.192417 
L 117.054545 222.044747 
L 121.563636 221.734727 
L 126.072727 221.369562 
L 130.581818 221.004397 
L 135.090909 220.639232 
L 139.6 220.274067 
L 144.109091 219.908902 
L 144.9599 219.84 
L 148.618182 219.543737 
L 153.127273 219.178572 
L 157.636364 218.129156 
L 162.145455 216.965699 
L 164.027828 216.48 
L 166.654545 215.802242 
L 171.163636 214.638785 
L 175.672727 213.475327 
L 177.049832 213.12 
L 180.181818 212.315079 
L 184.690909 211.178187 
L 189.2 210.04383 
L 190.328227 209.76 
L 193.709091 208.909472 
L 198.218182 207.775114 
L 202.727273 206.640756 
L 203.684283 206.4 
L 207.236364 205.506398 
L 211.745455 204.372041 
L 216.254545 203.237683 
L 217.001626 203.04 
L 220.763636 202.044545 
L 225.272727 200.827894 
L 229.526998 199.68 
L 229.781818 199.611244 
L 234.290909 198.394594 
L 238.8 197.177943 
L 241.979669 196.32 
L 243.309091 195.961293 
L 247.818182 194.744643 
L 252.327273 193.527992 
L 254.432339 192.96 
L 256.836364 192.311342 
L 261.345455 191.094692 
L 265.854545 189.878041 
L 266.885009 189.6 
L 270.363636 188.661391 
L 274.872727 187.444741 
L 279.33768 186.24 
L 279.381818 186.228236 
L 283.890909 185.028073 
L 288.4 183.76557 
L 291.562856 182.88 
L 292.909091 182.510845 
L 297.418182 181.274393 
L 301.927273 180.037941 
L 303.8161 179.52 
L 306.436364 178.801489 
L 310.945455 177.565038 
L 315.454545 176.328586 
L 316.069344 176.16 
L 319.963636 175.092134 
L 324.472727 173.855682 
L 328.322589 172.8 
L 328.981818 172.619231 
L 333.490909 171.415395 
L 338 170.315659 
L 341.59034 169.44 
L 342.509091 169.215923 
L 347.018182 168.047645 
L 351.527273 166.787978 
L 354.061543 166.08 
L 356.036364 165.528311 
L 360.545455 164.268644 
L 365.054545 163.015579 
L 366.203005 162.72 
L 369.563636 161.841697 
L 374.072727 160.715212 
L 378.581818 159.588726 
L 379.497362 159.36 
L 383.090909 158.462241 
L 387.6 157.335755 
L 392.109091 156.20927 
L 392.946755 156 
L 396.618182 155.082784 
L 401.127273 153.956299 
L 405.636364 152.829813 
L 406.356198 152.64 
L 410.145455 151.640809 
L 414.654545 150.295508 
L 418.058257 149.28 
L 419.163636 148.950207 
L 423.672727 147.604905 
L 428.181818 146.259604 
L 429.320081 145.92 
L 432.690909 144.911389 
L 437.2 143.505004 
L 440.171584 142.56 
L 441.709091 142.071052 
L 446.218182 140.637099 
L 450.727273 139.203147 
L 450.737168 139.2 
L 455.236364 137.769194 
L 459.745455 136.335242 
L 461.302752 135.84 
L 464.254545 134.901289 
L 468.763636 133.467337 
L 471.901365 132.48 
L 473.272727 132.048479 
L 477.781818 130.720188 
L 482.290909 129.391898 
L 483.213908 129.12 
L 486.8 128.063607 
L 491.309091 126.735316 
L 494.619955 125.76 
L 495.818182 125.407026 
L 500.327273 124.078735 
L 504.836364 122.750444 
L 506.026002 122.4 
L 509.345455 121.422154 
L 513.854545 120.093863 
L 517.432049 119.04 
L 518.363636 118.783754 
L 522.872727 117.543469 
L 527.381818 116.303183 
L 529.647415 115.68 
L 531.890909 115.072952 
L 536.4 113.852875 
L 536.4 112.32 
L 536.4 108.96 
L 536.4 105.6 
L 536.4 102.24 
L 536.4 98.88 
L 536.4 95.52 
L 536.4 92.16 
L 536.4 88.8 
L 536.4 85.44 
L 536.4 82.08 
L 536.4 78.72 
L 536.4 75.36 
L 536.4 72 
L 536.4 68.64 
L 536.4 65.28 
L 536.4 61.92 
L 536.4 58.56 
L 536.4 58.050824 
L 534.518215 58.56 
L 531.890909 59.270901 
L 527.381818 60.557295 
L 522.984522 61.92 
L 522.872727 61.954247 
L 518.363636 63.374107 
L 513.854545 64.793966 
L 512.311031 65.28 
L 509.345455 66.213825 
L 504.836364 67.633684 
L 501.640574 68.64 
L 500.327273 69.053543 
L 495.818182 70.473402 
L 491.309091 71.893261 
L 490.970118 72 
L 486.8 73.313121 
L 482.290909 74.73298 
L 480.299661 75.36 
L 477.781818 76.152839 
L 473.272727 77.572698 
L 468.973554 78.72 
L 468.763636 78.77602 
L 464.254545 79.943252 
L 459.745455 81.110484 
L 456.000156 82.08 
L 455.236364 82.277717 
L 450.727273 83.444949 
L 446.218182 84.612181 
L 443.020267 85.44 
L 441.709091 85.783761 
L 437.2 87.035617 
L 432.690909 88.297163 
L 430.893639 88.8 
L 428.181818 89.558709 
L 423.672727 90.820255 
L 419.163636 92.0818 
L 418.884131 92.16 
L 414.654545 93.343346 
L 410.145455 94.604892 
L 406.691558 95.52 
L 405.636364 95.799573 
L 401.127273 96.967508 
L 396.618182 98.135443 
L 393.743641 98.88 
L 392.109091 99.303378 
L 387.6 100.471313 
L 383.090909 101.639247 
L 380.771561 102.24 
L 378.581818 102.807182 
L 374.072727 103.975117 
L 369.563636 105.143052 
L 367.79948 105.6 
L 365.054545 106.310987 
L 360.545455 107.478922 
L 356.036364 108.647281 
L 354.836763 108.96 
L 351.527273 109.821571 
L 347.018182 111.000876 
L 342.509091 112.08723 
L 341.476247 112.32 
L 338 113.103434 
L 333.490909 114.119638 
L 328.981818 115.135842 
L 326.567285 115.68 
L 324.472727 116.159328 
L 319.963636 117.191207 
L 315.454545 118.223087 
L 311.88481 119.04 
L 310.945455 119.269102 
L 306.436364 120.368839 
L 301.927273 121.468575 
L 298.108283 122.4 
L 297.418182 122.568311 
L 292.909091 123.668047 
L 288.4 124.767783 
L 284.696349 125.76 
L 283.890909 125.980862 
L 279.381818 127.198294 
L 274.872727 128.390366 
L 272.176055 129.12 
L 270.363636 129.606338 
L 265.854545 130.923088 
L 261.345455 132.255372 
L 260.585204 132.48 
L 256.836364 133.587655 
L 252.327273 134.919939 
L 249.213341 135.84 
L 247.818182 136.252222 
L 243.309091 137.584506 
L 238.8 138.916789 
L 237.841479 139.2 
L 234.290909 140.249073 
L 229.781818 141.581357 
L 226.469616 142.56 
L 225.272727 142.91364 
L 220.763636 144.245924 
L 216.254545 145.502431 
L 214.490033 145.92 
L 211.745455 146.5695 
L 207.236364 147.636568 
L 202.727273 148.703636 
L 200.291744 149.28 
L 198.218182 149.770705 
L 193.709091 150.837773 
L 189.2 151.904841 
L 186.093454 152.64 
L 184.690909 152.97191 
L 180.181818 154.047401 
L 175.672727 155.123738 
L 172.00181 156 
L 171.163636 156.200075 
L 166.654545 157.276412 
L 162.145455 158.352749 
L 157.925787 159.36 
L 157.636364 159.429087 
L 153.127273 160.351661 
L 148.618182 160.351661 
L 144.109091 160.351661 
L 139.6 160.351661 
L 135.090909 160.351661 
L 130.581818 160.36855 
L 126.072727 160.476603 
L 121.563636 160.61166 
L 117.054545 160.746718 
L 112.545455 160.881776 
L 108.036364 161.016833 
L 103.527273 161.151891 
L 99.018182 161.286948 
L 94.509091 161.422006 
L 90 161.557064 
L 90 162.72 
L 90 166.08 
L 90 169.44 
L 90 172.8 
L 90 176.16 
L 90 179.52 
L 90 182.88 
L 90 186.24 
L 90 189.6 
L 90 192.96 
L 90 196.32 
L 90 199.68 
L 90 203.04 
L 90 206.4 
L 90 209.76 
L 90 213.12 
L 90 216.48 
L 90 219.84 
L 90 222.930768 
z
" clip-path="url(#p6ba6ca6c04)" style="fill: #2b758e"/>
    <path d="M 94.509091 161.422006 
L 99.018182 161.286948 
L 103.527273 161.151891 
L 108.036364 161.016833 
L 112.545455 160.881776 
L 117.054545 160.746718 
L 121.563636 160.61166 
L 126.072727 160.476603 
L 130.581818 160.36855 
L 135.090909 160.351661 
L 139.6 160.351661 
L 144.109091 160.351661 
L 148.618182 160.351661 
L 153.127273 160.351661 
L 157.636364 159.429087 
L 157.925787 159.36 
L 162.145455 158.352749 
L 166.654545 157.276412 
L 171.163636 156.200075 
L 172.00181 156 
L 175.672727 155.123738 
L 180.181818 154.047401 
L 184.690909 152.97191 
L 186.093454 152.64 
L 189.2 151.904841 
L 193.709091 150.837773 
L 198.218182 149.770705 
L 200.291744 149.28 
L 202.727273 148.703636 
L 207.236364 147.636568 
L 211.745455 146.5695 
L 214.490033 145.92 
L 216.254545 145.502431 
L 220.763636 144.245924 
L 225.272727 142.91364 
L 226.469616 142.56 
L 229.781818 141.581357 
L 234.290909 140.249073 
L 237.841479 139.2 
L 238.8 138.916789 
L 243.309091 137.584506 
L 247.818182 136.252222 
L 249.213341 135.84 
L 252.327273 134.919939 
L 256.836364 133.587655 
L 260.585204 132.48 
L 261.345455 132.255372 
L 265.854545 130.923088 
L 270.363636 129.606338 
L 272.176055 129.12 
L 274.872727 128.390366 
L 279.381818 127.198294 
L 283.890909 125.980862 
L 284.696349 125.76 
L 288.4 124.767783 
L 292.909091 123.668047 
L 297.418182 122.568311 
L 298.108283 122.4 
L 301.927273 121.468575 
L 306.436364 120.368839 
L 310.945455 119.269102 
L 311.88481 119.04 
L 315.454545 118.223087 
L 319.963636 117.191207 
L 324.472727 116.159328 
L 326.567285 115.68 
L 328.981818 115.135842 
L 333.490909 114.119638 
L 338 113.103434 
L 341.476247 112.32 
L 342.509091 112.08723 
L 347.018182 111.000876 
L 351.527273 109.821571 
L 354.836763 108.96 
L 356.036364 108.647281 
L 360.545455 107.478922 
L 365.054545 106.310987 
L 367.79948 105.6 
L 369.563636 105.143052 
L 374.072727 103.975117 
L 378.581818 102.807182 
L 380.771561 102.24 
L 383.090909 101.639247 
L 387.6 100.471313 
L 392.109091 99.303378 
L 393.743641 98.88 
L 396.618182 98.135443 
L 401.127273 96.967508 
L 405.636364 95.799573 
L 406.691558 95.52 
L 410.145455 94.604892 
L 414.654545 93.343346 
L 418.884131 92.16 
L 419.163636 92.0818 
L 423.672727 90.820255 
L 428.181818 89.558709 
L 430.893639 88.8 
L 432.690909 88.297163 
L 437.2 87.035617 
L 441.709091 85.783761 
L 443.020267 85.44 
L 446.218182 84.612181 
L 450.727273 83.444949 
L 455.236364 82.277717 
L 456.000156 82.08 
L 459.745455 81.110484 
L 464.254545 79.943252 
L 468.763636 78.77602 
L 468.973554 78.72 
L 473.272727 77.572698 
L 477.781818 76.152839 
L 480.299661 75.36 
L 482.290909 74.73298 
L 486.8 73.313121 
L 490.970118 72 
L 491.309091 71.893261 
L 495.818182 70.473402 
L 500.327273 69.053543 
L 501.640574 68.64 
L 504.836364 67.633684 
L 509.345455 66.213825 
L 512.311031 65.28 
L 513.854545 64.793966 
L 518.363636 63.374107 
L 522.872727 61.954247 
L 522.984522 61.92 
L 527.381818 60.557295 
L 531.890909 59.270901 
L 534.518215 58.56 
L 536.4 58.050824 
L 536.4 55.2 
L 536.4 51.84 
L 531.890909 51.84 
L 527.381818 51.84 
L 522.872727 51.84 
L 518.363636 51.84 
L 513.854545 51.84 
L 509.345455 51.84 
L 504.836364 51.84 
L 500.327273 51.84 
L 495.818182 51.84 
L 491.309091 51.84 
L 486.8 51.84 
L 482.290909 51.84 
L 477.781818 51.84 
L 473.272727 51.84 
L 468.763636 51.84 
L 464.254545 51.84 
L 459.745455 51.84 
L 455.236364 51.84 
L 450.727273 51.84 
L 446.218182 51.84 
L 441.709091 51.84 
L 437.2 51.84 
L 432.690909 51.84 
L 428.181818 51.84 
L 423.672727 51.84 
L 419.163636 51.84 
L 414.654545 51.84 
L 410.145455 51.84 
L 405.636364 51.84 
L 401.127273 51.84 
L 396.618182 51.84 
L 392.109091 51.84 
L 387.6 51.84 
L 383.090909 51.84 
L 378.581818 51.84 
L 374.072727 51.84 
L 369.563636 51.84 
L 369.544461 51.84 
L 365.054545 53.01487 
L 360.545455 54.194758 
L 356.703795 55.2 
L 356.036364 55.374646 
L 351.527273 56.554534 
L 347.018182 57.734421 
L 343.591482 58.56 
L 342.509091 58.820775 
L 338 59.860724 
L 333.490909 61.021227 
L 330.161491 61.92 
L 328.981818 62.238452 
L 324.472727 63.455676 
L 319.963636 64.672901 
L 317.714698 65.28 
L 315.454545 65.890126 
L 310.945455 67.107351 
L 306.436364 68.324575 
L 305.267904 68.64 
L 301.927273 69.5418 
L 297.418182 70.759025 
L 292.909091 71.97625 
L 292.82111 72 
L 288.4 73.193475 
L 283.890909 74.410699 
L 280.019631 75.36 
L 279.381818 75.516402 
L 274.872727 76.473409 
L 270.363636 77.430417 
L 265.854545 78.387424 
L 264.287561 78.72 
L 261.345455 79.344431 
L 256.836364 80.301438 
L 252.327273 81.258446 
L 248.456389 82.08 
L 247.818182 82.2195 
L 243.309091 83.398713 
L 238.8 84.643386 
L 235.914095 85.44 
L 234.290909 85.888058 
L 229.781818 87.132731 
L 225.272727 88.377404 
L 223.741783 88.8 
L 220.763636 89.622076 
L 216.254545 90.797982 
L 211.745455 91.80197 
L 210.137477 92.16 
L 207.236364 92.805958 
L 202.727273 93.809946 
L 198.218182 94.813934 
L 195.052702 95.52 
L 193.709091 95.819959 
L 189.2 96.828973 
L 184.690909 97.837988 
L 180.181818 98.847002 
L 180.034356 98.88 
L 175.672727 99.856016 
L 171.163636 100.86503 
L 166.654545 101.874045 
L 165.019162 102.24 
L 162.145455 102.883059 
L 157.636364 103.892073 
L 153.127273 104.756943 
L 148.618182 104.756943 
L 144.109091 104.756943 
L 139.6 104.756943 
L 135.090909 104.756943 
L 130.581818 104.756943 
L 126.072727 104.756943 
L 121.563636 104.756943 
L 117.054545 104.756943 
L 112.545455 104.756943 
L 108.036364 104.756943 
L 103.527273 104.756943 
L 99.018182 104.756943 
L 94.509091 104.756943 
L 90 104.756943 
L 90 105.6 
L 90 108.96 
L 90 112.32 
L 90 115.68 
L 90 119.04 
L 90 122.4 
L 90 125.76 
L 90 129.12 
L 90 132.48 
L 90 135.84 
L 90 139.2 
L 90 142.56 
L 90 145.92 
L 90 149.28 
L 90 152.64 
L 90 156 
L 90 159.36 
L 90 161.557064 
z
" clip-path="url(#p6ba6ca6c04)" style="fill: #21918c"/>
    <path d="M 94.509091 104.756943 
L 99.018182 104.756943 
L 103.527273 104.756943 
L 108.036364 104.756943 
L 112.545455 104.756943 
L 117.054545 104.756943 
L 121.563636 104.756943 
L 126.072727 104.756943 
L 130.581818 104.756943 
L 135.090909 104.756943 
L 139.6 104.756943 
L 144.109091 104.756943 
L 148.618182 104.756943 
L 153.127273 104.756943 
L 157.636364 103.892073 
L 162.145455 102.883059 
L 165.019162 102.24 
L 166.654545 101.874045 
L 171.163636 100.86503 
L 175.672727 99.856016 
L 180.034356 98.88 
L 180.181818 98.847002 
L 184.690909 97.837988 
L 189.2 96.828973 
L 193.709091 95.819959 
L 195.052702 95.52 
L 198.218182 94.813934 
L 202.727273 93.809946 
L 207.236364 92.805958 
L 210.137477 92.16 
L 211.745455 91.80197 
L 216.254545 90.797982 
L 220.763636 89.622076 
L 223.741783 88.8 
L 225.272727 88.377404 
L 229.781818 87.132731 
L 234.290909 85.888058 
L 235.914095 85.44 
L 238.8 84.643386 
L 243.309091 83.398713 
L 247.818182 82.2195 
L 248.456389 82.08 
L 252.327273 81.258446 
L 256.836364 80.301438 
L 261.345455 79.344431 
L 264.287561 78.72 
L 265.854545 78.387424 
L 270.363636 77.430417 
L 274.872727 76.473409 
L 279.381818 75.516402 
L 280.019631 75.36 
L 283.890909 74.410699 
L 288.4 73.193475 
L 292.82111 72 
L 292.909091 71.97625 
L 297.418182 70.759025 
L 301.927273 69.5418 
L 305.267904 68.64 
L 306.436364 68.324575 
L 310.945455 67.107351 
L 315.454545 65.890126 
L 317.714698 65.28 
L 319.963636 64.672901 
L 324.472727 63.455676 
L 328.981818 62.238452 
L 330.161491 61.92 
L 333.490909 61.021227 
L 338 59.860724 
L 342.509091 58.820775 
L 343.591482 58.56 
L 347.018182 57.734421 
L 351.527273 56.554534 
L 356.036364 55.374646 
L 356.703795 55.2 
L 360.545455 54.194758 
L 365.054545 53.01487 
L 369.544461 51.84 
L 365.054545 51.84 
L 360.545455 51.84 
L 356.036364 51.84 
L 351.527273 51.84 
L 347.018182 51.84 
L 342.509091 51.84 
L 338 51.84 
L 333.490909 51.84 
L 328.981818 51.84 
L 324.472727 51.84 
L 319.963636 51.84 
L 315.454545 51.84 
L 310.945455 51.84 
L 306.436364 51.84 
L 301.927273 51.84 
L 297.418182 51.84 
L 292.909091 51.84 
L 288.4 51.84 
L 283.890909 51.84 
L 279.381818 51.84 
L 274.872727 51.84 
L 270.363636 51.84 
L 265.854545 51.84 
L 261.345455 51.84 
L 256.836364 51.84 
L 252.327273 51.84 
L 247.818182 51.84 
L 243.309091 51.84 
L 238.8 51.84 
L 234.290909 51.84 
L 229.781818 51.84 
L 225.272727 51.84 
L 220.763636 51.84 
L 216.254545 51.84 
L 211.745455 51.84 
L 207.236364 51.84 
L 202.727273 51.84 
L 198.218182 51.84 
L 193.709091 51.84 
L 189.2 51.84 
L 184.690909 51.84 
L 180.181818 51.84 
L 175.672727 51.84 
L 171.163636 51.84 
L 166.654545 51.84 
L 162.145455 51.84 
L 157.636364 51.84 
L 153.127273 51.84 
L 148.618182 51.84 
L 144.109091 51.84 
L 139.6 51.84 
L 135.090909 51.84 
L 130.581818 51.84 
L 126.072727 51.84 
L 121.563636 51.84 
L 117.054545 51.84 
L 112.545455 51.84 
L 108.036364 51.84 
L 103.527273 51.84 
L 99.018182 51.84 
L 94.509091 51.84 
L 90 51.84 
L 90 55.2 
L 90 58.56 
L 90 61.92 
L 90 65.28 
L 90 68.64 
L 90 72 
L 90 75.36 
L 90 78.72 
L 90 82.08 
L 90 85.44 
L 90 88.8 
L 90 92.16 
L 90 95.52 
L 90 98.88 
L 90 102.24 
L 90 104.756943 
z
" clip-path="url(#p6ba6ca6c04)" style="fill: #25ab82"/>
    <path clip-path="url(#p6ba6ca6c04)" style="fill: #4ec36b"/>
    <path clip-path="url(#p6ba6ca6c04)" style="fill: #90d743"/>
    <path clip-path="url(#p6ba6ca6c04)" style="fill: #dae319"/>
   </g>
   <g id="matplotlib.axis_1">
    <g id="xtick_1">
     <g id="line2d_1">
      <path d="M 121.885714 384.48 
L 121.885714 51.84 
" clip-path="url(#p6ba6ca6c04)" style="fill: none; stroke: #b0b0b0; stroke-width: 0.8; stroke-linecap: square"/>
     </g>
     <g id="line2d_2">
      <defs>
       <path id="m72ea83355a" d="M 0 0 
L 0 3.5 
" style="stroke: #000000; stroke-width: 0.8"/>
      </defs>
      <g>
       <use xlink:href="#m72ea83355a" x="121.885714" y="384.48" style="stroke: #000000; stroke-width: 0.8"/>
      </g>
     </g>
     <g id="text_1">
      <!-- 6 -->
      <g transform="translate(118.704464 399.078438) scale(0.1 -0.1)">
       <defs>
        <path id="DejaVuSans-36" d="M 2113 2584 
Q 1688 2584 1439 2293 
Q 1191 2003 1191 1497 
Q 1191 994 1439 701 
Q 1688 409 2113 409 
Q 2538 409 2786 701 
Q 3034 994 3034 1497 
Q 3034 2003 2786 2293 
Q 2538 2584 2113 2584 
z
M 3366 4563 
L 3366 3988 
Q 3128 4100 2886 4159 
Q 2644 4219 2406 4219 
Q 1781 4219 1451 3797 
Q 1122 3375 1075 2522 
Q 1259 2794 1537 2939 
Q 1816 3084 2150 3084 
Q 2853 3084 3261 2657 
Q 3669 2231 3669 1497 
Q 3669 778 3244 343 
Q 2819 -91 2113 -91 
Q 1303 -91 875 529 
Q 447 1150 447 2328 
Q 447 3434 972 4092 
Q 1497 4750 2381 4750 
Q 2619 4750 2861 4703 
Q 3103 4656 3366 4563 
z
" transform="scale(0.015625)"/>
       </defs>
       <use xlink:href="#DejaVuSans-36"/>
      </g>
     </g>
    </g>
    <g id="xtick_2">
     <g id="line2d_3">
      <path d="M 185.657143 384.48 
L 185.657143 51.84 
" clip-path="url(#p6ba6ca6c04)" style="fill: none; stroke: #b0b0b0; stroke-width: 0.8; stroke-linecap: square"/>
     </g>
     <g id="line2d_4">
      <g>
       <use xlink:href="#m72ea83355a" x="185.657143" y="384.48" style="stroke: #000000; stroke-width: 0.8"/>
      </g>
     </g>
     <g id="text_2">
      <!-- 8 -->
      <g transform="translate(182.475893 399.078438) scale(0.1 -0.1)">
       <defs>
        <path id="DejaVuSans-38" d="M 2034 2216 
Q 1584 2216 1326 1975 
Q 1069 1734 1069 1313 
Q 1069 891 1326 650 
Q 1584 409 2034 409 
Q 2484 409 2743 651 
Q 3003 894 3003 1313 
Q 3003 1734 2745 1975 
Q 2488 2216 2034 2216 
z
M 1403 2484 
Q 997 2584 770 2862 
Q 544 3141 544 3541 
Q 544 4100 942 4425 
Q 1341 4750 2034 4750 
Q 2731 4750 3128 4425 
Q 3525 4100 3525 3541 
Q 3525 3141 3298 2862 
Q 3072 2584 2669 2484 
Q 3125 2378 3379 2068 
Q 3634 1759 3634 1313 
Q 3634 634 3220 271 
Q 2806 -91 2034 -91 
Q 1263 -91 848 271 
Q 434 634 434 1313 
Q 434 1759 690 2068 
Q 947 2378 1403 2484 
z
M 1172 3481 
Q 1172 3119 1398 2916 
Q 1625 2713 2034 2713 
Q 2441 2713 2670 2916 
Q 2900 3119 2900 3481 
Q 2900 3844 2670 4047 
Q 2441 4250 2034 4250 
Q 1625 4250 1398 4047 
Q 1172 3844 1172 3481 
z
" transform="scale(0.015625)"/>
       </defs>
       <use xlink:href="#DejaVuSans-38"/>
      </g>
     </g>
    </g>
    <g id="xtick_3">
     <g id="line2d_5">
      <path d="M 249.428571 384.48 
L 249.428571 51.84 
" clip-path="url(#p6ba6ca6c04)" style="fill: none; stroke: #b0b0b0; stroke-width: 0.8; stroke-linecap: square"/>
     </g>
     <g id="line2d_6">
      <g>
       <use xlink:href="#m72ea83355a" x="249.428571" y="384.48" style="stroke: #000000; stroke-width: 0.8"/>
      </g>
     </g>
     <g id="text_3">
      <!-- 10 -->
      <g transform="translate(243.066071 399.078438) scale(0.1 -0.1)">
       <defs>
        <path id="DejaVuSans-31" d="M 794 531 
L 1825 531 
L 1825 4091 
L 703 3866 
L 703 4441 
L 1819 4666 
L 2450 4666 
L 2450 531 
L 3481 531 
L 3481 0 
L 794 0 
L 794 531 
z
" transform="scale(0.015625)"/>
        <path id="DejaVuSans-30" d="M 2034 4250 
Q 1547 4250 1301 3770 
Q 1056 3291 1056 2328 
Q 1056 1369 1301 889 
Q 1547 409 2034 409 
Q 2525 409 2770 889 
Q 3016 1369 3016 2328 
Q 3016 3291 2770 3770 
Q 2525 4250 2034 4250 
z
M 2034 4750 
Q 2819 4750 3233 4129 
Q 3647 3509 3647 2328 
Q 3647 1150 3233 529 
Q 2819 -91 2034 -91 
Q 1250 -91 836 529 
Q 422 1150 422 2328 
Q 422 3509 836 4129 
Q 1250 4750 2034 4750 
z
" transform="scale(0.015625)"/>
       </defs>
       <use xlink:href="#DejaVuSans-31"/>
       <use xlink:href="#DejaVuSans-30" x="63.623047"/>
      </g>
     </g>
    </g>
    <g id="xtick_4">
     <g id="line2d_7">
      <path d="M 313.2 384.48 
L 313.2 51.84 
" clip-path="url(#p6ba6ca6c04)" style="fill: none; stroke: #b0b0b0; stroke-width: 0.8; stroke-linecap: square"/>
     </g>
     <g id="line2d_8">
      <g>
       <use xlink:href="#m72ea83355a" x="313.2" y="384.48" style="stroke: #000000; stroke-width: 0.8"/>
      </g>
     </g>
     <g id="text_4">
      <!-- 12 -->
      <g transform="translate(306.8375 399.078438) scale(0.1 -0.1)">
       <defs>
        <path id="DejaVuSans-32" d="M 1228 531 
L 3431 531 
L 3431 0 
L 469 0 
L 469 531 
Q 828 903 1448 1529 
Q 2069 2156 2228 2338 
Q 2531 2678 2651 2914 
Q 2772 3150 2772 3378 
Q 2772 3750 2511 3984 
Q 2250 4219 1831 4219 
Q 1534 4219 1204 4116 
Q 875 4013 500 3803 
L 500 4441 
Q 881 4594 1212 4672 
Q 1544 4750 1819 4750 
Q 2544 4750 2975 4387 
Q 3406 4025 3406 3419 
Q 3406 3131 3298 2873 
Q 3191 2616 2906 2266 
Q 2828 2175 2409 1742 
Q 1991 1309 1228 531 
z
" transform="scale(0.015625)"/>
       </defs>
       <use xlink:href="#DejaVuSans-31"/>
       <use xlink:href="#DejaVuSans-32" x="63.623047"/>
      </g>
     </g>
    </g>
    <g id="xtick_5">
     <g id="line2d_9">
      <path d="M 376.971429 384.48 
L 376.971429 51.84 
" clip-path="url(#p6ba6ca6c04)" style="fill: none; stroke: #b0b0b0; stroke-width: 0.8; stroke-linecap: square"/>
     </g>
     <g id="line2d_10">
      <g>
       <use xlink:href="#m72ea83355a" x="376.971429" y="384.48" style="stroke: #000000; stroke-width: 0.8"/>
      </g>
     </g>
     <g id="text_5">
      <!-- 14 -->
      <g transform="translate(370.608929 399.078438) scale(0.1 -0.1)">
       <defs>
        <path id="DejaVuSans-34" d="M 2419 4116 
L 825 1625 
L 2419 1625 
L 2419 4116 
z
M 2253 4666 
L 3047 4666 
L 3047 1625 
L 3713 1625 
L 3713 1100 
L 3047 1100 
L 3047 0 
L 2419 0 
L 2419 1100 
L 313 1100 
L 313 1709 
L 2253 4666 
z
" transform="scale(0.015625)"/>
       </defs>
       <use xlink:href="#DejaVuSans-31"/>
       <use xlink:href="#DejaVuSans-34" x="63.623047"/>
      </g>
     </g>
    </g>
    <g id="xtick_6">
     <g id="line2d_11">
      <path d="M 440.742857 384.48 
L 440.742857 51.84 
" clip-path="url(#p6ba6ca6c04)" style="fill: none; stroke: #b0b0b0; stroke-width: 0.8; stroke-linecap: square"/>
     </g>
     <g id="line2d_12">
      <g>
       <use xlink:href="#m72ea83355a" x="440.742857" y="384.48" style="stroke: #000000; stroke-width: 0.8"/>
      </g>
     </g>
     <g id="text_6">
      <!-- 16 -->
      <g transform="translate(434.380357 399.078438) scale(0.1 -0.1)">
       <use xlink:href="#DejaVuSans-31"/>
       <use xlink:href="#DejaVuSans-36" x="63.623047"/>
      </g>
     </g>
    </g>
    <g id="xtick_7">
     <g id="line2d_13">
      <path d="M 504.514286 384.48 
L 504.514286 51.84 
" clip-path="url(#p6ba6ca6c04)" style="fill: none; stroke: #b0b0b0; stroke-width: 0.8; stroke-linecap: square"/>
     </g>
     <g id="line2d_14">
      <g>
       <use xlink:href="#m72ea83355a" x="504.514286" y="384.48" style="stroke: #000000; stroke-width: 0.8"/>
      </g>
     </g>
     <g id="text_7">
      <!-- 18 -->
      <g transform="translate(498.151786 399.078438) scale(0.1 -0.1)">
       <use xlink:href="#DejaVuSans-31"/>
       <use xlink:href="#DejaVuSans-38" x="63.623047"/>
      </g>
     </g>
    </g>
    <g id="text_8">
     <!-- $glide_{ev}$ [K] -->
     <g transform="translate(262.5 420.358125) scale(0.2 -0.2)">
      <defs>
       <path id="DejaVuSans-Oblique-67" d="M 3816 3500 
L 3219 434 
Q 3047 -456 2561 -893 
Q 2075 -1331 1253 -1331 
Q 950 -1331 690 -1286 
Q 431 -1241 206 -1147 
L 313 -588 
Q 525 -725 762 -790 
Q 1000 -856 1269 -856 
Q 1816 -856 2167 -557 
Q 2519 -259 2631 300 
L 2681 563 
Q 2441 288 2122 144 
Q 1803 0 1434 0 
Q 903 0 598 351 
Q 294 703 294 1319 
Q 294 1803 478 2267 
Q 663 2731 997 3091 
Q 1219 3328 1514 3456 
Q 1809 3584 2131 3584 
Q 2484 3584 2746 3420 
Q 3009 3256 3138 2956 
L 3238 3500 
L 3816 3500 
z
M 2950 2216 
Q 2950 2641 2750 2872 
Q 2550 3103 2181 3103 
Q 1953 3103 1747 3012 
Q 1541 2922 1394 2759 
Q 1156 2491 1023 2127 
Q 891 1763 891 1375 
Q 891 944 1092 712 
Q 1294 481 1672 481 
Q 2219 481 2584 976 
Q 2950 1472 2950 2216 
z
" transform="scale(0.015625)"/>
       <path id="DejaVuSans-Oblique-6c" d="M 1172 4863 
L 1747 4863 
L 800 0 
L 225 0 
L 1172 4863 
z
" transform="scale(0.015625)"/>
       <path id="DejaVuSans-Oblique-69" d="M 1172 4863 
L 1747 4863 
L 1606 4134 
L 1031 4134 
L 1172 4863 
z
M 909 3500 
L 1484 3500 
L 800 0 
L 225 0 
L 909 3500 
z
" transform="scale(0.015625)"/>
       <path id="DejaVuSans-Oblique-64" d="M 2675 525 
Q 2444 222 2128 65 
Q 1813 -91 1428 -91 
Q 903 -91 598 267 
Q 294 625 294 1247 
Q 294 1766 478 2236 
Q 663 2706 1013 3078 
Q 1244 3325 1534 3454 
Q 1825 3584 2144 3584 
Q 2481 3584 2739 3421 
Q 2997 3259 3138 2956 
L 3513 4863 
L 4091 4863 
L 3144 0 
L 2566 0 
L 2675 525 
z
M 891 1350 
Q 891 897 1095 644 
Q 1300 391 1663 391 
Q 1931 391 2161 520 
Q 2391 650 2566 903 
Q 2750 1166 2856 1509 
Q 2963 1853 2963 2188 
Q 2963 2622 2758 2865 
Q 2553 3109 2194 3109 
Q 1922 3109 1687 2981 
Q 1453 2853 1288 2613 
Q 1106 2353 998 2009 
Q 891 1666 891 1350 
z
" transform="scale(0.015625)"/>
       <path id="DejaVuSans-Oblique-65" d="M 3078 2063 
Q 3088 2113 3092 2166 
Q 3097 2219 3097 2272 
Q 3097 2653 2873 2875 
Q 2650 3097 2266 3097 
Q 1838 3097 1509 2826 
Q 1181 2556 1013 2059 
L 3078 2063 
z
M 3578 1613 
L 903 1613 
Q 884 1494 878 1425 
Q 872 1356 872 1306 
Q 872 872 1139 634 
Q 1406 397 1894 397 
Q 2269 397 2603 481 
Q 2938 566 3225 728 
L 3116 159 
Q 2806 34 2476 -28 
Q 2147 -91 1806 -91 
Q 1078 -91 686 257 
Q 294 606 294 1247 
Q 294 1794 489 2264 
Q 684 2734 1063 3103 
Q 1306 3334 1642 3459 
Q 1978 3584 2356 3584 
Q 2950 3584 3301 3228 
Q 3653 2872 3653 2272 
Q 3653 2128 3634 1964 
Q 3616 1800 3578 1613 
z
" transform="scale(0.015625)"/>
       <path id="DejaVuSans-Oblique-76" d="M 459 3500 
L 1069 3500 
L 1581 525 
L 3256 3500 
L 3866 3500 
L 1875 0 
L 1100 0 
L 459 3500 
z
" transform="scale(0.015625)"/>
       <path id="DejaVuSans-20" transform="scale(0.015625)"/>
       <path id="DejaVuSans-5b" d="M 550 4863 
L 1875 4863 
L 1875 4416 
L 1125 4416 
L 1125 -397 
L 1875 -397 
L 1875 -844 
L 550 -844 
L 550 4863 
z
" transform="scale(0.015625)"/>
       <path id="DejaVuSans-4b" d="M 628 4666 
L 1259 4666 
L 1259 2694 
L 3353 4666 
L 4166 4666 
L 1850 2491 
L 4331 0 
L 3500 0 
L 1259 2247 
L 1259 0 
L 628 0 
L 628 4666 
z
" transform="scale(0.015625)"/>
       <path id="DejaVuSans-5d" d="M 1947 4863 
L 1947 -844 
L 622 -844 
L 622 -397 
L 1369 -397 
L 1369 4416 
L 622 4416 
L 622 4863 
L 1947 4863 
z
" transform="scale(0.015625)"/>
      </defs>
      <use xlink:href="#DejaVuSans-Oblique-67" transform="translate(0 0.015625)"/>
      <use xlink:href="#DejaVuSans-Oblique-6c" transform="translate(63.476562 0.015625)"/>
      <use xlink:href="#DejaVuSans-Oblique-69" transform="translate(91.259766 0.015625)"/>
      <use xlink:href="#DejaVuSans-Oblique-64" transform="translate(119.042969 0.015625)"/>
      <use xlink:href="#DejaVuSans-Oblique-65" transform="translate(182.519531 0.015625)"/>
      <use xlink:href="#DejaVuSans-Oblique-65" transform="translate(244.042969 -16.390625) scale(0.7)"/>
      <use xlink:href="#DejaVuSans-Oblique-76" transform="translate(287.109375 -16.390625) scale(0.7)"/>
      <use xlink:href="#DejaVuSans-20" transform="translate(331.269531 0.015625)"/>
      <use xlink:href="#DejaVuSans-5b" transform="translate(363.056641 0.015625)"/>
      <use xlink:href="#DejaVuSans-4b" transform="translate(402.070312 0.015625)"/>
      <use xlink:href="#DejaVuSans-5d" transform="translate(467.646484 0.015625)"/>
     </g>
    </g>
   </g>
   <g id="matplotlib.axis_2">
    <g id="ytick_1">
     <g id="line2d_15">
      <path d="M 90 384.48 
L 536.4 384.48 
" clip-path="url(#p6ba6ca6c04)" style="fill: none; stroke: #b0b0b0; stroke-width: 0.8; stroke-linecap: square"/>
     </g>
     <g id="line2d_16">
      <defs>
       <path id="m099ab369c7" d="M 0 0 
L -3.5 0 
" style="stroke: #000000; stroke-width: 0.8"/>
      </defs>
      <g>
       <use xlink:href="#m099ab369c7" x="90" y="384.48" style="stroke: #000000; stroke-width: 0.8"/>
      </g>
     </g>
     <g id="text_9">
      <!-- 75 -->
      <g transform="translate(70.275 388.279219) scale(0.1 -0.1)">
       <defs>
        <path id="DejaVuSans-37" d="M 525 4666 
L 3525 4666 
L 3525 4397 
L 1831 0 
L 1172 0 
L 2766 4134 
L 525 4134 
L 525 4666 
z
" transform="scale(0.015625)"/>
        <path id="DejaVuSans-35" d="M 691 4666 
L 3169 4666 
L 3169 4134 
L 1269 4134 
L 1269 2991 
Q 1406 3038 1543 3061 
Q 1681 3084 1819 3084 
Q 2600 3084 3056 2656 
Q 3513 2228 3513 1497 
Q 3513 744 3044 326 
Q 2575 -91 1722 -91 
Q 1428 -91 1123 -41 
Q 819 9 494 109 
L 494 744 
Q 775 591 1075 516 
Q 1375 441 1709 441 
Q 2250 441 2565 725 
Q 2881 1009 2881 1497 
Q 2881 1984 2565 2268 
Q 2250 2553 1709 2553 
Q 1456 2553 1204 2497 
Q 953 2441 691 2322 
L 691 4666 
z
" transform="scale(0.015625)"/>
       </defs>
       <use xlink:href="#DejaVuSans-37"/>
       <use xlink:href="#DejaVuSans-35" x="63.623047"/>
      </g>
     </g>
    </g>
    <g id="ytick_2">
     <g id="line2d_17">
      <path d="M 90 317.952 
L 536.4 317.952 
" clip-path="url(#p6ba6ca6c04)" style="fill: none; stroke: #b0b0b0; stroke-width: 0.8; stroke-linecap: square"/>
     </g>
     <g id="line2d_18">
      <g>
       <use xlink:href="#m099ab369c7" x="90" y="317.952" style="stroke: #000000; stroke-width: 0.8"/>
      </g>
     </g>
     <g id="text_10">
      <!-- 80 -->
      <g transform="translate(70.275 321.751219) scale(0.1 -0.1)">
       <use xlink:href="#DejaVuSans-38"/>
       <use xlink:href="#DejaVuSans-30" x="63.623047"/>
      </g>
     </g>
    </g>
    <g id="ytick_3">
     <g id="line2d_19">
      <path d="M 90 251.424 
L 536.4 251.424 
" clip-path="url(#p6ba6ca6c04)" style="fill: none; stroke: #b0b0b0; stroke-width: 0.8; stroke-linecap: square"/>
     </g>
     <g id="line2d_20">
      <g>
       <use xlink:href="#m099ab369c7" x="90" y="251.424" style="stroke: #000000; stroke-width: 0.8"/>
      </g>
     </g>
     <g id="text_11">
      <!-- 85 -->
      <g transform="translate(70.275 255.223219) scale(0.1 -0.1)">
       <use xlink:href="#DejaVuSans-38"/>
       <use xlink:href="#DejaVuSans-35" x="63.623047"/>
      </g>
     </g>
    </g>
    <g id="ytick_4">
     <g id="line2d_21">
      <path d="M 90 184.896 
L 536.4 184.896 
" clip-path="url(#p6ba6ca6c04)" style="fill: none; stroke: #b0b0b0; stroke-width: 0.8; stroke-linecap: square"/>
     </g>
     <g id="line2d_22">
      <g>
       <use xlink:href="#m099ab369c7" x="90" y="184.896" style="stroke: #000000; stroke-width: 0.8"/>
      </g>
     </g>
     <g id="text_12">
      <!-- 90 -->
      <g transform="translate(70.275 188.695219) scale(0.1 -0.1)">
       <defs>
        <path id="DejaVuSans-39" d="M 703 97 
L 703 672 
Q 941 559 1184 500 
Q 1428 441 1663 441 
Q 2288 441 2617 861 
Q 2947 1281 2994 2138 
Q 2813 1869 2534 1725 
Q 2256 1581 1919 1581 
Q 1219 1581 811 2004 
Q 403 2428 403 3163 
Q 403 3881 828 4315 
Q 1253 4750 1959 4750 
Q 2769 4750 3195 4129 
Q 3622 3509 3622 2328 
Q 3622 1225 3098 567 
Q 2575 -91 1691 -91 
Q 1453 -91 1209 -44 
Q 966 3 703 97 
z
M 1959 2075 
Q 2384 2075 2632 2365 
Q 2881 2656 2881 3163 
Q 2881 3666 2632 3958 
Q 2384 4250 1959 4250 
Q 1534 4250 1286 3958 
Q 1038 3666 1038 3163 
Q 1038 2656 1286 2365 
Q 1534 2075 1959 2075 
z
" transform="scale(0.015625)"/>
       </defs>
       <use xlink:href="#DejaVuSans-39"/>
       <use xlink:href="#DejaVuSans-30" x="63.623047"/>
      </g>
     </g>
    </g>
    <g id="ytick_5">
     <g id="line2d_23">
      <path d="M 90 118.368 
L 536.4 118.368 
" clip-path="url(#p6ba6ca6c04)" style="fill: none; stroke: #b0b0b0; stroke-width: 0.8; stroke-linecap: square"/>
     </g>
     <g id="line2d_24">
      <g>
       <use xlink:href="#m099ab369c7" x="90" y="118.368" style="stroke: #000000; stroke-width: 0.8"/>
      </g>
     </g>
     <g id="text_13">
      <!-- 95 -->
      <g transform="translate(70.275 122.167219) scale(0.1 -0.1)">
       <use xlink:href="#DejaVuSans-39"/>
       <use xlink:href="#DejaVuSans-35" x="63.623047"/>
      </g>
     </g>
    </g>
    <g id="ytick_6">
     <g id="line2d_25">
      <path d="M 90 51.84 
L 536.4 51.84 
" clip-path="url(#p6ba6ca6c04)" style="fill: none; stroke: #b0b0b0; stroke-width: 0.8; stroke-linecap: square"/>
     </g>
     <g id="line2d_26">
      <g>
       <use xlink:href="#m099ab369c7" x="90" y="51.84" style="stroke: #000000; stroke-width: 0.8"/>
      </g>
     </g>
     <g id="text_14">
      <!-- 100 -->
      <g transform="translate(63.9125 55.639219) scale(0.1 -0.1)">
       <use xlink:href="#DejaVuSans-31"/>
       <use xlink:href="#DejaVuSans-30" x="63.623047"/>
       <use xlink:href="#DejaVuSans-30" x="127.246094"/>
      </g>
     </g>
    </g>
    <g id="text_15">
     <!-- $T_{sto,HT}$ [C] -->
     <g transform="translate(54.9125 271.36) rotate(-90) scale(0.2 -0.2)">
      <defs>
       <path id="DejaVuSans-Oblique-54" d="M 378 4666 
L 4325 4666 
L 4225 4134 
L 2559 4134 
L 1759 0 
L 1125 0 
L 1925 4134 
L 275 4134 
L 378 4666 
z
" transform="scale(0.015625)"/>
       <path id="DejaVuSans-Oblique-73" d="M 3200 3397 
L 3091 2853 
Q 2863 2978 2609 3040 
Q 2356 3103 2088 3103 
Q 1634 3103 1373 2948 
Q 1113 2794 1113 2528 
Q 1113 2219 1719 2053 
Q 1766 2041 1788 2034 
L 1972 1978 
Q 2547 1819 2739 1644 
Q 2931 1469 2931 1166 
Q 2931 609 2489 259 
Q 2047 -91 1331 -91 
Q 1053 -91 747 -37 
Q 441 16 72 128 
L 184 722 
Q 500 559 806 475 
Q 1113 391 1394 391 
Q 1816 391 2080 572 
Q 2344 753 2344 1031 
Q 2344 1331 1650 1516 
L 1591 1531 
L 1394 1581 
Q 956 1697 753 1886 
Q 550 2075 550 2369 
Q 550 2928 970 3256 
Q 1391 3584 2113 3584 
Q 2397 3584 2667 3537 
Q 2938 3491 3200 3397 
z
" transform="scale(0.015625)"/>
       <path id="DejaVuSans-Oblique-74" d="M 2706 3500 
L 2619 3053 
L 1472 3053 
L 1100 1153 
Q 1081 1047 1072 975 
Q 1063 903 1063 863 
Q 1063 663 1183 572 
Q 1303 481 1569 481 
L 2150 481 
L 2053 0 
L 1503 0 
Q 991 0 739 200 
Q 488 400 488 806 
Q 488 878 497 964 
Q 506 1050 525 1153 
L 897 3053 
L 409 3053 
L 500 3500 
L 978 3500 
L 1172 4494 
L 1747 4494 
L 1556 3500 
L 2706 3500 
z
" transform="scale(0.015625)"/>
       <path id="DejaVuSans-Oblique-6f" d="M 1625 -91 
Q 1009 -91 651 289 
Q 294 669 294 1325 
Q 294 1706 417 2101 
Q 541 2497 738 2766 
Q 1047 3184 1428 3384 
Q 1809 3584 2291 3584 
Q 2888 3584 3255 3212 
Q 3622 2841 3622 2241 
Q 3622 1825 3500 1412 
Q 3378 1000 3181 728 
Q 2875 309 2494 109 
Q 2113 -91 1625 -91 
z
M 891 1344 
Q 891 869 1089 633 
Q 1288 397 1691 397 
Q 2269 397 2648 901 
Q 3028 1406 3028 2181 
Q 3028 2634 2825 2865 
Q 2622 3097 2228 3097 
Q 1903 3097 1650 2945 
Q 1397 2794 1197 2484 
Q 1050 2253 970 1956 
Q 891 1659 891 1344 
z
" transform="scale(0.015625)"/>
       <path id="DejaVuSans-2c" d="M 750 794 
L 1409 794 
L 1409 256 
L 897 -744 
L 494 -744 
L 750 256 
L 750 794 
z
" transform="scale(0.015625)"/>
       <path id="DejaVuSans-Oblique-48" d="M 1081 4666 
L 1716 4666 
L 1344 2753 
L 3634 2753 
L 4006 4666 
L 4641 4666 
L 3731 0 
L 3097 0 
L 3531 2222 
L 1241 2222 
L 806 0 
L 172 0 
L 1081 4666 
z
" transform="scale(0.015625)"/>
       <path id="DejaVuSans-b0" d="M 1600 4347 
Q 1350 4347 1178 4173 
Q 1006 4000 1006 3750 
Q 1006 3503 1178 3333 
Q 1350 3163 1600 3163 
Q 1850 3163 2022 3333 
Q 2194 3503 2194 3750 
Q 2194 3997 2020 4172 
Q 1847 4347 1600 4347 
z
M 1600 4750 
Q 1800 4750 1984 4673 
Q 2169 4597 2303 4453 
Q 2447 4313 2519 4134 
Q 2591 3956 2591 3750 
Q 2591 3338 2302 3052 
Q 2013 2766 1594 2766 
Q 1172 2766 890 3047 
Q 609 3328 609 3750 
Q 609 4169 896 4459 
Q 1184 4750 1600 4750 
z
" transform="scale(0.015625)"/>
       <path id="DejaVuSans-43" d="M 4122 4306 
L 4122 3641 
Q 3803 3938 3442 4084 
Q 3081 4231 2675 4231 
Q 1875 4231 1450 3742 
Q 1025 3253 1025 2328 
Q 1025 1406 1450 917 
Q 1875 428 2675 428 
Q 3081 428 3442 575 
Q 3803 722 4122 1019 
L 4122 359 
Q 3791 134 3420 21 
Q 3050 -91 2638 -91 
Q 1578 -91 968 557 
Q 359 1206 359 2328 
Q 359 3453 968 4101 
Q 1578 4750 2638 4750 
Q 3056 4750 3426 4639 
Q 3797 4528 4122 4306 
z
" transform="scale(0.015625)"/>
      </defs>
      <use xlink:href="#DejaVuSans-Oblique-54" transform="translate(0 0.015625)"/>
      <use xlink:href="#DejaVuSans-Oblique-73" transform="translate(61.083984 -16.390625) scale(0.7)"/>
      <use xlink:href="#DejaVuSans-Oblique-74" transform="translate(97.553711 -16.390625) scale(0.7)"/>
      <use xlink:href="#DejaVuSans-Oblique-6f" transform="translate(125 -16.390625) scale(0.7)"/>
      <use xlink:href="#DejaVuSans-2c" transform="translate(167.827148 -16.390625) scale(0.7)"/>
      <use xlink:href="#DejaVuSans-Oblique-48" transform="translate(203.71582 -16.390625) scale(0.7)"/>
      <use xlink:href="#DejaVuSans-Oblique-54" transform="translate(256.352539 -16.390625) scale(0.7)"/>
      <use xlink:href="#DejaVuSans-20" transform="translate(301.845703 0.015625)"/>
      <use xlink:href="#DejaVuSans-5b" transform="translate(333.632812 0.015625)"/>
      <use xlink:href="#DejaVuSans-b0" transform="translate(372.646484 0.015625)"/>
      <use xlink:href="#DejaVuSans-43" transform="translate(422.646484 0.015625)"/>
      <use xlink:href="#DejaVuSans-5d" transform="translate(492.470703 0.015625)"/>
     </g>
    </g>
   </g>
   <g id="QuadContourSet_2">
    <path clip-path="url(#p6ba6ca6c04)" style="fill: none; stroke: #000000; stroke-width: 1.5"/>
    <path d="M 90 363.787825 
L 130.581818 358.178356 
L 153.127273 355.727442 
L 162.145455 353.356298 
L 216.254545 338.583785 
L 225.272727 336.486504 
L 234.290909 334.358047 
L 238.8 332.906677 
L 287.239487 317.28 
L 369.563636 293.753733 
L 370.427445 293.504097 
M 395.772768 286.302579 
L 410.145455 282.234521 
L 459.745455 266.730995 
L 482.290909 260.379471 
L 495.818182 255.767237 
L 504.836364 252.728671 
L 513.854545 249.834029 
L 531.890909 244.393729 
L 536.4 242.928623 
L 536.4 242.928623 
" clip-path="url(#p6ba6ca6c04)" style="fill: none; stroke: #000000; stroke-width: 1.5"/>
    <path d="M 90 289.91852 
L 135.090909 285.44131 
L 153.466349 283.68 
L 157.636364 282.569723 
L 202.727273 269.35472 
L 220.763636 264.492745 
L 238.8 259.364688 
L 259.896966 253.43932 
M 285.272539 246.838026 
L 298.636703 243.36 
L 383.090909 221.677187 
L 410.145455 214.174223 
L 464.902968 196.32 
L 482.290909 191.01495 
L 500.327273 185.234393 
L 513.854545 181.242779 
L 536.4 174.773569 
L 536.4 174.773569 
" clip-path="url(#p6ba6ca6c04)" style="fill: none; stroke: #000000; stroke-width: 1.5"/>
    <path d="M 90 222.930768 
L 94.509091 222.783097 
L 99.018182 222.635427 
L 103.527273 222.487757 
L 108.036364 222.340087 
L 112.545455 222.192417 
L 117.054545 222.044747 
L 121.563636 221.734727 
L 126.072727 221.369562 
L 130.581818 221.004397 
L 135.090909 220.639232 
L 139.6 220.274067 
L 144.109091 219.908902 
L 144.9599 219.84 
L 148.618182 219.543737 
L 153.127273 219.178572 
L 157.636364 218.129156 
L 162.145455 216.965699 
L 164.027828 216.48 
L 166.654545 215.802242 
L 171.163636 214.638785 
L 175.672727 213.475327 
L 177.049832 213.12 
L 180.181818 212.315079 
L 184.690909 211.178187 
L 189.2 210.04383 
L 190.328227 209.76 
L 193.709091 208.909472 
L 198.218182 207.775114 
L 202.727273 206.640756 
L 203.684283 206.4 
L 207.236364 205.506398 
L 211.745455 204.372041 
L 216.254545 203.237683 
L 217.001626 203.04 
L 220.763636 202.044545 
L 225.272727 200.827894 
L 229.526998 199.68 
L 229.781818 199.611244 
L 234.290909 198.394594 
L 238.8 197.177943 
L 241.979669 196.32 
L 243.309091 195.961293 
L 247.818182 194.744643 
L 252.327273 193.527992 
L 254.432339 192.96 
L 256.836364 192.311342 
L 261.345455 191.094692 
L 265.854545 189.878041 
L 266.669454 189.658162 
M 291.995213 182.761442 
L 292.909091 182.510845 
L 297.418182 181.274393 
L 301.927273 180.037941 
L 303.8161 179.52 
L 306.436364 178.801489 
L 310.945455 177.565038 
L 315.454545 176.328586 
L 316.069344 176.16 
L 319.963636 175.092134 
L 324.472727 173.855682 
L 328.322589 172.8 
L 328.981818 172.619231 
L 333.490909 171.415395 
L 338 170.315659 
L 341.59034 169.44 
L 342.509091 169.215923 
L 347.018182 168.047645 
L 351.527273 166.787978 
L 354.061543 166.08 
L 356.036364 165.528311 
L 360.545455 164.268644 
L 365.054545 163.015579 
L 366.203005 162.72 
L 369.563636 161.841697 
L 374.072727 160.715212 
L 378.581818 159.588726 
L 379.497362 159.36 
L 383.090909 158.462241 
L 387.6 157.335755 
L 392.109091 156.20927 
L 392.946755 156 
L 396.618182 155.082784 
L 401.127273 153.956299 
L 405.636364 152.829813 
L 406.356198 152.64 
L 410.145455 151.640809 
L 414.654545 150.295508 
L 418.058257 149.28 
L 419.163636 148.950207 
L 423.672727 147.604905 
L 428.181818 146.259604 
L 429.320081 145.92 
L 432.690909 144.911389 
L 437.2 143.505004 
L 440.171584 142.56 
L 441.709091 142.071052 
L 446.218182 140.637099 
L 450.727273 139.203147 
L 450.737168 139.2 
L 455.236364 137.769194 
L 459.745455 136.335242 
L 461.302752 135.84 
L 464.254545 134.901289 
L 468.763636 133.467337 
L 471.901365 132.48 
L 473.272727 132.048479 
L 477.781818 130.720188 
L 482.290909 129.391898 
L 483.213908 129.12 
L 486.8 128.063607 
L 491.309091 126.735316 
L 494.619955 125.76 
L 495.818182 125.407026 
L 500.327273 124.078735 
L 504.836364 122.750444 
L 506.026002 122.4 
L 509.345455 121.422154 
L 513.854545 120.093863 
L 517.432049 119.04 
L 518.363636 118.783754 
L 522.872727 117.543469 
L 527.381818 116.303183 
L 529.647415 115.68 
L 531.890909 115.072952 
L 536.4 113.852875 
" clip-path="url(#p6ba6ca6c04)" style="fill: none; stroke: #000000; stroke-width: 1.5"/>
    <path d="M 90 161.557064 
L 94.509091 161.422006 
L 99.018182 161.286948 
L 103.527273 161.151891 
L 108.036364 161.016833 
L 112.545455 160.881776 
L 117.054545 160.746718 
L 121.563636 160.61166 
L 126.072727 160.476603 
L 130.581818 160.36855 
L 135.090909 160.351661 
L 139.6 160.351661 
L 144.109091 160.351661 
L 148.618182 160.351661 
L 153.127273 160.351661 
L 157.636364 159.429087 
L 157.925787 159.36 
L 162.145455 158.352749 
L 166.654545 157.276412 
L 171.163636 156.200075 
L 172.00181 156 
L 175.672727 155.123738 
L 180.181818 154.047401 
L 184.690909 152.97191 
L 186.093454 152.64 
L 189.2 151.904841 
L 193.709091 150.837773 
L 198.218182 149.770705 
L 200.291744 149.28 
L 202.727273 148.703636 
L 207.236364 147.636568 
L 211.745455 146.5695 
L 214.490033 145.92 
L 216.254545 145.502431 
L 220.763636 144.245924 
L 225.272727 142.91364 
L 226.469616 142.56 
L 229.781818 141.581357 
L 234.290909 140.249073 
L 237.841479 139.2 
L 238.8 138.916789 
L 243.309091 137.584506 
L 247.818182 136.252222 
L 249.213341 135.84 
L 252.327273 134.919939 
L 256.836364 133.587655 
L 260.585204 132.48 
L 261.345455 132.255372 
L 265.854545 130.923088 
L 270.363636 129.606338 
L 272.176055 129.12 
L 274.872727 128.390366 
L 279.381818 127.198294 
L 283.890909 125.980862 
L 284.696349 125.76 
L 288.4 124.767783 
L 292.909091 123.668047 
L 297.418182 122.568311 
L 298.108283 122.4 
L 301.927273 121.468575 
L 306.436364 120.368839 
L 310.945455 119.269102 
L 311.88481 119.04 
L 315.454545 118.223087 
L 319.963636 117.191207 
L 324.472727 116.159328 
L 326.567285 115.68 
L 328.981818 115.135842 
L 333.490909 114.119638 
L 338 113.103434 
L 341.476247 112.32 
L 342.509091 112.08723 
L 347.018182 111.000876 
L 351.527273 109.821571 
L 354.836763 108.96 
L 356.036364 108.647281 
L 360.545455 107.478922 
L 365.054545 106.310987 
L 367.79948 105.6 
L 369.563636 105.143052 
L 374.072727 103.975117 
L 378.581818 102.807182 
L 380.771561 102.24 
L 383.090909 101.639247 
L 383.927767 101.422486 
M 409.3051 94.827544 
L 410.145455 94.604892 
L 414.654545 93.343346 
L 418.884131 92.16 
L 419.163636 92.0818 
L 423.672727 90.820255 
L 428.181818 89.558709 
L 430.893639 88.8 
L 432.690909 88.297163 
L 437.2 87.035617 
L 441.709091 85.783761 
L 443.020267 85.44 
L 446.218182 84.612181 
L 450.727273 83.444949 
L 455.236364 82.277717 
L 456.000156 82.08 
L 459.745455 81.110484 
L 464.254545 79.943252 
L 468.763636 78.77602 
L 468.973554 78.72 
L 473.272727 77.572698 
L 477.781818 76.152839 
L 480.299661 75.36 
L 482.290909 74.73298 
L 486.8 73.313121 
L 490.970118 72 
L 491.309091 71.893261 
L 495.818182 70.473402 
L 500.327273 69.053543 
L 501.640574 68.64 
L 504.836364 67.633684 
L 509.345455 66.213825 
L 512.311031 65.28 
L 513.854545 64.793966 
L 518.363636 63.374107 
L 522.872727 61.954247 
L 522.984522 61.92 
L 527.381818 60.557295 
L 531.890909 59.270901 
L 534.518215 58.56 
L 536.4 58.050824 
" clip-path="url(#p6ba6ca6c04)" style="fill: none; stroke: #000000; stroke-width: 1.5"/>
    <path d="M 90 104.756943 
L 94.509091 104.756943 
L 99.018182 104.756943 
L 103.527273 104.756943 
L 108.036364 104.756943 
L 112.545455 104.756943 
L 117.054545 104.756943 
L 121.563636 104.756943 
L 126.072727 104.756943 
L 130.581818 104.756943 
L 135.090909 104.756943 
L 139.6 104.756943 
L 144.109091 104.756943 
L 148.618182 104.756943 
L 153.127273 104.756943 
L 157.636364 103.892073 
L 162.145455 102.883059 
L 165.019162 102.24 
L 166.654545 101.874045 
L 171.163636 100.86503 
L 175.672727 99.856016 
L 180.034356 98.88 
L 180.181818 98.847002 
L 184.690909 97.837988 
L 189.2 96.828973 
L 193.709091 95.819959 
L 195.052702 95.52 
L 198.218182 94.813934 
L 202.727273 93.809946 
L 207.236364 92.805958 
L 210.137477 92.16 
L 211.745455 91.80197 
L 216.254545 90.797982 
L 220.763636 89.622076 
L 223.741783 88.8 
L 225.272727 88.377404 
L 229.781818 87.132731 
L 234.290909 85.888058 
L 235.914095 85.44 
L 238.8 84.643386 
L 243.309091 83.398713 
L 247.818182 82.2195 
L 248.456389 82.08 
L 252.327273 81.258446 
L 256.836364 80.301438 
L 261.345455 79.344431 
L 264.287561 78.72 
L 265.854545 78.387424 
L 270.363636 77.430417 
L 271.134885 77.266727 
M 296.558869 70.990996 
L 297.418182 70.759025 
L 301.927273 69.5418 
L 305.267904 68.64 
L 306.436364 68.324575 
L 310.945455 67.107351 
L 315.454545 65.890126 
L 317.714698 65.28 
L 319.963636 64.672901 
L 324.472727 63.455676 
L 328.981818 62.238452 
L 330.161491 61.92 
L 333.490909 61.021227 
L 338 59.860724 
L 342.509091 58.820775 
L 343.591482 58.56 
L 347.018182 57.734421 
L 351.527273 56.554534 
L 356.036364 55.374646 
L 356.703795 55.2 
L 360.545455 54.194758 
L 365.054545 53.01487 
L 369.544461 51.84 
" clip-path="url(#p6ba6ca6c04)" style="fill: none; stroke: #000000; stroke-width: 1.5"/>
    <path clip-path="url(#p6ba6ca6c04)" style="fill: none; stroke: #000000; stroke-width: 1.5"/>
    <path clip-path="url(#p6ba6ca6c04)" style="fill: none; stroke: #000000; stroke-width: 1.5"/>
    <path clip-path="url(#p6ba6ca6c04)" style="fill: none; stroke: #000000; stroke-width: 1.5"/>
    <path clip-path="url(#p6ba6ca6c04)" style="fill: none; stroke: #000000; stroke-width: 1.5"/>
   </g>
   <g id="patch_3">
    <path d="M 90 384.48 
L 90 51.84 
" style="fill: none; stroke: #000000; stroke-width: 0.8; stroke-linejoin: miter; stroke-linecap: square"/>
   </g>
   <g id="patch_4">
    <path d="M 536.4 384.48 
L 536.4 51.84 
" style="fill: none; stroke: #000000; stroke-width: 0.8; stroke-linejoin: miter; stroke-linecap: square"/>
   </g>
   <g id="patch_5">
    <path d="M 90 384.48 
L 536.4 384.48 
" style="fill: none; stroke: #000000; stroke-width: 0.8; stroke-linejoin: miter; stroke-linecap: square"/>
   </g>
   <g id="patch_6">
    <path d="M 90 51.84 
L 536.4 51.84 
" style="fill: none; stroke: #000000; stroke-width: 0.8; stroke-linejoin: miter; stroke-linecap: square"/>
   </g>
   <g id="text_16">
    <g clip-path="url(#p6ba6ca6c04)">
     <!-- 1000 -->
     <g transform="translate(371.293676 295.363223) rotate(-12.802151) scale(0.1 -0.1)">
      <use xlink:href="#DejaVuSans-31"/>
      <use xlink:href="#DejaVuSans-30" x="63.623047"/>
      <use xlink:href="#DejaVuSans-30" x="127.246094"/>
      <use xlink:href="#DejaVuSans-30" x="190.869141"/>
     </g>
    </g>
   </g>
   <g id="text_17">
    <g clip-path="url(#p6ba6ca6c04)">
     <!-- 2000 -->
     <g transform="translate(260.671927 255.357348) rotate(-11.675147) scale(0.1 -0.1)">
      <use xlink:href="#DejaVuSans-32"/>
      <use xlink:href="#DejaVuSans-30" x="63.623047"/>
      <use xlink:href="#DejaVuSans-30" x="127.246094"/>
      <use xlink:href="#DejaVuSans-30" x="190.869141"/>
     </g>
    </g>
   </g>
   <g id="text_18">
    <g clip-path="url(#p6ba6ca6c04)">
     <!-- 3000 -->
     <g transform="translate(267.489163 191.639298) rotate(-12.263491) scale(0.1 -0.1)">
      <defs>
       <path id="DejaVuSans-33" d="M 2597 2516 
Q 3050 2419 3304 2112 
Q 3559 1806 3559 1356 
Q 3559 666 3084 287 
Q 2609 -91 1734 -91 
Q 1441 -91 1130 -33 
Q 819 25 488 141 
L 488 750 
Q 750 597 1062 519 
Q 1375 441 1716 441 
Q 2309 441 2620 675 
Q 2931 909 2931 1356 
Q 2931 1769 2642 2001 
Q 2353 2234 1838 2234 
L 1294 2234 
L 1294 2753 
L 1863 2753 
Q 2328 2753 2575 2939 
Q 2822 3125 2822 3475 
Q 2822 3834 2567 4026 
Q 2313 4219 1838 4219 
Q 1578 4219 1281 4162 
Q 984 4106 628 3988 
L 628 4550 
Q 988 4650 1302 4700 
Q 1616 4750 1894 4750 
Q 2613 4750 3031 4423 
Q 3450 4097 3450 3541 
Q 3450 3153 3228 2886 
Q 3006 2619 2597 2516 
z
" transform="scale(0.015625)"/>
      </defs>
      <use xlink:href="#DejaVuSans-33"/>
      <use xlink:href="#DejaVuSans-30" x="63.623047"/>
      <use xlink:href="#DejaVuSans-30" x="127.246094"/>
      <use xlink:href="#DejaVuSans-30" x="190.869141"/>
     </g>
    </g>
   </g>
   <g id="text_19">
    <g clip-path="url(#p6ba6ca6c04)">
     <!-- 4000 -->
     <g transform="translate(384.718804 103.421706) rotate(-11.718066) scale(0.1 -0.1)">
      <use xlink:href="#DejaVuSans-34"/>
      <use xlink:href="#DejaVuSans-30" x="63.623047"/>
      <use xlink:href="#DejaVuSans-30" x="127.246094"/>
      <use xlink:href="#DejaVuSans-30" x="190.869141"/>
     </g>
    </g>
   </g>
   <g id="text_20">
    <g clip-path="url(#p6ba6ca6c04)">
     <!-- 5000 -->
     <g transform="translate(271.948273 79.598495) rotate(-11.244804) scale(0.1 -0.1)">
      <use xlink:href="#DejaVuSans-35"/>
      <use xlink:href="#DejaVuSans-30" x="63.623047"/>
      <use xlink:href="#DejaVuSans-30" x="127.246094"/>
      <use xlink:href="#DejaVuSans-30" x="190.869141"/>
     </g>
    </g>
   </g>
  </g>
  <g id="axes_2">
   <g id="patch_7">
    <path d="M 564.3 384.48 
L 580.932 384.48 
L 580.932 51.84 
L 564.3 51.84 
z
" style="fill: #ffffff"/>
   </g>
   <g id="QuadMesh_1">
    <path d="M 564.3 384.48 
L 580.932 384.48 
L 580.932 347.52 
L 564.3 347.52 
L 564.3 384.48 
" clip-path="url(#p9524b31ccb)" style="fill: #481668"/>
    <path d="M 564.3 347.52 
L 580.932 347.52 
L 580.932 310.56 
L 564.3 310.56 
L 564.3 347.52 
" clip-path="url(#p9524b31ccb)" style="fill: #443983"/>
    <path d="M 564.3 310.56 
L 580.932 310.56 
L 580.932 273.6 
L 564.3 273.6 
L 564.3 310.56 
" clip-path="url(#p9524b31ccb)" style="fill: #375a8c"/>
    <path d="M 564.3 273.6 
L 580.932 273.6 
L 580.932 236.64 
L 564.3 236.64 
L 564.3 273.6 
" clip-path="url(#p9524b31ccb)" style="fill: #2b758e"/>
    <path d="M 564.3 236.64 
L 580.932 236.64 
L 580.932 199.68 
L 564.3 199.68 
L 564.3 236.64 
" clip-path="url(#p9524b31ccb)" style="fill: #21918c"/>
    <path d="M 564.3 199.68 
L 580.932 199.68 
L 580.932 162.72 
L 564.3 162.72 
L 564.3 199.68 
" clip-path="url(#p9524b31ccb)" style="fill: #25ab82"/>
    <path d="M 564.3 162.72 
L 580.932 162.72 
L 580.932 125.76 
L 564.3 125.76 
L 564.3 162.72 
" clip-path="url(#p9524b31ccb)" style="fill: #4ec36b"/>
    <path d="M 564.3 125.76 
L 580.932 125.76 
L 580.932 88.8 
L 564.3 88.8 
L 564.3 125.76 
" clip-path="url(#p9524b31ccb)" style="fill: #90d743"/>
    <path d="M 564.3 88.8 
L 580.932 88.8 
L 580.932 51.84 
L 564.3 51.84 
L 564.3 88.8 
" clip-path="url(#p9524b31ccb)" style="fill: #dae319"/>
   </g>
   <g id="matplotlib.axis_3"/>
   <g id="matplotlib.axis_4">
    <g id="ytick_7">
     <g id="line2d_27">
      <defs>
       <path id="m79f90ce43c" d="M 0 0 
L 3.5 0 
" style="stroke: #000000; stroke-width: 0.8"/>
      </defs>
      <g>
       <use xlink:href="#m79f90ce43c" x="580.932" y="384.48" style="stroke: #000000; stroke-width: 0.8"/>
      </g>
     </g>
     <g id="text_21">
      <!-- 0 -->
      <g transform="translate(587.932 388.279219) scale(0.1 -0.1)">
       <use xlink:href="#DejaVuSans-30"/>
      </g>
     </g>
    </g>
    <g id="ytick_8">
     <g id="line2d_28">
      <g>
       <use xlink:href="#m79f90ce43c" x="580.932" y="347.52" style="stroke: #000000; stroke-width: 0.8"/>
      </g>
     </g>
     <g id="text_22">
      <!-- 1000 -->
      <g transform="translate(587.932 351.319219) scale(0.1 -0.1)">
       <use xlink:href="#DejaVuSans-31"/>
       <use xlink:href="#DejaVuSans-30" x="63.623047"/>
       <use xlink:href="#DejaVuSans-30" x="127.246094"/>
       <use xlink:href="#DejaVuSans-30" x="190.869141"/>
      </g>
     </g>
    </g>
    <g id="ytick_9">
     <g id="line2d_29">
      <g>
       <use xlink:href="#m79f90ce43c" x="580.932" y="310.56" style="stroke: #000000; stroke-width: 0.8"/>
      </g>
     </g>
     <g id="text_23">
      <!-- 2000 -->
      <g transform="translate(587.932 314.359219) scale(0.1 -0.1)">
       <use xlink:href="#DejaVuSans-32"/>
       <use xlink:href="#DejaVuSans-30" x="63.623047"/>
       <use xlink:href="#DejaVuSans-30" x="127.246094"/>
       <use xlink:href="#DejaVuSans-30" x="190.869141"/>
      </g>
     </g>
    </g>
    <g id="ytick_10">
     <g id="line2d_30">
      <g>
       <use xlink:href="#m79f90ce43c" x="580.932" y="273.6" style="stroke: #000000; stroke-width: 0.8"/>
      </g>
     </g>
     <g id="text_24">
      <!-- 3000 -->
      <g transform="translate(587.932 277.399219) scale(0.1 -0.1)">
       <use xlink:href="#DejaVuSans-33"/>
       <use xlink:href="#DejaVuSans-30" x="63.623047"/>
       <use xlink:href="#DejaVuSans-30" x="127.246094"/>
       <use xlink:href="#DejaVuSans-30" x="190.869141"/>
      </g>
     </g>
    </g>
    <g id="ytick_11">
     <g id="line2d_31">
      <g>
       <use xlink:href="#m79f90ce43c" x="580.932" y="236.64" style="stroke: #000000; stroke-width: 0.8"/>
      </g>
     </g>
     <g id="text_25">
      <!-- 4000 -->
      <g transform="translate(587.932 240.439219) scale(0.1 -0.1)">
       <use xlink:href="#DejaVuSans-34"/>
       <use xlink:href="#DejaVuSans-30" x="63.623047"/>
       <use xlink:href="#DejaVuSans-30" x="127.246094"/>
       <use xlink:href="#DejaVuSans-30" x="190.869141"/>
      </g>
     </g>
    </g>
    <g id="ytick_12">
     <g id="line2d_32">
      <g>
       <use xlink:href="#m79f90ce43c" x="580.932" y="199.68" style="stroke: #000000; stroke-width: 0.8"/>
      </g>
     </g>
     <g id="text_26">
      <!-- 5000 -->
      <g transform="translate(587.932 203.479219) scale(0.1 -0.1)">
       <use xlink:href="#DejaVuSans-35"/>
       <use xlink:href="#DejaVuSans-30" x="63.623047"/>
       <use xlink:href="#DejaVuSans-30" x="127.246094"/>
       <use xlink:href="#DejaVuSans-30" x="190.869141"/>
      </g>
     </g>
    </g>
    <g id="ytick_13">
     <g id="line2d_33">
      <g>
       <use xlink:href="#m79f90ce43c" x="580.932" y="162.72" style="stroke: #000000; stroke-width: 0.8"/>
      </g>
     </g>
     <g id="text_27">
      <!-- 6000 -->
      <g transform="translate(587.932 166.519219) scale(0.1 -0.1)">
       <use xlink:href="#DejaVuSans-36"/>
       <use xlink:href="#DejaVuSans-30" x="63.623047"/>
       <use xlink:href="#DejaVuSans-30" x="127.246094"/>
       <use xlink:href="#DejaVuSans-30" x="190.869141"/>
      </g>
     </g>
    </g>
    <g id="ytick_14">
     <g id="line2d_34">
      <g>
       <use xlink:href="#m79f90ce43c" x="580.932" y="125.76" style="stroke: #000000; stroke-width: 0.8"/>
      </g>
     </g>
     <g id="text_28">
      <!-- 7000 -->
      <g transform="translate(587.932 129.559219) scale(0.1 -0.1)">
       <use xlink:href="#DejaVuSans-37"/>
       <use xlink:href="#DejaVuSans-30" x="63.623047"/>
       <use xlink:href="#DejaVuSans-30" x="127.246094"/>
       <use xlink:href="#DejaVuSans-30" x="190.869141"/>
      </g>
     </g>
    </g>
    <g id="ytick_15">
     <g id="line2d_35">
      <g>
       <use xlink:href="#m79f90ce43c" x="580.932" y="88.8" style="stroke: #000000; stroke-width: 0.8"/>
      </g>
     </g>
     <g id="text_29">
      <!-- 8000 -->
      <g transform="translate(587.932 92.599219) scale(0.1 -0.1)">
       <use xlink:href="#DejaVuSans-38"/>
       <use xlink:href="#DejaVuSans-30" x="63.623047"/>
       <use xlink:href="#DejaVuSans-30" x="127.246094"/>
       <use xlink:href="#DejaVuSans-30" x="190.869141"/>
      </g>
     </g>
    </g>
    <g id="ytick_16">
     <g id="line2d_36">
      <g>
       <use xlink:href="#m79f90ce43c" x="580.932" y="51.84" style="stroke: #000000; stroke-width: 0.8"/>
      </g>
     </g>
     <g id="text_30">
      <!-- 9000 -->
      <g transform="translate(587.932 55.639219) scale(0.1 -0.1)">
       <use xlink:href="#DejaVuSans-39"/>
       <use xlink:href="#DejaVuSans-30" x="63.623047"/>
       <use xlink:href="#DejaVuSans-30" x="127.246094"/>
       <use xlink:href="#DejaVuSans-30" x="190.869141"/>
      </g>
     </g>
    </g>
    <g id="text_31">
     <!-- $\dot{W}_{exp}$ [W] -->
     <g transform="translate(634.342 253.44) rotate(-90) scale(0.16 -0.16)">
      <defs>
       <path id="DejaVuSans-307" d="M -1894 4863 
L -1319 4863 
L -1319 4134 
L -1894 4134 
L -1894 4863 
z
M -1600 3584 
L -1600 3584 
z
" transform="scale(0.015625)"/>
       <path id="DejaVuSans-Oblique-57" d="M 616 4666 
L 1228 4666 
L 1453 697 
L 3213 4666 
L 3916 4666 
L 4147 697 
L 5888 4666 
L 6528 4666 
L 4453 0 
L 3659 0 
L 3444 3891 
L 1697 0 
L 903 0 
L 616 4666 
z
" transform="scale(0.015625)"/>
       <path id="DejaVuSans-Oblique-78" d="M 3841 3500 
L 2234 1784 
L 3219 0 
L 2559 0 
L 1819 1388 
L 531 0 
L -166 0 
L 1556 1844 
L 641 3500 
L 1300 3500 
L 1972 2234 
L 3144 3500 
L 3841 3500 
z
" transform="scale(0.015625)"/>
       <path id="DejaVuSans-Oblique-70" d="M 3175 2156 
Q 3175 2616 2975 2859 
Q 2775 3103 2400 3103 
Q 2144 3103 1911 2972 
Q 1678 2841 1497 2591 
Q 1319 2344 1212 1994 
Q 1106 1644 1106 1300 
Q 1106 863 1306 627 
Q 1506 391 1875 391 
Q 2147 391 2380 519 
Q 2613 647 2778 891 
Q 2956 1147 3065 1494 
Q 3175 1841 3175 2156 
z
M 1394 2969 
Q 1625 3272 1939 3428 
Q 2253 3584 2638 3584 
Q 3175 3584 3472 3232 
Q 3769 2881 3769 2247 
Q 3769 1728 3584 1258 
Q 3400 788 3053 416 
Q 2822 169 2531 39 
Q 2241 -91 1919 -91 
Q 1547 -91 1294 64 
Q 1041 219 916 525 
L 556 -1331 
L -19 -1331 
L 922 3500 
L 1497 3500 
L 1394 2969 
z
" transform="scale(0.015625)"/>
       <path id="DejaVuSans-57" d="M 213 4666 
L 850 4666 
L 1831 722 
L 2809 4666 
L 3519 4666 
L 4500 722 
L 5478 4666 
L 6119 4666 
L 4947 0 
L 4153 0 
L 3169 4050 
L 2175 0 
L 1381 0 
L 213 4666 
z
" transform="scale(0.015625)"/>
      </defs>
      <use xlink:href="#DejaVuSans-307" transform="translate(87.312988 30.015625)"/>
      <use xlink:href="#DejaVuSans-Oblique-57" transform="translate(0 0.609375)"/>
      <use xlink:href="#DejaVuSans-Oblique-65" transform="translate(99.833984 -15.796875) scale(0.7)"/>
      <use xlink:href="#DejaVuSans-Oblique-78" transform="translate(142.900391 -15.796875) scale(0.7)"/>
      <use xlink:href="#DejaVuSans-Oblique-70" transform="translate(184.326172 -15.796875) scale(0.7)"/>
      <use xlink:href="#DejaVuSans-20" transform="translate(231.494141 0.609375)"/>
      <use xlink:href="#DejaVuSans-5b" transform="translate(263.28125 0.609375)"/>
      <use xlink:href="#DejaVuSans-57" transform="translate(302.294922 0.609375)"/>
      <use xlink:href="#DejaVuSans-5d" transform="translate(401.171875 0.609375)"/>
     </g>
    </g>
   </g>
   <g id="LineCollection_1"/>
   <g id="patch_8">
    <path d="M 564.3 384.48 
L 572.616 384.48 
L 580.932 384.48 
L 580.932 51.84 
L 572.616 51.84 
L 564.3 51.84 
L 564.3 384.48 
z
" style="fill: none; stroke: #000000; stroke-width: 0.8; stroke-linejoin: miter; stroke-linecap: square"/>
   </g>
  </g>
 </g>
 <defs>
  <clipPath id="p6ba6ca6c04">
   <rect x="90" y="51.84" width="446.4" height="332.64"/>
  </clipPath>
  <clipPath id="p9524b31ccb">
   <rect x="564.3" y="51.84" width="16.632" height="332.64"/>
  </clipPath>
 </defs>
</svg>
