<?xml version="1.0" encoding="utf-8" standalone="no"?>
<!DOCTYPE svg PUBLIC "-//W3C//DTD SVG 1.1//EN"
  "http://www.w3.org/Graphics/SVG/1.1/DTD/svg11.dtd">
<svg xmlns:xlink="http://www.w3.org/1999/xlink" width="720pt" height="432pt" viewBox="0 0 720 432" xmlns="http://www.w3.org/2000/svg" version="1.1">
 <metadata>
  <rdf:RDF xmlns:dc="http://purl.org/dc/elements/1.1/" xmlns:cc="http://creativecommons.org/ns#" xmlns:rdf="http://www.w3.org/1999/02/22-rdf-syntax-ns#">
   <cc:Work>
    <dc:type rdf:resource="http://purl.org/dc/dcmitype/StillImage"/>
    <dc:date>2024-06-18T14:17:28.820356</dc:date>
    <dc:format>image/svg+xml</dc:format>
    <dc:creator>
     <cc:Agent>
      <dc:title>Matplotlib v3.8.3, https://matplotlib.org/</dc:title>
     </cc:Agent>
    </dc:creator>
   </cc:Work>
  </rdf:RDF>
 </metadata>
 <defs>
  <style type="text/css">*{stroke-linejoin: round; stroke-linecap: butt}</style>
 </defs>
 <g id="figure_1">
  <g id="patch_1">
   <path d="M 0 432 
L 720 432 
L 720 0 
L 0 0 
z
" style="fill: #ffffff"/>
  </g>
  <g id="axes_1">
   <g id="patch_2">
    <path d="M 90 384.48 
L 536.4 384.48 
L 536.4 51.84 
L 90 51.84 
z
" style="fill: #ffffff"/>
   </g>
   <g id="QuadContourSet_1">
    <path d="M 207.236364 384.48 
L 211.745455 384.48 
L 216.254545 384.48 
L 220.763636 384.48 
L 225.272727 384.48 
L 229.781818 384.48 
L 234.290909 384.48 
L 238.8 384.48 
L 243.309091 384.48 
L 247.818182 384.48 
L 252.327273 384.48 
L 256.836364 384.48 
L 261.345455 384.48 
L 265.854545 384.48 
L 270.363636 384.48 
L 274.872727 384.48 
L 279.381818 384.48 
L 283.890909 381.12 
L 288.4 381.12 
L 292.909091 381.12 
L 297.418182 377.76 
L 301.927273 377.76 
L 306.436364 377.76 
L 310.945455 374.4 
L 315.454545 374.4 
L 319.963636 374.4 
L 324.472727 371.04 
L 328.981818 371.04 
L 333.490909 367.68 
L 338 367.68 
L 342.509091 367.68 
L 347.018182 364.32 
L 351.527273 364.32 
L 356.036364 364.32 
L 360.545455 360.96 
L 365.054545 360.96 
L 369.563636 360.96 
L 374.072727 357.6 
L 378.581818 357.6 
L 383.090909 357.6 
L 387.6 354.24 
L 392.109091 354.24 
L 396.618182 354.24 
L 401.127273 350.88 
L 405.636364 350.88 
L 410.145455 350.88 
L 414.654545 347.52 
L 419.163636 347.52 
L 423.672727 344.16 
L 428.181818 344.16 
L 432.690909 344.16 
L 437.2 340.8 
L 441.709091 340.8 
L 446.218182 340.8 
L 450.727273 337.44 
L 455.236364 337.44 
L 459.745455 337.44 
L 464.254545 334.08 
L 468.763636 334.08 
L 473.272727 334.08 
L 477.781818 330.72 
L 482.290909 330.72 
L 486.8 330.72 
L 491.309091 327.36 
L 495.818182 327.36 
L 500.327273 327.36 
L 504.836364 324 
L 509.345455 324 
L 513.854545 320.64 
L 518.363636 320.64 
L 522.872727 320.64 
L 527.381818 317.28 
L 531.890909 317.28 
L 536.4 317.28 
L 536.4 313.92 
L 536.4 310.56 
L 536.4 307.2 
L 536.4 303.84 
L 536.4 300.48 
L 536.4 297.12 
L 536.4 293.76 
L 536.4 290.4 
L 536.4 287.04 
L 536.4 283.830375 
L 531.890909 285.075848 
L 527.381818 286.321321 
L 524.779924 287.04 
L 522.872727 287.566794 
L 518.363636 288.812267 
L 513.854545 290.05774 
L 512.648377 290.4 
L 509.345455 291.387209 
L 504.836364 292.949931 
L 502.498986 293.76 
L 500.327273 294.512654 
L 495.818182 296.075376 
L 492.804017 297.12 
L 491.309091 297.638099 
L 486.8 299.200821 
L 483.109048 300.48 
L 482.290909 300.763543 
L 477.781818 302.326266 
L 473.414079 303.84 
L 473.272727 303.888988 
L 468.763636 305.30569 
L 464.254545 306.698056 
L 462.62903 307.2 
L 459.745455 308.090421 
L 455.236364 309.482787 
L 451.747874 310.56 
L 450.727273 310.875152 
L 446.218182 312.267518 
L 441.709091 313.659883 
L 440.866718 313.92 
L 437.2 315.052249 
L 432.690909 316.444614 
L 429.985562 317.28 
L 428.181818 317.843588 
L 423.672727 319.252474 
L 419.232 320.64 
L 419.163636 320.661424 
L 414.654545 322.074502 
L 410.145455 323.48758 
L 408.510337 324 
L 405.636364 324.900658 
L 401.127273 326.313736 
L 397.788674 327.36 
L 396.618182 327.726814 
L 392.109091 329.139892 
L 387.6 330.552791 
L 387.066469 330.72 
L 383.090909 331.965143 
L 378.581818 333.377774 
L 376.338506 334.08 
L 374.072727 334.788803 
L 369.563636 336.200477 
L 365.602715 337.44 
L 365.054545 337.611543 
L 360.545455 339.02261 
L 356.036364 340.433676 
L 354.865769 340.8 
L 351.527273 341.844743 
L 347.018182 343.255809 
L 344.128822 344.16 
L 342.509091 344.666876 
L 338 346.077942 
L 333.490909 347.489009 
L 333.391876 347.52 
L 328.981818 348.900075 
L 324.472727 350.311142 
L 322.654929 350.88 
L 319.963636 351.722208 
L 315.454545 353.133275 
L 311.917982 354.24 
L 310.945455 354.544341 
L 306.436364 355.895033 
L 301.927273 357.22028 
L 300.635295 357.6 
L 297.418182 358.545528 
L 292.909091 359.870775 
L 289.203054 360.96 
L 288.4 361.196022 
L 283.890909 362.521269 
L 279.381818 363.793246 
L 277.404065 364.32 
L 274.872727 364.994196 
L 270.363636 366.195145 
L 265.854545 367.396094 
L 264.803495 367.68 
L 261.345455 368.618034 
L 256.836364 369.844027 
L 252.437684 371.04 
L 252.327273 371.07002 
L 247.818182 372.296013 
L 243.309091 373.522007 
L 240.079912 374.4 
L 238.8 374.748 
L 234.290909 375.973993 
L 229.781818 377.199987 
L 227.72214 377.76 
L 225.272727 378.42598 
L 220.763636 379.651973 
L 216.254545 380.916984 
L 215.582708 381.12 
L 211.745455 382.27954 
L 207.236364 383.642096 
L 204.463497 384.48 
z
" clip-path="url(#pffb95a3f6f)" style="fill: #481668"/>
    <path d="M 94.509091 384.48 
L 99.018182 384.48 
L 103.527273 384.48 
L 108.036364 384.48 
L 112.545455 384.48 
L 117.054545 384.48 
L 121.563636 384.48 
L 126.072727 384.48 
L 130.581818 384.48 
L 135.090909 384.48 
L 139.6 384.48 
L 144.109091 384.48 
L 148.618182 384.48 
L 153.127273 384.48 
L 157.636364 384.48 
L 162.145455 384.48 
L 166.654545 384.48 
L 171.163636 384.48 
L 175.672727 384.48 
L 180.181818 384.48 
L 184.690909 384.48 
L 189.2 384.48 
L 193.709091 384.48 
L 198.218182 384.48 
L 202.727273 384.48 
L 204.463497 384.48 
L 207.236364 383.642096 
L 211.745455 382.27954 
L 215.582708 381.12 
L 216.254545 380.916984 
L 220.763636 379.651973 
L 225.272727 378.42598 
L 227.72214 377.76 
L 229.781818 377.199987 
L 234.290909 375.973993 
L 238.8 374.748 
L 240.079912 374.4 
L 243.309091 373.522007 
L 247.818182 372.296013 
L 252.327273 371.07002 
L 252.437684 371.04 
L 256.836364 369.844027 
L 261.345455 368.618034 
L 264.803495 367.68 
L 265.854545 367.396094 
L 270.363636 366.195145 
L 274.872727 364.994196 
L 277.404065 364.32 
L 279.381818 363.793246 
L 283.890909 362.521269 
L 288.4 361.196022 
L 289.203054 360.96 
L 292.909091 359.870775 
L 297.418182 358.545528 
L 300.635295 357.6 
L 301.927273 357.22028 
L 306.436364 355.895033 
L 310.945455 354.544341 
L 311.917982 354.24 
L 315.454545 353.133275 
L 319.963636 351.722208 
L 322.654929 350.88 
L 324.472727 350.311142 
L 328.981818 348.900075 
L 333.391876 347.52 
L 333.490909 347.489009 
L 338 346.077942 
L 342.509091 344.666876 
L 344.128822 344.16 
L 347.018182 343.255809 
L 351.527273 341.844743 
L 354.865769 340.8 
L 356.036364 340.433676 
L 360.545455 339.02261 
L 365.054545 337.611543 
L 365.602715 337.44 
L 369.563636 336.200477 
L 374.072727 334.788803 
L 376.338506 334.08 
L 378.581818 333.377774 
L 383.090909 331.965143 
L 387.066469 330.72 
L 387.6 330.552791 
L 392.109091 329.139892 
L 396.618182 327.726814 
L 397.788674 327.36 
L 401.127273 326.313736 
L 405.636364 324.900658 
L 408.510337 324 
L 410.145455 323.48758 
L 414.654545 322.074502 
L 419.163636 320.661424 
L 419.232 320.64 
L 423.672727 319.252474 
L 428.181818 317.843588 
L 429.985562 317.28 
L 432.690909 316.444614 
L 437.2 315.052249 
L 440.866718 313.92 
L 441.709091 313.659883 
L 446.218182 312.267518 
L 450.727273 310.875152 
L 451.747874 310.56 
L 455.236364 309.482787 
L 459.745455 308.090421 
L 462.62903 307.2 
L 464.254545 306.698056 
L 468.763636 305.30569 
L 473.272727 303.888988 
L 473.414079 303.84 
L 477.781818 302.326266 
L 482.290909 300.763543 
L 483.109048 300.48 
L 486.8 299.200821 
L 491.309091 297.638099 
L 492.804017 297.12 
L 495.818182 296.075376 
L 500.327273 294.512654 
L 502.498986 293.76 
L 504.836364 292.949931 
L 509.345455 291.387209 
L 512.648377 290.4 
L 513.854545 290.05774 
L 518.363636 288.812267 
L 522.872727 287.566794 
L 524.779924 287.04 
L 527.381818 286.321321 
L 531.890909 285.075848 
L 536.4 283.830375 
L 536.4 283.68 
L 536.4 280.32 
L 536.4 276.96 
L 536.4 273.6 
L 536.4 270.24 
L 536.4 266.88 
L 536.4 263.52 
L 536.4 260.16 
L 536.4 256.8 
L 536.4 253.44 
L 536.4 250.08 
L 536.4 246.772926 
L 531.890909 248.063783 
L 527.381818 249.708927 
L 526.364764 250.08 
L 522.872727 251.148368 
L 518.363636 252.527898 
L 515.382368 253.44 
L 513.854545 253.862005 
L 509.345455 255.107478 
L 504.836364 256.352951 
L 503.217875 256.8 
L 500.327273 257.598424 
L 495.818182 258.843897 
L 491.309091 260.08937 
L 491.053382 260.16 
L 486.8 261.334842 
L 482.290909 262.656135 
L 479.745139 263.52 
L 477.781818 264.200431 
L 473.272727 265.763154 
L 469.718019 266.88 
L 468.763636 267.179856 
L 464.254545 268.572221 
L 459.745455 269.964587 
L 458.853545 270.24 
L 455.236364 271.356952 
L 450.727273 272.689146 
L 447.471528 273.6 
L 446.218182 273.950646 
L 441.709091 275.212147 
L 437.2 276.473647 
L 435.461588 276.96 
L 432.690909 277.735148 
L 428.181818 278.996648 
L 423.672727 280.258149 
L 423.451647 280.32 
L 419.163636 281.519649 
L 414.654545 282.78115 
L 411.441707 283.68 
L 410.145455 284.04265 
L 405.636364 285.136667 
L 401.127273 286.16369 
L 397.279881 287.04 
L 396.618182 287.190713 
L 392.109091 288.217737 
L 387.6 289.24476 
L 383.090909 290.271783 
L 382.672851 290.4 
L 378.581818 291.776177 
L 374.072727 293.358043 
L 372.926952 293.76 
L 369.563636 294.939908 
L 365.054545 296.521774 
L 363.349309 297.12 
L 360.545455 298.10364 
L 356.036364 299.685506 
L 353.771666 300.48 
L 351.527273 301.267371 
L 347.018182 302.849237 
L 344.050429 303.84 
L 342.509091 304.354565 
L 338 305.802488 
L 333.647899 307.2 
L 333.490909 307.250411 
L 328.981818 308.698335 
L 324.472727 310.146258 
L 323.184262 310.56 
L 319.963636 311.594182 
L 315.454545 313.042105 
L 312.720625 313.92 
L 310.945455 314.490028 
L 306.436364 315.937952 
L 302.256987 317.28 
L 301.927273 317.378575 
L 297.418182 318.726666 
L 292.909091 320.074757 
L 291.018467 320.64 
L 288.4 321.409582 
L 283.890909 322.734829 
L 279.405946 324 
L 279.381818 324.006806 
L 274.872727 325.207756 
L 270.363636 326.408705 
L 266.7919 327.36 
L 265.854545 327.609655 
L 261.345455 328.810604 
L 256.836364 330.011554 
L 254.176427 330.72 
L 252.327273 331.212503 
L 247.818182 332.413452 
L 243.309091 333.614402 
L 241.560954 334.08 
L 238.8 334.815351 
L 234.290909 336.02122 
L 229.781818 337.244806 
L 229.063913 337.44 
L 225.272727 338.470799 
L 220.763636 339.696793 
L 216.83129 340.8 
L 216.254545 340.961804 
L 211.745455 342.32436 
L 207.236364 343.686916 
L 205.67079 344.16 
L 202.727273 345.049471 
L 198.218182 346.412027 
L 194.55158 347.52 
L 193.709091 347.774583 
L 189.2 349.137139 
L 184.690909 350.366372 
L 182.593463 350.88 
L 180.181818 351.470569 
L 175.672727 352.574767 
L 171.163636 353.678964 
L 168.872593 354.24 
L 166.654545 354.783161 
L 162.145455 355.887358 
L 157.636364 356.991555 
L 154.90753 357.6 
L 153.127273 357.996942 
L 148.618182 358.409465 
L 144.109091 358.821989 
L 139.6 359.234512 
L 135.090909 359.647035 
L 130.581818 360.08921 
L 126.072727 360.781648 
L 124.980879 360.96 
L 121.563636 361.518204 
L 117.054545 362.25476 
L 112.545455 362.991316 
L 108.036364 363.727872 
L 104.411439 364.32 
L 103.527273 364.464428 
L 99.018182 365.200984 
L 94.509091 365.93754 
L 90 366.674096 
L 90 367.68 
L 90 371.04 
L 90 374.4 
L 90 377.76 
L 90 381.12 
L 90 384.48 
z
" clip-path="url(#pffb95a3f6f)" style="fill: #443983"/>
    <path d="M 94.509091 365.93754 
L 99.018182 365.200984 
L 103.527273 364.464428 
L 104.411439 364.32 
L 108.036364 363.727872 
L 112.545455 362.991316 
L 117.054545 362.25476 
L 121.563636 361.518204 
L 124.980879 360.96 
L 126.072727 360.781648 
L 130.581818 360.08921 
L 135.090909 359.647035 
L 139.6 359.234512 
L 144.109091 358.821989 
L 148.618182 358.409465 
L 153.127273 357.996942 
L 154.90753 357.6 
L 157.636364 356.991555 
L 162.145455 355.887358 
L 166.654545 354.783161 
L 168.872593 354.24 
L 171.163636 353.678964 
L 175.672727 352.574767 
L 180.181818 351.470569 
L 182.593463 350.88 
L 184.690909 350.366372 
L 189.2 349.137139 
L 193.709091 347.774583 
L 194.55158 347.52 
L 198.218182 346.412027 
L 202.727273 345.049471 
L 205.67079 344.16 
L 207.236364 343.686916 
L 211.745455 342.32436 
L 216.254545 340.961804 
L 216.83129 340.8 
L 220.763636 339.696793 
L 225.272727 338.470799 
L 229.063913 337.44 
L 229.781818 337.244806 
L 234.290909 336.02122 
L 238.8 334.815351 
L 241.560954 334.08 
L 243.309091 333.614402 
L 247.818182 332.413452 
L 252.327273 331.212503 
L 254.176427 330.72 
L 256.836364 330.011554 
L 261.345455 328.810604 
L 265.854545 327.609655 
L 266.7919 327.36 
L 270.363636 326.408705 
L 274.872727 325.207756 
L 279.381818 324.006806 
L 279.405946 324 
L 283.890909 322.734829 
L 288.4 321.409582 
L 291.018467 320.64 
L 292.909091 320.074757 
L 297.418182 318.726666 
L 301.927273 317.378575 
L 302.256987 317.28 
L 306.436364 315.937952 
L 310.945455 314.490028 
L 312.720625 313.92 
L 315.454545 313.042105 
L 319.963636 311.594182 
L 323.184262 310.56 
L 324.472727 310.146258 
L 328.981818 308.698335 
L 333.490909 307.250411 
L 333.647899 307.2 
L 338 305.802488 
L 342.509091 304.354565 
L 344.050429 303.84 
L 347.018182 302.849237 
L 351.527273 301.267371 
L 353.771666 300.48 
L 356.036364 299.685506 
L 360.545455 298.10364 
L 363.349309 297.12 
L 365.054545 296.521774 
L 369.563636 294.939908 
L 372.926952 293.76 
L 374.072727 293.358043 
L 378.581818 291.776177 
L 382.672851 290.4 
L 383.090909 290.271783 
L 387.6 289.24476 
L 392.109091 288.217737 
L 396.618182 287.190713 
L 397.279881 287.04 
L 401.127273 286.16369 
L 405.636364 285.136667 
L 410.145455 284.04265 
L 411.441707 283.68 
L 414.654545 282.78115 
L 419.163636 281.519649 
L 423.451647 280.32 
L 423.672727 280.258149 
L 428.181818 278.996648 
L 432.690909 277.735148 
L 435.461588 276.96 
L 437.2 276.473647 
L 441.709091 275.212147 
L 446.218182 273.950646 
L 447.471528 273.6 
L 450.727273 272.689146 
L 455.236364 271.356952 
L 458.853545 270.24 
L 459.745455 269.964587 
L 464.254545 268.572221 
L 468.763636 267.179856 
L 469.718019 266.88 
L 473.272727 265.763154 
L 477.781818 264.200431 
L 479.745139 263.52 
L 482.290909 262.656135 
L 486.8 261.334842 
L 491.053382 260.16 
L 491.309091 260.08937 
L 495.818182 258.843897 
L 500.327273 257.598424 
L 503.217875 256.8 
L 504.836364 256.352951 
L 509.345455 255.107478 
L 513.854545 253.862005 
L 515.382368 253.44 
L 518.363636 252.527898 
L 522.872727 251.148368 
L 526.364764 250.08 
L 527.381818 249.708927 
L 531.890909 248.063783 
L 536.4 246.772926 
L 536.4 246.72 
L 536.4 243.36 
L 536.4 240 
L 536.4 236.64 
L 536.4 233.28 
L 536.4 229.92 
L 536.4 226.56 
L 536.4 223.2 
L 536.4 219.84 
L 536.4 216.48 
L 536.4 213.12 
L 536.4 209.76 
L 536.4 206.4 
L 536.4 203.04 
L 536.4 202.346137 
L 533.783475 203.04 
L 531.890909 203.54188 
L 527.381818 204.737622 
L 522.872727 205.933364 
L 521.113063 206.4 
L 518.363636 207.129106 
L 513.854545 208.324848 
L 509.345455 209.52059 
L 508.442652 209.76 
L 504.836364 210.716333 
L 500.327273 211.912075 
L 496.649923 213.12 
L 495.818182 213.414019 
L 491.309091 215.059163 
L 487.414792 216.48 
L 486.8 216.704307 
L 482.290909 218.349451 
L 478.205541 219.84 
L 477.781818 219.994595 
L 473.272727 221.639739 
L 468.763636 223.179178 
L 468.701942 223.2 
L 464.254545 224.701 
L 459.745455 226.222821 
L 458.746407 226.56 
L 455.236364 227.744642 
L 450.727273 229.266463 
L 448.790871 229.92 
L 446.218182 230.788284 
L 441.709091 232.310106 
L 438.835336 233.28 
L 437.2 233.831927 
L 432.690909 235.353748 
L 428.8798 236.64 
L 428.181818 236.875569 
L 423.672727 238.397391 
L 419.163636 239.878932 
L 418.759724 240 
L 414.654545 241.230481 
L 410.145455 242.582031 
L 406.999193 243.36 
L 405.636364 243.696984 
L 401.127273 244.804816 
L 396.618182 246.194229 
L 394.911888 246.72 
L 392.109091 247.583643 
L 387.6 248.973056 
L 384.007612 250.08 
L 383.090909 250.313116 
L 378.581818 251.459768 
L 374.072727 252.60642 
L 370.794761 253.44 
L 369.563636 253.72041 
L 365.054545 254.747433 
L 360.545455 255.774456 
L 356.04286 256.8 
L 356.036364 256.80148 
L 351.527273 257.88602 
L 347.018182 259.379824 
L 344.681226 260.16 
L 342.509091 260.885151 
L 338 262.333075 
L 334.303704 263.52 
L 333.490909 263.780998 
L 328.981818 264.942207 
L 324.472727 266.078431 
L 321.291709 266.88 
L 319.963636 267.214655 
L 315.454545 268.350878 
L 310.945455 269.487102 
L 307.957587 270.24 
L 306.436364 270.623326 
L 301.927273 271.759549 
L 297.418182 272.895773 
L 294.623466 273.6 
L 292.909091 274.031997 
L 288.4 275.168221 
L 283.890909 276.304444 
L 281.194734 276.96 
L 279.381818 277.400797 
L 274.872727 278.443989 
L 270.363636 279.487181 
L 266.763859 280.32 
L 265.854545 280.530372 
L 261.345455 281.573564 
L 256.836364 282.616756 
L 252.327273 283.659947 
L 252.24504 283.68 
L 247.818182 284.858331 
L 243.309091 286.427683 
L 241.54977 287.04 
L 238.8 287.997035 
L 234.290909 289.566387 
L 231.895758 290.4 
L 229.781818 291.135739 
L 225.272727 292.705092 
L 222.241745 293.76 
L 220.763636 294.274444 
L 216.254545 295.776468 
L 211.745455 297.110173 
L 211.712231 297.12 
L 207.236364 298.443878 
L 202.727273 299.777583 
L 200.352489 300.48 
L 198.218182 301.111288 
L 193.709091 302.444993 
L 189.2 303.778698 
L 188.992747 303.84 
L 184.690909 305.112403 
L 180.181818 306.446108 
L 177.633005 307.2 
L 175.672727 307.779814 
L 171.163636 309.113519 
L 166.654545 310.447224 
L 166.273263 310.56 
L 162.145455 311.780929 
L 157.636364 313.089588 
L 154.246462 313.92 
L 153.127273 314.194164 
L 148.618182 314.620232 
L 144.109091 315.15151 
L 139.6 315.682789 
L 135.090909 316.214067 
L 130.581818 316.745346 
L 126.072727 317.276624 
L 126.044075 317.28 
L 121.563636 317.709084 
L 117.054545 318.140913 
L 112.545455 318.572741 
L 108.036364 319.00457 
L 103.527273 319.436398 
L 99.018182 319.868227 
L 94.509091 320.300055 
L 91.951858 320.64 
L 90 320.903568 
L 90 324 
L 90 327.36 
L 90 330.72 
L 90 334.08 
L 90 337.44 
L 90 340.8 
L 90 344.16 
L 90 347.52 
L 90 350.88 
L 90 354.24 
L 90 357.6 
L 90 360.96 
L 90 364.32 
L 90 366.674096 
z
" clip-path="url(#pffb95a3f6f)" style="fill: #375a8c"/>
    <path d="M 91.951858 320.64 
L 94.509091 320.300055 
L 99.018182 319.868227 
L 103.527273 319.436398 
L 108.036364 319.00457 
L 112.545455 318.572741 
L 117.054545 318.140913 
L 121.563636 317.709084 
L 126.044075 317.28 
L 126.072727 317.276624 
L 130.581818 316.745346 
L 135.090909 316.214067 
L 139.6 315.682789 
L 144.109091 315.15151 
L 148.618182 314.620232 
L 153.127273 314.194164 
L 154.246462 313.92 
L 157.636364 313.089588 
L 162.145455 311.780929 
L 166.273263 310.56 
L 166.654545 310.447224 
L 171.163636 309.113519 
L 175.672727 307.779814 
L 177.633005 307.2 
L 180.181818 306.446108 
L 184.690909 305.112403 
L 188.992747 303.84 
L 189.2 303.778698 
L 193.709091 302.444993 
L 198.218182 301.111288 
L 200.352489 300.48 
L 202.727273 299.777583 
L 207.236364 298.443878 
L 211.712231 297.12 
L 211.745455 297.110173 
L 216.254545 295.776468 
L 220.763636 294.274444 
L 222.241745 293.76 
L 225.272727 292.705092 
L 229.781818 291.135739 
L 231.895758 290.4 
L 234.290909 289.566387 
L 238.8 287.997035 
L 241.54977 287.04 
L 243.309091 286.427683 
L 247.818182 284.858331 
L 252.24504 283.68 
L 252.327273 283.659947 
L 256.836364 282.616756 
L 261.345455 281.573564 
L 265.854545 280.530372 
L 266.763859 280.32 
L 270.363636 279.487181 
L 274.872727 278.443989 
L 279.381818 277.400797 
L 281.194734 276.96 
L 283.890909 276.304444 
L 288.4 275.168221 
L 292.909091 274.031997 
L 294.623466 273.6 
L 297.418182 272.895773 
L 301.927273 271.759549 
L 306.436364 270.623326 
L 307.957587 270.24 
L 310.945455 269.487102 
L 315.454545 268.350878 
L 319.963636 267.214655 
L 321.291709 266.88 
L 324.472727 266.078431 
L 328.981818 264.942207 
L 333.490909 263.780998 
L 334.303704 263.52 
L 338 262.333075 
L 342.509091 260.885151 
L 344.681226 260.16 
L 347.018182 259.379824 
L 351.527273 257.88602 
L 356.036364 256.80148 
L 356.04286 256.8 
L 360.545455 255.774456 
L 365.054545 254.747433 
L 369.563636 253.72041 
L 370.794761 253.44 
L 374.072727 252.60642 
L 378.581818 251.459768 
L 383.090909 250.313116 
L 384.007612 250.08 
L 387.6 248.973056 
L 392.109091 247.583643 
L 394.911888 246.72 
L 396.618182 246.194229 
L 401.127273 244.804816 
L 405.636364 243.696984 
L 406.999193 243.36 
L 410.145455 242.582031 
L 414.654545 241.230481 
L 418.759724 240 
L 419.163636 239.878932 
L 423.672727 238.397391 
L 428.181818 236.875569 
L 428.8798 236.64 
L 432.690909 235.353748 
L 437.2 233.831927 
L 438.835336 233.28 
L 441.709091 232.310106 
L 446.218182 230.788284 
L 448.790871 229.92 
L 450.727273 229.266463 
L 455.236364 227.744642 
L 458.746407 226.56 
L 459.745455 226.222821 
L 464.254545 224.701 
L 468.701942 223.2 
L 468.763636 223.179178 
L 473.272727 221.639739 
L 477.781818 219.994595 
L 478.205541 219.84 
L 482.290909 218.349451 
L 486.8 216.704307 
L 487.414792 216.48 
L 491.309091 215.059163 
L 495.818182 213.414019 
L 496.649923 213.12 
L 500.327273 211.912075 
L 504.836364 210.716333 
L 508.442652 209.76 
L 509.345455 209.52059 
L 513.854545 208.324848 
L 518.363636 207.129106 
L 521.113063 206.4 
L 522.872727 205.933364 
L 527.381818 204.737622 
L 531.890909 203.54188 
L 533.783475 203.04 
L 536.4 202.346137 
L 536.4 199.68 
L 536.4 196.32 
L 536.4 192.96 
L 536.4 189.6 
L 536.4 186.24 
L 536.4 182.88 
L 536.4 179.52 
L 536.4 176.16 
L 536.4 172.8 
L 536.4 169.44 
L 536.4 166.08 
L 536.4 162.72 
L 536.4 159.36 
L 536.4 156 
L 536.4 152.64 
L 536.4 152.56519 
L 536.164612 152.64 
L 531.890909 153.998255 
L 527.381818 155.431321 
L 525.59249 156 
L 522.872727 156.864387 
L 518.363636 158.297453 
L 515.020368 159.36 
L 513.854545 159.730518 
L 509.345455 161.163584 
L 504.836364 162.59665 
L 504.448246 162.72 
L 500.327273 164.029715 
L 495.818182 165.462781 
L 493.876124 166.08 
L 491.309091 166.895847 
L 486.8 168.18896 
L 482.290909 169.365294 
L 482.004549 169.44 
L 477.781818 170.541629 
L 473.272727 171.717963 
L 469.247991 172.8 
L 468.763636 172.930217 
L 464.254545 174.148458 
L 459.745455 175.654636 
L 458.367981 176.16 
L 455.236364 177.30892 
L 450.727273 178.963203 
L 449.209608 179.52 
L 446.218182 180.617487 
L 441.709091 182.27177 
L 440.051235 182.88 
L 437.2 183.840038 
L 432.690909 185.358292 
L 430.072307 186.24 
L 428.181818 186.806653 
L 423.672727 188.158202 
L 419.163636 189.509752 
L 418.862546 189.6 
L 414.654545 190.861301 
L 410.145455 192.21285 
L 407.123835 192.96 
L 405.636364 193.327804 
L 401.127273 194.348119 
L 396.618182 195.368434 
L 392.412912 196.32 
L 392.109091 196.388748 
L 387.6 197.409063 
L 383.090909 198.429378 
L 378.581818 199.449693 
L 377.56402 199.68 
L 374.072727 200.470008 
L 369.563636 201.490323 
L 365.054545 202.510638 
L 362.965192 203.04 
L 360.545455 203.692599 
L 356.036364 205.082012 
L 351.75907 206.4 
L 351.527273 206.471425 
L 347.018182 207.860838 
L 342.509091 209.187173 
L 340.489639 209.76 
L 338 210.466198 
L 333.490909 211.745223 
L 328.981818 213.024248 
L 328.644253 213.12 
L 324.472727 214.303273 
L 319.963636 215.582298 
L 316.798868 216.48 
L 315.454545 216.861324 
L 310.945455 218.054107 
L 306.436364 219.208588 
L 303.970241 219.84 
L 301.927273 220.363069 
L 297.418182 221.517551 
L 292.909091 222.672032 
L 290.84699 223.2 
L 288.4 223.826513 
L 283.890909 224.980994 
L 279.381818 226.16227 
L 277.908197 226.56 
L 274.872727 227.379272 
L 270.363636 228.596275 
L 265.854545 229.813277 
L 265.459129 229.92 
L 261.345455 231.03028 
L 256.836364 232.247282 
L 253.010061 233.28 
L 252.327273 233.464284 
L 247.818182 234.681287 
L 243.309091 235.898289 
L 240.560993 236.64 
L 238.8 237.115292 
L 234.290909 238.332294 
L 229.781818 239.541629 
L 227.972666 240 
L 225.272727 240.691911 
L 220.763636 241.808906 
L 216.254545 242.866897 
L 213.812488 243.36 
L 211.745455 243.792069 
L 207.236364 245.060918 
L 202.727273 246.492963 
L 202.0124 246.72 
L 198.218182 247.925008 
L 193.709091 249.357054 
L 191.432745 250.08 
L 189.2 250.725112 
L 184.690909 252.027934 
L 180.181818 253.330755 
L 179.80372 253.44 
L 175.672727 254.565848 
L 171.163636 255.794742 
L 167.475115 256.8 
L 166.654545 257.023636 
L 162.145455 258.252529 
L 157.636364 259.481423 
L 154.866283 260.16 
L 153.127273 260.585999 
L 148.618182 260.944668 
L 144.109091 261.303336 
L 139.6 261.662005 
L 135.090909 262.020674 
L 130.581818 262.379342 
L 126.072727 262.738011 
L 121.563636 263.09668 
L 117.054545 263.455348 
L 116.241762 263.52 
L 112.545455 263.814017 
L 108.036364 264.172686 
L 103.527273 264.544871 
L 99.018182 265.02838 
L 94.509091 265.559658 
L 90 266.090937 
L 90 266.88 
L 90 270.24 
L 90 273.6 
L 90 276.96 
L 90 280.32 
L 90 283.68 
L 90 287.04 
L 90 290.4 
L 90 293.76 
L 90 297.12 
L 90 300.48 
L 90 303.84 
L 90 307.2 
L 90 310.56 
L 90 313.92 
L 90 317.28 
L 90 320.64 
L 90 320.903568 
z
" clip-path="url(#pffb95a3f6f)" style="fill: #2b758e"/>
    <path d="M 94.509091 265.559658 
L 99.018182 265.02838 
L 103.527273 264.544871 
L 108.036364 264.172686 
L 112.545455 263.814017 
L 116.241762 263.52 
L 117.054545 263.455348 
L 121.563636 263.09668 
L 126.072727 262.738011 
L 130.581818 262.379342 
L 135.090909 262.020674 
L 139.6 261.662005 
L 144.109091 261.303336 
L 148.618182 260.944668 
L 153.127273 260.585999 
L 154.866283 260.16 
L 157.636364 259.481423 
L 162.145455 258.252529 
L 166.654545 257.023636 
L 167.475115 256.8 
L 171.163636 255.794742 
L 175.672727 254.565848 
L 179.80372 253.44 
L 180.181818 253.330755 
L 184.690909 252.027934 
L 189.2 250.725112 
L 191.432745 250.08 
L 193.709091 249.357054 
L 198.218182 247.925008 
L 202.0124 246.72 
L 202.727273 246.492963 
L 207.236364 245.060918 
L 211.745455 243.792069 
L 213.812488 243.36 
L 216.254545 242.866897 
L 220.763636 241.808906 
L 225.272727 240.691911 
L 227.972666 240 
L 229.781818 239.541629 
L 234.290909 238.332294 
L 238.8 237.115292 
L 240.560993 236.64 
L 243.309091 235.898289 
L 247.818182 234.681287 
L 252.327273 233.464284 
L 253.010061 233.28 
L 256.836364 232.247282 
L 261.345455 231.03028 
L 265.459129 229.92 
L 265.854545 229.813277 
L 270.363636 228.596275 
L 274.872727 227.379272 
L 277.908197 226.56 
L 279.381818 226.16227 
L 283.890909 224.980994 
L 288.4 223.826513 
L 290.84699 223.2 
L 292.909091 222.672032 
L 297.418182 221.517551 
L 301.927273 220.363069 
L 303.970241 219.84 
L 306.436364 219.208588 
L 310.945455 218.054107 
L 315.454545 216.861324 
L 316.798868 216.48 
L 319.963636 215.582298 
L 324.472727 214.303273 
L 328.644253 213.12 
L 328.981818 213.024248 
L 333.490909 211.745223 
L 338 210.466198 
L 340.489639 209.76 
L 342.509091 209.187173 
L 347.018182 207.860838 
L 351.527273 206.471425 
L 351.75907 206.4 
L 356.036364 205.082012 
L 360.545455 203.692599 
L 362.965192 203.04 
L 365.054545 202.510638 
L 369.563636 201.490323 
L 374.072727 200.470008 
L 377.56402 199.68 
L 378.581818 199.449693 
L 383.090909 198.429378 
L 387.6 197.409063 
L 392.109091 196.388748 
L 392.412912 196.32 
L 396.618182 195.368434 
L 401.127273 194.348119 
L 405.636364 193.327804 
L 407.123835 192.96 
L 410.145455 192.21285 
L 414.654545 190.861301 
L 418.862546 189.6 
L 419.163636 189.509752 
L 423.672727 188.158202 
L 428.181818 186.806653 
L 430.072307 186.24 
L 432.690909 185.358292 
L 437.2 183.840038 
L 440.051235 182.88 
L 441.709091 182.27177 
L 446.218182 180.617487 
L 449.209608 179.52 
L 450.727273 178.963203 
L 455.236364 177.30892 
L 458.367981 176.16 
L 459.745455 175.654636 
L 464.254545 174.148458 
L 468.763636 172.930217 
L 469.247991 172.8 
L 473.272727 171.717963 
L 477.781818 170.541629 
L 482.004549 169.44 
L 482.290909 169.365294 
L 486.8 168.18896 
L 491.309091 166.895847 
L 493.876124 166.08 
L 495.818182 165.462781 
L 500.327273 164.029715 
L 504.448246 162.72 
L 504.836364 162.59665 
L 509.345455 161.163584 
L 513.854545 159.730518 
L 515.020368 159.36 
L 518.363636 158.297453 
L 522.872727 156.864387 
L 525.59249 156 
L 527.381818 155.431321 
L 531.890909 153.998255 
L 536.164612 152.64 
L 536.4 152.56519 
L 536.4 149.28 
L 536.4 145.92 
L 536.4 142.56 
L 536.4 139.2 
L 536.4 135.84 
L 536.4 132.48 
L 536.4 129.12 
L 536.4 125.76 
L 536.4 122.4 
L 536.4 119.04 
L 536.4 115.68 
L 536.4 112.32 
L 536.4 108.96 
L 536.4 105.6 
L 536.4 102.24 
L 536.4 98.88 
L 536.4 95.52 
L 536.4 94.882721 
L 534.26333 95.52 
L 531.890909 96.227593 
L 527.381818 97.572464 
L 522.997907 98.88 
L 522.872727 98.917336 
L 518.363636 100.262207 
L 513.854545 101.607079 
L 511.732484 102.24 
L 509.345455 102.95195 
L 504.836364 104.296822 
L 500.467062 105.6 
L 500.327273 105.641693 
L 495.818182 106.986565 
L 491.309091 108.331436 
L 489.201639 108.96 
L 486.8 109.676307 
L 482.290909 111.021179 
L 477.901894 112.32 
L 477.781818 112.355645 
L 473.272727 113.647564 
L 468.763636 114.734628 
L 465.872848 115.68 
L 464.254545 116.213783 
L 459.745455 117.701068 
L 455.686136 119.04 
L 455.236364 119.161517 
L 450.727273 120.379758 
L 446.218182 121.597999 
L 443.249725 122.4 
L 441.709091 122.81624 
L 437.2 124.034481 
L 432.690909 125.252722 
L 430.813315 125.76 
L 428.181818 126.470963 
L 423.672727 127.689204 
L 419.163636 128.907445 
L 418.541617 129.12 
L 414.654545 130.546079 
L 410.145455 132.200362 
L 409.221501 132.48 
L 405.636364 133.565054 
L 401.127273 134.81391 
L 397.422494 135.84 
L 396.618182 136.062766 
L 392.109091 137.311621 
L 387.6 138.482142 
L 384.690187 139.2 
L 383.090909 139.594545 
L 378.581818 140.706948 
L 374.072727 141.819352 
L 371.070532 142.56 
L 369.563636 142.931755 
L 365.054545 144.044158 
L 360.545455 145.156561 
L 357.450877 145.92 
L 356.036364 146.268964 
L 351.527273 147.381367 
L 347.018182 148.49377 
L 343.448692 149.28 
L 342.509091 149.48696 
L 338 150.390741 
L 333.490909 151.294522 
L 328.981818 152.198303 
L 326.778127 152.64 
L 324.472727 153.102083 
L 319.963636 154.005864 
L 315.454545 155.040609 
L 312.382807 156 
L 310.945455 156.466886 
L 306.436364 157.931546 
L 302.038738 159.36 
L 301.927273 159.396206 
L 297.418182 160.860867 
L 292.909091 162.325527 
L 291.694668 162.72 
L 288.4 163.790187 
L 283.890909 165.254847 
L 281.284188 166.08 
L 279.381818 166.682192 
L 274.872727 168.059785 
L 270.363636 169.437377 
L 270.35505 169.44 
L 265.854545 170.814969 
L 261.345455 172.192562 
L 259.357207 172.8 
L 256.836364 173.570154 
L 252.327273 174.947746 
L 248.359363 176.16 
L 247.818182 176.325339 
L 243.309091 177.702931 
L 238.8 179.080523 
L 237.361519 179.52 
L 234.290909 180.458116 
L 229.781818 181.835708 
L 226.363676 182.88 
L 225.272727 183.184851 
L 220.763636 184.444859 
L 216.254545 185.625201 
L 213.612926 186.24 
L 211.745455 186.617082 
L 207.236364 187.527564 
L 202.727273 188.438046 
L 198.218182 189.348527 
L 196.972783 189.6 
L 193.709091 190.259009 
L 189.2 191.169491 
L 184.690909 192.079973 
L 180.33264 192.96 
L 180.181818 192.990454 
L 175.672727 193.900936 
L 171.163636 194.811418 
L 166.654545 195.721899 
L 164.286695 196.32 
L 162.145455 196.911105 
L 157.636364 198.34315 
L 153.127273 199.630326 
L 152.591377 199.68 
L 148.618182 200.048287 
L 144.109091 200.466248 
L 139.6 200.88421 
L 135.090909 201.093196 
L 130.581818 201.220527 
L 126.072727 201.347858 
L 121.563636 201.475188 
L 117.054545 201.602519 
L 112.545455 201.72985 
L 108.036364 201.857181 
L 103.527273 201.984511 
L 99.018182 202.111842 
L 94.509091 202.239173 
L 90 202.366504 
L 90 203.04 
L 90 206.4 
L 90 209.76 
L 90 213.12 
L 90 216.48 
L 90 219.84 
L 90 223.2 
L 90 226.56 
L 90 229.92 
L 90 233.28 
L 90 236.64 
L 90 240 
L 90 243.36 
L 90 246.72 
L 90 250.08 
L 90 253.44 
L 90 256.8 
L 90 260.16 
L 90 263.52 
L 90 266.090937 
z
" clip-path="url(#pffb95a3f6f)" style="fill: #21918c"/>
    <path d="M 94.509091 202.239173 
L 99.018182 202.111842 
L 103.527273 201.984511 
L 108.036364 201.857181 
L 112.545455 201.72985 
L 117.054545 201.602519 
L 121.563636 201.475188 
L 126.072727 201.347858 
L 130.581818 201.220527 
L 135.090909 201.093196 
L 139.6 200.88421 
L 144.109091 200.466248 
L 148.618182 200.048287 
L 152.591377 199.68 
L 153.127273 199.630326 
L 157.636364 198.34315 
L 162.145455 196.911105 
L 164.286695 196.32 
L 166.654545 195.721899 
L 171.163636 194.811418 
L 175.672727 193.900936 
L 180.181818 192.990454 
L 180.33264 192.96 
L 184.690909 192.079973 
L 189.2 191.169491 
L 193.709091 190.259009 
L 196.972783 189.6 
L 198.218182 189.348527 
L 202.727273 188.438046 
L 207.236364 187.527564 
L 211.745455 186.617082 
L 213.612926 186.24 
L 216.254545 185.625201 
L 220.763636 184.444859 
L 225.272727 183.184851 
L 226.363676 182.88 
L 229.781818 181.835708 
L 234.290909 180.458116 
L 237.361519 179.52 
L 238.8 179.080523 
L 243.309091 177.702931 
L 247.818182 176.325339 
L 248.359363 176.16 
L 252.327273 174.947746 
L 256.836364 173.570154 
L 259.357207 172.8 
L 261.345455 172.192562 
L 265.854545 170.814969 
L 270.35505 169.44 
L 270.363636 169.437377 
L 274.872727 168.059785 
L 279.381818 166.682192 
L 281.284188 166.08 
L 283.890909 165.254847 
L 288.4 163.790187 
L 291.694668 162.72 
L 292.909091 162.325527 
L 297.418182 160.860867 
L 301.927273 159.396206 
L 302.038738 159.36 
L 306.436364 157.931546 
L 310.945455 156.466886 
L 312.382807 156 
L 315.454545 155.040609 
L 319.963636 154.005864 
L 324.472727 153.102083 
L 326.778127 152.64 
L 328.981818 152.198303 
L 333.490909 151.294522 
L 338 150.390741 
L 342.509091 149.48696 
L 343.448692 149.28 
L 347.018182 148.49377 
L 351.527273 147.381367 
L 356.036364 146.268964 
L 357.450877 145.92 
L 360.545455 145.156561 
L 365.054545 144.044158 
L 369.563636 142.931755 
L 371.070532 142.56 
L 374.072727 141.819352 
L 378.581818 140.706948 
L 383.090909 139.594545 
L 384.690187 139.2 
L 387.6 138.482142 
L 392.109091 137.311621 
L 396.618182 136.062766 
L 397.422494 135.84 
L 401.127273 134.81391 
L 405.636364 133.565054 
L 409.221501 132.48 
L 410.145455 132.200362 
L 414.654545 130.546079 
L 418.541617 129.12 
L 419.163636 128.907445 
L 423.672727 127.689204 
L 428.181818 126.470963 
L 430.813315 125.76 
L 432.690909 125.252722 
L 437.2 124.034481 
L 441.709091 122.81624 
L 443.249725 122.4 
L 446.218182 121.597999 
L 450.727273 120.379758 
L 455.236364 119.161517 
L 455.686136 119.04 
L 459.745455 117.701068 
L 464.254545 116.213783 
L 465.872848 115.68 
L 468.763636 114.734628 
L 473.272727 113.647564 
L 477.781818 112.355645 
L 477.901894 112.32 
L 482.290909 111.021179 
L 486.8 109.676307 
L 489.201639 108.96 
L 491.309091 108.331436 
L 495.818182 106.986565 
L 500.327273 105.641693 
L 500.467062 105.6 
L 504.836364 104.296822 
L 509.345455 102.95195 
L 511.732484 102.24 
L 513.854545 101.607079 
L 518.363636 100.262207 
L 522.872727 98.917336 
L 522.997907 98.88 
L 527.381818 97.572464 
L 531.890909 96.227593 
L 534.26333 95.52 
L 536.4 94.882721 
L 536.4 92.16 
L 536.4 88.8 
L 536.4 85.44 
L 536.4 82.08 
L 536.4 78.72 
L 536.4 75.36 
L 536.4 72 
L 536.4 68.64 
L 536.4 65.28 
L 536.4 61.92 
L 536.4 58.56 
L 536.4 55.2 
L 536.4 51.84 
L 531.890909 51.84 
L 527.381818 51.84 
L 522.872727 51.84 
L 518.363636 51.84 
L 513.854545 51.84 
L 509.345455 51.84 
L 504.836364 51.84 
L 500.327273 51.84 
L 495.818182 51.84 
L 491.309091 51.84 
L 486.8 51.84 
L 482.290909 51.84 
L 477.781818 51.84 
L 473.272727 51.84 
L 468.763636 51.84 
L 464.254545 51.84 
L 459.745455 51.84 
L 455.236364 51.84 
L 450.727273 51.84 
L 450.047412 51.84 
L 446.218182 52.637411 
L 441.709091 53.576399 
L 437.2 54.515387 
L 433.912436 55.2 
L 432.690909 55.454375 
L 428.181818 56.393363 
L 423.672727 57.33235 
L 419.163636 58.271338 
L 417.871055 58.56 
L 414.654545 59.359176 
L 410.145455 60.933375 
L 406.897614 61.92 
L 405.636364 62.303141 
L 401.127273 63.591134 
L 396.618182 64.856288 
L 394.839651 65.28 
L 392.109091 65.93992 
L 387.6 66.981126 
L 383.090909 68.022332 
L 380.416009 68.64 
L 378.581818 69.063538 
L 374.072727 70.104744 
L 369.563636 71.14595 
L 365.86505 72 
L 365.054545 72.187156 
L 360.545455 73.228362 
L 356.036364 74.269568 
L 351.527273 75.310773 
L 351.31409 75.36 
L 347.018182 76.351979 
L 342.509091 77.439376 
L 338 78.561415 
L 337.362703 78.72 
L 333.490909 79.683455 
L 328.981818 80.805494 
L 324.472727 81.927534 
L 323.860017 82.08 
L 319.963636 83.049573 
L 315.454545 84.172095 
L 310.945455 85.297761 
L 310.37729 85.44 
L 306.436364 86.426606 
L 301.927273 87.555452 
L 297.418182 88.684297 
L 296.956016 88.8 
L 292.909091 89.813143 
L 288.4 90.941989 
L 283.890909 92.070834 
L 283.47662 92.16 
L 279.381818 93.041308 
L 274.872727 93.80062 
L 270.363636 94.559931 
L 265.854545 95.319243 
L 264.662371 95.52 
L 261.345455 96.107882 
L 256.836364 97.408646 
L 252.521984 98.88 
L 252.327273 98.946403 
L 247.818182 100.48416 
L 243.309091 102.021918 
L 242.669618 102.24 
L 238.8 103.559675 
L 234.290909 105.097432 
L 232.817253 105.6 
L 229.781818 106.635189 
L 225.272727 108.172946 
L 222.964888 108.96 
L 220.763636 109.710703 
L 216.254545 111.054197 
L 211.745455 111.912031 
L 210.083778 112.32 
L 207.236364 113.058197 
L 202.727273 114.227187 
L 198.218182 115.396177 
L 197.123406 115.68 
L 193.709091 116.526193 
L 189.2 117.643712 
L 184.690909 118.761231 
L 183.566102 119.04 
L 180.181818 119.75315 
L 175.672727 120.703323 
L 171.163636 121.653497 
L 167.621074 122.4 
L 166.654545 122.603671 
L 162.145455 123.553844 
L 157.636364 124.504018 
L 153.127273 125.318453 
L 148.618182 125.318453 
L 144.109091 125.318453 
L 139.6 125.318453 
L 135.090909 125.318453 
L 130.581818 125.318453 
L 126.072727 125.318453 
L 121.563636 125.318453 
L 117.054545 125.318453 
L 112.545455 125.318453 
L 108.036364 125.318453 
L 103.527273 125.318453 
L 99.018182 125.318453 
L 94.509091 125.394141 
L 90 125.545243 
L 90 125.76 
L 90 129.12 
L 90 132.48 
L 90 135.84 
L 90 139.2 
L 90 142.56 
L 90 145.92 
L 90 149.28 
L 90 152.64 
L 90 156 
L 90 159.36 
L 90 162.72 
L 90 166.08 
L 90 169.44 
L 90 172.8 
L 90 176.16 
L 90 179.52 
L 90 182.88 
L 90 186.24 
L 90 189.6 
L 90 192.96 
L 90 196.32 
L 90 199.68 
L 90 202.366504 
z
" clip-path="url(#pffb95a3f6f)" style="fill: #25ab82"/>
    <path d="M 94.509091 125.394141 
L 99.018182 125.318453 
L 103.527273 125.318453 
L 108.036364 125.318453 
L 112.545455 125.318453 
L 117.054545 125.318453 
L 121.563636 125.318453 
L 126.072727 125.318453 
L 130.581818 125.318453 
L 135.090909 125.318453 
L 139.6 125.318453 
L 144.109091 125.318453 
L 148.618182 125.318453 
L 153.127273 125.318453 
L 157.636364 124.504018 
L 162.145455 123.553844 
L 166.654545 122.603671 
L 167.621074 122.4 
L 171.163636 121.653497 
L 175.672727 120.703323 
L 180.181818 119.75315 
L 183.566102 119.04 
L 184.690909 118.761231 
L 189.2 117.643712 
L 193.709091 116.526193 
L 197.123406 115.68 
L 198.218182 115.396177 
L 202.727273 114.227187 
L 207.236364 113.058197 
L 210.083778 112.32 
L 211.745455 111.912031 
L 216.254545 111.054197 
L 220.763636 109.710703 
L 222.964888 108.96 
L 225.272727 108.172946 
L 229.781818 106.635189 
L 232.817253 105.6 
L 234.290909 105.097432 
L 238.8 103.559675 
L 242.669618 102.24 
L 243.309091 102.021918 
L 247.818182 100.48416 
L 252.327273 98.946403 
L 252.521984 98.88 
L 256.836364 97.408646 
L 261.345455 96.107882 
L 264.662371 95.52 
L 265.854545 95.319243 
L 270.363636 94.559931 
L 274.872727 93.80062 
L 279.381818 93.041308 
L 283.47662 92.16 
L 283.890909 92.070834 
L 288.4 90.941989 
L 292.909091 89.813143 
L 296.956016 88.8 
L 297.418182 88.684297 
L 301.927273 87.555452 
L 306.436364 86.426606 
L 310.37729 85.44 
L 310.945455 85.297761 
L 315.454545 84.172095 
L 319.963636 83.049573 
L 323.860017 82.08 
L 324.472727 81.927534 
L 328.981818 80.805494 
L 333.490909 79.683455 
L 337.362703 78.72 
L 338 78.561415 
L 342.509091 77.439376 
L 347.018182 76.351979 
L 351.31409 75.36 
L 351.527273 75.310773 
L 356.036364 74.269568 
L 360.545455 73.228362 
L 365.054545 72.187156 
L 365.86505 72 
L 369.563636 71.14595 
L 374.072727 70.104744 
L 378.581818 69.063538 
L 380.416009 68.64 
L 383.090909 68.022332 
L 387.6 66.981126 
L 392.109091 65.93992 
L 394.839651 65.28 
L 396.618182 64.856288 
L 401.127273 63.591134 
L 405.636364 62.303141 
L 406.897614 61.92 
L 410.145455 60.933375 
L 414.654545 59.359176 
L 417.871055 58.56 
L 419.163636 58.271338 
L 423.672727 57.33235 
L 428.181818 56.393363 
L 432.690909 55.454375 
L 433.912436 55.2 
L 437.2 54.515387 
L 441.709091 53.576399 
L 446.218182 52.637411 
L 450.047412 51.84 
L 446.218182 51.84 
L 441.709091 51.84 
L 437.2 51.84 
L 432.690909 51.84 
L 428.181818 51.84 
L 423.672727 51.84 
L 419.163636 51.84 
L 414.654545 51.84 
L 410.145455 51.84 
L 405.636364 51.84 
L 401.127273 51.84 
L 396.618182 51.84 
L 392.109091 51.84 
L 387.6 51.84 
L 383.090909 51.84 
L 378.581818 51.84 
L 374.072727 51.84 
L 369.563636 51.84 
L 365.054545 51.84 
L 360.545455 51.84 
L 356.036364 51.84 
L 351.527273 51.84 
L 347.018182 51.84 
L 342.509091 51.84 
L 338 51.84 
L 333.490909 51.84 
L 328.981818 51.84 
L 324.472727 51.84 
L 319.963636 51.84 
L 315.454545 51.84 
L 310.945455 51.84 
L 306.436364 51.84 
L 301.927273 51.84 
L 297.418182 51.84 
L 292.909091 51.84 
L 288.4 51.84 
L 283.890909 51.84 
L 279.381818 51.84 
L 274.872727 51.84 
L 270.363636 51.84 
L 265.854545 51.84 
L 261.345455 51.84 
L 256.836364 51.84 
L 252.327273 51.84 
L 247.818182 51.84 
L 243.309091 51.84 
L 238.8 51.84 
L 234.290909 51.84 
L 229.781818 51.84 
L 225.272727 51.84 
L 220.763636 51.84 
L 216.254545 51.84 
L 211.745455 51.84 
L 207.236364 51.84 
L 202.727273 51.84 
L 198.218182 51.84 
L 193.709091 51.84 
L 189.2 51.84 
L 184.690909 51.84 
L 180.181818 51.84 
L 175.672727 51.84 
L 171.163636 51.84 
L 166.654545 51.84 
L 162.145455 51.84 
L 157.636364 51.84 
L 153.127273 51.84 
L 148.618182 51.84 
L 144.109091 51.84 
L 139.6 51.84 
L 135.090909 51.84 
L 130.581818 51.84 
L 126.072727 51.84 
L 121.563636 51.84 
L 117.054545 51.84 
L 112.545455 51.84 
L 108.036364 51.84 
L 103.527273 51.84 
L 99.018182 51.84 
L 94.509091 51.84 
L 90 51.84 
L 90 55.2 
L 90 58.56 
L 90 61.92 
L 90 65.28 
L 90 68.64 
L 90 72 
L 90 75.36 
L 90 78.72 
L 90 82.08 
L 90 85.44 
L 90 88.8 
L 90 92.16 
L 90 95.52 
L 90 98.88 
L 90 102.24 
L 90 105.6 
L 90 108.96 
L 90 112.32 
L 90 115.68 
L 90 119.04 
L 90 122.4 
L 90 125.545243 
z
" clip-path="url(#pffb95a3f6f)" style="fill: #4ec36b"/>
    <path clip-path="url(#pffb95a3f6f)" style="fill: #90d743"/>
    <path clip-path="url(#pffb95a3f6f)" style="fill: #dae319"/>
   </g>
   <g id="matplotlib.axis_1">
    <g id="xtick_1">
     <g id="line2d_1">
      <path d="M 121.885714 384.48 
L 121.885714 51.84 
" clip-path="url(#pffb95a3f6f)" style="fill: none; stroke: #b0b0b0; stroke-width: 0.8; stroke-linecap: square"/>
     </g>
     <g id="line2d_2">
      <defs>
       <path id="m1588496a4b" d="M 0 0 
L 0 3.5 
" style="stroke: #000000; stroke-width: 0.8"/>
      </defs>
      <g>
       <use xlink:href="#m1588496a4b" x="121.885714" y="384.48" style="stroke: #000000; stroke-width: 0.8"/>
      </g>
     </g>
     <g id="text_1">
      <!-- 6 -->
      <g transform="translate(118.704464 399.078438) scale(0.1 -0.1)">
       <defs>
        <path id="DejaVuSans-36" d="M 2113 2584 
Q 1688 2584 1439 2293 
Q 1191 2003 1191 1497 
Q 1191 994 1439 701 
Q 1688 409 2113 409 
Q 2538 409 2786 701 
Q 3034 994 3034 1497 
Q 3034 2003 2786 2293 
Q 2538 2584 2113 2584 
z
M 3366 4563 
L 3366 3988 
Q 3128 4100 2886 4159 
Q 2644 4219 2406 4219 
Q 1781 4219 1451 3797 
Q 1122 3375 1075 2522 
Q 1259 2794 1537 2939 
Q 1816 3084 2150 3084 
Q 2853 3084 3261 2657 
Q 3669 2231 3669 1497 
Q 3669 778 3244 343 
Q 2819 -91 2113 -91 
Q 1303 -91 875 529 
Q 447 1150 447 2328 
Q 447 3434 972 4092 
Q 1497 4750 2381 4750 
Q 2619 4750 2861 4703 
Q 3103 4656 3366 4563 
z
" transform="scale(0.015625)"/>
       </defs>
       <use xlink:href="#DejaVuSans-36"/>
      </g>
     </g>
    </g>
    <g id="xtick_2">
     <g id="line2d_3">
      <path d="M 185.657143 384.48 
L 185.657143 51.84 
" clip-path="url(#pffb95a3f6f)" style="fill: none; stroke: #b0b0b0; stroke-width: 0.8; stroke-linecap: square"/>
     </g>
     <g id="line2d_4">
      <g>
       <use xlink:href="#m1588496a4b" x="185.657143" y="384.48" style="stroke: #000000; stroke-width: 0.8"/>
      </g>
     </g>
     <g id="text_2">
      <!-- 8 -->
      <g transform="translate(182.475893 399.078438) scale(0.1 -0.1)">
       <defs>
        <path id="DejaVuSans-38" d="M 2034 2216 
Q 1584 2216 1326 1975 
Q 1069 1734 1069 1313 
Q 1069 891 1326 650 
Q 1584 409 2034 409 
Q 2484 409 2743 651 
Q 3003 894 3003 1313 
Q 3003 1734 2745 1975 
Q 2488 2216 2034 2216 
z
M 1403 2484 
Q 997 2584 770 2862 
Q 544 3141 544 3541 
Q 544 4100 942 4425 
Q 1341 4750 2034 4750 
Q 2731 4750 3128 4425 
Q 3525 4100 3525 3541 
Q 3525 3141 3298 2862 
Q 3072 2584 2669 2484 
Q 3125 2378 3379 2068 
Q 3634 1759 3634 1313 
Q 3634 634 3220 271 
Q 2806 -91 2034 -91 
Q 1263 -91 848 271 
Q 434 634 434 1313 
Q 434 1759 690 2068 
Q 947 2378 1403 2484 
z
M 1172 3481 
Q 1172 3119 1398 2916 
Q 1625 2713 2034 2713 
Q 2441 2713 2670 2916 
Q 2900 3119 2900 3481 
Q 2900 3844 2670 4047 
Q 2441 4250 2034 4250 
Q 1625 4250 1398 4047 
Q 1172 3844 1172 3481 
z
" transform="scale(0.015625)"/>
       </defs>
       <use xlink:href="#DejaVuSans-38"/>
      </g>
     </g>
    </g>
    <g id="xtick_3">
     <g id="line2d_5">
      <path d="M 249.428571 384.48 
L 249.428571 51.84 
" clip-path="url(#pffb95a3f6f)" style="fill: none; stroke: #b0b0b0; stroke-width: 0.8; stroke-linecap: square"/>
     </g>
     <g id="line2d_6">
      <g>
       <use xlink:href="#m1588496a4b" x="249.428571" y="384.48" style="stroke: #000000; stroke-width: 0.8"/>
      </g>
     </g>
     <g id="text_3">
      <!-- 10 -->
      <g transform="translate(243.066071 399.078438) scale(0.1 -0.1)">
       <defs>
        <path id="DejaVuSans-31" d="M 794 531 
L 1825 531 
L 1825 4091 
L 703 3866 
L 703 4441 
L 1819 4666 
L 2450 4666 
L 2450 531 
L 3481 531 
L 3481 0 
L 794 0 
L 794 531 
z
" transform="scale(0.015625)"/>
        <path id="DejaVuSans-30" d="M 2034 4250 
Q 1547 4250 1301 3770 
Q 1056 3291 1056 2328 
Q 1056 1369 1301 889 
Q 1547 409 2034 409 
Q 2525 409 2770 889 
Q 3016 1369 3016 2328 
Q 3016 3291 2770 3770 
Q 2525 4250 2034 4250 
z
M 2034 4750 
Q 2819 4750 3233 4129 
Q 3647 3509 3647 2328 
Q 3647 1150 3233 529 
Q 2819 -91 2034 -91 
Q 1250 -91 836 529 
Q 422 1150 422 2328 
Q 422 3509 836 4129 
Q 1250 4750 2034 4750 
z
" transform="scale(0.015625)"/>
       </defs>
       <use xlink:href="#DejaVuSans-31"/>
       <use xlink:href="#DejaVuSans-30" x="63.623047"/>
      </g>
     </g>
    </g>
    <g id="xtick_4">
     <g id="line2d_7">
      <path d="M 313.2 384.48 
L 313.2 51.84 
" clip-path="url(#pffb95a3f6f)" style="fill: none; stroke: #b0b0b0; stroke-width: 0.8; stroke-linecap: square"/>
     </g>
     <g id="line2d_8">
      <g>
       <use xlink:href="#m1588496a4b" x="313.2" y="384.48" style="stroke: #000000; stroke-width: 0.8"/>
      </g>
     </g>
     <g id="text_4">
      <!-- 12 -->
      <g transform="translate(306.8375 399.078438) scale(0.1 -0.1)">
       <defs>
        <path id="DejaVuSans-32" d="M 1228 531 
L 3431 531 
L 3431 0 
L 469 0 
L 469 531 
Q 828 903 1448 1529 
Q 2069 2156 2228 2338 
Q 2531 2678 2651 2914 
Q 2772 3150 2772 3378 
Q 2772 3750 2511 3984 
Q 2250 4219 1831 4219 
Q 1534 4219 1204 4116 
Q 875 4013 500 3803 
L 500 4441 
Q 881 4594 1212 4672 
Q 1544 4750 1819 4750 
Q 2544 4750 2975 4387 
Q 3406 4025 3406 3419 
Q 3406 3131 3298 2873 
Q 3191 2616 2906 2266 
Q 2828 2175 2409 1742 
Q 1991 1309 1228 531 
z
" transform="scale(0.015625)"/>
       </defs>
       <use xlink:href="#DejaVuSans-31"/>
       <use xlink:href="#DejaVuSans-32" x="63.623047"/>
      </g>
     </g>
    </g>
    <g id="xtick_5">
     <g id="line2d_9">
      <path d="M 376.971429 384.48 
L 376.971429 51.84 
" clip-path="url(#pffb95a3f6f)" style="fill: none; stroke: #b0b0b0; stroke-width: 0.8; stroke-linecap: square"/>
     </g>
     <g id="line2d_10">
      <g>
       <use xlink:href="#m1588496a4b" x="376.971429" y="384.48" style="stroke: #000000; stroke-width: 0.8"/>
      </g>
     </g>
     <g id="text_5">
      <!-- 14 -->
      <g transform="translate(370.608929 399.078438) scale(0.1 -0.1)">
       <defs>
        <path id="DejaVuSans-34" d="M 2419 4116 
L 825 1625 
L 2419 1625 
L 2419 4116 
z
M 2253 4666 
L 3047 4666 
L 3047 1625 
L 3713 1625 
L 3713 1100 
L 3047 1100 
L 3047 0 
L 2419 0 
L 2419 1100 
L 313 1100 
L 313 1709 
L 2253 4666 
z
" transform="scale(0.015625)"/>
       </defs>
       <use xlink:href="#DejaVuSans-31"/>
       <use xlink:href="#DejaVuSans-34" x="63.623047"/>
      </g>
     </g>
    </g>
    <g id="xtick_6">
     <g id="line2d_11">
      <path d="M 440.742857 384.48 
L 440.742857 51.84 
" clip-path="url(#pffb95a3f6f)" style="fill: none; stroke: #b0b0b0; stroke-width: 0.8; stroke-linecap: square"/>
     </g>
     <g id="line2d_12">
      <g>
       <use xlink:href="#m1588496a4b" x="440.742857" y="384.48" style="stroke: #000000; stroke-width: 0.8"/>
      </g>
     </g>
     <g id="text_6">
      <!-- 16 -->
      <g transform="translate(434.380357 399.078438) scale(0.1 -0.1)">
       <use xlink:href="#DejaVuSans-31"/>
       <use xlink:href="#DejaVuSans-36" x="63.623047"/>
      </g>
     </g>
    </g>
    <g id="xtick_7">
     <g id="line2d_13">
      <path d="M 504.514286 384.48 
L 504.514286 51.84 
" clip-path="url(#pffb95a3f6f)" style="fill: none; stroke: #b0b0b0; stroke-width: 0.8; stroke-linecap: square"/>
     </g>
     <g id="line2d_14">
      <g>
       <use xlink:href="#m1588496a4b" x="504.514286" y="384.48" style="stroke: #000000; stroke-width: 0.8"/>
      </g>
     </g>
     <g id="text_7">
      <!-- 18 -->
      <g transform="translate(498.151786 399.078438) scale(0.1 -0.1)">
       <use xlink:href="#DejaVuSans-31"/>
       <use xlink:href="#DejaVuSans-38" x="63.623047"/>
      </g>
     </g>
    </g>
    <g id="text_8">
     <!-- $glide_{ev}$ [K] -->
     <g transform="translate(262.5 420.358125) scale(0.2 -0.2)">
      <defs>
       <path id="DejaVuSans-Oblique-67" d="M 3816 3500 
L 3219 434 
Q 3047 -456 2561 -893 
Q 2075 -1331 1253 -1331 
Q 950 -1331 690 -1286 
Q 431 -1241 206 -1147 
L 313 -588 
Q 525 -725 762 -790 
Q 1000 -856 1269 -856 
Q 1816 -856 2167 -557 
Q 2519 -259 2631 300 
L 2681 563 
Q 2441 288 2122 144 
Q 1803 0 1434 0 
Q 903 0 598 351 
Q 294 703 294 1319 
Q 294 1803 478 2267 
Q 663 2731 997 3091 
Q 1219 3328 1514 3456 
Q 1809 3584 2131 3584 
Q 2484 3584 2746 3420 
Q 3009 3256 3138 2956 
L 3238 3500 
L 3816 3500 
z
M 2950 2216 
Q 2950 2641 2750 2872 
Q 2550 3103 2181 3103 
Q 1953 3103 1747 3012 
Q 1541 2922 1394 2759 
Q 1156 2491 1023 2127 
Q 891 1763 891 1375 
Q 891 944 1092 712 
Q 1294 481 1672 481 
Q 2219 481 2584 976 
Q 2950 1472 2950 2216 
z
" transform="scale(0.015625)"/>
       <path id="DejaVuSans-Oblique-6c" d="M 1172 4863 
L 1747 4863 
L 800 0 
L 225 0 
L 1172 4863 
z
" transform="scale(0.015625)"/>
       <path id="DejaVuSans-Oblique-69" d="M 1172 4863 
L 1747 4863 
L 1606 4134 
L 1031 4134 
L 1172 4863 
z
M 909 3500 
L 1484 3500 
L 800 0 
L 225 0 
L 909 3500 
z
" transform="scale(0.015625)"/>
       <path id="DejaVuSans-Oblique-64" d="M 2675 525 
Q 2444 222 2128 65 
Q 1813 -91 1428 -91 
Q 903 -91 598 267 
Q 294 625 294 1247 
Q 294 1766 478 2236 
Q 663 2706 1013 3078 
Q 1244 3325 1534 3454 
Q 1825 3584 2144 3584 
Q 2481 3584 2739 3421 
Q 2997 3259 3138 2956 
L 3513 4863 
L 4091 4863 
L 3144 0 
L 2566 0 
L 2675 525 
z
M 891 1350 
Q 891 897 1095 644 
Q 1300 391 1663 391 
Q 1931 391 2161 520 
Q 2391 650 2566 903 
Q 2750 1166 2856 1509 
Q 2963 1853 2963 2188 
Q 2963 2622 2758 2865 
Q 2553 3109 2194 3109 
Q 1922 3109 1687 2981 
Q 1453 2853 1288 2613 
Q 1106 2353 998 2009 
Q 891 1666 891 1350 
z
" transform="scale(0.015625)"/>
       <path id="DejaVuSans-Oblique-65" d="M 3078 2063 
Q 3088 2113 3092 2166 
Q 3097 2219 3097 2272 
Q 3097 2653 2873 2875 
Q 2650 3097 2266 3097 
Q 1838 3097 1509 2826 
Q 1181 2556 1013 2059 
L 3078 2063 
z
M 3578 1613 
L 903 1613 
Q 884 1494 878 1425 
Q 872 1356 872 1306 
Q 872 872 1139 634 
Q 1406 397 1894 397 
Q 2269 397 2603 481 
Q 2938 566 3225 728 
L 3116 159 
Q 2806 34 2476 -28 
Q 2147 -91 1806 -91 
Q 1078 -91 686 257 
Q 294 606 294 1247 
Q 294 1794 489 2264 
Q 684 2734 1063 3103 
Q 1306 3334 1642 3459 
Q 1978 3584 2356 3584 
Q 2950 3584 3301 3228 
Q 3653 2872 3653 2272 
Q 3653 2128 3634 1964 
Q 3616 1800 3578 1613 
z
" transform="scale(0.015625)"/>
       <path id="DejaVuSans-Oblique-76" d="M 459 3500 
L 1069 3500 
L 1581 525 
L 3256 3500 
L 3866 3500 
L 1875 0 
L 1100 0 
L 459 3500 
z
" transform="scale(0.015625)"/>
       <path id="DejaVuSans-20" transform="scale(0.015625)"/>
       <path id="DejaVuSans-5b" d="M 550 4863 
L 1875 4863 
L 1875 4416 
L 1125 4416 
L 1125 -397 
L 1875 -397 
L 1875 -844 
L 550 -844 
L 550 4863 
z
" transform="scale(0.015625)"/>
       <path id="DejaVuSans-4b" d="M 628 4666 
L 1259 4666 
L 1259 2694 
L 3353 4666 
L 4166 4666 
L 1850 2491 
L 4331 0 
L 3500 0 
L 1259 2247 
L 1259 0 
L 628 0 
L 628 4666 
z
" transform="scale(0.015625)"/>
       <path id="DejaVuSans-5d" d="M 1947 4863 
L 1947 -844 
L 622 -844 
L 622 -397 
L 1369 -397 
L 1369 4416 
L 622 4416 
L 622 4863 
L 1947 4863 
z
" transform="scale(0.015625)"/>
      </defs>
      <use xlink:href="#DejaVuSans-Oblique-67" transform="translate(0 0.015625)"/>
      <use xlink:href="#DejaVuSans-Oblique-6c" transform="translate(63.476562 0.015625)"/>
      <use xlink:href="#DejaVuSans-Oblique-69" transform="translate(91.259766 0.015625)"/>
      <use xlink:href="#DejaVuSans-Oblique-64" transform="translate(119.042969 0.015625)"/>
      <use xlink:href="#DejaVuSans-Oblique-65" transform="translate(182.519531 0.015625)"/>
      <use xlink:href="#DejaVuSans-Oblique-65" transform="translate(244.042969 -16.390625) scale(0.7)"/>
      <use xlink:href="#DejaVuSans-Oblique-76" transform="translate(287.109375 -16.390625) scale(0.7)"/>
      <use xlink:href="#DejaVuSans-20" transform="translate(331.269531 0.015625)"/>
      <use xlink:href="#DejaVuSans-5b" transform="translate(363.056641 0.015625)"/>
      <use xlink:href="#DejaVuSans-4b" transform="translate(402.070312 0.015625)"/>
      <use xlink:href="#DejaVuSans-5d" transform="translate(467.646484 0.015625)"/>
     </g>
    </g>
   </g>
   <g id="matplotlib.axis_2">
    <g id="ytick_1">
     <g id="line2d_15">
      <path d="M 90 384.48 
L 536.4 384.48 
" clip-path="url(#pffb95a3f6f)" style="fill: none; stroke: #b0b0b0; stroke-width: 0.8; stroke-linecap: square"/>
     </g>
     <g id="line2d_16">
      <defs>
       <path id="m4194a83f35" d="M 0 0 
L -3.5 0 
" style="stroke: #000000; stroke-width: 0.8"/>
      </defs>
      <g>
       <use xlink:href="#m4194a83f35" x="90" y="384.48" style="stroke: #000000; stroke-width: 0.8"/>
      </g>
     </g>
     <g id="text_9">
      <!-- 75 -->
      <g transform="translate(70.275 388.279219) scale(0.1 -0.1)">
       <defs>
        <path id="DejaVuSans-37" d="M 525 4666 
L 3525 4666 
L 3525 4397 
L 1831 0 
L 1172 0 
L 2766 4134 
L 525 4134 
L 525 4666 
z
" transform="scale(0.015625)"/>
        <path id="DejaVuSans-35" d="M 691 4666 
L 3169 4666 
L 3169 4134 
L 1269 4134 
L 1269 2991 
Q 1406 3038 1543 3061 
Q 1681 3084 1819 3084 
Q 2600 3084 3056 2656 
Q 3513 2228 3513 1497 
Q 3513 744 3044 326 
Q 2575 -91 1722 -91 
Q 1428 -91 1123 -41 
Q 819 9 494 109 
L 494 744 
Q 775 591 1075 516 
Q 1375 441 1709 441 
Q 2250 441 2565 725 
Q 2881 1009 2881 1497 
Q 2881 1984 2565 2268 
Q 2250 2553 1709 2553 
Q 1456 2553 1204 2497 
Q 953 2441 691 2322 
L 691 4666 
z
" transform="scale(0.015625)"/>
       </defs>
       <use xlink:href="#DejaVuSans-37"/>
       <use xlink:href="#DejaVuSans-35" x="63.623047"/>
      </g>
     </g>
    </g>
    <g id="ytick_2">
     <g id="line2d_17">
      <path d="M 90 317.952 
L 536.4 317.952 
" clip-path="url(#pffb95a3f6f)" style="fill: none; stroke: #b0b0b0; stroke-width: 0.8; stroke-linecap: square"/>
     </g>
     <g id="line2d_18">
      <g>
       <use xlink:href="#m4194a83f35" x="90" y="317.952" style="stroke: #000000; stroke-width: 0.8"/>
      </g>
     </g>
     <g id="text_10">
      <!-- 80 -->
      <g transform="translate(70.275 321.751219) scale(0.1 -0.1)">
       <use xlink:href="#DejaVuSans-38"/>
       <use xlink:href="#DejaVuSans-30" x="63.623047"/>
      </g>
     </g>
    </g>
    <g id="ytick_3">
     <g id="line2d_19">
      <path d="M 90 251.424 
L 536.4 251.424 
" clip-path="url(#pffb95a3f6f)" style="fill: none; stroke: #b0b0b0; stroke-width: 0.8; stroke-linecap: square"/>
     </g>
     <g id="line2d_20">
      <g>
       <use xlink:href="#m4194a83f35" x="90" y="251.424" style="stroke: #000000; stroke-width: 0.8"/>
      </g>
     </g>
     <g id="text_11">
      <!-- 85 -->
      <g transform="translate(70.275 255.223219) scale(0.1 -0.1)">
       <use xlink:href="#DejaVuSans-38"/>
       <use xlink:href="#DejaVuSans-35" x="63.623047"/>
      </g>
     </g>
    </g>
    <g id="ytick_4">
     <g id="line2d_21">
      <path d="M 90 184.896 
L 536.4 184.896 
" clip-path="url(#pffb95a3f6f)" style="fill: none; stroke: #b0b0b0; stroke-width: 0.8; stroke-linecap: square"/>
     </g>
     <g id="line2d_22">
      <g>
       <use xlink:href="#m4194a83f35" x="90" y="184.896" style="stroke: #000000; stroke-width: 0.8"/>
      </g>
     </g>
     <g id="text_12">
      <!-- 90 -->
      <g transform="translate(70.275 188.695219) scale(0.1 -0.1)">
       <defs>
        <path id="DejaVuSans-39" d="M 703 97 
L 703 672 
Q 941 559 1184 500 
Q 1428 441 1663 441 
Q 2288 441 2617 861 
Q 2947 1281 2994 2138 
Q 2813 1869 2534 1725 
Q 2256 1581 1919 1581 
Q 1219 1581 811 2004 
Q 403 2428 403 3163 
Q 403 3881 828 4315 
Q 1253 4750 1959 4750 
Q 2769 4750 3195 4129 
Q 3622 3509 3622 2328 
Q 3622 1225 3098 567 
Q 2575 -91 1691 -91 
Q 1453 -91 1209 -44 
Q 966 3 703 97 
z
M 1959 2075 
Q 2384 2075 2632 2365 
Q 2881 2656 2881 3163 
Q 2881 3666 2632 3958 
Q 2384 4250 1959 4250 
Q 1534 4250 1286 3958 
Q 1038 3666 1038 3163 
Q 1038 2656 1286 2365 
Q 1534 2075 1959 2075 
z
" transform="scale(0.015625)"/>
       </defs>
       <use xlink:href="#DejaVuSans-39"/>
       <use xlink:href="#DejaVuSans-30" x="63.623047"/>
      </g>
     </g>
    </g>
    <g id="ytick_5">
     <g id="line2d_23">
      <path d="M 90 118.368 
L 536.4 118.368 
" clip-path="url(#pffb95a3f6f)" style="fill: none; stroke: #b0b0b0; stroke-width: 0.8; stroke-linecap: square"/>
     </g>
     <g id="line2d_24">
      <g>
       <use xlink:href="#m4194a83f35" x="90" y="118.368" style="stroke: #000000; stroke-width: 0.8"/>
      </g>
     </g>
     <g id="text_13">
      <!-- 95 -->
      <g transform="translate(70.275 122.167219) scale(0.1 -0.1)">
       <use xlink:href="#DejaVuSans-39"/>
       <use xlink:href="#DejaVuSans-35" x="63.623047"/>
      </g>
     </g>
    </g>
    <g id="ytick_6">
     <g id="line2d_25">
      <path d="M 90 51.84 
L 536.4 51.84 
" clip-path="url(#pffb95a3f6f)" style="fill: none; stroke: #b0b0b0; stroke-width: 0.8; stroke-linecap: square"/>
     </g>
     <g id="line2d_26">
      <g>
       <use xlink:href="#m4194a83f35" x="90" y="51.84" style="stroke: #000000; stroke-width: 0.8"/>
      </g>
     </g>
     <g id="text_14">
      <!-- 100 -->
      <g transform="translate(63.9125 55.639219) scale(0.1 -0.1)">
       <use xlink:href="#DejaVuSans-31"/>
       <use xlink:href="#DejaVuSans-30" x="63.623047"/>
       <use xlink:href="#DejaVuSans-30" x="127.246094"/>
      </g>
     </g>
    </g>
    <g id="text_15">
     <!-- $T_{sto,HT}$ [C] -->
     <g transform="translate(54.9125 271.36) rotate(-90) scale(0.2 -0.2)">
      <defs>
       <path id="DejaVuSans-Oblique-54" d="M 378 4666 
L 4325 4666 
L 4225 4134 
L 2559 4134 
L 1759 0 
L 1125 0 
L 1925 4134 
L 275 4134 
L 378 4666 
z
" transform="scale(0.015625)"/>
       <path id="DejaVuSans-Oblique-73" d="M 3200 3397 
L 3091 2853 
Q 2863 2978 2609 3040 
Q 2356 3103 2088 3103 
Q 1634 3103 1373 2948 
Q 1113 2794 1113 2528 
Q 1113 2219 1719 2053 
Q 1766 2041 1788 2034 
L 1972 1978 
Q 2547 1819 2739 1644 
Q 2931 1469 2931 1166 
Q 2931 609 2489 259 
Q 2047 -91 1331 -91 
Q 1053 -91 747 -37 
Q 441 16 72 128 
L 184 722 
Q 500 559 806 475 
Q 1113 391 1394 391 
Q 1816 391 2080 572 
Q 2344 753 2344 1031 
Q 2344 1331 1650 1516 
L 1591 1531 
L 1394 1581 
Q 956 1697 753 1886 
Q 550 2075 550 2369 
Q 550 2928 970 3256 
Q 1391 3584 2113 3584 
Q 2397 3584 2667 3537 
Q 2938 3491 3200 3397 
z
" transform="scale(0.015625)"/>
       <path id="DejaVuSans-Oblique-74" d="M 2706 3500 
L 2619 3053 
L 1472 3053 
L 1100 1153 
Q 1081 1047 1072 975 
Q 1063 903 1063 863 
Q 1063 663 1183 572 
Q 1303 481 1569 481 
L 2150 481 
L 2053 0 
L 1503 0 
Q 991 0 739 200 
Q 488 400 488 806 
Q 488 878 497 964 
Q 506 1050 525 1153 
L 897 3053 
L 409 3053 
L 500 3500 
L 978 3500 
L 1172 4494 
L 1747 4494 
L 1556 3500 
L 2706 3500 
z
" transform="scale(0.015625)"/>
       <path id="DejaVuSans-Oblique-6f" d="M 1625 -91 
Q 1009 -91 651 289 
Q 294 669 294 1325 
Q 294 1706 417 2101 
Q 541 2497 738 2766 
Q 1047 3184 1428 3384 
Q 1809 3584 2291 3584 
Q 2888 3584 3255 3212 
Q 3622 2841 3622 2241 
Q 3622 1825 3500 1412 
Q 3378 1000 3181 728 
Q 2875 309 2494 109 
Q 2113 -91 1625 -91 
z
M 891 1344 
Q 891 869 1089 633 
Q 1288 397 1691 397 
Q 2269 397 2648 901 
Q 3028 1406 3028 2181 
Q 3028 2634 2825 2865 
Q 2622 3097 2228 3097 
Q 1903 3097 1650 2945 
Q 1397 2794 1197 2484 
Q 1050 2253 970 1956 
Q 891 1659 891 1344 
z
" transform="scale(0.015625)"/>
       <path id="DejaVuSans-2c" d="M 750 794 
L 1409 794 
L 1409 256 
L 897 -744 
L 494 -744 
L 750 256 
L 750 794 
z
" transform="scale(0.015625)"/>
       <path id="DejaVuSans-Oblique-48" d="M 1081 4666 
L 1716 4666 
L 1344 2753 
L 3634 2753 
L 4006 4666 
L 4641 4666 
L 3731 0 
L 3097 0 
L 3531 2222 
L 1241 2222 
L 806 0 
L 172 0 
L 1081 4666 
z
" transform="scale(0.015625)"/>
       <path id="DejaVuSans-b0" d="M 1600 4347 
Q 1350 4347 1178 4173 
Q 1006 4000 1006 3750 
Q 1006 3503 1178 3333 
Q 1350 3163 1600 3163 
Q 1850 3163 2022 3333 
Q 2194 3503 2194 3750 
Q 2194 3997 2020 4172 
Q 1847 4347 1600 4347 
z
M 1600 4750 
Q 1800 4750 1984 4673 
Q 2169 4597 2303 4453 
Q 2447 4313 2519 4134 
Q 2591 3956 2591 3750 
Q 2591 3338 2302 3052 
Q 2013 2766 1594 2766 
Q 1172 2766 890 3047 
Q 609 3328 609 3750 
Q 609 4169 896 4459 
Q 1184 4750 1600 4750 
z
" transform="scale(0.015625)"/>
       <path id="DejaVuSans-43" d="M 4122 4306 
L 4122 3641 
Q 3803 3938 3442 4084 
Q 3081 4231 2675 4231 
Q 1875 4231 1450 3742 
Q 1025 3253 1025 2328 
Q 1025 1406 1450 917 
Q 1875 428 2675 428 
Q 3081 428 3442 575 
Q 3803 722 4122 1019 
L 4122 359 
Q 3791 134 3420 21 
Q 3050 -91 2638 -91 
Q 1578 -91 968 557 
Q 359 1206 359 2328 
Q 359 3453 968 4101 
Q 1578 4750 2638 4750 
Q 3056 4750 3426 4639 
Q 3797 4528 4122 4306 
z
" transform="scale(0.015625)"/>
      </defs>
      <use xlink:href="#DejaVuSans-Oblique-54" transform="translate(0 0.015625)"/>
      <use xlink:href="#DejaVuSans-Oblique-73" transform="translate(61.083984 -16.390625) scale(0.7)"/>
      <use xlink:href="#DejaVuSans-Oblique-74" transform="translate(97.553711 -16.390625) scale(0.7)"/>
      <use xlink:href="#DejaVuSans-Oblique-6f" transform="translate(125 -16.390625) scale(0.7)"/>
      <use xlink:href="#DejaVuSans-2c" transform="translate(167.827148 -16.390625) scale(0.7)"/>
      <use xlink:href="#DejaVuSans-Oblique-48" transform="translate(203.71582 -16.390625) scale(0.7)"/>
      <use xlink:href="#DejaVuSans-Oblique-54" transform="translate(256.352539 -16.390625) scale(0.7)"/>
      <use xlink:href="#DejaVuSans-20" transform="translate(301.845703 0.015625)"/>
      <use xlink:href="#DejaVuSans-5b" transform="translate(333.632812 0.015625)"/>
      <use xlink:href="#DejaVuSans-b0" transform="translate(372.646484 0.015625)"/>
      <use xlink:href="#DejaVuSans-43" transform="translate(422.646484 0.015625)"/>
      <use xlink:href="#DejaVuSans-5d" transform="translate(492.470703 0.015625)"/>
     </g>
    </g>
   </g>
   <g id="QuadContourSet_2">
    <path clip-path="url(#pffb95a3f6f)" style="fill: none; stroke: #000000; stroke-width: 1.5"/>
    <path d="M 204.463497 384.48 
L 207.236364 383.642096 
L 211.745455 382.27954 
L 215.582708 381.12 
L 216.254545 380.916984 
L 220.763636 379.651973 
L 225.272727 378.42598 
L 227.72214 377.76 
L 229.781818 377.199987 
L 234.290909 375.973993 
L 238.8 374.748 
L 240.079912 374.4 
L 243.309091 373.522007 
L 247.818182 372.296013 
L 252.327273 371.07002 
L 252.437684 371.04 
L 256.836364 369.844027 
L 261.345455 368.618034 
L 264.803495 367.68 
L 265.854545 367.396094 
L 270.363636 366.195145 
L 274.872727 364.994196 
L 277.404065 364.32 
L 279.381818 363.793246 
L 283.890909 362.521269 
L 288.4 361.196022 
L 289.203054 360.96 
L 292.909091 359.870775 
L 297.418182 358.545528 
L 300.635295 357.6 
L 301.927273 357.22028 
L 306.436364 355.895033 
L 310.945455 354.544341 
L 311.917982 354.24 
L 315.454545 353.133275 
L 317.381669 352.530204 
M 327.928188 349.229796 
L 328.981818 348.900075 
L 333.391876 347.52 
L 333.490909 347.489009 
L 338 346.077942 
L 342.509091 344.666876 
L 344.128822 344.16 
L 347.018182 343.255809 
L 351.527273 341.844743 
L 354.865769 340.8 
L 356.036364 340.433676 
L 360.545455 339.02261 
L 365.054545 337.611543 
L 365.602715 337.44 
L 369.563636 336.200477 
L 374.072727 334.788803 
L 376.338506 334.08 
L 378.581818 333.377774 
L 383.090909 331.965143 
L 387.066469 330.72 
L 387.6 330.552791 
L 392.109091 329.139892 
L 396.618182 327.726814 
L 397.788674 327.36 
L 401.127273 326.313736 
L 405.636364 324.900658 
L 408.510337 324 
L 410.145455 323.48758 
L 414.654545 322.074502 
L 419.163636 320.661424 
L 419.232 320.64 
L 423.672727 319.252474 
L 428.181818 317.843588 
L 429.985562 317.28 
L 432.690909 316.444614 
L 437.2 315.052249 
L 440.866718 313.92 
L 441.709091 313.659883 
L 446.218182 312.267518 
L 450.727273 310.875152 
L 451.747874 310.56 
L 455.236364 309.482787 
L 459.745455 308.090421 
L 462.62903 307.2 
L 464.254545 306.698056 
L 468.763636 305.30569 
L 473.272727 303.888988 
L 473.414079 303.84 
L 477.781818 302.326266 
L 482.290909 300.763543 
L 483.109048 300.48 
L 486.8 299.200821 
L 491.309091 297.638099 
L 492.804017 297.12 
L 495.818182 296.075376 
L 500.327273 294.512654 
L 502.498986 293.76 
L 504.836364 292.949931 
L 509.345455 291.387209 
L 512.648377 290.4 
L 513.854545 290.05774 
L 518.363636 288.812267 
L 522.872727 287.566794 
L 524.779924 287.04 
L 527.381818 286.321321 
L 531.890909 285.075848 
L 536.4 283.830375 
" clip-path="url(#pffb95a3f6f)" style="fill: none; stroke: #000000; stroke-width: 1.5"/>
    <path d="M 90 366.674096 
L 99.056965 365.194649 
M 109.765913 363.445351 
L 130.581818 360.08921 
L 148.618182 358.409465 
L 153.127273 357.996942 
L 162.145455 355.887358 
L 184.690909 350.366372 
L 189.2 349.137139 
L 220.763636 339.696793 
L 254.176427 330.72 
L 283.890909 322.734829 
L 302.256987 317.28 
L 347.018182 302.849237 
L 383.090909 290.271783 
L 410.145455 284.04265 
L 455.236364 271.356952 
L 473.272727 265.763154 
L 482.290909 262.656135 
L 491.309091 260.08937 
L 518.363636 252.527898 
L 527.381818 249.708927 
L 531.890909 248.063783 
L 536.4 246.772926 
L 536.4 246.772926 
" clip-path="url(#pffb95a3f6f)" style="fill: none; stroke: #000000; stroke-width: 1.5"/>
    <path d="M 90 320.903568 
L 94.509091 320.300055 
L 130.581818 316.745346 
L 154.246462 313.92 
L 157.636364 313.089588 
L 180.181818 306.446108 
L 183.945111 305.332997 
M 194.454889 302.2244 
L 216.254545 295.776468 
L 225.272727 292.705092 
L 247.818182 284.858331 
L 252.327273 283.659947 
L 283.890909 276.304444 
L 334.303704 263.52 
L 351.527273 257.88602 
L 360.545455 255.774456 
L 374.072727 252.60642 
L 384.007612 250.08 
L 401.127273 244.804816 
L 410.145455 242.582031 
L 419.163636 239.878932 
L 432.690909 235.353748 
L 473.272727 221.639739 
L 496.649923 213.12 
L 500.327273 211.912075 
L 536.4 202.346137 
L 536.4 202.346137 
" clip-path="url(#pffb95a3f6f)" style="fill: none; stroke: #000000; stroke-width: 1.5"/>
    <path d="M 90 266.090937 
L 103.527273 264.544871 
L 144.109091 261.303336 
L 153.127273 260.585999 
L 157.636364 259.481423 
L 184.690909 252.027934 
L 193.709091 249.357054 
L 207.236364 245.060918 
L 211.745455 243.792069 
L 220.763636 241.808906 
L 229.781818 239.541629 
L 292.909091 222.672032 
L 316.798868 216.48 
L 347.018182 207.860838 
L 362.965192 203.04 
L 365.054545 202.510638 
L 410.145455 192.21285 
L 432.690909 185.358292 
L 441.709091 182.27177 
L 459.745455 175.654636 
L 464.254545 174.148458 
L 482.290909 169.365294 
L 486.8 168.18896 
L 493.876124 166.08 
L 504.111965 162.826876 
M 514.578944 159.500292 
L 536.4 152.56519 
L 536.4 152.56519 
" clip-path="url(#pffb95a3f6f)" style="fill: none; stroke: #000000; stroke-width: 1.5"/>
    <path d="M 90 202.366504 
L 139.6 200.88421 
L 153.127273 199.630326 
L 157.636364 198.34315 
L 164.286695 196.32 
L 166.654545 195.721899 
L 216.254545 185.625201 
L 226.363676 182.88 
L 247.081678 176.550351 
M 257.572867 173.345141 
L 283.890909 165.254847 
L 315.454545 155.040609 
L 319.963636 154.005864 
L 347.018182 148.49377 
L 392.109091 137.311621 
L 409.221501 132.48 
L 410.145455 132.200362 
L 419.163636 128.907445 
L 455.686136 119.04 
L 468.763636 114.734628 
L 473.272727 113.647564 
L 486.8 109.676307 
L 536.4 94.882721 
L 536.4 94.882721 
" clip-path="url(#pffb95a3f6f)" style="fill: none; stroke: #000000; stroke-width: 1.5"/>
    <path d="M 90 125.545243 
L 94.509091 125.394141 
L 99.018182 125.318453 
L 103.527273 125.318453 
L 108.036364 125.318453 
L 112.545455 125.318453 
L 117.054545 125.318453 
L 121.563636 125.318453 
L 126.072727 125.318453 
L 130.581818 125.318453 
L 135.090909 125.318453 
L 139.6 125.318453 
L 144.109091 125.318453 
L 148.618182 125.318453 
L 153.127273 125.318453 
L 157.636364 124.504018 
L 162.145455 123.553844 
L 166.654545 122.603671 
L 167.621074 122.4 
L 171.163636 121.653497 
L 175.672727 120.703323 
L 180.181818 119.75315 
L 183.566102 119.04 
L 184.690909 118.761231 
L 189.2 117.643712 
L 193.709091 116.526193 
L 197.123406 115.68 
L 198.218182 115.396177 
L 202.727273 114.227187 
L 207.236364 113.058197 
L 210.083778 112.32 
L 211.745455 111.912031 
L 216.254545 111.054197 
L 220.763636 109.710703 
L 222.964888 108.96 
L 225.272727 108.172946 
L 229.781818 106.635189 
L 232.817253 105.6 
L 234.290909 105.097432 
L 238.8 103.559675 
L 242.669618 102.24 
L 243.309091 102.021918 
L 247.818182 100.48416 
L 252.327273 98.946403 
L 252.521984 98.88 
L 256.836364 97.408646 
L 261.345455 96.107882 
L 264.662371 95.52 
L 265.854545 95.319243 
L 270.363636 94.559931 
L 274.872727 93.80062 
L 279.381818 93.041308 
L 283.47662 92.16 
L 283.890909 92.070834 
L 288.4 90.941989 
L 292.909091 89.813143 
L 296.956016 88.8 
L 297.418182 88.684297 
L 301.927273 87.555452 
L 306.436364 86.426606 
L 310.37729 85.44 
L 310.945455 85.297761 
L 315.454545 84.172095 
L 319.963636 83.049573 
L 323.860017 82.08 
L 324.472727 81.927534 
L 328.981818 80.805494 
L 333.490909 79.683455 
L 337.362703 78.72 
L 338 78.561415 
L 342.509091 77.439376 
L 347.018182 76.351979 
L 351.31409 75.36 
L 351.527273 75.310773 
L 356.036364 74.269568 
L 359.708989 73.421512 
M 370.400101 70.952799 
L 374.072727 70.104744 
L 378.581818 69.063538 
L 380.416009 68.64 
L 383.090909 68.022332 
L 387.6 66.981126 
L 392.109091 65.93992 
L 394.839651 65.28 
L 396.618182 64.856288 
L 401.127273 63.591134 
L 405.636364 62.303141 
L 406.897614 61.92 
L 410.145455 60.933375 
L 414.654545 59.359176 
L 417.871055 58.56 
L 419.163636 58.271338 
L 423.672727 57.33235 
L 428.181818 56.393363 
L 432.690909 55.454375 
L 433.912436 55.2 
L 437.2 54.515387 
L 441.709091 53.576399 
L 446.218182 52.637411 
L 450.047412 51.84 
" clip-path="url(#pffb95a3f6f)" style="fill: none; stroke: #000000; stroke-width: 1.5"/>
    <path clip-path="url(#pffb95a3f6f)" style="fill: none; stroke: #000000; stroke-width: 1.5"/>
    <path clip-path="url(#pffb95a3f6f)" style="fill: none; stroke: #000000; stroke-width: 1.5"/>
    <path clip-path="url(#pffb95a3f6f)" style="fill: none; stroke: #000000; stroke-width: 1.5"/>
   </g>
   <g id="patch_3">
    <path d="M 90 384.48 
L 90 51.84 
" style="fill: none; stroke: #000000; stroke-width: 0.8; stroke-linejoin: miter; stroke-linecap: square"/>
   </g>
   <g id="patch_4">
    <path d="M 536.4 384.48 
L 536.4 51.84 
" style="fill: none; stroke: #000000; stroke-width: 0.8; stroke-linejoin: miter; stroke-linecap: square"/>
   </g>
   <g id="patch_5">
    <path d="M 90 384.48 
L 536.4 384.48 
" style="fill: none; stroke: #000000; stroke-width: 0.8; stroke-linejoin: miter; stroke-linecap: square"/>
   </g>
   <g id="patch_6">
    <path d="M 90 51.84 
L 536.4 51.84 
" style="fill: none; stroke: #000000; stroke-width: 0.8; stroke-linejoin: miter; stroke-linecap: square"/>
   </g>
   <g id="text_16">
    <g clip-path="url(#pffb95a3f6f)">
     <!-- 1 -->
     <g transform="translate(320.239048 354.329351) rotate(-14.055143) scale(0.1 -0.1)">
      <use xlink:href="#DejaVuSans-31"/>
     </g>
    </g>
   </g>
   <g id="text_17">
    <g clip-path="url(#pffb95a3f6f)">
     <!-- 2 -->
     <g transform="translate(101.614562 367.46833) rotate(-7.445183) scale(0.1 -0.1)">
      <use xlink:href="#DejaVuSans-32"/>
     </g>
    </g>
   </g>
   <g id="text_18">
    <g clip-path="url(#pffb95a3f6f)">
     <!-- 3 -->
     <g transform="translate(186.739629 307.196457) rotate(-13.312757) scale(0.1 -0.1)">
      <defs>
       <path id="DejaVuSans-33" d="M 2597 2516 
Q 3050 2419 3304 2112 
Q 3559 1806 3559 1356 
Q 3559 666 3084 287 
Q 2609 -91 1734 -91 
Q 1441 -91 1130 -33 
Q 819 25 488 141 
L 488 750 
Q 750 597 1062 519 
Q 1375 441 1716 441 
Q 2309 441 2620 675 
Q 2931 909 2931 1356 
Q 2931 1769 2642 2001 
Q 2353 2234 1838 2234 
L 1294 2234 
L 1294 2753 
L 1863 2753 
Q 2328 2753 2575 2939 
Q 2822 3125 2822 3475 
Q 2822 3834 2567 4026 
Q 2313 4219 1838 4219 
Q 1578 4219 1281 4162 
Q 984 4106 628 3988 
L 628 4550 
Q 988 4650 1302 4700 
Q 1616 4750 1894 4750 
Q 2613 4750 3031 4423 
Q 3450 4097 3450 3541 
Q 3450 3153 3228 2886 
Q 3006 2619 2597 2516 
z
" transform="scale(0.015625)"/>
      </defs>
      <use xlink:href="#DejaVuSans-33"/>
     </g>
    </g>
   </g>
   <g id="text_19">
    <g clip-path="url(#pffb95a3f6f)">
     <!-- 4 -->
     <g transform="translate(506.942247 164.621776) rotate(-14.26539) scale(0.1 -0.1)">
      <use xlink:href="#DejaVuSans-34"/>
     </g>
    </g>
   </g>
   <g id="text_20">
    <g clip-path="url(#pffb95a3f6f)">
     <!-- 5 -->
     <g transform="translate(249.892125 178.383523) rotate(-13.73449) scale(0.1 -0.1)">
      <use xlink:href="#DejaVuSans-35"/>
     </g>
    </g>
   </g>
   <g id="text_21">
    <g clip-path="url(#pffb95a3f6f)">
     <!-- 6 -->
     <g transform="translate(362.427484 75.478515) rotate(-10.466264) scale(0.1 -0.1)">
      <use xlink:href="#DejaVuSans-36"/>
     </g>
    </g>
   </g>
  </g>
  <g id="axes_2">
   <g id="patch_7">
    <path d="M 564.3 384.48 
L 580.932 384.48 
L 580.932 51.84 
L 564.3 51.84 
z
" style="fill: #ffffff"/>
   </g>
   <g id="QuadMesh_1">
    <path d="M 564.3 384.48 
L 580.932 384.48 
L 580.932 347.52 
L 564.3 347.52 
L 564.3 384.48 
" clip-path="url(#pc61673e67a)" style="fill: #481668"/>
    <path d="M 564.3 347.52 
L 580.932 347.52 
L 580.932 310.56 
L 564.3 310.56 
L 564.3 347.52 
" clip-path="url(#pc61673e67a)" style="fill: #443983"/>
    <path d="M 564.3 310.56 
L 580.932 310.56 
L 580.932 273.6 
L 564.3 273.6 
L 564.3 310.56 
" clip-path="url(#pc61673e67a)" style="fill: #375a8c"/>
    <path d="M 564.3 273.6 
L 580.932 273.6 
L 580.932 236.64 
L 564.3 236.64 
L 564.3 273.6 
" clip-path="url(#pc61673e67a)" style="fill: #2b758e"/>
    <path d="M 564.3 236.64 
L 580.932 236.64 
L 580.932 199.68 
L 564.3 199.68 
L 564.3 236.64 
" clip-path="url(#pc61673e67a)" style="fill: #21918c"/>
    <path d="M 564.3 199.68 
L 580.932 199.68 
L 580.932 162.72 
L 564.3 162.72 
L 564.3 199.68 
" clip-path="url(#pc61673e67a)" style="fill: #25ab82"/>
    <path d="M 564.3 162.72 
L 580.932 162.72 
L 580.932 125.76 
L 564.3 125.76 
L 564.3 162.72 
" clip-path="url(#pc61673e67a)" style="fill: #4ec36b"/>
    <path d="M 564.3 125.76 
L 580.932 125.76 
L 580.932 88.8 
L 564.3 88.8 
L 564.3 125.76 
" clip-path="url(#pc61673e67a)" style="fill: #90d743"/>
    <path d="M 564.3 88.8 
L 580.932 88.8 
L 580.932 51.84 
L 564.3 51.84 
L 564.3 88.8 
" clip-path="url(#pc61673e67a)" style="fill: #dae319"/>
   </g>
   <g id="matplotlib.axis_3"/>
   <g id="matplotlib.axis_4">
    <g id="ytick_7">
     <g id="line2d_27">
      <defs>
       <path id="m27aa8f2e63" d="M 0 0 
L 3.5 0 
" style="stroke: #000000; stroke-width: 0.8"/>
      </defs>
      <g>
       <use xlink:href="#m27aa8f2e63" x="580.932" y="384.48" style="stroke: #000000; stroke-width: 0.8"/>
      </g>
     </g>
     <g id="text_22">
      <!-- 0 -->
      <g transform="translate(587.932 388.279219) scale(0.1 -0.1)">
       <use xlink:href="#DejaVuSans-30"/>
      </g>
     </g>
    </g>
    <g id="ytick_8">
     <g id="line2d_28">
      <g>
       <use xlink:href="#m27aa8f2e63" x="580.932" y="347.52" style="stroke: #000000; stroke-width: 0.8"/>
      </g>
     </g>
     <g id="text_23">
      <!-- 1 -->
      <g transform="translate(587.932 351.319219) scale(0.1 -0.1)">
       <use xlink:href="#DejaVuSans-31"/>
      </g>
     </g>
    </g>
    <g id="ytick_9">
     <g id="line2d_29">
      <g>
       <use xlink:href="#m27aa8f2e63" x="580.932" y="310.56" style="stroke: #000000; stroke-width: 0.8"/>
      </g>
     </g>
     <g id="text_24">
      <!-- 2 -->
      <g transform="translate(587.932 314.359219) scale(0.1 -0.1)">
       <use xlink:href="#DejaVuSans-32"/>
      </g>
     </g>
    </g>
    <g id="ytick_10">
     <g id="line2d_30">
      <g>
       <use xlink:href="#m27aa8f2e63" x="580.932" y="273.6" style="stroke: #000000; stroke-width: 0.8"/>
      </g>
     </g>
     <g id="text_25">
      <!-- 3 -->
      <g transform="translate(587.932 277.399219) scale(0.1 -0.1)">
       <use xlink:href="#DejaVuSans-33"/>
      </g>
     </g>
    </g>
    <g id="ytick_11">
     <g id="line2d_31">
      <g>
       <use xlink:href="#m27aa8f2e63" x="580.932" y="236.64" style="stroke: #000000; stroke-width: 0.8"/>
      </g>
     </g>
     <g id="text_26">
      <!-- 4 -->
      <g transform="translate(587.932 240.439219) scale(0.1 -0.1)">
       <use xlink:href="#DejaVuSans-34"/>
      </g>
     </g>
    </g>
    <g id="ytick_12">
     <g id="line2d_32">
      <g>
       <use xlink:href="#m27aa8f2e63" x="580.932" y="199.68" style="stroke: #000000; stroke-width: 0.8"/>
      </g>
     </g>
     <g id="text_27">
      <!-- 5 -->
      <g transform="translate(587.932 203.479219) scale(0.1 -0.1)">
       <use xlink:href="#DejaVuSans-35"/>
      </g>
     </g>
    </g>
    <g id="ytick_13">
     <g id="line2d_33">
      <g>
       <use xlink:href="#m27aa8f2e63" x="580.932" y="162.72" style="stroke: #000000; stroke-width: 0.8"/>
      </g>
     </g>
     <g id="text_28">
      <!-- 6 -->
      <g transform="translate(587.932 166.519219) scale(0.1 -0.1)">
       <use xlink:href="#DejaVuSans-36"/>
      </g>
     </g>
    </g>
    <g id="ytick_14">
     <g id="line2d_34">
      <g>
       <use xlink:href="#m27aa8f2e63" x="580.932" y="125.76" style="stroke: #000000; stroke-width: 0.8"/>
      </g>
     </g>
     <g id="text_29">
      <!-- 7 -->
      <g transform="translate(587.932 129.559219) scale(0.1 -0.1)">
       <use xlink:href="#DejaVuSans-37"/>
      </g>
     </g>
    </g>
    <g id="ytick_15">
     <g id="line2d_35">
      <g>
       <use xlink:href="#m27aa8f2e63" x="580.932" y="88.8" style="stroke: #000000; stroke-width: 0.8"/>
      </g>
     </g>
     <g id="text_30">
      <!-- 8 -->
      <g transform="translate(587.932 92.599219) scale(0.1 -0.1)">
       <use xlink:href="#DejaVuSans-38"/>
      </g>
     </g>
    </g>
    <g id="ytick_16">
     <g id="line2d_36">
      <g>
       <use xlink:href="#m27aa8f2e63" x="580.932" y="51.84" style="stroke: #000000; stroke-width: 0.8"/>
      </g>
     </g>
     <g id="text_31">
      <!-- 9 -->
      <g transform="translate(587.932 55.639219) scale(0.1 -0.1)">
       <use xlink:href="#DejaVuSans-39"/>
      </g>
     </g>
    </g>
    <g id="text_32">
     <!-- $\eta_{ORC}$ [%] -->
     <g transform="translate(610.4545 252.08) rotate(-90) scale(0.16 -0.16)">
      <defs>
       <path id="DejaVuSans-Oblique-3b7" d="M 3703 2113 
L 3034 -1331 
L 2459 -1331 
L 3125 2094 
Q 3222 2591 3075 2838 
Q 2931 3084 2544 3084 
Q 2078 3084 1750 2788 
Q 1425 2491 1325 1978 
L 941 0 
L 363 0 
L 1044 3500 
L 1622 3500 
L 1516 2956 
Q 1781 3272 2094 3428 
Q 2403 3584 2769 3584 
Q 3372 3584 3609 3213 
Q 3844 2838 3703 2113 
z
" transform="scale(0.015625)"/>
       <path id="DejaVuSans-Oblique-4f" d="M 2919 4238 
Q 2400 4238 2003 3986 
Q 1606 3734 1313 3219 
Q 1125 2891 1026 2522 
Q 928 2153 928 1778 
Q 928 1128 1239 775 
Q 1550 422 2119 422 
Q 2631 422 3032 676 
Q 3434 931 3719 1434 
Q 3909 1772 4009 2142 
Q 4109 2513 4109 2881 
Q 4109 3528 3796 3883 
Q 3484 4238 2919 4238 
z
M 2100 -91 
Q 1241 -91 748 418 
Q 256 928 256 1813 
Q 256 2319 448 2847 
Q 641 3375 978 3788 
Q 1375 4272 1862 4511 
Q 2350 4750 2938 4750 
Q 3794 4750 4287 4245 
Q 4781 3741 4781 2869 
Q 4781 2331 4593 1812 
Q 4406 1294 4056 872 
Q 3656 384 3173 146 
Q 2691 -91 2100 -91 
z
" transform="scale(0.015625)"/>
       <path id="DejaVuSans-Oblique-52" d="M 1613 4147 
L 1294 2491 
L 2106 2491 
Q 2584 2491 2879 2755 
Q 3175 3019 3175 3444 
Q 3175 3784 2976 3965 
Q 2778 4147 2406 4147 
L 1613 4147 
z
M 2772 2241 
Q 2972 2194 3105 2009 
Q 3238 1825 3413 1275 
L 3809 0 
L 3144 0 
L 2778 1197 
Q 2638 1659 2453 1815 
Q 2269 1972 1888 1972 
L 1191 1972 
L 806 0 
L 172 0 
L 1081 4666 
L 2503 4666 
Q 3150 4666 3495 4373 
Q 3841 4081 3841 3531 
Q 3841 3044 3547 2687 
Q 3253 2331 2772 2241 
z
" transform="scale(0.015625)"/>
       <path id="DejaVuSans-Oblique-43" d="M 4447 4306 
L 4319 3641 
Q 4019 3944 3683 4091 
Q 3347 4238 2956 4238 
Q 2422 4238 2017 3981 
Q 1613 3725 1319 3200 
Q 1131 2863 1032 2486 
Q 934 2109 934 1728 
Q 934 1091 1264 756 
Q 1594 422 2222 422 
Q 2656 422 3056 561 
Q 3456 700 3834 978 
L 3688 231 
Q 3316 72 2936 -9 
Q 2556 -91 2175 -91 
Q 1278 -91 773 396 
Q 269 884 269 1753 
Q 269 2309 461 2846 
Q 653 3384 1013 3828 
Q 1394 4300 1883 4525 
Q 2372 4750 3022 4750 
Q 3422 4750 3780 4639 
Q 4138 4528 4447 4306 
z
" transform="scale(0.015625)"/>
       <path id="DejaVuSans-25" d="M 4653 2053 
Q 4381 2053 4226 1822 
Q 4072 1591 4072 1178 
Q 4072 772 4226 539 
Q 4381 306 4653 306 
Q 4919 306 5073 539 
Q 5228 772 5228 1178 
Q 5228 1588 5073 1820 
Q 4919 2053 4653 2053 
z
M 4653 2450 
Q 5147 2450 5437 2106 
Q 5728 1763 5728 1178 
Q 5728 594 5436 251 
Q 5144 -91 4653 -91 
Q 4153 -91 3862 251 
Q 3572 594 3572 1178 
Q 3572 1766 3864 2108 
Q 4156 2450 4653 2450 
z
M 1428 4353 
Q 1159 4353 1004 4120 
Q 850 3888 850 3481 
Q 850 3069 1003 2837 
Q 1156 2606 1428 2606 
Q 1700 2606 1854 2837 
Q 2009 3069 2009 3481 
Q 2009 3884 1853 4118 
Q 1697 4353 1428 4353 
z
M 4250 4750 
L 4750 4750 
L 1831 -91 
L 1331 -91 
L 4250 4750 
z
M 1428 4750 
Q 1922 4750 2215 4408 
Q 2509 4066 2509 3481 
Q 2509 2891 2217 2550 
Q 1925 2209 1428 2209 
Q 931 2209 642 2551 
Q 353 2894 353 3481 
Q 353 4063 643 4406 
Q 934 4750 1428 4750 
z
" transform="scale(0.015625)"/>
      </defs>
      <use xlink:href="#DejaVuSans-Oblique-3b7" transform="translate(0 0.015625)"/>
      <use xlink:href="#DejaVuSans-Oblique-4f" transform="translate(63.378906 -16.390625) scale(0.7)"/>
      <use xlink:href="#DejaVuSans-Oblique-52" transform="translate(118.476562 -16.390625) scale(0.7)"/>
      <use xlink:href="#DejaVuSans-Oblique-43" transform="translate(167.114258 -16.390625) scale(0.7)"/>
      <use xlink:href="#DejaVuSans-20" transform="translate(218.725586 0.015625)"/>
      <use xlink:href="#DejaVuSans-5b" transform="translate(250.512695 0.015625)"/>
      <use xlink:href="#DejaVuSans-25" transform="translate(289.526367 0.015625)"/>
      <use xlink:href="#DejaVuSans-5d" transform="translate(384.545898 0.015625)"/>
     </g>
    </g>
   </g>
   <g id="LineCollection_1"/>
   <g id="patch_8">
    <path d="M 564.3 384.48 
L 572.616 384.48 
L 580.932 384.48 
L 580.932 51.84 
L 572.616 51.84 
L 564.3 51.84 
L 564.3 384.48 
z
" style="fill: none; stroke: #000000; stroke-width: 0.8; stroke-linejoin: miter; stroke-linecap: square"/>
   </g>
  </g>
 </g>
 <defs>
  <clipPath id="pffb95a3f6f">
   <rect x="90" y="51.84" width="446.4" height="332.64"/>
  </clipPath>
  <clipPath id="pc61673e67a">
   <rect x="564.3" y="51.84" width="16.632" height="332.64"/>
  </clipPath>
 </defs>
</svg>
