<?xml version="1.0" encoding="utf-8" standalone="no"?>
<!DOCTYPE svg PUBLIC "-//W3C//DTD SVG 1.1//EN"
  "http://www.w3.org/Graphics/SVG/1.1/DTD/svg11.dtd">
<svg xmlns:xlink="http://www.w3.org/1999/xlink" width="720pt" height="432pt" viewBox="0 0 720 432" xmlns="http://www.w3.org/2000/svg" version="1.1">
 <metadata>
  <rdf:RDF xmlns:dc="http://purl.org/dc/elements/1.1/" xmlns:cc="http://creativecommons.org/ns#" xmlns:rdf="http://www.w3.org/1999/02/22-rdf-syntax-ns#">
   <cc:Work>
    <dc:type rdf:resource="http://purl.org/dc/dcmitype/StillImage"/>
    <dc:date>2024-06-12T11:31:48.832982</dc:date>
    <dc:format>image/svg+xml</dc:format>
    <dc:creator>
     <cc:Agent>
      <dc:title>Matplotlib v3.8.3, https://matplotlib.org/</dc:title>
     </cc:Agent>
    </dc:creator>
   </cc:Work>
  </rdf:RDF>
 </metadata>
 <defs>
  <style type="text/css">*{stroke-linejoin: round; stroke-linecap: butt}</style>
 </defs>
 <g id="figure_1">
  <g id="patch_1">
   <path d="M 0 432 
L 720 432 
L 720 0 
L 0 0 
z
" style="fill: #ffffff"/>
  </g>
  <g id="axes_1">
   <g id="patch_2">
    <path d="M 90 384.48 
L 648 384.48 
L 648 51.84 
L 90 51.84 
z
" style="fill: #ffffff"/>
   </g>
   <g id="QuadContourSet_1">
    <path clip-path="url(#p1928a3d452)" style="fill: #481668"/>
    <path d="M 90 384.48 
L 95.636364 381.12 
L 101.272727 377.76 
L 106.909091 374.4 
L 112.545455 371.04 
L 118.181818 367.68 
L 123.818182 364.32 
L 129.454545 360.96 
L 135.090909 357.6 
L 140.727273 354.24 
L 146.363636 350.88 
L 152 347.52 
L 157.636364 344.16 
L 163.272727 340.8 
L 168.909091 337.44 
L 174.545455 334.08 
L 180.181818 330.72 
L 185.818182 327.36 
L 191.454545 324 
L 197.090909 320.64 
L 202.727273 317.28 
L 208.363636 313.92 
L 214 310.56 
L 219.636364 307.2 
L 225.272727 303.84 
L 230.909091 300.48 
L 236.545455 297.12 
L 242.181818 293.76 
L 247.818182 290.4 
L 253.454545 287.04 
L 259.090909 283.68 
L 264.727273 280.32 
L 270.363636 276.96 
L 276 273.6 
L 281.636364 270.24 
L 287.272727 266.88 
L 292.909091 263.52 
L 298.545455 260.16 
L 304.181818 256.8 
L 309.818182 253.44 
L 315.454545 250.08 
L 321.090909 246.72 
L 326.727273 243.36 
L 332.363636 240 
L 338 236.64 
L 343.636364 233.28 
L 349.272727 229.92 
L 354.909091 226.56 
L 360.545455 223.2 
L 366.181818 219.84 
L 371.818182 216.48 
L 377.454545 213.12 
L 383.090909 209.76 
L 388.727273 206.4 
L 394.363636 203.04 
L 400 199.68 
L 405.636364 196.32 
L 411.272727 192.96 
L 416.909091 189.6 
L 422.545455 186.24 
L 428.181818 182.88 
L 433.818182 179.52 
L 439.454545 176.16 
L 445.090909 172.8 
L 450.727273 169.44 
L 456.363636 166.08 
L 462 162.72 
L 467.636364 159.36 
L 473.272727 156 
L 478.909091 152.64 
L 484.545455 149.28 
L 490.181818 145.92 
L 495.818182 142.56 
L 501.454545 139.2 
L 507.090909 135.84 
L 512.727273 132.48 
L 518.363636 129.12 
L 524 125.76 
L 529.636364 122.4 
L 535.272727 119.04 
L 540.909091 115.68 
L 546.545455 112.32 
L 552.181818 108.96 
L 557.818182 105.6 
L 563.454545 102.24 
L 569.090909 98.88 
L 574.727273 95.52 
L 580.363636 92.16 
L 586 88.8 
L 591.636364 85.44 
L 597.272727 82.08 
L 602.909091 78.72 
L 608.545455 75.36 
L 614.181818 72 
L 619.818182 68.64 
L 625.454545 65.28 
L 631.090909 61.92 
L 636.727273 58.56 
L 642.363636 55.2 
L 648 51.84 
L 642.363636 51.84 
L 636.727273 51.84 
L 631.090909 51.84 
L 625.454545 51.84 
L 619.818182 51.84 
L 614.181818 51.84 
L 608.545455 51.84 
L 608.297867 51.84 
L 602.909091 55.16681 
L 602.855329 55.2 
L 597.412792 58.56 
L 597.272727 58.64647 
L 591.970254 61.92 
L 591.636364 62.12613 
L 586.527716 65.28 
L 586 65.60579 
L 581.085179 68.64 
L 580.363636 69.085451 
L 575.642641 72 
L 574.727273 72.565111 
L 570.200104 75.36 
L 569.090909 76.044771 
L 564.09329 78.72 
L 563.454545 79.06192 
L 557.818182 82.001984 
L 557.668618 82.08 
L 552.181818 84.942048 
L 551.2272 85.44 
L 546.545455 88.188783 
L 545.662105 88.8 
L 541.050051 92.16 
L 540.909091 92.262693 
L 536.437996 95.52 
L 535.272727 96.368928 
L 531.825941 98.88 
L 529.636364 100.261579 
L 526.50089 102.24 
L 524 103.783565 
L 521.057005 105.6 
L 518.363636 107.262364 
L 515.613121 108.96 
L 512.727273 110.741164 
L 510.169237 112.32 
L 507.090909 114.219963 
L 504.725352 115.68 
L 501.454545 117.698763 
L 499.281468 119.04 
L 495.818182 121.177562 
L 493.837584 122.4 
L 490.181818 124.656362 
L 488.408763 125.76 
L 484.545455 128.164716 
L 483.015892 129.12 
L 478.909091 131.684892 
L 477.635995 132.48 
L 473.272727 135.205067 
L 472.256099 135.84 
L 467.636364 138.725243 
L 466.876202 139.2 
L 462 142.245419 
L 461.496306 142.56 
L 456.363636 145.765595 
L 456.116409 145.92 
L 450.727273 149.239978 
L 450.662308 149.28 
L 445.178524 152.64 
L 445.090909 152.693683 
L 439.69474 156 
L 439.454545 156.147171 
L 434.210957 159.36 
L 433.818182 159.600659 
L 428.727173 162.72 
L 428.181818 163.054148 
L 423.24339 166.08 
L 422.545455 166.507636 
L 417.759606 169.44 
L 416.909091 169.961124 
L 412.275823 172.8 
L 411.272727 173.414612 
L 406.243777 176.16 
L 405.636364 176.491597 
L 400 179.286204 
L 399.528464 179.52 
L 394.363636 182.080812 
L 392.797452 182.88 
L 388.727273 185.381683 
L 387.533737 186.24 
L 383.090909 189.435007 
L 382.861478 189.6 
L 378.189219 192.96 
L 377.454545 193.432934 
L 372.969664 196.32 
L 371.818182 197.007205 
L 367.339637 199.68 
L 366.181818 200.370986 
L 361.70961 203.04 
L 360.545455 203.734768 
L 356.079583 206.4 
L 354.909091 207.09855 
L 350.449556 209.76 
L 349.272727 210.462332 
L 344.819529 213.12 
L 343.636364 213.826113 
L 339.189502 216.48 
L 338 217.189895 
L 333.559475 219.84 
L 332.363636 220.553677 
L 327.90906 223.2 
L 326.727273 223.902062 
L 322.225546 226.56 
L 321.090909 227.22992 
L 316.534743 229.92 
L 315.454545 230.557777 
L 310.84394 233.28 
L 309.818182 233.885635 
L 305.153137 236.64 
L 304.181818 237.213492 
L 299.462334 240 
L 298.545455 240.540247 
L 293.759914 243.36 
L 292.909091 243.859967 
L 288.042006 246.72 
L 287.272727 247.172049 
L 282.324097 250.08 
L 281.636364 250.484131 
L 276.606189 253.44 
L 276 253.796213 
L 270.88828 256.8 
L 270.363636 257.108295 
L 265.170372 260.16 
L 264.727273 260.420377 
L 259.452463 263.52 
L 259.090909 263.732459 
L 253.734555 266.88 
L 253.454545 267.044541 
L 247.818182 270.216094 
L 247.770404 270.24 
L 242.181818 273.036323 
L 241.055283 273.6 
L 236.545455 275.856553 
L 234.340163 276.96 
L 230.909091 278.856709 
L 228.699144 280.32 
L 225.272727 282.782307 
L 224.023546 283.68 
L 219.636364 286.832738 
L 219.347948 287.04 
L 214.379437 290.4 
L 214 290.623637 
L 208.678642 293.76 
L 208.363636 293.945662 
L 202.977847 297.12 
L 202.727273 297.267686 
L 197.277052 300.48 
L 197.090909 300.589711 
L 191.576257 303.84 
L 191.454545 303.911736 
L 185.875462 307.2 
L 185.818182 307.23376 
L 180.181818 310.555785 
L 180.174667 310.56 
L 174.545455 313.87781 
L 174.473196 313.92 
L 168.909091 317.168771 
L 168.707154 317.28 
L 163.272727 320.273352 
L 162.607078 320.64 
L 157.636364 323.377933 
L 156.507001 324 
L 152 326.482514 
L 150.406924 327.36 
L 146.363636 329.587095 
L 144.306848 330.72 
L 140.727273 332.691675 
L 138.206771 334.08 
L 135.090909 335.791756 
L 132.090655 337.44 
L 129.454545 338.865762 
L 125.878307 340.8 
L 123.818182 341.914236 
L 119.665959 344.16 
L 118.181818 344.96271 
L 113.453611 347.52 
L 112.545455 348.011184 
L 107.241263 350.88 
L 106.909091 351.059658 
L 101.272727 354.108132 
L 101.028915 354.24 
L 95.636364 357.156606 
L 94.816567 357.6 
L 90 360.20508 
L 90 360.96 
L 90 364.32 
L 90 367.68 
L 90 371.04 
L 90 374.4 
L 90 377.76 
L 90 381.12 
z
" clip-path="url(#p1928a3d452)" style="fill: #443983"/>
    <path d="M 94.816567 357.6 
L 95.636364 357.156606 
L 101.028915 354.24 
L 101.272727 354.108132 
L 106.909091 351.059658 
L 107.241263 350.88 
L 112.545455 348.011184 
L 113.453611 347.52 
L 118.181818 344.96271 
L 119.665959 344.16 
L 123.818182 341.914236 
L 125.878307 340.8 
L 129.454545 338.865762 
L 132.090655 337.44 
L 135.090909 335.791756 
L 138.206771 334.08 
L 140.727273 332.691675 
L 144.306848 330.72 
L 146.363636 329.587095 
L 150.406924 327.36 
L 152 326.482514 
L 156.507001 324 
L 157.636364 323.377933 
L 162.607078 320.64 
L 163.272727 320.273352 
L 168.707154 317.28 
L 168.909091 317.168771 
L 174.473196 313.92 
L 174.545455 313.87781 
L 180.174667 310.56 
L 180.181818 310.555785 
L 185.818182 307.23376 
L 185.875462 307.2 
L 191.454545 303.911736 
L 191.576257 303.84 
L 197.090909 300.589711 
L 197.277052 300.48 
L 202.727273 297.267686 
L 202.977847 297.12 
L 208.363636 293.945662 
L 208.678642 293.76 
L 214 290.623637 
L 214.379437 290.4 
L 219.347948 287.04 
L 219.636364 286.832738 
L 224.023546 283.68 
L 225.272727 282.782307 
L 228.699144 280.32 
L 230.909091 278.856709 
L 234.340163 276.96 
L 236.545455 275.856553 
L 241.055283 273.6 
L 242.181818 273.036323 
L 247.770404 270.24 
L 247.818182 270.216094 
L 253.454545 267.044541 
L 253.734555 266.88 
L 259.090909 263.732459 
L 259.452463 263.52 
L 264.727273 260.420377 
L 265.170372 260.16 
L 270.363636 257.108295 
L 270.88828 256.8 
L 276 253.796213 
L 276.606189 253.44 
L 281.636364 250.484131 
L 282.324097 250.08 
L 287.272727 247.172049 
L 288.042006 246.72 
L 292.909091 243.859967 
L 293.759914 243.36 
L 298.545455 240.540247 
L 299.462334 240 
L 304.181818 237.213492 
L 305.153137 236.64 
L 309.818182 233.885635 
L 310.84394 233.28 
L 315.454545 230.557777 
L 316.534743 229.92 
L 321.090909 227.22992 
L 322.225546 226.56 
L 326.727273 223.902062 
L 327.90906 223.2 
L 332.363636 220.553677 
L 333.559475 219.84 
L 338 217.189895 
L 339.189502 216.48 
L 343.636364 213.826113 
L 344.819529 213.12 
L 349.272727 210.462332 
L 350.449556 209.76 
L 354.909091 207.09855 
L 356.079583 206.4 
L 360.545455 203.734768 
L 361.70961 203.04 
L 366.181818 200.370986 
L 367.339637 199.68 
L 371.818182 197.007205 
L 372.969664 196.32 
L 377.454545 193.432934 
L 378.189219 192.96 
L 382.861478 189.6 
L 383.090909 189.435007 
L 387.533737 186.24 
L 388.727273 185.381683 
L 392.797452 182.88 
L 394.363636 182.080812 
L 399.528464 179.52 
L 400 179.286204 
L 405.636364 176.491597 
L 406.243777 176.16 
L 411.272727 173.414612 
L 412.275823 172.8 
L 416.909091 169.961124 
L 417.759606 169.44 
L 422.545455 166.507636 
L 423.24339 166.08 
L 428.181818 163.054148 
L 428.727173 162.72 
L 433.818182 159.600659 
L 434.210957 159.36 
L 439.454545 156.147171 
L 439.69474 156 
L 445.090909 152.693683 
L 445.178524 152.64 
L 450.662308 149.28 
L 450.727273 149.239978 
L 456.116409 145.92 
L 456.363636 145.765595 
L 461.496306 142.56 
L 462 142.245419 
L 466.876202 139.2 
L 467.636364 138.725243 
L 472.256099 135.84 
L 473.272727 135.205067 
L 477.635995 132.48 
L 478.909091 131.684892 
L 483.015892 129.12 
L 484.545455 128.164716 
L 488.408763 125.76 
L 490.181818 124.656362 
L 493.837584 122.4 
L 495.818182 121.177562 
L 499.281468 119.04 
L 501.454545 117.698763 
L 504.725352 115.68 
L 507.090909 114.219963 
L 510.169237 112.32 
L 512.727273 110.741164 
L 515.613121 108.96 
L 518.363636 107.262364 
L 521.057005 105.6 
L 524 103.783565 
L 526.50089 102.24 
L 529.636364 100.261579 
L 531.825941 98.88 
L 535.272727 96.368928 
L 536.437996 95.52 
L 540.909091 92.262693 
L 541.050051 92.16 
L 545.662105 88.8 
L 546.545455 88.188783 
L 551.2272 85.44 
L 552.181818 84.942048 
L 557.668618 82.08 
L 557.818182 82.001984 
L 563.454545 79.06192 
L 564.09329 78.72 
L 569.090909 76.044771 
L 570.200104 75.36 
L 574.727273 72.565111 
L 575.642641 72 
L 580.363636 69.085451 
L 581.085179 68.64 
L 586 65.60579 
L 586.527716 65.28 
L 591.636364 62.12613 
L 591.970254 61.92 
L 597.272727 58.64647 
L 597.412792 58.56 
L 602.855329 55.2 
L 602.909091 55.16681 
L 608.297867 51.84 
L 602.909091 51.84 
L 597.272727 51.84 
L 591.636364 51.84 
L 586 51.84 
L 580.363636 51.84 
L 574.727273 51.84 
L 569.090909 51.84 
L 563.454545 51.84 
L 557.818182 51.84 
L 557.24685 51.84 
L 552.181818 54.482043 
L 550.805431 55.2 
L 546.545455 57.422107 
L 544.364013 58.56 
L 540.909091 60.362171 
L 537.922594 61.92 
L 535.272727 63.302235 
L 531.481175 65.28 
L 529.636364 66.242298 
L 525.039757 68.64 
L 524 69.182362 
L 519.209175 72 
L 518.363636 72.589339 
L 514.560529 75.36 
L 512.727273 76.695574 
L 509.948474 78.72 
L 507.090909 80.80181 
L 505.33642 82.08 
L 501.454545 84.908045 
L 500.724365 85.44 
L 496.11231 88.8 
L 495.818182 89.01428 
L 491.500256 92.16 
L 490.181818 93.120515 
L 486.516084 95.52 
L 484.545455 96.809917 
L 481.233267 98.88 
L 478.909091 100.342433 
L 475.893379 102.24 
L 473.272727 103.890849 
L 470.559524 105.6 
L 467.636364 107.441411 
L 465.22567 108.96 
L 462 110.991974 
L 459.891816 112.32 
L 456.363636 114.542536 
L 454.557961 115.68 
L 450.727273 118.093098 
L 449.224107 119.04 
L 445.090909 121.64366 
L 443.890253 122.4 
L 439.454545 125.194223 
L 438.556398 125.76 
L 433.818182 128.744785 
L 433.222544 129.12 
L 428.181818 132.295347 
L 427.88869 132.48 
L 422.554601 135.84 
L 422.545455 135.845753 
L 417.213182 139.2 
L 416.909091 139.391287 
L 411.871763 142.56 
L 411.272727 142.936821 
L 406.406962 145.92 
L 405.636364 146.341259 
L 400.006298 149.28 
L 400 149.283122 
L 394.363636 152.07773 
L 393.22961 152.64 
L 388.727273 154.872337 
L 386.452922 156 
L 383.090909 157.666945 
L 379.676234 159.36 
L 377.454545 160.461552 
L 372.899546 162.72 
L 371.818182 163.256159 
L 366.181818 166.050767 
L 366.124529 166.08 
L 360.64155 169.44 
L 360.545455 169.509106 
L 355.969291 172.8 
L 354.909091 173.562431 
L 351.297032 176.16 
L 349.272727 177.615755 
L 346.624774 179.52 
L 343.636364 181.66908 
L 341.952515 182.88 
L 338 185.722405 
L 337.280256 186.24 
L 332.607997 189.6 
L 332.363636 189.775729 
L 327.582041 192.96 
L 326.727273 193.510816 
L 321.980971 196.32 
L 321.090909 196.844697 
L 316.281285 199.68 
L 315.454545 200.167368 
L 310.581599 203.04 
L 309.818182 203.490039 
L 304.881912 206.4 
L 304.181818 206.81271 
L 299.182226 209.76 
L 298.545455 210.13538 
L 293.482539 213.12 
L 292.909091 213.458051 
L 287.782853 216.48 
L 287.272727 216.780722 
L 282.083166 219.84 
L 281.636364 220.103393 
L 276.38348 223.2 
L 276 223.426064 
L 270.683794 226.56 
L 270.363636 226.748735 
L 264.984107 229.92 
L 264.727273 230.071405 
L 259.284421 233.28 
L 259.090909 233.394076 
L 253.584734 236.64 
L 253.454545 236.716747 
L 247.912974 240 
L 247.818182 240.053176 
L 242.181818 243.169102 
L 241.836506 243.36 
L 236.545455 246.007448 
L 235.121385 246.72 
L 230.909091 248.827678 
L 228.406265 250.08 
L 225.272727 251.647907 
L 221.691144 253.44 
L 219.636364 254.468137 
L 214.976023 256.8 
L 214 257.288366 
L 208.363636 260.108596 
L 208.260903 260.16 
L 202.727273 263.219011 
L 202.272701 263.52 
L 197.597104 266.88 
L 197.090909 267.243764 
L 192.921506 270.24 
L 191.454545 271.294194 
L 188.245908 273.6 
L 185.818182 275.344624 
L 183.570311 276.96 
L 180.181818 279.395054 
L 178.894713 280.32 
L 174.545455 283.445485 
L 174.20905 283.68 
L 169.389248 287.04 
L 168.909091 287.362521 
L 163.500872 290.4 
L 163.272727 290.524228 
L 157.636364 293.58936 
L 157.322278 293.76 
L 152 296.651546 
L 151.137749 297.12 
L 146.363636 299.713733 
L 144.953219 300.48 
L 140.727273 302.775919 
L 138.76869 303.84 
L 135.090909 305.838106 
L 132.584161 307.2 
L 129.454545 308.900292 
L 126.399631 310.56 
L 123.818182 311.962479 
L 120.215102 313.92 
L 118.181818 315.024665 
L 114.030573 317.28 
L 112.545455 318.086852 
L 107.846043 320.64 
L 106.909091 321.149038 
L 101.661514 324 
L 101.272727 324.211224 
L 95.636364 327.273411 
L 95.476985 327.36 
L 90 330.335597 
L 90 330.72 
L 90 334.08 
L 90 337.44 
L 90 340.8 
L 90 344.16 
L 90 347.52 
L 90 350.88 
L 90 354.24 
L 90 357.6 
L 90 360.20508 
z
" clip-path="url(#p1928a3d452)" style="fill: #375a8c"/>
    <path d="M 95.476985 327.36 
L 95.636364 327.273411 
L 101.272727 324.211224 
L 101.661514 324 
L 106.909091 321.149038 
L 107.846043 320.64 
L 112.545455 318.086852 
L 114.030573 317.28 
L 118.181818 315.024665 
L 120.215102 313.92 
L 123.818182 311.962479 
L 126.399631 310.56 
L 129.454545 308.900292 
L 132.584161 307.2 
L 135.090909 305.838106 
L 138.76869 303.84 
L 140.727273 302.775919 
L 144.953219 300.48 
L 146.363636 299.713733 
L 151.137749 297.12 
L 152 296.651546 
L 157.322278 293.76 
L 157.636364 293.58936 
L 163.272727 290.524228 
L 163.500872 290.4 
L 168.909091 287.362521 
L 169.389248 287.04 
L 174.20905 283.68 
L 174.545455 283.445485 
L 178.894713 280.32 
L 180.181818 279.395054 
L 183.570311 276.96 
L 185.818182 275.344624 
L 188.245908 273.6 
L 191.454545 271.294194 
L 192.921506 270.24 
L 197.090909 267.243764 
L 197.597104 266.88 
L 202.272701 263.52 
L 202.727273 263.219011 
L 208.260903 260.16 
L 208.363636 260.108596 
L 214 257.288366 
L 214.976023 256.8 
L 219.636364 254.468137 
L 221.691144 253.44 
L 225.272727 251.647907 
L 228.406265 250.08 
L 230.909091 248.827678 
L 235.121385 246.72 
L 236.545455 246.007448 
L 241.836506 243.36 
L 242.181818 243.169102 
L 247.818182 240.053176 
L 247.912974 240 
L 253.454545 236.716747 
L 253.584734 236.64 
L 259.090909 233.394076 
L 259.284421 233.28 
L 264.727273 230.071405 
L 264.984107 229.92 
L 270.363636 226.748735 
L 270.683794 226.56 
L 276 223.426064 
L 276.38348 223.2 
L 281.636364 220.103393 
L 282.083166 219.84 
L 287.272727 216.780722 
L 287.782853 216.48 
L 292.909091 213.458051 
L 293.482539 213.12 
L 298.545455 210.13538 
L 299.182226 209.76 
L 304.181818 206.81271 
L 304.881912 206.4 
L 309.818182 203.490039 
L 310.581599 203.04 
L 315.454545 200.167368 
L 316.281285 199.68 
L 321.090909 196.844697 
L 321.980971 196.32 
L 326.727273 193.510816 
L 327.582041 192.96 
L 332.363636 189.775729 
L 332.607997 189.6 
L 337.280256 186.24 
L 338 185.722405 
L 341.952515 182.88 
L 343.636364 181.66908 
L 346.624774 179.52 
L 349.272727 177.615755 
L 351.297032 176.16 
L 354.909091 173.562431 
L 355.969291 172.8 
L 360.545455 169.509106 
L 360.64155 169.44 
L 366.124529 166.08 
L 366.181818 166.050767 
L 371.818182 163.256159 
L 372.899546 162.72 
L 377.454545 160.461552 
L 379.676234 159.36 
L 383.090909 157.666945 
L 386.452922 156 
L 388.727273 154.872337 
L 393.22961 152.64 
L 394.363636 152.07773 
L 400 149.283122 
L 400.006298 149.28 
L 405.636364 146.341259 
L 406.406962 145.92 
L 411.272727 142.936821 
L 411.871763 142.56 
L 416.909091 139.391287 
L 417.213182 139.2 
L 422.545455 135.845753 
L 422.554601 135.84 
L 427.88869 132.48 
L 428.181818 132.295347 
L 433.222544 129.12 
L 433.818182 128.744785 
L 438.556398 125.76 
L 439.454545 125.194223 
L 443.890253 122.4 
L 445.090909 121.64366 
L 449.224107 119.04 
L 450.727273 118.093098 
L 454.557961 115.68 
L 456.363636 114.542536 
L 459.891816 112.32 
L 462 110.991974 
L 465.22567 108.96 
L 467.636364 107.441411 
L 470.559524 105.6 
L 473.272727 103.890849 
L 475.893379 102.24 
L 478.909091 100.342433 
L 481.233267 98.88 
L 484.545455 96.809917 
L 486.516084 95.52 
L 490.181818 93.120515 
L 491.500256 92.16 
L 495.818182 89.01428 
L 496.11231 88.8 
L 500.724365 85.44 
L 501.454545 84.908045 
L 505.33642 82.08 
L 507.090909 80.80181 
L 509.948474 78.72 
L 512.727273 76.695574 
L 514.560529 75.36 
L 518.363636 72.589339 
L 519.209175 72 
L 524 69.182362 
L 525.039757 68.64 
L 529.636364 66.242298 
L 531.481175 65.28 
L 535.272727 63.302235 
L 537.922594 61.92 
L 540.909091 60.362171 
L 544.364013 58.56 
L 546.545455 57.422107 
L 550.805431 55.2 
L 552.181818 54.482043 
L 557.24685 51.84 
L 552.181818 51.84 
L 546.545455 51.84 
L 540.909091 51.84 
L 535.272727 51.84 
L 529.636364 51.84 
L 524 51.84 
L 518.363636 51.84 
L 512.727273 51.84 
L 507.090909 51.84 
L 501.454545 51.84 
L 498.852313 51.84 
L 495.818182 53.422677 
L 492.796202 55.2 
L 490.181818 57.02222 
L 487.832525 58.56 
L 484.545455 60.711622 
L 482.612018 61.92 
L 478.909091 64.234291 
L 477.235928 65.28 
L 473.272727 67.756959 
L 471.859838 68.64 
L 467.636364 71.279628 
L 466.483749 72 
L 462 74.802296 
L 461.107659 75.36 
L 456.363636 78.324965 
L 455.731569 78.72 
L 450.727273 81.847633 
L 450.35548 82.08 
L 445.090909 85.370302 
L 444.97939 85.44 
L 439.6033 88.8 
L 439.454545 88.89297 
L 434.227211 92.16 
L 433.818182 92.415639 
L 428.851121 95.52 
L 428.181818 95.938307 
L 423.475031 98.88 
L 422.545455 99.464914 
L 418.135143 102.24 
L 416.909091 103.012337 
L 412.801289 105.6 
L 411.272727 106.5629 
L 407.365825 108.96 
L 405.636364 110.02112 
L 401.812976 112.32 
L 400 113.410084 
L 396.224784 115.68 
L 394.363636 116.799048 
L 390.636593 119.04 
L 388.727273 120.188013 
L 385.048401 122.4 
L 383.090909 123.576977 
L 379.460209 125.76 
L 377.454545 126.965941 
L 373.872017 129.12 
L 371.818182 130.354905 
L 368.283825 132.48 
L 366.181818 133.743869 
L 362.695634 135.84 
L 360.545455 137.132833 
L 357.107442 139.2 
L 354.909091 140.521798 
L 351.51925 142.56 
L 349.272727 143.910762 
L 345.931058 145.92 
L 343.636364 147.117768 
L 339.493941 149.28 
L 338 150.039135 
L 333.749363 152.64 
L 332.363636 153.636529 
L 328.814579 156 
L 326.727273 157.390027 
L 323.416486 159.36 
L 321.090909 160.743757 
L 317.769583 162.72 
L 315.454545 164.097486 
L 312.122681 166.08 
L 309.818182 167.451215 
L 306.475779 169.44 
L 304.181818 170.804944 
L 300.828876 172.8 
L 298.545455 174.158673 
L 295.181974 176.16 
L 292.909091 177.512403 
L 289.535071 179.52 
L 287.272727 180.866132 
L 283.888169 182.88 
L 281.636364 184.219861 
L 278.241266 186.24 
L 276 187.57359 
L 272.594364 189.6 
L 270.363636 190.92732 
L 266.947462 192.96 
L 264.727273 194.273796 
L 261.269385 196.32 
L 259.090909 197.603826 
L 255.567928 199.68 
L 253.454545 200.925465 
L 249.884963 203.04 
L 247.818182 204.264312 
L 244.258749 206.4 
L 242.181818 207.646176 
L 238.658825 209.76 
L 236.545455 211.02804 
L 233.058901 213.12 
L 230.909091 214.409904 
L 227.458977 216.48 
L 225.272727 217.791768 
L 221.859053 219.84 
L 219.636364 221.173632 
L 216.259129 223.2 
L 214 224.555496 
L 210.659205 226.56 
L 208.363636 227.93736 
L 205.059281 229.92 
L 202.727273 231.319224 
L 199.459356 233.28 
L 197.090909 234.701088 
L 193.859432 236.64 
L 191.454545 238.082952 
L 188.259508 240 
L 185.818182 241.349628 
L 182.181643 243.36 
L 180.181818 244.360639 
L 175.945324 246.72 
L 174.545455 247.65479 
L 171.066576 250.08 
L 168.909091 251.584035 
L 165.642234 253.44 
L 163.272727 254.786163 
L 159.727986 256.8 
L 157.636364 257.988292 
L 153.813739 260.16 
L 152 261.190421 
L 147.899491 263.52 
L 146.363636 264.392549 
L 141.985244 266.88 
L 140.727273 267.594678 
L 136.070996 270.24 
L 135.090909 270.796807 
L 130.156749 273.6 
L 129.454545 273.998935 
L 124.242501 276.96 
L 123.818182 277.201064 
L 118.328253 280.32 
L 118.181818 280.403193 
L 112.545455 283.605321 
L 112.414006 283.68 
L 106.909091 286.80745 
L 106.499758 287.04 
L 101.272727 289.971304 
L 100.508287 290.4 
L 95.636364 293.046873 
L 94.323758 293.76 
L 90 296.109059 
L 90 297.12 
L 90 300.48 
L 90 303.84 
L 90 307.2 
L 90 310.56 
L 90 313.92 
L 90 317.28 
L 90 320.64 
L 90 324 
L 90 327.36 
L 90 330.335597 
z
" clip-path="url(#p1928a3d452)" style="fill: #2b758e"/>
    <path d="M 94.323758 293.76 
L 95.636364 293.046873 
L 100.508287 290.4 
L 101.272727 289.971304 
L 106.499758 287.04 
L 106.909091 286.80745 
L 112.414006 283.68 
L 112.545455 283.605321 
L 118.181818 280.403193 
L 118.328253 280.32 
L 123.818182 277.201064 
L 124.242501 276.96 
L 129.454545 273.998935 
L 130.156749 273.6 
L 135.090909 270.796807 
L 136.070996 270.24 
L 140.727273 267.594678 
L 141.985244 266.88 
L 146.363636 264.392549 
L 147.899491 263.52 
L 152 261.190421 
L 153.813739 260.16 
L 157.636364 257.988292 
L 159.727986 256.8 
L 163.272727 254.786163 
L 165.642234 253.44 
L 168.909091 251.584035 
L 171.066576 250.08 
L 174.545455 247.65479 
L 175.945324 246.72 
L 180.181818 244.360639 
L 182.181643 243.36 
L 185.818182 241.349628 
L 188.259508 240 
L 191.454545 238.082952 
L 193.859432 236.64 
L 197.090909 234.701088 
L 199.459356 233.28 
L 202.727273 231.319224 
L 205.059281 229.92 
L 208.363636 227.93736 
L 210.659205 226.56 
L 214 224.555496 
L 216.259129 223.2 
L 219.636364 221.173632 
L 221.859053 219.84 
L 225.272727 217.791768 
L 227.458977 216.48 
L 230.909091 214.409904 
L 233.058901 213.12 
L 236.545455 211.02804 
L 238.658825 209.76 
L 242.181818 207.646176 
L 244.258749 206.4 
L 247.818182 204.264312 
L 249.884963 203.04 
L 253.454545 200.925465 
L 255.567928 199.68 
L 259.090909 197.603826 
L 261.269385 196.32 
L 264.727273 194.273796 
L 266.947462 192.96 
L 270.363636 190.92732 
L 272.594364 189.6 
L 276 187.57359 
L 278.241266 186.24 
L 281.636364 184.219861 
L 283.888169 182.88 
L 287.272727 180.866132 
L 289.535071 179.52 
L 292.909091 177.512403 
L 295.181974 176.16 
L 298.545455 174.158673 
L 300.828876 172.8 
L 304.181818 170.804944 
L 306.475779 169.44 
L 309.818182 167.451215 
L 312.122681 166.08 
L 315.454545 164.097486 
L 317.769583 162.72 
L 321.090909 160.743757 
L 323.416486 159.36 
L 326.727273 157.390027 
L 328.814579 156 
L 332.363636 153.636529 
L 333.749363 152.64 
L 338 150.039135 
L 339.493941 149.28 
L 343.636364 147.117768 
L 345.931058 145.92 
L 349.272727 143.910762 
L 351.51925 142.56 
L 354.909091 140.521798 
L 357.107442 139.2 
L 360.545455 137.132833 
L 362.695634 135.84 
L 366.181818 133.743869 
L 368.283825 132.48 
L 371.818182 130.354905 
L 373.872017 129.12 
L 377.454545 126.965941 
L 379.460209 125.76 
L 383.090909 123.576977 
L 385.048401 122.4 
L 388.727273 120.188013 
L 390.636593 119.04 
L 394.363636 116.799048 
L 396.224784 115.68 
L 400 113.410084 
L 401.812976 112.32 
L 405.636364 110.02112 
L 407.365825 108.96 
L 411.272727 106.5629 
L 412.801289 105.6 
L 416.909091 103.012337 
L 418.135143 102.24 
L 422.545455 99.464914 
L 423.475031 98.88 
L 428.181818 95.938307 
L 428.851121 95.52 
L 433.818182 92.415639 
L 434.227211 92.16 
L 439.454545 88.89297 
L 439.6033 88.8 
L 444.97939 85.44 
L 445.090909 85.370302 
L 450.35548 82.08 
L 450.727273 81.847633 
L 455.731569 78.72 
L 456.363636 78.324965 
L 461.107659 75.36 
L 462 74.802296 
L 466.483749 72 
L 467.636364 71.279628 
L 471.859838 68.64 
L 473.272727 67.756959 
L 477.235928 65.28 
L 478.909091 64.234291 
L 482.612018 61.92 
L 484.545455 60.711622 
L 487.832525 58.56 
L 490.181818 57.02222 
L 492.796202 55.2 
L 495.818182 53.422677 
L 498.852313 51.84 
L 495.818182 51.84 
L 490.181818 51.84 
L 484.545455 51.84 
L 478.909091 51.84 
L 473.272727 51.84 
L 467.636364 51.84 
L 462 51.84 
L 456.363636 51.84 
L 450.727273 51.84 
L 445.090909 51.84 
L 439.454545 51.84 
L 433.818182 51.84 
L 429.809098 51.84 
L 428.181818 52.868726 
L 424.494115 55.2 
L 422.545455 56.431895 
L 419.179132 58.56 
L 416.909091 59.995063 
L 413.864149 61.92 
L 411.272727 63.558232 
L 408.238184 65.28 
L 405.636364 66.756246 
L 402.005382 68.64 
L 400 69.680393 
L 395.528901 72 
L 394.363636 72.60454 
L 389.05242 75.36 
L 388.727273 75.528687 
L 383.090909 78.452834 
L 382.575939 78.72 
L 377.454545 81.54775 
L 376.624909 82.08 
L 371.836375 85.44 
L 371.818182 85.452766 
L 367.047841 88.8 
L 366.181818 89.407668 
L 362.259308 92.16 
L 360.545455 93.36257 
L 357.470774 95.52 
L 354.909091 97.317472 
L 352.682241 98.88 
L 349.272727 100.976545 
L 347.21803 102.24 
L 343.636364 104.397931 
L 341.641208 105.6 
L 338 107.793804 
L 336.064385 108.96 
L 332.363636 111.189677 
L 330.381497 112.32 
L 326.727273 114.403835 
L 324.306937 115.68 
L 321.090909 117.375707 
L 317.934461 119.04 
L 315.454545 120.347579 
L 311.561985 122.4 
L 309.818182 123.319451 
L 305.18951 125.76 
L 304.181818 126.291323 
L 298.93882 129.12 
L 298.545455 129.367875 
L 294.198713 132.48 
L 292.909091 133.403328 
L 289.505763 135.84 
L 287.272727 137.438781 
L 284.812812 139.2 
L 281.636364 141.474234 
L 280.119861 142.56 
L 276 145.509687 
L 275.426911 145.92 
L 270.363636 149.084589 
L 270.050982 149.28 
L 264.727273 152.446452 
L 264.401863 152.64 
L 259.090909 155.798865 
L 258.752744 156 
L 253.454545 159.151278 
L 253.101932 159.36 
L 247.818182 162.487596 
L 247.420766 162.72 
L 242.181818 165.783674 
L 241.675095 166.08 
L 236.545455 169.079753 
L 235.929425 169.44 
L 230.909091 172.375831 
L 230.183754 172.8 
L 225.272727 175.67191 
L 224.438083 176.16 
L 219.636364 178.967988 
L 218.692412 179.52 
L 214 182.264067 
L 212.946741 182.88 
L 208.363636 185.560145 
L 207.201071 186.24 
L 202.727273 188.856224 
L 201.4554 189.6 
L 197.090909 192.152302 
L 195.709729 192.96 
L 191.454545 195.487335 
L 190.052618 196.32 
L 185.818182 198.864891 
L 184.461925 199.68 
L 180.181818 202.25234 
L 178.871233 203.04 
L 174.545455 205.639788 
L 173.24412 206.4 
L 168.909091 208.932431 
L 167.196607 209.76 
L 163.272727 211.65624 
L 160.243775 213.12 
L 157.636364 214.380048 
L 153.290944 216.48 
L 152 217.103857 
L 146.363636 219.827666 
L 146.338113 219.84 
L 140.727273 222.551474 
L 139.509464 223.2 
L 135.090909 225.950999 
L 134.176234 226.56 
L 129.454545 229.703753 
L 129.129758 229.92 
L 124.083281 233.28 
L 123.818182 233.456506 
L 119.036805 236.64 
L 118.181818 237.20926 
L 113.990329 240 
L 112.545455 240.891039 
L 108.541882 243.36 
L 106.909091 244.276745 
L 102.557473 246.72 
L 101.272727 247.441332 
L 96.573064 250.08 
L 95.636364 250.605919 
L 90.588656 253.44 
L 90 253.770506 
L 90 256.8 
L 90 260.16 
L 90 263.52 
L 90 266.88 
L 90 270.24 
L 90 273.6 
L 90 276.96 
L 90 280.32 
L 90 283.68 
L 90 287.04 
L 90 290.4 
L 90 293.76 
L 90 296.109059 
z
" clip-path="url(#p1928a3d452)" style="fill: #21918c"/>
    <path d="M 90.588656 253.44 
L 95.636364 250.605919 
L 96.573064 250.08 
L 101.272727 247.441332 
L 102.557473 246.72 
L 106.909091 244.276745 
L 108.541882 243.36 
L 112.545455 240.891039 
L 113.990329 240 
L 118.181818 237.20926 
L 119.036805 236.64 
L 123.818182 233.456506 
L 124.083281 233.28 
L 129.129758 229.92 
L 129.454545 229.703753 
L 134.176234 226.56 
L 135.090909 225.950999 
L 139.509464 223.2 
L 140.727273 222.551474 
L 146.338113 219.84 
L 146.363636 219.827666 
L 152 217.103857 
L 153.290944 216.48 
L 157.636364 214.380048 
L 160.243775 213.12 
L 163.272727 211.65624 
L 167.196607 209.76 
L 168.909091 208.932431 
L 173.24412 206.4 
L 174.545455 205.639788 
L 178.871233 203.04 
L 180.181818 202.25234 
L 184.461925 199.68 
L 185.818182 198.864891 
L 190.052618 196.32 
L 191.454545 195.487335 
L 195.709729 192.96 
L 197.090909 192.152302 
L 201.4554 189.6 
L 202.727273 188.856224 
L 207.201071 186.24 
L 208.363636 185.560145 
L 212.946741 182.88 
L 214 182.264067 
L 218.692412 179.52 
L 219.636364 178.967988 
L 224.438083 176.16 
L 225.272727 175.67191 
L 230.183754 172.8 
L 230.909091 172.375831 
L 235.929425 169.44 
L 236.545455 169.079753 
L 241.675095 166.08 
L 242.181818 165.783674 
L 247.420766 162.72 
L 247.818182 162.487596 
L 253.101932 159.36 
L 253.454545 159.151278 
L 258.752744 156 
L 259.090909 155.798865 
L 264.401863 152.64 
L 264.727273 152.446452 
L 270.050982 149.28 
L 270.363636 149.084589 
L 275.426911 145.92 
L 276 145.509687 
L 280.119861 142.56 
L 281.636364 141.474234 
L 284.812812 139.2 
L 287.272727 137.438781 
L 289.505763 135.84 
L 292.909091 133.403328 
L 294.198713 132.48 
L 298.545455 129.367875 
L 298.93882 129.12 
L 304.181818 126.291323 
L 305.18951 125.76 
L 309.818182 123.319451 
L 311.561985 122.4 
L 315.454545 120.347579 
L 317.934461 119.04 
L 321.090909 117.375707 
L 324.306937 115.68 
L 326.727273 114.403835 
L 330.381497 112.32 
L 332.363636 111.189677 
L 336.064385 108.96 
L 338 107.793804 
L 341.641208 105.6 
L 343.636364 104.397931 
L 347.21803 102.24 
L 349.272727 100.976545 
L 352.682241 98.88 
L 354.909091 97.317472 
L 357.470774 95.52 
L 360.545455 93.36257 
L 362.259308 92.16 
L 366.181818 89.407668 
L 367.047841 88.8 
L 371.818182 85.452766 
L 371.836375 85.44 
L 376.624909 82.08 
L 377.454545 81.54775 
L 382.575939 78.72 
L 383.090909 78.452834 
L 388.727273 75.528687 
L 389.05242 75.36 
L 394.363636 72.60454 
L 395.528901 72 
L 400 69.680393 
L 402.005382 68.64 
L 405.636364 66.756246 
L 408.238184 65.28 
L 411.272727 63.558232 
L 413.864149 61.92 
L 416.909091 59.995063 
L 419.179132 58.56 
L 422.545455 56.431895 
L 424.494115 55.2 
L 428.181818 52.868726 
L 429.809098 51.84 
L 428.181818 51.84 
L 422.545455 51.84 
L 416.909091 51.84 
L 411.272727 51.84 
L 405.636364 51.84 
L 400 51.84 
L 394.363636 51.84 
L 388.727273 51.84 
L 383.090909 51.84 
L 377.454545 51.84 
L 371.818182 51.84 
L 366.181818 51.84 
L 360.545455 51.84 
L 354.909091 51.84 
L 349.272727 51.84 
L 347.483717 51.84 
L 343.636364 53.836008 
L 341.007236 55.2 
L 338 56.86043 
L 335.350817 58.56 
L 332.363636 60.656034 
L 330.460443 61.92 
L 326.727273 64.399307 
L 325.293075 65.28 
L 321.090909 67.860409 
L 319.821355 68.64 
L 315.454545 71.321511 
L 314.349634 72 
L 309.818182 74.782613 
L 308.877914 75.36 
L 304.181818 78.243715 
L 303.406194 78.72 
L 298.545455 81.704817 
L 297.934473 82.08 
L 292.909091 85.165919 
L 292.462753 85.44 
L 287.272727 88.627021 
L 286.991033 88.8 
L 281.636364 92.088123 
L 281.519313 92.16 
L 276.047592 95.52 
L 276 95.549225 
L 270.575872 98.88 
L 270.363636 98.994211 
L 264.727273 102.027331 
L 264.332076 102.24 
L 259.090909 105.061464 
L 258.230434 105.6 
L 253.537484 108.96 
L 253.454545 109.019381 
L 248.57945 112.32 
L 247.818182 112.835407 
L 242.911258 115.68 
L 242.181818 116.102864 
L 237.115258 119.04 
L 236.545455 119.370321 
L 231.319258 122.4 
L 230.909091 122.637778 
L 225.523257 125.76 
L 225.272727 125.905235 
L 219.727257 129.12 
L 219.636364 129.172692 
L 214 132.440149 
L 213.931257 132.48 
L 208.363636 135.707606 
L 208.135257 135.84 
L 202.727273 138.975063 
L 202.339257 139.2 
L 197.090909 142.24252 
L 196.543256 142.56 
L 191.454545 145.509977 
L 190.747256 145.92 
L 185.818182 148.786941 
L 184.970475 149.28 
L 180.181818 152.06898 
L 179.20138 152.64 
L 174.545455 155.351675 
L 173.397014 156 
L 168.909091 158.533549 
L 167.101454 159.36 
L 163.272727 161.110491 
L 159.752363 162.72 
L 157.636364 163.687433 
L 152.403271 166.08 
L 152 166.264375 
L 146.363636 168.841317 
L 145.05418 169.44 
L 140.727273 171.418259 
L 137.705089 172.8 
L 135.090909 174.179441 
L 132.073267 176.16 
L 129.454545 177.991677 
L 127.269526 179.52 
L 123.818182 181.934059 
L 122.465785 182.88 
L 118.181818 185.876441 
L 117.662044 186.24 
L 112.858303 189.6 
L 112.545455 189.818823 
L 108.054562 192.96 
L 106.909091 193.598083 
L 102.022769 196.32 
L 101.272727 196.682463 
L 95.643917 199.68 
L 95.636364 199.684703 
L 90.596951 203.04 
L 90 203.437456 
L 90 206.4 
L 90 209.76 
L 90 213.12 
L 90 216.48 
L 90 219.84 
L 90 223.2 
L 90 226.56 
L 90 229.92 
L 90 233.28 
L 90 236.64 
L 90 240 
L 90 243.36 
L 90 246.72 
L 90 250.08 
L 90 253.44 
L 90 253.770506 
z
" clip-path="url(#p1928a3d452)" style="fill: #25ab82"/>
    <path d="M 90.596951 203.04 
L 95.636364 199.684703 
L 95.643917 199.68 
L 101.272727 196.682463 
L 102.022769 196.32 
L 106.909091 193.598083 
L 108.054562 192.96 
L 112.545455 189.818823 
L 112.858303 189.6 
L 117.662044 186.24 
L 118.181818 185.876441 
L 122.465785 182.88 
L 123.818182 181.934059 
L 127.269526 179.52 
L 129.454545 177.991677 
L 132.073267 176.16 
L 135.090909 174.179441 
L 137.705089 172.8 
L 140.727273 171.418259 
L 145.05418 169.44 
L 146.363636 168.841317 
L 152 166.264375 
L 152.403271 166.08 
L 157.636364 163.687433 
L 159.752363 162.72 
L 163.272727 161.110491 
L 167.101454 159.36 
L 168.909091 158.533549 
L 173.397014 156 
L 174.545455 155.351675 
L 179.20138 152.64 
L 180.181818 152.06898 
L 184.970475 149.28 
L 185.818182 148.786941 
L 190.747256 145.92 
L 191.454545 145.509977 
L 196.543256 142.56 
L 197.090909 142.24252 
L 202.339257 139.2 
L 202.727273 138.975063 
L 208.135257 135.84 
L 208.363636 135.707606 
L 213.931257 132.48 
L 214 132.440149 
L 219.636364 129.172692 
L 219.727257 129.12 
L 225.272727 125.905235 
L 225.523257 125.76 
L 230.909091 122.637778 
L 231.319258 122.4 
L 236.545455 119.370321 
L 237.115258 119.04 
L 242.181818 116.102864 
L 242.911258 115.68 
L 247.818182 112.835407 
L 248.57945 112.32 
L 253.454545 109.019381 
L 253.537484 108.96 
L 258.230434 105.6 
L 259.090909 105.061464 
L 264.332076 102.24 
L 264.727273 102.027331 
L 270.363636 98.994211 
L 270.575872 98.88 
L 276 95.549225 
L 276.047592 95.52 
L 281.519313 92.16 
L 281.636364 92.088123 
L 286.991033 88.8 
L 287.272727 88.627021 
L 292.462753 85.44 
L 292.909091 85.165919 
L 297.934473 82.08 
L 298.545455 81.704817 
L 303.406194 78.72 
L 304.181818 78.243715 
L 308.877914 75.36 
L 309.818182 74.782613 
L 314.349634 72 
L 315.454545 71.321511 
L 319.821355 68.64 
L 321.090909 67.860409 
L 325.293075 65.28 
L 326.727273 64.399307 
L 330.460443 61.92 
L 332.363636 60.656034 
L 335.350817 58.56 
L 338 56.86043 
L 341.007236 55.2 
L 343.636364 53.836008 
L 347.483717 51.84 
L 343.636364 51.84 
L 338 51.84 
L 332.363636 51.84 
L 326.727273 51.84 
L 321.090909 51.84 
L 315.454545 51.84 
L 309.818182 51.84 
L 304.181818 51.84 
L 298.545455 51.84 
L 292.909091 51.84 
L 287.272727 51.84 
L 281.636364 51.84 
L 276 51.84 
L 270.363636 51.84 
L 264.727273 51.84 
L 259.090909 51.84 
L 253.454545 51.84 
L 247.818182 51.84 
L 242.181818 51.84 
L 239.888249 51.84 
L 236.545455 53.511602 
L 233.169073 55.2 
L 230.909091 56.33013 
L 226.449897 58.56 
L 225.272727 59.148657 
L 219.730722 61.92 
L 219.636364 61.967185 
L 214 64.785712 
L 213.011546 65.28 
L 208.363636 67.60424 
L 206.29237 68.64 
L 202.727273 70.468989 
L 200.262732 72 
L 197.090909 74.333365 
L 195.695369 75.36 
L 191.454545 78.47978 
L 191.128006 78.72 
L 186.560642 82.08 
L 185.818182 82.626194 
L 181.993279 85.44 
L 180.181818 86.772609 
L 177.425915 88.8 
L 174.545455 90.919023 
L 172.797615 92.16 
L 168.909091 94.920876 
L 167.83176 95.52 
L 163.272727 98.055362 
L 161.789881 98.88 
L 157.636364 101.188109 
L 155.743451 102.24 
L 152 104.319974 
L 149.696262 105.6 
L 146.363636 107.451707 
L 143.649073 108.96 
L 140.727273 110.58344 
L 137.601884 112.32 
L 135.090909 113.715173 
L 131.554695 115.68 
L 129.454545 116.846906 
L 125.507506 119.04 
L 123.818182 119.978639 
L 119.460317 122.4 
L 118.181818 123.110372 
L 113.413128 125.76 
L 112.545455 126.242106 
L 107.365939 129.12 
L 106.909091 129.373839 
L 101.31875 132.48 
L 101.272727 132.505572 
L 95.636364 135.637305 
L 95.271561 135.84 
L 90 138.769038 
L 90 139.2 
L 90 142.56 
L 90 145.92 
L 90 149.28 
L 90 152.64 
L 90 156 
L 90 159.36 
L 90 162.72 
L 90 166.08 
L 90 169.44 
L 90 172.8 
L 90 176.16 
L 90 179.52 
L 90 182.88 
L 90 186.24 
L 90 189.6 
L 90 192.96 
L 90 196.32 
L 90 199.68 
L 90 203.04 
L 90 203.437456 
z
" clip-path="url(#p1928a3d452)" style="fill: #4ec36b"/>
    <path d="M 95.271561 135.84 
L 95.636364 135.637305 
L 101.272727 132.505572 
L 101.31875 132.48 
L 106.909091 129.373839 
L 107.365939 129.12 
L 112.545455 126.242106 
L 113.413128 125.76 
L 118.181818 123.110372 
L 119.460317 122.4 
L 123.818182 119.978639 
L 125.507506 119.04 
L 129.454545 116.846906 
L 131.554695 115.68 
L 135.090909 113.715173 
L 137.601884 112.32 
L 140.727273 110.58344 
L 143.649073 108.96 
L 146.363636 107.451707 
L 149.696262 105.6 
L 152 104.319974 
L 155.743451 102.24 
L 157.636364 101.188109 
L 161.789881 98.88 
L 163.272727 98.055362 
L 167.83176 95.52 
L 168.909091 94.920876 
L 172.797615 92.16 
L 174.545455 90.919023 
L 177.425915 88.8 
L 180.181818 86.772609 
L 181.993279 85.44 
L 185.818182 82.626194 
L 186.560642 82.08 
L 191.128006 78.72 
L 191.454545 78.47978 
L 195.695369 75.36 
L 197.090909 74.333365 
L 200.262732 72 
L 202.727273 70.468989 
L 206.29237 68.64 
L 208.363636 67.60424 
L 213.011546 65.28 
L 214 64.785712 
L 219.636364 61.967185 
L 219.730722 61.92 
L 225.272727 59.148657 
L 226.449897 58.56 
L 230.909091 56.33013 
L 233.169073 55.2 
L 236.545455 53.511602 
L 239.888249 51.84 
L 236.545455 51.84 
L 230.909091 51.84 
L 225.272727 51.84 
L 219.636364 51.84 
L 214 51.84 
L 208.363636 51.84 
L 202.727273 51.84 
L 197.090909 51.84 
L 191.454545 51.84 
L 185.818182 51.84 
L 180.181818 51.84 
L 174.545455 51.84 
L 168.909091 51.84 
L 163.272727 51.84 
L 157.636364 51.84 
L 152 51.84 
L 146.363636 51.84 
L 140.727273 51.84 
L 135.090909 51.84 
L 129.454545 51.84 
L 123.818182 51.84 
L 118.181818 51.84 
L 112.545455 51.84 
L 106.909091 51.84 
L 101.272727 51.84 
L 95.636364 51.84 
L 90 51.84 
L 90 55.2 
L 90 58.56 
L 90 61.92 
L 90 65.28 
L 90 68.64 
L 90 72 
L 90 75.36 
L 90 78.72 
L 90 82.08 
L 90 85.44 
L 90 88.8 
L 90 92.16 
L 90 95.52 
L 90 98.88 
L 90 102.24 
L 90 105.6 
L 90 108.96 
L 90 112.32 
L 90 115.68 
L 90 119.04 
L 90 122.4 
L 90 125.76 
L 90 129.12 
L 90 132.48 
L 90 135.84 
L 90 138.769038 
z
" clip-path="url(#p1928a3d452)" style="fill: #90d743"/>
    <path clip-path="url(#p1928a3d452)" style="fill: #dae319"/>
   </g>
   <g id="matplotlib.axis_1">
    <g id="xtick_1">
     <g id="line2d_1">
      <path d="M 90 384.48 
L 90 51.84 
" clip-path="url(#p1928a3d452)" style="fill: none; stroke: #b0b0b0; stroke-width: 0.8; stroke-linecap: square"/>
     </g>
     <g id="line2d_2">
      <defs>
       <path id="medc21fa6a2" d="M 0 0 
L 0 3.5 
" style="stroke: #000000; stroke-width: 0.8"/>
      </defs>
      <g>
       <use xlink:href="#medc21fa6a2" x="90" y="384.48" style="stroke: #000000; stroke-width: 0.8"/>
      </g>
     </g>
     <g id="text_1">
      <!-- 10 -->
      <g transform="translate(83.6375 399.078438) scale(0.1 -0.1)">
       <defs>
        <path id="DejaVuSans-31" d="M 794 531 
L 1825 531 
L 1825 4091 
L 703 3866 
L 703 4441 
L 1819 4666 
L 2450 4666 
L 2450 531 
L 3481 531 
L 3481 0 
L 794 0 
L 794 531 
z
" transform="scale(0.015625)"/>
        <path id="DejaVuSans-30" d="M 2034 4250 
Q 1547 4250 1301 3770 
Q 1056 3291 1056 2328 
Q 1056 1369 1301 889 
Q 1547 409 2034 409 
Q 2525 409 2770 889 
Q 3016 1369 3016 2328 
Q 3016 3291 2770 3770 
Q 2525 4250 2034 4250 
z
M 2034 4750 
Q 2819 4750 3233 4129 
Q 3647 3509 3647 2328 
Q 3647 1150 3233 529 
Q 2819 -91 2034 -91 
Q 1250 -91 836 529 
Q 422 1150 422 2328 
Q 422 3509 836 4129 
Q 1250 4750 2034 4750 
z
" transform="scale(0.015625)"/>
       </defs>
       <use xlink:href="#DejaVuSans-31"/>
       <use xlink:href="#DejaVuSans-30" x="63.623047"/>
      </g>
     </g>
    </g>
    <g id="xtick_2">
     <g id="line2d_3">
      <path d="M 169.714286 384.48 
L 169.714286 51.84 
" clip-path="url(#p1928a3d452)" style="fill: none; stroke: #b0b0b0; stroke-width: 0.8; stroke-linecap: square"/>
     </g>
     <g id="line2d_4">
      <g>
       <use xlink:href="#medc21fa6a2" x="169.714286" y="384.48" style="stroke: #000000; stroke-width: 0.8"/>
      </g>
     </g>
     <g id="text_2">
      <!-- 15 -->
      <g transform="translate(163.351786 399.078438) scale(0.1 -0.1)">
       <defs>
        <path id="DejaVuSans-35" d="M 691 4666 
L 3169 4666 
L 3169 4134 
L 1269 4134 
L 1269 2991 
Q 1406 3038 1543 3061 
Q 1681 3084 1819 3084 
Q 2600 3084 3056 2656 
Q 3513 2228 3513 1497 
Q 3513 744 3044 326 
Q 2575 -91 1722 -91 
Q 1428 -91 1123 -41 
Q 819 9 494 109 
L 494 744 
Q 775 591 1075 516 
Q 1375 441 1709 441 
Q 2250 441 2565 725 
Q 2881 1009 2881 1497 
Q 2881 1984 2565 2268 
Q 2250 2553 1709 2553 
Q 1456 2553 1204 2497 
Q 953 2441 691 2322 
L 691 4666 
z
" transform="scale(0.015625)"/>
       </defs>
       <use xlink:href="#DejaVuSans-31"/>
       <use xlink:href="#DejaVuSans-35" x="63.623047"/>
      </g>
     </g>
    </g>
    <g id="xtick_3">
     <g id="line2d_5">
      <path d="M 249.428571 384.48 
L 249.428571 51.84 
" clip-path="url(#p1928a3d452)" style="fill: none; stroke: #b0b0b0; stroke-width: 0.8; stroke-linecap: square"/>
     </g>
     <g id="line2d_6">
      <g>
       <use xlink:href="#medc21fa6a2" x="249.428571" y="384.48" style="stroke: #000000; stroke-width: 0.8"/>
      </g>
     </g>
     <g id="text_3">
      <!-- 20 -->
      <g transform="translate(243.066071 399.078438) scale(0.1 -0.1)">
       <defs>
        <path id="DejaVuSans-32" d="M 1228 531 
L 3431 531 
L 3431 0 
L 469 0 
L 469 531 
Q 828 903 1448 1529 
Q 2069 2156 2228 2338 
Q 2531 2678 2651 2914 
Q 2772 3150 2772 3378 
Q 2772 3750 2511 3984 
Q 2250 4219 1831 4219 
Q 1534 4219 1204 4116 
Q 875 4013 500 3803 
L 500 4441 
Q 881 4594 1212 4672 
Q 1544 4750 1819 4750 
Q 2544 4750 2975 4387 
Q 3406 4025 3406 3419 
Q 3406 3131 3298 2873 
Q 3191 2616 2906 2266 
Q 2828 2175 2409 1742 
Q 1991 1309 1228 531 
z
" transform="scale(0.015625)"/>
       </defs>
       <use xlink:href="#DejaVuSans-32"/>
       <use xlink:href="#DejaVuSans-30" x="63.623047"/>
      </g>
     </g>
    </g>
    <g id="xtick_4">
     <g id="line2d_7">
      <path d="M 329.142857 384.48 
L 329.142857 51.84 
" clip-path="url(#p1928a3d452)" style="fill: none; stroke: #b0b0b0; stroke-width: 0.8; stroke-linecap: square"/>
     </g>
     <g id="line2d_8">
      <g>
       <use xlink:href="#medc21fa6a2" x="329.142857" y="384.48" style="stroke: #000000; stroke-width: 0.8"/>
      </g>
     </g>
     <g id="text_4">
      <!-- 25 -->
      <g transform="translate(322.780357 399.078438) scale(0.1 -0.1)">
       <use xlink:href="#DejaVuSans-32"/>
       <use xlink:href="#DejaVuSans-35" x="63.623047"/>
      </g>
     </g>
    </g>
    <g id="xtick_5">
     <g id="line2d_9">
      <path d="M 408.857143 384.48 
L 408.857143 51.84 
" clip-path="url(#p1928a3d452)" style="fill: none; stroke: #b0b0b0; stroke-width: 0.8; stroke-linecap: square"/>
     </g>
     <g id="line2d_10">
      <g>
       <use xlink:href="#medc21fa6a2" x="408.857143" y="384.48" style="stroke: #000000; stroke-width: 0.8"/>
      </g>
     </g>
     <g id="text_5">
      <!-- 30 -->
      <g transform="translate(402.494643 399.078438) scale(0.1 -0.1)">
       <defs>
        <path id="DejaVuSans-33" d="M 2597 2516 
Q 3050 2419 3304 2112 
Q 3559 1806 3559 1356 
Q 3559 666 3084 287 
Q 2609 -91 1734 -91 
Q 1441 -91 1130 -33 
Q 819 25 488 141 
L 488 750 
Q 750 597 1062 519 
Q 1375 441 1716 441 
Q 2309 441 2620 675 
Q 2931 909 2931 1356 
Q 2931 1769 2642 2001 
Q 2353 2234 1838 2234 
L 1294 2234 
L 1294 2753 
L 1863 2753 
Q 2328 2753 2575 2939 
Q 2822 3125 2822 3475 
Q 2822 3834 2567 4026 
Q 2313 4219 1838 4219 
Q 1578 4219 1281 4162 
Q 984 4106 628 3988 
L 628 4550 
Q 988 4650 1302 4700 
Q 1616 4750 1894 4750 
Q 2613 4750 3031 4423 
Q 3450 4097 3450 3541 
Q 3450 3153 3228 2886 
Q 3006 2619 2597 2516 
z
" transform="scale(0.015625)"/>
       </defs>
       <use xlink:href="#DejaVuSans-33"/>
       <use xlink:href="#DejaVuSans-30" x="63.623047"/>
      </g>
     </g>
    </g>
    <g id="xtick_6">
     <g id="line2d_11">
      <path d="M 488.571429 384.48 
L 488.571429 51.84 
" clip-path="url(#p1928a3d452)" style="fill: none; stroke: #b0b0b0; stroke-width: 0.8; stroke-linecap: square"/>
     </g>
     <g id="line2d_12">
      <g>
       <use xlink:href="#medc21fa6a2" x="488.571429" y="384.48" style="stroke: #000000; stroke-width: 0.8"/>
      </g>
     </g>
     <g id="text_6">
      <!-- 35 -->
      <g transform="translate(482.208929 399.078438) scale(0.1 -0.1)">
       <use xlink:href="#DejaVuSans-33"/>
       <use xlink:href="#DejaVuSans-35" x="63.623047"/>
      </g>
     </g>
    </g>
    <g id="xtick_7">
     <g id="line2d_13">
      <path d="M 568.285714 384.48 
L 568.285714 51.84 
" clip-path="url(#p1928a3d452)" style="fill: none; stroke: #b0b0b0; stroke-width: 0.8; stroke-linecap: square"/>
     </g>
     <g id="line2d_14">
      <g>
       <use xlink:href="#medc21fa6a2" x="568.285714" y="384.48" style="stroke: #000000; stroke-width: 0.8"/>
      </g>
     </g>
     <g id="text_7">
      <!-- 40 -->
      <g transform="translate(561.923214 399.078438) scale(0.1 -0.1)">
       <defs>
        <path id="DejaVuSans-34" d="M 2419 4116 
L 825 1625 
L 2419 1625 
L 2419 4116 
z
M 2253 4666 
L 3047 4666 
L 3047 1625 
L 3713 1625 
L 3713 1100 
L 3047 1100 
L 3047 0 
L 2419 0 
L 2419 1100 
L 313 1100 
L 313 1709 
L 2253 4666 
z
" transform="scale(0.015625)"/>
       </defs>
       <use xlink:href="#DejaVuSans-34"/>
       <use xlink:href="#DejaVuSans-30" x="63.623047"/>
      </g>
     </g>
    </g>
    <g id="xtick_8">
     <g id="line2d_15">
      <path d="M 648 384.48 
L 648 51.84 
" clip-path="url(#p1928a3d452)" style="fill: none; stroke: #b0b0b0; stroke-width: 0.8; stroke-linecap: square"/>
     </g>
     <g id="line2d_16">
      <g>
       <use xlink:href="#medc21fa6a2" x="648" y="384.48" style="stroke: #000000; stroke-width: 0.8"/>
      </g>
     </g>
     <g id="text_8">
      <!-- 45 -->
      <g transform="translate(641.6375 399.078438) scale(0.1 -0.1)">
       <use xlink:href="#DejaVuSans-34"/>
       <use xlink:href="#DejaVuSans-35" x="63.623047"/>
      </g>
     </g>
    </g>
    <g id="text_9">
     <!-- $T_{tap}$ [°C] -->
     <g transform="translate(328.1 420.358125) scale(0.2 -0.2)">
      <defs>
       <path id="DejaVuSans-Oblique-54" d="M 378 4666 
L 4325 4666 
L 4225 4134 
L 2559 4134 
L 1759 0 
L 1125 0 
L 1925 4134 
L 275 4134 
L 378 4666 
z
" transform="scale(0.015625)"/>
       <path id="DejaVuSans-Oblique-74" d="M 2706 3500 
L 2619 3053 
L 1472 3053 
L 1100 1153 
Q 1081 1047 1072 975 
Q 1063 903 1063 863 
Q 1063 663 1183 572 
Q 1303 481 1569 481 
L 2150 481 
L 2053 0 
L 1503 0 
Q 991 0 739 200 
Q 488 400 488 806 
Q 488 878 497 964 
Q 506 1050 525 1153 
L 897 3053 
L 409 3053 
L 500 3500 
L 978 3500 
L 1172 4494 
L 1747 4494 
L 1556 3500 
L 2706 3500 
z
" transform="scale(0.015625)"/>
       <path id="DejaVuSans-Oblique-61" d="M 3438 1997 
L 3047 0 
L 2472 0 
L 2578 531 
Q 2325 219 2001 64 
Q 1678 -91 1281 -91 
Q 834 -91 548 182 
Q 263 456 263 884 
Q 263 1497 752 1853 
Q 1241 2209 2100 2209 
L 2900 2209 
L 2931 2363 
Q 2938 2388 2941 2417 
Q 2944 2447 2944 2509 
Q 2944 2788 2717 2942 
Q 2491 3097 2081 3097 
Q 1800 3097 1504 3025 
Q 1209 2953 897 2809 
L 997 3341 
Q 1322 3463 1633 3523 
Q 1944 3584 2234 3584 
Q 2853 3584 3176 3315 
Q 3500 3047 3500 2534 
Q 3500 2431 3484 2292 
Q 3469 2153 3438 1997 
z
M 2816 1759 
L 2241 1759 
Q 1534 1759 1195 1570 
Q 856 1381 856 984 
Q 856 709 1029 553 
Q 1203 397 1509 397 
Q 1978 397 2328 733 
Q 2678 1069 2791 1631 
L 2816 1759 
z
" transform="scale(0.015625)"/>
       <path id="DejaVuSans-Oblique-70" d="M 3175 2156 
Q 3175 2616 2975 2859 
Q 2775 3103 2400 3103 
Q 2144 3103 1911 2972 
Q 1678 2841 1497 2591 
Q 1319 2344 1212 1994 
Q 1106 1644 1106 1300 
Q 1106 863 1306 627 
Q 1506 391 1875 391 
Q 2147 391 2380 519 
Q 2613 647 2778 891 
Q 2956 1147 3065 1494 
Q 3175 1841 3175 2156 
z
M 1394 2969 
Q 1625 3272 1939 3428 
Q 2253 3584 2638 3584 
Q 3175 3584 3472 3232 
Q 3769 2881 3769 2247 
Q 3769 1728 3584 1258 
Q 3400 788 3053 416 
Q 2822 169 2531 39 
Q 2241 -91 1919 -91 
Q 1547 -91 1294 64 
Q 1041 219 916 525 
L 556 -1331 
L -19 -1331 
L 922 3500 
L 1497 3500 
L 1394 2969 
z
" transform="scale(0.015625)"/>
       <path id="DejaVuSans-20" transform="scale(0.015625)"/>
       <path id="DejaVuSans-5b" d="M 550 4863 
L 1875 4863 
L 1875 4416 
L 1125 4416 
L 1125 -397 
L 1875 -397 
L 1875 -844 
L 550 -844 
L 550 4863 
z
" transform="scale(0.015625)"/>
       <path id="DejaVuSans-b0" d="M 1600 4347 
Q 1350 4347 1178 4173 
Q 1006 4000 1006 3750 
Q 1006 3503 1178 3333 
Q 1350 3163 1600 3163 
Q 1850 3163 2022 3333 
Q 2194 3503 2194 3750 
Q 2194 3997 2020 4172 
Q 1847 4347 1600 4347 
z
M 1600 4750 
Q 1800 4750 1984 4673 
Q 2169 4597 2303 4453 
Q 2447 4313 2519 4134 
Q 2591 3956 2591 3750 
Q 2591 3338 2302 3052 
Q 2013 2766 1594 2766 
Q 1172 2766 890 3047 
Q 609 3328 609 3750 
Q 609 4169 896 4459 
Q 1184 4750 1600 4750 
z
" transform="scale(0.015625)"/>
       <path id="DejaVuSans-43" d="M 4122 4306 
L 4122 3641 
Q 3803 3938 3442 4084 
Q 3081 4231 2675 4231 
Q 1875 4231 1450 3742 
Q 1025 3253 1025 2328 
Q 1025 1406 1450 917 
Q 1875 428 2675 428 
Q 3081 428 3442 575 
Q 3803 722 4122 1019 
L 4122 359 
Q 3791 134 3420 21 
Q 3050 -91 2638 -91 
Q 1578 -91 968 557 
Q 359 1206 359 2328 
Q 359 3453 968 4101 
Q 1578 4750 2638 4750 
Q 3056 4750 3426 4639 
Q 3797 4528 4122 4306 
z
" transform="scale(0.015625)"/>
       <path id="DejaVuSans-5d" d="M 1947 4863 
L 1947 -844 
L 622 -844 
L 622 -397 
L 1369 -397 
L 1369 4416 
L 622 4416 
L 622 4863 
L 1947 4863 
z
" transform="scale(0.015625)"/>
      </defs>
      <use xlink:href="#DejaVuSans-Oblique-54" transform="translate(0 0.015625)"/>
      <use xlink:href="#DejaVuSans-Oblique-74" transform="translate(61.083984 -16.390625) scale(0.7)"/>
      <use xlink:href="#DejaVuSans-Oblique-61" transform="translate(88.530273 -16.390625) scale(0.7)"/>
      <use xlink:href="#DejaVuSans-Oblique-70" transform="translate(131.425781 -16.390625) scale(0.7)"/>
      <use xlink:href="#DejaVuSans-20" transform="translate(178.59375 0.015625)"/>
      <use xlink:href="#DejaVuSans-5b" transform="translate(210.380859 0.015625)"/>
      <use xlink:href="#DejaVuSans-b0" transform="translate(249.394531 0.015625)"/>
      <use xlink:href="#DejaVuSans-43" transform="translate(299.394531 0.015625)"/>
      <use xlink:href="#DejaVuSans-5d" transform="translate(369.21875 0.015625)"/>
     </g>
    </g>
   </g>
   <g id="matplotlib.axis_2">
    <g id="ytick_1">
     <g id="line2d_17">
      <path d="M 90 384.48 
L 648 384.48 
" clip-path="url(#p1928a3d452)" style="fill: none; stroke: #b0b0b0; stroke-width: 0.8; stroke-linecap: square"/>
     </g>
     <g id="line2d_18">
      <defs>
       <path id="m3a27446df5" d="M 0 0 
L -3.5 0 
" style="stroke: #000000; stroke-width: 0.8"/>
      </defs>
      <g>
       <use xlink:href="#m3a27446df5" x="90" y="384.48" style="stroke: #000000; stroke-width: 0.8"/>
      </g>
     </g>
     <g id="text_10">
      <!-- 65 -->
      <g transform="translate(70.275 388.279219) scale(0.1 -0.1)">
       <defs>
        <path id="DejaVuSans-36" d="M 2113 2584 
Q 1688 2584 1439 2293 
Q 1191 2003 1191 1497 
Q 1191 994 1439 701 
Q 1688 409 2113 409 
Q 2538 409 2786 701 
Q 3034 994 3034 1497 
Q 3034 2003 2786 2293 
Q 2538 2584 2113 2584 
z
M 3366 4563 
L 3366 3988 
Q 3128 4100 2886 4159 
Q 2644 4219 2406 4219 
Q 1781 4219 1451 3797 
Q 1122 3375 1075 2522 
Q 1259 2794 1537 2939 
Q 1816 3084 2150 3084 
Q 2853 3084 3261 2657 
Q 3669 2231 3669 1497 
Q 3669 778 3244 343 
Q 2819 -91 2113 -91 
Q 1303 -91 875 529 
Q 447 1150 447 2328 
Q 447 3434 972 4092 
Q 1497 4750 2381 4750 
Q 2619 4750 2861 4703 
Q 3103 4656 3366 4563 
z
" transform="scale(0.015625)"/>
       </defs>
       <use xlink:href="#DejaVuSans-36"/>
       <use xlink:href="#DejaVuSans-35" x="63.623047"/>
      </g>
     </g>
    </g>
    <g id="ytick_2">
     <g id="line2d_19">
      <path d="M 90 336.96 
L 648 336.96 
" clip-path="url(#p1928a3d452)" style="fill: none; stroke: #b0b0b0; stroke-width: 0.8; stroke-linecap: square"/>
     </g>
     <g id="line2d_20">
      <g>
       <use xlink:href="#m3a27446df5" x="90" y="336.96" style="stroke: #000000; stroke-width: 0.8"/>
      </g>
     </g>
     <g id="text_11">
      <!-- 70 -->
      <g transform="translate(70.275 340.759219) scale(0.1 -0.1)">
       <defs>
        <path id="DejaVuSans-37" d="M 525 4666 
L 3525 4666 
L 3525 4397 
L 1831 0 
L 1172 0 
L 2766 4134 
L 525 4134 
L 525 4666 
z
" transform="scale(0.015625)"/>
       </defs>
       <use xlink:href="#DejaVuSans-37"/>
       <use xlink:href="#DejaVuSans-30" x="63.623047"/>
      </g>
     </g>
    </g>
    <g id="ytick_3">
     <g id="line2d_21">
      <path d="M 90 289.44 
L 648 289.44 
" clip-path="url(#p1928a3d452)" style="fill: none; stroke: #b0b0b0; stroke-width: 0.8; stroke-linecap: square"/>
     </g>
     <g id="line2d_22">
      <g>
       <use xlink:href="#m3a27446df5" x="90" y="289.44" style="stroke: #000000; stroke-width: 0.8"/>
      </g>
     </g>
     <g id="text_12">
      <!-- 75 -->
      <g transform="translate(70.275 293.239219) scale(0.1 -0.1)">
       <use xlink:href="#DejaVuSans-37"/>
       <use xlink:href="#DejaVuSans-35" x="63.623047"/>
      </g>
     </g>
    </g>
    <g id="ytick_4">
     <g id="line2d_23">
      <path d="M 90 241.92 
L 648 241.92 
" clip-path="url(#p1928a3d452)" style="fill: none; stroke: #b0b0b0; stroke-width: 0.8; stroke-linecap: square"/>
     </g>
     <g id="line2d_24">
      <g>
       <use xlink:href="#m3a27446df5" x="90" y="241.92" style="stroke: #000000; stroke-width: 0.8"/>
      </g>
     </g>
     <g id="text_13">
      <!-- 80 -->
      <g transform="translate(70.275 245.719219) scale(0.1 -0.1)">
       <defs>
        <path id="DejaVuSans-38" d="M 2034 2216 
Q 1584 2216 1326 1975 
Q 1069 1734 1069 1313 
Q 1069 891 1326 650 
Q 1584 409 2034 409 
Q 2484 409 2743 651 
Q 3003 894 3003 1313 
Q 3003 1734 2745 1975 
Q 2488 2216 2034 2216 
z
M 1403 2484 
Q 997 2584 770 2862 
Q 544 3141 544 3541 
Q 544 4100 942 4425 
Q 1341 4750 2034 4750 
Q 2731 4750 3128 4425 
Q 3525 4100 3525 3541 
Q 3525 3141 3298 2862 
Q 3072 2584 2669 2484 
Q 3125 2378 3379 2068 
Q 3634 1759 3634 1313 
Q 3634 634 3220 271 
Q 2806 -91 2034 -91 
Q 1263 -91 848 271 
Q 434 634 434 1313 
Q 434 1759 690 2068 
Q 947 2378 1403 2484 
z
M 1172 3481 
Q 1172 3119 1398 2916 
Q 1625 2713 2034 2713 
Q 2441 2713 2670 2916 
Q 2900 3119 2900 3481 
Q 2900 3844 2670 4047 
Q 2441 4250 2034 4250 
Q 1625 4250 1398 4047 
Q 1172 3844 1172 3481 
z
" transform="scale(0.015625)"/>
       </defs>
       <use xlink:href="#DejaVuSans-38"/>
       <use xlink:href="#DejaVuSans-30" x="63.623047"/>
      </g>
     </g>
    </g>
    <g id="ytick_5">
     <g id="line2d_25">
      <path d="M 90 194.4 
L 648 194.4 
" clip-path="url(#p1928a3d452)" style="fill: none; stroke: #b0b0b0; stroke-width: 0.8; stroke-linecap: square"/>
     </g>
     <g id="line2d_26">
      <g>
       <use xlink:href="#m3a27446df5" x="90" y="194.4" style="stroke: #000000; stroke-width: 0.8"/>
      </g>
     </g>
     <g id="text_14">
      <!-- 85 -->
      <g transform="translate(70.275 198.199219) scale(0.1 -0.1)">
       <use xlink:href="#DejaVuSans-38"/>
       <use xlink:href="#DejaVuSans-35" x="63.623047"/>
      </g>
     </g>
    </g>
    <g id="ytick_6">
     <g id="line2d_27">
      <path d="M 90 146.88 
L 648 146.88 
" clip-path="url(#p1928a3d452)" style="fill: none; stroke: #b0b0b0; stroke-width: 0.8; stroke-linecap: square"/>
     </g>
     <g id="line2d_28">
      <g>
       <use xlink:href="#m3a27446df5" x="90" y="146.88" style="stroke: #000000; stroke-width: 0.8"/>
      </g>
     </g>
     <g id="text_15">
      <!-- 90 -->
      <g transform="translate(70.275 150.679219) scale(0.1 -0.1)">
       <defs>
        <path id="DejaVuSans-39" d="M 703 97 
L 703 672 
Q 941 559 1184 500 
Q 1428 441 1663 441 
Q 2288 441 2617 861 
Q 2947 1281 2994 2138 
Q 2813 1869 2534 1725 
Q 2256 1581 1919 1581 
Q 1219 1581 811 2004 
Q 403 2428 403 3163 
Q 403 3881 828 4315 
Q 1253 4750 1959 4750 
Q 2769 4750 3195 4129 
Q 3622 3509 3622 2328 
Q 3622 1225 3098 567 
Q 2575 -91 1691 -91 
Q 1453 -91 1209 -44 
Q 966 3 703 97 
z
M 1959 2075 
Q 2384 2075 2632 2365 
Q 2881 2656 2881 3163 
Q 2881 3666 2632 3958 
Q 2384 4250 1959 4250 
Q 1534 4250 1286 3958 
Q 1038 3666 1038 3163 
Q 1038 2656 1286 2365 
Q 1534 2075 1959 2075 
z
" transform="scale(0.015625)"/>
       </defs>
       <use xlink:href="#DejaVuSans-39"/>
       <use xlink:href="#DejaVuSans-30" x="63.623047"/>
      </g>
     </g>
    </g>
    <g id="ytick_7">
     <g id="line2d_29">
      <path d="M 90 99.36 
L 648 99.36 
" clip-path="url(#p1928a3d452)" style="fill: none; stroke: #b0b0b0; stroke-width: 0.8; stroke-linecap: square"/>
     </g>
     <g id="line2d_30">
      <g>
       <use xlink:href="#m3a27446df5" x="90" y="99.36" style="stroke: #000000; stroke-width: 0.8"/>
      </g>
     </g>
     <g id="text_16">
      <!-- 95 -->
      <g transform="translate(70.275 103.159219) scale(0.1 -0.1)">
       <use xlink:href="#DejaVuSans-39"/>
       <use xlink:href="#DejaVuSans-35" x="63.623047"/>
      </g>
     </g>
    </g>
    <g id="ytick_8">
     <g id="line2d_31">
      <path d="M 90 51.84 
L 648 51.84 
" clip-path="url(#p1928a3d452)" style="fill: none; stroke: #b0b0b0; stroke-width: 0.8; stroke-linecap: square"/>
     </g>
     <g id="line2d_32">
      <g>
       <use xlink:href="#m3a27446df5" x="90" y="51.84" style="stroke: #000000; stroke-width: 0.8"/>
      </g>
     </g>
     <g id="text_17">
      <!-- 100 -->
      <g transform="translate(63.9125 55.639219) scale(0.1 -0.1)">
       <use xlink:href="#DejaVuSans-31"/>
       <use xlink:href="#DejaVuSans-30" x="63.623047"/>
       <use xlink:href="#DejaVuSans-30" x="127.246094"/>
      </g>
     </g>
    </g>
    <g id="text_18">
     <!-- $T_{sto,HT}$ [°C] -->
     <g transform="translate(54.9125 271.36) rotate(-90) scale(0.2 -0.2)">
      <defs>
       <path id="DejaVuSans-Oblique-73" d="M 3200 3397 
L 3091 2853 
Q 2863 2978 2609 3040 
Q 2356 3103 2088 3103 
Q 1634 3103 1373 2948 
Q 1113 2794 1113 2528 
Q 1113 2219 1719 2053 
Q 1766 2041 1788 2034 
L 1972 1978 
Q 2547 1819 2739 1644 
Q 2931 1469 2931 1166 
Q 2931 609 2489 259 
Q 2047 -91 1331 -91 
Q 1053 -91 747 -37 
Q 441 16 72 128 
L 184 722 
Q 500 559 806 475 
Q 1113 391 1394 391 
Q 1816 391 2080 572 
Q 2344 753 2344 1031 
Q 2344 1331 1650 1516 
L 1591 1531 
L 1394 1581 
Q 956 1697 753 1886 
Q 550 2075 550 2369 
Q 550 2928 970 3256 
Q 1391 3584 2113 3584 
Q 2397 3584 2667 3537 
Q 2938 3491 3200 3397 
z
" transform="scale(0.015625)"/>
       <path id="DejaVuSans-Oblique-6f" d="M 1625 -91 
Q 1009 -91 651 289 
Q 294 669 294 1325 
Q 294 1706 417 2101 
Q 541 2497 738 2766 
Q 1047 3184 1428 3384 
Q 1809 3584 2291 3584 
Q 2888 3584 3255 3212 
Q 3622 2841 3622 2241 
Q 3622 1825 3500 1412 
Q 3378 1000 3181 728 
Q 2875 309 2494 109 
Q 2113 -91 1625 -91 
z
M 891 1344 
Q 891 869 1089 633 
Q 1288 397 1691 397 
Q 2269 397 2648 901 
Q 3028 1406 3028 2181 
Q 3028 2634 2825 2865 
Q 2622 3097 2228 3097 
Q 1903 3097 1650 2945 
Q 1397 2794 1197 2484 
Q 1050 2253 970 1956 
Q 891 1659 891 1344 
z
" transform="scale(0.015625)"/>
       <path id="DejaVuSans-2c" d="M 750 794 
L 1409 794 
L 1409 256 
L 897 -744 
L 494 -744 
L 750 256 
L 750 794 
z
" transform="scale(0.015625)"/>
       <path id="DejaVuSans-Oblique-48" d="M 1081 4666 
L 1716 4666 
L 1344 2753 
L 3634 2753 
L 4006 4666 
L 4641 4666 
L 3731 0 
L 3097 0 
L 3531 2222 
L 1241 2222 
L 806 0 
L 172 0 
L 1081 4666 
z
" transform="scale(0.015625)"/>
      </defs>
      <use xlink:href="#DejaVuSans-Oblique-54" transform="translate(0 0.015625)"/>
      <use xlink:href="#DejaVuSans-Oblique-73" transform="translate(61.083984 -16.390625) scale(0.7)"/>
      <use xlink:href="#DejaVuSans-Oblique-74" transform="translate(97.553711 -16.390625) scale(0.7)"/>
      <use xlink:href="#DejaVuSans-Oblique-6f" transform="translate(125 -16.390625) scale(0.7)"/>
      <use xlink:href="#DejaVuSans-2c" transform="translate(167.827148 -16.390625) scale(0.7)"/>
      <use xlink:href="#DejaVuSans-Oblique-48" transform="translate(203.71582 -16.390625) scale(0.7)"/>
      <use xlink:href="#DejaVuSans-Oblique-54" transform="translate(256.352539 -16.390625) scale(0.7)"/>
      <use xlink:href="#DejaVuSans-20" transform="translate(301.845703 0.015625)"/>
      <use xlink:href="#DejaVuSans-5b" transform="translate(333.632812 0.015625)"/>
      <use xlink:href="#DejaVuSans-b0" transform="translate(372.646484 0.015625)"/>
      <use xlink:href="#DejaVuSans-43" transform="translate(422.646484 0.015625)"/>
      <use xlink:href="#DejaVuSans-5d" transform="translate(492.470703 0.015625)"/>
     </g>
    </g>
   </g>
   <g id="QuadContourSet_2">
    <path clip-path="url(#p1928a3d452)" style="fill: none; stroke: #000000; stroke-width: 1.5"/>
    <path clip-path="url(#p1928a3d452)" style="fill: none; stroke: #000000; stroke-width: 1.5"/>
    <path d="M 90 360.20508 
L 144.306848 330.72 
L 168.909091 317.168771 
L 197.277052 300.48 
L 214.379437 290.4 
L 219.636364 286.832738 
L 230.909091 278.856709 
L 236.545455 275.856553 
L 247.818182 270.216094 
L 253.734555 266.88 
L 332.363636 220.553677 
L 372.969664 196.32 
L 378.189219 192.96 
L 388.727273 185.381683 
L 392.797452 182.88 
L 400 179.286204 
L 406.243777 176.16 
L 412.275823 172.8 
L 460.868229 142.952264 
M 485.678292 127.459581 
L 512.727273 110.741164 
L 531.825941 98.88 
L 546.545455 88.188783 
L 552.181818 84.942048 
L 569.090909 76.044771 
L 608.297867 51.84 
L 608.297867 51.84 
" clip-path="url(#p1928a3d452)" style="fill: none; stroke: #000000; stroke-width: 1.5"/>
    <path d="M 90 330.335597 
L 122.240017 312.819882 
M 147.941801 298.85633 
L 168.909091 287.362521 
L 174.545455 283.445485 
L 202.727273 263.219011 
L 208.363636 260.108596 
L 242.181818 243.169102 
L 247.912974 240 
L 293.482539 213.12 
L 327.582041 192.96 
L 332.607997 189.6 
L 360.64155 169.44 
L 366.181818 166.050767 
L 400.006298 149.28 
L 406.406962 145.92 
L 417.213182 139.2 
L 486.516084 95.52 
L 491.500256 92.16 
L 519.209175 72 
L 525.039757 68.64 
L 557.24685 51.84 
L 557.24685 51.84 
" clip-path="url(#p1928a3d452)" style="fill: none; stroke: #000000; stroke-width: 1.5"/>
    <path d="M 90 296.109059 
L 106.909091 286.80745 
L 168.909091 251.584035 
L 175.945324 246.72 
L 182.181643 243.36 
L 188.259508 240 
L 261.269385 196.32 
L 291.613436 178.283339 
M 316.750201 163.32655 
L 326.727273 157.390027 
L 333.749363 152.64 
L 338 150.039135 
L 345.931058 145.92 
L 412.801289 105.6 
L 445.090909 85.370302 
L 487.832525 58.56 
L 495.818182 53.422677 
L 498.852313 51.84 
L 498.852313 51.84 
" clip-path="url(#p1928a3d452)" style="fill: none; stroke: #000000; stroke-width: 1.5"/>
    <path d="M 90 253.770506 
L 90.588656 253.44 
L 95.636364 250.605919 
L 96.573064 250.08 
L 101.272727 247.441332 
L 102.557473 246.72 
L 106.909091 244.276745 
L 108.541882 243.36 
L 112.545455 240.891039 
L 113.990329 240 
L 118.181818 237.20926 
L 119.036805 236.64 
L 123.818182 233.456506 
L 124.083281 233.28 
L 129.129758 229.92 
L 129.454545 229.703753 
L 134.176234 226.56 
L 135.090909 225.950999 
L 139.509464 223.2 
L 140.727273 222.551474 
L 146.338113 219.84 
L 146.363636 219.827666 
L 152 217.103857 
L 153.290944 216.48 
L 157.636364 214.380048 
L 160.243775 213.12 
L 163.272727 211.65624 
L 167.196607 209.76 
L 168.909091 208.932431 
L 173.24412 206.4 
L 174.545455 205.639788 
L 178.871233 203.04 
L 180.181818 202.25234 
L 184.461925 199.68 
L 185.818182 198.864891 
L 190.052618 196.32 
L 191.454545 195.487335 
L 195.709729 192.96 
L 197.090909 192.152302 
L 201.4554 189.6 
L 202.727273 188.856224 
L 206.067647 186.902813 
M 231.317178 172.137187 
L 235.929425 169.44 
L 236.545455 169.079753 
L 241.675095 166.08 
L 242.181818 165.783674 
L 247.420766 162.72 
L 247.818182 162.487596 
L 253.101932 159.36 
L 253.454545 159.151278 
L 258.752744 156 
L 259.090909 155.798865 
L 264.401863 152.64 
L 264.727273 152.446452 
L 270.050982 149.28 
L 270.363636 149.084589 
L 275.426911 145.92 
L 276 145.509687 
L 280.119861 142.56 
L 281.636364 141.474234 
L 284.812812 139.2 
L 287.272727 137.438781 
L 289.505763 135.84 
L 292.909091 133.403328 
L 294.198713 132.48 
L 298.545455 129.367875 
L 298.93882 129.12 
L 304.181818 126.291323 
L 305.18951 125.76 
L 309.818182 123.319451 
L 311.561985 122.4 
L 315.454545 120.347579 
L 317.934461 119.04 
L 321.090909 117.375707 
L 324.306937 115.68 
L 326.727273 114.403835 
L 330.381497 112.32 
L 332.363636 111.189677 
L 336.064385 108.96 
L 338 107.793804 
L 341.641208 105.6 
L 343.636364 104.397931 
L 347.21803 102.24 
L 349.272727 100.976545 
L 352.682241 98.88 
L 354.909091 97.317472 
L 357.470774 95.52 
L 360.545455 93.36257 
L 362.259308 92.16 
L 366.181818 89.407668 
L 367.047841 88.8 
L 371.818182 85.452766 
L 371.836375 85.44 
L 376.624909 82.08 
L 377.454545 81.54775 
L 382.575939 78.72 
L 383.090909 78.452834 
L 388.727273 75.528687 
L 389.05242 75.36 
L 394.363636 72.60454 
L 395.528901 72 
L 400 69.680393 
L 402.005382 68.64 
L 405.636364 66.756246 
L 408.238184 65.28 
L 411.272727 63.558232 
L 413.864149 61.92 
L 416.909091 59.995063 
L 419.179132 58.56 
L 422.545455 56.431895 
L 424.494115 55.2 
L 428.181818 52.868726 
L 429.809098 51.84 
" clip-path="url(#p1928a3d452)" style="fill: none; stroke: #000000; stroke-width: 1.5"/>
    <path d="M 90 203.437456 
L 90.596951 203.04 
L 95.636364 199.684703 
L 95.643917 199.68 
L 101.272727 196.682463 
L 102.022769 196.32 
L 106.909091 193.598083 
L 108.054562 192.96 
L 112.545455 189.818823 
L 112.858303 189.6 
L 117.662044 186.24 
L 118.181818 185.876441 
L 122.465785 182.88 
L 123.818182 181.934059 
L 127.269526 179.52 
L 129.454545 177.991677 
L 132.073267 176.16 
L 135.090909 174.179441 
L 137.705089 172.8 
L 140.727273 171.418259 
L 145.05418 169.44 
L 146.363636 168.841317 
L 152 166.264375 
L 152.403271 166.08 
L 157.636364 163.687433 
L 159.752363 162.72 
L 163.272727 161.110491 
L 167.101454 159.36 
L 168.909091 158.533549 
L 173.397014 156 
L 174.545455 155.351675 
L 179.20138 152.64 
L 180.181818 152.06898 
L 184.970475 149.28 
L 185.818182 148.786941 
L 190.747256 145.92 
L 191.454545 145.509977 
L 196.543256 142.56 
L 197.090909 142.24252 
L 202.339257 139.2 
L 202.727273 138.975063 
L 206.94476 136.530143 
M 232.327968 121.815241 
L 236.545455 119.370321 
L 237.115258 119.04 
L 242.181818 116.102864 
L 242.911258 115.68 
L 247.818182 112.835407 
L 248.57945 112.32 
L 253.454545 109.019381 
L 253.537484 108.96 
L 258.230434 105.6 
L 259.090909 105.061464 
L 264.332076 102.24 
L 264.727273 102.027331 
L 270.363636 98.994211 
L 270.575872 98.88 
L 276 95.549225 
L 276.047592 95.52 
L 281.519313 92.16 
L 281.636364 92.088123 
L 286.991033 88.8 
L 287.272727 88.627021 
L 292.462753 85.44 
L 292.909091 85.165919 
L 297.934473 82.08 
L 298.545455 81.704817 
L 303.406194 78.72 
L 304.181818 78.243715 
L 308.877914 75.36 
L 309.818182 74.782613 
L 314.349634 72 
L 315.454545 71.321511 
L 319.821355 68.64 
L 321.090909 67.860409 
L 325.293075 65.28 
L 326.727273 64.399307 
L 330.460443 61.92 
L 332.363636 60.656034 
L 335.350817 58.56 
L 338 56.86043 
L 341.007236 55.2 
L 343.636364 53.836008 
L 347.483717 51.84 
" clip-path="url(#p1928a3d452)" style="fill: none; stroke: #000000; stroke-width: 1.5"/>
    <path d="M 90 138.769038 
L 95.271561 135.84 
L 95.636364 135.637305 
L 101.272727 132.505572 
L 101.31875 132.48 
L 106.909091 129.373839 
L 107.365939 129.12 
L 112.545455 126.242106 
L 113.413128 125.76 
L 118.181818 123.110372 
L 119.460317 122.4 
L 122.306763 120.818429 
M 147.875055 106.611917 
L 149.696262 105.6 
L 152 104.319974 
L 155.743451 102.24 
L 157.636364 101.188109 
L 161.789881 98.88 
L 163.272727 98.055362 
L 167.83176 95.52 
L 168.909091 94.920876 
L 172.797615 92.16 
L 174.545455 90.919023 
L 177.425915 88.8 
L 180.181818 86.772609 
L 181.993279 85.44 
L 185.818182 82.626194 
L 186.560642 82.08 
L 191.128006 78.72 
L 191.454545 78.47978 
L 195.695369 75.36 
L 197.090909 74.333365 
L 200.262732 72 
L 202.727273 70.468989 
L 206.29237 68.64 
L 208.363636 67.60424 
L 213.011546 65.28 
L 214 64.785712 
L 219.636364 61.967185 
L 219.730722 61.92 
L 225.272727 59.148657 
L 226.449897 58.56 
L 230.909091 56.33013 
L 233.169073 55.2 
L 236.545455 53.511602 
L 239.888249 51.84 
" clip-path="url(#p1928a3d452)" style="fill: none; stroke: #000000; stroke-width: 1.5"/>
    <path clip-path="url(#p1928a3d452)" style="fill: none; stroke: #000000; stroke-width: 1.5"/>
    <path clip-path="url(#p1928a3d452)" style="fill: none; stroke: #000000; stroke-width: 1.5"/>
   </g>
   <g id="patch_3">
    <path d="M 90 384.48 
L 90 51.84 
" style="fill: none; stroke: #000000; stroke-width: 0.8; stroke-linejoin: miter; stroke-linecap: square"/>
   </g>
   <g id="patch_4">
    <path d="M 648 384.48 
L 648 51.84 
" style="fill: none; stroke: #000000; stroke-width: 0.8; stroke-linejoin: miter; stroke-linecap: square"/>
   </g>
   <g id="patch_5">
    <path d="M 90 384.48 
L 648 384.48 
" style="fill: none; stroke: #000000; stroke-width: 0.8; stroke-linejoin: miter; stroke-linecap: square"/>
   </g>
   <g id="patch_6">
    <path d="M 90 51.84 
L 648 51.84 
" style="fill: none; stroke: #000000; stroke-width: 0.8; stroke-linejoin: miter; stroke-linecap: square"/>
   </g>
   <g id="text_19">
    <g clip-path="url(#p1928a3d452)">
     <!-- 0.02 -->
     <g transform="translate(465.291904 143.442794) rotate(-31.986729) scale(0.1 -0.1)">
      <defs>
       <path id="DejaVuSans-2e" d="M 684 794 
L 1344 794 
L 1344 0 
L 684 0 
L 684 794 
z
" transform="scale(0.015625)"/>
      </defs>
      <use xlink:href="#DejaVuSans-30"/>
      <use xlink:href="#DejaVuSans-2e" x="63.623047"/>
      <use xlink:href="#DejaVuSans-30" x="95.410156"/>
      <use xlink:href="#DejaVuSans-32" x="159.033203"/>
     </g>
    </g>
   </g>
   <g id="text_20">
    <g clip-path="url(#p1928a3d452)">
     <!-- 0.03 -->
     <g transform="translate(126.625867 313.577404) rotate(-28.514841) scale(0.1 -0.1)">
      <use xlink:href="#DejaVuSans-30"/>
      <use xlink:href="#DejaVuSans-2e" x="63.623047"/>
      <use xlink:href="#DejaVuSans-30" x="95.410156"/>
      <use xlink:href="#DejaVuSans-33" x="159.033203"/>
     </g>
    </g>
   </g>
   <g id="text_21">
    <g clip-path="url(#p1928a3d452)">
     <!-- 0.04 -->
     <g transform="translate(296.025528 178.868975) rotate(-30.753343) scale(0.1 -0.1)">
      <use xlink:href="#DejaVuSans-30"/>
      <use xlink:href="#DejaVuSans-2e" x="63.623047"/>
      <use xlink:href="#DejaVuSans-30" x="95.410156"/>
      <use xlink:href="#DejaVuSans-34" x="159.033203"/>
     </g>
    </g>
   </g>
   <g id="text_22">
    <g clip-path="url(#p1928a3d452)">
     <!-- 0.05 -->
     <g transform="translate(210.475168 187.52191) rotate(-30.318589) scale(0.1 -0.1)">
      <use xlink:href="#DejaVuSans-30"/>
      <use xlink:href="#DejaVuSans-2e" x="63.623047"/>
      <use xlink:href="#DejaVuSans-30" x="95.410156"/>
      <use xlink:href="#DejaVuSans-35" x="159.033203"/>
     </g>
    </g>
   </g>
   <g id="text_23">
    <g clip-path="url(#p1928a3d452)">
     <!-- 0.06 -->
     <g transform="translate(211.388833 137.143382) rotate(-30.101304) scale(0.1 -0.1)">
      <use xlink:href="#DejaVuSans-30"/>
      <use xlink:href="#DejaVuSans-2e" x="63.623047"/>
      <use xlink:href="#DejaVuSans-30" x="95.410156"/>
      <use xlink:href="#DejaVuSans-36" x="159.033203"/>
     </g>
    </g>
   </g>
   <g id="text_24">
    <g clip-path="url(#p1928a3d452)">
     <!-- 0.07 -->
     <g transform="translate(126.699596 121.53435) rotate(-29.057866) scale(0.1 -0.1)">
      <use xlink:href="#DejaVuSans-30"/>
      <use xlink:href="#DejaVuSans-2e" x="63.623047"/>
      <use xlink:href="#DejaVuSans-30" x="95.410156"/>
      <use xlink:href="#DejaVuSans-37" x="159.033203"/>
     </g>
    </g>
   </g>
  </g>
 </g>
 <defs>
  <clipPath id="p1928a3d452">
   <rect x="90" y="51.84" width="558" height="332.64"/>
  </clipPath>
 </defs>
</svg>
