<?xml version="1.0" encoding="utf-8" standalone="no"?>
<!DOCTYPE svg PUBLIC "-//W3C//DTD SVG 1.1//EN"
  "http://www.w3.org/Graphics/SVG/1.1/DTD/svg11.dtd">
<svg xmlns:xlink="http://www.w3.org/1999/xlink" width="720pt" height="432pt" viewBox="0 0 720 432" xmlns="http://www.w3.org/2000/svg" version="1.1">
 <metadata>
  <rdf:RDF xmlns:dc="http://purl.org/dc/elements/1.1/" xmlns:cc="http://creativecommons.org/ns#" xmlns:rdf="http://www.w3.org/1999/02/22-rdf-syntax-ns#">
   <cc:Work>
    <dc:type rdf:resource="http://purl.org/dc/dcmitype/StillImage"/>
    <dc:date>2024-06-12T10:41:13.882575</dc:date>
    <dc:format>image/svg+xml</dc:format>
    <dc:creator>
     <cc:Agent>
      <dc:title>Matplotlib v3.8.3, https://matplotlib.org/</dc:title>
     </cc:Agent>
    </dc:creator>
   </cc:Work>
  </rdf:RDF>
 </metadata>
 <defs>
  <style type="text/css">*{stroke-linejoin: round; stroke-linecap: butt}</style>
 </defs>
 <g id="figure_1">
  <g id="patch_1">
   <path d="M 0 432 
L 720 432 
L 720 0 
L 0 0 
z
" style="fill: #ffffff"/>
  </g>
  <g id="axes_1">
   <g id="patch_2">
    <path d="M 90 384.48 
L 648 384.48 
L 648 51.84 
L 90 51.84 
z
" style="fill: #ffffff"/>
   </g>
   <g id="QuadContourSet_1">
    <path d="M 225.272727 384.48 
L 230.909091 381.12 
L 236.545455 377.76 
L 242.181818 374.4 
L 247.818182 371.04 
L 253.454545 367.68 
L 259.090909 364.32 
L 264.727273 360.96 
L 270.363636 357.6 
L 276 354.24 
L 281.636364 350.88 
L 287.272727 347.52 
L 292.909091 344.16 
L 298.545455 340.8 
L 304.181818 337.44 
L 309.818182 334.08 
L 315.454545 330.72 
L 321.090909 327.36 
L 326.727273 324 
L 332.363636 320.64 
L 338 317.28 
L 343.636364 313.92 
L 349.272727 310.56 
L 354.909091 307.2 
L 360.545455 303.84 
L 366.181818 300.48 
L 371.818182 297.12 
L 377.454545 293.76 
L 383.090909 290.4 
L 388.727273 287.04 
L 394.363636 283.68 
L 400 280.32 
L 405.636364 276.96 
L 411.272727 273.6 
L 416.909091 270.24 
L 422.545455 266.88 
L 428.181818 263.52 
L 433.818182 260.16 
L 439.454545 256.8 
L 445.090909 253.44 
L 450.727273 250.08 
L 456.363636 246.72 
L 462 243.36 
L 467.636364 240 
L 473.272727 236.64 
L 478.909091 233.28 
L 484.545455 229.92 
L 490.181818 226.56 
L 495.818182 223.2 
L 501.454545 219.84 
L 507.090909 216.48 
L 512.727273 213.12 
L 518.363636 209.76 
L 524 206.4 
L 529.636364 203.04 
L 535.272727 199.68 
L 540.909091 196.32 
L 546.545455 192.96 
L 552.181818 189.6 
L 557.818182 186.24 
L 563.454545 182.88 
L 569.090909 179.52 
L 574.727273 176.16 
L 580.363636 172.8 
L 586 169.44 
L 591.636364 166.08 
L 597.272727 162.72 
L 602.909091 159.36 
L 608.545455 156 
L 614.181818 152.64 
L 619.818182 149.28 
L 625.454545 145.92 
L 631.090909 142.56 
L 636.727273 139.2 
L 642.363636 135.84 
L 648 132.48 
L 648 129.12 
L 648 125.76 
L 648 122.4 
L 648 120.519657 
L 645.044839 122.4 
L 642.363636 124.106026 
L 639.764238 125.76 
L 636.727273 127.692395 
L 634.483638 129.12 
L 631.090909 131.278764 
L 629.203038 132.48 
L 625.454545 134.865764 
L 623.923834 135.84 
L 619.818182 138.455158 
L 618.648821 139.2 
L 614.181818 142.045326 
L 613.373809 142.56 
L 608.545455 145.635494 
L 608.098796 145.92 
L 602.909091 149.225662 
L 602.823783 149.28 
L 597.548771 152.64 
L 597.272727 152.81583 
L 592.273758 156 
L 591.636364 156.405998 
L 586.998746 159.36 
L 586 159.996166 
L 581.723733 162.72 
L 580.363636 163.586334 
L 576.011898 166.08 
L 574.727273 166.816125 
L 569.819759 169.44 
L 569.090909 169.864237 
L 564.822319 172.8 
L 563.454545 173.832206 
L 560.369991 176.16 
L 557.818182 177.804791 
L 555.157122 179.52 
L 552.181818 181.398604 
L 549.835605 182.88 
L 546.545455 184.957397 
L 544.514088 186.24 
L 540.909091 188.516191 
L 539.19257 189.6 
L 535.272727 192.074984 
L 533.871053 192.96 
L 529.636364 195.633778 
L 528.549535 196.32 
L 524 199.192571 
L 523.228018 199.68 
L 518.363636 202.751365 
L 517.9065 203.04 
L 512.727273 206.310158 
L 512.578898 206.4 
L 507.090909 209.723 
L 507.02081 209.76 
L 501.454545 212.697988 
L 500.752738 213.12 
L 496.073251 216.48 
L 495.818182 216.653722 
L 491.139894 219.84 
L 490.181818 220.438306 
L 485.759483 223.2 
L 484.545455 223.958146 
L 480.379072 226.56 
L 478.909091 227.477985 
L 474.998662 229.92 
L 473.272727 230.997825 
L 469.618251 233.28 
L 467.636364 234.517664 
L 464.237841 236.64 
L 462 238.037504 
L 458.85743 240 
L 456.363636 241.557343 
L 453.47702 243.36 
L 450.727273 245.077183 
L 448.096609 246.72 
L 445.090909 248.597022 
L 442.716198 250.08 
L 439.454545 252.116862 
L 436.97261 253.44 
L 433.818182 255.121649 
L 431.105198 256.8 
L 428.181818 258.913048 
L 426.456673 260.16 
L 422.545455 262.568475 
L 421.000235 263.52 
L 416.909091 266.039271 
L 415.543798 266.88 
L 411.272727 269.510067 
L 410.08736 270.24 
L 405.636364 272.980863 
L 404.630923 273.6 
L 400 276.451659 
L 399.174485 276.96 
L 394.363636 279.922455 
L 393.718048 280.32 
L 388.727273 283.393251 
L 388.26161 283.68 
L 383.090909 286.864047 
L 382.805173 287.04 
L 377.454545 290.334844 
L 377.348735 290.4 
L 371.892298 293.76 
L 371.818182 293.80564 
L 366.181818 296.980482 
L 365.921304 297.12 
L 360.672838 300.48 
L 360.545455 300.560586 
L 355.361633 303.84 
L 354.909091 304.113945 
L 349.8111 307.2 
L 349.272727 307.525902 
L 344.260566 310.56 
L 343.636364 310.937859 
L 338.710033 313.92 
L 338 314.349816 
L 333.159499 317.28 
L 332.363636 317.761773 
L 327.608966 320.64 
L 326.727273 321.17373 
L 322.058432 324 
L 321.090909 324.585688 
L 316.507899 327.36 
L 315.454545 327.997645 
L 310.957366 330.72 
L 309.818182 331.409602 
L 305.406832 334.08 
L 304.181818 334.821559 
L 299.759905 337.44 
L 298.545455 338.159138 
L 293.739707 340.8 
L 292.909091 341.307278 
L 288.625777 344.16 
L 287.272727 344.962091 
L 282.957779 347.52 
L 281.636364 348.303337 
L 277.28978 350.88 
L 276 351.644584 
L 271.621782 354.24 
L 270.363636 354.985831 
L 265.953784 357.6 
L 264.727273 358.327078 
L 260.285785 360.96 
L 259.090909 361.668325 
L 254.617787 364.32 
L 253.454545 365.009572 
L 248.949788 367.68 
L 247.818182 368.350819 
L 243.28179 371.04 
L 242.181818 371.692065 
L 237.613792 374.4 
L 236.545455 375.033312 
L 231.945793 377.76 
L 230.909091 378.374559 
L 226.24046 381.12 
L 225.272727 381.689086 
L 220.513983 384.48 
z
" clip-path="url(#p3f751a10bc)" style="fill: #481668"/>
    <path d="M 180.181818 384.48 
L 185.818182 384.48 
L 191.454545 384.48 
L 197.090909 384.48 
L 202.727273 384.48 
L 208.363636 384.48 
L 214 384.48 
L 219.636364 384.48 
L 220.513983 384.48 
L 225.272727 381.689086 
L 226.24046 381.12 
L 230.909091 378.374559 
L 231.945793 377.76 
L 236.545455 375.033312 
L 237.613792 374.4 
L 242.181818 371.692065 
L 243.28179 371.04 
L 247.818182 368.350819 
L 248.949788 367.68 
L 253.454545 365.009572 
L 254.617787 364.32 
L 259.090909 361.668325 
L 260.285785 360.96 
L 264.727273 358.327078 
L 265.953784 357.6 
L 270.363636 354.985831 
L 271.621782 354.24 
L 276 351.644584 
L 277.28978 350.88 
L 281.636364 348.303337 
L 282.957779 347.52 
L 287.272727 344.962091 
L 288.625777 344.16 
L 292.909091 341.307278 
L 293.739707 340.8 
L 298.545455 338.159138 
L 299.759905 337.44 
L 304.181818 334.821559 
L 305.406832 334.08 
L 309.818182 331.409602 
L 310.957366 330.72 
L 315.454545 327.997645 
L 316.507899 327.36 
L 321.090909 324.585688 
L 322.058432 324 
L 326.727273 321.17373 
L 327.608966 320.64 
L 332.363636 317.761773 
L 333.159499 317.28 
L 338 314.349816 
L 338.710033 313.92 
L 343.636364 310.937859 
L 344.260566 310.56 
L 349.272727 307.525902 
L 349.8111 307.2 
L 354.909091 304.113945 
L 355.361633 303.84 
L 360.545455 300.560586 
L 360.672838 300.48 
L 365.921304 297.12 
L 366.181818 296.980482 
L 371.818182 293.80564 
L 371.892298 293.76 
L 377.348735 290.4 
L 377.454545 290.334844 
L 382.805173 287.04 
L 383.090909 286.864047 
L 388.26161 283.68 
L 388.727273 283.393251 
L 393.718048 280.32 
L 394.363636 279.922455 
L 399.174485 276.96 
L 400 276.451659 
L 404.630923 273.6 
L 405.636364 272.980863 
L 410.08736 270.24 
L 411.272727 269.510067 
L 415.543798 266.88 
L 416.909091 266.039271 
L 421.000235 263.52 
L 422.545455 262.568475 
L 426.456673 260.16 
L 428.181818 258.913048 
L 431.105198 256.8 
L 433.818182 255.121649 
L 436.97261 253.44 
L 439.454545 252.116862 
L 442.716198 250.08 
L 445.090909 248.597022 
L 448.096609 246.72 
L 450.727273 245.077183 
L 453.47702 243.36 
L 456.363636 241.557343 
L 458.85743 240 
L 462 238.037504 
L 464.237841 236.64 
L 467.636364 234.517664 
L 469.618251 233.28 
L 473.272727 230.997825 
L 474.998662 229.92 
L 478.909091 227.477985 
L 480.379072 226.56 
L 484.545455 223.958146 
L 485.759483 223.2 
L 490.181818 220.438306 
L 491.139894 219.84 
L 495.818182 216.653722 
L 496.073251 216.48 
L 500.752738 213.12 
L 501.454545 212.697988 
L 507.02081 209.76 
L 507.090909 209.723 
L 512.578898 206.4 
L 512.727273 206.310158 
L 517.9065 203.04 
L 518.363636 202.751365 
L 523.228018 199.68 
L 524 199.192571 
L 528.549535 196.32 
L 529.636364 195.633778 
L 533.871053 192.96 
L 535.272727 192.074984 
L 539.19257 189.6 
L 540.909091 188.516191 
L 544.514088 186.24 
L 546.545455 184.957397 
L 549.835605 182.88 
L 552.181818 181.398604 
L 555.157122 179.52 
L 557.818182 177.804791 
L 560.369991 176.16 
L 563.454545 173.832206 
L 564.822319 172.8 
L 569.090909 169.864237 
L 569.819759 169.44 
L 574.727273 166.816125 
L 576.011898 166.08 
L 580.363636 163.586334 
L 581.723733 162.72 
L 586 159.996166 
L 586.998746 159.36 
L 591.636364 156.405998 
L 592.273758 156 
L 597.272727 152.81583 
L 597.548771 152.64 
L 602.823783 149.28 
L 602.909091 149.225662 
L 608.098796 145.92 
L 608.545455 145.635494 
L 613.373809 142.56 
L 614.181818 142.045326 
L 618.648821 139.2 
L 619.818182 138.455158 
L 623.923834 135.84 
L 625.454545 134.865764 
L 629.203038 132.48 
L 631.090909 131.278764 
L 634.483638 129.12 
L 636.727273 127.692395 
L 639.764238 125.76 
L 642.363636 124.106026 
L 645.044839 122.4 
L 648 120.519657 
L 648 119.04 
L 648 115.68 
L 648 112.32 
L 648 108.96 
L 648 105.6 
L 648 102.24 
L 648 98.88 
L 648 95.52 
L 648 93.973399 
L 645.575458 95.52 
L 642.363636 97.571936 
L 640.316171 98.88 
L 636.727273 101.172839 
L 635.056884 102.24 
L 631.090909 104.773742 
L 629.797598 105.6 
L 625.454545 108.374645 
L 624.538311 108.96 
L 619.818182 111.975549 
L 619.279024 112.32 
L 614.181818 115.576452 
L 614.019738 115.68 
L 608.748299 119.04 
L 608.545455 119.169068 
L 603.467698 122.4 
L 602.909091 122.755437 
L 598.187098 125.76 
L 597.272727 126.341806 
L 592.906498 129.12 
L 591.636364 129.928175 
L 587.625897 132.48 
L 586 133.514818 
L 582.346694 135.84 
L 580.363636 137.103139 
L 576.704368 139.2 
L 574.727273 140.33293 
L 570.561915 142.56 
L 569.090909 143.346495 
L 564.277603 145.92 
L 563.454545 146.36006 
L 557.993291 149.28 
L 557.818182 149.373625 
L 552.181818 152.38719 
L 551.70898 152.64 
L 546.545455 155.400755 
L 545.517959 156 
L 540.909091 159.210873 
L 540.711482 159.36 
L 536.259154 162.72 
L 535.272727 163.464419 
L 531.806827 166.08 
L 529.636364 167.717965 
L 527.354499 169.44 
L 524 171.971511 
L 522.902171 172.8 
L 518.449843 176.16 
L 518.363636 176.215565 
L 513.236974 179.52 
L 512.727273 179.841825 
L 507.709677 182.88 
L 507.090909 183.254667 
L 501.454545 186.229654 
L 501.434945 186.24 
L 495.818182 189.204642 
L 495.069143 189.6 
L 490.181818 192.17963 
L 488.703341 192.96 
L 484.545455 195.154617 
L 482.337539 196.32 
L 478.909091 198.129605 
L 476.330778 199.68 
L 473.272727 201.880652 
L 471.724755 203.04 
L 467.636364 206.101985 
L 467.238451 206.4 
L 462.752147 209.76 
L 462 210.323318 
L 458.265843 213.12 
L 456.363636 214.544651 
L 453.77954 216.48 
L 450.727273 218.558831 
L 448.846182 219.84 
L 445.090909 222.185122 
L 443.465772 223.2 
L 439.454545 225.704961 
L 437.850668 226.56 
L 433.818182 228.709748 
L 431.491012 229.92 
L 428.181818 231.640956 
L 425.030132 233.28 
L 422.545455 234.572164 
L 418.569252 236.64 
L 416.909091 237.503372 
L 412.108372 240 
L 411.272727 240.43458 
L 406.543908 243.36 
L 405.636364 244.032684 
L 402.0108 246.72 
L 400 248.210431 
L 397.477691 250.08 
L 394.363636 252.388178 
L 392.944582 253.44 
L 388.727273 256.565925 
L 388.411473 256.8 
L 383.762949 260.16 
L 383.090909 260.573833 
L 378.306511 263.52 
L 377.454545 264.044629 
L 372.850074 266.88 
L 371.818182 267.515425 
L 366.981187 270.24 
L 366.181818 270.690267 
L 360.545455 273.569156 
L 360.485067 273.6 
L 354.909091 276.448044 
L 353.906771 276.96 
L 349.272727 279.326933 
L 347.328474 280.32 
L 343.636364 282.205821 
L 340.883717 283.68 
L 338 285.532359 
L 335.93901 287.04 
L 332.363636 289.655432 
L 331.345789 290.4 
L 326.752569 293.76 
L 326.727273 293.778505 
L 322.159349 297.12 
L 321.090909 297.901577 
L 317.566128 300.48 
L 315.454545 301.81584 
L 312.254923 303.84 
L 309.818182 305.315075 
L 306.70439 307.2 
L 304.181818 308.727032 
L 301.086378 310.56 
L 298.545455 312.064611 
L 294.833036 313.92 
L 292.909091 314.881548 
L 288.110065 317.28 
L 287.272727 317.698484 
L 281.636364 320.515421 
L 281.387094 320.64 
L 276 323.332357 
L 274.664124 324 
L 270.363636 326.344963 
L 268.811165 327.36 
L 264.727273 330.297565 
L 264.139991 330.72 
L 259.468816 334.08 
L 259.090909 334.35183 
L 254.797641 337.44 
L 253.454545 338.406096 
L 250.126467 340.8 
L 247.818182 342.337336 
L 245.081483 344.16 
L 242.181818 345.878927 
L 239.413485 347.52 
L 236.545455 349.220174 
L 233.745486 350.88 
L 230.909091 352.56142 
L 228.054661 354.24 
L 225.272727 355.875948 
L 222.333072 357.6 
L 219.636364 359.181569 
L 216.603988 360.96 
L 214 362.48719 
L 210.874903 364.32 
L 208.363636 365.792811 
L 205.145818 367.68 
L 202.727273 369.098431 
L 199.416734 371.04 
L 197.090909 372.404052 
L 193.687649 374.4 
L 191.454545 375.709673 
L 187.958565 377.76 
L 185.818182 379.015294 
L 182.22948 381.12 
L 180.181818 382.320915 
L 176.500395 384.48 
z
" clip-path="url(#p3f751a10bc)" style="fill: #443983"/>
    <path d="M 129.454545 384.48 
L 135.090909 384.48 
L 140.727273 384.48 
L 146.363636 384.48 
L 152 384.48 
L 157.636364 384.48 
L 163.272727 384.48 
L 168.909091 384.48 
L 174.545455 384.48 
L 176.500395 384.48 
L 180.181818 382.320915 
L 182.22948 381.12 
L 185.818182 379.015294 
L 187.958565 377.76 
L 191.454545 375.709673 
L 193.687649 374.4 
L 197.090909 372.404052 
L 199.416734 371.04 
L 202.727273 369.098431 
L 205.145818 367.68 
L 208.363636 365.792811 
L 210.874903 364.32 
L 214 362.48719 
L 216.603988 360.96 
L 219.636364 359.181569 
L 222.333072 357.6 
L 225.272727 355.875948 
L 228.054661 354.24 
L 230.909091 352.56142 
L 233.745486 350.88 
L 236.545455 349.220174 
L 239.413485 347.52 
L 242.181818 345.878927 
L 245.081483 344.16 
L 247.818182 342.337336 
L 250.126467 340.8 
L 253.454545 338.406096 
L 254.797641 337.44 
L 259.090909 334.35183 
L 259.468816 334.08 
L 264.139991 330.72 
L 264.727273 330.297565 
L 268.811165 327.36 
L 270.363636 326.344963 
L 274.664124 324 
L 276 323.332357 
L 281.387094 320.64 
L 281.636364 320.515421 
L 287.272727 317.698484 
L 288.110065 317.28 
L 292.909091 314.881548 
L 294.833036 313.92 
L 298.545455 312.064611 
L 301.086378 310.56 
L 304.181818 308.727032 
L 306.70439 307.2 
L 309.818182 305.315075 
L 312.254923 303.84 
L 315.454545 301.81584 
L 317.566128 300.48 
L 321.090909 297.901577 
L 322.159349 297.12 
L 326.727273 293.778505 
L 326.752569 293.76 
L 331.345789 290.4 
L 332.363636 289.655432 
L 335.93901 287.04 
L 338 285.532359 
L 340.883717 283.68 
L 343.636364 282.205821 
L 347.328474 280.32 
L 349.272727 279.326933 
L 353.906771 276.96 
L 354.909091 276.448044 
L 360.485067 273.6 
L 360.545455 273.569156 
L 366.181818 270.690267 
L 366.981187 270.24 
L 371.818182 267.515425 
L 372.850074 266.88 
L 377.454545 264.044629 
L 378.306511 263.52 
L 383.090909 260.573833 
L 383.762949 260.16 
L 388.411473 256.8 
L 388.727273 256.565925 
L 392.944582 253.44 
L 394.363636 252.388178 
L 397.477691 250.08 
L 400 248.210431 
L 402.0108 246.72 
L 405.636364 244.032684 
L 406.543908 243.36 
L 411.272727 240.43458 
L 412.108372 240 
L 416.909091 237.503372 
L 418.569252 236.64 
L 422.545455 234.572164 
L 425.030132 233.28 
L 428.181818 231.640956 
L 431.491012 229.92 
L 433.818182 228.709748 
L 437.850668 226.56 
L 439.454545 225.704961 
L 443.465772 223.2 
L 445.090909 222.185122 
L 448.846182 219.84 
L 450.727273 218.558831 
L 453.77954 216.48 
L 456.363636 214.544651 
L 458.265843 213.12 
L 462 210.323318 
L 462.752147 209.76 
L 467.238451 206.4 
L 467.636364 206.101985 
L 471.724755 203.04 
L 473.272727 201.880652 
L 476.330778 199.68 
L 478.909091 198.129605 
L 482.337539 196.32 
L 484.545455 195.154617 
L 488.703341 192.96 
L 490.181818 192.17963 
L 495.069143 189.6 
L 495.818182 189.204642 
L 501.434945 186.24 
L 501.454545 186.229654 
L 507.090909 183.254667 
L 507.709677 182.88 
L 512.727273 179.841825 
L 513.236974 179.52 
L 518.363636 176.215565 
L 518.449843 176.16 
L 522.902171 172.8 
L 524 171.971511 
L 527.354499 169.44 
L 529.636364 167.717965 
L 531.806827 166.08 
L 535.272727 163.464419 
L 536.259154 162.72 
L 540.711482 159.36 
L 540.909091 159.210873 
L 545.517959 156 
L 546.545455 155.400755 
L 551.70898 152.64 
L 552.181818 152.38719 
L 557.818182 149.373625 
L 557.993291 149.28 
L 563.454545 146.36006 
L 564.277603 145.92 
L 569.090909 143.346495 
L 570.561915 142.56 
L 574.727273 140.33293 
L 576.704368 139.2 
L 580.363636 137.103139 
L 582.346694 135.84 
L 586 133.514818 
L 587.625897 132.48 
L 591.636364 129.928175 
L 592.906498 129.12 
L 597.272727 126.341806 
L 598.187098 125.76 
L 602.909091 122.755437 
L 603.467698 122.4 
L 608.545455 119.169068 
L 608.748299 119.04 
L 614.019738 115.68 
L 614.181818 115.576452 
L 619.279024 112.32 
L 619.818182 111.975549 
L 624.538311 108.96 
L 625.454545 108.374645 
L 629.797598 105.6 
L 631.090909 104.773742 
L 635.056884 102.24 
L 636.727273 101.172839 
L 640.316171 98.88 
L 642.363636 97.571936 
L 645.575458 95.52 
L 648 93.973399 
L 648 92.16 
L 648 88.8 
L 648 85.44 
L 648 82.08 
L 648 78.72 
L 648 75.36 
L 648 72 
L 648 68.64 
L 648 65.28 
L 648 62.800505 
L 643.441338 65.28 
L 642.363636 65.866171 
L 637.263828 68.64 
L 636.727273 68.931837 
L 631.090909 71.997503 
L 631.086318 72 
L 625.454545 75.063168 
L 624.908807 75.36 
L 619.818182 78.442851 
L 619.429891 78.72 
L 615.042792 82.08 
L 614.181818 82.739404 
L 610.655693 85.44 
L 608.545455 87.056194 
L 606.268594 88.8 
L 602.909091 91.372983 
L 601.881495 92.16 
L 597.272727 95.316385 
L 596.975421 95.52 
L 591.757962 98.88 
L 591.636364 98.958308 
L 586.540503 102.24 
L 586 102.588079 
L 581.323044 105.6 
L 580.363636 106.217851 
L 575.619618 108.96 
L 574.727273 109.475796 
L 569.444979 112.32 
L 569.090909 112.510646 
L 563.454545 115.545496 
L 563.204743 115.68 
L 557.818182 118.580346 
L 556.964506 119.04 
L 552.181818 122.048177 
L 551.708633 122.4 
L 547.298138 125.76 
L 546.545455 126.333409 
L 542.887644 129.12 
L 540.909091 130.6273 
L 538.477149 132.48 
L 535.272727 134.686799 
L 533.5982 135.84 
L 529.636364 137.958254 
L 527.313889 139.2 
L 524 140.97182 
L 521.276825 142.56 
L 518.363636 144.589539 
L 516.600646 145.92 
L 512.727273 148.843085 
L 512.123559 149.28 
L 507.480825 152.64 
L 507.090909 152.922187 
L 502.212168 156 
L 501.454545 156.477955 
L 496.886124 159.36 
L 495.818182 160.033724 
L 491.56008 162.72 
L 490.181818 163.589493 
L 486.234035 166.08 
L 484.545455 167.145262 
L 480.907991 169.44 
L 478.909091 170.701031 
L 475.581947 172.8 
L 473.272727 174.256799 
L 470.255903 176.16 
L 467.636364 177.571464 
L 464.02007 179.52 
L 462 180.586234 
L 457.654269 182.88 
L 456.363636 183.561222 
L 451.908819 186.24 
L 450.727273 187.090271 
L 447.376258 189.6 
L 445.090909 191.311604 
L 442.889955 192.96 
L 439.454545 195.532937 
L 438.223516 196.32 
L 433.818182 199.136568 
L 432.946876 199.68 
L 428.181818 202.651957 
L 427.559653 203.04 
L 422.545455 206.167346 
L 422.172431 206.4 
L 416.909091 209.682735 
L 416.785208 209.76 
L 411.397985 213.12 
L 411.272727 213.198123 
L 406.010763 216.48 
L 405.636364 216.692352 
L 400.086712 219.84 
L 400 219.885095 
L 394.363636 222.816302 
L 393.625832 223.2 
L 388.727273 225.74751 
L 387.164952 226.56 
L 383.090909 229.098521 
L 381.982619 229.92 
L 377.454545 233.276268 
L 377.44951 233.28 
L 372.916401 236.64 
L 371.818182 237.454015 
L 368.063098 240 
L 366.181818 241.275527 
L 362.791367 243.36 
L 360.545455 244.740803 
L 357.326239 246.72 
L 354.909091 248.20608 
L 351.86111 250.08 
L 349.272727 251.671356 
L 346.395982 253.44 
L 343.636364 255.136633 
L 340.930853 256.8 
L 338 258.557171 
L 335.326579 260.16 
L 332.363636 261.673384 
L 328.748283 263.52 
L 326.727273 264.552272 
L 322.169986 266.88 
L 321.090909 267.431161 
L 315.84613 270.24 
L 315.454545 270.491535 
L 311.205181 273.6 
L 309.818182 274.614608 
L 306.611961 276.96 
L 304.181818 278.737681 
L 301.970536 280.32 
L 298.545455 282.770874 
L 297.040136 283.68 
L 292.909091 286.174913 
L 291.476691 287.04 
L 287.272727 289.578952 
L 285.913246 290.4 
L 281.636364 292.98299 
L 280.349801 293.76 
L 276 296.387029 
L 274.786356 297.12 
L 270.363636 299.791068 
L 269.222911 300.48 
L 264.727273 302.82807 
L 262.789822 303.84 
L 259.090909 305.688639 
L 256.066851 307.2 
L 253.454545 308.505576 
L 249.34388 310.56 
L 247.818182 311.39193 
L 243.95157 313.92 
L 242.181818 315.192992 
L 239.280395 317.28 
L 236.545455 319.247257 
L 234.609221 320.64 
L 230.909091 323.301522 
L 229.787833 324 
L 225.272727 326.812645 
L 224.346294 327.36 
L 219.636364 330.14272 
L 218.659281 330.72 
L 214 333.472796 
L 212.972268 334.08 
L 208.363636 336.802871 
L 207.285255 337.44 
L 202.727273 340.132946 
L 201.598241 340.8 
L 197.090909 343.452347 
L 195.888341 344.16 
L 191.454545 346.75176 
L 190.140296 347.52 
L 185.818182 350.046477 
L 184.392251 350.88 
L 180.181818 353.341194 
L 178.644206 354.24 
L 174.545455 356.635911 
L 172.896161 357.6 
L 168.909091 359.930628 
L 167.148116 360.96 
L 163.272727 363.225345 
L 161.258935 364.32 
L 157.636364 366.289153 
L 154.710105 367.68 
L 152 368.96811 
L 147.640869 371.04 
L 146.363636 371.647067 
L 140.994531 374.4 
L 140.727273 374.564598 
L 136.101754 377.76 
L 135.090909 378.458312 
L 131.237971 381.12 
L 129.454545 382.352027 
L 126.374188 384.48 
z
" clip-path="url(#p3f751a10bc)" style="fill: #375a8c"/>
    <path d="M 95.636364 384.48 
L 101.272727 384.48 
L 106.909091 384.48 
L 112.545455 384.48 
L 118.181818 384.48 
L 123.818182 384.48 
L 126.374188 384.48 
L 129.454545 382.352027 
L 131.237971 381.12 
L 135.090909 378.458312 
L 136.101754 377.76 
L 140.727273 374.564598 
L 140.994531 374.4 
L 146.363636 371.647067 
L 147.640869 371.04 
L 152 368.96811 
L 154.710105 367.68 
L 157.636364 366.289153 
L 161.258935 364.32 
L 163.272727 363.225345 
L 167.148116 360.96 
L 168.909091 359.930628 
L 172.896161 357.6 
L 174.545455 356.635911 
L 178.644206 354.24 
L 180.181818 353.341194 
L 184.392251 350.88 
L 185.818182 350.046477 
L 190.140296 347.52 
L 191.454545 346.75176 
L 195.888341 344.16 
L 197.090909 343.452347 
L 201.598241 340.8 
L 202.727273 340.132946 
L 207.285255 337.44 
L 208.363636 336.802871 
L 212.972268 334.08 
L 214 333.472796 
L 218.659281 330.72 
L 219.636364 330.14272 
L 224.346294 327.36 
L 225.272727 326.812645 
L 229.787833 324 
L 230.909091 323.301522 
L 234.609221 320.64 
L 236.545455 319.247257 
L 239.280395 317.28 
L 242.181818 315.192992 
L 243.95157 313.92 
L 247.818182 311.39193 
L 249.34388 310.56 
L 253.454545 308.505576 
L 256.066851 307.2 
L 259.090909 305.688639 
L 262.789822 303.84 
L 264.727273 302.82807 
L 269.222911 300.48 
L 270.363636 299.791068 
L 274.786356 297.12 
L 276 296.387029 
L 280.349801 293.76 
L 281.636364 292.98299 
L 285.913246 290.4 
L 287.272727 289.578952 
L 291.476691 287.04 
L 292.909091 286.174913 
L 297.040136 283.68 
L 298.545455 282.770874 
L 301.970536 280.32 
L 304.181818 278.737681 
L 306.611961 276.96 
L 309.818182 274.614608 
L 311.205181 273.6 
L 315.454545 270.491535 
L 315.84613 270.24 
L 321.090909 267.431161 
L 322.169986 266.88 
L 326.727273 264.552272 
L 328.748283 263.52 
L 332.363636 261.673384 
L 335.326579 260.16 
L 338 258.557171 
L 340.930853 256.8 
L 343.636364 255.136633 
L 346.395982 253.44 
L 349.272727 251.671356 
L 351.86111 250.08 
L 354.909091 248.20608 
L 357.326239 246.72 
L 360.545455 244.740803 
L 362.791367 243.36 
L 366.181818 241.275527 
L 368.063098 240 
L 371.818182 237.454015 
L 372.916401 236.64 
L 377.44951 233.28 
L 377.454545 233.276268 
L 381.982619 229.92 
L 383.090909 229.098521 
L 387.164952 226.56 
L 388.727273 225.74751 
L 393.625832 223.2 
L 394.363636 222.816302 
L 400 219.885095 
L 400.086712 219.84 
L 405.636364 216.692352 
L 406.010763 216.48 
L 411.272727 213.198123 
L 411.397985 213.12 
L 416.785208 209.76 
L 416.909091 209.682735 
L 422.172431 206.4 
L 422.545455 206.167346 
L 427.559653 203.04 
L 428.181818 202.651957 
L 432.946876 199.68 
L 433.818182 199.136568 
L 438.223516 196.32 
L 439.454545 195.532937 
L 442.889955 192.96 
L 445.090909 191.311604 
L 447.376258 189.6 
L 450.727273 187.090271 
L 451.908819 186.24 
L 456.363636 183.561222 
L 457.654269 182.88 
L 462 180.586234 
L 464.02007 179.52 
L 467.636364 177.571464 
L 470.255903 176.16 
L 473.272727 174.256799 
L 475.581947 172.8 
L 478.909091 170.701031 
L 480.907991 169.44 
L 484.545455 167.145262 
L 486.234035 166.08 
L 490.181818 163.589493 
L 491.56008 162.72 
L 495.818182 160.033724 
L 496.886124 159.36 
L 501.454545 156.477955 
L 502.212168 156 
L 507.090909 152.922187 
L 507.480825 152.64 
L 512.123559 149.28 
L 512.727273 148.843085 
L 516.600646 145.92 
L 518.363636 144.589539 
L 521.276825 142.56 
L 524 140.97182 
L 527.313889 139.2 
L 529.636364 137.958254 
L 533.5982 135.84 
L 535.272727 134.686799 
L 538.477149 132.48 
L 540.909091 130.6273 
L 542.887644 129.12 
L 546.545455 126.333409 
L 547.298138 125.76 
L 551.708633 122.4 
L 552.181818 122.048177 
L 556.964506 119.04 
L 557.818182 118.580346 
L 563.204743 115.68 
L 563.454545 115.545496 
L 569.090909 112.510646 
L 569.444979 112.32 
L 574.727273 109.475796 
L 575.619618 108.96 
L 580.363636 106.217851 
L 581.323044 105.6 
L 586 102.588079 
L 586.540503 102.24 
L 591.636364 98.958308 
L 591.757962 98.88 
L 596.975421 95.52 
L 597.272727 95.316385 
L 601.881495 92.16 
L 602.909091 91.372983 
L 606.268594 88.8 
L 608.545455 87.056194 
L 610.655693 85.44 
L 614.181818 82.739404 
L 615.042792 82.08 
L 619.429891 78.72 
L 619.818182 78.442851 
L 624.908807 75.36 
L 625.454545 75.063168 
L 631.086318 72 
L 631.090909 71.997503 
L 636.727273 68.931837 
L 637.263828 68.64 
L 642.363636 65.866171 
L 643.441338 65.28 
L 648 62.800505 
L 648 61.92 
L 648 58.56 
L 648 55.2 
L 648 51.84 
L 642.363636 51.84 
L 636.727273 51.84 
L 631.090909 51.84 
L 625.454545 51.84 
L 619.818182 51.84 
L 614.181818 51.84 
L 610.450392 51.84 
L 608.545455 52.876112 
L 604.272882 55.2 
L 602.909091 55.941778 
L 598.095372 58.56 
L 597.272727 59.007443 
L 592.455636 61.92 
L 591.636364 62.511806 
L 588.021976 65.28 
L 586 66.828595 
L 583.634877 68.64 
L 580.363636 71.145384 
L 578.997676 72 
L 574.727273 74.671786 
L 573.456364 75.36 
L 569.090909 77.723954 
L 567.251536 78.72 
L 563.454545 80.776123 
L 561.151785 82.08 
L 557.818182 84.342733 
L 556.388757 85.44 
L 552.181818 88.669366 
L 552.011639 88.8 
L 547.634522 92.16 
L 546.545455 92.820331 
L 542.092955 95.52 
L 540.909091 96.157441 
L 535.852718 98.88 
L 535.272727 99.192291 
L 529.636364 102.227141 
L 529.612482 102.24 
L 524.23326 105.6 
L 524 105.77428 
L 519.818274 108.96 
L 518.363636 110.068171 
L 515.407779 112.32 
L 512.727273 114.362062 
L 510.858241 115.68 
L 507.090909 118.336516 
L 505.776288 119.04 
L 501.454545 121.352664 
L 499.497357 122.4 
L 495.818182 124.368811 
L 493.43993 125.76 
L 490.181818 128.048548 
L 488.776197 129.12 
L 484.545455 132.344936 
L 484.368267 132.48 
L 479.745191 135.84 
L 478.909091 136.373223 
L 474.476677 139.2 
L 473.272727 139.96782 
L 469.208163 142.56 
L 467.636364 143.562416 
L 463.939649 145.92 
L 462 147.157013 
L 458.671135 149.28 
L 456.363636 150.751609 
L 453.402621 152.64 
L 450.727273 154.346206 
L 448.134107 156 
L 445.090909 157.940802 
L 442.865593 159.36 
L 439.454545 161.535399 
L 437.265014 162.72 
L 433.818182 164.584839 
L 430.982206 166.08 
L 428.181818 167.556399 
L 425.055447 169.44 
L 422.545455 171.258395 
L 420.502604 172.8 
L 416.909091 175.511787 
L 416.050114 176.16 
L 411.272727 179.229754 
L 410.821024 179.52 
L 405.636364 182.782239 
L 405.480992 182.88 
L 400.140959 186.24 
L 400 186.328693 
L 394.800927 189.6 
L 394.363636 189.875147 
L 389.460894 192.96 
L 388.727273 193.421602 
L 384.120862 196.32 
L 383.090909 196.968056 
L 378.780829 199.68 
L 377.454545 200.51451 
L 373.440797 203.04 
L 371.818182 204.060965 
L 368.068819 206.4 
L 366.181818 207.577203 
L 362.65257 209.76 
L 360.545455 211.063225 
L 357.219965 213.12 
L 354.909091 214.549247 
L 351.78736 216.48 
L 349.272727 218.035368 
L 346.355097 219.84 
L 343.636364 221.521715 
L 340.923177 223.2 
L 338 225.008177 
L 335.491256 226.56 
L 332.363636 228.494639 
L 330.059336 229.92 
L 326.727273 231.9811 
L 324.627416 233.28 
L 321.090909 235.467562 
L 319.195495 236.64 
L 315.454545 238.954023 
L 313.763575 240 
L 309.818182 242.440485 
L 308.331654 243.36 
L 304.181818 245.926947 
L 302.869939 246.72 
L 298.545455 249.334224 
L 297.072097 250.08 
L 292.909091 252.187208 
L 290.551796 253.44 
L 287.272727 255.538637 
L 285.547991 256.8 
L 281.636364 259.588296 
L 280.834335 260.16 
L 276 263.087289 
L 275.28539 263.52 
L 270.363636 266.500223 
L 269.736446 266.88 
L 264.727273 269.913157 
L 264.187502 270.24 
L 259.090909 273.326092 
L 258.638557 273.6 
L 253.454545 276.739026 
L 253.089613 276.96 
L 247.818182 280.15196 
L 247.540669 280.32 
L 242.181818 283.564894 
L 241.991724 283.68 
L 236.545455 286.977828 
L 236.44278 287.04 
L 230.909091 290.390762 
L 230.891356 290.4 
L 225.272727 293.32659 
L 224.392986 293.76 
L 219.636364 296.320395 
L 218.403721 297.12 
L 214 300.268202 
L 213.703736 300.48 
L 208.363636 303.773446 
L 208.255723 303.84 
L 202.727273 307.100388 
L 202.558366 307.2 
L 197.090909 310.424417 
L 196.861009 310.56 
L 191.454545 313.748447 
L 191.163653 313.92 
L 185.818182 317.072476 
L 185.466296 317.28 
L 180.181818 320.396506 
L 179.768939 320.64 
L 174.545455 323.720535 
L 174.071583 324 
L 168.909091 327.044565 
L 168.374226 327.36 
L 163.272727 330.368595 
L 162.672175 330.72 
L 157.636364 333.666642 
L 156.920536 334.08 
L 152 336.921385 
L 151.101895 337.44 
L 146.363636 340.176129 
L 145.283255 340.8 
L 140.727273 343.234644 
L 138.995641 344.16 
L 135.090909 346.015915 
L 131.926405 347.52 
L 129.454545 348.694872 
L 124.857169 350.88 
L 123.818182 351.37383 
L 118.181818 354.052787 
L 117.787933 354.24 
L 112.545455 356.898712 
L 111.402676 357.6 
L 106.909091 360.70426 
L 106.538893 360.96 
L 101.67511 364.32 
L 101.272727 364.597974 
L 96.811327 367.68 
L 95.636364 368.491689 
L 91.947544 371.04 
L 90 372.385403 
L 90 374.4 
L 90 377.76 
L 90 381.12 
L 90 384.48 
z
" clip-path="url(#p3f751a10bc)" style="fill: #2b758e"/>
    <path d="M 91.947544 371.04 
L 95.636364 368.491689 
L 96.811327 367.68 
L 101.272727 364.597974 
L 101.67511 364.32 
L 106.538893 360.96 
L 106.909091 360.70426 
L 111.402676 357.6 
L 112.545455 356.898712 
L 117.787933 354.24 
L 118.181818 354.052787 
L 123.818182 351.37383 
L 124.857169 350.88 
L 129.454545 348.694872 
L 131.926405 347.52 
L 135.090909 346.015915 
L 138.995641 344.16 
L 140.727273 343.234644 
L 145.283255 340.8 
L 146.363636 340.176129 
L 151.101895 337.44 
L 152 336.921385 
L 156.920536 334.08 
L 157.636364 333.666642 
L 162.672175 330.72 
L 163.272727 330.368595 
L 168.374226 327.36 
L 168.909091 327.044565 
L 174.071583 324 
L 174.545455 323.720535 
L 179.768939 320.64 
L 180.181818 320.396506 
L 185.466296 317.28 
L 185.818182 317.072476 
L 191.163653 313.92 
L 191.454545 313.748447 
L 196.861009 310.56 
L 197.090909 310.424417 
L 202.558366 307.2 
L 202.727273 307.100388 
L 208.255723 303.84 
L 208.363636 303.773446 
L 213.703736 300.48 
L 214 300.268202 
L 218.403721 297.12 
L 219.636364 296.320395 
L 224.392986 293.76 
L 225.272727 293.32659 
L 230.891356 290.4 
L 230.909091 290.390762 
L 236.44278 287.04 
L 236.545455 286.977828 
L 241.991724 283.68 
L 242.181818 283.564894 
L 247.540669 280.32 
L 247.818182 280.15196 
L 253.089613 276.96 
L 253.454545 276.739026 
L 258.638557 273.6 
L 259.090909 273.326092 
L 264.187502 270.24 
L 264.727273 269.913157 
L 269.736446 266.88 
L 270.363636 266.500223 
L 275.28539 263.52 
L 276 263.087289 
L 280.834335 260.16 
L 281.636364 259.588296 
L 285.547991 256.8 
L 287.272727 255.538637 
L 290.551796 253.44 
L 292.909091 252.187208 
L 297.072097 250.08 
L 298.545455 249.334224 
L 302.869939 246.72 
L 304.181818 245.926947 
L 308.331654 243.36 
L 309.818182 242.440485 
L 313.763575 240 
L 315.454545 238.954023 
L 319.195495 236.64 
L 321.090909 235.467562 
L 324.627416 233.28 
L 326.727273 231.9811 
L 330.059336 229.92 
L 332.363636 228.494639 
L 335.491256 226.56 
L 338 225.008177 
L 340.923177 223.2 
L 343.636364 221.521715 
L 346.355097 219.84 
L 349.272727 218.035368 
L 351.78736 216.48 
L 354.909091 214.549247 
L 357.219965 213.12 
L 360.545455 211.063225 
L 362.65257 209.76 
L 366.181818 207.577203 
L 368.068819 206.4 
L 371.818182 204.060965 
L 373.440797 203.04 
L 377.454545 200.51451 
L 378.780829 199.68 
L 383.090909 196.968056 
L 384.120862 196.32 
L 388.727273 193.421602 
L 389.460894 192.96 
L 394.363636 189.875147 
L 394.800927 189.6 
L 400 186.328693 
L 400.140959 186.24 
L 405.480992 182.88 
L 405.636364 182.782239 
L 410.821024 179.52 
L 411.272727 179.229754 
L 416.050114 176.16 
L 416.909091 175.511787 
L 420.502604 172.8 
L 422.545455 171.258395 
L 425.055447 169.44 
L 428.181818 167.556399 
L 430.982206 166.08 
L 433.818182 164.584839 
L 437.265014 162.72 
L 439.454545 161.535399 
L 442.865593 159.36 
L 445.090909 157.940802 
L 448.134107 156 
L 450.727273 154.346206 
L 453.402621 152.64 
L 456.363636 150.751609 
L 458.671135 149.28 
L 462 147.157013 
L 463.939649 145.92 
L 467.636364 143.562416 
L 469.208163 142.56 
L 473.272727 139.96782 
L 474.476677 139.2 
L 478.909091 136.373223 
L 479.745191 135.84 
L 484.368267 132.48 
L 484.545455 132.344936 
L 488.776197 129.12 
L 490.181818 128.048548 
L 493.43993 125.76 
L 495.818182 124.368811 
L 499.497357 122.4 
L 501.454545 121.352664 
L 505.776288 119.04 
L 507.090909 118.336516 
L 510.858241 115.68 
L 512.727273 114.362062 
L 515.407779 112.32 
L 518.363636 110.068171 
L 519.818274 108.96 
L 524 105.77428 
L 524.23326 105.6 
L 529.612482 102.24 
L 529.636364 102.227141 
L 535.272727 99.192291 
L 535.852718 98.88 
L 540.909091 96.157441 
L 542.092955 95.52 
L 546.545455 92.820331 
L 547.634522 92.16 
L 552.011639 88.8 
L 552.181818 88.669366 
L 556.388757 85.44 
L 557.818182 84.342733 
L 561.151785 82.08 
L 563.454545 80.776123 
L 567.251536 78.72 
L 569.090909 77.723954 
L 573.456364 75.36 
L 574.727273 74.671786 
L 578.997676 72 
L 580.363636 71.145384 
L 583.634877 68.64 
L 586 66.828595 
L 588.021976 65.28 
L 591.636364 62.511806 
L 592.455636 61.92 
L 597.272727 59.007443 
L 598.095372 58.56 
L 602.909091 55.941778 
L 604.272882 55.2 
L 608.545455 52.876112 
L 610.450392 51.84 
L 608.545455 51.84 
L 602.909091 51.84 
L 597.272727 51.84 
L 591.636364 51.84 
L 586 51.84 
L 580.363636 51.84 
L 574.727273 51.84 
L 569.090909 51.84 
L 563.454545 51.84 
L 557.818182 51.84 
L 552.181818 51.84 
L 547.64953 51.84 
L 546.545455 52.437872 
L 541.444702 55.2 
L 540.909091 55.490041 
L 535.272727 58.542209 
L 535.239874 58.56 
L 529.636364 61.594378 
L 529.061287 61.92 
L 524.098255 65.28 
L 524 65.355423 
L 519.721137 68.64 
L 518.363636 69.682056 
L 515.34402 72 
L 512.727273 74.00869 
L 510.888936 75.36 
L 507.090909 78.151824 
L 506.199518 78.72 
L 501.454545 81.744462 
L 500.928132 82.08 
L 495.818182 85.3371 
L 495.656746 85.44 
L 490.38536 88.8 
L 490.181818 88.929738 
L 485.113974 92.16 
L 484.545455 92.483707 
L 479.212872 95.52 
L 478.909091 95.68256 
L 473.272727 98.698708 
L 472.933941 98.88 
L 467.636364 101.714855 
L 466.655009 102.24 
L 462 104.731002 
L 460.514439 105.6 
L 456.363636 108.515587 
L 455.780619 108.96 
L 451.372689 112.32 
L 450.727273 112.811976 
L 446.964758 115.68 
L 445.090909 117.108365 
L 442.556828 119.04 
L 439.454545 121.404754 
L 437.915484 122.4 
L 433.818182 125.049553 
L 432.690743 125.76 
L 428.181818 128.601267 
L 427.358619 129.12 
L 422.545455 132.152981 
L 422.026495 132.48 
L 416.909091 135.554626 
L 416.434116 135.84 
L 411.272727 138.561148 
L 410.060972 139.2 
L 405.636364 141.532708 
L 403.687828 142.56 
L 400 144.504269 
L 397.314685 145.92 
L 394.363636 147.475829 
L 391.369102 149.28 
L 388.727273 151.193906 
L 386.810987 152.64 
L 383.090909 155.447297 
L 382.358498 156 
L 377.906008 159.36 
L 377.454545 159.700689 
L 373.453519 162.72 
L 371.818182 163.954081 
L 368.478892 166.08 
L 366.181818 167.542405 
L 362.523043 169.44 
L 360.545455 170.536104 
L 357.133113 172.8 
L 354.909091 174.466246 
L 352.648351 176.16 
L 349.272727 178.308375 
L 347.368967 179.52 
L 343.636364 181.845566 
L 341.976066 182.88 
L 338 185.357253 
L 336.583165 186.24 
L 332.363636 188.86894 
L 331.190264 189.6 
L 326.727273 192.380628 
L 325.797363 192.96 
L 321.090909 195.892315 
L 320.404461 196.32 
L 315.454545 199.404002 
L 315.01156 199.68 
L 309.818182 202.915689 
L 309.618659 203.04 
L 304.225758 206.4 
L 304.181818 206.427376 
L 298.817943 209.76 
L 298.545455 209.929299 
L 293.30778 213.12 
L 292.909091 213.362874 
L 287.792193 216.48 
L 287.272727 216.767224 
L 281.715387 219.84 
L 281.636364 219.88 
L 276 222.732984 
L 275.077362 223.2 
L 270.363636 225.585968 
L 268.439337 226.56 
L 264.727273 228.438953 
L 261.801312 229.92 
L 259.090909 231.291937 
L 255.350104 233.28 
L 253.454545 234.493177 
L 250.519066 236.64 
L 247.818182 238.615255 
L 245.924737 240 
L 242.181818 242.737332 
L 241.330407 243.36 
L 236.736078 246.72 
L 236.545455 246.85941 
L 232.141749 250.08 
L 230.909091 250.981488 
L 227.001108 253.44 
L 225.272727 254.527325 
L 221.453242 256.8 
L 219.636364 257.853714 
L 215.659722 260.16 
L 214 260.977673 
L 208.839555 263.52 
L 208.363636 263.754465 
L 202.727273 266.531256 
L 202.019388 266.88 
L 197.090909 269.308048 
L 195.199222 270.24 
L 191.454545 272.084839 
L 188.379055 273.6 
L 185.818182 274.978467 
L 182.76352 276.96 
L 180.181818 278.805648 
L 178.063536 280.32 
L 174.545455 282.835062 
L 173.363552 283.68 
L 168.909091 286.864476 
L 168.663567 287.04 
L 163.963583 290.4 
L 163.272727 290.89389 
L 158.953545 293.76 
L 157.636364 294.634051 
L 153.335753 297.12 
L 152 297.892126 
L 147.523062 300.48 
L 146.363636 301.146383 
L 141.677068 303.84 
L 140.727273 304.384863 
L 135.819973 307.2 
L 135.090909 307.618237 
L 129.962878 310.56 
L 129.454545 310.851612 
L 124.105784 313.92 
L 123.818182 314.084987 
L 118.248689 317.28 
L 118.181818 317.318361 
L 112.545455 320.551736 
L 112.391594 320.64 
L 106.909091 323.78511 
L 106.534499 324 
L 101.272727 327.018485 
L 100.677404 327.36 
L 95.636364 330.25186 
L 94.820309 330.72 
L 90 333.485234 
L 90 334.08 
L 90 337.44 
L 90 340.8 
L 90 344.16 
L 90 347.52 
L 90 350.88 
L 90 354.24 
L 90 357.6 
L 90 360.96 
L 90 364.32 
L 90 367.68 
L 90 371.04 
L 90 372.385403 
z
" clip-path="url(#p3f751a10bc)" style="fill: #21918c"/>
    <path d="M 94.820309 330.72 
L 95.636364 330.25186 
L 100.677404 327.36 
L 101.272727 327.018485 
L 106.534499 324 
L 106.909091 323.78511 
L 112.391594 320.64 
L 112.545455 320.551736 
L 118.181818 317.318361 
L 118.248689 317.28 
L 123.818182 314.084987 
L 124.105784 313.92 
L 129.454545 310.851612 
L 129.962878 310.56 
L 135.090909 307.618237 
L 135.819973 307.2 
L 140.727273 304.384863 
L 141.677068 303.84 
L 146.363636 301.146383 
L 147.523062 300.48 
L 152 297.892126 
L 153.335753 297.12 
L 157.636364 294.634051 
L 158.953545 293.76 
L 163.272727 290.89389 
L 163.963583 290.4 
L 168.663567 287.04 
L 168.909091 286.864476 
L 173.363552 283.68 
L 174.545455 282.835062 
L 178.063536 280.32 
L 180.181818 278.805648 
L 182.76352 276.96 
L 185.818182 274.978467 
L 188.379055 273.6 
L 191.454545 272.084839 
L 195.199222 270.24 
L 197.090909 269.308048 
L 202.019388 266.88 
L 202.727273 266.531256 
L 208.363636 263.754465 
L 208.839555 263.52 
L 214 260.977673 
L 215.659722 260.16 
L 219.636364 257.853714 
L 221.453242 256.8 
L 225.272727 254.527325 
L 227.001108 253.44 
L 230.909091 250.981488 
L 232.141749 250.08 
L 236.545455 246.85941 
L 236.736078 246.72 
L 241.330407 243.36 
L 242.181818 242.737332 
L 245.924737 240 
L 247.818182 238.615255 
L 250.519066 236.64 
L 253.454545 234.493177 
L 255.350104 233.28 
L 259.090909 231.291937 
L 261.801312 229.92 
L 264.727273 228.438953 
L 268.439337 226.56 
L 270.363636 225.585968 
L 275.077362 223.2 
L 276 222.732984 
L 281.636364 219.88 
L 281.715387 219.84 
L 287.272727 216.767224 
L 287.792193 216.48 
L 292.909091 213.362874 
L 293.30778 213.12 
L 298.545455 209.929299 
L 298.817943 209.76 
L 304.181818 206.427376 
L 304.225758 206.4 
L 309.618659 203.04 
L 309.818182 202.915689 
L 315.01156 199.68 
L 315.454545 199.404002 
L 320.404461 196.32 
L 321.090909 195.892315 
L 325.797363 192.96 
L 326.727273 192.380628 
L 331.190264 189.6 
L 332.363636 188.86894 
L 336.583165 186.24 
L 338 185.357253 
L 341.976066 182.88 
L 343.636364 181.845566 
L 347.368967 179.52 
L 349.272727 178.308375 
L 352.648351 176.16 
L 354.909091 174.466246 
L 357.133113 172.8 
L 360.545455 170.536104 
L 362.523043 169.44 
L 366.181818 167.542405 
L 368.478892 166.08 
L 371.818182 163.954081 
L 373.453519 162.72 
L 377.454545 159.700689 
L 377.906008 159.36 
L 382.358498 156 
L 383.090909 155.447297 
L 386.810987 152.64 
L 388.727273 151.193906 
L 391.369102 149.28 
L 394.363636 147.475829 
L 397.314685 145.92 
L 400 144.504269 
L 403.687828 142.56 
L 405.636364 141.532708 
L 410.060972 139.2 
L 411.272727 138.561148 
L 416.434116 135.84 
L 416.909091 135.554626 
L 422.026495 132.48 
L 422.545455 132.152981 
L 427.358619 129.12 
L 428.181818 128.601267 
L 432.690743 125.76 
L 433.818182 125.049553 
L 437.915484 122.4 
L 439.454545 121.404754 
L 442.556828 119.04 
L 445.090909 117.108365 
L 446.964758 115.68 
L 450.727273 112.811976 
L 451.372689 112.32 
L 455.780619 108.96 
L 456.363636 108.515587 
L 460.514439 105.6 
L 462 104.731002 
L 466.655009 102.24 
L 467.636364 101.714855 
L 472.933941 98.88 
L 473.272727 98.698708 
L 478.909091 95.68256 
L 479.212872 95.52 
L 484.545455 92.483707 
L 485.113974 92.16 
L 490.181818 88.929738 
L 490.38536 88.8 
L 495.656746 85.44 
L 495.818182 85.3371 
L 500.928132 82.08 
L 501.454545 81.744462 
L 506.199518 78.72 
L 507.090909 78.151824 
L 510.888936 75.36 
L 512.727273 74.00869 
L 515.34402 72 
L 518.363636 69.682056 
L 519.721137 68.64 
L 524 65.355423 
L 524.098255 65.28 
L 529.061287 61.92 
L 529.636364 61.594378 
L 535.239874 58.56 
L 535.272727 58.542209 
L 540.909091 55.490041 
L 541.444702 55.2 
L 546.545455 52.437872 
L 547.64953 51.84 
L 546.545455 51.84 
L 540.909091 51.84 
L 535.272727 51.84 
L 529.636364 51.84 
L 524 51.84 
L 518.363636 51.84 
L 512.727273 51.84 
L 507.090909 51.84 
L 501.454545 51.84 
L 495.818182 51.84 
L 490.181818 51.84 
L 484.545455 51.84 
L 478.909091 51.84 
L 473.272727 51.84 
L 472.081369 51.84 
L 467.636364 54.710707 
L 466.878742 55.2 
L 462 58.350826 
L 461.676114 58.56 
L 456.473487 61.92 
L 456.363636 61.990945 
L 451.27086 65.28 
L 450.727273 65.631063 
L 446.068232 68.64 
L 445.090909 69.271182 
L 440.865605 72 
L 439.454545 72.911301 
L 434.940881 75.36 
L 433.818182 75.969073 
L 428.605605 78.72 
L 428.181818 78.943653 
L 422.545455 81.918232 
L 422.266284 82.08 
L 417.427445 85.44 
L 416.909091 85.835839 
L 413.027502 88.8 
L 411.272727 90.140027 
L 408.627558 92.16 
L 405.636364 94.192047 
L 403.681602 95.52 
L 400 97.865697 
L 398.408038 98.88 
L 394.363636 101.456851 
L 393.134475 102.24 
L 388.727273 105.048006 
L 387.860911 105.6 
L 383.090909 108.63916 
L 382.587347 108.96 
L 377.454545 112.230315 
L 377.313783 112.32 
L 372.04022 115.68 
L 371.818182 115.821469 
L 366.704236 119.04 
L 366.181818 119.368791 
L 361.305252 122.4 
L 360.545455 122.87228 
L 355.899731 125.76 
L 354.909091 126.375769 
L 350.49421 129.12 
L 349.272727 129.879257 
L 345.088689 132.48 
L 343.636364 133.340068 
L 339.414935 135.84 
L 338 136.573845 
L 332.93648 139.2 
L 332.363636 139.497101 
L 326.727273 142.420357 
L 326.458025 142.56 
L 321.090909 145.343613 
L 320.056017 145.92 
L 315.454545 149.012856 
L 315.097974 149.28 
L 310.613212 152.64 
L 309.818182 153.23564 
L 306.12845 156 
L 304.181818 157.458423 
L 301.5831 159.36 
L 298.545455 161.582756 
L 296.679486 162.72 
L 292.909091 165.017928 
L 291.166463 166.08 
L 287.272727 168.4531 
L 285.653441 169.44 
L 281.636364 171.888272 
L 280.140418 172.8 
L 276 175.323444 
L 274.627395 176.16 
L 270.363636 178.767649 
L 269.133469 179.52 
L 264.727273 182.2161 
L 263.642271 182.88 
L 259.090909 185.664926 
L 258.151074 186.24 
L 253.454545 189.113751 
L 252.659876 189.6 
L 247.818182 192.562576 
L 247.168678 192.96 
L 242.181818 196.011401 
L 241.67748 196.32 
L 236.545455 199.460227 
L 236.186282 199.68 
L 230.909091 202.909052 
L 230.657818 203.04 
L 225.272727 205.846377 
L 224.144928 206.4 
L 219.636364 208.613201 
L 217.417388 209.76 
L 214 211.89811 
L 212.302495 213.12 
L 208.363636 215.955251 
L 207.634631 216.48 
L 202.727273 219.67645 
L 202.476182 219.84 
L 197.090909 223.043118 
L 196.82715 223.2 
L 191.454545 226.395583 
L 191.178118 226.56 
L 185.818182 229.748048 
L 185.529086 229.92 
L 180.181818 233.100513 
L 179.880054 233.28 
L 174.545455 236.452978 
L 174.231022 236.64 
L 168.909091 239.805443 
L 168.581989 240 
L 163.272727 243.157907 
L 162.904873 243.36 
L 157.636364 246.254423 
L 156.653507 246.72 
L 152 248.924356 
L 149.560378 250.08 
L 146.363636 251.737523 
L 143.66676 253.44 
L 140.727273 255.489488 
L 138.847666 256.8 
L 135.090909 259.351074 
L 133.899671 260.16 
L 129.454545 262.712962 
L 128.049359 263.52 
L 123.818182 265.950085 
L 122.199047 266.88 
L 118.181818 269.187209 
L 116.348735 270.24 
L 112.545455 272.424332 
L 110.498424 273.6 
L 106.909091 275.661456 
L 104.648112 276.96 
L 101.272727 278.898579 
L 98.7978 280.32 
L 95.636364 282.135703 
L 92.947489 283.68 
L 90 285.372826 
L 90 287.04 
L 90 290.4 
L 90 293.76 
L 90 297.12 
L 90 300.48 
L 90 303.84 
L 90 307.2 
L 90 310.56 
L 90 313.92 
L 90 317.28 
L 90 320.64 
L 90 324 
L 90 327.36 
L 90 330.72 
L 90 333.485234 
z
" clip-path="url(#p3f751a10bc)" style="fill: #25ab82"/>
    <path d="M 92.947489 283.68 
L 95.636364 282.135703 
L 98.7978 280.32 
L 101.272727 278.898579 
L 104.648112 276.96 
L 106.909091 275.661456 
L 110.498424 273.6 
L 112.545455 272.424332 
L 116.348735 270.24 
L 118.181818 269.187209 
L 122.199047 266.88 
L 123.818182 265.950085 
L 128.049359 263.52 
L 129.454545 262.712962 
L 133.899671 260.16 
L 135.090909 259.351074 
L 138.847666 256.8 
L 140.727273 255.489488 
L 143.66676 253.44 
L 146.363636 251.737523 
L 149.560378 250.08 
L 152 248.924356 
L 156.653507 246.72 
L 157.636364 246.254423 
L 162.904873 243.36 
L 163.272727 243.157907 
L 168.581989 240 
L 168.909091 239.805443 
L 174.231022 236.64 
L 174.545455 236.452978 
L 179.880054 233.28 
L 180.181818 233.100513 
L 185.529086 229.92 
L 185.818182 229.748048 
L 191.178118 226.56 
L 191.454545 226.395583 
L 196.82715 223.2 
L 197.090909 223.043118 
L 202.476182 219.84 
L 202.727273 219.67645 
L 207.634631 216.48 
L 208.363636 215.955251 
L 212.302495 213.12 
L 214 211.89811 
L 217.417388 209.76 
L 219.636364 208.613201 
L 224.144928 206.4 
L 225.272727 205.846377 
L 230.657818 203.04 
L 230.909091 202.909052 
L 236.186282 199.68 
L 236.545455 199.460227 
L 241.67748 196.32 
L 242.181818 196.011401 
L 247.168678 192.96 
L 247.818182 192.562576 
L 252.659876 189.6 
L 253.454545 189.113751 
L 258.151074 186.24 
L 259.090909 185.664926 
L 263.642271 182.88 
L 264.727273 182.2161 
L 269.133469 179.52 
L 270.363636 178.767649 
L 274.627395 176.16 
L 276 175.323444 
L 280.140418 172.8 
L 281.636364 171.888272 
L 285.653441 169.44 
L 287.272727 168.4531 
L 291.166463 166.08 
L 292.909091 165.017928 
L 296.679486 162.72 
L 298.545455 161.582756 
L 301.5831 159.36 
L 304.181818 157.458423 
L 306.12845 156 
L 309.818182 153.23564 
L 310.613212 152.64 
L 315.097974 149.28 
L 315.454545 149.012856 
L 320.056017 145.92 
L 321.090909 145.343613 
L 326.458025 142.56 
L 326.727273 142.420357 
L 332.363636 139.497101 
L 332.93648 139.2 
L 338 136.573845 
L 339.414935 135.84 
L 343.636364 133.340068 
L 345.088689 132.48 
L 349.272727 129.879257 
L 350.49421 129.12 
L 354.909091 126.375769 
L 355.899731 125.76 
L 360.545455 122.87228 
L 361.305252 122.4 
L 366.181818 119.368791 
L 366.704236 119.04 
L 371.818182 115.821469 
L 372.04022 115.68 
L 377.313783 112.32 
L 377.454545 112.230315 
L 382.587347 108.96 
L 383.090909 108.63916 
L 387.860911 105.6 
L 388.727273 105.048006 
L 393.134475 102.24 
L 394.363636 101.456851 
L 398.408038 98.88 
L 400 97.865697 
L 403.681602 95.52 
L 405.636364 94.192047 
L 408.627558 92.16 
L 411.272727 90.140027 
L 413.027502 88.8 
L 416.909091 85.835839 
L 417.427445 85.44 
L 422.266284 82.08 
L 422.545455 81.918232 
L 428.181818 78.943653 
L 428.605605 78.72 
L 433.818182 75.969073 
L 434.940881 75.36 
L 439.454545 72.911301 
L 440.865605 72 
L 445.090909 69.271182 
L 446.068232 68.64 
L 450.727273 65.631063 
L 451.27086 65.28 
L 456.363636 61.990945 
L 456.473487 61.92 
L 461.676114 58.56 
L 462 58.350826 
L 466.878742 55.2 
L 467.636364 54.710707 
L 472.081369 51.84 
L 467.636364 51.84 
L 462 51.84 
L 456.363636 51.84 
L 450.727273 51.84 
L 445.090909 51.84 
L 439.454545 51.84 
L 433.818182 51.84 
L 428.181818 51.84 
L 422.545455 51.84 
L 416.909091 51.84 
L 411.272727 51.84 
L 405.636364 51.84 
L 400 51.84 
L 394.363636 51.84 
L 388.727273 51.84 
L 383.090909 51.84 
L 377.454545 51.84 
L 376.988807 51.84 
L 371.818182 54.827968 
L 371.174997 55.2 
L 366.181818 58.391272 
L 365.85394 58.56 
L 360.545455 61.29178 
L 359.324677 61.92 
L 354.909091 64.192289 
L 352.795415 65.28 
L 349.272727 67.092797 
L 346.266152 68.64 
L 343.636364 69.993306 
L 339.736889 72 
L 338 72.914123 
L 334.146136 75.36 
L 332.363636 76.705229 
L 329.693957 78.72 
L 326.727273 80.958917 
L 325.241778 82.08 
L 321.090909 85.212605 
L 320.789598 85.44 
L 316.337419 88.8 
L 315.454545 89.466293 
L 311.88524 92.16 
L 309.818182 93.543781 
L 306.866155 95.52 
L 304.181818 97.202962 
L 301.438534 98.88 
L 298.545455 100.648612 
L 295.374779 102.24 
L 292.909091 103.477549 
L 288.680326 105.6 
L 287.272727 106.306485 
L 281.985874 108.96 
L 281.636364 109.135422 
L 276 111.964359 
L 275.291422 112.32 
L 270.363636 114.793295 
L 268.726621 115.68 
L 264.727273 118.3148 
L 263.746461 119.04 
L 259.20216 122.4 
L 259.090909 122.482258 
L 254.65786 125.76 
L 253.454545 126.649716 
L 250.113559 129.12 
L 247.818182 130.817174 
L 245.569259 132.48 
L 242.181818 134.86106 
L 240.789118 135.84 
L 236.545455 138.438322 
L 235.301458 139.2 
L 230.909091 141.88937 
L 229.786186 142.56 
L 225.272727 145.255562 
L 224.150761 145.92 
L 219.636364 148.593467 
L 218.477089 149.28 
L 214 151.931373 
L 212.803418 152.64 
L 208.363636 155.269279 
L 207.129746 156 
L 202.727273 158.607184 
L 201.456074 159.36 
L 197.090909 161.94509 
L 195.782402 162.72 
L 191.454545 165.282996 
L 190.10873 166.08 
L 185.818182 168.620901 
L 184.435058 169.44 
L 180.181818 171.958807 
L 178.761386 172.8 
L 174.545455 175.296713 
L 173.087714 176.16 
L 168.909091 178.256064 
L 166.515765 179.52 
L 163.272727 181.549027 
L 161.270841 182.88 
L 157.636364 185.296418 
L 155.990392 186.24 
L 152 188.527561 
L 150.129252 189.6 
L 146.363636 191.758705 
L 144.268113 192.96 
L 140.727273 194.989848 
L 138.406973 196.32 
L 135.090909 198.220991 
L 132.545834 199.68 
L 129.454545 201.452135 
L 126.684694 203.04 
L 123.818182 204.683278 
L 120.823555 206.4 
L 118.181818 207.914421 
L 114.962415 209.76 
L 112.545455 211.145564 
L 109.101275 213.12 
L 106.909091 214.376708 
L 103.240136 216.48 
L 101.272727 217.500589 
L 96.763001 219.84 
L 95.636364 220.424166 
L 91.239193 223.2 
L 90 224.063998 
L 90 226.56 
L 90 229.92 
L 90 233.28 
L 90 236.64 
L 90 240 
L 90 243.36 
L 90 246.72 
L 90 250.08 
L 90 253.44 
L 90 256.8 
L 90 260.16 
L 90 263.52 
L 90 266.88 
L 90 270.24 
L 90 273.6 
L 90 276.96 
L 90 280.32 
L 90 283.68 
L 90 285.372826 
z
" clip-path="url(#p3f751a10bc)" style="fill: #4ec36b"/>
    <path d="M 91.239193 223.2 
L 95.636364 220.424166 
L 96.763001 219.84 
L 101.272727 217.500589 
L 103.240136 216.48 
L 106.909091 214.376708 
L 109.101275 213.12 
L 112.545455 211.145564 
L 114.962415 209.76 
L 118.181818 207.914421 
L 120.823555 206.4 
L 123.818182 204.683278 
L 126.684694 203.04 
L 129.454545 201.452135 
L 132.545834 199.68 
L 135.090909 198.220991 
L 138.406973 196.32 
L 140.727273 194.989848 
L 144.268113 192.96 
L 146.363636 191.758705 
L 150.129252 189.6 
L 152 188.527561 
L 155.990392 186.24 
L 157.636364 185.296418 
L 161.270841 182.88 
L 163.272727 181.549027 
L 166.515765 179.52 
L 168.909091 178.256064 
L 173.087714 176.16 
L 174.545455 175.296713 
L 178.761386 172.8 
L 180.181818 171.958807 
L 184.435058 169.44 
L 185.818182 168.620901 
L 190.10873 166.08 
L 191.454545 165.282996 
L 195.782402 162.72 
L 197.090909 161.94509 
L 201.456074 159.36 
L 202.727273 158.607184 
L 207.129746 156 
L 208.363636 155.269279 
L 212.803418 152.64 
L 214 151.931373 
L 218.477089 149.28 
L 219.636364 148.593467 
L 224.150761 145.92 
L 225.272727 145.255562 
L 229.786186 142.56 
L 230.909091 141.88937 
L 235.301458 139.2 
L 236.545455 138.438322 
L 240.789118 135.84 
L 242.181818 134.86106 
L 245.569259 132.48 
L 247.818182 130.817174 
L 250.113559 129.12 
L 253.454545 126.649716 
L 254.65786 125.76 
L 259.090909 122.482258 
L 259.20216 122.4 
L 263.746461 119.04 
L 264.727273 118.3148 
L 268.726621 115.68 
L 270.363636 114.793295 
L 275.291422 112.32 
L 276 111.964359 
L 281.636364 109.135422 
L 281.985874 108.96 
L 287.272727 106.306485 
L 288.680326 105.6 
L 292.909091 103.477549 
L 295.374779 102.24 
L 298.545455 100.648612 
L 301.438534 98.88 
L 304.181818 97.202962 
L 306.866155 95.52 
L 309.818182 93.543781 
L 311.88524 92.16 
L 315.454545 89.466293 
L 316.337419 88.8 
L 320.789598 85.44 
L 321.090909 85.212605 
L 325.241778 82.08 
L 326.727273 80.958917 
L 329.693957 78.72 
L 332.363636 76.705229 
L 334.146136 75.36 
L 338 72.914123 
L 339.736889 72 
L 343.636364 69.993306 
L 346.266152 68.64 
L 349.272727 67.092797 
L 352.795415 65.28 
L 354.909091 64.192289 
L 359.324677 61.92 
L 360.545455 61.29178 
L 365.85394 58.56 
L 366.181818 58.391272 
L 371.174997 55.2 
L 371.818182 54.827968 
L 376.988807 51.84 
L 371.818182 51.84 
L 366.181818 51.84 
L 360.545455 51.84 
L 354.909091 51.84 
L 349.272727 51.84 
L 343.636364 51.84 
L 338 51.84 
L 332.363636 51.84 
L 326.727273 51.84 
L 321.090909 51.84 
L 315.454545 51.84 
L 309.818182 51.84 
L 304.181818 51.84 
L 298.545455 51.84 
L 292.909091 51.84 
L 287.272727 51.84 
L 281.636364 51.84 
L 276 51.84 
L 270.363636 51.84 
L 264.727273 51.84 
L 259.090909 51.84 
L 253.454545 51.84 
L 247.818182 51.84 
L 242.181818 51.84 
L 239.157277 51.84 
L 236.545455 53.42264 
L 233.612288 55.2 
L 230.909091 56.838009 
L 227.485791 58.56 
L 225.272727 59.673217 
L 220.479182 61.92 
L 219.636364 62.315038 
L 214 64.956858 
L 213.310573 65.28 
L 208.363636 67.598679 
L 206.141963 68.64 
L 202.727273 70.2405 
L 198.973354 72 
L 197.090909 72.948832 
L 193.226088 75.36 
L 191.454545 76.624032 
L 188.517041 78.72 
L 185.818182 80.64569 
L 183.807994 82.08 
L 180.181818 84.667349 
L 179.098946 85.44 
L 174.545455 88.689008 
L 174.389899 88.8 
L 169.680851 92.16 
L 168.909091 92.644547 
L 164.329222 95.52 
L 163.272727 96.13874 
L 158.140412 98.88 
L 157.636364 99.149221 
L 152 101.675575 
L 150.740752 102.24 
L 146.363636 104.201928 
L 143.244501 105.6 
L 140.727273 106.728282 
L 135.74825 108.96 
L 135.090909 109.254636 
L 129.454545 111.78099 
L 128.251999 112.32 
L 123.818182 114.567237 
L 122.056293 115.68 
L 118.181818 118.335369 
L 117.153684 119.04 
L 112.545455 122.198247 
L 112.251075 122.4 
L 107.348465 125.76 
L 106.909091 126.061125 
L 102.445856 129.12 
L 101.272727 129.924003 
L 97.543247 132.48 
L 95.636364 133.644404 
L 92.238677 135.84 
L 90 137.169167 
L 90 139.2 
L 90 142.56 
L 90 145.92 
L 90 149.28 
L 90 152.64 
L 90 156 
L 90 159.36 
L 90 162.72 
L 90 166.08 
L 90 169.44 
L 90 172.8 
L 90 176.16 
L 90 179.52 
L 90 182.88 
L 90 186.24 
L 90 189.6 
L 90 192.96 
L 90 196.32 
L 90 199.68 
L 90 203.04 
L 90 206.4 
L 90 209.76 
L 90 213.12 
L 90 216.48 
L 90 219.84 
L 90 223.2 
L 90 224.063998 
z
" clip-path="url(#p3f751a10bc)" style="fill: #90d743"/>
    <path d="M 92.238677 135.84 
L 95.636364 133.644404 
L 97.543247 132.48 
L 101.272727 129.924003 
L 102.445856 129.12 
L 106.909091 126.061125 
L 107.348465 125.76 
L 112.251075 122.4 
L 112.545455 122.198247 
L 117.153684 119.04 
L 118.181818 118.335369 
L 122.056293 115.68 
L 123.818182 114.567237 
L 128.251999 112.32 
L 129.454545 111.78099 
L 135.090909 109.254636 
L 135.74825 108.96 
L 140.727273 106.728282 
L 143.244501 105.6 
L 146.363636 104.201928 
L 150.740752 102.24 
L 152 101.675575 
L 157.636364 99.149221 
L 158.140412 98.88 
L 163.272727 96.13874 
L 164.329222 95.52 
L 168.909091 92.644547 
L 169.680851 92.16 
L 174.389899 88.8 
L 174.545455 88.689008 
L 179.098946 85.44 
L 180.181818 84.667349 
L 183.807994 82.08 
L 185.818182 80.64569 
L 188.517041 78.72 
L 191.454545 76.624032 
L 193.226088 75.36 
L 197.090909 72.948832 
L 198.973354 72 
L 202.727273 70.2405 
L 206.141963 68.64 
L 208.363636 67.598679 
L 213.310573 65.28 
L 214 64.956858 
L 219.636364 62.315038 
L 220.479182 61.92 
L 225.272727 59.673217 
L 227.485791 58.56 
L 230.909091 56.838009 
L 233.612288 55.2 
L 236.545455 53.42264 
L 239.157277 51.84 
L 236.545455 51.84 
L 230.909091 51.84 
L 225.272727 51.84 
L 219.636364 51.84 
L 214 51.84 
L 208.363636 51.84 
L 202.727273 51.84 
L 197.090909 51.84 
L 191.454545 51.84 
L 185.818182 51.84 
L 180.181818 51.84 
L 174.545455 51.84 
L 168.909091 51.84 
L 163.272727 51.84 
L 157.636364 51.84 
L 152 51.84 
L 146.363636 51.84 
L 140.727273 51.84 
L 135.090909 51.84 
L 129.454545 51.84 
L 123.818182 51.84 
L 118.181818 51.84 
L 112.545455 51.84 
L 106.909091 51.84 
L 101.272727 51.84 
L 95.636364 51.84 
L 90 51.84 
L 90 55.2 
L 90 58.56 
L 90 61.92 
L 90 65.28 
L 90 68.64 
L 90 72 
L 90 75.36 
L 90 78.72 
L 90 82.08 
L 90 85.44 
L 90 88.8 
L 90 92.16 
L 90 95.52 
L 90 98.88 
L 90 102.24 
L 90 105.6 
L 90 108.96 
L 90 112.32 
L 90 115.68 
L 90 119.04 
L 90 122.4 
L 90 125.76 
L 90 129.12 
L 90 132.48 
L 90 135.84 
L 90 137.169167 
z
" clip-path="url(#p3f751a10bc)" style="fill: #dae319"/>
   </g>
   <g id="matplotlib.axis_1">
    <g id="xtick_1">
     <g id="line2d_1">
      <path d="M 90 384.48 
L 90 51.84 
" clip-path="url(#p3f751a10bc)" style="fill: none; stroke: #b0b0b0; stroke-width: 0.8; stroke-linecap: square"/>
     </g>
     <g id="line2d_2">
      <defs>
       <path id="m433edca0d6" d="M 0 0 
L 0 3.5 
" style="stroke: #000000; stroke-width: 0.8"/>
      </defs>
      <g>
       <use xlink:href="#m433edca0d6" x="90" y="384.48" style="stroke: #000000; stroke-width: 0.8"/>
      </g>
     </g>
     <g id="text_1">
      <!-- 10 -->
      <g transform="translate(83.6375 399.078438) scale(0.1 -0.1)">
       <defs>
        <path id="DejaVuSans-31" d="M 794 531 
L 1825 531 
L 1825 4091 
L 703 3866 
L 703 4441 
L 1819 4666 
L 2450 4666 
L 2450 531 
L 3481 531 
L 3481 0 
L 794 0 
L 794 531 
z
" transform="scale(0.015625)"/>
        <path id="DejaVuSans-30" d="M 2034 4250 
Q 1547 4250 1301 3770 
Q 1056 3291 1056 2328 
Q 1056 1369 1301 889 
Q 1547 409 2034 409 
Q 2525 409 2770 889 
Q 3016 1369 3016 2328 
Q 3016 3291 2770 3770 
Q 2525 4250 2034 4250 
z
M 2034 4750 
Q 2819 4750 3233 4129 
Q 3647 3509 3647 2328 
Q 3647 1150 3233 529 
Q 2819 -91 2034 -91 
Q 1250 -91 836 529 
Q 422 1150 422 2328 
Q 422 3509 836 4129 
Q 1250 4750 2034 4750 
z
" transform="scale(0.015625)"/>
       </defs>
       <use xlink:href="#DejaVuSans-31"/>
       <use xlink:href="#DejaVuSans-30" x="63.623047"/>
      </g>
     </g>
    </g>
    <g id="xtick_2">
     <g id="line2d_3">
      <path d="M 159.75 384.48 
L 159.75 51.84 
" clip-path="url(#p3f751a10bc)" style="fill: none; stroke: #b0b0b0; stroke-width: 0.8; stroke-linecap: square"/>
     </g>
     <g id="line2d_4">
      <g>
       <use xlink:href="#m433edca0d6" x="159.75" y="384.48" style="stroke: #000000; stroke-width: 0.8"/>
      </g>
     </g>
     <g id="text_2">
      <!-- 15 -->
      <g transform="translate(153.3875 399.078438) scale(0.1 -0.1)">
       <defs>
        <path id="DejaVuSans-35" d="M 691 4666 
L 3169 4666 
L 3169 4134 
L 1269 4134 
L 1269 2991 
Q 1406 3038 1543 3061 
Q 1681 3084 1819 3084 
Q 2600 3084 3056 2656 
Q 3513 2228 3513 1497 
Q 3513 744 3044 326 
Q 2575 -91 1722 -91 
Q 1428 -91 1123 -41 
Q 819 9 494 109 
L 494 744 
Q 775 591 1075 516 
Q 1375 441 1709 441 
Q 2250 441 2565 725 
Q 2881 1009 2881 1497 
Q 2881 1984 2565 2268 
Q 2250 2553 1709 2553 
Q 1456 2553 1204 2497 
Q 953 2441 691 2322 
L 691 4666 
z
" transform="scale(0.015625)"/>
       </defs>
       <use xlink:href="#DejaVuSans-31"/>
       <use xlink:href="#DejaVuSans-35" x="63.623047"/>
      </g>
     </g>
    </g>
    <g id="xtick_3">
     <g id="line2d_5">
      <path d="M 229.5 384.48 
L 229.5 51.84 
" clip-path="url(#p3f751a10bc)" style="fill: none; stroke: #b0b0b0; stroke-width: 0.8; stroke-linecap: square"/>
     </g>
     <g id="line2d_6">
      <g>
       <use xlink:href="#m433edca0d6" x="229.5" y="384.48" style="stroke: #000000; stroke-width: 0.8"/>
      </g>
     </g>
     <g id="text_3">
      <!-- 20 -->
      <g transform="translate(223.1375 399.078438) scale(0.1 -0.1)">
       <defs>
        <path id="DejaVuSans-32" d="M 1228 531 
L 3431 531 
L 3431 0 
L 469 0 
L 469 531 
Q 828 903 1448 1529 
Q 2069 2156 2228 2338 
Q 2531 2678 2651 2914 
Q 2772 3150 2772 3378 
Q 2772 3750 2511 3984 
Q 2250 4219 1831 4219 
Q 1534 4219 1204 4116 
Q 875 4013 500 3803 
L 500 4441 
Q 881 4594 1212 4672 
Q 1544 4750 1819 4750 
Q 2544 4750 2975 4387 
Q 3406 4025 3406 3419 
Q 3406 3131 3298 2873 
Q 3191 2616 2906 2266 
Q 2828 2175 2409 1742 
Q 1991 1309 1228 531 
z
" transform="scale(0.015625)"/>
       </defs>
       <use xlink:href="#DejaVuSans-32"/>
       <use xlink:href="#DejaVuSans-30" x="63.623047"/>
      </g>
     </g>
    </g>
    <g id="xtick_4">
     <g id="line2d_7">
      <path d="M 299.25 384.48 
L 299.25 51.84 
" clip-path="url(#p3f751a10bc)" style="fill: none; stroke: #b0b0b0; stroke-width: 0.8; stroke-linecap: square"/>
     </g>
     <g id="line2d_8">
      <g>
       <use xlink:href="#m433edca0d6" x="299.25" y="384.48" style="stroke: #000000; stroke-width: 0.8"/>
      </g>
     </g>
     <g id="text_4">
      <!-- 25 -->
      <g transform="translate(292.8875 399.078438) scale(0.1 -0.1)">
       <use xlink:href="#DejaVuSans-32"/>
       <use xlink:href="#DejaVuSans-35" x="63.623047"/>
      </g>
     </g>
    </g>
    <g id="xtick_5">
     <g id="line2d_9">
      <path d="M 369 384.48 
L 369 51.84 
" clip-path="url(#p3f751a10bc)" style="fill: none; stroke: #b0b0b0; stroke-width: 0.8; stroke-linecap: square"/>
     </g>
     <g id="line2d_10">
      <g>
       <use xlink:href="#m433edca0d6" x="369" y="384.48" style="stroke: #000000; stroke-width: 0.8"/>
      </g>
     </g>
     <g id="text_5">
      <!-- 30 -->
      <g transform="translate(362.6375 399.078438) scale(0.1 -0.1)">
       <defs>
        <path id="DejaVuSans-33" d="M 2597 2516 
Q 3050 2419 3304 2112 
Q 3559 1806 3559 1356 
Q 3559 666 3084 287 
Q 2609 -91 1734 -91 
Q 1441 -91 1130 -33 
Q 819 25 488 141 
L 488 750 
Q 750 597 1062 519 
Q 1375 441 1716 441 
Q 2309 441 2620 675 
Q 2931 909 2931 1356 
Q 2931 1769 2642 2001 
Q 2353 2234 1838 2234 
L 1294 2234 
L 1294 2753 
L 1863 2753 
Q 2328 2753 2575 2939 
Q 2822 3125 2822 3475 
Q 2822 3834 2567 4026 
Q 2313 4219 1838 4219 
Q 1578 4219 1281 4162 
Q 984 4106 628 3988 
L 628 4550 
Q 988 4650 1302 4700 
Q 1616 4750 1894 4750 
Q 2613 4750 3031 4423 
Q 3450 4097 3450 3541 
Q 3450 3153 3228 2886 
Q 3006 2619 2597 2516 
z
" transform="scale(0.015625)"/>
       </defs>
       <use xlink:href="#DejaVuSans-33"/>
       <use xlink:href="#DejaVuSans-30" x="63.623047"/>
      </g>
     </g>
    </g>
    <g id="xtick_6">
     <g id="line2d_11">
      <path d="M 438.75 384.48 
L 438.75 51.84 
" clip-path="url(#p3f751a10bc)" style="fill: none; stroke: #b0b0b0; stroke-width: 0.8; stroke-linecap: square"/>
     </g>
     <g id="line2d_12">
      <g>
       <use xlink:href="#m433edca0d6" x="438.75" y="384.48" style="stroke: #000000; stroke-width: 0.8"/>
      </g>
     </g>
     <g id="text_6">
      <!-- 35 -->
      <g transform="translate(432.3875 399.078438) scale(0.1 -0.1)">
       <use xlink:href="#DejaVuSans-33"/>
       <use xlink:href="#DejaVuSans-35" x="63.623047"/>
      </g>
     </g>
    </g>
    <g id="xtick_7">
     <g id="line2d_13">
      <path d="M 508.5 384.48 
L 508.5 51.84 
" clip-path="url(#p3f751a10bc)" style="fill: none; stroke: #b0b0b0; stroke-width: 0.8; stroke-linecap: square"/>
     </g>
     <g id="line2d_14">
      <g>
       <use xlink:href="#m433edca0d6" x="508.5" y="384.48" style="stroke: #000000; stroke-width: 0.8"/>
      </g>
     </g>
     <g id="text_7">
      <!-- 40 -->
      <g transform="translate(502.1375 399.078438) scale(0.1 -0.1)">
       <defs>
        <path id="DejaVuSans-34" d="M 2419 4116 
L 825 1625 
L 2419 1625 
L 2419 4116 
z
M 2253 4666 
L 3047 4666 
L 3047 1625 
L 3713 1625 
L 3713 1100 
L 3047 1100 
L 3047 0 
L 2419 0 
L 2419 1100 
L 313 1100 
L 313 1709 
L 2253 4666 
z
" transform="scale(0.015625)"/>
       </defs>
       <use xlink:href="#DejaVuSans-34"/>
       <use xlink:href="#DejaVuSans-30" x="63.623047"/>
      </g>
     </g>
    </g>
    <g id="xtick_8">
     <g id="line2d_15">
      <path d="M 578.25 384.48 
L 578.25 51.84 
" clip-path="url(#p3f751a10bc)" style="fill: none; stroke: #b0b0b0; stroke-width: 0.8; stroke-linecap: square"/>
     </g>
     <g id="line2d_16">
      <g>
       <use xlink:href="#m433edca0d6" x="578.25" y="384.48" style="stroke: #000000; stroke-width: 0.8"/>
      </g>
     </g>
     <g id="text_8">
      <!-- 45 -->
      <g transform="translate(571.8875 399.078438) scale(0.1 -0.1)">
       <use xlink:href="#DejaVuSans-34"/>
       <use xlink:href="#DejaVuSans-35" x="63.623047"/>
      </g>
     </g>
    </g>
    <g id="xtick_9">
     <g id="line2d_17">
      <path d="M 648 384.48 
L 648 51.84 
" clip-path="url(#p3f751a10bc)" style="fill: none; stroke: #b0b0b0; stroke-width: 0.8; stroke-linecap: square"/>
     </g>
     <g id="line2d_18">
      <g>
       <use xlink:href="#m433edca0d6" x="648" y="384.48" style="stroke: #000000; stroke-width: 0.8"/>
      </g>
     </g>
     <g id="text_9">
      <!-- 50 -->
      <g transform="translate(641.6375 399.078438) scale(0.1 -0.1)">
       <use xlink:href="#DejaVuSans-35"/>
       <use xlink:href="#DejaVuSans-30" x="63.623047"/>
      </g>
     </g>
    </g>
    <g id="text_10">
     <!-- $T_{tap}$ [C] -->
     <g transform="translate(328.1 420.358125) scale(0.2 -0.2)">
      <defs>
       <path id="DejaVuSans-Oblique-54" d="M 378 4666 
L 4325 4666 
L 4225 4134 
L 2559 4134 
L 1759 0 
L 1125 0 
L 1925 4134 
L 275 4134 
L 378 4666 
z
" transform="scale(0.015625)"/>
       <path id="DejaVuSans-Oblique-74" d="M 2706 3500 
L 2619 3053 
L 1472 3053 
L 1100 1153 
Q 1081 1047 1072 975 
Q 1063 903 1063 863 
Q 1063 663 1183 572 
Q 1303 481 1569 481 
L 2150 481 
L 2053 0 
L 1503 0 
Q 991 0 739 200 
Q 488 400 488 806 
Q 488 878 497 964 
Q 506 1050 525 1153 
L 897 3053 
L 409 3053 
L 500 3500 
L 978 3500 
L 1172 4494 
L 1747 4494 
L 1556 3500 
L 2706 3500 
z
" transform="scale(0.015625)"/>
       <path id="DejaVuSans-Oblique-61" d="M 3438 1997 
L 3047 0 
L 2472 0 
L 2578 531 
Q 2325 219 2001 64 
Q 1678 -91 1281 -91 
Q 834 -91 548 182 
Q 263 456 263 884 
Q 263 1497 752 1853 
Q 1241 2209 2100 2209 
L 2900 2209 
L 2931 2363 
Q 2938 2388 2941 2417 
Q 2944 2447 2944 2509 
Q 2944 2788 2717 2942 
Q 2491 3097 2081 3097 
Q 1800 3097 1504 3025 
Q 1209 2953 897 2809 
L 997 3341 
Q 1322 3463 1633 3523 
Q 1944 3584 2234 3584 
Q 2853 3584 3176 3315 
Q 3500 3047 3500 2534 
Q 3500 2431 3484 2292 
Q 3469 2153 3438 1997 
z
M 2816 1759 
L 2241 1759 
Q 1534 1759 1195 1570 
Q 856 1381 856 984 
Q 856 709 1029 553 
Q 1203 397 1509 397 
Q 1978 397 2328 733 
Q 2678 1069 2791 1631 
L 2816 1759 
z
" transform="scale(0.015625)"/>
       <path id="DejaVuSans-Oblique-70" d="M 3175 2156 
Q 3175 2616 2975 2859 
Q 2775 3103 2400 3103 
Q 2144 3103 1911 2972 
Q 1678 2841 1497 2591 
Q 1319 2344 1212 1994 
Q 1106 1644 1106 1300 
Q 1106 863 1306 627 
Q 1506 391 1875 391 
Q 2147 391 2380 519 
Q 2613 647 2778 891 
Q 2956 1147 3065 1494 
Q 3175 1841 3175 2156 
z
M 1394 2969 
Q 1625 3272 1939 3428 
Q 2253 3584 2638 3584 
Q 3175 3584 3472 3232 
Q 3769 2881 3769 2247 
Q 3769 1728 3584 1258 
Q 3400 788 3053 416 
Q 2822 169 2531 39 
Q 2241 -91 1919 -91 
Q 1547 -91 1294 64 
Q 1041 219 916 525 
L 556 -1331 
L -19 -1331 
L 922 3500 
L 1497 3500 
L 1394 2969 
z
" transform="scale(0.015625)"/>
       <path id="DejaVuSans-20" transform="scale(0.015625)"/>
       <path id="DejaVuSans-5b" d="M 550 4863 
L 1875 4863 
L 1875 4416 
L 1125 4416 
L 1125 -397 
L 1875 -397 
L 1875 -844 
L 550 -844 
L 550 4863 
z
" transform="scale(0.015625)"/>
       <path id="DejaVuSans-b0" d="M 1600 4347 
Q 1350 4347 1178 4173 
Q 1006 4000 1006 3750 
Q 1006 3503 1178 3333 
Q 1350 3163 1600 3163 
Q 1850 3163 2022 3333 
Q 2194 3503 2194 3750 
Q 2194 3997 2020 4172 
Q 1847 4347 1600 4347 
z
M 1600 4750 
Q 1800 4750 1984 4673 
Q 2169 4597 2303 4453 
Q 2447 4313 2519 4134 
Q 2591 3956 2591 3750 
Q 2591 3338 2302 3052 
Q 2013 2766 1594 2766 
Q 1172 2766 890 3047 
Q 609 3328 609 3750 
Q 609 4169 896 4459 
Q 1184 4750 1600 4750 
z
" transform="scale(0.015625)"/>
       <path id="DejaVuSans-43" d="M 4122 4306 
L 4122 3641 
Q 3803 3938 3442 4084 
Q 3081 4231 2675 4231 
Q 1875 4231 1450 3742 
Q 1025 3253 1025 2328 
Q 1025 1406 1450 917 
Q 1875 428 2675 428 
Q 3081 428 3442 575 
Q 3803 722 4122 1019 
L 4122 359 
Q 3791 134 3420 21 
Q 3050 -91 2638 -91 
Q 1578 -91 968 557 
Q 359 1206 359 2328 
Q 359 3453 968 4101 
Q 1578 4750 2638 4750 
Q 3056 4750 3426 4639 
Q 3797 4528 4122 4306 
z
" transform="scale(0.015625)"/>
       <path id="DejaVuSans-5d" d="M 1947 4863 
L 1947 -844 
L 622 -844 
L 622 -397 
L 1369 -397 
L 1369 4416 
L 622 4416 
L 622 4863 
L 1947 4863 
z
" transform="scale(0.015625)"/>
      </defs>
      <use xlink:href="#DejaVuSans-Oblique-54" transform="translate(0 0.015625)"/>
      <use xlink:href="#DejaVuSans-Oblique-74" transform="translate(61.083984 -16.390625) scale(0.7)"/>
      <use xlink:href="#DejaVuSans-Oblique-61" transform="translate(88.530273 -16.390625) scale(0.7)"/>
      <use xlink:href="#DejaVuSans-Oblique-70" transform="translate(131.425781 -16.390625) scale(0.7)"/>
      <use xlink:href="#DejaVuSans-20" transform="translate(178.59375 0.015625)"/>
      <use xlink:href="#DejaVuSans-5b" transform="translate(210.380859 0.015625)"/>
      <use xlink:href="#DejaVuSans-b0" transform="translate(249.394531 0.015625)"/>
      <use xlink:href="#DejaVuSans-43" transform="translate(299.394531 0.015625)"/>
      <use xlink:href="#DejaVuSans-5d" transform="translate(369.21875 0.015625)"/>
     </g>
    </g>
   </g>
   <g id="matplotlib.axis_2">
    <g id="ytick_1">
     <g id="line2d_19">
      <path d="M 90 384.48 
L 648 384.48 
" clip-path="url(#p3f751a10bc)" style="fill: none; stroke: #b0b0b0; stroke-width: 0.8; stroke-linecap: square"/>
     </g>
     <g id="line2d_20">
      <defs>
       <path id="m1866421fa0" d="M 0 0 
L -3.5 0 
" style="stroke: #000000; stroke-width: 0.8"/>
      </defs>
      <g>
       <use xlink:href="#m1866421fa0" x="90" y="384.48" style="stroke: #000000; stroke-width: 0.8"/>
      </g>
     </g>
     <g id="text_11">
      <!-- 60 -->
      <g transform="translate(70.275 388.279219) scale(0.1 -0.1)">
       <defs>
        <path id="DejaVuSans-36" d="M 2113 2584 
Q 1688 2584 1439 2293 
Q 1191 2003 1191 1497 
Q 1191 994 1439 701 
Q 1688 409 2113 409 
Q 2538 409 2786 701 
Q 3034 994 3034 1497 
Q 3034 2003 2786 2293 
Q 2538 2584 2113 2584 
z
M 3366 4563 
L 3366 3988 
Q 3128 4100 2886 4159 
Q 2644 4219 2406 4219 
Q 1781 4219 1451 3797 
Q 1122 3375 1075 2522 
Q 1259 2794 1537 2939 
Q 1816 3084 2150 3084 
Q 2853 3084 3261 2657 
Q 3669 2231 3669 1497 
Q 3669 778 3244 343 
Q 2819 -91 2113 -91 
Q 1303 -91 875 529 
Q 447 1150 447 2328 
Q 447 3434 972 4092 
Q 1497 4750 2381 4750 
Q 2619 4750 2861 4703 
Q 3103 4656 3366 4563 
z
" transform="scale(0.015625)"/>
       </defs>
       <use xlink:href="#DejaVuSans-36"/>
       <use xlink:href="#DejaVuSans-30" x="63.623047"/>
      </g>
     </g>
    </g>
    <g id="ytick_2">
     <g id="line2d_21">
      <path d="M 90 342.9 
L 648 342.9 
" clip-path="url(#p3f751a10bc)" style="fill: none; stroke: #b0b0b0; stroke-width: 0.8; stroke-linecap: square"/>
     </g>
     <g id="line2d_22">
      <g>
       <use xlink:href="#m1866421fa0" x="90" y="342.9" style="stroke: #000000; stroke-width: 0.8"/>
      </g>
     </g>
     <g id="text_12">
      <!-- 65 -->
      <g transform="translate(70.275 346.699219) scale(0.1 -0.1)">
       <use xlink:href="#DejaVuSans-36"/>
       <use xlink:href="#DejaVuSans-35" x="63.623047"/>
      </g>
     </g>
    </g>
    <g id="ytick_3">
     <g id="line2d_23">
      <path d="M 90 301.32 
L 648 301.32 
" clip-path="url(#p3f751a10bc)" style="fill: none; stroke: #b0b0b0; stroke-width: 0.8; stroke-linecap: square"/>
     </g>
     <g id="line2d_24">
      <g>
       <use xlink:href="#m1866421fa0" x="90" y="301.32" style="stroke: #000000; stroke-width: 0.8"/>
      </g>
     </g>
     <g id="text_13">
      <!-- 70 -->
      <g transform="translate(70.275 305.119219) scale(0.1 -0.1)">
       <defs>
        <path id="DejaVuSans-37" d="M 525 4666 
L 3525 4666 
L 3525 4397 
L 1831 0 
L 1172 0 
L 2766 4134 
L 525 4134 
L 525 4666 
z
" transform="scale(0.015625)"/>
       </defs>
       <use xlink:href="#DejaVuSans-37"/>
       <use xlink:href="#DejaVuSans-30" x="63.623047"/>
      </g>
     </g>
    </g>
    <g id="ytick_4">
     <g id="line2d_25">
      <path d="M 90 259.74 
L 648 259.74 
" clip-path="url(#p3f751a10bc)" style="fill: none; stroke: #b0b0b0; stroke-width: 0.8; stroke-linecap: square"/>
     </g>
     <g id="line2d_26">
      <g>
       <use xlink:href="#m1866421fa0" x="90" y="259.74" style="stroke: #000000; stroke-width: 0.8"/>
      </g>
     </g>
     <g id="text_14">
      <!-- 75 -->
      <g transform="translate(70.275 263.539219) scale(0.1 -0.1)">
       <use xlink:href="#DejaVuSans-37"/>
       <use xlink:href="#DejaVuSans-35" x="63.623047"/>
      </g>
     </g>
    </g>
    <g id="ytick_5">
     <g id="line2d_27">
      <path d="M 90 218.16 
L 648 218.16 
" clip-path="url(#p3f751a10bc)" style="fill: none; stroke: #b0b0b0; stroke-width: 0.8; stroke-linecap: square"/>
     </g>
     <g id="line2d_28">
      <g>
       <use xlink:href="#m1866421fa0" x="90" y="218.16" style="stroke: #000000; stroke-width: 0.8"/>
      </g>
     </g>
     <g id="text_15">
      <!-- 80 -->
      <g transform="translate(70.275 221.959219) scale(0.1 -0.1)">
       <defs>
        <path id="DejaVuSans-38" d="M 2034 2216 
Q 1584 2216 1326 1975 
Q 1069 1734 1069 1313 
Q 1069 891 1326 650 
Q 1584 409 2034 409 
Q 2484 409 2743 651 
Q 3003 894 3003 1313 
Q 3003 1734 2745 1975 
Q 2488 2216 2034 2216 
z
M 1403 2484 
Q 997 2584 770 2862 
Q 544 3141 544 3541 
Q 544 4100 942 4425 
Q 1341 4750 2034 4750 
Q 2731 4750 3128 4425 
Q 3525 4100 3525 3541 
Q 3525 3141 3298 2862 
Q 3072 2584 2669 2484 
Q 3125 2378 3379 2068 
Q 3634 1759 3634 1313 
Q 3634 634 3220 271 
Q 2806 -91 2034 -91 
Q 1263 -91 848 271 
Q 434 634 434 1313 
Q 434 1759 690 2068 
Q 947 2378 1403 2484 
z
M 1172 3481 
Q 1172 3119 1398 2916 
Q 1625 2713 2034 2713 
Q 2441 2713 2670 2916 
Q 2900 3119 2900 3481 
Q 2900 3844 2670 4047 
Q 2441 4250 2034 4250 
Q 1625 4250 1398 4047 
Q 1172 3844 1172 3481 
z
" transform="scale(0.015625)"/>
       </defs>
       <use xlink:href="#DejaVuSans-38"/>
       <use xlink:href="#DejaVuSans-30" x="63.623047"/>
      </g>
     </g>
    </g>
    <g id="ytick_6">
     <g id="line2d_29">
      <path d="M 90 176.58 
L 648 176.58 
" clip-path="url(#p3f751a10bc)" style="fill: none; stroke: #b0b0b0; stroke-width: 0.8; stroke-linecap: square"/>
     </g>
     <g id="line2d_30">
      <g>
       <use xlink:href="#m1866421fa0" x="90" y="176.58" style="stroke: #000000; stroke-width: 0.8"/>
      </g>
     </g>
     <g id="text_16">
      <!-- 85 -->
      <g transform="translate(70.275 180.379219) scale(0.1 -0.1)">
       <use xlink:href="#DejaVuSans-38"/>
       <use xlink:href="#DejaVuSans-35" x="63.623047"/>
      </g>
     </g>
    </g>
    <g id="ytick_7">
     <g id="line2d_31">
      <path d="M 90 135 
L 648 135 
" clip-path="url(#p3f751a10bc)" style="fill: none; stroke: #b0b0b0; stroke-width: 0.8; stroke-linecap: square"/>
     </g>
     <g id="line2d_32">
      <g>
       <use xlink:href="#m1866421fa0" x="90" y="135" style="stroke: #000000; stroke-width: 0.8"/>
      </g>
     </g>
     <g id="text_17">
      <!-- 90 -->
      <g transform="translate(70.275 138.799219) scale(0.1 -0.1)">
       <defs>
        <path id="DejaVuSans-39" d="M 703 97 
L 703 672 
Q 941 559 1184 500 
Q 1428 441 1663 441 
Q 2288 441 2617 861 
Q 2947 1281 2994 2138 
Q 2813 1869 2534 1725 
Q 2256 1581 1919 1581 
Q 1219 1581 811 2004 
Q 403 2428 403 3163 
Q 403 3881 828 4315 
Q 1253 4750 1959 4750 
Q 2769 4750 3195 4129 
Q 3622 3509 3622 2328 
Q 3622 1225 3098 567 
Q 2575 -91 1691 -91 
Q 1453 -91 1209 -44 
Q 966 3 703 97 
z
M 1959 2075 
Q 2384 2075 2632 2365 
Q 2881 2656 2881 3163 
Q 2881 3666 2632 3958 
Q 2384 4250 1959 4250 
Q 1534 4250 1286 3958 
Q 1038 3666 1038 3163 
Q 1038 2656 1286 2365 
Q 1534 2075 1959 2075 
z
" transform="scale(0.015625)"/>
       </defs>
       <use xlink:href="#DejaVuSans-39"/>
       <use xlink:href="#DejaVuSans-30" x="63.623047"/>
      </g>
     </g>
    </g>
    <g id="ytick_8">
     <g id="line2d_33">
      <path d="M 90 93.42 
L 648 93.42 
" clip-path="url(#p3f751a10bc)" style="fill: none; stroke: #b0b0b0; stroke-width: 0.8; stroke-linecap: square"/>
     </g>
     <g id="line2d_34">
      <g>
       <use xlink:href="#m1866421fa0" x="90" y="93.42" style="stroke: #000000; stroke-width: 0.8"/>
      </g>
     </g>
     <g id="text_18">
      <!-- 95 -->
      <g transform="translate(70.275 97.219219) scale(0.1 -0.1)">
       <use xlink:href="#DejaVuSans-39"/>
       <use xlink:href="#DejaVuSans-35" x="63.623047"/>
      </g>
     </g>
    </g>
    <g id="ytick_9">
     <g id="line2d_35">
      <path d="M 90 51.84 
L 648 51.84 
" clip-path="url(#p3f751a10bc)" style="fill: none; stroke: #b0b0b0; stroke-width: 0.8; stroke-linecap: square"/>
     </g>
     <g id="line2d_36">
      <g>
       <use xlink:href="#m1866421fa0" x="90" y="51.84" style="stroke: #000000; stroke-width: 0.8"/>
      </g>
     </g>
     <g id="text_19">
      <!-- 100 -->
      <g transform="translate(63.9125 55.639219) scale(0.1 -0.1)">
       <use xlink:href="#DejaVuSans-31"/>
       <use xlink:href="#DejaVuSans-30" x="63.623047"/>
       <use xlink:href="#DejaVuSans-30" x="127.246094"/>
      </g>
     </g>
    </g>
    <g id="text_20">
     <!-- $T_{sto,HT}$ [C] -->
     <g transform="translate(54.9125 271.36) rotate(-90) scale(0.2 -0.2)">
      <defs>
       <path id="DejaVuSans-Oblique-73" d="M 3200 3397 
L 3091 2853 
Q 2863 2978 2609 3040 
Q 2356 3103 2088 3103 
Q 1634 3103 1373 2948 
Q 1113 2794 1113 2528 
Q 1113 2219 1719 2053 
Q 1766 2041 1788 2034 
L 1972 1978 
Q 2547 1819 2739 1644 
Q 2931 1469 2931 1166 
Q 2931 609 2489 259 
Q 2047 -91 1331 -91 
Q 1053 -91 747 -37 
Q 441 16 72 128 
L 184 722 
Q 500 559 806 475 
Q 1113 391 1394 391 
Q 1816 391 2080 572 
Q 2344 753 2344 1031 
Q 2344 1331 1650 1516 
L 1591 1531 
L 1394 1581 
Q 956 1697 753 1886 
Q 550 2075 550 2369 
Q 550 2928 970 3256 
Q 1391 3584 2113 3584 
Q 2397 3584 2667 3537 
Q 2938 3491 3200 3397 
z
" transform="scale(0.015625)"/>
       <path id="DejaVuSans-Oblique-6f" d="M 1625 -91 
Q 1009 -91 651 289 
Q 294 669 294 1325 
Q 294 1706 417 2101 
Q 541 2497 738 2766 
Q 1047 3184 1428 3384 
Q 1809 3584 2291 3584 
Q 2888 3584 3255 3212 
Q 3622 2841 3622 2241 
Q 3622 1825 3500 1412 
Q 3378 1000 3181 728 
Q 2875 309 2494 109 
Q 2113 -91 1625 -91 
z
M 891 1344 
Q 891 869 1089 633 
Q 1288 397 1691 397 
Q 2269 397 2648 901 
Q 3028 1406 3028 2181 
Q 3028 2634 2825 2865 
Q 2622 3097 2228 3097 
Q 1903 3097 1650 2945 
Q 1397 2794 1197 2484 
Q 1050 2253 970 1956 
Q 891 1659 891 1344 
z
" transform="scale(0.015625)"/>
       <path id="DejaVuSans-2c" d="M 750 794 
L 1409 794 
L 1409 256 
L 897 -744 
L 494 -744 
L 750 256 
L 750 794 
z
" transform="scale(0.015625)"/>
       <path id="DejaVuSans-Oblique-48" d="M 1081 4666 
L 1716 4666 
L 1344 2753 
L 3634 2753 
L 4006 4666 
L 4641 4666 
L 3731 0 
L 3097 0 
L 3531 2222 
L 1241 2222 
L 806 0 
L 172 0 
L 1081 4666 
z
" transform="scale(0.015625)"/>
      </defs>
      <use xlink:href="#DejaVuSans-Oblique-54" transform="translate(0 0.015625)"/>
      <use xlink:href="#DejaVuSans-Oblique-73" transform="translate(61.083984 -16.390625) scale(0.7)"/>
      <use xlink:href="#DejaVuSans-Oblique-74" transform="translate(97.553711 -16.390625) scale(0.7)"/>
      <use xlink:href="#DejaVuSans-Oblique-6f" transform="translate(125 -16.390625) scale(0.7)"/>
      <use xlink:href="#DejaVuSans-2c" transform="translate(167.827148 -16.390625) scale(0.7)"/>
      <use xlink:href="#DejaVuSans-Oblique-48" transform="translate(203.71582 -16.390625) scale(0.7)"/>
      <use xlink:href="#DejaVuSans-Oblique-54" transform="translate(256.352539 -16.390625) scale(0.7)"/>
      <use xlink:href="#DejaVuSans-20" transform="translate(301.845703 0.015625)"/>
      <use xlink:href="#DejaVuSans-5b" transform="translate(333.632812 0.015625)"/>
      <use xlink:href="#DejaVuSans-b0" transform="translate(372.646484 0.015625)"/>
      <use xlink:href="#DejaVuSans-43" transform="translate(422.646484 0.015625)"/>
      <use xlink:href="#DejaVuSans-5d" transform="translate(492.470703 0.015625)"/>
     </g>
    </g>
   </g>
   <g id="QuadContourSet_2">
    <path clip-path="url(#p3f751a10bc)" style="fill: none; stroke: #000000; stroke-width: 1.5"/>
    <path d="M 220.513983 384.48 
L 248.949788 367.68 
L 288.625777 344.16 
L 293.739707 340.8 
L 299.759905 337.44 
L 310.957366 330.72 
L 336.723008 315.12284 
M 361.7404 299.796561 
L 366.181818 296.980482 
L 371.892298 293.76 
L 426.456673 260.16 
L 431.105198 256.8 
L 433.818182 255.121649 
L 439.454545 252.116862 
L 491.139894 219.84 
L 496.073251 216.48 
L 501.454545 212.697988 
L 507.090909 209.723 
L 512.727273 206.310158 
L 560.369991 176.16 
L 564.822319 172.8 
L 569.819759 169.44 
L 576.011898 166.08 
L 581.723733 162.72 
L 648 120.519657 
L 648 120.519657 
" clip-path="url(#p3f751a10bc)" style="fill: none; stroke: #000000; stroke-width: 1.5"/>
    <path d="M 176.500395 384.48 
L 245.081483 344.16 
L 250.126467 340.8 
L 270.363636 326.344963 
L 276 323.332357 
L 298.545455 312.064611 
L 312.254923 303.84 
L 317.566128 300.48 
L 338 285.532359 
L 340.883717 283.68 
L 347.328474 280.32 
L 366.981187 270.24 
L 372.850074 266.88 
L 383.762949 260.16 
L 394.363636 252.388178 
L 406.543908 243.36 
L 412.108372 240 
L 439.454545 225.704961 
L 450.727273 218.558831 
L 453.77954 216.48 
L 476.330778 199.68 
L 478.909091 198.129605 
L 507.709677 182.88 
L 513.236974 179.52 
L 518.449843 176.16 
L 540.909091 159.210873 
L 546.545455 155.400755 
L 576.704368 139.2 
L 582.346694 135.84 
L 622.732346 110.113777 
M 647.382223 94.367476 
L 648 93.973399 
L 648 93.973399 
" clip-path="url(#p3f751a10bc)" style="fill: none; stroke: #000000; stroke-width: 1.5"/>
    <path d="M 126.374188 384.48 
L 140.994531 374.4 
L 147.640869 371.04 
L 156.118079 367.010792 
M 181.535185 352.550088 
L 214 333.472796 
L 225.272727 326.812645 
L 230.909091 323.301522 
L 243.95157 313.92 
L 247.818182 311.39193 
L 249.34388 310.56 
L 264.727273 302.82807 
L 270.363636 299.791068 
L 298.545455 282.770874 
L 311.205181 273.6 
L 315.84613 270.24 
L 322.169986 266.88 
L 335.326579 260.16 
L 349.272727 251.671356 
L 368.063098 240 
L 372.916401 236.64 
L 383.090909 229.098521 
L 387.164952 226.56 
L 400.086712 219.84 
L 406.010763 216.48 
L 439.454545 195.532937 
L 451.908819 186.24 
L 457.654269 182.88 
L 470.255903 176.16 
L 507.480825 152.64 
L 516.600646 145.92 
L 518.363636 144.589539 
L 521.276825 142.56 
L 524 140.97182 
L 533.5982 135.84 
L 538.477149 132.48 
L 552.181818 122.048177 
L 557.818182 118.580346 
L 575.619618 108.96 
L 581.323044 105.6 
L 597.272727 95.316385 
L 602.909091 91.372983 
L 619.818182 78.442851 
L 625.454545 75.063168 
L 648 62.800505 
L 648 62.800505 
" clip-path="url(#p3f751a10bc)" style="fill: none; stroke: #000000; stroke-width: 1.5"/>
    <path d="M 90 372.385403 
L 112.545455 356.898712 
L 118.181818 354.052787 
L 140.727273 343.234644 
L 146.363636 340.176129 
L 168.909091 327.044565 
L 208.363636 303.773446 
L 214 300.268202 
L 219.636364 296.320395 
L 225.272727 293.32659 
L 230.909091 290.390762 
L 281.636364 259.588296 
L 287.272727 255.538637 
L 290.059115 253.755321 
M 315.315925 239.039769 
L 378.780829 199.68 
L 416.050114 176.16 
L 425.055447 169.44 
L 428.181818 167.556399 
L 439.454545 161.535399 
L 479.745191 135.84 
L 484.545455 132.344936 
L 490.181818 128.048548 
L 493.43993 125.76 
L 495.818182 124.368811 
L 507.090909 118.336516 
L 512.727273 114.362062 
L 524.23326 105.6 
L 529.636364 102.227141 
L 542.092955 95.52 
L 547.634522 92.16 
L 557.818182 84.342733 
L 561.151785 82.08 
L 567.251536 78.72 
L 574.727273 74.671786 
L 580.363636 71.145384 
L 592.455636 61.92 
L 598.095372 58.56 
L 610.450392 51.84 
L 610.450392 51.84 
" clip-path="url(#p3f751a10bc)" style="fill: none; stroke: #000000; stroke-width: 1.5"/>
    <path d="M 90 333.485234 
L 157.636364 294.634051 
L 163.963583 290.4 
L 182.76352 276.96 
L 185.818182 274.978467 
L 188.379055 273.6 
L 215.659722 260.16 
L 225.272727 254.527325 
L 232.141749 250.08 
L 253.454545 234.493177 
L 255.350104 233.28 
L 261.801312 229.92 
L 281.715387 219.84 
L 287.792193 216.48 
L 304.225758 206.4 
L 352.648351 176.16 
L 357.133113 172.8 
L 360.545455 170.536104 
L 362.523043 169.44 
L 366.181818 167.542405 
L 371.818182 163.954081 
L 391.369102 149.28 
L 394.363636 147.475829 
L 416.909091 135.554626 
L 422.545455 132.152981 
L 439.454545 121.404754 
L 454.334139 110.062597 
M 479.544977 95.330905 
L 485.113974 92.16 
L 507.090909 78.151824 
L 515.34402 72 
L 524.098255 65.28 
L 529.636364 61.594378 
L 547.64953 51.84 
L 547.64953 51.84 
" clip-path="url(#p3f751a10bc)" style="fill: none; stroke: #000000; stroke-width: 1.5"/>
    <path d="M 90 285.372826 
L 121.178465 267.466149 
M 146.046467 251.937745 
L 146.363636 251.737523 
L 152 248.924356 
L 157.636364 246.254423 
L 163.272727 243.157907 
L 202.727273 219.67645 
L 208.363636 215.955251 
L 214 211.89811 
L 217.417388 209.76 
L 224.144928 206.4 
L 225.272727 205.846377 
L 230.909091 202.909052 
L 298.545455 161.582756 
L 310.613212 152.64 
L 315.454545 149.012856 
L 321.090909 145.343613 
L 339.414935 135.84 
L 349.272727 129.879257 
L 377.313783 112.32 
L 405.636364 94.192047 
L 408.627558 92.16 
L 417.427445 85.44 
L 422.545455 81.918232 
L 439.454545 72.911301 
L 472.081369 51.84 
L 472.081369 51.84 
" clip-path="url(#p3f751a10bc)" style="fill: none; stroke: #000000; stroke-width: 1.5"/>
    <path d="M 90 224.063998 
L 91.239193 223.2 
L 95.636364 220.424166 
L 96.763001 219.84 
L 101.272727 217.500589 
L 103.240136 216.48 
L 106.909091 214.376708 
L 109.101275 213.12 
L 112.545455 211.145564 
L 114.962415 209.76 
L 118.181818 207.914421 
L 119.85784 206.953613 
M 145.233827 192.406387 
L 146.363636 191.758705 
L 150.129252 189.6 
L 152 188.527561 
L 155.990392 186.24 
L 157.636364 185.296418 
L 161.270841 182.88 
L 163.272727 181.549027 
L 166.515765 179.52 
L 168.909091 178.256064 
L 173.087714 176.16 
L 174.545455 175.296713 
L 178.761386 172.8 
L 180.181818 171.958807 
L 184.435058 169.44 
L 185.818182 168.620901 
L 190.10873 166.08 
L 191.454545 165.282996 
L 195.782402 162.72 
L 197.090909 161.94509 
L 201.456074 159.36 
L 202.727273 158.607184 
L 207.129746 156 
L 208.363636 155.269279 
L 212.803418 152.64 
L 214 151.931373 
L 218.477089 149.28 
L 219.636364 148.593467 
L 224.150761 145.92 
L 225.272727 145.255562 
L 229.786186 142.56 
L 230.909091 141.88937 
L 235.301458 139.2 
L 236.545455 138.438322 
L 240.789118 135.84 
L 242.181818 134.86106 
L 245.569259 132.48 
L 247.818182 130.817174 
L 250.113559 129.12 
L 253.454545 126.649716 
L 254.65786 125.76 
L 259.090909 122.482258 
L 259.20216 122.4 
L 263.746461 119.04 
L 264.727273 118.3148 
L 268.726621 115.68 
L 270.363636 114.793295 
L 275.291422 112.32 
L 276 111.964359 
L 281.636364 109.135422 
L 281.985874 108.96 
L 287.272727 106.306485 
L 288.680326 105.6 
L 292.909091 103.477549 
L 295.374779 102.24 
L 298.545455 100.648612 
L 301.438534 98.88 
L 304.181818 97.202962 
L 306.866155 95.52 
L 309.818182 93.543781 
L 311.88524 92.16 
L 315.454545 89.466293 
L 316.337419 88.8 
L 320.789598 85.44 
L 321.090909 85.212605 
L 325.241778 82.08 
L 326.727273 80.958917 
L 329.693957 78.72 
L 332.363636 76.705229 
L 334.146136 75.36 
L 338 72.914123 
L 339.736889 72 
L 343.636364 69.993306 
L 346.266152 68.64 
L 349.272727 67.092797 
L 352.795415 65.28 
L 354.909091 64.192289 
L 359.324677 61.92 
L 360.545455 61.29178 
L 365.85394 58.56 
L 366.181818 58.391272 
L 371.174997 55.2 
L 371.818182 54.827968 
L 376.988807 51.84 
" clip-path="url(#p3f751a10bc)" style="fill: none; stroke: #000000; stroke-width: 1.5"/>
    <path d="M 90 137.169167 
L 92.238677 135.84 
L 95.636364 133.644404 
L 97.543247 132.48 
L 101.272727 129.924003 
L 102.445856 129.12 
L 106.909091 126.061125 
L 107.348465 125.76 
L 112.251075 122.4 
L 112.545455 122.198247 
L 116.861663 119.240136 
M 142.841316 105.780717 
L 143.244501 105.6 
L 146.363636 104.201928 
L 150.740752 102.24 
L 152 101.675575 
L 157.636364 99.149221 
L 158.140412 98.88 
L 163.272727 96.13874 
L 164.329222 95.52 
L 168.909091 92.644547 
L 169.680851 92.16 
L 174.389899 88.8 
L 174.545455 88.689008 
L 179.098946 85.44 
L 180.181818 84.667349 
L 183.807994 82.08 
L 185.818182 80.64569 
L 188.517041 78.72 
L 191.454545 76.624032 
L 193.226088 75.36 
L 197.090909 72.948832 
L 198.973354 72 
L 202.727273 70.2405 
L 206.141963 68.64 
L 208.363636 67.598679 
L 213.310573 65.28 
L 214 64.956858 
L 219.636364 62.315038 
L 220.479182 61.92 
L 225.272727 59.673217 
L 227.485791 58.56 
L 230.909091 56.838009 
L 233.612288 55.2 
L 236.545455 53.42264 
L 239.157277 51.84 
" clip-path="url(#p3f751a10bc)" style="fill: none; stroke: #000000; stroke-width: 1.5"/>
    <path clip-path="url(#p3f751a10bc)" style="fill: none; stroke: #000000; stroke-width: 1.5"/>
   </g>
   <g id="patch_3">
    <path d="M 90 384.48 
L 90 51.84 
" style="fill: none; stroke: #000000; stroke-width: 0.8; stroke-linejoin: miter; stroke-linecap: square"/>
   </g>
   <g id="patch_4">
    <path d="M 648 384.48 
L 648 51.84 
" style="fill: none; stroke: #000000; stroke-width: 0.8; stroke-linejoin: miter; stroke-linecap: square"/>
   </g>
   <g id="patch_5">
    <path d="M 90 384.48 
L 648 384.48 
" style="fill: none; stroke: #000000; stroke-width: 0.8; stroke-linejoin: miter; stroke-linecap: square"/>
   </g>
   <g id="patch_6">
    <path d="M 90 51.84 
L 648 51.84 
" style="fill: none; stroke: #000000; stroke-width: 0.8; stroke-linejoin: miter; stroke-linecap: square"/>
   </g>
   <g id="text_21">
    <g clip-path="url(#p3f751a10bc)">
     <!-- 0.01 -->
     <g transform="translate(341.206574 315.680093) rotate(-31.39021) scale(0.1 -0.1)">
      <defs>
       <path id="DejaVuSans-2e" d="M 684 794 
L 1344 794 
L 1344 0 
L 684 0 
L 684 794 
z
" transform="scale(0.015625)"/>
      </defs>
      <use xlink:href="#DejaVuSans-30"/>
      <use xlink:href="#DejaVuSans-2e" x="63.623047"/>
      <use xlink:href="#DejaVuSans-30" x="95.410156"/>
      <use xlink:href="#DejaVuSans-31" x="159.033203"/>
     </g>
    </g>
   </g>
   <g id="text_22">
    <g clip-path="url(#p3f751a10bc)">
     <!-- 0.02 -->
     <g transform="translate(627.160811 110.558995) rotate(-32.573285) scale(0.1 -0.1)">
      <use xlink:href="#DejaVuSans-30"/>
      <use xlink:href="#DejaVuSans-2e" x="63.623047"/>
      <use xlink:href="#DejaVuSans-30" x="95.410156"/>
      <use xlink:href="#DejaVuSans-32" x="159.033203"/>
     </g>
    </g>
   </g>
   <g id="text_23">
    <g clip-path="url(#p3f751a10bc)">
     <!-- 0.03 -->
     <g transform="translate(160.639873 367.878817) rotate(-29.945189) scale(0.1 -0.1)">
      <use xlink:href="#DejaVuSans-30"/>
      <use xlink:href="#DejaVuSans-2e" x="63.623047"/>
      <use xlink:href="#DejaVuSans-30" x="95.410156"/>
      <use xlink:href="#DejaVuSans-33" x="159.033203"/>
     </g>
    </g>
   </g>
   <g id="text_24">
    <g clip-path="url(#p3f751a10bc)">
     <!-- 0.04 -->
     <g transform="translate(294.641734 254.710639) rotate(-30.240052) scale(0.1 -0.1)">
      <use xlink:href="#DejaVuSans-30"/>
      <use xlink:href="#DejaVuSans-2e" x="63.623047"/>
      <use xlink:href="#DejaVuSans-30" x="95.410156"/>
      <use xlink:href="#DejaVuSans-34" x="159.033203"/>
     </g>
    </g>
   </g>
   <g id="text_25">
    <g clip-path="url(#p3f751a10bc)">
     <!-- 0.05 -->
     <g transform="translate(458.336092 110.136156) rotate(-29.585749) scale(0.1 -0.1)">
      <use xlink:href="#DejaVuSans-30"/>
      <use xlink:href="#DejaVuSans-2e" x="63.623047"/>
      <use xlink:href="#DejaVuSans-30" x="95.410156"/>
      <use xlink:href="#DejaVuSans-35" x="159.033203"/>
     </g>
    </g>
   </g>
   <g id="text_26">
    <g clip-path="url(#p3f751a10bc)">
     <!-- 0.06 -->
     <g transform="translate(125.94766 268.425543) rotate(-32.186788) scale(0.1 -0.1)">
      <use xlink:href="#DejaVuSans-30"/>
      <use xlink:href="#DejaVuSans-2e" x="63.623047"/>
      <use xlink:href="#DejaVuSans-30" x="95.410156"/>
      <use xlink:href="#DejaVuSans-36" x="159.033203"/>
     </g>
    </g>
   </g>
   <g id="text_27">
    <g clip-path="url(#p3f751a10bc)">
     <!-- 0.07 -->
     <g transform="translate(124.259856 207.610714) rotate(-29.82424) scale(0.1 -0.1)">
      <use xlink:href="#DejaVuSans-30"/>
      <use xlink:href="#DejaVuSans-2e" x="63.623047"/>
      <use xlink:href="#DejaVuSans-30" x="95.410156"/>
      <use xlink:href="#DejaVuSans-37" x="159.033203"/>
     </g>
    </g>
   </g>
   <g id="text_28">
    <g clip-path="url(#p3f751a10bc)">
     <!-- 0.08 -->
     <g transform="translate(120.758058 119.259277) rotate(-26.772145) scale(0.1 -0.1)">
      <use xlink:href="#DejaVuSans-30"/>
      <use xlink:href="#DejaVuSans-2e" x="63.623047"/>
      <use xlink:href="#DejaVuSans-30" x="95.410156"/>
      <use xlink:href="#DejaVuSans-38" x="159.033203"/>
     </g>
    </g>
   </g>
  </g>
 </g>
 <defs>
  <clipPath id="p3f751a10bc">
   <rect x="90" y="51.84" width="558" height="332.64"/>
  </clipPath>
 </defs>
</svg>
