<?xml version="1.0" encoding="utf-8" standalone="no"?>
<!DOCTYPE svg PUBLIC "-//W3C//DTD SVG 1.1//EN"
  "http://www.w3.org/Graphics/SVG/1.1/DTD/svg11.dtd">
<svg xmlns:xlink="http://www.w3.org/1999/xlink" width="720pt" height="432pt" viewBox="0 0 720 432" xmlns="http://www.w3.org/2000/svg" version="1.1">
 <metadata>
  <rdf:RDF xmlns:dc="http://purl.org/dc/elements/1.1/" xmlns:cc="http://creativecommons.org/ns#" xmlns:rdf="http://www.w3.org/1999/02/22-rdf-syntax-ns#">
   <cc:Work>
    <dc:type rdf:resource="http://purl.org/dc/dcmitype/StillImage"/>
    <dc:date>2024-06-12T10:20:37.005593</dc:date>
    <dc:format>image/svg+xml</dc:format>
    <dc:creator>
     <cc:Agent>
      <dc:title>Matplotlib v3.8.3, https://matplotlib.org/</dc:title>
     </cc:Agent>
    </dc:creator>
   </cc:Work>
  </rdf:RDF>
 </metadata>
 <defs>
  <style type="text/css">*{stroke-linejoin: round; stroke-linecap: butt}</style>
 </defs>
 <g id="figure_1">
  <g id="patch_1">
   <path d="M 0 432 
L 720 432 
L 720 0 
L 0 0 
z
" style="fill: #ffffff"/>
  </g>
  <g id="axes_1">
   <g id="patch_2">
    <path d="M 90 384.48 
L 648 384.48 
L 648 51.84 
L 90 51.84 
z
" style="fill: #ffffff"/>
   </g>
   <g id="QuadContourSet_1">
    <path d="M 140.727273 384.48 
L 146.363636 384.48 
L 152 384.48 
L 157.636364 384.48 
L 163.272727 381.12 
L 168.909091 377.76 
L 174.545455 374.4 
L 180.181818 371.04 
L 185.818182 367.68 
L 191.454545 364.32 
L 197.090909 360.96 
L 202.727273 357.6 
L 208.363636 354.24 
L 214 350.88 
L 219.636364 347.52 
L 225.272727 344.16 
L 230.909091 340.8 
L 236.545455 337.44 
L 242.181818 334.08 
L 247.818182 330.72 
L 253.454545 327.36 
L 259.090909 324 
L 264.727273 320.64 
L 270.363636 317.28 
L 276 313.92 
L 281.636364 310.56 
L 287.272727 307.2 
L 292.909091 303.84 
L 298.545455 300.48 
L 304.181818 297.12 
L 309.818182 293.76 
L 315.454545 290.4 
L 321.090909 287.04 
L 326.727273 283.68 
L 332.363636 280.32 
L 338 276.96 
L 343.636364 273.6 
L 349.272727 270.24 
L 354.909091 266.88 
L 360.545455 263.52 
L 366.181818 260.16 
L 371.818182 256.8 
L 377.454545 253.44 
L 383.090909 250.08 
L 388.727273 246.72 
L 394.363636 243.36 
L 400 240 
L 405.636364 236.64 
L 411.272727 233.28 
L 416.909091 229.92 
L 422.545455 226.56 
L 428.181818 223.2 
L 433.818182 219.84 
L 439.454545 216.48 
L 445.090909 213.12 
L 450.727273 209.76 
L 456.363636 206.4 
L 462 203.04 
L 467.636364 199.68 
L 473.272727 196.32 
L 478.909091 192.96 
L 484.545455 189.6 
L 490.181818 186.24 
L 495.818182 182.88 
L 501.454545 179.52 
L 507.090909 176.16 
L 512.727273 172.8 
L 518.363636 169.44 
L 524 166.08 
L 529.636364 162.72 
L 535.272727 159.36 
L 540.909091 156 
L 546.545455 152.64 
L 552.181818 149.28 
L 557.818182 145.92 
L 563.454545 142.56 
L 569.090909 139.2 
L 574.727273 135.84 
L 580.363636 132.48 
L 586 129.12 
L 591.636364 125.76 
L 597.272727 122.4 
L 602.909091 119.04 
L 608.545455 115.68 
L 614.181818 112.32 
L 619.818182 108.96 
L 625.454545 105.6 
L 631.090909 102.24 
L 636.727273 98.88 
L 642.363636 95.52 
L 648 92.16 
L 648 88.8 
L 648 85.44 
L 648 82.08 
L 648 81.499466 
L 646.926415 82.08 
L 642.363636 84.547291 
L 640.712743 85.44 
L 636.727273 87.795069 
L 635.248148 88.8 
L 631.090909 91.790969 
L 630.577982 92.16 
L 625.454545 95.454277 
L 625.352329 95.52 
L 619.818182 98.865011 
L 619.793383 98.88 
L 614.234436 102.24 
L 614.181818 102.271804 
L 608.67549 105.6 
L 608.545455 105.678598 
L 603.116544 108.96 
L 602.909091 109.085391 
L 597.557598 112.32 
L 597.272727 112.492185 
L 591.998652 115.68 
L 591.636364 115.898978 
L 586.439705 119.04 
L 586 119.305772 
L 580.880759 122.4 
L 580.363636 122.712565 
L 574.921364 125.76 
L 574.727273 125.868683 
L 569.090909 128.874395 
L 568.686761 129.12 
L 563.938382 132.48 
L 563.454545 132.814899 
L 559.084111 135.84 
L 557.818182 136.621625 
L 553.642216 139.2 
L 552.181818 140.101697 
L 548.200322 142.56 
L 546.545455 143.581768 
L 542.758428 145.92 
L 540.909091 147.06184 
L 537.316534 149.28 
L 535.272727 150.541912 
L 531.874639 152.64 
L 529.636364 154.021983 
L 526.432745 156 
L 524 157.502055 
L 520.990851 159.36 
L 518.363636 160.982126 
L 515.548957 162.72 
L 512.727273 164.462198 
L 510.005628 166.08 
L 507.090909 167.812569 
L 503.993322 169.44 
L 501.454545 170.802493 
L 498.329153 172.8 
L 495.818182 174.688853 
L 493.862495 176.16 
L 490.181818 178.46116 
L 488.488216 179.52 
L 484.545455 181.926945 
L 482.984278 182.88 
L 478.909091 185.367787 
L 477.480339 186.24 
L 473.272727 188.808629 
L 471.976401 189.6 
L 467.636364 192.249471 
L 466.472462 192.96 
L 462 195.690313 
L 460.968524 196.32 
L 456.363636 199.131155 
L 455.464586 199.68 
L 450.727273 202.571997 
L 449.960647 203.04 
L 445.090909 206.012838 
L 444.456709 206.4 
L 439.454545 209.45368 
L 438.837944 209.76 
L 433.818182 212.253754 
L 432.174687 213.12 
L 428.181818 215.777719 
L 427.262059 216.48 
L 422.545455 219.615981 
L 422.208524 219.84 
L 416.909091 222.960282 
L 416.501957 223.2 
L 411.272727 226.278947 
L 410.795391 226.56 
L 405.636364 229.597612 
L 405.088825 229.92 
L 400 232.916277 
L 399.382258 233.28 
L 394.363636 236.234942 
L 393.675692 236.64 
L 388.727273 239.553607 
L 387.969126 240 
L 383.090909 242.872271 
L 382.262559 243.36 
L 377.454545 246.190936 
L 376.555993 246.72 
L 371.818182 249.509601 
L 370.733948 250.08 
L 366.181818 252.474803 
L 364.098838 253.44 
L 360.545455 255.32371 
L 358.333796 256.8 
L 354.909091 259.240215 
L 353.618224 260.16 
L 349.272727 262.798382 
L 348.084199 263.52 
L 343.636364 266.220517 
L 342.550174 266.88 
L 338 269.642652 
L 337.016149 270.24 
L 332.363636 273.064787 
L 331.482124 273.6 
L 326.727273 276.486922 
L 325.948099 276.96 
L 321.090909 279.909058 
L 320.414074 280.32 
L 315.454545 283.331193 
L 314.880049 283.68 
L 309.818182 286.753328 
L 309.346024 287.04 
L 304.181818 290.175463 
L 303.810468 290.4 
L 298.545455 293.58349 
L 298.244822 293.76 
L 292.909091 296.892758 
L 292.522051 297.12 
L 287.272727 300.202026 
L 286.79928 300.48 
L 281.636364 303.421253 
L 280.901318 303.84 
L 276 306.604848 
L 274.944958 307.2 
L 270.363636 309.784337 
L 268.988598 310.56 
L 264.727273 312.963826 
L 263.032237 313.92 
L 259.090909 316.143315 
L 257.075877 317.28 
L 253.454545 319.322804 
L 251.119517 320.64 
L 247.818182 322.502293 
L 245.163157 324 
L 242.181818 325.681782 
L 239.206797 327.36 
L 236.545455 328.861271 
L 233.250437 330.72 
L 230.909091 332.04076 
L 227.276063 334.08 
L 225.272727 335.204484 
L 221.283395 337.44 
L 219.636364 338.362953 
L 215.287394 340.8 
L 214 341.52215 
L 209.297441 344.16 
L 208.363636 344.68469 
L 203.317568 347.52 
L 202.727273 347.851678 
L 197.337695 350.88 
L 197.090909 351.018665 
L 191.454545 354.185652 
L 191.357822 354.24 
L 185.818182 357.35264 
L 185.377949 357.6 
L 180.181818 360.519627 
L 179.398076 360.96 
L 174.545455 363.686614 
L 173.418203 364.32 
L 168.909091 366.853602 
L 167.43833 367.68 
L 163.272727 370.020589 
L 161.436727 371.04 
L 157.636364 373.150093 
L 155.339377 374.4 
L 152 376.217124 
L 149.164617 377.76 
L 146.363636 379.284156 
L 142.989857 381.12 
L 140.727273 382.351187 
L 136.815098 384.48 
z
" clip-path="url(#p4a3dcbbabe)" style="fill: #481668"/>
    <path d="M 95.636364 384.48 
L 101.272727 384.48 
L 106.909091 384.48 
L 112.545455 384.48 
L 118.181818 384.48 
L 123.818182 384.48 
L 129.454545 384.48 
L 135.090909 384.48 
L 136.815098 384.48 
L 140.727273 382.351187 
L 142.989857 381.12 
L 146.363636 379.284156 
L 149.164617 377.76 
L 152 376.217124 
L 155.339377 374.4 
L 157.636364 373.150093 
L 161.436727 371.04 
L 163.272727 370.020589 
L 167.43833 367.68 
L 168.909091 366.853602 
L 173.418203 364.32 
L 174.545455 363.686614 
L 179.398076 360.96 
L 180.181818 360.519627 
L 185.377949 357.6 
L 185.818182 357.35264 
L 191.357822 354.24 
L 191.454545 354.185652 
L 197.090909 351.018665 
L 197.337695 350.88 
L 202.727273 347.851678 
L 203.317568 347.52 
L 208.363636 344.68469 
L 209.297441 344.16 
L 214 341.52215 
L 215.287394 340.8 
L 219.636364 338.362953 
L 221.283395 337.44 
L 225.272727 335.204484 
L 227.276063 334.08 
L 230.909091 332.04076 
L 233.250437 330.72 
L 236.545455 328.861271 
L 239.206797 327.36 
L 242.181818 325.681782 
L 245.163157 324 
L 247.818182 322.502293 
L 251.119517 320.64 
L 253.454545 319.322804 
L 257.075877 317.28 
L 259.090909 316.143315 
L 263.032237 313.92 
L 264.727273 312.963826 
L 268.988598 310.56 
L 270.363636 309.784337 
L 274.944958 307.2 
L 276 306.604848 
L 280.901318 303.84 
L 281.636364 303.421253 
L 286.79928 300.48 
L 287.272727 300.202026 
L 292.522051 297.12 
L 292.909091 296.892758 
L 298.244822 293.76 
L 298.545455 293.58349 
L 303.810468 290.4 
L 304.181818 290.175463 
L 309.346024 287.04 
L 309.818182 286.753328 
L 314.880049 283.68 
L 315.454545 283.331193 
L 320.414074 280.32 
L 321.090909 279.909058 
L 325.948099 276.96 
L 326.727273 276.486922 
L 331.482124 273.6 
L 332.363636 273.064787 
L 337.016149 270.24 
L 338 269.642652 
L 342.550174 266.88 
L 343.636364 266.220517 
L 348.084199 263.52 
L 349.272727 262.798382 
L 353.618224 260.16 
L 354.909091 259.240215 
L 358.333796 256.8 
L 360.545455 255.32371 
L 364.098838 253.44 
L 366.181818 252.474803 
L 370.733948 250.08 
L 371.818182 249.509601 
L 376.555993 246.72 
L 377.454545 246.190936 
L 382.262559 243.36 
L 383.090909 242.872271 
L 387.969126 240 
L 388.727273 239.553607 
L 393.675692 236.64 
L 394.363636 236.234942 
L 399.382258 233.28 
L 400 232.916277 
L 405.088825 229.92 
L 405.636364 229.597612 
L 410.795391 226.56 
L 411.272727 226.278947 
L 416.501957 223.2 
L 416.909091 222.960282 
L 422.208524 219.84 
L 422.545455 219.615981 
L 427.262059 216.48 
L 428.181818 215.777719 
L 432.174687 213.12 
L 433.818182 212.253754 
L 438.837944 209.76 
L 439.454545 209.45368 
L 444.456709 206.4 
L 445.090909 206.012838 
L 449.960647 203.04 
L 450.727273 202.571997 
L 455.464586 199.68 
L 456.363636 199.131155 
L 460.968524 196.32 
L 462 195.690313 
L 466.472462 192.96 
L 467.636364 192.249471 
L 471.976401 189.6 
L 473.272727 188.808629 
L 477.480339 186.24 
L 478.909091 185.367787 
L 482.984278 182.88 
L 484.545455 181.926945 
L 488.488216 179.52 
L 490.181818 178.46116 
L 493.862495 176.16 
L 495.818182 174.688853 
L 498.329153 172.8 
L 501.454545 170.802493 
L 503.993322 169.44 
L 507.090909 167.812569 
L 510.005628 166.08 
L 512.727273 164.462198 
L 515.548957 162.72 
L 518.363636 160.982126 
L 520.990851 159.36 
L 524 157.502055 
L 526.432745 156 
L 529.636364 154.021983 
L 531.874639 152.64 
L 535.272727 150.541912 
L 537.316534 149.28 
L 540.909091 147.06184 
L 542.758428 145.92 
L 546.545455 143.581768 
L 548.200322 142.56 
L 552.181818 140.101697 
L 553.642216 139.2 
L 557.818182 136.621625 
L 559.084111 135.84 
L 563.454545 132.814899 
L 563.938382 132.48 
L 568.686761 129.12 
L 569.090909 128.874395 
L 574.727273 125.868683 
L 574.921364 125.76 
L 580.363636 122.712565 
L 580.880759 122.4 
L 586 119.305772 
L 586.439705 119.04 
L 591.636364 115.898978 
L 591.998652 115.68 
L 597.272727 112.492185 
L 597.557598 112.32 
L 602.909091 109.085391 
L 603.116544 108.96 
L 608.545455 105.678598 
L 608.67549 105.6 
L 614.181818 102.271804 
L 614.234436 102.24 
L 619.793383 98.88 
L 619.818182 98.865011 
L 625.352329 95.52 
L 625.454545 95.454277 
L 630.577982 92.16 
L 631.090909 91.790969 
L 635.248148 88.8 
L 636.727273 87.795069 
L 640.712743 85.44 
L 642.363636 84.547291 
L 646.926415 82.08 
L 648 81.499466 
L 648 78.72 
L 648 75.36 
L 648 72 
L 648 68.64 
L 648 65.28 
L 648 61.92 
L 648 58.56 
L 648 55.485648 
L 642.363636 58.533472 
L 642.314578 58.56 
L 636.727273 61.581297 
L 636.100906 61.92 
L 631.090909 64.629121 
L 629.887234 65.28 
L 625.454545 67.676946 
L 623.673562 68.64 
L 619.818182 70.72477 
L 617.45989 72 
L 614.181818 73.937058 
L 612.087436 75.36 
L 608.545455 77.908316 
L 607.41727 78.72 
L 602.909091 81.963457 
L 602.747105 82.08 
L 598.076939 85.44 
L 597.272727 86.018598 
L 593.406773 88.8 
L 591.636364 90.07374 
L 588.736607 92.16 
L 586 93.919589 
L 583.510954 95.52 
L 580.363636 97.422337 
L 577.760463 98.88 
L 574.727273 100.578454 
L 571.611513 102.24 
L 569.090909 103.584166 
L 565.310782 105.6 
L 563.454545 106.589878 
L 559.010051 108.96 
L 557.818182 109.59559 
L 552.70932 112.32 
L 552.181818 112.601302 
L 546.545455 115.607014 
L 546.425354 115.68 
L 541.67209 119.04 
L 540.909091 119.590335 
L 537.013694 122.4 
L 535.272727 123.655721 
L 532.355298 125.76 
L 529.636364 127.721108 
L 527.696901 129.12 
L 524 131.786494 
L 523.038505 132.48 
L 518.363636 135.715822 
L 518.184234 135.84 
L 512.74234 139.2 
L 512.727273 139.209303 
L 507.090909 142.559674 
L 507.090289 142.56 
L 501.454545 145.520944 
L 500.694998 145.92 
L 495.818182 148.482213 
L 494.299707 149.28 
L 490.181818 151.443483 
L 487.904415 152.64 
L 484.545455 154.404753 
L 481.509124 156 
L 478.909091 157.395368 
L 475.835136 159.36 
L 473.272727 161.287547 
L 471.368478 162.72 
L 467.636364 165.527447 
L 466.90182 166.08 
L 462.435162 169.44 
L 462 169.767346 
L 457.968503 172.8 
L 456.363636 174.007246 
L 453.501845 176.16 
L 450.727273 177.894663 
L 448.127567 179.52 
L 445.090909 181.373794 
L 442.623628 182.88 
L 439.454545 184.814636 
L 436.585382 186.24 
L 433.818182 187.61471 
L 429.686864 189.6 
L 428.181818 190.323245 
L 422.694826 192.96 
L 422.545455 193.03178 
L 416.909091 195.740315 
L 415.702787 196.32 
L 411.272727 198.44885 
L 408.936915 199.68 
L 405.636364 201.876902 
L 404.113084 203.04 
L 400 206.18054 
L 399.712578 206.4 
L 395.312073 209.76 
L 394.363636 210.484177 
L 390.911567 213.12 
L 388.727273 214.787815 
L 386.511062 216.48 
L 383.090909 218.753995 
L 381.457526 219.84 
L 377.454545 222.196937 
L 375.75096 223.2 
L 371.818182 225.515602 
L 369.832951 226.56 
L 366.181818 228.480803 
L 363.075904 229.92 
L 360.545455 231.092542 
L 355.824726 233.28 
L 354.909091 233.704281 
L 349.272727 236.316019 
L 348.573548 236.64 
L 343.636364 238.927758 
L 341.32237 240 
L 338 241.761246 
L 335.604875 243.36 
L 332.363636 245.728209 
L 331.006226 246.72 
L 326.727273 249.846414 
L 326.407576 250.08 
L 321.808926 253.44 
L 321.090909 253.964618 
L 317.210276 256.8 
L 315.454545 258.051016 
L 312.494704 260.16 
L 309.818182 261.785059 
L 306.960679 263.52 
L 304.181818 265.207194 
L 301.415249 266.88 
L 298.545455 268.615221 
L 295.778121 270.24 
L 292.909091 271.924489 
L 290.055351 273.6 
L 287.272727 275.233757 
L 284.33258 276.96 
L 281.636364 278.543025 
L 278.60981 280.32 
L 276 281.852293 
L 272.887039 283.68 
L 270.363636 285.161561 
L 267.164268 287.04 
L 264.727273 288.470829 
L 261.441498 290.4 
L 259.090909 291.780097 
L 255.718727 293.76 
L 253.454545 295.089365 
L 249.995957 297.12 
L 247.818182 298.398633 
L 244.273186 300.48 
L 242.181818 301.671428 
L 238.375223 303.84 
L 236.545455 304.872178 
L 232.418863 307.2 
L 230.909091 308.051667 
L 226.440345 310.56 
L 225.272727 311.215391 
L 220.446286 313.92 
L 219.636364 314.373859 
L 214.450285 317.28 
L 214 317.532328 
L 208.454284 320.64 
L 208.363636 320.690797 
L 202.727273 323.849265 
L 202.458283 324 
L 197.090909 327.007734 
L 196.462282 327.36 
L 191.454545 330.166203 
L 190.466281 330.72 
L 185.818182 333.324671 
L 184.470279 334.08 
L 180.181818 336.48314 
L 178.474278 337.44 
L 174.545455 339.641609 
L 172.478277 340.8 
L 168.909091 342.802097 
L 166.488324 344.16 
L 163.272727 345.966795 
L 160.475342 347.52 
L 157.636364 349.096299 
L 154.35841 350.88 
L 152 352.16333 
L 148.18365 354.24 
L 146.363636 355.230362 
L 142.00889 357.6 
L 140.727273 358.297393 
L 135.83413 360.96 
L 135.090909 361.364424 
L 129.659371 364.32 
L 129.454545 364.431456 
L 123.818182 367.498487 
L 123.484611 367.68 
L 118.181818 370.565519 
L 117.309851 371.04 
L 112.545455 373.63255 
L 111.135091 374.4 
L 106.909091 376.699581 
L 104.960332 377.76 
L 101.272727 379.766613 
L 98.785572 381.12 
L 95.636364 382.833644 
L 92.610812 384.48 
z
" clip-path="url(#p4a3dcbbabe)" style="fill: #443983"/>
    <path d="M 95.636364 382.833644 
L 98.785572 381.12 
L 101.272727 379.766613 
L 104.960332 377.76 
L 106.909091 376.699581 
L 111.135091 374.4 
L 112.545455 373.63255 
L 117.309851 371.04 
L 118.181818 370.565519 
L 123.484611 367.68 
L 123.818182 367.498487 
L 129.454545 364.431456 
L 129.659371 364.32 
L 135.090909 361.364424 
L 135.83413 360.96 
L 140.727273 358.297393 
L 142.00889 357.6 
L 146.363636 355.230362 
L 148.18365 354.24 
L 152 352.16333 
L 154.35841 350.88 
L 157.636364 349.096299 
L 160.475342 347.52 
L 163.272727 345.966795 
L 166.488324 344.16 
L 168.909091 342.802097 
L 172.478277 340.8 
L 174.545455 339.641609 
L 178.474278 337.44 
L 180.181818 336.48314 
L 184.470279 334.08 
L 185.818182 333.324671 
L 190.466281 330.72 
L 191.454545 330.166203 
L 196.462282 327.36 
L 197.090909 327.007734 
L 202.458283 324 
L 202.727273 323.849265 
L 208.363636 320.690797 
L 208.454284 320.64 
L 214 317.532328 
L 214.450285 317.28 
L 219.636364 314.373859 
L 220.446286 313.92 
L 225.272727 311.215391 
L 226.440345 310.56 
L 230.909091 308.051667 
L 232.418863 307.2 
L 236.545455 304.872178 
L 238.375223 303.84 
L 242.181818 301.671428 
L 244.273186 300.48 
L 247.818182 298.398633 
L 249.995957 297.12 
L 253.454545 295.089365 
L 255.718727 293.76 
L 259.090909 291.780097 
L 261.441498 290.4 
L 264.727273 288.470829 
L 267.164268 287.04 
L 270.363636 285.161561 
L 272.887039 283.68 
L 276 281.852293 
L 278.60981 280.32 
L 281.636364 278.543025 
L 284.33258 276.96 
L 287.272727 275.233757 
L 290.055351 273.6 
L 292.909091 271.924489 
L 295.778121 270.24 
L 298.545455 268.615221 
L 301.415249 266.88 
L 304.181818 265.207194 
L 306.960679 263.52 
L 309.818182 261.785059 
L 312.494704 260.16 
L 315.454545 258.051016 
L 317.210276 256.8 
L 321.090909 253.964618 
L 321.808926 253.44 
L 326.407576 250.08 
L 326.727273 249.846414 
L 331.006226 246.72 
L 332.363636 245.728209 
L 335.604875 243.36 
L 338 241.761246 
L 341.32237 240 
L 343.636364 238.927758 
L 348.573548 236.64 
L 349.272727 236.316019 
L 354.909091 233.704281 
L 355.824726 233.28 
L 360.545455 231.092542 
L 363.075904 229.92 
L 366.181818 228.480803 
L 369.832951 226.56 
L 371.818182 225.515602 
L 375.75096 223.2 
L 377.454545 222.196937 
L 381.457526 219.84 
L 383.090909 218.753995 
L 386.511062 216.48 
L 388.727273 214.787815 
L 390.911567 213.12 
L 394.363636 210.484177 
L 395.312073 209.76 
L 399.712578 206.4 
L 400 206.18054 
L 404.113084 203.04 
L 405.636364 201.876902 
L 408.936915 199.68 
L 411.272727 198.44885 
L 415.702787 196.32 
L 416.909091 195.740315 
L 422.545455 193.03178 
L 422.694826 192.96 
L 428.181818 190.323245 
L 429.686864 189.6 
L 433.818182 187.61471 
L 436.585382 186.24 
L 439.454545 184.814636 
L 442.623628 182.88 
L 445.090909 181.373794 
L 448.127567 179.52 
L 450.727273 177.894663 
L 453.501845 176.16 
L 456.363636 174.007246 
L 457.968503 172.8 
L 462 169.767346 
L 462.435162 169.44 
L 466.90182 166.08 
L 467.636364 165.527447 
L 471.368478 162.72 
L 473.272727 161.287547 
L 475.835136 159.36 
L 478.909091 157.395368 
L 481.509124 156 
L 484.545455 154.404753 
L 487.904415 152.64 
L 490.181818 151.443483 
L 494.299707 149.28 
L 495.818182 148.482213 
L 500.694998 145.92 
L 501.454545 145.520944 
L 507.090289 142.56 
L 507.090909 142.559674 
L 512.727273 139.209303 
L 512.74234 139.2 
L 518.184234 135.84 
L 518.363636 135.715822 
L 523.038505 132.48 
L 524 131.786494 
L 527.696901 129.12 
L 529.636364 127.721108 
L 532.355298 125.76 
L 535.272727 123.655721 
L 537.013694 122.4 
L 540.909091 119.590335 
L 541.67209 119.04 
L 546.425354 115.68 
L 546.545455 115.607014 
L 552.181818 112.601302 
L 552.70932 112.32 
L 557.818182 109.59559 
L 559.010051 108.96 
L 563.454545 106.589878 
L 565.310782 105.6 
L 569.090909 103.584166 
L 571.611513 102.24 
L 574.727273 100.578454 
L 577.760463 98.88 
L 580.363636 97.422337 
L 583.510954 95.52 
L 586 93.919589 
L 588.736607 92.16 
L 591.636364 90.07374 
L 593.406773 88.8 
L 597.272727 86.018598 
L 598.076939 85.44 
L 602.747105 82.08 
L 602.909091 81.963457 
L 607.41727 78.72 
L 608.545455 77.908316 
L 612.087436 75.36 
L 614.181818 73.937058 
L 617.45989 72 
L 619.818182 70.72477 
L 623.673562 68.64 
L 625.454545 67.676946 
L 629.887234 65.28 
L 631.090909 64.629121 
L 636.100906 61.92 
L 636.727273 61.581297 
L 642.314578 58.56 
L 642.363636 58.533472 
L 648 55.485648 
L 648 55.2 
L 648 51.84 
L 642.363636 51.84 
L 636.727273 51.84 
L 631.090909 51.84 
L 625.454545 51.84 
L 619.818182 51.84 
L 614.181818 51.84 
L 608.545455 51.84 
L 606.634381 51.84 
L 602.909091 53.854425 
L 600.420709 55.2 
L 597.272727 56.902249 
L 594.207037 58.56 
L 591.636364 60.079046 
L 588.926724 61.92 
L 586 64.025663 
L 584.256559 65.28 
L 580.363636 68.080804 
L 579.52466 68.64 
L 574.727273 71.837563 
L 574.471369 72 
L 569.178017 75.36 
L 569.090909 75.415293 
L 563.884666 78.72 
L 563.454545 78.993022 
L 558.591314 82.08 
L 557.818182 82.570752 
L 553.297962 85.44 
L 552.181818 86.148482 
L 548.00461 88.8 
L 546.545455 89.726211 
L 542.711258 92.16 
L 540.909091 93.18234 
L 536.788295 95.52 
L 535.272727 96.328209 
L 530.487564 98.88 
L 529.636364 99.333921 
L 524.186833 102.24 
L 524 102.353849 
L 519.405799 105.6 
L 518.363636 106.351689 
L 514.747402 108.96 
L 512.727273 110.417076 
L 509.986873 112.32 
L 507.090909 114.330947 
L 504.892866 115.68 
L 501.454545 117.790274 
L 499.418338 119.04 
L 495.818182 121.249602 
L 493.94381 122.4 
L 490.181818 124.708929 
L 488.469283 125.76 
L 484.545455 128.168256 
L 482.994755 129.12 
L 478.909091 131.627583 
L 477.520228 132.48 
L 473.272727 134.981719 
L 471.815509 135.84 
L 467.636364 138.035667 
L 465.420218 139.2 
L 462 140.996937 
L 459.024927 142.56 
L 456.363636 143.988243 
L 453.34112 145.92 
L 450.727273 147.886241 
L 448.874461 149.28 
L 445.090909 152.12614 
L 444.407803 152.64 
L 439.941145 156 
L 439.454545 156.36604 
L 434.563691 159.36 
L 433.818182 159.816367 
L 428.914577 162.72 
L 428.181818 163.153898 
L 423.240269 166.08 
L 422.545455 166.491429 
L 417.56596 169.44 
L 416.909091 169.82896 
L 411.891651 172.8 
L 411.272727 173.166491 
L 406.217342 176.16 
L 405.636364 176.445923 
L 400 179.219804 
L 399.39002 179.52 
L 394.363636 181.935411 
L 392.397982 182.88 
L 388.727273 184.643947 
L 385.699143 186.24 
L 383.090909 187.976084 
L 380.964108 189.6 
L 377.454545 192.279722 
L 376.563603 192.96 
L 372.163097 196.32 
L 371.818182 196.58336 
L 366.977732 199.68 
L 366.181818 200.18918 
L 360.656285 203.04 
L 360.545455 203.097182 
L 354.909091 206.005184 
L 354.143848 206.4 
L 349.272727 209.330926 
L 348.660448 209.76 
L 343.865808 213.12 
L 343.636364 213.280791 
L 339.071167 216.48 
L 338 217.077572 
L 333.048258 219.84 
L 332.363636 220.157235 
L 326.727273 222.768974 
L 325.79708 223.2 
L 321.090909 225.380713 
L 318.545902 226.56 
L 315.454545 228.198782 
L 312.875955 229.92 
L 309.818182 232.15416 
L 308.277305 233.28 
L 304.181818 236.272364 
L 303.657003 236.64 
L 298.860464 240 
L 298.545455 240.220666 
L 292.909091 242.979641 
L 292.132049 243.36 
L 287.272727 245.738617 
L 285.267841 246.72 
L 281.636364 248.575134 
L 279.188887 250.08 
L 276 252.335958 
L 274.439393 253.44 
L 270.363636 256.323368 
L 269.689899 256.8 
L 264.816593 260.16 
L 264.727273 260.212285 
L 259.090909 263.511628 
L 259.076606 263.52 
L 253.454545 266.81097 
L 253.33662 266.88 
L 247.818182 270.110313 
L 247.596633 270.24 
L 242.181818 273.409655 
L 241.856646 273.6 
L 236.545455 276.708998 
L 236.11666 276.96 
L 230.909091 280.00834 
L 230.28183 280.32 
L 225.272727 282.808815 
L 223.408654 283.68 
L 219.636364 285.443001 
L 216.219268 287.04 
L 214 288.077187 
L 209.497812 290.4 
L 208.363636 291.099081 
L 204.418082 293.76 
L 202.727273 294.900298 
L 199.435945 297.12 
L 197.090909 298.701514 
L 194.453808 300.48 
L 191.454545 302.215704 
L 188.647794 303.84 
L 185.818182 305.403568 
L 182.567154 307.2 
L 180.181818 308.518073 
L 176.486514 310.56 
L 174.545455 311.632578 
L 170.405874 313.92 
L 168.909091 314.747083 
L 164.325234 317.28 
L 163.272727 317.861588 
L 158.2243 320.64 
L 157.636364 320.963572 
L 152.08175 324 
L 152 324.044688 
L 146.363636 327.125805 
L 145.935218 327.36 
L 140.727273 330.206922 
L 139.788686 330.72 
L 135.090909 333.288038 
L 133.642154 334.08 
L 129.454545 336.369155 
L 127.495622 337.44 
L 123.818182 339.450272 
L 121.34909 340.8 
L 118.181818 342.516629 
L 115.149712 344.16 
L 112.545455 345.551708 
L 108.862256 347.52 
L 106.909091 348.563766 
L 102.5748 350.88 
L 101.272727 351.575824 
L 96.287344 354.24 
L 95.636364 354.587882 
L 90 357.59994 
L 90 357.6 
L 90 360.96 
L 90 364.32 
L 90 367.68 
L 90 371.04 
L 90 374.4 
L 90 377.76 
L 90 381.12 
L 90 384.48 
L 92.610812 384.48 
z
" clip-path="url(#p4a3dcbbabe)" style="fill: #375a8c"/>
    <path d="M 95.636364 354.587882 
L 96.287344 354.24 
L 101.272727 351.575824 
L 102.5748 350.88 
L 106.909091 348.563766 
L 108.862256 347.52 
L 112.545455 345.551708 
L 115.149712 344.16 
L 118.181818 342.516629 
L 121.34909 340.8 
L 123.818182 339.450272 
L 127.495622 337.44 
L 129.454545 336.369155 
L 133.642154 334.08 
L 135.090909 333.288038 
L 139.788686 330.72 
L 140.727273 330.206922 
L 145.935218 327.36 
L 146.363636 327.125805 
L 152 324.044688 
L 152.08175 324 
L 157.636364 320.963572 
L 158.2243 320.64 
L 163.272727 317.861588 
L 164.325234 317.28 
L 168.909091 314.747083 
L 170.405874 313.92 
L 174.545455 311.632578 
L 176.486514 310.56 
L 180.181818 308.518073 
L 182.567154 307.2 
L 185.818182 305.403568 
L 188.647794 303.84 
L 191.454545 302.215704 
L 194.453808 300.48 
L 197.090909 298.701514 
L 199.435945 297.12 
L 202.727273 294.900298 
L 204.418082 293.76 
L 208.363636 291.099081 
L 209.497812 290.4 
L 214 288.077187 
L 216.219268 287.04 
L 219.636364 285.443001 
L 223.408654 283.68 
L 225.272727 282.808815 
L 230.28183 280.32 
L 230.909091 280.00834 
L 236.11666 276.96 
L 236.545455 276.708998 
L 241.856646 273.6 
L 242.181818 273.409655 
L 247.596633 270.24 
L 247.818182 270.110313 
L 253.33662 266.88 
L 253.454545 266.81097 
L 259.076606 263.52 
L 259.090909 263.511628 
L 264.727273 260.212285 
L 264.816593 260.16 
L 269.689899 256.8 
L 270.363636 256.323368 
L 274.439393 253.44 
L 276 252.335958 
L 279.188887 250.08 
L 281.636364 248.575134 
L 285.267841 246.72 
L 287.272727 245.738617 
L 292.132049 243.36 
L 292.909091 242.979641 
L 298.545455 240.220666 
L 298.860464 240 
L 303.657003 236.64 
L 304.181818 236.272364 
L 308.277305 233.28 
L 309.818182 232.15416 
L 312.875955 229.92 
L 315.454545 228.198782 
L 318.545902 226.56 
L 321.090909 225.380713 
L 325.79708 223.2 
L 326.727273 222.768974 
L 332.363636 220.157235 
L 333.048258 219.84 
L 338 217.077572 
L 339.071167 216.48 
L 343.636364 213.280791 
L 343.865808 213.12 
L 348.660448 209.76 
L 349.272727 209.330926 
L 354.143848 206.4 
L 354.909091 206.005184 
L 360.545455 203.097182 
L 360.656285 203.04 
L 366.181818 200.18918 
L 366.977732 199.68 
L 371.818182 196.58336 
L 372.163097 196.32 
L 376.563603 192.96 
L 377.454545 192.279722 
L 380.964108 189.6 
L 383.090909 187.976084 
L 385.699143 186.24 
L 388.727273 184.643947 
L 392.397982 182.88 
L 394.363636 181.935411 
L 399.39002 179.52 
L 400 179.219804 
L 405.636364 176.445923 
L 406.217342 176.16 
L 411.272727 173.166491 
L 411.891651 172.8 
L 416.909091 169.82896 
L 417.56596 169.44 
L 422.545455 166.491429 
L 423.240269 166.08 
L 428.181818 163.153898 
L 428.914577 162.72 
L 433.818182 159.816367 
L 434.563691 159.36 
L 439.454545 156.36604 
L 439.941145 156 
L 444.407803 152.64 
L 445.090909 152.12614 
L 448.874461 149.28 
L 450.727273 147.886241 
L 453.34112 145.92 
L 456.363636 143.988243 
L 459.024927 142.56 
L 462 140.996937 
L 465.420218 139.2 
L 467.636364 138.035667 
L 471.815509 135.84 
L 473.272727 134.981719 
L 477.520228 132.48 
L 478.909091 131.627583 
L 482.994755 129.12 
L 484.545455 128.168256 
L 488.469283 125.76 
L 490.181818 124.708929 
L 493.94381 122.4 
L 495.818182 121.249602 
L 499.418338 119.04 
L 501.454545 117.790274 
L 504.892866 115.68 
L 507.090909 114.330947 
L 509.986873 112.32 
L 512.727273 110.417076 
L 514.747402 108.96 
L 518.363636 106.351689 
L 519.405799 105.6 
L 524 102.353849 
L 524.186833 102.24 
L 529.636364 99.333921 
L 530.487564 98.88 
L 535.272727 96.328209 
L 536.788295 95.52 
L 540.909091 93.18234 
L 542.711258 92.16 
L 546.545455 89.726211 
L 548.00461 88.8 
L 552.181818 86.148482 
L 553.297962 85.44 
L 557.818182 82.570752 
L 558.591314 82.08 
L 563.454545 78.993022 
L 563.884666 78.72 
L 569.090909 75.415293 
L 569.178017 75.36 
L 574.471369 72 
L 574.727273 71.837563 
L 579.52466 68.64 
L 580.363636 68.080804 
L 584.256559 65.28 
L 586 64.025663 
L 588.926724 61.92 
L 591.636364 60.079046 
L 594.207037 58.56 
L 597.272727 56.902249 
L 600.420709 55.2 
L 602.909091 53.854425 
L 606.634381 51.84 
L 602.909091 51.84 
L 597.272727 51.84 
L 591.636364 51.84 
L 586 51.84 
L 580.363636 51.84 
L 574.727273 51.84 
L 569.090909 51.84 
L 563.454545 51.84 
L 557.818182 51.84 
L 554.530833 51.84 
L 552.181818 53.352613 
L 549.312916 55.2 
L 546.545455 56.982066 
L 544.095 58.56 
L 540.909091 60.611519 
L 538.877084 61.92 
L 535.272727 64.240972 
L 533.659168 65.28 
L 529.636364 67.870425 
L 528.441251 68.64 
L 524 71.499878 
L 523.223335 72 
L 518.363636 75.129331 
L 518.005419 75.36 
L 512.787503 78.72 
L 512.727273 78.758784 
L 507.330733 82.08 
L 507.090909 82.227596 
L 501.454545 85.214485 
L 501.028991 85.44 
L 495.818182 88.596065 
L 495.528113 88.8 
L 490.84656 92.16 
L 490.181818 92.593623 
L 485.695698 95.52 
L 484.545455 96.231432 
L 480.263251 98.88 
L 478.909091 99.717556 
L 474.830804 102.24 
L 473.272727 103.203679 
L 469.398356 105.6 
L 467.636364 106.689803 
L 463.965909 108.96 
L 462 110.175926 
L 458.533462 112.32 
L 456.363636 113.66205 
L 453.101015 115.68 
L 450.727273 117.148173 
L 447.668568 119.04 
L 445.090909 120.634297 
L 442.236121 122.4 
L 439.454545 124.12042 
L 436.417317 125.76 
L 433.818182 127.163085 
L 430.185568 129.12 
L 428.181818 130.369058 
L 425.188962 132.48 
L 422.545455 134.25883 
L 420.19569 135.84 
L 416.909091 137.783555 
L 414.513847 139.2 
L 411.272727 141.11666 
L 408.832003 142.56 
L 405.636364 144.449765 
L 403.15016 145.92 
L 400 147.782871 
L 397.468317 149.28 
L 394.363636 151.115976 
L 391.786474 152.64 
L 388.727273 154.449081 
L 386.104631 156 
L 383.090909 157.782187 
L 380.422787 159.36 
L 377.454545 161.115292 
L 374.740944 162.72 
L 371.818182 164.448397 
L 369.085052 166.08 
L 366.181818 167.81315 
L 363.482041 169.44 
L 360.545455 171.209549 
L 357.906083 172.8 
L 354.909091 174.605949 
L 352.330125 176.16 
L 349.272727 177.766294 
L 345.934748 179.52 
L 343.636364 180.705819 
L 339.42231 182.88 
L 338 183.613821 
L 332.909872 186.24 
L 332.363636 186.521823 
L 326.727273 189.429825 
L 326.397435 189.6 
L 321.090909 192.792907 
L 320.852471 192.96 
L 316.05783 196.32 
L 315.454545 196.742771 
L 311.26319 199.68 
L 309.818182 200.692636 
L 306.468549 203.04 
L 304.181818 204.642501 
L 301.623892 206.4 
L 298.545455 208.515132 
L 296.439647 209.76 
L 292.909091 211.847123 
L 290.755904 213.12 
L 287.272727 215.179114 
L 285.072161 216.48 
L 281.636364 218.320026 
L 278.798185 219.84 
L 276 221.209699 
L 271.933977 223.2 
L 270.363636 223.968675 
L 265.069769 226.56 
L 264.727273 226.727651 
L 259.090909 229.486626 
L 258.205562 229.92 
L 253.454545 232.347048 
L 251.937216 233.28 
L 247.818182 236.193985 
L 247.187722 236.64 
L 242.438228 240 
L 242.181818 240.181395 
L 237.688734 243.36 
L 236.545455 244.168806 
L 232.939239 246.72 
L 230.909091 248.156216 
L 227.70533 250.08 
L 225.272727 251.540722 
L 221.910108 253.44 
L 219.636364 254.724259 
L 215.961323 256.8 
L 214 257.879652 
L 209.857462 260.16 
L 208.363636 260.858148 
L 202.727273 263.492334 
L 202.668076 263.52 
L 197.090909 266.12652 
L 195.478689 266.88 
L 191.454545 268.760706 
L 188.289302 270.24 
L 185.818182 271.394892 
L 181.544135 273.6 
L 180.181818 274.439702 
L 176.444774 276.96 
L 174.545455 278.240919 
L 171.462637 280.32 
L 168.909091 282.042135 
L 166.4805 283.68 
L 163.272727 285.843352 
L 161.247015 287.04 
L 157.636364 289.172918 
L 154.917147 290.4 
L 152 291.716401 
L 147.58891 293.76 
L 146.363636 294.436871 
L 142.253345 297.12 
L 140.727273 298.116195 
L 137.106154 300.48 
L 135.090909 301.61224 
L 131.125778 303.84 
L 129.454545 304.737291 
L 124.867673 307.2 
L 123.818182 307.763476 
L 118.609568 310.56 
L 118.181818 310.78966 
L 112.545455 313.815845 
L 112.351463 313.92 
L 106.909091 316.84203 
L 106.093358 317.28 
L 101.272727 319.868215 
L 99.835253 320.64 
L 95.636364 322.894399 
L 93.577148 324 
L 90 325.920584 
L 90 327.36 
L 90 330.72 
L 90 334.08 
L 90 337.44 
L 90 340.8 
L 90 344.16 
L 90 347.52 
L 90 350.88 
L 90 354.24 
L 90 357.59994 
z
" clip-path="url(#p4a3dcbbabe)" style="fill: #2b758e"/>
    <path d="M 93.577148 324 
L 95.636364 322.894399 
L 99.835253 320.64 
L 101.272727 319.868215 
L 106.093358 317.28 
L 106.909091 316.84203 
L 112.351463 313.92 
L 112.545455 313.815845 
L 118.181818 310.78966 
L 118.609568 310.56 
L 123.818182 307.763476 
L 124.867673 307.2 
L 129.454545 304.737291 
L 131.125778 303.84 
L 135.090909 301.61224 
L 137.106154 300.48 
L 140.727273 298.116195 
L 142.253345 297.12 
L 146.363636 294.436871 
L 147.58891 293.76 
L 152 291.716401 
L 154.917147 290.4 
L 157.636364 289.172918 
L 161.247015 287.04 
L 163.272727 285.843352 
L 166.4805 283.68 
L 168.909091 282.042135 
L 171.462637 280.32 
L 174.545455 278.240919 
L 176.444774 276.96 
L 180.181818 274.439702 
L 181.544135 273.6 
L 185.818182 271.394892 
L 188.289302 270.24 
L 191.454545 268.760706 
L 195.478689 266.88 
L 197.090909 266.12652 
L 202.668076 263.52 
L 202.727273 263.492334 
L 208.363636 260.858148 
L 209.857462 260.16 
L 214 257.879652 
L 215.961323 256.8 
L 219.636364 254.724259 
L 221.910108 253.44 
L 225.272727 251.540722 
L 227.70533 250.08 
L 230.909091 248.156216 
L 232.939239 246.72 
L 236.545455 244.168806 
L 237.688734 243.36 
L 242.181818 240.181395 
L 242.438228 240 
L 247.187722 236.64 
L 247.818182 236.193985 
L 251.937216 233.28 
L 253.454545 232.347048 
L 258.205562 229.92 
L 259.090909 229.486626 
L 264.727273 226.727651 
L 265.069769 226.56 
L 270.363636 223.968675 
L 271.933977 223.2 
L 276 221.209699 
L 278.798185 219.84 
L 281.636364 218.320026 
L 285.072161 216.48 
L 287.272727 215.179114 
L 290.755904 213.12 
L 292.909091 211.847123 
L 296.439647 209.76 
L 298.545455 208.515132 
L 301.623892 206.4 
L 304.181818 204.642501 
L 306.468549 203.04 
L 309.818182 200.692636 
L 311.26319 199.68 
L 315.454545 196.742771 
L 316.05783 196.32 
L 320.852471 192.96 
L 321.090909 192.792907 
L 326.397435 189.6 
L 326.727273 189.429825 
L 332.363636 186.521823 
L 332.909872 186.24 
L 338 183.613821 
L 339.42231 182.88 
L 343.636364 180.705819 
L 345.934748 179.52 
L 349.272727 177.766294 
L 352.330125 176.16 
L 354.909091 174.605949 
L 357.906083 172.8 
L 360.545455 171.209549 
L 363.482041 169.44 
L 366.181818 167.81315 
L 369.085052 166.08 
L 371.818182 164.448397 
L 374.740944 162.72 
L 377.454545 161.115292 
L 380.422787 159.36 
L 383.090909 157.782187 
L 386.104631 156 
L 388.727273 154.449081 
L 391.786474 152.64 
L 394.363636 151.115976 
L 397.468317 149.28 
L 400 147.782871 
L 403.15016 145.92 
L 405.636364 144.449765 
L 408.832003 142.56 
L 411.272727 141.11666 
L 414.513847 139.2 
L 416.909091 137.783555 
L 420.19569 135.84 
L 422.545455 134.25883 
L 425.188962 132.48 
L 428.181818 130.369058 
L 430.185568 129.12 
L 433.818182 127.163085 
L 436.417317 125.76 
L 439.454545 124.12042 
L 442.236121 122.4 
L 445.090909 120.634297 
L 447.668568 119.04 
L 450.727273 117.148173 
L 453.101015 115.68 
L 456.363636 113.66205 
L 458.533462 112.32 
L 462 110.175926 
L 463.965909 108.96 
L 467.636364 106.689803 
L 469.398356 105.6 
L 473.272727 103.203679 
L 474.830804 102.24 
L 478.909091 99.717556 
L 480.263251 98.88 
L 484.545455 96.231432 
L 485.695698 95.52 
L 490.181818 92.593623 
L 490.84656 92.16 
L 495.528113 88.8 
L 495.818182 88.596065 
L 501.028991 85.44 
L 501.454545 85.214485 
L 507.090909 82.227596 
L 507.330733 82.08 
L 512.727273 78.758784 
L 512.787503 78.72 
L 518.005419 75.36 
L 518.363636 75.129331 
L 523.223335 72 
L 524 71.499878 
L 528.441251 68.64 
L 529.636364 67.870425 
L 533.659168 65.28 
L 535.272727 64.240972 
L 538.877084 61.92 
L 540.909091 60.611519 
L 544.095 58.56 
L 546.545455 56.982066 
L 549.312916 55.2 
L 552.181818 53.352613 
L 554.530833 51.84 
L 552.181818 51.84 
L 546.545455 51.84 
L 540.909091 51.84 
L 535.272727 51.84 
L 529.636364 51.84 
L 524 51.84 
L 518.363636 51.84 
L 512.727273 51.84 
L 507.090909 51.84 
L 501.454545 51.84 
L 495.818182 51.84 
L 494.132897 51.84 
L 490.181818 53.933803 
L 487.792459 55.2 
L 484.545455 56.920691 
L 481.452022 58.56 
L 478.909091 59.90758 
L 475.111585 61.92 
L 473.272727 62.894469 
L 468.771147 65.28 
L 467.636364 65.881358 
L 463.072723 68.64 
L 462 69.396574 
L 458.372597 72 
L 456.363636 73.441852 
L 453.691043 75.36 
L 450.727273 77.487129 
L 449.00949 78.72 
L 445.090909 81.532407 
L 444.327937 82.08 
L 439.646384 85.44 
L 439.454545 85.577684 
L 433.818182 88.533287 
L 433.337675 88.8 
L 428.441182 92.16 
L 428.181818 92.314919 
L 422.81593 95.52 
L 422.545455 95.66297 
L 416.909091 98.642283 
L 416.459371 98.88 
L 411.272727 101.621596 
L 410.102811 102.24 
L 405.636364 104.60091 
L 403.746251 105.6 
L 400 107.580223 
L 397.438725 108.96 
L 394.363636 110.876888 
L 392.317617 112.32 
L 388.727273 114.852367 
L 387.553869 115.68 
L 383.090909 118.827846 
L 382.79012 119.04 
L 378.026372 122.4 
L 377.454545 122.803325 
L 373.262624 125.76 
L 371.818182 126.778804 
L 367.882571 129.12 
L 366.181818 130.131735 
L 361.981867 132.48 
L 360.545455 133.406975 
L 356.936043 135.84 
L 354.909091 137.064475 
L 351.374018 139.2 
L 349.272727 140.469382 
L 345.811993 142.56 
L 343.636364 143.87429 
L 340.249967 145.92 
L 338 147.279197 
L 334.687942 149.28 
L 332.363636 150.684105 
L 329.125917 152.64 
L 326.727273 154.089012 
L 323.563891 156 
L 321.090909 157.49392 
L 318.001866 159.36 
L 315.454545 160.898827 
L 312.439841 162.72 
L 309.818182 164.303735 
L 306.877815 166.08 
L 304.181818 167.708642 
L 301.255515 169.44 
L 298.545455 171.043417 
L 295.063995 172.8 
L 292.909091 174.120652 
L 290.15627 176.16 
L 287.272727 177.906214 
L 284.607864 179.52 
L 281.636364 181.273742 
L 278.914758 182.88 
L 276 184.600254 
L 273.221653 186.24 
L 270.363636 187.926766 
L 267.528547 189.6 
L 264.727273 191.253277 
L 261.835442 192.96 
L 259.090909 194.579789 
L 256.142336 196.32 
L 253.454545 197.906301 
L 250.449231 199.68 
L 247.818182 201.232812 
L 244.756125 203.04 
L 242.181818 204.559324 
L 239.063019 206.4 
L 236.545455 207.885835 
L 233.369914 209.76 
L 230.909091 211.212347 
L 226.934743 213.12 
L 225.272727 213.959358 
L 221.00576 216.48 
L 219.636364 217.331103 
L 215.599633 219.84 
L 214 220.733662 
L 209.585318 223.2 
L 208.363636 223.882513 
L 203.571003 226.56 
L 202.727273 227.031364 
L 197.556688 229.92 
L 197.090909 230.180215 
L 191.542373 233.28 
L 191.454545 233.329067 
L 185.818182 236.477918 
L 185.528058 236.64 
L 180.181818 239.626769 
L 179.513744 240 
L 174.545455 242.77562 
L 173.499429 243.36 
L 168.909091 245.924471 
L 167.485114 246.72 
L 163.272727 249.073322 
L 161.302065 250.08 
L 157.636364 251.952559 
L 154.186087 253.44 
L 152 254.483162 
L 148.168014 256.8 
L 146.363636 257.949612 
L 142.894312 260.16 
L 140.727273 261.137905 
L 135.448544 263.52 
L 135.090909 263.681388 
L 129.454545 266.22487 
L 128.002777 266.88 
L 123.818182 268.768353 
L 120.557009 270.24 
L 118.181818 271.311836 
L 113.242837 273.6 
L 112.545455 273.985251 
L 107.98843 276.96 
L 106.909091 277.664575 
L 102.84124 280.32 
L 101.272727 281.343899 
L 97.694049 283.68 
L 95.636364 285.023222 
L 92.546858 287.04 
L 90 288.702546 
L 90 290.4 
L 90 293.76 
L 90 297.12 
L 90 300.48 
L 90 303.84 
L 90 307.2 
L 90 310.56 
L 90 313.92 
L 90 317.28 
L 90 320.64 
L 90 324 
L 90 325.920584 
z
" clip-path="url(#p4a3dcbbabe)" style="fill: #21918c"/>
    <path d="M 92.546858 287.04 
L 95.636364 285.023222 
L 97.694049 283.68 
L 101.272727 281.343899 
L 102.84124 280.32 
L 106.909091 277.664575 
L 107.98843 276.96 
L 112.545455 273.985251 
L 113.242837 273.6 
L 118.181818 271.311836 
L 120.557009 270.24 
L 123.818182 268.768353 
L 128.002777 266.88 
L 129.454545 266.22487 
L 135.090909 263.681388 
L 135.448544 263.52 
L 140.727273 261.137905 
L 142.894312 260.16 
L 146.363636 257.949612 
L 148.168014 256.8 
L 152 254.483162 
L 154.186087 253.44 
L 157.636364 251.952559 
L 161.302065 250.08 
L 163.272727 249.073322 
L 167.485114 246.72 
L 168.909091 245.924471 
L 173.499429 243.36 
L 174.545455 242.77562 
L 179.513744 240 
L 180.181818 239.626769 
L 185.528058 236.64 
L 185.818182 236.477918 
L 191.454545 233.329067 
L 191.542373 233.28 
L 197.090909 230.180215 
L 197.556688 229.92 
L 202.727273 227.031364 
L 203.571003 226.56 
L 208.363636 223.882513 
L 209.585318 223.2 
L 214 220.733662 
L 215.599633 219.84 
L 219.636364 217.331103 
L 221.00576 216.48 
L 225.272727 213.959358 
L 226.934743 213.12 
L 230.909091 211.212347 
L 233.369914 209.76 
L 236.545455 207.885835 
L 239.063019 206.4 
L 242.181818 204.559324 
L 244.756125 203.04 
L 247.818182 201.232812 
L 250.449231 199.68 
L 253.454545 197.906301 
L 256.142336 196.32 
L 259.090909 194.579789 
L 261.835442 192.96 
L 264.727273 191.253277 
L 267.528547 189.6 
L 270.363636 187.926766 
L 273.221653 186.24 
L 276 184.600254 
L 278.914758 182.88 
L 281.636364 181.273742 
L 284.607864 179.52 
L 287.272727 177.906214 
L 290.15627 176.16 
L 292.909091 174.120652 
L 295.063995 172.8 
L 298.545455 171.043417 
L 301.255515 169.44 
L 304.181818 167.708642 
L 306.877815 166.08 
L 309.818182 164.303735 
L 312.439841 162.72 
L 315.454545 160.898827 
L 318.001866 159.36 
L 321.090909 157.49392 
L 323.563891 156 
L 326.727273 154.089012 
L 329.125917 152.64 
L 332.363636 150.684105 
L 334.687942 149.28 
L 338 147.279197 
L 340.249967 145.92 
L 343.636364 143.87429 
L 345.811993 142.56 
L 349.272727 140.469382 
L 351.374018 139.2 
L 354.909091 137.064475 
L 356.936043 135.84 
L 360.545455 133.406975 
L 361.981867 132.48 
L 366.181818 130.131735 
L 367.882571 129.12 
L 371.818182 126.778804 
L 373.262624 125.76 
L 377.454545 122.803325 
L 378.026372 122.4 
L 382.79012 119.04 
L 383.090909 118.827846 
L 387.553869 115.68 
L 388.727273 114.852367 
L 392.317617 112.32 
L 394.363636 110.876888 
L 397.438725 108.96 
L 400 107.580223 
L 403.746251 105.6 
L 405.636364 104.60091 
L 410.102811 102.24 
L 411.272727 101.621596 
L 416.459371 98.88 
L 416.909091 98.642283 
L 422.545455 95.66297 
L 422.81593 95.52 
L 428.181818 92.314919 
L 428.441182 92.16 
L 433.337675 88.8 
L 433.818182 88.533287 
L 439.454545 85.577684 
L 439.646384 85.44 
L 444.327937 82.08 
L 445.090909 81.532407 
L 449.00949 78.72 
L 450.727273 77.487129 
L 453.691043 75.36 
L 456.363636 73.441852 
L 458.372597 72 
L 462 69.396574 
L 463.072723 68.64 
L 467.636364 65.881358 
L 468.771147 65.28 
L 473.272727 62.894469 
L 475.111585 61.92 
L 478.909091 59.90758 
L 481.452022 58.56 
L 484.545455 56.920691 
L 487.792459 55.2 
L 490.181818 53.933803 
L 494.132897 51.84 
L 490.181818 51.84 
L 484.545455 51.84 
L 478.909091 51.84 
L 473.272727 51.84 
L 467.636364 51.84 
L 462 51.84 
L 456.363636 51.84 
L 450.727273 51.84 
L 445.090909 51.84 
L 439.454545 51.84 
L 433.818182 51.84 
L 428.181818 51.84 
L 422.545455 51.84 
L 420.182657 51.84 
L 416.909091 53.466185 
L 413.418863 55.2 
L 411.272727 56.26612 
L 406.655068 58.56 
L 405.636364 59.066054 
L 400 61.865989 
L 399.891274 61.92 
L 394.363636 64.665923 
L 393.257324 65.28 
L 388.727273 68.405938 
L 388.420317 68.64 
L 384.013913 72 
L 383.090909 72.703815 
L 379.607509 75.36 
L 377.454545 77.001692 
L 375.201105 78.72 
L 371.818182 81.299569 
L 370.6759 82.08 
L 366.181818 85.150452 
L 365.702367 85.44 
L 360.545455 88.554341 
L 360.138677 88.8 
L 354.909091 91.958229 
L 354.574986 92.16 
L 349.272727 94.934393 
L 348.153548 95.52 
L 343.636364 97.708228 
L 341.217462 98.88 
L 338 100.438612 
L 334.281375 102.24 
L 332.363636 103.168997 
L 327.345288 105.6 
L 326.727273 105.899381 
L 321.253251 108.96 
L 321.090909 109.068974 
L 316.454225 112.32 
L 315.454545 113.020928 
L 311.662119 115.68 
L 309.818182 116.972882 
L 306.870013 119.04 
L 304.181818 120.924836 
L 302.033661 122.4 
L 298.545455 124.79539 
L 296.898286 125.76 
L 292.909091 128.096141 
L 291.160749 129.12 
L 287.272727 131.396892 
L 285.423212 132.48 
L 281.636364 134.612009 
L 279.455221 135.84 
L 276 137.583344 
L 272.795868 139.2 
L 270.363636 140.427191 
L 266.136514 142.56 
L 264.727273 143.271038 
L 259.477161 145.92 
L 259.090909 146.114885 
L 253.454545 148.958732 
L 252.927792 149.28 
L 248.392284 152.64 
L 247.818182 153.065307 
L 243.856777 156 
L 242.181818 157.240845 
L 239.32127 159.36 
L 236.545455 161.416383 
L 234.785763 162.72 
L 230.909091 165.591921 
L 230.012669 166.08 
L 225.272727 168.660782 
L 223.646057 169.44 
L 219.636364 171.5303 
L 217.539443 172.8 
L 214 175.063014 
L 212.284272 176.16 
L 208.363636 177.967145 
L 204.99469 179.52 
L 202.727273 180.525054 
L 197.414478 182.88 
L 197.090909 183.023425 
L 191.454545 185.521796 
L 189.834266 186.24 
L 185.818182 188.020167 
L 182.476796 189.6 
L 180.181818 190.953425 
L 177.316512 192.96 
L 174.545455 194.900573 
L 172.518572 196.32 
L 168.909091 198.847721 
L 167.720631 199.68 
L 163.272727 202.794869 
L 162.872667 203.04 
L 157.636364 206.248468 
L 157.311739 206.4 
L 152 208.879483 
L 150.11369 209.76 
L 146.363636 211.722539 
L 144.057069 213.12 
L 140.727273 215.172921 
L 138.607216 216.48 
L 135.090909 218.264209 
L 131.985352 219.84 
L 129.454545 220.93105 
L 124.191477 223.2 
L 123.818182 223.36093 
L 118.181818 225.79081 
L 116.397601 226.56 
L 112.545455 228.22069 
L 109.068018 229.92 
L 106.909091 231.227488 
L 103.877111 233.28 
L 101.272727 235.043049 
L 98.913705 236.64 
L 95.636364 238.858611 
L 93.950299 240 
L 90 242.674172 
L 90 243.36 
L 90 246.72 
L 90 250.08 
L 90 253.44 
L 90 256.8 
L 90 260.16 
L 90 263.52 
L 90 266.88 
L 90 270.24 
L 90 273.6 
L 90 276.96 
L 90 280.32 
L 90 283.68 
L 90 287.04 
L 90 288.702546 
z
" clip-path="url(#p4a3dcbbabe)" style="fill: #25ab82"/>
    <path d="M 93.950299 240 
L 95.636364 238.858611 
L 98.913705 236.64 
L 101.272727 235.043049 
L 103.877111 233.28 
L 106.909091 231.227488 
L 109.068018 229.92 
L 112.545455 228.22069 
L 116.397601 226.56 
L 118.181818 225.79081 
L 123.818182 223.36093 
L 124.191477 223.2 
L 129.454545 220.93105 
L 131.985352 219.84 
L 135.090909 218.264209 
L 138.607216 216.48 
L 140.727273 215.172921 
L 144.057069 213.12 
L 146.363636 211.722539 
L 150.11369 209.76 
L 152 208.879483 
L 157.311739 206.4 
L 157.636364 206.248468 
L 162.872667 203.04 
L 163.272727 202.794869 
L 167.720631 199.68 
L 168.909091 198.847721 
L 172.518572 196.32 
L 174.545455 194.900573 
L 177.316512 192.96 
L 180.181818 190.953425 
L 182.476796 189.6 
L 185.818182 188.020167 
L 189.834266 186.24 
L 191.454545 185.521796 
L 197.090909 183.023425 
L 197.414478 182.88 
L 202.727273 180.525054 
L 204.99469 179.52 
L 208.363636 177.967145 
L 212.284272 176.16 
L 214 175.063014 
L 217.539443 172.8 
L 219.636364 171.5303 
L 223.646057 169.44 
L 225.272727 168.660782 
L 230.012669 166.08 
L 230.909091 165.591921 
L 234.785763 162.72 
L 236.545455 161.416383 
L 239.32127 159.36 
L 242.181818 157.240845 
L 243.856777 156 
L 247.818182 153.065307 
L 248.392284 152.64 
L 252.927792 149.28 
L 253.454545 148.958732 
L 259.090909 146.114885 
L 259.477161 145.92 
L 264.727273 143.271038 
L 266.136514 142.56 
L 270.363636 140.427191 
L 272.795868 139.2 
L 276 137.583344 
L 279.455221 135.84 
L 281.636364 134.612009 
L 285.423212 132.48 
L 287.272727 131.396892 
L 291.160749 129.12 
L 292.909091 128.096141 
L 296.898286 125.76 
L 298.545455 124.79539 
L 302.033661 122.4 
L 304.181818 120.924836 
L 306.870013 119.04 
L 309.818182 116.972882 
L 311.662119 115.68 
L 315.454545 113.020928 
L 316.454225 112.32 
L 321.090909 109.068974 
L 321.253251 108.96 
L 326.727273 105.899381 
L 327.345288 105.6 
L 332.363636 103.168997 
L 334.281375 102.24 
L 338 100.438612 
L 341.217462 98.88 
L 343.636364 97.708228 
L 348.153548 95.52 
L 349.272727 94.934393 
L 354.574986 92.16 
L 354.909091 91.958229 
L 360.138677 88.8 
L 360.545455 88.554341 
L 365.702367 85.44 
L 366.181818 85.150452 
L 370.6759 82.08 
L 371.818182 81.299569 
L 375.201105 78.72 
L 377.454545 77.001692 
L 379.607509 75.36 
L 383.090909 72.703815 
L 384.013913 72 
L 388.420317 68.64 
L 388.727273 68.405938 
L 393.257324 65.28 
L 394.363636 64.665923 
L 399.891274 61.92 
L 400 61.865989 
L 405.636364 59.066054 
L 406.655068 58.56 
L 411.272727 56.26612 
L 413.418863 55.2 
L 416.909091 53.466185 
L 420.182657 51.84 
L 416.909091 51.84 
L 411.272727 51.84 
L 405.636364 51.84 
L 400 51.84 
L 394.363636 51.84 
L 388.727273 51.84 
L 383.090909 51.84 
L 377.454545 51.84 
L 371.818182 51.84 
L 366.181818 51.84 
L 360.545455 51.84 
L 354.909091 51.84 
L 349.272727 51.84 
L 343.636364 51.84 
L 338 51.84 
L 332.363636 51.84 
L 326.727273 51.84 
L 324.079046 51.84 
L 321.090909 53.649536 
L 318.530585 55.2 
L 315.454545 57.062767 
L 312.982124 58.56 
L 309.818182 60.475999 
L 307.433663 61.92 
L 304.181818 63.88923 
L 301.817259 65.28 
L 298.545455 67.204387 
L 295.467191 68.64 
L 292.909091 69.833024 
L 288.262628 72 
L 287.272727 72.461661 
L 281.636364 75.090298 
L 281.058064 75.36 
L 276 77.718935 
L 274.142465 78.72 
L 270.363636 81.150962 
L 268.981507 82.08 
L 264.727273 84.939606 
L 263.982836 85.44 
L 259.090909 88.72825 
L 258.984166 88.8 
L 253.985496 92.16 
L 253.454545 92.485543 
L 248.505445 95.52 
L 247.818182 95.920286 
L 242.736565 98.88 
L 242.181818 99.203104 
L 236.967685 102.24 
L 236.545455 102.485922 
L 231.198805 105.6 
L 230.909091 105.768739 
L 225.272727 108.672323 
L 224.688878 108.96 
L 219.636364 111.449496 
L 217.869647 112.32 
L 214 114.226669 
L 211.050416 115.68 
L 208.363636 117.003841 
L 204.231185 119.04 
L 202.727273 119.936802 
L 199.31394 122.4 
L 197.090909 124.004229 
L 194.657881 125.76 
L 191.454545 128.071656 
L 190.001821 129.12 
L 185.818182 132.139083 
L 185.345762 132.48 
L 180.181818 135.787696 
L 180.100162 135.84 
L 174.545455 138.500853 
L 173.085939 139.2 
L 168.909091 141.37744 
L 166.956082 142.56 
L 163.272727 144.915027 
L 161.603444 145.92 
L 157.636364 148.308335 
L 155.836379 149.28 
L 152 151.350949 
L 149.612066 152.64 
L 146.363636 154.393563 
L 143.387754 156 
L 140.727273 157.436177 
L 137.163441 159.36 
L 135.090909 160.478792 
L 130.939129 162.72 
L 129.454545 163.521406 
L 124.714817 166.08 
L 123.818182 166.56402 
L 118.490504 169.44 
L 118.181818 169.606634 
L 112.545455 172.649249 
L 112.266192 172.8 
L 106.909091 175.691863 
L 106.041879 176.16 
L 101.272727 178.424499 
L 98.965547 179.52 
L 95.636364 181.262282 
L 92.966253 182.88 
L 90 184.708785 
L 90 186.24 
L 90 189.6 
L 90 192.96 
L 90 196.32 
L 90 199.68 
L 90 203.04 
L 90 206.4 
L 90 209.76 
L 90 213.12 
L 90 216.48 
L 90 219.84 
L 90 223.2 
L 90 226.56 
L 90 229.92 
L 90 233.28 
L 90 236.64 
L 90 240 
L 90 242.674172 
z
" clip-path="url(#p4a3dcbbabe)" style="fill: #4ec36b"/>
    <path d="M 92.966253 182.88 
L 95.636364 181.262282 
L 98.965547 179.52 
L 101.272727 178.424499 
L 106.041879 176.16 
L 106.909091 175.691863 
L 112.266192 172.8 
L 112.545455 172.649249 
L 118.181818 169.606634 
L 118.490504 169.44 
L 123.818182 166.56402 
L 124.714817 166.08 
L 129.454545 163.521406 
L 130.939129 162.72 
L 135.090909 160.478792 
L 137.163441 159.36 
L 140.727273 157.436177 
L 143.387754 156 
L 146.363636 154.393563 
L 149.612066 152.64 
L 152 151.350949 
L 155.836379 149.28 
L 157.636364 148.308335 
L 161.603444 145.92 
L 163.272727 144.915027 
L 166.956082 142.56 
L 168.909091 141.37744 
L 173.085939 139.2 
L 174.545455 138.500853 
L 180.100162 135.84 
L 180.181818 135.787696 
L 185.345762 132.48 
L 185.818182 132.139083 
L 190.001821 129.12 
L 191.454545 128.071656 
L 194.657881 125.76 
L 197.090909 124.004229 
L 199.31394 122.4 
L 202.727273 119.936802 
L 204.231185 119.04 
L 208.363636 117.003841 
L 211.050416 115.68 
L 214 114.226669 
L 217.869647 112.32 
L 219.636364 111.449496 
L 224.688878 108.96 
L 225.272727 108.672323 
L 230.909091 105.768739 
L 231.198805 105.6 
L 236.545455 102.485922 
L 236.967685 102.24 
L 242.181818 99.203104 
L 242.736565 98.88 
L 247.818182 95.920286 
L 248.505445 95.52 
L 253.454545 92.485543 
L 253.985496 92.16 
L 258.984166 88.8 
L 259.090909 88.72825 
L 263.982836 85.44 
L 264.727273 84.939606 
L 268.981507 82.08 
L 270.363636 81.150962 
L 274.142465 78.72 
L 276 77.718935 
L 281.058064 75.36 
L 281.636364 75.090298 
L 287.272727 72.461661 
L 288.262628 72 
L 292.909091 69.833024 
L 295.467191 68.64 
L 298.545455 67.204387 
L 301.817259 65.28 
L 304.181818 63.88923 
L 307.433663 61.92 
L 309.818182 60.475999 
L 312.982124 58.56 
L 315.454545 57.062767 
L 318.530585 55.2 
L 321.090909 53.649536 
L 324.079046 51.84 
L 321.090909 51.84 
L 315.454545 51.84 
L 309.818182 51.84 
L 304.181818 51.84 
L 298.545455 51.84 
L 292.909091 51.84 
L 287.272727 51.84 
L 281.636364 51.84 
L 276 51.84 
L 270.363636 51.84 
L 264.727273 51.84 
L 259.090909 51.84 
L 253.454545 51.84 
L 247.818182 51.84 
L 242.181818 51.84 
L 236.545455 51.84 
L 230.909091 51.84 
L 225.272727 51.84 
L 219.636364 51.84 
L 214 51.84 
L 208.363636 51.84 
L 202.727273 51.84 
L 197.090909 51.84 
L 191.454545 51.84 
L 185.818182 51.84 
L 182.786306 51.84 
L 180.181818 53.304953 
L 176.81268 55.2 
L 174.545455 56.475252 
L 170.839054 58.56 
L 168.909091 59.645551 
L 164.865428 61.92 
L 163.272727 62.81585 
L 158.401087 65.28 
L 157.636364 65.666809 
L 152 67.985532 
L 150.409117 68.64 
L 146.363636 70.304256 
L 142.241613 72 
L 140.727273 72.622979 
L 135.090909 74.941703 
L 134.07411 75.36 
L 129.454545 77.654663 
L 127.737344 78.72 
L 123.818182 81.151416 
L 122.321412 82.08 
L 118.181818 84.64817 
L 116.90548 85.44 
L 112.545455 88.144924 
L 111.489547 88.8 
L 106.909091 91.641678 
L 106.073615 92.16 
L 101.272727 94.854152 
L 100.08621 95.52 
L 95.636364 97.881896 
L 93.755921 98.88 
L 90 100.873573 
L 90 102.24 
L 90 105.6 
L 90 108.96 
L 90 112.32 
L 90 115.68 
L 90 119.04 
L 90 122.4 
L 90 125.76 
L 90 129.12 
L 90 132.48 
L 90 135.84 
L 90 139.2 
L 90 142.56 
L 90 145.92 
L 90 149.28 
L 90 152.64 
L 90 156 
L 90 159.36 
L 90 162.72 
L 90 166.08 
L 90 169.44 
L 90 172.8 
L 90 176.16 
L 90 179.52 
L 90 182.88 
L 90 184.708785 
z
" clip-path="url(#p4a3dcbbabe)" style="fill: #90d743"/>
    <path d="M 93.755921 98.88 
L 95.636364 97.881896 
L 100.08621 95.52 
L 101.272727 94.854152 
L 106.073615 92.16 
L 106.909091 91.641678 
L 111.489547 88.8 
L 112.545455 88.144924 
L 116.90548 85.44 
L 118.181818 84.64817 
L 122.321412 82.08 
L 123.818182 81.151416 
L 127.737344 78.72 
L 129.454545 77.654663 
L 134.07411 75.36 
L 135.090909 74.941703 
L 140.727273 72.622979 
L 142.241613 72 
L 146.363636 70.304256 
L 150.409117 68.64 
L 152 67.985532 
L 157.636364 65.666809 
L 158.401087 65.28 
L 163.272727 62.81585 
L 164.865428 61.92 
L 168.909091 59.645551 
L 170.839054 58.56 
L 174.545455 56.475252 
L 176.81268 55.2 
L 180.181818 53.304953 
L 182.786306 51.84 
L 180.181818 51.84 
L 174.545455 51.84 
L 168.909091 51.84 
L 163.272727 51.84 
L 157.636364 51.84 
L 152 51.84 
L 146.363636 51.84 
L 140.727273 51.84 
L 135.090909 51.84 
L 129.454545 51.84 
L 123.818182 51.84 
L 118.181818 51.84 
L 112.545455 51.84 
L 106.909091 51.84 
L 101.272727 51.84 
L 95.636364 51.84 
L 90 51.84 
L 90 55.2 
L 90 58.56 
L 90 61.92 
L 90 65.28 
L 90 68.64 
L 90 72 
L 90 75.36 
L 90 78.72 
L 90 82.08 
L 90 85.44 
L 90 88.8 
L 90 92.16 
L 90 95.52 
L 90 98.88 
L 90 100.873573 
z
" clip-path="url(#p4a3dcbbabe)" style="fill: #dae319"/>
   </g>
   <g id="matplotlib.axis_1">
    <g id="xtick_1">
     <g id="line2d_1">
      <path d="M 90 384.48 
L 90 51.84 
" clip-path="url(#p4a3dcbbabe)" style="fill: none; stroke: #b0b0b0; stroke-width: 0.8; stroke-linecap: square"/>
     </g>
     <g id="line2d_2">
      <defs>
       <path id="m4219c94dc0" d="M 0 0 
L 0 3.5 
" style="stroke: #000000; stroke-width: 0.8"/>
      </defs>
      <g>
       <use xlink:href="#m4219c94dc0" x="90" y="384.48" style="stroke: #000000; stroke-width: 0.8"/>
      </g>
     </g>
     <g id="text_1">
      <!-- 10 -->
      <g transform="translate(83.6375 399.078438) scale(0.1 -0.1)">
       <defs>
        <path id="DejaVuSans-31" d="M 794 531 
L 1825 531 
L 1825 4091 
L 703 3866 
L 703 4441 
L 1819 4666 
L 2450 4666 
L 2450 531 
L 3481 531 
L 3481 0 
L 794 0 
L 794 531 
z
" transform="scale(0.015625)"/>
        <path id="DejaVuSans-30" d="M 2034 4250 
Q 1547 4250 1301 3770 
Q 1056 3291 1056 2328 
Q 1056 1369 1301 889 
Q 1547 409 2034 409 
Q 2525 409 2770 889 
Q 3016 1369 3016 2328 
Q 3016 3291 2770 3770 
Q 2525 4250 2034 4250 
z
M 2034 4750 
Q 2819 4750 3233 4129 
Q 3647 3509 3647 2328 
Q 3647 1150 3233 529 
Q 2819 -91 2034 -91 
Q 1250 -91 836 529 
Q 422 1150 422 2328 
Q 422 3509 836 4129 
Q 1250 4750 2034 4750 
z
" transform="scale(0.015625)"/>
       </defs>
       <use xlink:href="#DejaVuSans-31"/>
       <use xlink:href="#DejaVuSans-30" x="63.623047"/>
      </g>
     </g>
    </g>
    <g id="xtick_2">
     <g id="line2d_3">
      <path d="M 159.75 384.48 
L 159.75 51.84 
" clip-path="url(#p4a3dcbbabe)" style="fill: none; stroke: #b0b0b0; stroke-width: 0.8; stroke-linecap: square"/>
     </g>
     <g id="line2d_4">
      <g>
       <use xlink:href="#m4219c94dc0" x="159.75" y="384.48" style="stroke: #000000; stroke-width: 0.8"/>
      </g>
     </g>
     <g id="text_2">
      <!-- 15 -->
      <g transform="translate(153.3875 399.078438) scale(0.1 -0.1)">
       <defs>
        <path id="DejaVuSans-35" d="M 691 4666 
L 3169 4666 
L 3169 4134 
L 1269 4134 
L 1269 2991 
Q 1406 3038 1543 3061 
Q 1681 3084 1819 3084 
Q 2600 3084 3056 2656 
Q 3513 2228 3513 1497 
Q 3513 744 3044 326 
Q 2575 -91 1722 -91 
Q 1428 -91 1123 -41 
Q 819 9 494 109 
L 494 744 
Q 775 591 1075 516 
Q 1375 441 1709 441 
Q 2250 441 2565 725 
Q 2881 1009 2881 1497 
Q 2881 1984 2565 2268 
Q 2250 2553 1709 2553 
Q 1456 2553 1204 2497 
Q 953 2441 691 2322 
L 691 4666 
z
" transform="scale(0.015625)"/>
       </defs>
       <use xlink:href="#DejaVuSans-31"/>
       <use xlink:href="#DejaVuSans-35" x="63.623047"/>
      </g>
     </g>
    </g>
    <g id="xtick_3">
     <g id="line2d_5">
      <path d="M 229.5 384.48 
L 229.5 51.84 
" clip-path="url(#p4a3dcbbabe)" style="fill: none; stroke: #b0b0b0; stroke-width: 0.8; stroke-linecap: square"/>
     </g>
     <g id="line2d_6">
      <g>
       <use xlink:href="#m4219c94dc0" x="229.5" y="384.48" style="stroke: #000000; stroke-width: 0.8"/>
      </g>
     </g>
     <g id="text_3">
      <!-- 20 -->
      <g transform="translate(223.1375 399.078438) scale(0.1 -0.1)">
       <defs>
        <path id="DejaVuSans-32" d="M 1228 531 
L 3431 531 
L 3431 0 
L 469 0 
L 469 531 
Q 828 903 1448 1529 
Q 2069 2156 2228 2338 
Q 2531 2678 2651 2914 
Q 2772 3150 2772 3378 
Q 2772 3750 2511 3984 
Q 2250 4219 1831 4219 
Q 1534 4219 1204 4116 
Q 875 4013 500 3803 
L 500 4441 
Q 881 4594 1212 4672 
Q 1544 4750 1819 4750 
Q 2544 4750 2975 4387 
Q 3406 4025 3406 3419 
Q 3406 3131 3298 2873 
Q 3191 2616 2906 2266 
Q 2828 2175 2409 1742 
Q 1991 1309 1228 531 
z
" transform="scale(0.015625)"/>
       </defs>
       <use xlink:href="#DejaVuSans-32"/>
       <use xlink:href="#DejaVuSans-30" x="63.623047"/>
      </g>
     </g>
    </g>
    <g id="xtick_4">
     <g id="line2d_7">
      <path d="M 299.25 384.48 
L 299.25 51.84 
" clip-path="url(#p4a3dcbbabe)" style="fill: none; stroke: #b0b0b0; stroke-width: 0.8; stroke-linecap: square"/>
     </g>
     <g id="line2d_8">
      <g>
       <use xlink:href="#m4219c94dc0" x="299.25" y="384.48" style="stroke: #000000; stroke-width: 0.8"/>
      </g>
     </g>
     <g id="text_4">
      <!-- 25 -->
      <g transform="translate(292.8875 399.078438) scale(0.1 -0.1)">
       <use xlink:href="#DejaVuSans-32"/>
       <use xlink:href="#DejaVuSans-35" x="63.623047"/>
      </g>
     </g>
    </g>
    <g id="xtick_5">
     <g id="line2d_9">
      <path d="M 369 384.48 
L 369 51.84 
" clip-path="url(#p4a3dcbbabe)" style="fill: none; stroke: #b0b0b0; stroke-width: 0.8; stroke-linecap: square"/>
     </g>
     <g id="line2d_10">
      <g>
       <use xlink:href="#m4219c94dc0" x="369" y="384.48" style="stroke: #000000; stroke-width: 0.8"/>
      </g>
     </g>
     <g id="text_5">
      <!-- 30 -->
      <g transform="translate(362.6375 399.078438) scale(0.1 -0.1)">
       <defs>
        <path id="DejaVuSans-33" d="M 2597 2516 
Q 3050 2419 3304 2112 
Q 3559 1806 3559 1356 
Q 3559 666 3084 287 
Q 2609 -91 1734 -91 
Q 1441 -91 1130 -33 
Q 819 25 488 141 
L 488 750 
Q 750 597 1062 519 
Q 1375 441 1716 441 
Q 2309 441 2620 675 
Q 2931 909 2931 1356 
Q 2931 1769 2642 2001 
Q 2353 2234 1838 2234 
L 1294 2234 
L 1294 2753 
L 1863 2753 
Q 2328 2753 2575 2939 
Q 2822 3125 2822 3475 
Q 2822 3834 2567 4026 
Q 2313 4219 1838 4219 
Q 1578 4219 1281 4162 
Q 984 4106 628 3988 
L 628 4550 
Q 988 4650 1302 4700 
Q 1616 4750 1894 4750 
Q 2613 4750 3031 4423 
Q 3450 4097 3450 3541 
Q 3450 3153 3228 2886 
Q 3006 2619 2597 2516 
z
" transform="scale(0.015625)"/>
       </defs>
       <use xlink:href="#DejaVuSans-33"/>
       <use xlink:href="#DejaVuSans-30" x="63.623047"/>
      </g>
     </g>
    </g>
    <g id="xtick_6">
     <g id="line2d_11">
      <path d="M 438.75 384.48 
L 438.75 51.84 
" clip-path="url(#p4a3dcbbabe)" style="fill: none; stroke: #b0b0b0; stroke-width: 0.8; stroke-linecap: square"/>
     </g>
     <g id="line2d_12">
      <g>
       <use xlink:href="#m4219c94dc0" x="438.75" y="384.48" style="stroke: #000000; stroke-width: 0.8"/>
      </g>
     </g>
     <g id="text_6">
      <!-- 35 -->
      <g transform="translate(432.3875 399.078438) scale(0.1 -0.1)">
       <use xlink:href="#DejaVuSans-33"/>
       <use xlink:href="#DejaVuSans-35" x="63.623047"/>
      </g>
     </g>
    </g>
    <g id="xtick_7">
     <g id="line2d_13">
      <path d="M 508.5 384.48 
L 508.5 51.84 
" clip-path="url(#p4a3dcbbabe)" style="fill: none; stroke: #b0b0b0; stroke-width: 0.8; stroke-linecap: square"/>
     </g>
     <g id="line2d_14">
      <g>
       <use xlink:href="#m4219c94dc0" x="508.5" y="384.48" style="stroke: #000000; stroke-width: 0.8"/>
      </g>
     </g>
     <g id="text_7">
      <!-- 40 -->
      <g transform="translate(502.1375 399.078438) scale(0.1 -0.1)">
       <defs>
        <path id="DejaVuSans-34" d="M 2419 4116 
L 825 1625 
L 2419 1625 
L 2419 4116 
z
M 2253 4666 
L 3047 4666 
L 3047 1625 
L 3713 1625 
L 3713 1100 
L 3047 1100 
L 3047 0 
L 2419 0 
L 2419 1100 
L 313 1100 
L 313 1709 
L 2253 4666 
z
" transform="scale(0.015625)"/>
       </defs>
       <use xlink:href="#DejaVuSans-34"/>
       <use xlink:href="#DejaVuSans-30" x="63.623047"/>
      </g>
     </g>
    </g>
    <g id="xtick_8">
     <g id="line2d_15">
      <path d="M 578.25 384.48 
L 578.25 51.84 
" clip-path="url(#p4a3dcbbabe)" style="fill: none; stroke: #b0b0b0; stroke-width: 0.8; stroke-linecap: square"/>
     </g>
     <g id="line2d_16">
      <g>
       <use xlink:href="#m4219c94dc0" x="578.25" y="384.48" style="stroke: #000000; stroke-width: 0.8"/>
      </g>
     </g>
     <g id="text_8">
      <!-- 45 -->
      <g transform="translate(571.8875 399.078438) scale(0.1 -0.1)">
       <use xlink:href="#DejaVuSans-34"/>
       <use xlink:href="#DejaVuSans-35" x="63.623047"/>
      </g>
     </g>
    </g>
    <g id="xtick_9">
     <g id="line2d_17">
      <path d="M 648 384.48 
L 648 51.84 
" clip-path="url(#p4a3dcbbabe)" style="fill: none; stroke: #b0b0b0; stroke-width: 0.8; stroke-linecap: square"/>
     </g>
     <g id="line2d_18">
      <g>
       <use xlink:href="#m4219c94dc0" x="648" y="384.48" style="stroke: #000000; stroke-width: 0.8"/>
      </g>
     </g>
     <g id="text_9">
      <!-- 50 -->
      <g transform="translate(641.6375 399.078438) scale(0.1 -0.1)">
       <use xlink:href="#DejaVuSans-35"/>
       <use xlink:href="#DejaVuSans-30" x="63.623047"/>
      </g>
     </g>
    </g>
    <g id="text_10">
     <!-- $T_{tap}$ -->
     <g transform="translate(351.1 419.758125) scale(0.2 -0.2)">
      <defs>
       <path id="DejaVuSans-Oblique-54" d="M 378 4666 
L 4325 4666 
L 4225 4134 
L 2559 4134 
L 1759 0 
L 1125 0 
L 1925 4134 
L 275 4134 
L 378 4666 
z
" transform="scale(0.015625)"/>
       <path id="DejaVuSans-Oblique-74" d="M 2706 3500 
L 2619 3053 
L 1472 3053 
L 1100 1153 
Q 1081 1047 1072 975 
Q 1063 903 1063 863 
Q 1063 663 1183 572 
Q 1303 481 1569 481 
L 2150 481 
L 2053 0 
L 1503 0 
Q 991 0 739 200 
Q 488 400 488 806 
Q 488 878 497 964 
Q 506 1050 525 1153 
L 897 3053 
L 409 3053 
L 500 3500 
L 978 3500 
L 1172 4494 
L 1747 4494 
L 1556 3500 
L 2706 3500 
z
" transform="scale(0.015625)"/>
       <path id="DejaVuSans-Oblique-61" d="M 3438 1997 
L 3047 0 
L 2472 0 
L 2578 531 
Q 2325 219 2001 64 
Q 1678 -91 1281 -91 
Q 834 -91 548 182 
Q 263 456 263 884 
Q 263 1497 752 1853 
Q 1241 2209 2100 2209 
L 2900 2209 
L 2931 2363 
Q 2938 2388 2941 2417 
Q 2944 2447 2944 2509 
Q 2944 2788 2717 2942 
Q 2491 3097 2081 3097 
Q 1800 3097 1504 3025 
Q 1209 2953 897 2809 
L 997 3341 
Q 1322 3463 1633 3523 
Q 1944 3584 2234 3584 
Q 2853 3584 3176 3315 
Q 3500 3047 3500 2534 
Q 3500 2431 3484 2292 
Q 3469 2153 3438 1997 
z
M 2816 1759 
L 2241 1759 
Q 1534 1759 1195 1570 
Q 856 1381 856 984 
Q 856 709 1029 553 
Q 1203 397 1509 397 
Q 1978 397 2328 733 
Q 2678 1069 2791 1631 
L 2816 1759 
z
" transform="scale(0.015625)"/>
       <path id="DejaVuSans-Oblique-70" d="M 3175 2156 
Q 3175 2616 2975 2859 
Q 2775 3103 2400 3103 
Q 2144 3103 1911 2972 
Q 1678 2841 1497 2591 
Q 1319 2344 1212 1994 
Q 1106 1644 1106 1300 
Q 1106 863 1306 627 
Q 1506 391 1875 391 
Q 2147 391 2380 519 
Q 2613 647 2778 891 
Q 2956 1147 3065 1494 
Q 3175 1841 3175 2156 
z
M 1394 2969 
Q 1625 3272 1939 3428 
Q 2253 3584 2638 3584 
Q 3175 3584 3472 3232 
Q 3769 2881 3769 2247 
Q 3769 1728 3584 1258 
Q 3400 788 3053 416 
Q 2822 169 2531 39 
Q 2241 -91 1919 -91 
Q 1547 -91 1294 64 
Q 1041 219 916 525 
L 556 -1331 
L -19 -1331 
L 922 3500 
L 1497 3500 
L 1394 2969 
z
" transform="scale(0.015625)"/>
      </defs>
      <use xlink:href="#DejaVuSans-Oblique-54" transform="translate(0 0.09375)"/>
      <use xlink:href="#DejaVuSans-Oblique-74" transform="translate(61.083984 -16.3125) scale(0.7)"/>
      <use xlink:href="#DejaVuSans-Oblique-61" transform="translate(88.530273 -16.3125) scale(0.7)"/>
      <use xlink:href="#DejaVuSans-Oblique-70" transform="translate(131.425781 -16.3125) scale(0.7)"/>
     </g>
    </g>
   </g>
   <g id="matplotlib.axis_2">
    <g id="ytick_1">
     <g id="line2d_19">
      <path d="M 90 384.48 
L 648 384.48 
" clip-path="url(#p4a3dcbbabe)" style="fill: none; stroke: #b0b0b0; stroke-width: 0.8; stroke-linecap: square"/>
     </g>
     <g id="line2d_20">
      <defs>
       <path id="md7de6aeb21" d="M 0 0 
L -3.5 0 
" style="stroke: #000000; stroke-width: 0.8"/>
      </defs>
      <g>
       <use xlink:href="#md7de6aeb21" x="90" y="384.48" style="stroke: #000000; stroke-width: 0.8"/>
      </g>
     </g>
     <g id="text_11">
      <!-- 60 -->
      <g transform="translate(70.275 388.279219) scale(0.1 -0.1)">
       <defs>
        <path id="DejaVuSans-36" d="M 2113 2584 
Q 1688 2584 1439 2293 
Q 1191 2003 1191 1497 
Q 1191 994 1439 701 
Q 1688 409 2113 409 
Q 2538 409 2786 701 
Q 3034 994 3034 1497 
Q 3034 2003 2786 2293 
Q 2538 2584 2113 2584 
z
M 3366 4563 
L 3366 3988 
Q 3128 4100 2886 4159 
Q 2644 4219 2406 4219 
Q 1781 4219 1451 3797 
Q 1122 3375 1075 2522 
Q 1259 2794 1537 2939 
Q 1816 3084 2150 3084 
Q 2853 3084 3261 2657 
Q 3669 2231 3669 1497 
Q 3669 778 3244 343 
Q 2819 -91 2113 -91 
Q 1303 -91 875 529 
Q 447 1150 447 2328 
Q 447 3434 972 4092 
Q 1497 4750 2381 4750 
Q 2619 4750 2861 4703 
Q 3103 4656 3366 4563 
z
" transform="scale(0.015625)"/>
       </defs>
       <use xlink:href="#DejaVuSans-36"/>
       <use xlink:href="#DejaVuSans-30" x="63.623047"/>
      </g>
     </g>
    </g>
    <g id="ytick_2">
     <g id="line2d_21">
      <path d="M 90 342.9 
L 648 342.9 
" clip-path="url(#p4a3dcbbabe)" style="fill: none; stroke: #b0b0b0; stroke-width: 0.8; stroke-linecap: square"/>
     </g>
     <g id="line2d_22">
      <g>
       <use xlink:href="#md7de6aeb21" x="90" y="342.9" style="stroke: #000000; stroke-width: 0.8"/>
      </g>
     </g>
     <g id="text_12">
      <!-- 65 -->
      <g transform="translate(70.275 346.699219) scale(0.1 -0.1)">
       <use xlink:href="#DejaVuSans-36"/>
       <use xlink:href="#DejaVuSans-35" x="63.623047"/>
      </g>
     </g>
    </g>
    <g id="ytick_3">
     <g id="line2d_23">
      <path d="M 90 301.32 
L 648 301.32 
" clip-path="url(#p4a3dcbbabe)" style="fill: none; stroke: #b0b0b0; stroke-width: 0.8; stroke-linecap: square"/>
     </g>
     <g id="line2d_24">
      <g>
       <use xlink:href="#md7de6aeb21" x="90" y="301.32" style="stroke: #000000; stroke-width: 0.8"/>
      </g>
     </g>
     <g id="text_13">
      <!-- 70 -->
      <g transform="translate(70.275 305.119219) scale(0.1 -0.1)">
       <defs>
        <path id="DejaVuSans-37" d="M 525 4666 
L 3525 4666 
L 3525 4397 
L 1831 0 
L 1172 0 
L 2766 4134 
L 525 4134 
L 525 4666 
z
" transform="scale(0.015625)"/>
       </defs>
       <use xlink:href="#DejaVuSans-37"/>
       <use xlink:href="#DejaVuSans-30" x="63.623047"/>
      </g>
     </g>
    </g>
    <g id="ytick_4">
     <g id="line2d_25">
      <path d="M 90 259.74 
L 648 259.74 
" clip-path="url(#p4a3dcbbabe)" style="fill: none; stroke: #b0b0b0; stroke-width: 0.8; stroke-linecap: square"/>
     </g>
     <g id="line2d_26">
      <g>
       <use xlink:href="#md7de6aeb21" x="90" y="259.74" style="stroke: #000000; stroke-width: 0.8"/>
      </g>
     </g>
     <g id="text_14">
      <!-- 75 -->
      <g transform="translate(70.275 263.539219) scale(0.1 -0.1)">
       <use xlink:href="#DejaVuSans-37"/>
       <use xlink:href="#DejaVuSans-35" x="63.623047"/>
      </g>
     </g>
    </g>
    <g id="ytick_5">
     <g id="line2d_27">
      <path d="M 90 218.16 
L 648 218.16 
" clip-path="url(#p4a3dcbbabe)" style="fill: none; stroke: #b0b0b0; stroke-width: 0.8; stroke-linecap: square"/>
     </g>
     <g id="line2d_28">
      <g>
       <use xlink:href="#md7de6aeb21" x="90" y="218.16" style="stroke: #000000; stroke-width: 0.8"/>
      </g>
     </g>
     <g id="text_15">
      <!-- 80 -->
      <g transform="translate(70.275 221.959219) scale(0.1 -0.1)">
       <defs>
        <path id="DejaVuSans-38" d="M 2034 2216 
Q 1584 2216 1326 1975 
Q 1069 1734 1069 1313 
Q 1069 891 1326 650 
Q 1584 409 2034 409 
Q 2484 409 2743 651 
Q 3003 894 3003 1313 
Q 3003 1734 2745 1975 
Q 2488 2216 2034 2216 
z
M 1403 2484 
Q 997 2584 770 2862 
Q 544 3141 544 3541 
Q 544 4100 942 4425 
Q 1341 4750 2034 4750 
Q 2731 4750 3128 4425 
Q 3525 4100 3525 3541 
Q 3525 3141 3298 2862 
Q 3072 2584 2669 2484 
Q 3125 2378 3379 2068 
Q 3634 1759 3634 1313 
Q 3634 634 3220 271 
Q 2806 -91 2034 -91 
Q 1263 -91 848 271 
Q 434 634 434 1313 
Q 434 1759 690 2068 
Q 947 2378 1403 2484 
z
M 1172 3481 
Q 1172 3119 1398 2916 
Q 1625 2713 2034 2713 
Q 2441 2713 2670 2916 
Q 2900 3119 2900 3481 
Q 2900 3844 2670 4047 
Q 2441 4250 2034 4250 
Q 1625 4250 1398 4047 
Q 1172 3844 1172 3481 
z
" transform="scale(0.015625)"/>
       </defs>
       <use xlink:href="#DejaVuSans-38"/>
       <use xlink:href="#DejaVuSans-30" x="63.623047"/>
      </g>
     </g>
    </g>
    <g id="ytick_6">
     <g id="line2d_29">
      <path d="M 90 176.58 
L 648 176.58 
" clip-path="url(#p4a3dcbbabe)" style="fill: none; stroke: #b0b0b0; stroke-width: 0.8; stroke-linecap: square"/>
     </g>
     <g id="line2d_30">
      <g>
       <use xlink:href="#md7de6aeb21" x="90" y="176.58" style="stroke: #000000; stroke-width: 0.8"/>
      </g>
     </g>
     <g id="text_16">
      <!-- 85 -->
      <g transform="translate(70.275 180.379219) scale(0.1 -0.1)">
       <use xlink:href="#DejaVuSans-38"/>
       <use xlink:href="#DejaVuSans-35" x="63.623047"/>
      </g>
     </g>
    </g>
    <g id="ytick_7">
     <g id="line2d_31">
      <path d="M 90 135 
L 648 135 
" clip-path="url(#p4a3dcbbabe)" style="fill: none; stroke: #b0b0b0; stroke-width: 0.8; stroke-linecap: square"/>
     </g>
     <g id="line2d_32">
      <g>
       <use xlink:href="#md7de6aeb21" x="90" y="135" style="stroke: #000000; stroke-width: 0.8"/>
      </g>
     </g>
     <g id="text_17">
      <!-- 90 -->
      <g transform="translate(70.275 138.799219) scale(0.1 -0.1)">
       <defs>
        <path id="DejaVuSans-39" d="M 703 97 
L 703 672 
Q 941 559 1184 500 
Q 1428 441 1663 441 
Q 2288 441 2617 861 
Q 2947 1281 2994 2138 
Q 2813 1869 2534 1725 
Q 2256 1581 1919 1581 
Q 1219 1581 811 2004 
Q 403 2428 403 3163 
Q 403 3881 828 4315 
Q 1253 4750 1959 4750 
Q 2769 4750 3195 4129 
Q 3622 3509 3622 2328 
Q 3622 1225 3098 567 
Q 2575 -91 1691 -91 
Q 1453 -91 1209 -44 
Q 966 3 703 97 
z
M 1959 2075 
Q 2384 2075 2632 2365 
Q 2881 2656 2881 3163 
Q 2881 3666 2632 3958 
Q 2384 4250 1959 4250 
Q 1534 4250 1286 3958 
Q 1038 3666 1038 3163 
Q 1038 2656 1286 2365 
Q 1534 2075 1959 2075 
z
" transform="scale(0.015625)"/>
       </defs>
       <use xlink:href="#DejaVuSans-39"/>
       <use xlink:href="#DejaVuSans-30" x="63.623047"/>
      </g>
     </g>
    </g>
    <g id="ytick_8">
     <g id="line2d_33">
      <path d="M 90 93.42 
L 648 93.42 
" clip-path="url(#p4a3dcbbabe)" style="fill: none; stroke: #b0b0b0; stroke-width: 0.8; stroke-linecap: square"/>
     </g>
     <g id="line2d_34">
      <g>
       <use xlink:href="#md7de6aeb21" x="90" y="93.42" style="stroke: #000000; stroke-width: 0.8"/>
      </g>
     </g>
     <g id="text_18">
      <!-- 95 -->
      <g transform="translate(70.275 97.219219) scale(0.1 -0.1)">
       <use xlink:href="#DejaVuSans-39"/>
       <use xlink:href="#DejaVuSans-35" x="63.623047"/>
      </g>
     </g>
    </g>
    <g id="ytick_9">
     <g id="line2d_35">
      <path d="M 90 51.84 
L 648 51.84 
" clip-path="url(#p4a3dcbbabe)" style="fill: none; stroke: #b0b0b0; stroke-width: 0.8; stroke-linecap: square"/>
     </g>
     <g id="line2d_36">
      <g>
       <use xlink:href="#md7de6aeb21" x="90" y="51.84" style="stroke: #000000; stroke-width: 0.8"/>
      </g>
     </g>
     <g id="text_19">
      <!-- 100 -->
      <g transform="translate(63.9125 55.639219) scale(0.1 -0.1)">
       <use xlink:href="#DejaVuSans-31"/>
       <use xlink:href="#DejaVuSans-30" x="63.623047"/>
       <use xlink:href="#DejaVuSans-30" x="127.246094"/>
      </g>
     </g>
    </g>
    <g id="text_20">
     <!-- $T_{sto,HT}$ -->
     <g transform="translate(54.9125 248.36) rotate(-90) scale(0.2 -0.2)">
      <defs>
       <path id="DejaVuSans-Oblique-73" d="M 3200 3397 
L 3091 2853 
Q 2863 2978 2609 3040 
Q 2356 3103 2088 3103 
Q 1634 3103 1373 2948 
Q 1113 2794 1113 2528 
Q 1113 2219 1719 2053 
Q 1766 2041 1788 2034 
L 1972 1978 
Q 2547 1819 2739 1644 
Q 2931 1469 2931 1166 
Q 2931 609 2489 259 
Q 2047 -91 1331 -91 
Q 1053 -91 747 -37 
Q 441 16 72 128 
L 184 722 
Q 500 559 806 475 
Q 1113 391 1394 391 
Q 1816 391 2080 572 
Q 2344 753 2344 1031 
Q 2344 1331 1650 1516 
L 1591 1531 
L 1394 1581 
Q 956 1697 753 1886 
Q 550 2075 550 2369 
Q 550 2928 970 3256 
Q 1391 3584 2113 3584 
Q 2397 3584 2667 3537 
Q 2938 3491 3200 3397 
z
" transform="scale(0.015625)"/>
       <path id="DejaVuSans-Oblique-6f" d="M 1625 -91 
Q 1009 -91 651 289 
Q 294 669 294 1325 
Q 294 1706 417 2101 
Q 541 2497 738 2766 
Q 1047 3184 1428 3384 
Q 1809 3584 2291 3584 
Q 2888 3584 3255 3212 
Q 3622 2841 3622 2241 
Q 3622 1825 3500 1412 
Q 3378 1000 3181 728 
Q 2875 309 2494 109 
Q 2113 -91 1625 -91 
z
M 891 1344 
Q 891 869 1089 633 
Q 1288 397 1691 397 
Q 2269 397 2648 901 
Q 3028 1406 3028 2181 
Q 3028 2634 2825 2865 
Q 2622 3097 2228 3097 
Q 1903 3097 1650 2945 
Q 1397 2794 1197 2484 
Q 1050 2253 970 1956 
Q 891 1659 891 1344 
z
" transform="scale(0.015625)"/>
       <path id="DejaVuSans-2c" d="M 750 794 
L 1409 794 
L 1409 256 
L 897 -744 
L 494 -744 
L 750 256 
L 750 794 
z
" transform="scale(0.015625)"/>
       <path id="DejaVuSans-Oblique-48" d="M 1081 4666 
L 1716 4666 
L 1344 2753 
L 3634 2753 
L 4006 4666 
L 4641 4666 
L 3731 0 
L 3097 0 
L 3531 2222 
L 1241 2222 
L 806 0 
L 172 0 
L 1081 4666 
z
" transform="scale(0.015625)"/>
      </defs>
      <use xlink:href="#DejaVuSans-Oblique-54" transform="translate(0 0.09375)"/>
      <use xlink:href="#DejaVuSans-Oblique-73" transform="translate(61.083984 -16.3125) scale(0.7)"/>
      <use xlink:href="#DejaVuSans-Oblique-74" transform="translate(97.553711 -16.3125) scale(0.7)"/>
      <use xlink:href="#DejaVuSans-Oblique-6f" transform="translate(125 -16.3125) scale(0.7)"/>
      <use xlink:href="#DejaVuSans-2c" transform="translate(167.827148 -16.3125) scale(0.7)"/>
      <use xlink:href="#DejaVuSans-Oblique-48" transform="translate(203.71582 -16.3125) scale(0.7)"/>
      <use xlink:href="#DejaVuSans-Oblique-54" transform="translate(256.352539 -16.3125) scale(0.7)"/>
     </g>
    </g>
   </g>
   <g id="QuadContourSet_2">
    <path clip-path="url(#p4a3dcbbabe)" style="fill: none; stroke: #000000; stroke-width: 1.5"/>
    <path d="M 136.815098 384.48 
L 163.272727 370.020589 
L 281.636364 303.421253 
L 292.909091 296.892758 
L 304.181818 290.175463 
L 353.618224 260.16 
L 360.545455 255.32371 
L 364.098838 253.44 
L 366.181818 252.474803 
L 371.818182 249.509601 
L 422.545455 219.615981 
L 433.818182 212.253754 
L 439.454545 209.45368 
L 493.862495 176.16 
L 498.329153 172.8 
L 501.454545 170.802493 
L 508.4652 166.995662 
M 533.473257 151.652962 
L 559.084111 135.84 
L 569.090909 128.874395 
L 574.921364 125.76 
L 580.880759 122.4 
L 625.454545 95.454277 
L 631.090909 91.790969 
L 636.727273 87.795069 
L 642.363636 84.547291 
L 648 81.499466 
L 648 81.499466 
" clip-path="url(#p4a3dcbbabe)" style="fill: none; stroke: #000000; stroke-width: 1.5"/>
    <path d="M 92.610812 384.48 
L 122.987873 367.9503 
M 148.680388 353.9697 
L 166.488324 344.16 
L 244.273186 300.48 
L 304.181818 265.207194 
L 312.494704 260.16 
L 321.808926 253.44 
L 335.604875 243.36 
L 338 241.761246 
L 341.32237 240 
L 366.181818 228.480803 
L 371.818182 225.515602 
L 383.090909 218.753995 
L 386.511062 216.48 
L 405.636364 201.876902 
L 408.936915 199.68 
L 411.272727 198.44885 
L 439.454545 184.814636 
L 453.501845 176.16 
L 475.835136 159.36 
L 478.909091 157.395368 
L 490.181818 151.443483 
L 507.090909 142.559674 
L 518.184234 135.84 
L 524 131.786494 
L 546.545455 115.607014 
L 577.760463 98.88 
L 580.363636 97.422337 
L 586 93.919589 
L 588.736607 92.16 
L 614.181818 73.937058 
L 619.818182 70.72477 
L 648 55.485648 
L 648 55.485648 
" clip-path="url(#p4a3dcbbabe)" style="fill: none; stroke: #000000; stroke-width: 1.5"/>
    <path d="M 90 357.59994 
L 122.258139 340.303069 
M 147.923679 326.273008 
L 180.181818 308.518073 
L 191.454545 302.215704 
L 194.453808 300.48 
L 209.497812 290.4 
L 216.219268 287.04 
L 225.272727 282.808815 
L 230.909091 280.00834 
L 264.816593 260.16 
L 276 252.335958 
L 279.188887 250.08 
L 281.636364 248.575134 
L 287.272727 245.738617 
L 298.860464 240 
L 308.277305 233.28 
L 312.875955 229.92 
L 315.454545 228.198782 
L 318.545902 226.56 
L 333.048258 219.84 
L 339.071167 216.48 
L 349.272727 209.330926 
L 354.909091 206.005184 
L 366.977732 199.68 
L 372.163097 196.32 
L 383.090909 187.976084 
L 385.699143 186.24 
L 388.727273 184.643947 
L 406.217342 176.16 
L 439.454545 156.36604 
L 453.34112 145.92 
L 456.363636 143.988243 
L 467.636364 138.035667 
L 473.272727 134.981719 
L 478.909091 131.627583 
L 507.090909 114.330947 
L 514.747402 108.96 
L 524.186833 102.24 
L 536.788295 95.52 
L 542.711258 92.16 
L 574.727273 71.837563 
L 580.363636 68.080804 
L 591.636364 60.079046 
L 594.207037 58.56 
L 606.634381 51.84 
L 606.634381 51.84 
" clip-path="url(#p4a3dcbbabe)" style="fill: none; stroke: #000000; stroke-width: 1.5"/>
    <path d="M 90 325.920584 
L 135.090909 301.61224 
L 137.106154 300.48 
L 147.58891 293.76 
L 157.636364 289.172918 
L 163.272727 285.843352 
L 181.544135 273.6 
L 188.289302 270.24 
L 209.857462 260.16 
L 221.910108 253.44 
L 227.70533 250.08 
L 230.909091 248.156216 
L 251.937216 233.28 
L 253.454545 232.347048 
L 259.090909 229.486626 
L 278.798185 219.84 
L 287.272727 215.179114 
L 298.545455 208.515132 
L 311.26319 199.68 
L 321.090909 192.792907 
L 326.727273 189.429825 
L 352.330125 176.16 
L 380.422787 159.36 
L 420.19569 135.84 
L 430.185568 129.12 
L 439.454545 124.12042 
L 462.392661 109.933063 
M 487.245054 94.509327 
L 490.84656 92.16 
L 495.818182 88.596065 
L 501.454545 85.214485 
L 507.330733 82.08 
L 512.787503 78.72 
L 554.530833 51.84 
L 554.530833 51.84 
" clip-path="url(#p4a3dcbbabe)" style="fill: none; stroke: #000000; stroke-width: 1.5"/>
    <path d="M 90 288.702546 
L 113.242837 273.6 
L 128.002777 266.88 
L 142.894312 260.16 
L 152 254.483162 
L 154.186087 253.44 
L 157.636364 251.952559 
L 163.272727 249.073322 
L 215.599633 219.84 
L 221.00576 216.48 
L 225.272727 213.959358 
L 233.369914 209.76 
L 290.15627 176.16 
L 292.909091 174.120652 
L 294.188562 173.336517 
M 319.395969 158.517827 
L 356.936043 135.84 
L 361.981867 132.48 
L 367.882571 129.12 
L 371.818182 126.778804 
L 394.363636 110.876888 
L 397.438725 108.96 
L 411.272727 101.621596 
L 422.81593 95.52 
L 428.441182 92.16 
L 433.818182 88.533287 
L 439.646384 85.44 
L 463.072723 68.64 
L 468.771147 65.28 
L 494.132897 51.84 
L 494.132897 51.84 
" clip-path="url(#p4a3dcbbabe)" style="fill: none; stroke: #000000; stroke-width: 1.5"/>
    <path d="M 90 242.674172 
L 93.950299 240 
L 95.636364 238.858611 
L 98.913705 236.64 
L 101.272727 235.043049 
L 103.877111 233.28 
L 106.909091 231.227488 
L 109.068018 229.92 
L 112.545455 228.22069 
L 116.397601 226.56 
L 118.181818 225.79081 
L 123.818182 223.36093 
L 124.191477 223.2 
L 129.454545 220.93105 
L 131.985352 219.84 
L 135.090909 218.264209 
L 138.607216 216.48 
L 140.727273 215.172921 
L 144.057069 213.12 
L 146.363636 211.722539 
L 150.11369 209.76 
L 152 208.879483 
L 157.311739 206.4 
L 157.636364 206.248468 
L 162.872667 203.04 
L 163.272727 202.794869 
L 167.720631 199.68 
L 168.909091 198.847721 
L 172.518572 196.32 
L 174.545455 194.900573 
L 177.316512 192.96 
L 180.181818 190.953425 
L 182.476796 189.6 
L 185.818182 188.020167 
L 189.834266 186.24 
L 191.454545 185.521796 
L 197.090909 183.023425 
L 197.414478 182.88 
L 202.727273 180.525054 
L 204.99469 179.52 
L 208.363636 177.967145 
L 212.284272 176.16 
L 214 175.063014 
L 217.539443 172.8 
L 219.636364 171.5303 
L 223.646057 169.44 
L 225.272727 168.660782 
L 230.012669 166.08 
L 230.909091 165.591921 
L 234.785763 162.72 
L 236.545455 161.416383 
L 239.32127 159.36 
L 242.181818 157.240845 
L 243.856777 156 
L 247.818182 153.065307 
L 248.392284 152.64 
L 252.927792 149.28 
L 253.454545 148.958732 
L 259.090909 146.114885 
L 259.477161 145.92 
L 264.727273 143.271038 
L 266.136514 142.56 
L 270.363636 140.427191 
L 272.795868 139.2 
L 276 137.583344 
L 279.455221 135.84 
L 281.636364 134.612009 
L 285.423212 132.48 
L 287.272727 131.396892 
L 291.160749 129.12 
L 292.909091 128.096141 
L 294.619618 127.094427 
M 318.881635 110.618014 
L 321.090909 109.068974 
L 321.253251 108.96 
L 326.727273 105.899381 
L 327.345288 105.6 
L 332.363636 103.168997 
L 334.281375 102.24 
L 338 100.438612 
L 341.217462 98.88 
L 343.636364 97.708228 
L 348.153548 95.52 
L 349.272727 94.934393 
L 354.574986 92.16 
L 354.909091 91.958229 
L 360.138677 88.8 
L 360.545455 88.554341 
L 365.702367 85.44 
L 366.181818 85.150452 
L 370.6759 82.08 
L 371.818182 81.299569 
L 375.201105 78.72 
L 377.454545 77.001692 
L 379.607509 75.36 
L 383.090909 72.703815 
L 384.013913 72 
L 388.420317 68.64 
L 388.727273 68.405938 
L 393.257324 65.28 
L 394.363636 64.665923 
L 399.891274 61.92 
L 400 61.865989 
L 405.636364 59.066054 
L 406.655068 58.56 
L 411.272727 56.26612 
L 413.418863 55.2 
L 416.909091 53.466185 
L 420.182657 51.84 
" clip-path="url(#p4a3dcbbabe)" style="fill: none; stroke: #000000; stroke-width: 1.5"/>
    <path d="M 90 184.708785 
L 92.966253 182.88 
L 95.636364 181.262282 
L 98.965547 179.52 
L 101.272727 178.424499 
L 106.041879 176.16 
L 106.909091 175.691863 
L 112.266192 172.8 
L 112.545455 172.649249 
L 118.181818 169.606634 
L 118.490504 169.44 
L 122.221317 167.426038 
M 147.960501 153.531546 
L 149.612066 152.64 
L 152 151.350949 
L 155.836379 149.28 
L 157.636364 148.308335 
L 161.603444 145.92 
L 163.272727 144.915027 
L 166.956082 142.56 
L 168.909091 141.37744 
L 173.085939 139.2 
L 174.545455 138.500853 
L 180.100162 135.84 
L 180.181818 135.787696 
L 185.345762 132.48 
L 185.818182 132.139083 
L 190.001821 129.12 
L 191.454545 128.071656 
L 194.657881 125.76 
L 197.090909 124.004229 
L 199.31394 122.4 
L 202.727273 119.936802 
L 204.231185 119.04 
L 208.363636 117.003841 
L 211.050416 115.68 
L 214 114.226669 
L 217.869647 112.32 
L 219.636364 111.449496 
L 224.688878 108.96 
L 225.272727 108.672323 
L 230.909091 105.768739 
L 231.198805 105.6 
L 236.545455 102.485922 
L 236.967685 102.24 
L 242.181818 99.203104 
L 242.736565 98.88 
L 247.818182 95.920286 
L 248.505445 95.52 
L 253.454545 92.485543 
L 253.985496 92.16 
L 258.984166 88.8 
L 259.090909 88.72825 
L 263.982836 85.44 
L 264.727273 84.939606 
L 268.981507 82.08 
L 270.363636 81.150962 
L 274.142465 78.72 
L 276 77.718935 
L 281.058064 75.36 
L 281.636364 75.090298 
L 287.272727 72.461661 
L 288.262628 72 
L 292.909091 69.833024 
L 295.467191 68.64 
L 298.545455 67.204387 
L 301.817259 65.28 
L 304.181818 63.88923 
L 307.433663 61.92 
L 309.818182 60.475999 
L 312.982124 58.56 
L 315.454545 57.062767 
L 318.530585 55.2 
L 321.090909 53.649536 
L 324.079046 51.84 
" clip-path="url(#p4a3dcbbabe)" style="fill: none; stroke: #000000; stroke-width: 1.5"/>
    <path d="M 90 100.873573 
L 93.755921 98.88 
L 95.636364 97.881896 
L 100.08621 95.52 
L 101.272727 94.854152 
L 106.073615 92.16 
L 106.909091 91.641678 
L 111.489547 88.8 
L 112.545455 88.144924 
L 116.90548 85.44 
L 118.181818 84.64817 
L 121.371763 82.669155 
M 147.640944 69.778789 
L 150.409117 68.64 
L 152 67.985532 
L 157.636364 65.666809 
L 158.401087 65.28 
L 163.272727 62.81585 
L 164.865428 61.92 
L 168.909091 59.645551 
L 170.839054 58.56 
L 174.545455 56.475252 
L 176.81268 55.2 
L 180.181818 53.304953 
L 182.786306 51.84 
" clip-path="url(#p4a3dcbbabe)" style="fill: none; stroke: #000000; stroke-width: 1.5"/>
    <path clip-path="url(#p4a3dcbbabe)" style="fill: none; stroke: #000000; stroke-width: 1.5"/>
   </g>
   <g id="patch_3">
    <path d="M 90 384.48 
L 90 51.84 
" style="fill: none; stroke: #000000; stroke-width: 0.8; stroke-linejoin: miter; stroke-linecap: square"/>
   </g>
   <g id="patch_4">
    <path d="M 648 384.48 
L 648 51.84 
" style="fill: none; stroke: #000000; stroke-width: 0.8; stroke-linejoin: miter; stroke-linecap: square"/>
   </g>
   <g id="patch_5">
    <path d="M 90 384.48 
L 648 384.48 
" style="fill: none; stroke: #000000; stroke-width: 0.8; stroke-linejoin: miter; stroke-linecap: square"/>
   </g>
   <g id="patch_6">
    <path d="M 90 51.84 
L 648 51.84 
" style="fill: none; stroke: #000000; stroke-width: 0.8; stroke-linejoin: miter; stroke-linecap: square"/>
   </g>
   <g id="text_21">
    <g clip-path="url(#p4a3dcbbabe)">
     <!-- 0.01 -->
     <g transform="translate(512.959373 167.548348) rotate(-31.633353) scale(0.1 -0.1)">
      <defs>
       <path id="DejaVuSans-2e" d="M 684 794 
L 1344 794 
L 1344 0 
L 684 0 
L 684 794 
z
" transform="scale(0.015625)"/>
      </defs>
      <use xlink:href="#DejaVuSans-30"/>
      <use xlink:href="#DejaVuSans-2e" x="63.623047"/>
      <use xlink:href="#DejaVuSans-30" x="95.410156"/>
      <use xlink:href="#DejaVuSans-31" x="159.033203"/>
     </g>
    </g>
   </g>
   <g id="text_22">
    <g clip-path="url(#p4a3dcbbabe)">
     <!-- 0.02 -->
     <g transform="translate(127.374225 368.704912) rotate(-28.552854) scale(0.1 -0.1)">
      <use xlink:href="#DejaVuSans-30"/>
      <use xlink:href="#DejaVuSans-2e" x="63.623047"/>
      <use xlink:href="#DejaVuSans-30" x="95.410156"/>
      <use xlink:href="#DejaVuSans-32" x="159.033203"/>
     </g>
    </g>
   </g>
   <g id="text_23">
    <g clip-path="url(#p4a3dcbbabe)">
     <!-- 0.03 -->
     <g transform="translate(126.645937 341.049231) rotate(-28.66321) scale(0.1 -0.1)">
      <use xlink:href="#DejaVuSans-30"/>
      <use xlink:href="#DejaVuSans-2e" x="63.623047"/>
      <use xlink:href="#DejaVuSans-30" x="95.410156"/>
      <use xlink:href="#DejaVuSans-33" x="159.033203"/>
     </g>
    </g>
   </g>
   <g id="text_24">
    <g clip-path="url(#p4a3dcbbabe)">
     <!-- 0.04 -->
     <g transform="translate(466.814156 110.442867) rotate(-31.737031) scale(0.1 -0.1)">
      <use xlink:href="#DejaVuSans-30"/>
      <use xlink:href="#DejaVuSans-2e" x="63.623047"/>
      <use xlink:href="#DejaVuSans-30" x="95.410156"/>
      <use xlink:href="#DejaVuSans-34" x="159.033203"/>
     </g>
    </g>
   </g>
   <g id="text_25">
    <g clip-path="url(#p4a3dcbbabe)">
     <!-- 0.05 -->
     <g transform="translate(298.716527 174.138972) rotate(-30.717822) scale(0.1 -0.1)">
      <use xlink:href="#DejaVuSans-30"/>
      <use xlink:href="#DejaVuSans-2e" x="63.623047"/>
      <use xlink:href="#DejaVuSans-30" x="95.410156"/>
      <use xlink:href="#DejaVuSans-35" x="159.033203"/>
     </g>
    </g>
   </g>
   <g id="text_26">
    <g clip-path="url(#p4a3dcbbabe)">
     <!-- 0.06 -->
     <g transform="translate(299.282571 127.641417) rotate(-34.663222) scale(0.1 -0.1)">
      <use xlink:href="#DejaVuSans-30"/>
      <use xlink:href="#DejaVuSans-2e" x="63.623047"/>
      <use xlink:href="#DejaVuSans-30" x="95.410156"/>
      <use xlink:href="#DejaVuSans-36" x="159.033203"/>
     </g>
    </g>
   </g>
   <g id="text_27">
    <g clip-path="url(#p4a3dcbbabe)">
     <!-- 0.07 -->
     <g transform="translate(126.605118 168.195333) rotate(-28.361001) scale(0.1 -0.1)">
      <use xlink:href="#DejaVuSans-30"/>
      <use xlink:href="#DejaVuSans-2e" x="63.623047"/>
      <use xlink:href="#DejaVuSans-30" x="95.410156"/>
      <use xlink:href="#DejaVuSans-37" x="159.033203"/>
     </g>
    </g>
   </g>
   <g id="text_28">
    <g clip-path="url(#p4a3dcbbabe)">
     <!-- 0.08 -->
     <g transform="translate(125.255626 82.694031) rotate(-25.828373) scale(0.1 -0.1)">
      <use xlink:href="#DejaVuSans-30"/>
      <use xlink:href="#DejaVuSans-2e" x="63.623047"/>
      <use xlink:href="#DejaVuSans-30" x="95.410156"/>
      <use xlink:href="#DejaVuSans-38" x="159.033203"/>
     </g>
    </g>
   </g>
  </g>
 </g>
 <defs>
  <clipPath id="p4a3dcbbabe">
   <rect x="90" y="51.84" width="558" height="332.64"/>
  </clipPath>
 </defs>
</svg>
