<?xml version="1.0" encoding="utf-8" standalone="no"?>
<!DOCTYPE svg PUBLIC "-//W3C//DTD SVG 1.1//EN"
  "http://www.w3.org/Graphics/SVG/1.1/DTD/svg11.dtd">
<svg xmlns:xlink="http://www.w3.org/1999/xlink" width="720pt" height="432pt" viewBox="0 0 720 432" xmlns="http://www.w3.org/2000/svg" version="1.1">
 <metadata>
  <rdf:RDF xmlns:dc="http://purl.org/dc/elements/1.1/" xmlns:cc="http://creativecommons.org/ns#" xmlns:rdf="http://www.w3.org/1999/02/22-rdf-syntax-ns#">
   <cc:Work>
    <dc:type rdf:resource="http://purl.org/dc/dcmitype/StillImage"/>
    <dc:date>2024-06-18T14:15:54.967297</dc:date>
    <dc:format>image/svg+xml</dc:format>
    <dc:creator>
     <cc:Agent>
      <dc:title>Matplotlib v3.8.3, https://matplotlib.org/</dc:title>
     </cc:Agent>
    </dc:creator>
   </cc:Work>
  </rdf:RDF>
 </metadata>
 <defs>
  <style type="text/css">*{stroke-linejoin: round; stroke-linecap: butt}</style>
 </defs>
 <g id="figure_1">
  <g id="patch_1">
   <path d="M 0 432 
L 720 432 
L 720 0 
L 0 0 
z
" style="fill: #ffffff"/>
  </g>
  <g id="axes_1">
   <g id="patch_2">
    <path d="M 90 384.48 
L 536.4 384.48 
L 536.4 51.84 
L 90 51.84 
z
" style="fill: #ffffff"/>
   </g>
   <g id="QuadContourSet_1">
    <path d="M 99.018182 384.48 
L 101.527992 384.48 
L 101.522176 381.12 
L 101.516345 377.76 
L 101.511864 374.4 
L 101.512486 371.04 
L 101.513112 367.68 
L 101.513744 364.32 
L 101.51438 360.96 
L 101.515022 357.6 
L 101.515668 354.24 
L 101.51632 350.88 
L 101.523671 347.52 
L 101.578724 344.16 
L 101.643561 340.8 
L 101.705267 337.44 
L 101.764063 334.08 
L 101.803418 332.00455 
L 99.018182 334.08 
L 99.018182 337.44 
L 94.509091 340.8 
L 94.509091 344.16 
L 90 347.52 
L 94.509091 350.88 
L 94.509091 354.24 
L 94.509091 357.6 
L 94.509091 360.96 
L 94.509091 364.32 
L 94.509091 367.68 
L 94.509091 371.04 
L 94.509091 374.4 
L 94.509091 377.76 
L 94.509091 381.12 
z
" clip-path="url(#p73041c18c0)" style="fill: #481668"/>
    <path d="M 103.527273 384.48 
L 108.036364 384.48 
L 112.545455 381.12 
L 117.054545 377.76 
L 117.054545 374.4 
L 121.563636 371.04 
L 126.072727 367.68 
L 130.581818 364.32 
L 132.860656 362.621898 
L 130.581818 363.86198 
L 129.851648 364.32 
L 126.072727 366.49036 
L 123.850686 367.68 
L 121.563636 368.975921 
L 119.554309 367.68 
L 119.287901 364.32 
L 119.152644 360.96 
L 119.025521 357.6 
L 118.906432 354.24 
L 118.844251 350.88 
L 118.78207 347.52 
L 118.772962 344.16 
L 118.763854 340.8 
L 118.754747 337.44 
L 118.756487 334.08 
L 118.760852 330.72 
L 118.765175 327.36 
L 118.769486 324 
L 118.781498 320.64 
L 118.793504 317.28 
L 118.805505 313.92 
L 118.817502 310.56 
L 119.124088 307.2 
L 119.49779 303.84 
L 119.718578 301.854866 
L 117.054545 303.84 
L 117.054545 307.2 
L 112.545455 310.56 
L 112.545455 313.92 
L 108.036364 317.28 
L 108.036364 320.64 
L 103.527273 324 
L 103.527273 327.36 
L 103.527273 330.72 
L 101.803418 332.00455 
L 101.764063 334.08 
L 101.705267 337.44 
L 101.643561 340.8 
L 101.578724 344.16 
L 101.523671 347.52 
L 101.51632 350.88 
L 101.515668 354.24 
L 101.515022 357.6 
L 101.51438 360.96 
L 101.513744 364.32 
L 101.513112 367.68 
L 101.512486 371.04 
L 101.511864 374.4 
L 101.516345 377.76 
L 101.522176 381.12 
L 101.527992 384.48 
z
" clip-path="url(#p73041c18c0)" style="fill: #443983"/>
    <path d="M 121.563636 368.975921 
L 123.850686 367.68 
L 126.072727 366.49036 
L 129.851648 364.32 
L 130.581818 363.86198 
L 132.860656 362.621898 
L 135.090909 360.96 
L 139.6 357.6 
L 144.109091 354.24 
L 148.618182 350.88 
L 153.127273 347.52 
L 157.636364 344.16 
L 162.145455 340.8 
L 166.654545 337.44 
L 171.163636 334.08 
L 175.672727 330.72 
L 180.181818 327.36 
L 184.690909 324 
L 189.2 320.64 
L 193.709091 317.28 
L 198.218182 313.92 
L 200.977582 311.863802 
L 198.218182 313.102963 
L 196.427542 313.92 
L 193.709091 315.148489 
L 189.2 317.223543 
L 189.085994 317.28 
L 184.690909 319.4213 
L 182.249838 320.64 
L 180.181818 321.656032 
L 175.672727 323.932849 
L 175.549781 324 
L 171.163636 326.341604 
L 169.31618 327.36 
L 166.654545 328.806901 
L 163.203719 330.72 
L 162.145455 331.305879 
L 157.636364 333.842921 
L 157.269835 334.08 
L 153.127273 336.627221 
L 151.9098 337.44 
L 148.618182 339.531886 
L 146.702826 340.8 
L 144.109091 342.498565 
L 140.077049 340.8 
L 140.044173 337.44 
L 140.027434 334.08 
L 140.01898 330.72 
L 140.010818 327.36 
L 140.007438 324 
L 140.005932 320.64 
L 140.004431 317.28 
L 140.002933 313.92 
L 140.00144 310.56 
L 139.999951 307.2 
L 140.021356 303.84 
L 140.059397 300.48 
L 140.096609 297.12 
L 140.133018 293.76 
L 140.168649 290.4 
L 140.203529 287.04 
L 140.305751 283.68 
L 140.494303 280.32 
L 140.493851 279.653937 
L 139.6 280.32 
L 139.6 283.68 
L 135.090909 287.04 
L 130.581818 290.4 
L 126.072727 293.76 
L 126.072727 297.12 
L 121.563636 300.48 
L 119.718578 301.854866 
L 119.49779 303.84 
L 119.124088 307.2 
L 118.817502 310.56 
L 118.805505 313.92 
L 118.793504 317.28 
L 118.781498 320.64 
L 118.769486 324 
L 118.765175 327.36 
L 118.760852 330.72 
L 118.756487 334.08 
L 118.754747 337.44 
L 118.763854 340.8 
L 118.772962 344.16 
L 118.78207 347.52 
L 118.844251 350.88 
L 118.906432 354.24 
L 119.025521 357.6 
L 119.152644 360.96 
L 119.287901 364.32 
L 119.554309 367.68 
z
" clip-path="url(#p73041c18c0)" style="fill: #375a8c"/>
    <path d="M 144.109091 342.498565 
L 146.702826 340.8 
L 148.618182 339.531886 
L 151.9098 337.44 
L 153.127273 336.627221 
L 157.269835 334.08 
L 157.636364 333.842921 
L 162.145455 331.305879 
L 163.203719 330.72 
L 166.654545 328.806901 
L 169.31618 327.36 
L 171.163636 326.341604 
L 175.549781 324 
L 175.672727 323.932849 
L 180.181818 321.656032 
L 182.249838 320.64 
L 184.690909 319.4213 
L 189.085994 317.28 
L 189.2 317.223543 
L 193.709091 315.148489 
L 196.427542 313.92 
L 198.218182 313.102963 
L 200.977582 311.863802 
L 202.727273 310.56 
L 207.236364 307.2 
L 211.745455 303.84 
L 216.254545 300.48 
L 220.763636 297.12 
L 220.763636 293.76 
L 225.272727 290.4 
L 229.781818 287.04 
L 234.290909 283.68 
L 238.8 280.32 
L 243.309091 276.96 
L 247.818182 273.6 
L 252.327273 270.24 
L 256.836364 266.88 
L 256.942502 266.80091 
L 256.836364 266.848375 
L 256.765648 266.88 
L 252.327273 268.864865 
L 249.252322 270.24 
L 247.818182 270.881355 
L 243.309091 272.967632 
L 241.990231 273.6 
L 238.8 275.129654 
L 234.98265 276.96 
L 234.290909 277.291677 
L 229.781818 279.504704 
L 228.173098 280.32 
L 225.272727 281.767228 
L 221.525686 283.68 
L 220.763636 284.063098 
L 216.254545 286.416535 
L 215.108272 287.04 
L 211.745455 288.827351 
L 208.878244 290.4 
L 207.236364 291.280487 
L 202.751631 293.76 
L 202.727273 293.773444 
L 198.218182 296.272047 
L 196.690613 297.12 
L 193.709091 298.775042 
L 190.718004 300.48 
L 189.2 301.328304 
L 185.073219 303.84 
L 184.690909 304.058108 
L 180.181818 306.880055 
L 179.694258 307.2 
L 175.672727 309.756643 
L 174.176309 310.56 
L 171.163636 312.494436 
L 166.939145 310.56 
L 166.933244 307.2 
L 166.928386 303.84 
L 166.934513 300.48 
L 166.940648 297.12 
L 166.946791 293.76 
L 166.952942 290.4 
L 166.9591 287.04 
L 166.965267 283.68 
L 166.973768 280.32 
L 166.982669 276.96 
L 166.991569 273.6 
L 166.995532 270.24 
L 167.10404 266.88 
L 167.228913 263.52 
L 167.346551 260.16 
L 167.489124 256.8 
L 167.8009 253.44 
L 167.846216 252.552013 
L 166.654545 253.44 
L 162.145455 256.8 
L 162.145455 260.16 
L 157.636364 263.52 
L 153.127273 266.88 
L 148.618182 270.24 
L 148.618182 273.6 
L 144.109091 276.96 
L 140.493851 279.653937 
L 140.494303 280.32 
L 140.305751 283.68 
L 140.203529 287.04 
L 140.168649 290.4 
L 140.133018 293.76 
L 140.096609 297.12 
L 140.059397 300.48 
L 140.021356 303.84 
L 139.999951 307.2 
L 140.00144 310.56 
L 140.002933 313.92 
L 140.004431 317.28 
L 140.005932 320.64 
L 140.007438 324 
L 140.010818 327.36 
L 140.01898 330.72 
L 140.027434 334.08 
L 140.044173 337.44 
L 140.077049 340.8 
z
" clip-path="url(#p73041c18c0)" style="fill: #2b758e"/>
    <path d="M 171.163636 312.494436 
L 174.176309 310.56 
L 175.672727 309.756643 
L 179.694258 307.2 
L 180.181818 306.880055 
L 184.690909 304.058108 
L 185.073219 303.84 
L 189.2 301.328304 
L 190.718004 300.48 
L 193.709091 298.775042 
L 196.690613 297.12 
L 198.218182 296.272047 
L 202.727273 293.773444 
L 202.751631 293.76 
L 207.236364 291.280487 
L 208.878244 290.4 
L 211.745455 288.827351 
L 215.108272 287.04 
L 216.254545 286.416535 
L 220.763636 284.063098 
L 221.525686 283.68 
L 225.272727 281.767228 
L 228.173098 280.32 
L 229.781818 279.504704 
L 234.290909 277.291677 
L 234.98265 276.96 
L 238.8 275.129654 
L 241.990231 273.6 
L 243.309091 272.967632 
L 247.818182 270.881355 
L 249.252322 270.24 
L 252.327273 268.864865 
L 256.765648 266.88 
L 256.836364 266.848375 
L 256.942502 266.80091 
L 261.345455 263.52 
L 265.854545 260.16 
L 270.363636 256.8 
L 274.872727 253.44 
L 279.381818 250.08 
L 283.890909 246.72 
L 288.4 243.36 
L 292.909091 240 
L 297.418182 236.64 
L 301.927273 233.28 
L 306.436364 229.92 
L 310.945455 226.56 
L 315.454545 223.2 
L 319.963636 219.84 
L 324.18426 216.694954 
L 319.963636 218.58244 
L 317.151596 219.84 
L 315.454545 220.59893 
L 310.945455 222.61542 
L 309.638271 223.2 
L 306.436364 224.63191 
L 302.124945 226.56 
L 301.927273 226.6484 
L 297.418182 228.751894 
L 294.957015 229.92 
L 292.909091 230.883243 
L 288.4 233.036516 
L 287.892192 233.28 
L 283.890909 235.198538 
L 280.884611 236.64 
L 279.381818 237.36056 
L 274.872727 239.564075 
L 274.024456 240 
L 270.363636 241.873815 
L 267.476817 243.36 
L 265.854545 244.195173 
L 261.345455 246.519912 
L 260.972614 246.72 
L 256.836364 248.887358 
L 254.634206 250.08 
L 252.327273 251.300578 
L 248.410876 253.44 
L 247.818182 253.756476 
L 243.309091 256.246961 
L 242.310955 256.8 
L 238.8 258.74308 
L 236.24452 260.16 
L 234.290909 261.241711 
L 230.18386 263.52 
L 229.781818 263.742716 
L 225.272727 266.245581 
L 224.220932 266.88 
L 220.763636 268.83897 
L 218.483095 270.24 
L 216.254545 271.526687 
L 212.922397 273.6 
L 211.745455 274.3066 
L 207.510393 276.96 
L 207.236364 277.131688 
L 202.727273 277.731444 
L 202.417824 276.96 
L 202.01167 273.6 
L 202.008917 270.24 
L 202.006164 266.88 
L 202.003411 263.52 
L 202.002076 260.16 
L 202.001029 256.8 
L 201.999987 253.44 
L 201.998949 250.08 
L 201.997916 246.72 
L 201.996888 243.36 
L 202.001228 240 
L 202.00894 236.64 
L 202.179315 233.28 
L 202.355922 229.92 
L 202.534543 226.56 
L 202.727273 224.630978 
L 202.874751 223.2 
L 203.26534 219.84 
L 203.317316 219.400322 
L 202.727273 219.84 
L 198.218182 223.2 
L 193.709091 226.56 
L 193.709091 229.92 
L 189.2 233.28 
L 184.690909 236.64 
L 180.181818 240 
L 175.672727 243.36 
L 175.672727 246.72 
L 171.163636 250.08 
L 167.846216 252.552013 
L 167.8009 253.44 
L 167.489124 256.8 
L 167.346551 260.16 
L 167.228913 263.52 
L 167.10404 266.88 
L 166.995532 270.24 
L 166.991569 273.6 
L 166.982669 276.96 
L 166.973768 280.32 
L 166.965267 283.68 
L 166.9591 287.04 
L 166.952942 290.4 
L 166.946791 293.76 
L 166.940648 297.12 
L 166.934513 300.48 
L 166.928386 303.84 
L 166.933244 307.2 
L 166.939145 310.56 
z
" clip-path="url(#p73041c18c0)" style="fill: #21918c"/>
    <path d="M 202.727273 277.731444 
L 207.236364 277.131688 
L 207.510393 276.96 
L 211.745455 274.3066 
L 212.922397 273.6 
L 216.254545 271.526687 
L 218.483095 270.24 
L 220.763636 268.83897 
L 224.220932 266.88 
L 225.272727 266.245581 
L 229.781818 263.742716 
L 230.18386 263.52 
L 234.290909 261.241711 
L 236.24452 260.16 
L 238.8 258.74308 
L 242.310955 256.8 
L 243.309091 256.246961 
L 247.818182 253.756476 
L 248.410876 253.44 
L 252.327273 251.300578 
L 254.634206 250.08 
L 256.836364 248.887358 
L 260.972614 246.72 
L 261.345455 246.519912 
L 265.854545 244.195173 
L 267.476817 243.36 
L 270.363636 241.873815 
L 274.024456 240 
L 274.872727 239.564075 
L 279.381818 237.36056 
L 280.884611 236.64 
L 283.890909 235.198538 
L 287.892192 233.28 
L 288.4 233.036516 
L 292.909091 230.883243 
L 294.957015 229.92 
L 297.418182 228.751894 
L 301.927273 226.6484 
L 302.124945 226.56 
L 306.436364 224.63191 
L 309.638271 223.2 
L 310.945455 222.61542 
L 315.454545 220.59893 
L 317.151596 219.84 
L 319.963636 218.58244 
L 324.18426 216.694954 
L 324.472727 216.48 
L 324.472727 213.12 
L 328.981818 209.76 
L 333.490909 206.4 
L 338 203.04 
L 342.509091 199.68 
L 347.018182 196.32 
L 351.527273 192.96 
L 356.036364 189.6 
L 360.545455 186.24 
L 365.054545 182.88 
L 369.563636 179.52 
L 374.072727 176.16 
L 378.581818 172.8 
L 380.149181 171.632062 
L 378.581818 172.332995 
L 377.537545 172.8 
L 374.072727 174.349485 
L 370.024219 176.16 
L 369.563636 176.365975 
L 365.054545 178.382465 
L 362.510894 179.52 
L 360.545455 180.398955 
L 356.036364 182.434176 
L 355.08004 182.88 
L 351.527273 184.520907 
L 347.86002 186.24 
L 347.018182 186.631006 
L 342.509091 188.781355 
L 340.801733 189.6 
L 338 190.943377 
L 333.794152 192.96 
L 333.490909 193.105399 
L 328.981818 195.267421 
L 326.825466 196.32 
L 324.472727 197.455264 
L 319.976423 199.68 
L 319.963636 199.686224 
L 315.454545 202.007179 
L 313.448355 203.04 
L 310.945455 204.328537 
L 306.921768 206.4 
L 306.436364 206.649895 
L 301.927273 208.975064 
L 300.457793 209.76 
L 297.418182 211.344866 
L 294.126005 213.12 
L 292.909091 213.760855 
L 288.4 216.225994 
L 287.940853 216.48 
L 283.890909 218.720478 
L 281.867232 219.84 
L 279.381818 221.214961 
L 275.793612 223.2 
L 274.872727 223.709444 
L 270.363636 226.207136 
L 269.72796 226.56 
L 265.854545 228.710131 
L 263.674992 229.92 
L 261.345455 231.213125 
L 257.622024 233.28 
L 256.836364 233.71612 
L 252.327273 235.199146 
L 250.165399 233.28 
L 250.146076 229.92 
L 250.143386 226.56 
L 250.1407 223.2 
L 250.13802 219.84 
L 250.135345 216.48 
L 250.132675 213.12 
L 250.13001 209.76 
L 250.12735 206.4 
L 250.124695 203.04 
L 250.127433 199.68 
L 250.28295 196.32 
L 250.437427 192.96 
L 250.639662 189.6 
L 250.860994 186.24 
L 251.109436 182.88 
L 251.38905 180.219128 
L 247.818182 182.88 
L 243.309091 186.24 
L 238.8 189.6 
L 234.290909 192.96 
L 229.781818 196.32 
L 225.272727 199.68 
L 225.272727 203.04 
L 220.763636 206.4 
L 216.254545 209.76 
L 211.745455 213.12 
L 207.236364 216.48 
L 203.317316 219.400322 
L 203.26534 219.84 
L 202.874751 223.2 
L 202.727273 224.630978 
L 202.534543 226.56 
L 202.355922 229.92 
L 202.179315 233.28 
L 202.00894 236.64 
L 202.001228 240 
L 201.996888 243.36 
L 201.997916 246.72 
L 201.998949 250.08 
L 201.999987 253.44 
L 202.001029 256.8 
L 202.002076 260.16 
L 202.003411 263.52 
L 202.006164 266.88 
L 202.008917 270.24 
L 202.01167 273.6 
L 202.417824 276.96 
z
" clip-path="url(#p73041c18c0)" style="fill: #25ab82"/>
    <path d="M 252.327273 235.199146 
L 256.836364 233.71612 
L 257.622024 233.28 
L 261.345455 231.213125 
L 263.674992 229.92 
L 265.854545 228.710131 
L 269.72796 226.56 
L 270.363636 226.207136 
L 274.872727 223.709444 
L 275.793612 223.2 
L 279.381818 221.214961 
L 281.867232 219.84 
L 283.890909 218.720478 
L 287.940853 216.48 
L 288.4 216.225994 
L 292.909091 213.760855 
L 294.126005 213.12 
L 297.418182 211.344866 
L 300.457793 209.76 
L 301.927273 208.975064 
L 306.436364 206.649895 
L 306.921768 206.4 
L 310.945455 204.328537 
L 313.448355 203.04 
L 315.454545 202.007179 
L 319.963636 199.686224 
L 319.976423 199.68 
L 324.472727 197.455264 
L 326.825466 196.32 
L 328.981818 195.267421 
L 333.490909 193.105399 
L 333.794152 192.96 
L 338 190.943377 
L 340.801733 189.6 
L 342.509091 188.781355 
L 347.018182 186.631006 
L 347.86002 186.24 
L 351.527273 184.520907 
L 355.08004 182.88 
L 356.036364 182.434176 
L 360.545455 180.398955 
L 362.510894 179.52 
L 365.054545 178.382465 
L 369.563636 176.365975 
L 370.024219 176.16 
L 374.072727 174.349485 
L 377.537545 172.8 
L 378.581818 172.332995 
L 380.149181 171.632062 
L 383.090909 169.44 
L 387.6 166.08 
L 392.109091 162.72 
L 396.618182 159.36 
L 401.127273 156 
L 405.636364 152.64 
L 410.145455 149.28 
L 414.654545 145.92 
L 419.163636 142.56 
L 423.672727 139.2 
L 428.181818 135.84 
L 428.181818 132.48 
L 432.690909 129.12 
L 436.114101 126.56917 
L 432.690909 128.10004 
L 430.410168 129.12 
L 428.181818 130.11653 
L 423.672727 132.13302 
L 422.896842 132.48 
L 419.163636 134.14951 
L 415.383517 135.84 
L 414.654545 136.166 
L 410.145455 138.201743 
L 407.975164 139.2 
L 405.636364 140.265582 
L 401.127273 142.364172 
L 400.718856 142.56 
L 396.618182 144.526194 
L 393.711275 145.92 
L 392.109091 146.688216 
L 387.6 148.850238 
L 386.703694 149.28 
L 383.090909 151.012261 
L 379.696113 152.64 
L 378.581818 153.174283 
L 374.072727 155.354119 
L 372.777557 156 
L 369.563636 157.57718 
L 366.016539 159.36 
L 365.054545 159.835923 
L 360.545455 162.140542 
L 359.419894 162.72 
L 356.036364 164.4619 
L 352.893307 166.08 
L 351.527273 166.783258 
L 347.018182 169.104616 
L 346.36672 169.44 
L 342.509091 171.425974 
L 339.905687 172.8 
L 338 173.788587 
L 333.581987 176.16 
L 333.490909 176.207734 
L 328.981818 178.141172 
L 325.991654 179.52 
L 324.472727 180.185974 
L 321.591495 179.52 
L 321.266797 176.16 
L 321.161742 172.8 
L 321.128816 169.44 
L 321.035712 166.08 
L 320.935107 162.72 
L 320.933215 159.36 
L 320.931323 156 
L 320.929431 152.64 
L 320.927538 149.28 
L 320.925646 145.92 
L 320.923754 142.56 
L 320.921861 139.2 
L 320.992776 135.84 
L 321.062204 132.48 
L 321.353679 129.12 
L 321.353996 128.083957 
L 319.963636 129.12 
L 315.454545 132.48 
L 310.945455 135.84 
L 306.436364 139.2 
L 301.927273 142.56 
L 297.418182 145.92 
L 292.909091 149.28 
L 288.4 152.64 
L 283.890909 156 
L 279.381818 159.36 
L 274.872727 162.72 
L 270.363636 166.08 
L 265.854545 169.44 
L 261.345455 172.8 
L 256.836364 176.16 
L 252.327273 179.52 
L 251.38905 180.219128 
L 251.109436 182.88 
L 250.860994 186.24 
L 250.639662 189.6 
L 250.437427 192.96 
L 250.28295 196.32 
L 250.127433 199.68 
L 250.124695 203.04 
L 250.12735 206.4 
L 250.13001 209.76 
L 250.132675 213.12 
L 250.135345 216.48 
L 250.13802 219.84 
L 250.1407 223.2 
L 250.143386 226.56 
L 250.146076 229.92 
L 250.165399 233.28 
z
" clip-path="url(#p73041c18c0)" style="fill: #4ec36b"/>
    <path d="M 324.472727 180.185974 
L 325.991654 179.52 
L 328.981818 178.141172 
L 333.490909 176.207734 
L 333.581987 176.16 
L 338 173.788587 
L 339.905687 172.8 
L 342.509091 171.425974 
L 346.36672 169.44 
L 347.018182 169.104616 
L 351.527273 166.783258 
L 352.893307 166.08 
L 356.036364 164.4619 
L 359.419894 162.72 
L 360.545455 162.140542 
L 365.054545 159.835923 
L 366.016539 159.36 
L 369.563636 157.57718 
L 372.777557 156 
L 374.072727 155.354119 
L 378.581818 153.174283 
L 379.696113 152.64 
L 383.090909 151.012261 
L 386.703694 149.28 
L 387.6 148.850238 
L 392.109091 146.688216 
L 393.711275 145.92 
L 396.618182 144.526194 
L 400.718856 142.56 
L 401.127273 142.364172 
L 405.636364 140.265582 
L 407.975164 139.2 
L 410.145455 138.201743 
L 414.654545 136.166 
L 415.383517 135.84 
L 419.163636 134.14951 
L 422.896842 132.48 
L 423.672727 132.13302 
L 428.181818 130.11653 
L 430.410168 129.12 
L 432.690909 128.10004 
L 436.114101 126.56917 
L 437.2 125.76 
L 441.709091 122.4 
L 446.218182 119.04 
L 450.727273 115.68 
L 455.236364 112.32 
L 459.745455 108.96 
L 464.254545 105.6 
L 468.763636 102.24 
L 473.272727 98.88 
L 477.781818 95.52 
L 482.290909 92.16 
L 486.8 88.8 
L 491.309091 85.44 
L 495.818182 82.08 
L 500.327273 78.72 
L 503.355859 76.463215 
L 500.327273 77.817615 
L 498.309442 78.72 
L 495.818182 79.834105 
L 491.309091 81.850595 
L 490.796116 82.08 
L 486.8 83.867085 
L 483.282791 85.44 
L 482.290909 85.883575 
L 477.781818 87.900065 
L 475.769465 88.8 
L 473.272727 89.916555 
L 468.763636 91.933045 
L 468.25614 92.16 
L 464.254545 93.949535 
L 460.7793 95.52 
L 459.745455 95.98427 
L 455.236364 97.801838 
L 453.371129 98.88 
L 450.727273 100.079265 
L 446.620816 102.24 
L 446.218182 102.433056 
L 441.709091 102.571297 
L 440.631819 102.24 
L 439.939363 98.88 
L 439.36184 95.52 
L 438.645736 92.16 
L 437.832548 88.8 
L 437.79771 85.44 
L 437.762872 82.08 
L 437.728034 78.72 
L 437.693196 75.36 
L 438.164098 72 
L 438.624672 68.64 
L 439.042032 65.28 
L 439.441349 61.92 
L 439.672812 60.077356 
L 437.2 61.92 
L 432.690909 61.92 
L 428.181818 65.28 
L 423.672727 68.64 
L 419.163636 72 
L 414.654545 72 
L 410.145455 75.36 
L 405.636364 78.72 
L 401.127273 82.08 
L 396.618182 85.44 
L 392.109091 85.44 
L 387.6 88.8 
L 383.090909 92.16 
L 378.581818 95.52 
L 374.072727 95.52 
L 369.563636 98.88 
L 365.054545 102.24 
L 360.545455 105.6 
L 356.036364 108.96 
L 351.527273 112.32 
L 347.018182 112.32 
L 342.509091 115.68 
L 338 119.04 
L 333.490909 122.4 
L 328.981818 125.76 
L 324.472727 125.76 
L 321.353996 128.083957 
L 321.353679 129.12 
L 321.062204 132.48 
L 320.992776 135.84 
L 320.921861 139.2 
L 320.923754 142.56 
L 320.925646 145.92 
L 320.927538 149.28 
L 320.929431 152.64 
L 320.931323 156 
L 320.933215 159.36 
L 320.935107 162.72 
L 321.035712 166.08 
L 321.128816 169.44 
L 321.161742 172.8 
L 321.266797 176.16 
L 321.591495 179.52 
z
" clip-path="url(#p73041c18c0)" style="fill: #90d743"/>
    <path d="M 441.709091 102.571297 
L 446.218182 102.433056 
L 446.620816 102.24 
L 450.727273 100.079265 
L 453.371129 98.88 
L 455.236364 97.801838 
L 459.745455 95.98427 
L 460.7793 95.52 
L 464.254545 93.949535 
L 468.25614 92.16 
L 468.763636 91.933045 
L 473.272727 89.916555 
L 475.769465 88.8 
L 477.781818 87.900065 
L 482.290909 85.883575 
L 483.282791 85.44 
L 486.8 83.867085 
L 490.796116 82.08 
L 491.309091 81.850595 
L 495.818182 79.834105 
L 498.309442 78.72 
L 500.327273 77.817615 
L 503.355859 76.463215 
L 504.836364 75.36 
L 509.345455 72 
L 513.854545 68.64 
L 518.363636 65.28 
L 522.872727 61.92 
L 527.381818 58.56 
L 531.890909 55.2 
L 536.4 51.84 
L 531.890909 51.84 
L 527.381818 51.84 
L 522.872727 51.84 
L 518.363636 51.84 
L 513.854545 51.84 
L 509.345455 51.84 
L 504.836364 51.84 
L 500.327273 51.84 
L 495.818182 51.84 
L 491.309091 51.84 
L 486.8 51.84 
L 482.290909 51.84 
L 477.781818 51.84 
L 473.272727 51.84 
L 468.763636 51.84 
L 464.254545 51.84 
L 459.745455 51.84 
L 455.236364 51.84 
L 450.727273 51.84 
L 446.218182 55.2 
L 441.709091 58.56 
L 439.672812 60.077356 
L 439.441349 61.92 
L 439.042032 65.28 
L 438.624672 68.64 
L 438.164098 72 
L 437.693196 75.36 
L 437.728034 78.72 
L 437.762872 82.08 
L 437.79771 85.44 
L 437.832548 88.8 
L 438.645736 92.16 
L 439.36184 95.52 
L 439.939363 98.88 
L 440.631819 102.24 
z
" clip-path="url(#p73041c18c0)" style="fill: #dae319"/>
   </g>
   <g id="matplotlib.axis_1">
    <g id="xtick_1">
     <g id="line2d_1">
      <path d="M 141.460542 384.48 
L 141.460542 51.84 
" clip-path="url(#p73041c18c0)" style="fill: none; stroke: #b0b0b0; stroke-width: 0.8; stroke-linecap: square"/>
     </g>
     <g id="line2d_2">
      <defs>
       <path id="ma29fbbc552" d="M 0 0 
L 0 3.5 
" style="stroke: #000000; stroke-width: 0.8"/>
      </defs>
      <g>
       <use xlink:href="#ma29fbbc552" x="141.460542" y="384.48" style="stroke: #000000; stroke-width: 0.8"/>
      </g>
     </g>
     <g id="text_1">
      <!-- 1000 -->
      <g transform="translate(128.735542 399.078438) scale(0.1 -0.1)">
       <defs>
        <path id="DejaVuSans-31" d="M 794 531 
L 1825 531 
L 1825 4091 
L 703 3866 
L 703 4441 
L 1819 4666 
L 2450 4666 
L 2450 531 
L 3481 531 
L 3481 0 
L 794 0 
L 794 531 
z
" transform="scale(0.015625)"/>
        <path id="DejaVuSans-30" d="M 2034 4250 
Q 1547 4250 1301 3770 
Q 1056 3291 1056 2328 
Q 1056 1369 1301 889 
Q 1547 409 2034 409 
Q 2525 409 2770 889 
Q 3016 1369 3016 2328 
Q 3016 3291 2770 3770 
Q 2525 4250 2034 4250 
z
M 2034 4750 
Q 2819 4750 3233 4129 
Q 3647 3509 3647 2328 
Q 3647 1150 3233 529 
Q 2819 -91 2034 -91 
Q 1250 -91 836 529 
Q 422 1150 422 2328 
Q 422 3509 836 4129 
Q 1250 4750 2034 4750 
z
" transform="scale(0.015625)"/>
       </defs>
       <use xlink:href="#DejaVuSans-31"/>
       <use xlink:href="#DejaVuSans-30" x="63.623047"/>
       <use xlink:href="#DejaVuSans-30" x="127.246094"/>
       <use xlink:href="#DejaVuSans-30" x="190.869141"/>
      </g>
     </g>
    </g>
    <g id="xtick_2">
     <g id="line2d_3">
      <path d="M 195.844069 384.48 
L 195.844069 51.84 
" clip-path="url(#p73041c18c0)" style="fill: none; stroke: #b0b0b0; stroke-width: 0.8; stroke-linecap: square"/>
     </g>
     <g id="line2d_4">
      <g>
       <use xlink:href="#ma29fbbc552" x="195.844069" y="384.48" style="stroke: #000000; stroke-width: 0.8"/>
      </g>
     </g>
     <g id="text_2">
      <!-- 2000 -->
      <g transform="translate(183.119069 399.078438) scale(0.1 -0.1)">
       <defs>
        <path id="DejaVuSans-32" d="M 1228 531 
L 3431 531 
L 3431 0 
L 469 0 
L 469 531 
Q 828 903 1448 1529 
Q 2069 2156 2228 2338 
Q 2531 2678 2651 2914 
Q 2772 3150 2772 3378 
Q 2772 3750 2511 3984 
Q 2250 4219 1831 4219 
Q 1534 4219 1204 4116 
Q 875 4013 500 3803 
L 500 4441 
Q 881 4594 1212 4672 
Q 1544 4750 1819 4750 
Q 2544 4750 2975 4387 
Q 3406 4025 3406 3419 
Q 3406 3131 3298 2873 
Q 3191 2616 2906 2266 
Q 2828 2175 2409 1742 
Q 1991 1309 1228 531 
z
" transform="scale(0.015625)"/>
       </defs>
       <use xlink:href="#DejaVuSans-32"/>
       <use xlink:href="#DejaVuSans-30" x="63.623047"/>
       <use xlink:href="#DejaVuSans-30" x="127.246094"/>
       <use xlink:href="#DejaVuSans-30" x="190.869141"/>
      </g>
     </g>
    </g>
    <g id="xtick_3">
     <g id="line2d_5">
      <path d="M 250.227597 384.48 
L 250.227597 51.84 
" clip-path="url(#p73041c18c0)" style="fill: none; stroke: #b0b0b0; stroke-width: 0.8; stroke-linecap: square"/>
     </g>
     <g id="line2d_6">
      <g>
       <use xlink:href="#ma29fbbc552" x="250.227597" y="384.48" style="stroke: #000000; stroke-width: 0.8"/>
      </g>
     </g>
     <g id="text_3">
      <!-- 3000 -->
      <g transform="translate(237.502597 399.078438) scale(0.1 -0.1)">
       <defs>
        <path id="DejaVuSans-33" d="M 2597 2516 
Q 3050 2419 3304 2112 
Q 3559 1806 3559 1356 
Q 3559 666 3084 287 
Q 2609 -91 1734 -91 
Q 1441 -91 1130 -33 
Q 819 25 488 141 
L 488 750 
Q 750 597 1062 519 
Q 1375 441 1716 441 
Q 2309 441 2620 675 
Q 2931 909 2931 1356 
Q 2931 1769 2642 2001 
Q 2353 2234 1838 2234 
L 1294 2234 
L 1294 2753 
L 1863 2753 
Q 2328 2753 2575 2939 
Q 2822 3125 2822 3475 
Q 2822 3834 2567 4026 
Q 2313 4219 1838 4219 
Q 1578 4219 1281 4162 
Q 984 4106 628 3988 
L 628 4550 
Q 988 4650 1302 4700 
Q 1616 4750 1894 4750 
Q 2613 4750 3031 4423 
Q 3450 4097 3450 3541 
Q 3450 3153 3228 2886 
Q 3006 2619 2597 2516 
z
" transform="scale(0.015625)"/>
       </defs>
       <use xlink:href="#DejaVuSans-33"/>
       <use xlink:href="#DejaVuSans-30" x="63.623047"/>
       <use xlink:href="#DejaVuSans-30" x="127.246094"/>
       <use xlink:href="#DejaVuSans-30" x="190.869141"/>
      </g>
     </g>
    </g>
    <g id="xtick_4">
     <g id="line2d_7">
      <path d="M 304.611124 384.48 
L 304.611124 51.84 
" clip-path="url(#p73041c18c0)" style="fill: none; stroke: #b0b0b0; stroke-width: 0.8; stroke-linecap: square"/>
     </g>
     <g id="line2d_8">
      <g>
       <use xlink:href="#ma29fbbc552" x="304.611124" y="384.48" style="stroke: #000000; stroke-width: 0.8"/>
      </g>
     </g>
     <g id="text_4">
      <!-- 4000 -->
      <g transform="translate(291.886124 399.078438) scale(0.1 -0.1)">
       <defs>
        <path id="DejaVuSans-34" d="M 2419 4116 
L 825 1625 
L 2419 1625 
L 2419 4116 
z
M 2253 4666 
L 3047 4666 
L 3047 1625 
L 3713 1625 
L 3713 1100 
L 3047 1100 
L 3047 0 
L 2419 0 
L 2419 1100 
L 313 1100 
L 313 1709 
L 2253 4666 
z
" transform="scale(0.015625)"/>
       </defs>
       <use xlink:href="#DejaVuSans-34"/>
       <use xlink:href="#DejaVuSans-30" x="63.623047"/>
       <use xlink:href="#DejaVuSans-30" x="127.246094"/>
       <use xlink:href="#DejaVuSans-30" x="190.869141"/>
      </g>
     </g>
    </g>
    <g id="xtick_5">
     <g id="line2d_9">
      <path d="M 358.994652 384.48 
L 358.994652 51.84 
" clip-path="url(#p73041c18c0)" style="fill: none; stroke: #b0b0b0; stroke-width: 0.8; stroke-linecap: square"/>
     </g>
     <g id="line2d_10">
      <g>
       <use xlink:href="#ma29fbbc552" x="358.994652" y="384.48" style="stroke: #000000; stroke-width: 0.8"/>
      </g>
     </g>
     <g id="text_5">
      <!-- 5000 -->
      <g transform="translate(346.269652 399.078438) scale(0.1 -0.1)">
       <defs>
        <path id="DejaVuSans-35" d="M 691 4666 
L 3169 4666 
L 3169 4134 
L 1269 4134 
L 1269 2991 
Q 1406 3038 1543 3061 
Q 1681 3084 1819 3084 
Q 2600 3084 3056 2656 
Q 3513 2228 3513 1497 
Q 3513 744 3044 326 
Q 2575 -91 1722 -91 
Q 1428 -91 1123 -41 
Q 819 9 494 109 
L 494 744 
Q 775 591 1075 516 
Q 1375 441 1709 441 
Q 2250 441 2565 725 
Q 2881 1009 2881 1497 
Q 2881 1984 2565 2268 
Q 2250 2553 1709 2553 
Q 1456 2553 1204 2497 
Q 953 2441 691 2322 
L 691 4666 
z
" transform="scale(0.015625)"/>
       </defs>
       <use xlink:href="#DejaVuSans-35"/>
       <use xlink:href="#DejaVuSans-30" x="63.623047"/>
       <use xlink:href="#DejaVuSans-30" x="127.246094"/>
       <use xlink:href="#DejaVuSans-30" x="190.869141"/>
      </g>
     </g>
    </g>
    <g id="xtick_6">
     <g id="line2d_11">
      <path d="M 413.378179 384.48 
L 413.378179 51.84 
" clip-path="url(#p73041c18c0)" style="fill: none; stroke: #b0b0b0; stroke-width: 0.8; stroke-linecap: square"/>
     </g>
     <g id="line2d_12">
      <g>
       <use xlink:href="#ma29fbbc552" x="413.378179" y="384.48" style="stroke: #000000; stroke-width: 0.8"/>
      </g>
     </g>
     <g id="text_6">
      <!-- 6000 -->
      <g transform="translate(400.653179 399.078438) scale(0.1 -0.1)">
       <defs>
        <path id="DejaVuSans-36" d="M 2113 2584 
Q 1688 2584 1439 2293 
Q 1191 2003 1191 1497 
Q 1191 994 1439 701 
Q 1688 409 2113 409 
Q 2538 409 2786 701 
Q 3034 994 3034 1497 
Q 3034 2003 2786 2293 
Q 2538 2584 2113 2584 
z
M 3366 4563 
L 3366 3988 
Q 3128 4100 2886 4159 
Q 2644 4219 2406 4219 
Q 1781 4219 1451 3797 
Q 1122 3375 1075 2522 
Q 1259 2794 1537 2939 
Q 1816 3084 2150 3084 
Q 2853 3084 3261 2657 
Q 3669 2231 3669 1497 
Q 3669 778 3244 343 
Q 2819 -91 2113 -91 
Q 1303 -91 875 529 
Q 447 1150 447 2328 
Q 447 3434 972 4092 
Q 1497 4750 2381 4750 
Q 2619 4750 2861 4703 
Q 3103 4656 3366 4563 
z
" transform="scale(0.015625)"/>
       </defs>
       <use xlink:href="#DejaVuSans-36"/>
       <use xlink:href="#DejaVuSans-30" x="63.623047"/>
       <use xlink:href="#DejaVuSans-30" x="127.246094"/>
       <use xlink:href="#DejaVuSans-30" x="190.869141"/>
      </g>
     </g>
    </g>
    <g id="xtick_7">
     <g id="line2d_13">
      <path d="M 467.761707 384.48 
L 467.761707 51.84 
" clip-path="url(#p73041c18c0)" style="fill: none; stroke: #b0b0b0; stroke-width: 0.8; stroke-linecap: square"/>
     </g>
     <g id="line2d_14">
      <g>
       <use xlink:href="#ma29fbbc552" x="467.761707" y="384.48" style="stroke: #000000; stroke-width: 0.8"/>
      </g>
     </g>
     <g id="text_7">
      <!-- 7000 -->
      <g transform="translate(455.036707 399.078438) scale(0.1 -0.1)">
       <defs>
        <path id="DejaVuSans-37" d="M 525 4666 
L 3525 4666 
L 3525 4397 
L 1831 0 
L 1172 0 
L 2766 4134 
L 525 4134 
L 525 4666 
z
" transform="scale(0.015625)"/>
       </defs>
       <use xlink:href="#DejaVuSans-37"/>
       <use xlink:href="#DejaVuSans-30" x="63.623047"/>
       <use xlink:href="#DejaVuSans-30" x="127.246094"/>
       <use xlink:href="#DejaVuSans-30" x="190.869141"/>
      </g>
     </g>
    </g>
    <g id="xtick_8">
     <g id="line2d_15">
      <path d="M 522.145235 384.48 
L 522.145235 51.84 
" clip-path="url(#p73041c18c0)" style="fill: none; stroke: #b0b0b0; stroke-width: 0.8; stroke-linecap: square"/>
     </g>
     <g id="line2d_16">
      <g>
       <use xlink:href="#ma29fbbc552" x="522.145235" y="384.48" style="stroke: #000000; stroke-width: 0.8"/>
      </g>
     </g>
     <g id="text_8">
      <!-- 8000 -->
      <g transform="translate(509.420235 399.078438) scale(0.1 -0.1)">
       <defs>
        <path id="DejaVuSans-38" d="M 2034 2216 
Q 1584 2216 1326 1975 
Q 1069 1734 1069 1313 
Q 1069 891 1326 650 
Q 1584 409 2034 409 
Q 2484 409 2743 651 
Q 3003 894 3003 1313 
Q 3003 1734 2745 1975 
Q 2488 2216 2034 2216 
z
M 1403 2484 
Q 997 2584 770 2862 
Q 544 3141 544 3541 
Q 544 4100 942 4425 
Q 1341 4750 2034 4750 
Q 2731 4750 3128 4425 
Q 3525 4100 3525 3541 
Q 3525 3141 3298 2862 
Q 3072 2584 2669 2484 
Q 3125 2378 3379 2068 
Q 3634 1759 3634 1313 
Q 3634 634 3220 271 
Q 2806 -91 2034 -91 
Q 1263 -91 848 271 
Q 434 634 434 1313 
Q 434 1759 690 2068 
Q 947 2378 1403 2484 
z
M 1172 3481 
Q 1172 3119 1398 2916 
Q 1625 2713 2034 2713 
Q 2441 2713 2670 2916 
Q 2900 3119 2900 3481 
Q 2900 3844 2670 4047 
Q 2441 4250 2034 4250 
Q 1625 4250 1398 4047 
Q 1172 3844 1172 3481 
z
" transform="scale(0.015625)"/>
       </defs>
       <use xlink:href="#DejaVuSans-38"/>
       <use xlink:href="#DejaVuSans-30" x="63.623047"/>
       <use xlink:href="#DejaVuSans-30" x="127.246094"/>
       <use xlink:href="#DejaVuSans-30" x="190.869141"/>
      </g>
     </g>
    </g>
    <g id="text_9">
     <!-- $\dot{W}_{exp}$ [W] -->
     <g transform="translate(269.1 426.358125) scale(0.2 -0.2)">
      <defs>
       <path id="DejaVuSans-307" d="M -1894 4863 
L -1319 4863 
L -1319 4134 
L -1894 4134 
L -1894 4863 
z
M -1600 3584 
L -1600 3584 
z
" transform="scale(0.015625)"/>
       <path id="DejaVuSans-Oblique-57" d="M 616 4666 
L 1228 4666 
L 1453 697 
L 3213 4666 
L 3916 4666 
L 4147 697 
L 5888 4666 
L 6528 4666 
L 4453 0 
L 3659 0 
L 3444 3891 
L 1697 0 
L 903 0 
L 616 4666 
z
" transform="scale(0.015625)"/>
       <path id="DejaVuSans-Oblique-65" d="M 3078 2063 
Q 3088 2113 3092 2166 
Q 3097 2219 3097 2272 
Q 3097 2653 2873 2875 
Q 2650 3097 2266 3097 
Q 1838 3097 1509 2826 
Q 1181 2556 1013 2059 
L 3078 2063 
z
M 3578 1613 
L 903 1613 
Q 884 1494 878 1425 
Q 872 1356 872 1306 
Q 872 872 1139 634 
Q 1406 397 1894 397 
Q 2269 397 2603 481 
Q 2938 566 3225 728 
L 3116 159 
Q 2806 34 2476 -28 
Q 2147 -91 1806 -91 
Q 1078 -91 686 257 
Q 294 606 294 1247 
Q 294 1794 489 2264 
Q 684 2734 1063 3103 
Q 1306 3334 1642 3459 
Q 1978 3584 2356 3584 
Q 2950 3584 3301 3228 
Q 3653 2872 3653 2272 
Q 3653 2128 3634 1964 
Q 3616 1800 3578 1613 
z
" transform="scale(0.015625)"/>
       <path id="DejaVuSans-Oblique-78" d="M 3841 3500 
L 2234 1784 
L 3219 0 
L 2559 0 
L 1819 1388 
L 531 0 
L -166 0 
L 1556 1844 
L 641 3500 
L 1300 3500 
L 1972 2234 
L 3144 3500 
L 3841 3500 
z
" transform="scale(0.015625)"/>
       <path id="DejaVuSans-Oblique-70" d="M 3175 2156 
Q 3175 2616 2975 2859 
Q 2775 3103 2400 3103 
Q 2144 3103 1911 2972 
Q 1678 2841 1497 2591 
Q 1319 2344 1212 1994 
Q 1106 1644 1106 1300 
Q 1106 863 1306 627 
Q 1506 391 1875 391 
Q 2147 391 2380 519 
Q 2613 647 2778 891 
Q 2956 1147 3065 1494 
Q 3175 1841 3175 2156 
z
M 1394 2969 
Q 1625 3272 1939 3428 
Q 2253 3584 2638 3584 
Q 3175 3584 3472 3232 
Q 3769 2881 3769 2247 
Q 3769 1728 3584 1258 
Q 3400 788 3053 416 
Q 2822 169 2531 39 
Q 2241 -91 1919 -91 
Q 1547 -91 1294 64 
Q 1041 219 916 525 
L 556 -1331 
L -19 -1331 
L 922 3500 
L 1497 3500 
L 1394 2969 
z
" transform="scale(0.015625)"/>
       <path id="DejaVuSans-20" transform="scale(0.015625)"/>
       <path id="DejaVuSans-5b" d="M 550 4863 
L 1875 4863 
L 1875 4416 
L 1125 4416 
L 1125 -397 
L 1875 -397 
L 1875 -844 
L 550 -844 
L 550 4863 
z
" transform="scale(0.015625)"/>
       <path id="DejaVuSans-57" d="M 213 4666 
L 850 4666 
L 1831 722 
L 2809 4666 
L 3519 4666 
L 4500 722 
L 5478 4666 
L 6119 4666 
L 4947 0 
L 4153 0 
L 3169 4050 
L 2175 0 
L 1381 0 
L 213 4666 
z
" transform="scale(0.015625)"/>
       <path id="DejaVuSans-5d" d="M 1947 4863 
L 1947 -844 
L 622 -844 
L 622 -397 
L 1369 -397 
L 1369 4416 
L 622 4416 
L 622 4863 
L 1947 4863 
z
" transform="scale(0.015625)"/>
      </defs>
      <use xlink:href="#DejaVuSans-307" transform="translate(87.312988 30.015625)"/>
      <use xlink:href="#DejaVuSans-Oblique-57" transform="translate(0 0.609375)"/>
      <use xlink:href="#DejaVuSans-Oblique-65" transform="translate(99.833984 -15.796875) scale(0.7)"/>
      <use xlink:href="#DejaVuSans-Oblique-78" transform="translate(142.900391 -15.796875) scale(0.7)"/>
      <use xlink:href="#DejaVuSans-Oblique-70" transform="translate(184.326172 -15.796875) scale(0.7)"/>
      <use xlink:href="#DejaVuSans-20" transform="translate(231.494141 0.609375)"/>
      <use xlink:href="#DejaVuSans-5b" transform="translate(263.28125 0.609375)"/>
      <use xlink:href="#DejaVuSans-57" transform="translate(302.294922 0.609375)"/>
      <use xlink:href="#DejaVuSans-5d" transform="translate(401.171875 0.609375)"/>
     </g>
    </g>
   </g>
   <g id="matplotlib.axis_2">
    <g id="ytick_1">
     <g id="line2d_17">
      <path d="M 90 384.48 
L 536.4 384.48 
" clip-path="url(#p73041c18c0)" style="fill: none; stroke: #b0b0b0; stroke-width: 0.8; stroke-linecap: square"/>
     </g>
     <g id="line2d_18">
      <defs>
       <path id="m64b8428f32" d="M 0 0 
L -3.5 0 
" style="stroke: #000000; stroke-width: 0.8"/>
      </defs>
      <g>
       <use xlink:href="#m64b8428f32" x="90" y="384.48" style="stroke: #000000; stroke-width: 0.8"/>
      </g>
     </g>
     <g id="text_10">
      <!-- 55 -->
      <g transform="translate(70.275 388.279219) scale(0.1 -0.1)">
       <use xlink:href="#DejaVuSans-35"/>
       <use xlink:href="#DejaVuSans-35" x="63.623047"/>
      </g>
     </g>
    </g>
    <g id="ytick_2">
     <g id="line2d_19">
      <path d="M 90 347.52 
L 536.4 347.52 
" clip-path="url(#p73041c18c0)" style="fill: none; stroke: #b0b0b0; stroke-width: 0.8; stroke-linecap: square"/>
     </g>
     <g id="line2d_20">
      <g>
       <use xlink:href="#m64b8428f32" x="90" y="347.52" style="stroke: #000000; stroke-width: 0.8"/>
      </g>
     </g>
     <g id="text_11">
      <!-- 60 -->
      <g transform="translate(70.275 351.319219) scale(0.1 -0.1)">
       <use xlink:href="#DejaVuSans-36"/>
       <use xlink:href="#DejaVuSans-30" x="63.623047"/>
      </g>
     </g>
    </g>
    <g id="ytick_3">
     <g id="line2d_21">
      <path d="M 90 310.56 
L 536.4 310.56 
" clip-path="url(#p73041c18c0)" style="fill: none; stroke: #b0b0b0; stroke-width: 0.8; stroke-linecap: square"/>
     </g>
     <g id="line2d_22">
      <g>
       <use xlink:href="#m64b8428f32" x="90" y="310.56" style="stroke: #000000; stroke-width: 0.8"/>
      </g>
     </g>
     <g id="text_12">
      <!-- 65 -->
      <g transform="translate(70.275 314.359219) scale(0.1 -0.1)">
       <use xlink:href="#DejaVuSans-36"/>
       <use xlink:href="#DejaVuSans-35" x="63.623047"/>
      </g>
     </g>
    </g>
    <g id="ytick_4">
     <g id="line2d_23">
      <path d="M 90 273.6 
L 536.4 273.6 
" clip-path="url(#p73041c18c0)" style="fill: none; stroke: #b0b0b0; stroke-width: 0.8; stroke-linecap: square"/>
     </g>
     <g id="line2d_24">
      <g>
       <use xlink:href="#m64b8428f32" x="90" y="273.6" style="stroke: #000000; stroke-width: 0.8"/>
      </g>
     </g>
     <g id="text_13">
      <!-- 70 -->
      <g transform="translate(70.275 277.399219) scale(0.1 -0.1)">
       <use xlink:href="#DejaVuSans-37"/>
       <use xlink:href="#DejaVuSans-30" x="63.623047"/>
      </g>
     </g>
    </g>
    <g id="ytick_5">
     <g id="line2d_25">
      <path d="M 90 236.64 
L 536.4 236.64 
" clip-path="url(#p73041c18c0)" style="fill: none; stroke: #b0b0b0; stroke-width: 0.8; stroke-linecap: square"/>
     </g>
     <g id="line2d_26">
      <g>
       <use xlink:href="#m64b8428f32" x="90" y="236.64" style="stroke: #000000; stroke-width: 0.8"/>
      </g>
     </g>
     <g id="text_14">
      <!-- 75 -->
      <g transform="translate(70.275 240.439219) scale(0.1 -0.1)">
       <use xlink:href="#DejaVuSans-37"/>
       <use xlink:href="#DejaVuSans-35" x="63.623047"/>
      </g>
     </g>
    </g>
    <g id="ytick_6">
     <g id="line2d_27">
      <path d="M 90 199.68 
L 536.4 199.68 
" clip-path="url(#p73041c18c0)" style="fill: none; stroke: #b0b0b0; stroke-width: 0.8; stroke-linecap: square"/>
     </g>
     <g id="line2d_28">
      <g>
       <use xlink:href="#m64b8428f32" x="90" y="199.68" style="stroke: #000000; stroke-width: 0.8"/>
      </g>
     </g>
     <g id="text_15">
      <!-- 80 -->
      <g transform="translate(70.275 203.479219) scale(0.1 -0.1)">
       <use xlink:href="#DejaVuSans-38"/>
       <use xlink:href="#DejaVuSans-30" x="63.623047"/>
      </g>
     </g>
    </g>
    <g id="ytick_7">
     <g id="line2d_29">
      <path d="M 90 162.72 
L 536.4 162.72 
" clip-path="url(#p73041c18c0)" style="fill: none; stroke: #b0b0b0; stroke-width: 0.8; stroke-linecap: square"/>
     </g>
     <g id="line2d_30">
      <g>
       <use xlink:href="#m64b8428f32" x="90" y="162.72" style="stroke: #000000; stroke-width: 0.8"/>
      </g>
     </g>
     <g id="text_16">
      <!-- 85 -->
      <g transform="translate(70.275 166.519219) scale(0.1 -0.1)">
       <use xlink:href="#DejaVuSans-38"/>
       <use xlink:href="#DejaVuSans-35" x="63.623047"/>
      </g>
     </g>
    </g>
    <g id="ytick_8">
     <g id="line2d_31">
      <path d="M 90 125.76 
L 536.4 125.76 
" clip-path="url(#p73041c18c0)" style="fill: none; stroke: #b0b0b0; stroke-width: 0.8; stroke-linecap: square"/>
     </g>
     <g id="line2d_32">
      <g>
       <use xlink:href="#m64b8428f32" x="90" y="125.76" style="stroke: #000000; stroke-width: 0.8"/>
      </g>
     </g>
     <g id="text_17">
      <!-- 90 -->
      <g transform="translate(70.275 129.559219) scale(0.1 -0.1)">
       <defs>
        <path id="DejaVuSans-39" d="M 703 97 
L 703 672 
Q 941 559 1184 500 
Q 1428 441 1663 441 
Q 2288 441 2617 861 
Q 2947 1281 2994 2138 
Q 2813 1869 2534 1725 
Q 2256 1581 1919 1581 
Q 1219 1581 811 2004 
Q 403 2428 403 3163 
Q 403 3881 828 4315 
Q 1253 4750 1959 4750 
Q 2769 4750 3195 4129 
Q 3622 3509 3622 2328 
Q 3622 1225 3098 567 
Q 2575 -91 1691 -91 
Q 1453 -91 1209 -44 
Q 966 3 703 97 
z
M 1959 2075 
Q 2384 2075 2632 2365 
Q 2881 2656 2881 3163 
Q 2881 3666 2632 3958 
Q 2384 4250 1959 4250 
Q 1534 4250 1286 3958 
Q 1038 3666 1038 3163 
Q 1038 2656 1286 2365 
Q 1534 2075 1959 2075 
z
" transform="scale(0.015625)"/>
       </defs>
       <use xlink:href="#DejaVuSans-39"/>
       <use xlink:href="#DejaVuSans-30" x="63.623047"/>
      </g>
     </g>
    </g>
    <g id="ytick_9">
     <g id="line2d_33">
      <path d="M 90 88.8 
L 536.4 88.8 
" clip-path="url(#p73041c18c0)" style="fill: none; stroke: #b0b0b0; stroke-width: 0.8; stroke-linecap: square"/>
     </g>
     <g id="line2d_34">
      <g>
       <use xlink:href="#m64b8428f32" x="90" y="88.8" style="stroke: #000000; stroke-width: 0.8"/>
      </g>
     </g>
     <g id="text_18">
      <!-- 95 -->
      <g transform="translate(70.275 92.599219) scale(0.1 -0.1)">
       <use xlink:href="#DejaVuSans-39"/>
       <use xlink:href="#DejaVuSans-35" x="63.623047"/>
      </g>
     </g>
    </g>
    <g id="ytick_10">
     <g id="line2d_35">
      <path d="M 90 51.84 
L 536.4 51.84 
" clip-path="url(#p73041c18c0)" style="fill: none; stroke: #b0b0b0; stroke-width: 0.8; stroke-linecap: square"/>
     </g>
     <g id="line2d_36">
      <g>
       <use xlink:href="#m64b8428f32" x="90" y="51.84" style="stroke: #000000; stroke-width: 0.8"/>
      </g>
     </g>
     <g id="text_19">
      <!-- 100 -->
      <g transform="translate(63.9125 55.639219) scale(0.1 -0.1)">
       <use xlink:href="#DejaVuSans-31"/>
       <use xlink:href="#DejaVuSans-30" x="63.623047"/>
       <use xlink:href="#DejaVuSans-30" x="127.246094"/>
      </g>
     </g>
    </g>
    <g id="text_20">
     <!-- $T_{sto,HT}$ [°C] -->
     <g transform="translate(54.9125 271.36) rotate(-90) scale(0.2 -0.2)">
      <defs>
       <path id="DejaVuSans-Oblique-54" d="M 378 4666 
L 4325 4666 
L 4225 4134 
L 2559 4134 
L 1759 0 
L 1125 0 
L 1925 4134 
L 275 4134 
L 378 4666 
z
" transform="scale(0.015625)"/>
       <path id="DejaVuSans-Oblique-73" d="M 3200 3397 
L 3091 2853 
Q 2863 2978 2609 3040 
Q 2356 3103 2088 3103 
Q 1634 3103 1373 2948 
Q 1113 2794 1113 2528 
Q 1113 2219 1719 2053 
Q 1766 2041 1788 2034 
L 1972 1978 
Q 2547 1819 2739 1644 
Q 2931 1469 2931 1166 
Q 2931 609 2489 259 
Q 2047 -91 1331 -91 
Q 1053 -91 747 -37 
Q 441 16 72 128 
L 184 722 
Q 500 559 806 475 
Q 1113 391 1394 391 
Q 1816 391 2080 572 
Q 2344 753 2344 1031 
Q 2344 1331 1650 1516 
L 1591 1531 
L 1394 1581 
Q 956 1697 753 1886 
Q 550 2075 550 2369 
Q 550 2928 970 3256 
Q 1391 3584 2113 3584 
Q 2397 3584 2667 3537 
Q 2938 3491 3200 3397 
z
" transform="scale(0.015625)"/>
       <path id="DejaVuSans-Oblique-74" d="M 2706 3500 
L 2619 3053 
L 1472 3053 
L 1100 1153 
Q 1081 1047 1072 975 
Q 1063 903 1063 863 
Q 1063 663 1183 572 
Q 1303 481 1569 481 
L 2150 481 
L 2053 0 
L 1503 0 
Q 991 0 739 200 
Q 488 400 488 806 
Q 488 878 497 964 
Q 506 1050 525 1153 
L 897 3053 
L 409 3053 
L 500 3500 
L 978 3500 
L 1172 4494 
L 1747 4494 
L 1556 3500 
L 2706 3500 
z
" transform="scale(0.015625)"/>
       <path id="DejaVuSans-Oblique-6f" d="M 1625 -91 
Q 1009 -91 651 289 
Q 294 669 294 1325 
Q 294 1706 417 2101 
Q 541 2497 738 2766 
Q 1047 3184 1428 3384 
Q 1809 3584 2291 3584 
Q 2888 3584 3255 3212 
Q 3622 2841 3622 2241 
Q 3622 1825 3500 1412 
Q 3378 1000 3181 728 
Q 2875 309 2494 109 
Q 2113 -91 1625 -91 
z
M 891 1344 
Q 891 869 1089 633 
Q 1288 397 1691 397 
Q 2269 397 2648 901 
Q 3028 1406 3028 2181 
Q 3028 2634 2825 2865 
Q 2622 3097 2228 3097 
Q 1903 3097 1650 2945 
Q 1397 2794 1197 2484 
Q 1050 2253 970 1956 
Q 891 1659 891 1344 
z
" transform="scale(0.015625)"/>
       <path id="DejaVuSans-2c" d="M 750 794 
L 1409 794 
L 1409 256 
L 897 -744 
L 494 -744 
L 750 256 
L 750 794 
z
" transform="scale(0.015625)"/>
       <path id="DejaVuSans-Oblique-48" d="M 1081 4666 
L 1716 4666 
L 1344 2753 
L 3634 2753 
L 4006 4666 
L 4641 4666 
L 3731 0 
L 3097 0 
L 3531 2222 
L 1241 2222 
L 806 0 
L 172 0 
L 1081 4666 
z
" transform="scale(0.015625)"/>
       <path id="DejaVuSans-b0" d="M 1600 4347 
Q 1350 4347 1178 4173 
Q 1006 4000 1006 3750 
Q 1006 3503 1178 3333 
Q 1350 3163 1600 3163 
Q 1850 3163 2022 3333 
Q 2194 3503 2194 3750 
Q 2194 3997 2020 4172 
Q 1847 4347 1600 4347 
z
M 1600 4750 
Q 1800 4750 1984 4673 
Q 2169 4597 2303 4453 
Q 2447 4313 2519 4134 
Q 2591 3956 2591 3750 
Q 2591 3338 2302 3052 
Q 2013 2766 1594 2766 
Q 1172 2766 890 3047 
Q 609 3328 609 3750 
Q 609 4169 896 4459 
Q 1184 4750 1600 4750 
z
" transform="scale(0.015625)"/>
       <path id="DejaVuSans-43" d="M 4122 4306 
L 4122 3641 
Q 3803 3938 3442 4084 
Q 3081 4231 2675 4231 
Q 1875 4231 1450 3742 
Q 1025 3253 1025 2328 
Q 1025 1406 1450 917 
Q 1875 428 2675 428 
Q 3081 428 3442 575 
Q 3803 722 4122 1019 
L 4122 359 
Q 3791 134 3420 21 
Q 3050 -91 2638 -91 
Q 1578 -91 968 557 
Q 359 1206 359 2328 
Q 359 3453 968 4101 
Q 1578 4750 2638 4750 
Q 3056 4750 3426 4639 
Q 3797 4528 4122 4306 
z
" transform="scale(0.015625)"/>
      </defs>
      <use xlink:href="#DejaVuSans-Oblique-54" transform="translate(0 0.015625)"/>
      <use xlink:href="#DejaVuSans-Oblique-73" transform="translate(61.083984 -16.390625) scale(0.7)"/>
      <use xlink:href="#DejaVuSans-Oblique-74" transform="translate(97.553711 -16.390625) scale(0.7)"/>
      <use xlink:href="#DejaVuSans-Oblique-6f" transform="translate(125 -16.390625) scale(0.7)"/>
      <use xlink:href="#DejaVuSans-2c" transform="translate(167.827148 -16.390625) scale(0.7)"/>
      <use xlink:href="#DejaVuSans-Oblique-48" transform="translate(203.71582 -16.390625) scale(0.7)"/>
      <use xlink:href="#DejaVuSans-Oblique-54" transform="translate(256.352539 -16.390625) scale(0.7)"/>
      <use xlink:href="#DejaVuSans-20" transform="translate(301.845703 0.015625)"/>
      <use xlink:href="#DejaVuSans-5b" transform="translate(333.632812 0.015625)"/>
      <use xlink:href="#DejaVuSans-b0" transform="translate(372.646484 0.015625)"/>
      <use xlink:href="#DejaVuSans-43" transform="translate(422.646484 0.015625)"/>
      <use xlink:href="#DejaVuSans-5d" transform="translate(492.470703 0.015625)"/>
     </g>
    </g>
   </g>
   <g id="QuadContourSet_2">
    <path clip-path="url(#p73041c18c0)" style="fill: none; stroke: #000000; stroke-width: 1.5"/>
    <path d="M 101.803418 332.00455 
L 101.764063 334.08 
L 101.705267 337.44 
L 101.643561 340.8 
L 101.578724 344.16 
L 101.523671 347.52 
L 101.51632 350.88 
L 101.515668 354.24 
L 101.515022 357.6 
L 101.51438 360.96 
L 101.513758 364.245 
M 101.516475 377.834995 
L 101.522176 381.12 
L 101.527992 384.48 
" clip-path="url(#p73041c18c0)" style="fill: none; stroke: #000000; stroke-width: 1.5"/>
    <path d="M 119.718578 301.854866 
L 119.49779 303.84 
L 119.124088 307.2 
L 118.817502 310.56 
L 118.805505 313.92 
L 118.793504 317.28 
L 118.781498 320.64 
L 118.769486 324 
L 118.765175 327.36 
L 118.760852 330.72 
L 118.756526 334.05002 
M 118.782624 347.549953 
L 118.844251 350.88 
L 118.906432 354.24 
L 119.025521 357.6 
L 119.152644 360.96 
L 119.287901 364.32 
L 119.554309 367.68 
L 121.563636 368.975921 
L 123.850686 367.68 
L 126.072727 366.49036 
L 129.851648 364.32 
L 130.581818 363.86198 
L 132.860656 362.621898 
" clip-path="url(#p73041c18c0)" style="fill: none; stroke: #000000; stroke-width: 1.5"/>
    <path d="M 140.493851 279.653937 
L 140.494303 280.32 
L 140.305751 283.68 
L 140.203529 287.04 
L 140.168649 290.4 
L 140.133018 293.76 
L 140.096609 297.12 
L 140.059397 300.48 
L 140.021356 303.84 
L 139.999951 307.2 
L 140.001427 310.530001 
M 140.007468 324.029999 
L 140.010818 327.36 
L 140.01898 330.72 
L 140.027434 334.08 
L 140.044173 337.44 
L 140.077049 340.8 
L 144.109091 342.498565 
L 146.702826 340.8 
L 148.618182 339.531886 
L 151.9098 337.44 
L 153.127273 336.627221 
L 157.269835 334.08 
L 157.636364 333.842921 
L 162.145455 331.305879 
L 163.203719 330.72 
L 166.654545 328.806901 
L 169.31618 327.36 
L 171.163636 326.341604 
L 175.549781 324 
L 175.672727 323.932849 
L 180.181818 321.656032 
L 182.249838 320.64 
L 184.690909 319.4213 
L 189.085994 317.28 
L 189.2 317.223543 
L 193.709091 315.148489 
L 196.427542 313.92 
L 198.218182 313.102963 
L 200.977582 311.863802 
" clip-path="url(#p73041c18c0)" style="fill: none; stroke: #000000; stroke-width: 1.5"/>
    <path d="M 167.846216 252.552013 
L 167.8009 253.44 
L 167.489124 256.8 
L 167.346551 260.16 
L 167.228913 263.52 
L 167.10404 266.88 
L 166.995532 270.24 
L 166.991569 273.6 
L 166.982669 276.96 
L 166.973768 280.32 
L 166.965343 283.650018 
M 166.940593 297.149982 
L 166.934513 300.48 
L 166.928386 303.84 
L 166.933244 307.2 
L 166.939145 310.56 
L 171.163636 312.494436 
L 174.176309 310.56 
L 175.672727 309.756643 
L 179.694258 307.2 
L 180.181818 306.880055 
L 184.690909 304.058108 
L 185.073219 303.84 
L 189.2 301.328304 
L 190.718004 300.48 
L 193.709091 298.775042 
L 196.690613 297.12 
L 198.218182 296.272047 
L 202.727273 293.773444 
L 202.751631 293.76 
L 207.236364 291.280487 
L 208.878244 290.4 
L 211.745455 288.827351 
L 215.108272 287.04 
L 216.254545 286.416535 
L 220.763636 284.063098 
L 221.525686 283.68 
L 225.272727 281.767228 
L 228.173098 280.32 
L 229.781818 279.504704 
L 234.290909 277.291677 
L 234.98265 276.96 
L 238.8 275.129654 
L 241.990231 273.6 
L 243.309091 272.967632 
L 247.818182 270.881355 
L 249.252322 270.24 
L 252.327273 268.864865 
L 256.765648 266.88 
L 256.836364 266.848375 
L 256.942502 266.80091 
" clip-path="url(#p73041c18c0)" style="fill: none; stroke: #000000; stroke-width: 1.5"/>
    <path d="M 203.317316 219.400322 
L 203.26534 219.84 
L 202.874751 223.2 
L 202.727273 224.630978 
L 202.534543 226.56 
L 202.355922 229.92 
L 202.179315 233.28 
L 202.00894 236.64 
L 202.001228 240 
L 201.996888 243.36 
L 201.997907 246.690001 
M 202.002088 260.189999 
L 202.003411 263.52 
L 202.006164 266.88 
L 202.008917 270.24 
L 202.01167 273.6 
L 202.417824 276.96 
L 202.727273 277.731444 
L 207.236364 277.131688 
L 207.510393 276.96 
L 211.745455 274.3066 
L 212.922397 273.6 
L 216.254545 271.526687 
L 218.483095 270.24 
L 220.763636 268.83897 
L 224.220932 266.88 
L 225.272727 266.245581 
L 229.781818 263.742716 
L 230.18386 263.52 
L 234.290909 261.241711 
L 236.24452 260.16 
L 238.8 258.74308 
L 242.310955 256.8 
L 243.309091 256.246961 
L 247.818182 253.756476 
L 248.410876 253.44 
L 252.327273 251.300578 
L 254.634206 250.08 
L 256.836364 248.887358 
L 260.972614 246.72 
L 261.345455 246.519912 
L 265.854545 244.195173 
L 267.476817 243.36 
L 270.363636 241.873815 
L 274.024456 240 
L 274.872727 239.564075 
L 279.381818 237.36056 
L 280.884611 236.64 
L 283.890909 235.198538 
L 287.892192 233.28 
L 288.4 233.036516 
L 292.909091 230.883243 
L 294.957015 229.92 
L 297.418182 228.751894 
L 301.927273 226.6484 
L 302.124945 226.56 
L 306.436364 224.63191 
L 309.638271 223.2 
L 310.945455 222.61542 
L 315.454545 220.59893 
L 317.151596 219.84 
L 319.963636 218.58244 
L 324.18426 216.694954 
" clip-path="url(#p73041c18c0)" style="fill: none; stroke: #000000; stroke-width: 1.5"/>
    <path d="M 251.38905 180.219128 
L 251.109436 182.88 
L 250.860994 186.24 
L 250.639662 189.6 
L 250.437427 192.96 
L 250.28295 196.32 
L 250.127433 199.68 
L 250.124695 203.04 
L 250.12735 206.4 
L 250.13001 209.76 
L 250.132615 213.045003 
M 250.143446 226.634997 
L 250.146076 229.92 
L 250.165399 233.28 
L 252.327273 235.199146 
L 256.836364 233.71612 
L 257.622024 233.28 
L 261.345455 231.213125 
L 263.674992 229.92 
L 265.854545 228.710131 
L 269.72796 226.56 
L 270.363636 226.207136 
L 274.872727 223.709444 
L 275.793612 223.2 
L 279.381818 221.214961 
L 281.867232 219.84 
L 283.890909 218.720478 
L 287.940853 216.48 
L 288.4 216.225994 
L 292.909091 213.760855 
L 294.126005 213.12 
L 297.418182 211.344866 
L 300.457793 209.76 
L 301.927273 208.975064 
L 306.436364 206.649895 
L 306.921768 206.4 
L 310.945455 204.328537 
L 313.448355 203.04 
L 315.454545 202.007179 
L 319.963636 199.686224 
L 319.976423 199.68 
L 324.472727 197.455264 
L 326.825466 196.32 
L 328.981818 195.267421 
L 333.490909 193.105399 
L 333.794152 192.96 
L 338 190.943377 
L 340.801733 189.6 
L 342.509091 188.781355 
L 347.018182 186.631006 
L 347.86002 186.24 
L 351.527273 184.520907 
L 355.08004 182.88 
L 356.036364 182.434176 
L 360.545455 180.398955 
L 362.510894 179.52 
L 365.054545 178.382465 
L 369.563636 176.365975 
L 370.024219 176.16 
L 374.072727 174.349485 
L 377.537545 172.8 
L 378.581818 172.332995 
L 380.149181 171.632062 
" clip-path="url(#p73041c18c0)" style="fill: none; stroke: #000000; stroke-width: 1.5"/>
    <path d="M 321.353996 128.083957 
L 321.353679 129.12 
L 321.062204 132.48 
L 320.992776 135.84 
L 320.921861 139.2 
L 320.923754 142.56 
L 320.925646 145.92 
L 320.927538 149.28 
L 320.929431 152.64 
L 320.931323 156 
L 320.933215 159.36 
L 320.935107 162.72 
L 321.035712 166.08 
L 321.128816 169.44 
L 321.161742 172.8 
L 321.266797 176.16 
L 321.591495 179.52 
L 324.472727 180.185974 
L 325.991654 179.52 
L 328.981818 178.141172 
L 333.490909 176.207734 
L 333.581987 176.16 
L 338 173.788587 
L 339.905687 172.8 
L 342.509091 171.425974 
L 346.36672 169.44 
L 347.018182 169.104616 
L 347.900202 168.650537 
M 357.886412 163.509463 
L 359.419894 162.72 
L 360.545455 162.140542 
L 365.054545 159.835923 
L 366.016539 159.36 
L 369.563636 157.57718 
L 372.777557 156 
L 374.072727 155.354119 
L 378.581818 153.174283 
L 379.696113 152.64 
L 383.090909 151.012261 
L 386.703694 149.28 
L 387.6 148.850238 
L 392.109091 146.688216 
L 393.711275 145.92 
L 396.618182 144.526194 
L 400.718856 142.56 
L 401.127273 142.364172 
L 405.636364 140.265582 
L 407.975164 139.2 
L 410.145455 138.201743 
L 414.654545 136.166 
L 415.383517 135.84 
L 419.163636 134.14951 
L 422.896842 132.48 
L 423.672727 132.13302 
L 428.181818 130.11653 
L 430.410168 129.12 
L 432.690909 128.10004 
L 436.114101 126.56917 
" clip-path="url(#p73041c18c0)" style="fill: none; stroke: #000000; stroke-width: 1.5"/>
    <path d="M 439.672812 60.077356 
L 439.441349 61.92 
L 439.042032 65.28 
L 438.624672 68.64 
L 438.164098 72 
L 437.693196 75.36 
L 437.728034 78.72 
L 437.762872 82.08 
L 437.79771 85.44 
L 437.832548 88.8 
L 438.645736 92.16 
L 439.36184 95.52 
L 439.939363 98.88 
L 440.631819 102.24 
L 441.709091 102.571297 
L 446.218182 102.433056 
L 446.620816 102.24 
L 450.727273 100.079265 
L 453.371129 98.88 
L 455.236364 97.801838 
L 459.745455 95.98427 
L 460.7793 95.52 
L 464.254545 93.949535 
L 468.25614 92.16 
L 468.763636 91.933045 
L 473.272727 89.916555 
L 475.769465 88.8 
L 477.172608 88.172507 
M 487.40921 83.594643 
L 490.796116 82.08 
L 491.309091 81.850595 
L 495.818182 79.834105 
L 498.309442 78.72 
L 500.327273 77.817615 
L 503.355859 76.463215 
" clip-path="url(#p73041c18c0)" style="fill: none; stroke: #000000; stroke-width: 1.5"/>
    <path clip-path="url(#p73041c18c0)" style="fill: none; stroke: #000000; stroke-width: 1.5"/>
   </g>
   <g id="patch_3">
    <path d="M 90 384.48 
L 90 51.84 
" style="fill: none; stroke: #000000; stroke-width: 0.8; stroke-linejoin: miter; stroke-linecap: square"/>
   </g>
   <g id="patch_4">
    <path d="M 536.4 384.48 
L 536.4 51.84 
" style="fill: none; stroke: #000000; stroke-width: 0.8; stroke-linejoin: miter; stroke-linecap: square"/>
   </g>
   <g id="patch_5">
    <path d="M 90 384.48 
L 536.4 384.48 
" style="fill: none; stroke: #000000; stroke-width: 0.8; stroke-linejoin: miter; stroke-linecap: square"/>
   </g>
   <g id="patch_6">
    <path d="M 90 51.84 
L 536.4 51.84 
" style="fill: none; stroke: #000000; stroke-width: 0.8; stroke-linejoin: miter; stroke-linecap: square"/>
   </g>
   <g id="text_21">
    <g clip-path="url(#p73041c18c0)">
     <!-- 1 -->
     <g transform="translate(104.271122 374.221891) rotate(-89.986698) scale(0.1 -0.1)">
      <use xlink:href="#DejaVuSans-31"/>
     </g>
    </g>
   </g>
   <g id="text_22">
    <g clip-path="url(#p73041c18c0)">
     <!-- 2 -->
     <g transform="translate(115.993716 337.628118) rotate(-270.194133) scale(0.1 -0.1)">
      <use xlink:href="#DejaVuSans-32"/>
     </g>
    </g>
   </g>
   <g id="text_23">
    <g clip-path="url(#p73041c18c0)">
     <!-- 3 -->
     <g transform="translate(137.243282 314.10029) rotate(-270.031961) scale(0.1 -0.1)">
      <use xlink:href="#DejaVuSans-33"/>
     </g>
    </g>
   </g>
   <g id="text_24">
    <g clip-path="url(#p73041c18c0)">
     <!-- 4 -->
     <g transform="translate(169.705025 293.58756) rotate(-89.86881) scale(0.1 -0.1)">
      <use xlink:href="#DejaVuSans-34"/>
     </g>
    </g>
   </g>
   <g id="text_25">
    <g clip-path="url(#p73041c18c0)">
     <!-- 5 -->
     <g transform="translate(199.239381 250.259818) rotate(-270.022169) scale(0.1 -0.1)">
      <use xlink:href="#DejaVuSans-35"/>
     </g>
    </g>
   </g>
   <g id="text_26">
    <g clip-path="url(#p73041c18c0)">
     <!-- 6 -->
     <g transform="translate(247.375477 216.6615) rotate(-270.057076) scale(0.1 -0.1)">
      <use xlink:href="#DejaVuSans-36"/>
     </g>
    </g>
   </g>
   <g id="text_27">
    <g clip-path="url(#p73041c18c0)">
     <!-- 7 -->
     <g transform="translate(351.002593 169.842938) rotate(-22.384502) scale(0.1 -0.1)">
      <use xlink:href="#DejaVuSans-37"/>
     </g>
    </g>
   </g>
   <g id="text_28">
    <g clip-path="url(#p73041c18c0)">
     <!-- 8 -->
     <g transform="translate(480.225093 89.553303) rotate(-19.685399) scale(0.1 -0.1)">
      <use xlink:href="#DejaVuSans-38"/>
     </g>
    </g>
   </g>
  </g>
  <g id="axes_2">
   <g id="patch_7">
    <path d="M 564.3 384.48 
L 580.932 384.48 
L 580.932 51.84 
L 564.3 51.84 
z
" style="fill: #ffffff"/>
   </g>
   <g id="QuadMesh_1">
    <path d="M 564.3 384.48 
L 580.932 384.48 
L 580.932 347.52 
L 564.3 347.52 
L 564.3 384.48 
" clip-path="url(#p36d0627507)" style="fill: #481668"/>
    <path d="M 564.3 347.52 
L 580.932 347.52 
L 580.932 310.56 
L 564.3 310.56 
L 564.3 347.52 
" clip-path="url(#p36d0627507)" style="fill: #443983"/>
    <path d="M 564.3 310.56 
L 580.932 310.56 
L 580.932 273.6 
L 564.3 273.6 
L 564.3 310.56 
" clip-path="url(#p36d0627507)" style="fill: #375a8c"/>
    <path d="M 564.3 273.6 
L 580.932 273.6 
L 580.932 236.64 
L 564.3 236.64 
L 564.3 273.6 
" clip-path="url(#p36d0627507)" style="fill: #2b758e"/>
    <path d="M 564.3 236.64 
L 580.932 236.64 
L 580.932 199.68 
L 564.3 199.68 
L 564.3 236.64 
" clip-path="url(#p36d0627507)" style="fill: #21918c"/>
    <path d="M 564.3 199.68 
L 580.932 199.68 
L 580.932 162.72 
L 564.3 162.72 
L 564.3 199.68 
" clip-path="url(#p36d0627507)" style="fill: #25ab82"/>
    <path d="M 564.3 162.72 
L 580.932 162.72 
L 580.932 125.76 
L 564.3 125.76 
L 564.3 162.72 
" clip-path="url(#p36d0627507)" style="fill: #4ec36b"/>
    <path d="M 564.3 125.76 
L 580.932 125.76 
L 580.932 88.8 
L 564.3 88.8 
L 564.3 125.76 
" clip-path="url(#p36d0627507)" style="fill: #90d743"/>
    <path d="M 564.3 88.8 
L 580.932 88.8 
L 580.932 51.84 
L 564.3 51.84 
L 564.3 88.8 
" clip-path="url(#p36d0627507)" style="fill: #dae319"/>
   </g>
   <g id="matplotlib.axis_3"/>
   <g id="matplotlib.axis_4">
    <g id="ytick_11">
     <g id="line2d_37">
      <defs>
       <path id="med624735ac" d="M 0 0 
L 3.5 0 
" style="stroke: #000000; stroke-width: 0.8"/>
      </defs>
      <g>
       <use xlink:href="#med624735ac" x="580.932" y="384.48" style="stroke: #000000; stroke-width: 0.8"/>
      </g>
     </g>
     <g id="text_29">
      <!-- 0 -->
      <g transform="translate(587.932 388.279219) scale(0.1 -0.1)">
       <use xlink:href="#DejaVuSans-30"/>
      </g>
     </g>
    </g>
    <g id="ytick_12">
     <g id="line2d_38">
      <g>
       <use xlink:href="#med624735ac" x="580.932" y="347.52" style="stroke: #000000; stroke-width: 0.8"/>
      </g>
     </g>
     <g id="text_30">
      <!-- 1 -->
      <g transform="translate(587.932 351.319219) scale(0.1 -0.1)">
       <use xlink:href="#DejaVuSans-31"/>
      </g>
     </g>
    </g>
    <g id="ytick_13">
     <g id="line2d_39">
      <g>
       <use xlink:href="#med624735ac" x="580.932" y="310.56" style="stroke: #000000; stroke-width: 0.8"/>
      </g>
     </g>
     <g id="text_31">
      <!-- 2 -->
      <g transform="translate(587.932 314.359219) scale(0.1 -0.1)">
       <use xlink:href="#DejaVuSans-32"/>
      </g>
     </g>
    </g>
    <g id="ytick_14">
     <g id="line2d_40">
      <g>
       <use xlink:href="#med624735ac" x="580.932" y="273.6" style="stroke: #000000; stroke-width: 0.8"/>
      </g>
     </g>
     <g id="text_32">
      <!-- 3 -->
      <g transform="translate(587.932 277.399219) scale(0.1 -0.1)">
       <use xlink:href="#DejaVuSans-33"/>
      </g>
     </g>
    </g>
    <g id="ytick_15">
     <g id="line2d_41">
      <g>
       <use xlink:href="#med624735ac" x="580.932" y="236.64" style="stroke: #000000; stroke-width: 0.8"/>
      </g>
     </g>
     <g id="text_33">
      <!-- 4 -->
      <g transform="translate(587.932 240.439219) scale(0.1 -0.1)">
       <use xlink:href="#DejaVuSans-34"/>
      </g>
     </g>
    </g>
    <g id="ytick_16">
     <g id="line2d_42">
      <g>
       <use xlink:href="#med624735ac" x="580.932" y="199.68" style="stroke: #000000; stroke-width: 0.8"/>
      </g>
     </g>
     <g id="text_34">
      <!-- 5 -->
      <g transform="translate(587.932 203.479219) scale(0.1 -0.1)">
       <use xlink:href="#DejaVuSans-35"/>
      </g>
     </g>
    </g>
    <g id="ytick_17">
     <g id="line2d_43">
      <g>
       <use xlink:href="#med624735ac" x="580.932" y="162.72" style="stroke: #000000; stroke-width: 0.8"/>
      </g>
     </g>
     <g id="text_35">
      <!-- 6 -->
      <g transform="translate(587.932 166.519219) scale(0.1 -0.1)">
       <use xlink:href="#DejaVuSans-36"/>
      </g>
     </g>
    </g>
    <g id="ytick_18">
     <g id="line2d_44">
      <g>
       <use xlink:href="#med624735ac" x="580.932" y="125.76" style="stroke: #000000; stroke-width: 0.8"/>
      </g>
     </g>
     <g id="text_36">
      <!-- 7 -->
      <g transform="translate(587.932 129.559219) scale(0.1 -0.1)">
       <use xlink:href="#DejaVuSans-37"/>
      </g>
     </g>
    </g>
    <g id="ytick_19">
     <g id="line2d_45">
      <g>
       <use xlink:href="#med624735ac" x="580.932" y="88.8" style="stroke: #000000; stroke-width: 0.8"/>
      </g>
     </g>
     <g id="text_37">
      <!-- 8 -->
      <g transform="translate(587.932 92.599219) scale(0.1 -0.1)">
       <use xlink:href="#DejaVuSans-38"/>
      </g>
     </g>
    </g>
    <g id="ytick_20">
     <g id="line2d_46">
      <g>
       <use xlink:href="#med624735ac" x="580.932" y="51.84" style="stroke: #000000; stroke-width: 0.8"/>
      </g>
     </g>
     <g id="text_38">
      <!-- 9 -->
      <g transform="translate(587.932 55.639219) scale(0.1 -0.1)">
       <use xlink:href="#DejaVuSans-39"/>
      </g>
     </g>
    </g>
    <g id="text_39">
     <!-- $\eta_{ORC}$ [%] -->
     <g transform="translate(610.4545 252.08) rotate(-90) scale(0.16 -0.16)">
      <defs>
       <path id="DejaVuSans-Oblique-3b7" d="M 3703 2113 
L 3034 -1331 
L 2459 -1331 
L 3125 2094 
Q 3222 2591 3075 2838 
Q 2931 3084 2544 3084 
Q 2078 3084 1750 2788 
Q 1425 2491 1325 1978 
L 941 0 
L 363 0 
L 1044 3500 
L 1622 3500 
L 1516 2956 
Q 1781 3272 2094 3428 
Q 2403 3584 2769 3584 
Q 3372 3584 3609 3213 
Q 3844 2838 3703 2113 
z
" transform="scale(0.015625)"/>
       <path id="DejaVuSans-Oblique-4f" d="M 2919 4238 
Q 2400 4238 2003 3986 
Q 1606 3734 1313 3219 
Q 1125 2891 1026 2522 
Q 928 2153 928 1778 
Q 928 1128 1239 775 
Q 1550 422 2119 422 
Q 2631 422 3032 676 
Q 3434 931 3719 1434 
Q 3909 1772 4009 2142 
Q 4109 2513 4109 2881 
Q 4109 3528 3796 3883 
Q 3484 4238 2919 4238 
z
M 2100 -91 
Q 1241 -91 748 418 
Q 256 928 256 1813 
Q 256 2319 448 2847 
Q 641 3375 978 3788 
Q 1375 4272 1862 4511 
Q 2350 4750 2938 4750 
Q 3794 4750 4287 4245 
Q 4781 3741 4781 2869 
Q 4781 2331 4593 1812 
Q 4406 1294 4056 872 
Q 3656 384 3173 146 
Q 2691 -91 2100 -91 
z
" transform="scale(0.015625)"/>
       <path id="DejaVuSans-Oblique-52" d="M 1613 4147 
L 1294 2491 
L 2106 2491 
Q 2584 2491 2879 2755 
Q 3175 3019 3175 3444 
Q 3175 3784 2976 3965 
Q 2778 4147 2406 4147 
L 1613 4147 
z
M 2772 2241 
Q 2972 2194 3105 2009 
Q 3238 1825 3413 1275 
L 3809 0 
L 3144 0 
L 2778 1197 
Q 2638 1659 2453 1815 
Q 2269 1972 1888 1972 
L 1191 1972 
L 806 0 
L 172 0 
L 1081 4666 
L 2503 4666 
Q 3150 4666 3495 4373 
Q 3841 4081 3841 3531 
Q 3841 3044 3547 2687 
Q 3253 2331 2772 2241 
z
" transform="scale(0.015625)"/>
       <path id="DejaVuSans-Oblique-43" d="M 4447 4306 
L 4319 3641 
Q 4019 3944 3683 4091 
Q 3347 4238 2956 4238 
Q 2422 4238 2017 3981 
Q 1613 3725 1319 3200 
Q 1131 2863 1032 2486 
Q 934 2109 934 1728 
Q 934 1091 1264 756 
Q 1594 422 2222 422 
Q 2656 422 3056 561 
Q 3456 700 3834 978 
L 3688 231 
Q 3316 72 2936 -9 
Q 2556 -91 2175 -91 
Q 1278 -91 773 396 
Q 269 884 269 1753 
Q 269 2309 461 2846 
Q 653 3384 1013 3828 
Q 1394 4300 1883 4525 
Q 2372 4750 3022 4750 
Q 3422 4750 3780 4639 
Q 4138 4528 4447 4306 
z
" transform="scale(0.015625)"/>
       <path id="DejaVuSans-25" d="M 4653 2053 
Q 4381 2053 4226 1822 
Q 4072 1591 4072 1178 
Q 4072 772 4226 539 
Q 4381 306 4653 306 
Q 4919 306 5073 539 
Q 5228 772 5228 1178 
Q 5228 1588 5073 1820 
Q 4919 2053 4653 2053 
z
M 4653 2450 
Q 5147 2450 5437 2106 
Q 5728 1763 5728 1178 
Q 5728 594 5436 251 
Q 5144 -91 4653 -91 
Q 4153 -91 3862 251 
Q 3572 594 3572 1178 
Q 3572 1766 3864 2108 
Q 4156 2450 4653 2450 
z
M 1428 4353 
Q 1159 4353 1004 4120 
Q 850 3888 850 3481 
Q 850 3069 1003 2837 
Q 1156 2606 1428 2606 
Q 1700 2606 1854 2837 
Q 2009 3069 2009 3481 
Q 2009 3884 1853 4118 
Q 1697 4353 1428 4353 
z
M 4250 4750 
L 4750 4750 
L 1831 -91 
L 1331 -91 
L 4250 4750 
z
M 1428 4750 
Q 1922 4750 2215 4408 
Q 2509 4066 2509 3481 
Q 2509 2891 2217 2550 
Q 1925 2209 1428 2209 
Q 931 2209 642 2551 
Q 353 2894 353 3481 
Q 353 4063 643 4406 
Q 934 4750 1428 4750 
z
" transform="scale(0.015625)"/>
      </defs>
      <use xlink:href="#DejaVuSans-Oblique-3b7" transform="translate(0 0.015625)"/>
      <use xlink:href="#DejaVuSans-Oblique-4f" transform="translate(63.378906 -16.390625) scale(0.7)"/>
      <use xlink:href="#DejaVuSans-Oblique-52" transform="translate(118.476562 -16.390625) scale(0.7)"/>
      <use xlink:href="#DejaVuSans-Oblique-43" transform="translate(167.114258 -16.390625) scale(0.7)"/>
      <use xlink:href="#DejaVuSans-20" transform="translate(218.725586 0.015625)"/>
      <use xlink:href="#DejaVuSans-5b" transform="translate(250.512695 0.015625)"/>
      <use xlink:href="#DejaVuSans-25" transform="translate(289.526367 0.015625)"/>
      <use xlink:href="#DejaVuSans-5d" transform="translate(384.545898 0.015625)"/>
     </g>
    </g>
   </g>
   <g id="LineCollection_1"/>
   <g id="patch_8">
    <path d="M 564.3 384.48 
L 572.616 384.48 
L 580.932 384.48 
L 580.932 51.84 
L 572.616 51.84 
L 564.3 51.84 
L 564.3 384.48 
z
" style="fill: none; stroke: #000000; stroke-width: 0.8; stroke-linejoin: miter; stroke-linecap: square"/>
   </g>
  </g>
 </g>
 <defs>
  <clipPath id="p73041c18c0">
   <rect x="90" y="51.84" width="446.4" height="332.64"/>
  </clipPath>
  <clipPath id="p36d0627507">
   <rect x="564.3" y="51.84" width="16.632" height="332.64"/>
  </clipPath>
 </defs>
</svg>
