<?xml version="1.0" encoding="utf-8" standalone="no"?>
<!DOCTYPE svg PUBLIC "-//W3C//DTD SVG 1.1//EN"
  "http://www.w3.org/Graphics/SVG/1.1/DTD/svg11.dtd">
<svg xmlns:xlink="http://www.w3.org/1999/xlink" width="720pt" height="432pt" viewBox="0 0 720 432" xmlns="http://www.w3.org/2000/svg" version="1.1">
 <metadata>
  <rdf:RDF xmlns:dc="http://purl.org/dc/elements/1.1/" xmlns:cc="http://creativecommons.org/ns#" xmlns:rdf="http://www.w3.org/1999/02/22-rdf-syntax-ns#">
   <cc:Work>
    <dc:type rdf:resource="http://purl.org/dc/dcmitype/StillImage"/>
    <dc:date>2024-06-14T15:13:04.546685</dc:date>
    <dc:format>image/svg+xml</dc:format>
    <dc:creator>
     <cc:Agent>
      <dc:title>Matplotlib v3.8.3, https://matplotlib.org/</dc:title>
     </cc:Agent>
    </dc:creator>
   </cc:Work>
  </rdf:RDF>
 </metadata>
 <defs>
  <style type="text/css">*{stroke-linejoin: round; stroke-linecap: butt}</style>
 </defs>
 <g id="figure_1">
  <g id="patch_1">
   <path d="M 0 432 
L 720 432 
L 720 0 
L 0 0 
z
" style="fill: #ffffff"/>
  </g>
  <g id="axes_1">
   <g id="patch_2">
    <path d="M 90 384.48 
L 648 384.48 
L 648 51.84 
L 90 51.84 
z
" style="fill: #ffffff"/>
   </g>
   <g id="QuadContourSet_1">
    <path d="M 95.636364 384.48 
L 101.272727 384.48 
L 106.909091 384.48 
L 108.674761 384.48 
L 108.66396 381.12 
L 108.653159 377.76 
L 108.642358 374.4 
L 108.631557 371.04 
L 108.621092 367.68 
L 108.628223 364.32 
L 108.635289 360.96 
L 108.642291 357.6 
L 108.649231 354.24 
L 108.656108 350.88 
L 108.662924 347.52 
L 108.66968 344.16 
L 108.677364 340.8 
L 108.691052 337.44 
L 108.829139 334.08 
L 109.007797 330.72 
L 109.186455 327.36 
L 109.365112 324 
L 109.44551 322.487967 
L 106.909091 324 
L 106.909091 327.36 
L 101.272727 330.72 
L 101.272727 334.08 
L 101.272727 337.44 
L 95.636364 340.8 
L 95.636364 344.16 
L 95.636364 347.52 
L 95.636364 350.88 
L 95.636364 354.24 
L 95.636364 357.6 
L 95.636364 360.96 
L 95.636364 364.32 
L 95.636364 367.68 
L 95.636364 371.04 
L 95.636364 374.4 
L 95.636364 377.76 
L 95.636364 381.12 
L 90 384.48 
z
" clip-path="url(#p1a1d333c45)" style="fill: #481668"/>
    <path d="M 112.545455 384.48 
L 118.181818 384.48 
L 123.818182 384.48 
L 129.454545 381.12 
L 135.090909 377.76 
L 140.727273 374.4 
L 146.363636 371.04 
L 152 367.68 
L 153.709425 366.660962 
L 152 367.402196 
L 151.405707 367.68 
L 146.363636 369.915169 
L 140.727273 369.151353 
L 140.590869 367.68 
L 140.323687 364.32 
L 140.196195 360.96 
L 140.097293 357.6 
L 140.001791 354.24 
L 139.909515 350.88 
L 139.820306 347.52 
L 139.772616 344.16 
L 139.763541 340.8 
L 139.754465 337.44 
L 139.745389 334.08 
L 139.736313 330.72 
L 139.727238 327.36 
L 139.718162 324 
L 139.712661 320.64 
L 139.721773 317.28 
L 139.730957 313.92 
L 139.740214 310.56 
L 139.749545 307.2 
L 139.758951 303.84 
L 139.768433 300.48 
L 139.777991 297.12 
L 139.787627 293.76 
L 139.799354 290.4 
L 140.100352 287.413726 
L 135.090909 290.4 
L 135.090909 293.76 
L 129.454545 297.12 
L 129.454545 300.48 
L 123.818182 303.84 
L 123.818182 307.2 
L 118.181818 310.56 
L 118.181818 313.92 
L 112.545455 317.28 
L 112.545455 320.64 
L 109.44551 322.487967 
L 109.365112 324 
L 109.186455 327.36 
L 109.007797 330.72 
L 108.829139 334.08 
L 108.691052 337.44 
L 108.677364 340.8 
L 108.66968 344.16 
L 108.662924 347.52 
L 108.656108 350.88 
L 108.649231 354.24 
L 108.642291 357.6 
L 108.635289 360.96 
L 108.628223 364.32 
L 108.621092 367.68 
L 108.631557 371.04 
L 108.642358 374.4 
L 108.653159 377.76 
L 108.66396 381.12 
L 108.674761 384.48 
z
" clip-path="url(#p1a1d333c45)" style="fill: #443983"/>
    <path d="M 140.727273 369.151353 
L 146.363636 369.915169 
L 151.405707 367.68 
L 152 367.402196 
L 153.709425 366.660962 
L 157.636364 364.32 
L 163.272727 360.96 
L 168.909091 357.6 
L 174.545455 354.24 
L 174.545455 350.88 
L 180.181818 347.52 
L 185.818182 344.16 
L 191.454545 340.8 
L 197.090909 337.44 
L 202.727273 334.08 
L 208.363636 330.72 
L 214 327.36 
L 219.636364 324 
L 225.272727 320.64 
L 230.909091 317.28 
L 236.545455 313.92 
L 238.556709 312.721033 
L 236.545455 313.5052 
L 235.50426 313.92 
L 230.909091 315.72493 
L 227.032742 317.28 
L 225.272727 317.976275 
L 219.636364 320.273344 
L 218.748396 320.64 
L 214 322.604746 
L 210.617865 324 
L 208.363636 324.93188 
L 202.743788 327.36 
L 202.727273 327.366911 
L 197.090909 330.048269 
L 195.730114 330.72 
L 191.454545 332.769776 
L 188.724191 334.08 
L 185.818182 335.5057 
L 181.76537 337.44 
L 180.181818 338.221315 
L 177.976303 337.44 
L 177.776976 334.08 
L 177.786016 330.72 
L 177.795143 327.36 
L 177.805213 324 
L 177.815273 320.64 
L 177.825325 317.28 
L 177.835368 313.92 
L 177.845403 310.56 
L 177.855428 307.2 
L 177.866397 303.84 
L 177.877847 300.48 
L 177.889298 297.12 
L 177.900749 293.76 
L 177.912199 290.4 
L 177.949036 287.04 
L 177.996027 283.68 
L 178.043018 280.32 
L 178.090009 276.96 
L 178.19705 273.6 
L 178.303665 270.24 
L 178.403778 266.88 
L 178.61008 263.52 
L 178.883419 260.16 
L 179.058607 257.469579 
L 174.545455 260.16 
L 168.909091 263.52 
L 163.272727 266.88 
L 163.272727 270.24 
L 157.636364 273.6 
L 152 276.96 
L 146.363636 280.32 
L 146.363636 283.68 
L 140.727273 287.04 
L 140.100352 287.413726 
L 139.799354 290.4 
L 139.787627 293.76 
L 139.777991 297.12 
L 139.768433 300.48 
L 139.758951 303.84 
L 139.749545 307.2 
L 139.740214 310.56 
L 139.730957 313.92 
L 139.721773 317.28 
L 139.712661 320.64 
L 139.718162 324 
L 139.727238 327.36 
L 139.736313 330.72 
L 139.745389 334.08 
L 139.754465 337.44 
L 139.763541 340.8 
L 139.772616 344.16 
L 139.820306 347.52 
L 139.909515 350.88 
L 140.001791 354.24 
L 140.097293 357.6 
L 140.196195 360.96 
L 140.323687 364.32 
L 140.590869 367.68 
z
" clip-path="url(#p1a1d333c45)" style="fill: #375a8c"/>
    <path d="M 180.181818 338.221315 
L 181.76537 337.44 
L 185.818182 335.5057 
L 188.724191 334.08 
L 191.454545 332.769776 
L 195.730114 330.72 
L 197.090909 330.048269 
L 202.727273 327.366911 
L 202.743788 327.36 
L 208.363636 324.93188 
L 210.617865 324 
L 214 322.604746 
L 218.748396 320.64 
L 219.636364 320.273344 
L 225.272727 317.976275 
L 227.032742 317.28 
L 230.909091 315.72493 
L 235.50426 313.92 
L 236.545455 313.5052 
L 238.556709 312.721033 
L 242.181818 310.56 
L 247.818182 307.2 
L 253.454545 303.84 
L 253.454545 300.48 
L 259.090909 297.12 
L 264.727273 293.76 
L 270.363636 290.4 
L 276 287.04 
L 281.636364 283.68 
L 287.272727 280.32 
L 292.909091 276.96 
L 298.545455 273.6 
L 304.181818 270.24 
L 309.818182 266.88 
L 315.454545 263.52 
L 321.090909 260.16 
L 323.277669 258.856409 
L 321.090909 259.701309 
L 319.903729 260.16 
L 315.454545 261.879033 
L 311.207413 263.52 
L 309.818182 264.056758 
L 304.181818 266.274625 
L 302.696312 266.88 
L 298.545455 268.548868 
L 294.421264 270.24 
L 292.909091 270.85186 
L 287.272727 273.18203 
L 286.261901 273.6 
L 281.636364 275.516577 
L 278.14238 276.96 
L 276 277.846883 
L 270.363636 280.173242 
L 270.032973 280.32 
L 264.727273 282.558171 
L 262.241917 283.68 
L 259.090909 285.035152 
L 254.715505 287.04 
L 253.454545 287.591739 
L 247.818182 290.226255 
L 247.467985 290.4 
L 242.181818 292.937235 
L 240.534282 293.76 
L 236.545455 295.733935 
L 233.557826 297.12 
L 230.909091 298.428597 
L 226.062464 297.12 
L 225.600592 293.76 
L 225.272727 291.220387 
L 225.168509 290.4 
L 225.041406 287.04 
L 225.034709 283.68 
L 225.028535 280.32 
L 225.022411 276.96 
L 225.016338 273.6 
L 225.010316 270.24 
L 225.004342 266.88 
L 224.998417 263.52 
L 225.008173 260.16 
L 225.024095 256.8 
L 225.040017 253.44 
L 225.055939 250.08 
L 225.07186 246.72 
L 225.087782 243.36 
L 225.233992 240 
L 225.272727 239.466441 
L 225.477919 236.64 
L 225.721845 233.28 
L 225.975655 229.92 
L 226.496928 226.56 
L 226.988384 223.2 
L 227.52879 219.84 
L 227.768037 218.352474 
L 225.272727 219.84 
L 225.272727 223.2 
L 219.636364 226.56 
L 214 229.92 
L 208.363636 233.28 
L 202.727273 236.64 
L 197.090909 240 
L 197.090909 243.36 
L 191.454545 246.72 
L 185.818182 250.08 
L 180.181818 253.44 
L 180.181818 256.8 
L 179.058607 257.469579 
L 178.883419 260.16 
L 178.61008 263.52 
L 178.403778 266.88 
L 178.303665 270.24 
L 178.19705 273.6 
L 178.090009 276.96 
L 178.043018 280.32 
L 177.996027 283.68 
L 177.949036 287.04 
L 177.912199 290.4 
L 177.900749 293.76 
L 177.889298 297.12 
L 177.877847 300.48 
L 177.866397 303.84 
L 177.855428 307.2 
L 177.845403 310.56 
L 177.835368 313.92 
L 177.825325 317.28 
L 177.815273 320.64 
L 177.805213 324 
L 177.795143 327.36 
L 177.786016 330.72 
L 177.776976 334.08 
L 177.976303 337.44 
z
" clip-path="url(#p1a1d333c45)" style="fill: #2b758e"/>
    <path d="M 230.909091 298.428597 
L 233.557826 297.12 
L 236.545455 295.733935 
L 240.534282 293.76 
L 242.181818 292.937235 
L 247.467985 290.4 
L 247.818182 290.226255 
L 253.454545 287.591739 
L 254.715505 287.04 
L 259.090909 285.035152 
L 262.241917 283.68 
L 264.727273 282.558171 
L 270.032973 280.32 
L 270.363636 280.173242 
L 276 277.846883 
L 278.14238 276.96 
L 281.636364 275.516577 
L 286.261901 273.6 
L 287.272727 273.18203 
L 292.909091 270.85186 
L 294.421264 270.24 
L 298.545455 268.548868 
L 302.696312 266.88 
L 304.181818 266.274625 
L 309.818182 264.056758 
L 311.207413 263.52 
L 315.454545 261.879033 
L 319.903729 260.16 
L 321.090909 259.701309 
L 323.277669 258.856409 
L 326.727273 256.8 
L 332.363636 253.44 
L 332.363636 250.08 
L 338 246.72 
L 343.636364 243.36 
L 349.272727 240 
L 354.909091 236.64 
L 360.545455 233.28 
L 366.181818 229.92 
L 371.818182 226.56 
L 377.454545 223.2 
L 383.090909 219.84 
L 388.727273 216.48 
L 394.363636 213.12 
L 400 209.76 
L 405.636364 206.4 
L 407.998629 204.991785 
L 405.636364 205.904495 
L 404.353903 206.4 
L 400 208.08222 
L 395.657587 209.76 
L 394.363636 210.259944 
L 388.727273 212.437669 
L 386.961272 213.12 
L 383.090909 214.615394 
L 378.264956 216.48 
L 377.454545 216.793119 
L 371.818182 219.069988 
L 369.963673 219.84 
L 366.181818 221.410268 
L 361.871403 223.2 
L 360.545455 223.750548 
L 354.909091 226.090829 
L 353.776518 226.56 
L 349.272727 228.428712 
L 345.667912 229.92 
L 343.636364 230.762171 
L 338 233.090428 
L 337.539881 233.28 
L 332.363636 235.412649 
L 329.38468 236.64 
L 326.727273 237.73487 
L 321.229479 240 
L 321.090909 240.057092 
L 315.454545 242.531803 
L 313.681048 243.36 
L 309.818182 245.140664 
L 306.448204 246.72 
L 304.181818 247.782139 
L 299.278656 250.08 
L 298.545455 250.423614 
L 292.909091 252.638466 
L 287.387695 250.08 
L 287.272727 249.332264 
L 286.872998 246.72 
L 286.378144 243.36 
L 286.178339 240 
L 286.175604 236.64 
L 286.175801 233.28 
L 286.179169 229.92 
L 286.182548 226.56 
L 286.185936 223.2 
L 286.189335 219.84 
L 286.192743 216.48 
L 286.196162 213.12 
L 286.199591 209.76 
L 286.20303 206.4 
L 286.206479 203.04 
L 286.209939 199.68 
L 286.221745 196.32 
L 286.365989 192.96 
L 286.767125 189.6 
L 287.272727 187.161687 
L 287.46621 186.24 
L 288.160567 182.88 
L 288.857288 179.52 
L 289.080786 178.442164 
L 287.272727 179.52 
L 281.636364 182.88 
L 276 186.24 
L 270.363636 189.6 
L 264.727273 192.96 
L 259.090909 196.32 
L 253.454545 199.68 
L 247.818182 203.04 
L 247.818182 206.4 
L 242.181818 209.76 
L 236.545455 213.12 
L 230.909091 216.48 
L 227.768037 218.352474 
L 227.52879 219.84 
L 226.988384 223.2 
L 226.496928 226.56 
L 225.975655 229.92 
L 225.721845 233.28 
L 225.477919 236.64 
L 225.272727 239.466441 
L 225.233992 240 
L 225.087782 243.36 
L 225.07186 246.72 
L 225.055939 250.08 
L 225.040017 253.44 
L 225.024095 256.8 
L 225.008173 260.16 
L 224.998417 263.52 
L 225.004342 266.88 
L 225.010316 270.24 
L 225.016338 273.6 
L 225.022411 276.96 
L 225.028535 280.32 
L 225.034709 283.68 
L 225.041406 287.04 
L 225.168509 290.4 
L 225.272727 291.220387 
L 225.600592 293.76 
L 226.062464 297.12 
z
" clip-path="url(#p1a1d333c45)" style="fill: #21918c"/>
    <path d="M 292.909091 252.638466 
L 298.545455 250.423614 
L 299.278656 250.08 
L 304.181818 247.782139 
L 306.448204 246.72 
L 309.818182 245.140664 
L 313.681048 243.36 
L 315.454545 242.531803 
L 321.090909 240.057092 
L 321.229479 240 
L 326.727273 237.73487 
L 329.38468 236.64 
L 332.363636 235.412649 
L 337.539881 233.28 
L 338 233.090428 
L 343.636364 230.762171 
L 345.667912 229.92 
L 349.272727 228.428712 
L 353.776518 226.56 
L 354.909091 226.090829 
L 360.545455 223.750548 
L 361.871403 223.2 
L 366.181818 221.410268 
L 369.963673 219.84 
L 371.818182 219.069988 
L 377.454545 216.793119 
L 378.264956 216.48 
L 383.090909 214.615394 
L 386.961272 213.12 
L 388.727273 212.437669 
L 394.363636 210.259944 
L 395.657587 209.76 
L 400 208.08222 
L 404.353903 206.4 
L 405.636364 205.904495 
L 407.998629 204.991785 
L 411.272727 203.04 
L 411.272727 199.68 
L 416.909091 196.32 
L 422.545455 192.96 
L 428.181818 189.6 
L 433.818182 186.24 
L 439.454545 182.88 
L 445.090909 179.52 
L 450.727273 176.16 
L 456.363636 172.8 
L 462 169.44 
L 467.636364 166.08 
L 473.272727 162.72 
L 478.909091 159.36 
L 484.545455 156 
L 490.181818 152.64 
L 490.181818 152.107681 
L 488.804076 152.64 
L 484.545455 154.285406 
L 480.107761 156 
L 478.909091 156.463131 
L 473.272727 158.640855 
L 471.411445 159.36 
L 467.636364 160.81858 
L 462.71513 162.72 
L 462 162.996305 
L 456.363636 165.182705 
L 454.10311 166.08 
L 450.727273 167.401034 
L 445.626812 169.44 
L 445.090909 169.651242 
L 439.454545 171.977658 
L 437.474006 172.8 
L 433.818182 174.317938 
L 429.381735 176.16 
L 428.181818 176.658219 
L 422.545455 178.998499 
L 421.289464 179.52 
L 416.909091 181.338779 
L 413.194445 182.88 
L 411.272727 183.677739 
L 405.636364 186.008215 
L 405.073788 186.24 
L 400 188.330436 
L 396.918587 189.6 
L 394.363636 190.652658 
L 388.763386 192.96 
L 388.727273 192.974879 
L 383.090909 195.2971 
L 380.635053 196.32 
L 377.454545 197.634786 
L 372.51043 199.68 
L 371.818182 199.966226 
L 370.308252 199.68 
L 369.612128 196.32 
L 369.246337 192.96 
L 369.247217 189.6 
L 369.248097 186.24 
L 369.248976 182.88 
L 369.250124 179.52 
L 369.254703 176.16 
L 369.259292 172.8 
L 369.263892 169.44 
L 369.268504 166.08 
L 369.276083 162.72 
L 369.283784 159.36 
L 369.291485 156 
L 369.299186 152.64 
L 369.306887 149.28 
L 369.376746 145.92 
L 369.602001 142.56 
L 369.904973 139.2 
L 370.310384 135.84 
L 370.91113 132.48 
L 371.475335 129.324381 
L 366.181818 132.48 
L 360.545455 135.84 
L 354.909091 139.2 
L 349.272727 142.56 
L 343.636364 145.92 
L 338 149.28 
L 332.363636 152.64 
L 326.727273 156 
L 321.090909 159.36 
L 315.454545 162.72 
L 309.818182 166.08 
L 304.181818 169.44 
L 298.545455 172.8 
L 292.909091 176.16 
L 289.080786 178.442164 
L 288.857288 179.52 
L 288.160567 182.88 
L 287.46621 186.24 
L 287.272727 187.161687 
L 286.767125 189.6 
L 286.365989 192.96 
L 286.221745 196.32 
L 286.209939 199.68 
L 286.206479 203.04 
L 286.20303 206.4 
L 286.199591 209.76 
L 286.196162 213.12 
L 286.192743 216.48 
L 286.189335 219.84 
L 286.185936 223.2 
L 286.182548 226.56 
L 286.179169 229.92 
L 286.175801 233.28 
L 286.175604 236.64 
L 286.178339 240 
L 286.378144 243.36 
L 286.872998 246.72 
L 287.272727 249.332264 
L 287.387695 250.08 
z
" clip-path="url(#p1a1d333c45)" style="fill: #25ab82"/>
    <path d="M 371.818182 199.966226 
L 372.51043 199.68 
L 377.454545 197.634786 
L 380.635053 196.32 
L 383.090909 195.2971 
L 388.727273 192.974879 
L 388.763386 192.96 
L 394.363636 190.652658 
L 396.918587 189.6 
L 400 188.330436 
L 405.073788 186.24 
L 405.636364 186.008215 
L 411.272727 183.677739 
L 413.194445 182.88 
L 416.909091 181.338779 
L 421.289464 179.52 
L 422.545455 178.998499 
L 428.181818 176.658219 
L 429.381735 176.16 
L 433.818182 174.317938 
L 437.474006 172.8 
L 439.454545 171.977658 
L 445.090909 169.651242 
L 445.626812 169.44 
L 450.727273 167.401034 
L 454.10311 166.08 
L 456.363636 165.182705 
L 462 162.996305 
L 462.71513 162.72 
L 467.636364 160.81858 
L 471.411445 159.36 
L 473.272727 158.640855 
L 478.909091 156.463131 
L 480.107761 156 
L 484.545455 154.285406 
L 488.804076 152.64 
L 490.181818 152.107681 
L 490.181818 149.28 
L 495.818182 145.92 
L 501.454545 142.56 
L 507.090909 139.2 
L 512.727273 135.84 
L 518.363636 132.48 
L 524 129.12 
L 529.636364 125.76 
L 535.272727 122.4 
L 540.909091 119.04 
L 546.545455 115.68 
L 552.181818 112.32 
L 557.818182 108.96 
L 563.454545 105.6 
L 569.090909 102.24 
L 569.090909 100.488592 
L 564.557934 102.24 
L 563.454545 102.666317 
L 557.818182 104.844042 
L 555.861619 105.6 
L 552.181818 107.021767 
L 547.165303 108.96 
L 546.545455 109.199491 
L 540.909091 111.377216 
L 538.468988 112.32 
L 535.272727 113.554941 
L 529.772673 115.68 
L 529.636364 115.732666 
L 524 117.973238 
L 521.37383 119.04 
L 518.363636 120.246235 
L 513.094746 122.4 
L 512.727273 122.54821 
L 507.090909 124.760756 
L 504.908655 125.76 
L 501.454545 127.178715 
L 496.892068 129.12 
L 495.818182 129.565889 
L 490.181818 129.303845 
L 489.892613 129.12 
L 489.61369 125.76 
L 489.286833 122.4 
L 488.996971 119.04 
L 488.884319 115.68 
L 488.771666 112.32 
L 488.66804 108.96 
L 488.601447 105.6 
L 488.53847 102.24 
L 488.533995 98.88 
L 488.663769 95.52 
L 488.793544 92.16 
L 488.923318 88.8 
L 489.053093 85.44 
L 489.183179 82.08 
L 489.378813 78.72 
L 489.640745 75.36 
L 490.159075 72 
L 490.181818 71.852574 
L 490.677406 68.64 
L 491.242546 65.28 
L 491.359457 64.577976 
L 490.181818 65.28 
L 484.545455 68.64 
L 478.909091 72 
L 473.272727 75.36 
L 467.636364 78.72 
L 462 78.72 
L 456.363636 82.08 
L 450.727273 85.44 
L 445.090909 88.8 
L 439.454545 92.16 
L 433.818182 95.52 
L 428.181818 98.88 
L 422.545455 98.88 
L 416.909091 102.24 
L 411.272727 105.6 
L 405.636364 108.96 
L 400 112.32 
L 394.363636 115.68 
L 388.727273 119.04 
L 383.090909 122.4 
L 377.454545 125.76 
L 371.818182 129.12 
L 371.475335 129.324381 
L 370.91113 132.48 
L 370.310384 135.84 
L 369.904973 139.2 
L 369.602001 142.56 
L 369.376746 145.92 
L 369.306887 149.28 
L 369.299186 152.64 
L 369.291485 156 
L 369.283784 159.36 
L 369.276083 162.72 
L 369.268504 166.08 
L 369.263892 169.44 
L 369.259292 172.8 
L 369.254703 176.16 
L 369.250124 179.52 
L 369.248976 182.88 
L 369.248097 186.24 
L 369.247217 189.6 
L 369.246337 192.96 
L 369.612128 196.32 
L 370.308252 199.68 
z
" clip-path="url(#p1a1d333c45)" style="fill: #4ec36b"/>
    <path d="M 490.181818 129.303845 
L 495.818182 129.565889 
L 496.892068 129.12 
L 501.454545 127.178715 
L 504.908655 125.76 
L 507.090909 124.760756 
L 512.727273 122.54821 
L 513.094746 122.4 
L 518.363636 120.246235 
L 521.37383 119.04 
L 524 117.973238 
L 529.636364 115.732666 
L 529.772673 115.68 
L 535.272727 113.554941 
L 538.468988 112.32 
L 540.909091 111.377216 
L 546.545455 109.199491 
L 547.165303 108.96 
L 552.181818 107.021767 
L 555.861619 105.6 
L 557.818182 104.844042 
L 563.454545 102.666317 
L 564.557934 102.24 
L 569.090909 100.488592 
L 569.090909 98.88 
L 574.727273 95.52 
L 580.363636 92.16 
L 586 88.8 
L 591.636364 85.44 
L 597.272727 82.08 
L 602.909091 78.72 
L 608.545455 75.36 
L 614.181818 72 
L 619.818182 68.64 
L 625.454545 65.28 
L 631.090909 61.92 
L 636.727273 58.56 
L 642.363636 55.2 
L 648 51.84 
L 642.363636 51.84 
L 636.727273 51.84 
L 631.090909 51.84 
L 625.454545 51.84 
L 619.818182 51.84 
L 614.181818 51.84 
L 608.545455 51.84 
L 602.909091 51.84 
L 597.272727 51.84 
L 591.636364 51.84 
L 586 51.84 
L 580.363636 51.84 
L 574.727273 51.84 
L 569.090909 51.84 
L 563.454545 51.84 
L 557.818182 51.84 
L 552.181818 51.84 
L 546.545455 51.84 
L 540.909091 51.84 
L 535.272727 51.84 
L 529.636364 51.84 
L 524 51.84 
L 518.363636 51.84 
L 512.727273 55.2 
L 507.090909 58.56 
L 501.454545 58.56 
L 495.818182 61.92 
L 491.359457 64.577976 
L 491.242546 65.28 
L 490.677406 68.64 
L 490.181818 71.852574 
L 490.159075 72 
L 489.640745 75.36 
L 489.378813 78.72 
L 489.183179 82.08 
L 489.053093 85.44 
L 488.923318 88.8 
L 488.793544 92.16 
L 488.663769 95.52 
L 488.533995 98.88 
L 488.53847 102.24 
L 488.601447 105.6 
L 488.66804 108.96 
L 488.771666 112.32 
L 488.884319 115.68 
L 488.996971 119.04 
L 489.286833 122.4 
L 489.61369 125.76 
L 489.892613 129.12 
z
" clip-path="url(#p1a1d333c45)" style="fill: #90d743"/>
    <path clip-path="url(#p1a1d333c45)" style="fill: #dae319"/>
   </g>
   <g id="matplotlib.axis_1">
    <g id="xtick_1">
     <g id="line2d_1">
      <path d="M 159.864765 384.48 
L 159.864765 51.84 
" clip-path="url(#p1a1d333c45)" style="fill: none; stroke: #b0b0b0; stroke-width: 0.8; stroke-linecap: square"/>
     </g>
     <g id="line2d_2">
      <defs>
       <path id="mf67681948d" d="M 0 0 
L 0 3.5 
" style="stroke: #000000; stroke-width: 0.8"/>
      </defs>
      <g>
       <use xlink:href="#mf67681948d" x="159.864765" y="384.48" style="stroke: #000000; stroke-width: 0.8"/>
      </g>
     </g>
     <g id="text_1">
      <!-- 1000 -->
      <g transform="translate(147.139765 399.078438) scale(0.1 -0.1)">
       <defs>
        <path id="DejaVuSans-31" d="M 794 531 
L 1825 531 
L 1825 4091 
L 703 3866 
L 703 4441 
L 1819 4666 
L 2450 4666 
L 2450 531 
L 3481 531 
L 3481 0 
L 794 0 
L 794 531 
z
" transform="scale(0.015625)"/>
        <path id="DejaVuSans-30" d="M 2034 4250 
Q 1547 4250 1301 3770 
Q 1056 3291 1056 2328 
Q 1056 1369 1301 889 
Q 1547 409 2034 409 
Q 2525 409 2770 889 
Q 3016 1369 3016 2328 
Q 3016 3291 2770 3770 
Q 2525 4250 2034 4250 
z
M 2034 4750 
Q 2819 4750 3233 4129 
Q 3647 3509 3647 2328 
Q 3647 1150 3233 529 
Q 2819 -91 2034 -91 
Q 1250 -91 836 529 
Q 422 1150 422 2328 
Q 422 3509 836 4129 
Q 1250 4750 2034 4750 
z
" transform="scale(0.015625)"/>
       </defs>
       <use xlink:href="#DejaVuSans-31"/>
       <use xlink:href="#DejaVuSans-30" x="63.623047"/>
       <use xlink:href="#DejaVuSans-30" x="127.246094"/>
       <use xlink:href="#DejaVuSans-30" x="190.869141"/>
      </g>
     </g>
    </g>
    <g id="xtick_2">
     <g id="line2d_3">
      <path d="M 237.201796 384.48 
L 237.201796 51.84 
" clip-path="url(#p1a1d333c45)" style="fill: none; stroke: #b0b0b0; stroke-width: 0.8; stroke-linecap: square"/>
     </g>
     <g id="line2d_4">
      <g>
       <use xlink:href="#mf67681948d" x="237.201796" y="384.48" style="stroke: #000000; stroke-width: 0.8"/>
      </g>
     </g>
     <g id="text_2">
      <!-- 2000 -->
      <g transform="translate(224.476796 399.078438) scale(0.1 -0.1)">
       <defs>
        <path id="DejaVuSans-32" d="M 1228 531 
L 3431 531 
L 3431 0 
L 469 0 
L 469 531 
Q 828 903 1448 1529 
Q 2069 2156 2228 2338 
Q 2531 2678 2651 2914 
Q 2772 3150 2772 3378 
Q 2772 3750 2511 3984 
Q 2250 4219 1831 4219 
Q 1534 4219 1204 4116 
Q 875 4013 500 3803 
L 500 4441 
Q 881 4594 1212 4672 
Q 1544 4750 1819 4750 
Q 2544 4750 2975 4387 
Q 3406 4025 3406 3419 
Q 3406 3131 3298 2873 
Q 3191 2616 2906 2266 
Q 2828 2175 2409 1742 
Q 1991 1309 1228 531 
z
" transform="scale(0.015625)"/>
       </defs>
       <use xlink:href="#DejaVuSans-32"/>
       <use xlink:href="#DejaVuSans-30" x="63.623047"/>
       <use xlink:href="#DejaVuSans-30" x="127.246094"/>
       <use xlink:href="#DejaVuSans-30" x="190.869141"/>
      </g>
     </g>
    </g>
    <g id="xtick_3">
     <g id="line2d_5">
      <path d="M 314.538828 384.48 
L 314.538828 51.84 
" clip-path="url(#p1a1d333c45)" style="fill: none; stroke: #b0b0b0; stroke-width: 0.8; stroke-linecap: square"/>
     </g>
     <g id="line2d_6">
      <g>
       <use xlink:href="#mf67681948d" x="314.538828" y="384.48" style="stroke: #000000; stroke-width: 0.8"/>
      </g>
     </g>
     <g id="text_3">
      <!-- 3000 -->
      <g transform="translate(301.813828 399.078438) scale(0.1 -0.1)">
       <defs>
        <path id="DejaVuSans-33" d="M 2597 2516 
Q 3050 2419 3304 2112 
Q 3559 1806 3559 1356 
Q 3559 666 3084 287 
Q 2609 -91 1734 -91 
Q 1441 -91 1130 -33 
Q 819 25 488 141 
L 488 750 
Q 750 597 1062 519 
Q 1375 441 1716 441 
Q 2309 441 2620 675 
Q 2931 909 2931 1356 
Q 2931 1769 2642 2001 
Q 2353 2234 1838 2234 
L 1294 2234 
L 1294 2753 
L 1863 2753 
Q 2328 2753 2575 2939 
Q 2822 3125 2822 3475 
Q 2822 3834 2567 4026 
Q 2313 4219 1838 4219 
Q 1578 4219 1281 4162 
Q 984 4106 628 3988 
L 628 4550 
Q 988 4650 1302 4700 
Q 1616 4750 1894 4750 
Q 2613 4750 3031 4423 
Q 3450 4097 3450 3541 
Q 3450 3153 3228 2886 
Q 3006 2619 2597 2516 
z
" transform="scale(0.015625)"/>
       </defs>
       <use xlink:href="#DejaVuSans-33"/>
       <use xlink:href="#DejaVuSans-30" x="63.623047"/>
       <use xlink:href="#DejaVuSans-30" x="127.246094"/>
       <use xlink:href="#DejaVuSans-30" x="190.869141"/>
      </g>
     </g>
    </g>
    <g id="xtick_4">
     <g id="line2d_7">
      <path d="M 391.875859 384.48 
L 391.875859 51.84 
" clip-path="url(#p1a1d333c45)" style="fill: none; stroke: #b0b0b0; stroke-width: 0.8; stroke-linecap: square"/>
     </g>
     <g id="line2d_8">
      <g>
       <use xlink:href="#mf67681948d" x="391.875859" y="384.48" style="stroke: #000000; stroke-width: 0.8"/>
      </g>
     </g>
     <g id="text_4">
      <!-- 4000 -->
      <g transform="translate(379.150859 399.078438) scale(0.1 -0.1)">
       <defs>
        <path id="DejaVuSans-34" d="M 2419 4116 
L 825 1625 
L 2419 1625 
L 2419 4116 
z
M 2253 4666 
L 3047 4666 
L 3047 1625 
L 3713 1625 
L 3713 1100 
L 3047 1100 
L 3047 0 
L 2419 0 
L 2419 1100 
L 313 1100 
L 313 1709 
L 2253 4666 
z
" transform="scale(0.015625)"/>
       </defs>
       <use xlink:href="#DejaVuSans-34"/>
       <use xlink:href="#DejaVuSans-30" x="63.623047"/>
       <use xlink:href="#DejaVuSans-30" x="127.246094"/>
       <use xlink:href="#DejaVuSans-30" x="190.869141"/>
      </g>
     </g>
    </g>
    <g id="xtick_5">
     <g id="line2d_9">
      <path d="M 469.21289 384.48 
L 469.21289 51.84 
" clip-path="url(#p1a1d333c45)" style="fill: none; stroke: #b0b0b0; stroke-width: 0.8; stroke-linecap: square"/>
     </g>
     <g id="line2d_10">
      <g>
       <use xlink:href="#mf67681948d" x="469.21289" y="384.48" style="stroke: #000000; stroke-width: 0.8"/>
      </g>
     </g>
     <g id="text_5">
      <!-- 5000 -->
      <g transform="translate(456.48789 399.078438) scale(0.1 -0.1)">
       <defs>
        <path id="DejaVuSans-35" d="M 691 4666 
L 3169 4666 
L 3169 4134 
L 1269 4134 
L 1269 2991 
Q 1406 3038 1543 3061 
Q 1681 3084 1819 3084 
Q 2600 3084 3056 2656 
Q 3513 2228 3513 1497 
Q 3513 744 3044 326 
Q 2575 -91 1722 -91 
Q 1428 -91 1123 -41 
Q 819 9 494 109 
L 494 744 
Q 775 591 1075 516 
Q 1375 441 1709 441 
Q 2250 441 2565 725 
Q 2881 1009 2881 1497 
Q 2881 1984 2565 2268 
Q 2250 2553 1709 2553 
Q 1456 2553 1204 2497 
Q 953 2441 691 2322 
L 691 4666 
z
" transform="scale(0.015625)"/>
       </defs>
       <use xlink:href="#DejaVuSans-35"/>
       <use xlink:href="#DejaVuSans-30" x="63.623047"/>
       <use xlink:href="#DejaVuSans-30" x="127.246094"/>
       <use xlink:href="#DejaVuSans-30" x="190.869141"/>
      </g>
     </g>
    </g>
    <g id="xtick_6">
     <g id="line2d_11">
      <path d="M 546.549921 384.48 
L 546.549921 51.84 
" clip-path="url(#p1a1d333c45)" style="fill: none; stroke: #b0b0b0; stroke-width: 0.8; stroke-linecap: square"/>
     </g>
     <g id="line2d_12">
      <g>
       <use xlink:href="#mf67681948d" x="546.549921" y="384.48" style="stroke: #000000; stroke-width: 0.8"/>
      </g>
     </g>
     <g id="text_6">
      <!-- 6000 -->
      <g transform="translate(533.824921 399.078438) scale(0.1 -0.1)">
       <defs>
        <path id="DejaVuSans-36" d="M 2113 2584 
Q 1688 2584 1439 2293 
Q 1191 2003 1191 1497 
Q 1191 994 1439 701 
Q 1688 409 2113 409 
Q 2538 409 2786 701 
Q 3034 994 3034 1497 
Q 3034 2003 2786 2293 
Q 2538 2584 2113 2584 
z
M 3366 4563 
L 3366 3988 
Q 3128 4100 2886 4159 
Q 2644 4219 2406 4219 
Q 1781 4219 1451 3797 
Q 1122 3375 1075 2522 
Q 1259 2794 1537 2939 
Q 1816 3084 2150 3084 
Q 2853 3084 3261 2657 
Q 3669 2231 3669 1497 
Q 3669 778 3244 343 
Q 2819 -91 2113 -91 
Q 1303 -91 875 529 
Q 447 1150 447 2328 
Q 447 3434 972 4092 
Q 1497 4750 2381 4750 
Q 2619 4750 2861 4703 
Q 3103 4656 3366 4563 
z
" transform="scale(0.015625)"/>
       </defs>
       <use xlink:href="#DejaVuSans-36"/>
       <use xlink:href="#DejaVuSans-30" x="63.623047"/>
       <use xlink:href="#DejaVuSans-30" x="127.246094"/>
       <use xlink:href="#DejaVuSans-30" x="190.869141"/>
      </g>
     </g>
    </g>
    <g id="xtick_7">
     <g id="line2d_13">
      <path d="M 623.886953 384.48 
L 623.886953 51.84 
" clip-path="url(#p1a1d333c45)" style="fill: none; stroke: #b0b0b0; stroke-width: 0.8; stroke-linecap: square"/>
     </g>
     <g id="line2d_14">
      <g>
       <use xlink:href="#mf67681948d" x="623.886953" y="384.48" style="stroke: #000000; stroke-width: 0.8"/>
      </g>
     </g>
     <g id="text_7">
      <!-- 7000 -->
      <g transform="translate(611.161953 399.078438) scale(0.1 -0.1)">
       <defs>
        <path id="DejaVuSans-37" d="M 525 4666 
L 3525 4666 
L 3525 4397 
L 1831 0 
L 1172 0 
L 2766 4134 
L 525 4134 
L 525 4666 
z
" transform="scale(0.015625)"/>
       </defs>
       <use xlink:href="#DejaVuSans-37"/>
       <use xlink:href="#DejaVuSans-30" x="63.623047"/>
       <use xlink:href="#DejaVuSans-30" x="127.246094"/>
       <use xlink:href="#DejaVuSans-30" x="190.869141"/>
      </g>
     </g>
    </g>
    <g id="text_8">
     <!-- $\dot{W}_{exp}$ [W] -->
     <g transform="translate(324.9 426.358125) scale(0.2 -0.2)">
      <defs>
       <path id="DejaVuSans-307" d="M -1894 4863 
L -1319 4863 
L -1319 4134 
L -1894 4134 
L -1894 4863 
z
M -1600 3584 
L -1600 3584 
z
" transform="scale(0.015625)"/>
       <path id="DejaVuSans-Oblique-57" d="M 616 4666 
L 1228 4666 
L 1453 697 
L 3213 4666 
L 3916 4666 
L 4147 697 
L 5888 4666 
L 6528 4666 
L 4453 0 
L 3659 0 
L 3444 3891 
L 1697 0 
L 903 0 
L 616 4666 
z
" transform="scale(0.015625)"/>
       <path id="DejaVuSans-Oblique-65" d="M 3078 2063 
Q 3088 2113 3092 2166 
Q 3097 2219 3097 2272 
Q 3097 2653 2873 2875 
Q 2650 3097 2266 3097 
Q 1838 3097 1509 2826 
Q 1181 2556 1013 2059 
L 3078 2063 
z
M 3578 1613 
L 903 1613 
Q 884 1494 878 1425 
Q 872 1356 872 1306 
Q 872 872 1139 634 
Q 1406 397 1894 397 
Q 2269 397 2603 481 
Q 2938 566 3225 728 
L 3116 159 
Q 2806 34 2476 -28 
Q 2147 -91 1806 -91 
Q 1078 -91 686 257 
Q 294 606 294 1247 
Q 294 1794 489 2264 
Q 684 2734 1063 3103 
Q 1306 3334 1642 3459 
Q 1978 3584 2356 3584 
Q 2950 3584 3301 3228 
Q 3653 2872 3653 2272 
Q 3653 2128 3634 1964 
Q 3616 1800 3578 1613 
z
" transform="scale(0.015625)"/>
       <path id="DejaVuSans-Oblique-78" d="M 3841 3500 
L 2234 1784 
L 3219 0 
L 2559 0 
L 1819 1388 
L 531 0 
L -166 0 
L 1556 1844 
L 641 3500 
L 1300 3500 
L 1972 2234 
L 3144 3500 
L 3841 3500 
z
" transform="scale(0.015625)"/>
       <path id="DejaVuSans-Oblique-70" d="M 3175 2156 
Q 3175 2616 2975 2859 
Q 2775 3103 2400 3103 
Q 2144 3103 1911 2972 
Q 1678 2841 1497 2591 
Q 1319 2344 1212 1994 
Q 1106 1644 1106 1300 
Q 1106 863 1306 627 
Q 1506 391 1875 391 
Q 2147 391 2380 519 
Q 2613 647 2778 891 
Q 2956 1147 3065 1494 
Q 3175 1841 3175 2156 
z
M 1394 2969 
Q 1625 3272 1939 3428 
Q 2253 3584 2638 3584 
Q 3175 3584 3472 3232 
Q 3769 2881 3769 2247 
Q 3769 1728 3584 1258 
Q 3400 788 3053 416 
Q 2822 169 2531 39 
Q 2241 -91 1919 -91 
Q 1547 -91 1294 64 
Q 1041 219 916 525 
L 556 -1331 
L -19 -1331 
L 922 3500 
L 1497 3500 
L 1394 2969 
z
" transform="scale(0.015625)"/>
       <path id="DejaVuSans-20" transform="scale(0.015625)"/>
       <path id="DejaVuSans-5b" d="M 550 4863 
L 1875 4863 
L 1875 4416 
L 1125 4416 
L 1125 -397 
L 1875 -397 
L 1875 -844 
L 550 -844 
L 550 4863 
z
" transform="scale(0.015625)"/>
       <path id="DejaVuSans-57" d="M 213 4666 
L 850 4666 
L 1831 722 
L 2809 4666 
L 3519 4666 
L 4500 722 
L 5478 4666 
L 6119 4666 
L 4947 0 
L 4153 0 
L 3169 4050 
L 2175 0 
L 1381 0 
L 213 4666 
z
" transform="scale(0.015625)"/>
       <path id="DejaVuSans-5d" d="M 1947 4863 
L 1947 -844 
L 622 -844 
L 622 -397 
L 1369 -397 
L 1369 4416 
L 622 4416 
L 622 4863 
L 1947 4863 
z
" transform="scale(0.015625)"/>
      </defs>
      <use xlink:href="#DejaVuSans-307" transform="translate(87.312988 30.015625)"/>
      <use xlink:href="#DejaVuSans-Oblique-57" transform="translate(0 0.609375)"/>
      <use xlink:href="#DejaVuSans-Oblique-65" transform="translate(99.833984 -15.796875) scale(0.7)"/>
      <use xlink:href="#DejaVuSans-Oblique-78" transform="translate(142.900391 -15.796875) scale(0.7)"/>
      <use xlink:href="#DejaVuSans-Oblique-70" transform="translate(184.326172 -15.796875) scale(0.7)"/>
      <use xlink:href="#DejaVuSans-20" transform="translate(231.494141 0.609375)"/>
      <use xlink:href="#DejaVuSans-5b" transform="translate(263.28125 0.609375)"/>
      <use xlink:href="#DejaVuSans-57" transform="translate(302.294922 0.609375)"/>
      <use xlink:href="#DejaVuSans-5d" transform="translate(401.171875 0.609375)"/>
     </g>
    </g>
   </g>
   <g id="matplotlib.axis_2">
    <g id="ytick_1">
     <g id="line2d_15">
      <path d="M 90 384.48 
L 648 384.48 
" clip-path="url(#p1a1d333c45)" style="fill: none; stroke: #b0b0b0; stroke-width: 0.8; stroke-linecap: square"/>
     </g>
     <g id="line2d_16">
      <defs>
       <path id="me6cc6bc970" d="M 0 0 
L -3.5 0 
" style="stroke: #000000; stroke-width: 0.8"/>
      </defs>
      <g>
       <use xlink:href="#me6cc6bc970" x="90" y="384.48" style="stroke: #000000; stroke-width: 0.8"/>
      </g>
     </g>
     <g id="text_9">
      <!-- 65 -->
      <g transform="translate(70.275 388.279219) scale(0.1 -0.1)">
       <use xlink:href="#DejaVuSans-36"/>
       <use xlink:href="#DejaVuSans-35" x="63.623047"/>
      </g>
     </g>
    </g>
    <g id="ytick_2">
     <g id="line2d_17">
      <path d="M 90 336.96 
L 648 336.96 
" clip-path="url(#p1a1d333c45)" style="fill: none; stroke: #b0b0b0; stroke-width: 0.8; stroke-linecap: square"/>
     </g>
     <g id="line2d_18">
      <g>
       <use xlink:href="#me6cc6bc970" x="90" y="336.96" style="stroke: #000000; stroke-width: 0.8"/>
      </g>
     </g>
     <g id="text_10">
      <!-- 70 -->
      <g transform="translate(70.275 340.759219) scale(0.1 -0.1)">
       <use xlink:href="#DejaVuSans-37"/>
       <use xlink:href="#DejaVuSans-30" x="63.623047"/>
      </g>
     </g>
    </g>
    <g id="ytick_3">
     <g id="line2d_19">
      <path d="M 90 289.44 
L 648 289.44 
" clip-path="url(#p1a1d333c45)" style="fill: none; stroke: #b0b0b0; stroke-width: 0.8; stroke-linecap: square"/>
     </g>
     <g id="line2d_20">
      <g>
       <use xlink:href="#me6cc6bc970" x="90" y="289.44" style="stroke: #000000; stroke-width: 0.8"/>
      </g>
     </g>
     <g id="text_11">
      <!-- 75 -->
      <g transform="translate(70.275 293.239219) scale(0.1 -0.1)">
       <use xlink:href="#DejaVuSans-37"/>
       <use xlink:href="#DejaVuSans-35" x="63.623047"/>
      </g>
     </g>
    </g>
    <g id="ytick_4">
     <g id="line2d_21">
      <path d="M 90 241.92 
L 648 241.92 
" clip-path="url(#p1a1d333c45)" style="fill: none; stroke: #b0b0b0; stroke-width: 0.8; stroke-linecap: square"/>
     </g>
     <g id="line2d_22">
      <g>
       <use xlink:href="#me6cc6bc970" x="90" y="241.92" style="stroke: #000000; stroke-width: 0.8"/>
      </g>
     </g>
     <g id="text_12">
      <!-- 80 -->
      <g transform="translate(70.275 245.719219) scale(0.1 -0.1)">
       <defs>
        <path id="DejaVuSans-38" d="M 2034 2216 
Q 1584 2216 1326 1975 
Q 1069 1734 1069 1313 
Q 1069 891 1326 650 
Q 1584 409 2034 409 
Q 2484 409 2743 651 
Q 3003 894 3003 1313 
Q 3003 1734 2745 1975 
Q 2488 2216 2034 2216 
z
M 1403 2484 
Q 997 2584 770 2862 
Q 544 3141 544 3541 
Q 544 4100 942 4425 
Q 1341 4750 2034 4750 
Q 2731 4750 3128 4425 
Q 3525 4100 3525 3541 
Q 3525 3141 3298 2862 
Q 3072 2584 2669 2484 
Q 3125 2378 3379 2068 
Q 3634 1759 3634 1313 
Q 3634 634 3220 271 
Q 2806 -91 2034 -91 
Q 1263 -91 848 271 
Q 434 634 434 1313 
Q 434 1759 690 2068 
Q 947 2378 1403 2484 
z
M 1172 3481 
Q 1172 3119 1398 2916 
Q 1625 2713 2034 2713 
Q 2441 2713 2670 2916 
Q 2900 3119 2900 3481 
Q 2900 3844 2670 4047 
Q 2441 4250 2034 4250 
Q 1625 4250 1398 4047 
Q 1172 3844 1172 3481 
z
" transform="scale(0.015625)"/>
       </defs>
       <use xlink:href="#DejaVuSans-38"/>
       <use xlink:href="#DejaVuSans-30" x="63.623047"/>
      </g>
     </g>
    </g>
    <g id="ytick_5">
     <g id="line2d_23">
      <path d="M 90 194.4 
L 648 194.4 
" clip-path="url(#p1a1d333c45)" style="fill: none; stroke: #b0b0b0; stroke-width: 0.8; stroke-linecap: square"/>
     </g>
     <g id="line2d_24">
      <g>
       <use xlink:href="#me6cc6bc970" x="90" y="194.4" style="stroke: #000000; stroke-width: 0.8"/>
      </g>
     </g>
     <g id="text_13">
      <!-- 85 -->
      <g transform="translate(70.275 198.199219) scale(0.1 -0.1)">
       <use xlink:href="#DejaVuSans-38"/>
       <use xlink:href="#DejaVuSans-35" x="63.623047"/>
      </g>
     </g>
    </g>
    <g id="ytick_6">
     <g id="line2d_25">
      <path d="M 90 146.88 
L 648 146.88 
" clip-path="url(#p1a1d333c45)" style="fill: none; stroke: #b0b0b0; stroke-width: 0.8; stroke-linecap: square"/>
     </g>
     <g id="line2d_26">
      <g>
       <use xlink:href="#me6cc6bc970" x="90" y="146.88" style="stroke: #000000; stroke-width: 0.8"/>
      </g>
     </g>
     <g id="text_14">
      <!-- 90 -->
      <g transform="translate(70.275 150.679219) scale(0.1 -0.1)">
       <defs>
        <path id="DejaVuSans-39" d="M 703 97 
L 703 672 
Q 941 559 1184 500 
Q 1428 441 1663 441 
Q 2288 441 2617 861 
Q 2947 1281 2994 2138 
Q 2813 1869 2534 1725 
Q 2256 1581 1919 1581 
Q 1219 1581 811 2004 
Q 403 2428 403 3163 
Q 403 3881 828 4315 
Q 1253 4750 1959 4750 
Q 2769 4750 3195 4129 
Q 3622 3509 3622 2328 
Q 3622 1225 3098 567 
Q 2575 -91 1691 -91 
Q 1453 -91 1209 -44 
Q 966 3 703 97 
z
M 1959 2075 
Q 2384 2075 2632 2365 
Q 2881 2656 2881 3163 
Q 2881 3666 2632 3958 
Q 2384 4250 1959 4250 
Q 1534 4250 1286 3958 
Q 1038 3666 1038 3163 
Q 1038 2656 1286 2365 
Q 1534 2075 1959 2075 
z
" transform="scale(0.015625)"/>
       </defs>
       <use xlink:href="#DejaVuSans-39"/>
       <use xlink:href="#DejaVuSans-30" x="63.623047"/>
      </g>
     </g>
    </g>
    <g id="ytick_7">
     <g id="line2d_27">
      <path d="M 90 99.36 
L 648 99.36 
" clip-path="url(#p1a1d333c45)" style="fill: none; stroke: #b0b0b0; stroke-width: 0.8; stroke-linecap: square"/>
     </g>
     <g id="line2d_28">
      <g>
       <use xlink:href="#me6cc6bc970" x="90" y="99.36" style="stroke: #000000; stroke-width: 0.8"/>
      </g>
     </g>
     <g id="text_15">
      <!-- 95 -->
      <g transform="translate(70.275 103.159219) scale(0.1 -0.1)">
       <use xlink:href="#DejaVuSans-39"/>
       <use xlink:href="#DejaVuSans-35" x="63.623047"/>
      </g>
     </g>
    </g>
    <g id="ytick_8">
     <g id="line2d_29">
      <path d="M 90 51.84 
L 648 51.84 
" clip-path="url(#p1a1d333c45)" style="fill: none; stroke: #b0b0b0; stroke-width: 0.8; stroke-linecap: square"/>
     </g>
     <g id="line2d_30">
      <g>
       <use xlink:href="#me6cc6bc970" x="90" y="51.84" style="stroke: #000000; stroke-width: 0.8"/>
      </g>
     </g>
     <g id="text_16">
      <!-- 100 -->
      <g transform="translate(63.9125 55.639219) scale(0.1 -0.1)">
       <use xlink:href="#DejaVuSans-31"/>
       <use xlink:href="#DejaVuSans-30" x="63.623047"/>
       <use xlink:href="#DejaVuSans-30" x="127.246094"/>
      </g>
     </g>
    </g>
    <g id="text_17">
     <!-- $T_{sto,HT}$ [°C] -->
     <g transform="translate(54.9125 271.36) rotate(-90) scale(0.2 -0.2)">
      <defs>
       <path id="DejaVuSans-Oblique-54" d="M 378 4666 
L 4325 4666 
L 4225 4134 
L 2559 4134 
L 1759 0 
L 1125 0 
L 1925 4134 
L 275 4134 
L 378 4666 
z
" transform="scale(0.015625)"/>
       <path id="DejaVuSans-Oblique-73" d="M 3200 3397 
L 3091 2853 
Q 2863 2978 2609 3040 
Q 2356 3103 2088 3103 
Q 1634 3103 1373 2948 
Q 1113 2794 1113 2528 
Q 1113 2219 1719 2053 
Q 1766 2041 1788 2034 
L 1972 1978 
Q 2547 1819 2739 1644 
Q 2931 1469 2931 1166 
Q 2931 609 2489 259 
Q 2047 -91 1331 -91 
Q 1053 -91 747 -37 
Q 441 16 72 128 
L 184 722 
Q 500 559 806 475 
Q 1113 391 1394 391 
Q 1816 391 2080 572 
Q 2344 753 2344 1031 
Q 2344 1331 1650 1516 
L 1591 1531 
L 1394 1581 
Q 956 1697 753 1886 
Q 550 2075 550 2369 
Q 550 2928 970 3256 
Q 1391 3584 2113 3584 
Q 2397 3584 2667 3537 
Q 2938 3491 3200 3397 
z
" transform="scale(0.015625)"/>
       <path id="DejaVuSans-Oblique-74" d="M 2706 3500 
L 2619 3053 
L 1472 3053 
L 1100 1153 
Q 1081 1047 1072 975 
Q 1063 903 1063 863 
Q 1063 663 1183 572 
Q 1303 481 1569 481 
L 2150 481 
L 2053 0 
L 1503 0 
Q 991 0 739 200 
Q 488 400 488 806 
Q 488 878 497 964 
Q 506 1050 525 1153 
L 897 3053 
L 409 3053 
L 500 3500 
L 978 3500 
L 1172 4494 
L 1747 4494 
L 1556 3500 
L 2706 3500 
z
" transform="scale(0.015625)"/>
       <path id="DejaVuSans-Oblique-6f" d="M 1625 -91 
Q 1009 -91 651 289 
Q 294 669 294 1325 
Q 294 1706 417 2101 
Q 541 2497 738 2766 
Q 1047 3184 1428 3384 
Q 1809 3584 2291 3584 
Q 2888 3584 3255 3212 
Q 3622 2841 3622 2241 
Q 3622 1825 3500 1412 
Q 3378 1000 3181 728 
Q 2875 309 2494 109 
Q 2113 -91 1625 -91 
z
M 891 1344 
Q 891 869 1089 633 
Q 1288 397 1691 397 
Q 2269 397 2648 901 
Q 3028 1406 3028 2181 
Q 3028 2634 2825 2865 
Q 2622 3097 2228 3097 
Q 1903 3097 1650 2945 
Q 1397 2794 1197 2484 
Q 1050 2253 970 1956 
Q 891 1659 891 1344 
z
" transform="scale(0.015625)"/>
       <path id="DejaVuSans-2c" d="M 750 794 
L 1409 794 
L 1409 256 
L 897 -744 
L 494 -744 
L 750 256 
L 750 794 
z
" transform="scale(0.015625)"/>
       <path id="DejaVuSans-Oblique-48" d="M 1081 4666 
L 1716 4666 
L 1344 2753 
L 3634 2753 
L 4006 4666 
L 4641 4666 
L 3731 0 
L 3097 0 
L 3531 2222 
L 1241 2222 
L 806 0 
L 172 0 
L 1081 4666 
z
" transform="scale(0.015625)"/>
       <path id="DejaVuSans-b0" d="M 1600 4347 
Q 1350 4347 1178 4173 
Q 1006 4000 1006 3750 
Q 1006 3503 1178 3333 
Q 1350 3163 1600 3163 
Q 1850 3163 2022 3333 
Q 2194 3503 2194 3750 
Q 2194 3997 2020 4172 
Q 1847 4347 1600 4347 
z
M 1600 4750 
Q 1800 4750 1984 4673 
Q 2169 4597 2303 4453 
Q 2447 4313 2519 4134 
Q 2591 3956 2591 3750 
Q 2591 3338 2302 3052 
Q 2013 2766 1594 2766 
Q 1172 2766 890 3047 
Q 609 3328 609 3750 
Q 609 4169 896 4459 
Q 1184 4750 1600 4750 
z
" transform="scale(0.015625)"/>
       <path id="DejaVuSans-43" d="M 4122 4306 
L 4122 3641 
Q 3803 3938 3442 4084 
Q 3081 4231 2675 4231 
Q 1875 4231 1450 3742 
Q 1025 3253 1025 2328 
Q 1025 1406 1450 917 
Q 1875 428 2675 428 
Q 3081 428 3442 575 
Q 3803 722 4122 1019 
L 4122 359 
Q 3791 134 3420 21 
Q 3050 -91 2638 -91 
Q 1578 -91 968 557 
Q 359 1206 359 2328 
Q 359 3453 968 4101 
Q 1578 4750 2638 4750 
Q 3056 4750 3426 4639 
Q 3797 4528 4122 4306 
z
" transform="scale(0.015625)"/>
      </defs>
      <use xlink:href="#DejaVuSans-Oblique-54" transform="translate(0 0.015625)"/>
      <use xlink:href="#DejaVuSans-Oblique-73" transform="translate(61.083984 -16.390625) scale(0.7)"/>
      <use xlink:href="#DejaVuSans-Oblique-74" transform="translate(97.553711 -16.390625) scale(0.7)"/>
      <use xlink:href="#DejaVuSans-Oblique-6f" transform="translate(125 -16.390625) scale(0.7)"/>
      <use xlink:href="#DejaVuSans-2c" transform="translate(167.827148 -16.390625) scale(0.7)"/>
      <use xlink:href="#DejaVuSans-Oblique-48" transform="translate(203.71582 -16.390625) scale(0.7)"/>
      <use xlink:href="#DejaVuSans-Oblique-54" transform="translate(256.352539 -16.390625) scale(0.7)"/>
      <use xlink:href="#DejaVuSans-20" transform="translate(301.845703 0.015625)"/>
      <use xlink:href="#DejaVuSans-5b" transform="translate(333.632812 0.015625)"/>
      <use xlink:href="#DejaVuSans-b0" transform="translate(372.646484 0.015625)"/>
      <use xlink:href="#DejaVuSans-43" transform="translate(422.646484 0.015625)"/>
      <use xlink:href="#DejaVuSans-5d" transform="translate(492.470703 0.015625)"/>
     </g>
    </g>
   </g>
   <g id="QuadContourSet_2">
    <path clip-path="url(#p1a1d333c45)" style="fill: none; stroke: #000000; stroke-width: 1.5"/>
    <path d="M 109.44551 322.487967 
L 109.365112 324 
L 109.186455 327.36 
L 109.007797 330.72 
L 108.829139 334.08 
L 108.691052 337.44 
L 108.682374 339.57004 
M 108.624922 368.909965 
L 108.631557 371.04 
L 108.642358 374.4 
L 108.653159 377.76 
L 108.66396 381.12 
L 108.674761 384.48 
" clip-path="url(#p1a1d333c45)" style="fill: none; stroke: #000000; stroke-width: 1.5"/>
    <path d="M 140.100352 287.413726 
L 139.799354 290.4 
L 139.787627 293.76 
L 139.777991 297.12 
L 139.768433 300.48 
L 139.758951 303.84 
L 139.749545 307.2 
L 139.740214 310.56 
L 139.730957 313.92 
L 139.721773 317.28 
L 139.712661 320.64 
L 139.716222 322.815051 
M 139.942004 352.063007 
L 140.001791 354.24 
L 140.097293 357.6 
L 140.196195 360.96 
L 140.323687 364.32 
L 140.590869 367.68 
L 140.727273 369.151353 
L 146.363636 369.915169 
L 151.405707 367.68 
L 152 367.402196 
L 153.709425 366.660962 
" clip-path="url(#p1a1d333c45)" style="fill: none; stroke: #000000; stroke-width: 1.5"/>
    <path d="M 179.058607 257.469579 
L 178.883419 260.16 
L 178.61008 263.52 
L 178.403778 266.88 
L 178.303665 270.24 
L 178.19705 273.6 
L 178.090009 276.96 
L 178.043018 280.32 
L 177.996027 283.68 
L 177.949036 287.04 
L 177.912199 290.4 
L 177.904787 292.575083 
M 177.811725 321.824935 
L 177.805213 324 
L 177.795143 327.36 
L 177.786016 330.72 
L 177.776976 334.08 
L 177.976303 337.44 
L 180.181818 338.221315 
L 181.76537 337.44 
L 185.818182 335.5057 
L 188.724191 334.08 
L 191.454545 332.769776 
L 195.730114 330.72 
L 197.090909 330.048269 
L 202.727273 327.366911 
L 202.743788 327.36 
L 208.363636 324.93188 
L 210.617865 324 
L 214 322.604746 
L 218.748396 320.64 
L 219.636364 320.273344 
L 225.272727 317.976275 
L 227.032742 317.28 
L 230.909091 315.72493 
L 235.50426 313.92 
L 236.545455 313.5052 
L 238.556709 312.721033 
" clip-path="url(#p1a1d333c45)" style="fill: none; stroke: #000000; stroke-width: 1.5"/>
    <path d="M 227.768037 218.352474 
L 227.52879 219.84 
L 226.988384 223.2 
L 226.496928 226.56 
L 225.975655 229.92 
L 225.721845 233.28 
L 225.477919 236.64 
L 225.272727 239.466441 
L 225.233992 240 
L 225.087782 243.36 
L 225.07186 246.72 
L 225.061553 248.895141 
M 225.024571 278.144977 
L 225.028535 280.32 
L 225.034709 283.68 
L 225.041406 287.04 
L 225.168509 290.4 
L 225.272727 291.220387 
L 225.600592 293.76 
L 226.062464 297.12 
L 230.909091 298.428597 
L 233.557826 297.12 
L 236.545455 295.733935 
L 240.534282 293.76 
L 242.181818 292.937235 
L 247.467985 290.4 
L 247.818182 290.226255 
L 253.454545 287.591739 
L 254.715505 287.04 
L 259.090909 285.035152 
L 262.241917 283.68 
L 264.727273 282.558171 
L 270.032973 280.32 
L 270.363636 280.173242 
L 276 277.846883 
L 278.14238 276.96 
L 281.636364 275.516577 
L 286.261901 273.6 
L 287.272727 273.18203 
L 292.909091 270.85186 
L 294.421264 270.24 
L 298.545455 268.548868 
L 302.696312 266.88 
L 304.181818 266.274625 
L 309.818182 264.056758 
L 311.207413 263.52 
L 315.454545 261.879033 
L 319.903729 260.16 
L 321.090909 259.701309 
L 323.277669 258.856409 
" clip-path="url(#p1a1d333c45)" style="fill: none; stroke: #000000; stroke-width: 1.5"/>
    <path d="M 289.080786 178.442164 
L 288.857288 179.52 
L 288.160567 182.88 
L 287.46621 186.24 
L 287.272727 187.161687 
L 286.767125 189.6 
L 286.365989 192.96 
L 286.221745 196.32 
L 286.209939 199.68 
L 286.206479 203.04 
L 286.20303 206.4 
L 286.199591 209.76 
L 286.196162 213.12 
L 286.192743 216.48 
L 286.189335 219.84 
L 286.185936 223.2 
L 286.182548 226.56 
L 286.179169 229.92 
L 286.175801 233.28 
L 286.175604 236.64 
L 286.178339 240 
L 286.378144 243.36 
L 286.872998 246.72 
L 287.272727 249.332264 
L 287.387695 250.08 
L 292.909091 252.638466 
L 298.545455 250.423614 
L 299.278656 250.08 
L 304.181818 247.782139 
L 306.448204 246.72 
L 309.818182 245.140664 
L 313.681048 243.36 
L 315.454545 242.531803 
L 321.090909 240.057092 
L 321.229479 240 
L 326.727273 237.73487 
L 329.38468 236.64 
L 332.363636 235.412649 
L 337.539881 233.28 
L 338 233.090428 
L 343.636364 230.762171 
L 345.667912 229.92 
L 347.036436 229.353851 
M 374.061258 218.163873 
L 377.454545 216.793119 
L 378.264956 216.48 
L 383.090909 214.615394 
L 386.961272 213.12 
L 388.727273 212.437669 
L 394.363636 210.259944 
L 395.657587 209.76 
L 400 208.08222 
L 404.353903 206.4 
L 405.636364 205.904495 
L 407.998629 204.991785 
" clip-path="url(#p1a1d333c45)" style="fill: none; stroke: #000000; stroke-width: 1.5"/>
    <path d="M 371.475335 129.324381 
L 370.91113 132.48 
L 370.310384 135.84 
L 369.904973 139.2 
L 369.602001 142.56 
L 369.376746 145.92 
L 369.306887 149.28 
L 369.299186 152.64 
L 369.291485 156 
L 369.283784 159.36 
L 369.276083 162.72 
L 369.271278 164.850016 
M 369.379456 194.182775 
L 369.612128 196.32 
L 370.308252 199.68 
L 371.818182 199.966226 
L 372.51043 199.68 
L 377.454545 197.634786 
L 380.635053 196.32 
L 383.090909 195.2971 
L 388.727273 192.974879 
L 388.763386 192.96 
L 394.363636 190.652658 
L 396.918587 189.6 
L 400 188.330436 
L 405.073788 186.24 
L 405.636364 186.008215 
L 411.272727 183.677739 
L 413.194445 182.88 
L 416.909091 181.338779 
L 421.289464 179.52 
L 422.545455 178.998499 
L 428.181818 176.658219 
L 429.381735 176.16 
L 433.818182 174.317938 
L 437.474006 172.8 
L 439.454545 171.977658 
L 445.090909 169.651242 
L 445.626812 169.44 
L 450.727273 167.401034 
L 454.10311 166.08 
L 456.363636 165.182705 
L 462 162.996305 
L 462.71513 162.72 
L 467.636364 160.81858 
L 471.411445 159.36 
L 473.272727 158.640855 
L 478.909091 156.463131 
L 480.107761 156 
L 484.545455 154.285406 
L 488.804076 152.64 
L 490.181818 152.107681 
" clip-path="url(#p1a1d333c45)" style="fill: none; stroke: #000000; stroke-width: 1.5"/>
    <path d="M 491.359457 64.577976 
L 491.242546 65.28 
L 490.677406 68.64 
L 490.181818 71.852574 
L 490.159075 72 
L 489.640745 75.36 
L 489.378813 78.72 
L 489.183179 82.08 
L 489.053093 85.44 
L 488.923318 88.8 
L 488.793544 92.16 
L 488.709359 94.339638 
M 489.399838 123.561663 
L 489.61369 125.76 
L 489.892613 129.12 
L 490.181818 129.303845 
L 495.818182 129.565889 
L 496.892068 129.12 
L 501.454545 127.178715 
L 504.908655 125.76 
L 507.090909 124.760756 
L 512.727273 122.54821 
L 513.094746 122.4 
L 518.363636 120.246235 
L 521.37383 119.04 
L 524 117.973238 
L 529.636364 115.732666 
L 529.772673 115.68 
L 535.272727 113.554941 
L 538.468988 112.32 
L 540.909091 111.377216 
L 546.545455 109.199491 
L 547.165303 108.96 
L 552.181818 107.021767 
L 555.861619 105.6 
L 557.818182 104.844042 
L 563.454545 102.666317 
L 564.557934 102.24 
L 569.090909 100.488592 
" clip-path="url(#p1a1d333c45)" style="fill: none; stroke: #000000; stroke-width: 1.5"/>
    <path clip-path="url(#p1a1d333c45)" style="fill: none; stroke: #000000; stroke-width: 1.5"/>
    <path clip-path="url(#p1a1d333c45)" style="fill: none; stroke: #000000; stroke-width: 1.5"/>
   </g>
   <g id="patch_3">
    <path d="M 90 384.48 
L 90 51.84 
" style="fill: none; stroke: #000000; stroke-width: 0.8; stroke-linejoin: miter; stroke-linecap: square"/>
   </g>
   <g id="patch_4">
    <path d="M 648 384.48 
L 648 51.84 
" style="fill: none; stroke: #000000; stroke-width: 0.8; stroke-linejoin: miter; stroke-linecap: square"/>
   </g>
   <g id="patch_5">
    <path d="M 90 384.48 
L 648 384.48 
" style="fill: none; stroke: #000000; stroke-width: 0.8; stroke-linejoin: miter; stroke-linecap: square"/>
   </g>
   <g id="patch_6">
    <path d="M 90 51.84 
L 648 51.84 
" style="fill: none; stroke: #000000; stroke-width: 0.8; stroke-linejoin: miter; stroke-linecap: square"/>
   </g>
   <g id="text_18">
    <g clip-path="url(#p1a1d333c45)">
     <!-- 0.01 -->
     <g transform="translate(111.385559 365.3785) rotate(-89.881417) scale(0.1 -0.1)">
      <defs>
       <path id="DejaVuSans-2e" d="M 684 794 
L 1344 794 
L 1344 0 
L 684 0 
L 684 794 
z
" transform="scale(0.015625)"/>
      </defs>
      <use xlink:href="#DejaVuSans-30"/>
      <use xlink:href="#DejaVuSans-2e" x="63.623047"/>
      <use xlink:href="#DejaVuSans-30" x="95.410156"/>
      <use xlink:href="#DejaVuSans-31" x="159.033203"/>
     </g>
    </g>
   </g>
   <g id="text_19">
    <g clip-path="url(#p1a1d333c45)">
     <!-- 0.02 -->
     <g transform="translate(136.934194 326.322458) rotate(-270.313619) scale(0.1 -0.1)">
      <use xlink:href="#DejaVuSans-30"/>
      <use xlink:href="#DejaVuSans-2e" x="63.623047"/>
      <use xlink:href="#DejaVuSans-30" x="95.410156"/>
      <use xlink:href="#DejaVuSans-32" x="159.033203"/>
     </g>
    </g>
   </g>
   <g id="text_20">
    <g clip-path="url(#p1a1d333c45)">
     <!-- 0.03 -->
     <g transform="translate(180.579437 318.341519) rotate(-89.818056) scale(0.1 -0.1)">
      <use xlink:href="#DejaVuSans-30"/>
      <use xlink:href="#DejaVuSans-2e" x="63.623047"/>
      <use xlink:href="#DejaVuSans-30" x="95.410156"/>
      <use xlink:href="#DejaVuSans-33" x="159.033203"/>
     </g>
    </g>
   </g>
   <g id="text_21">
    <g clip-path="url(#p1a1d333c45)">
     <!-- 0.04 -->
     <g transform="translate(227.744437 274.656114) rotate(-89.931276) scale(0.1 -0.1)">
      <use xlink:href="#DejaVuSans-30"/>
      <use xlink:href="#DejaVuSans-2e" x="63.623047"/>
      <use xlink:href="#DejaVuSans-30" x="95.410156"/>
      <use xlink:href="#DejaVuSans-34" x="159.033203"/>
     </g>
    </g>
   </g>
   <g id="text_22">
    <g clip-path="url(#p1a1d333c45)">
     <!-- 0.05 -->
     <g transform="translate(351.321249 230.56727) rotate(-22.543773) scale(0.1 -0.1)">
      <use xlink:href="#DejaVuSans-30"/>
      <use xlink:href="#DejaVuSans-2e" x="63.623047"/>
      <use xlink:href="#DejaVuSans-30" x="95.410156"/>
      <use xlink:href="#DejaVuSans-35" x="159.033203"/>
     </g>
    </g>
   </g>
   <g id="text_23">
    <g clip-path="url(#p1a1d333c45)">
     <!-- 0.06 -->
     <g transform="translate(372.0003 190.655089) rotate(-89.952659) scale(0.1 -0.1)">
      <use xlink:href="#DejaVuSans-30"/>
      <use xlink:href="#DejaVuSans-2e" x="63.623047"/>
      <use xlink:href="#DejaVuSans-30" x="95.410156"/>
      <use xlink:href="#DejaVuSans-36" x="159.033203"/>
     </g>
    </g>
   </g>
   <g id="text_24">
    <g clip-path="url(#p1a1d333c45)">
     <!-- 0.07 -->
     <g transform="translate(485.653202 97.893636) rotate(-271.318639) scale(0.1 -0.1)">
      <use xlink:href="#DejaVuSans-30"/>
      <use xlink:href="#DejaVuSans-2e" x="63.623047"/>
      <use xlink:href="#DejaVuSans-30" x="95.410156"/>
      <use xlink:href="#DejaVuSans-37" x="159.033203"/>
     </g>
    </g>
   </g>
  </g>
 </g>
 <defs>
  <clipPath id="p1a1d333c45">
   <rect x="90" y="51.84" width="558" height="332.64"/>
  </clipPath>
 </defs>
</svg>
