<?xml version="1.0" encoding="utf-8" standalone="no"?>
<!DOCTYPE svg PUBLIC "-//W3C//DTD SVG 1.1//EN"
  "http://www.w3.org/Graphics/SVG/1.1/DTD/svg11.dtd">
<svg xmlns:xlink="http://www.w3.org/1999/xlink" width="720pt" height="432pt" viewBox="0 0 720 432" xmlns="http://www.w3.org/2000/svg" version="1.1">
 <metadata>
  <rdf:RDF xmlns:dc="http://purl.org/dc/elements/1.1/" xmlns:cc="http://creativecommons.org/ns#" xmlns:rdf="http://www.w3.org/1999/02/22-rdf-syntax-ns#">
   <cc:Work>
    <dc:type rdf:resource="http://purl.org/dc/dcmitype/StillImage"/>
    <dc:date>2024-06-12T10:41:10.084882</dc:date>
    <dc:format>image/svg+xml</dc:format>
    <dc:creator>
     <cc:Agent>
      <dc:title>Matplotlib v3.8.3, https://matplotlib.org/</dc:title>
     </cc:Agent>
    </dc:creator>
   </cc:Work>
  </rdf:RDF>
 </metadata>
 <defs>
  <style type="text/css">*{stroke-linejoin: round; stroke-linecap: butt}</style>
 </defs>
 <g id="figure_1">
  <g id="patch_1">
   <path d="M 0 432 
L 720 432 
L 720 0 
L 0 0 
z
" style="fill: #ffffff"/>
  </g>
  <g id="axes_1">
   <g id="patch_2">
    <path d="M 90 384.48 
L 648 384.48 
L 648 51.84 
L 90 51.84 
z
" style="fill: #ffffff"/>
   </g>
   <g id="QuadContourSet_1">
    <path d="M 94.577628 381.751143 
L 90 384.48 
L 94.430441 384.48 
z
M 95.699049 360.96 
L 95.880278 357.6 
L 96.061531 354.24 
L 96.243477 350.88 
L 96.425847 347.52 
L 96.61334 344.16 
L 96.801603 340.8 
L 96.989866 337.44 
L 97.178129 334.08 
L 97.366392 330.72 
L 97.554655 327.36 
L 97.742918 324 
L 97.931021 320.64 
L 98.113247 317.28 
L 98.29459 313.92 
L 98.475058 310.56 
L 98.654657 307.2 
L 98.831028 303.84 
L 99.00364 300.48 
L 99.176251 297.12 
L 99.348863 293.76 
L 99.521475 290.4 
L 99.694086 287.04 
L 99.852209 283.68 
L 99.997207 280.32 
L 100.14043 276.96 
L 100.28191 273.6 
L 100.421679 270.24 
L 100.559768 266.88 
L 100.696207 263.52 
L 100.830045 260.16 
L 100.961731 256.8 
L 101.093417 253.44 
L 101.186464 250.08 
L 101.254489 246.72 
L 101.272727 245.806322 
L 101.316355 243.36 
L 101.380042 240 
L 101.448534 236.64 
L 101.522397 233.28 
L 101.602288 229.92 
L 101.688976 226.56 
L 101.73676 223.2 
L 101.699288 219.84 
L 101.655677 216.48 
L 101.604281 213.12 
L 101.544123 209.76 
L 101.470625 206.4 
L 101.797255 203.04 
L 102.346121 199.68 
L 102.904456 196.32 
L 103.472506 192.96 
L 104.050528 189.6 
L 104.644515 186.24 
L 105.274767 182.88 
L 105.934267 179.52 
L 106.605817 176.16 
L 106.909091 174.659564 
L 107.299322 172.8 
L 108.01106 169.44 
L 108.750953 166.08 
L 109.495524 162.72 
L 110.251283 159.36 
L 111.012241 156 
L 111.780403 152.64 
L 112.545455 149.299587 
L 112.549937 149.28 
L 113.314333 145.92 
L 114.074903 142.56 
L 114.835473 139.2 
L 115.596043 135.84 
L 116.356613 132.48 
L 117.117183 129.12 
L 117.877753 125.76 
L 118.181818 124.416721 
L 118.638323 122.4 
L 118.709533 122.085414 
L 118.181818 122.4 
L 112.545455 125.76 
L 106.909091 129.12 
L 101.272727 132.48 
L 95.636364 135.84 
L 95.636364 139.2 
L 95.636364 142.56 
L 95.636364 145.92 
L 95.636364 149.28 
L 95.636364 152.64 
L 95.636364 156 
L 95.636364 159.36 
L 95.636364 162.72 
L 95.636364 166.08 
L 95.636364 169.44 
L 95.636364 172.8 
L 95.636364 176.16 
L 95.636364 179.52 
L 95.636364 182.88 
L 95.636364 186.24 
L 95.636364 189.6 
L 95.636364 192.96 
L 95.636364 196.32 
L 95.636364 199.68 
L 95.636364 203.04 
L 95.636364 206.4 
L 95.636364 209.76 
L 95.636364 213.12 
L 95.636364 216.48 
L 95.636364 219.84 
L 95.636364 223.2 
L 95.636364 226.56 
L 95.636364 229.92 
L 95.636364 233.28 
L 95.636364 236.64 
L 95.636364 240 
L 95.636364 243.36 
L 95.636364 246.72 
L 95.636364 250.08 
L 95.636364 253.44 
L 95.636364 256.8 
L 95.636364 260.16 
L 95.636364 263.52 
L 95.636364 266.88 
L 95.636364 270.24 
L 95.636364 273.6 
L 95.636364 276.96 
L 95.636364 280.32 
L 95.636364 283.68 
L 95.636364 287.04 
L 95.636364 290.4 
L 95.636364 293.76 
L 95.636364 297.12 
L 95.636364 300.48 
L 95.636364 303.84 
L 95.636364 307.2 
L 95.636364 310.56 
L 95.636364 313.92 
L 95.636364 317.28 
L 95.636364 320.64 
L 95.636364 324 
L 95.636364 327.36 
L 95.636364 330.72 
L 95.636364 334.08 
L 95.636364 337.44 
L 95.636364 340.8 
L 95.636364 344.16 
L 95.636364 347.52 
L 95.636364 350.88 
L 95.636364 354.24 
L 95.636364 357.6 
L 95.636364 360.96 
L 95.636364 362.122181 
z
" clip-path="url(#p4123bc3055)" style="fill: #481668"/>
    <path d="M 95.636364 384.48 
L 101.272727 384.48 
L 106.909091 384.48 
L 112.545455 384.48 
L 116.130779 384.48 
L 116.312009 381.12 
L 116.493239 377.76 
L 116.677331 374.4 
L 116.863713 371.04 
L 117.051073 367.68 
L 117.22902 364.32 
L 117.405075 360.96 
L 117.577374 357.6 
L 117.719432 354.24 
L 117.858859 350.88 
L 117.969228 347.52 
L 118.041347 344.16 
L 118.085384 340.8 
L 118.032215 337.44 
L 118.181818 334.464213 
L 118.218605 334.08 
L 118.746415 330.72 
L 119.274224 327.36 
L 119.802034 324 
L 120.329843 320.64 
L 120.857653 317.28 
L 121.385462 313.92 
L 121.913272 310.56 
L 122.441082 307.2 
L 122.968891 303.84 
L 123.498574 300.48 
L 123.818182 298.61155 
L 124.09328 297.12 
L 124.71299 293.76 
L 125.332701 290.4 
L 125.952412 287.04 
L 126.572122 283.68 
L 127.191833 280.32 
L 127.811544 276.96 
L 128.431254 273.6 
L 129.050965 270.24 
L 129.454545 268.051832 
L 129.680814 266.88 
L 130.373139 263.52 
L 131.066903 260.16 
L 131.760667 256.8 
L 132.454432 253.44 
L 133.148196 250.08 
L 133.841961 246.72 
L 134.535725 243.36 
L 135.090909 240.671165 
L 135.231205 240 
L 135.938645 236.64 
L 136.659433 233.28 
L 137.403684 229.92 
L 138.147935 226.56 
L 138.892186 223.2 
L 139.636438 219.84 
L 140.380689 216.48 
L 140.727273 214.915312 
L 141.12494 213.12 
L 141.869192 209.76 
L 142.618724 206.4 
L 143.374125 203.04 
L 144.13873 199.68 
L 144.908268 196.32 
L 145.677806 192.96 
L 146.363636 189.965487 
L 146.447344 189.6 
L 147.216881 186.24 
L 147.986419 182.88 
L 148.755957 179.52 
L 149.525495 176.16 
L 150.295033 172.8 
L 151.05925 169.44 
L 151.820122 166.08 
L 152 165.285347 
L 152.580692 162.72 
L 153.341262 159.36 
L 154.101832 156 
L 154.862402 152.64 
L 155.622972 149.28 
L 156.383542 145.92 
L 157.144112 142.56 
L 157.636364 140.385363 
L 157.904683 139.2 
L 158.665253 135.84 
L 159.425823 132.48 
L 160.186393 129.12 
L 160.946963 125.76 
L 161.707533 122.4 
L 162.468103 119.04 
L 163.228673 115.68 
L 163.272727 115.485379 
L 163.850827 112.32 
L 164.517637 108.96 
L 165.246722 105.6 
L 166.047231 102.24 
L 166.930201 98.88 
L 167.617854 96.289744 
L 163.272727 98.88 
L 157.636364 102.24 
L 152 105.6 
L 146.363636 108.96 
L 140.727273 108.96 
L 135.090909 112.32 
L 129.454545 115.68 
L 123.818182 119.04 
L 118.709533 122.085414 
L 118.638323 122.4 
L 118.181818 124.416721 
L 117.877753 125.76 
L 117.117183 129.12 
L 116.356613 132.48 
L 115.596043 135.84 
L 114.835473 139.2 
L 114.074903 142.56 
L 113.314333 145.92 
L 112.549937 149.28 
L 112.545455 149.299587 
L 111.780403 152.64 
L 111.012241 156 
L 110.251283 159.36 
L 109.495524 162.72 
L 108.750953 166.08 
L 108.01106 169.44 
L 107.299322 172.8 
L 106.909091 174.659564 
L 106.605817 176.16 
L 105.934267 179.52 
L 105.274767 182.88 
L 104.644515 186.24 
L 104.050528 189.6 
L 103.472506 192.96 
L 102.904456 196.32 
L 102.346121 199.68 
L 101.797255 203.04 
L 101.470625 206.4 
L 101.544123 209.76 
L 101.604281 213.12 
L 101.655677 216.48 
L 101.699288 219.84 
L 101.73676 223.2 
L 101.688976 226.56 
L 101.602288 229.92 
L 101.522397 233.28 
L 101.448534 236.64 
L 101.380042 240 
L 101.316355 243.36 
L 101.272727 245.806322 
L 101.254489 246.72 
L 101.186464 250.08 
L 101.093417 253.44 
L 100.961731 256.8 
L 100.830045 260.16 
L 100.696207 263.52 
L 100.559768 266.88 
L 100.421679 270.24 
L 100.28191 273.6 
L 100.14043 276.96 
L 99.997207 280.32 
L 99.852209 283.68 
L 99.694086 287.04 
L 99.521475 290.4 
L 99.348863 293.76 
L 99.176251 297.12 
L 99.00364 300.48 
L 98.831028 303.84 
L 98.654657 307.2 
L 98.475058 310.56 
L 98.29459 313.92 
L 98.113247 317.28 
L 97.931021 320.64 
L 97.742918 324 
L 97.554655 327.36 
L 97.366392 330.72 
L 97.178129 334.08 
L 96.989866 337.44 
L 96.801603 340.8 
L 96.61334 344.16 
L 96.425847 347.52 
L 96.243477 350.88 
L 96.061531 354.24 
L 95.880278 357.6 
L 95.699049 360.96 
L 95.636364 362.122181 
L 95.636364 364.32 
L 95.636364 367.68 
L 95.636364 371.04 
L 95.636364 374.4 
L 95.636364 377.76 
L 95.636364 381.12 
L 94.577628 381.751143 
L 94.430441 384.48 
z
" clip-path="url(#p4123bc3055)" style="fill: #443983"/>
    <path d="M 118.181818 384.48 
L 123.818182 384.48 
L 129.454545 384.48 
L 135.090909 384.48 
L 138.645612 384.48 
L 139.202919 381.12 
L 139.760227 377.76 
L 140.317534 374.4 
L 140.727273 371.92969 
L 140.874841 371.04 
L 141.435329 367.68 
L 142.003874 364.32 
L 142.580296 360.96 
L 143.176589 357.6 
L 143.785186 354.24 
L 144.393784 350.88 
L 145.002381 347.52 
L 145.610978 344.16 
L 146.22061 340.8 
L 146.363636 340.030807 
L 146.859646 337.44 
L 147.503667 334.08 
L 148.148536 330.72 
L 148.794254 327.36 
L 149.440823 324 
L 150.088245 320.64 
L 150.736521 317.28 
L 151.385653 313.92 
L 152 310.744133 
L 152.038835 310.56 
L 152.744498 307.2 
L 153.44453 303.84 
L 154.138997 300.48 
L 154.827966 297.12 
L 155.511502 293.76 
L 156.189669 290.4 
L 156.862529 287.04 
L 157.530146 283.68 
L 157.636364 283.142998 
L 158.351724 280.32 
L 159.203163 276.96 
L 160.054602 273.6 
L 160.885216 270.24 
L 161.703338 266.88 
L 162.510388 263.52 
L 163.272727 260.303833 
L 163.302416 260.16 
L 163.993103 256.8 
L 164.678355 253.44 
L 165.358236 250.08 
L 166.032809 246.72 
L 166.702136 243.36 
L 167.366278 240 
L 168.025294 236.64 
L 168.679245 233.28 
L 168.909091 232.092882 
L 169.531823 229.92 
L 170.494774 226.56 
L 171.457725 223.2 
L 172.420676 219.84 
L 173.383627 216.48 
L 174.346578 213.12 
L 174.545455 212.426064 
L 175.390015 209.76 
L 176.470029 206.4 
L 177.550438 203.04 
L 178.630847 199.68 
L 179.711256 196.32 
L 180.181818 194.856584 
L 180.816038 192.96 
L 181.948937 189.6 
L 183.0939 186.24 
L 184.251123 182.88 
L 185.420802 179.52 
L 185.818182 178.386667 
L 186.60367 176.16 
L 187.790068 172.8 
L 188.996302 169.44 
L 190.218127 166.08 
L 191.454545 162.723514 
L 191.455874 162.72 
L 192.726004 159.36 
L 193.996134 156 
L 195.266264 152.64 
L 196.536394 149.28 
L 197.090909 147.813087 
L 197.815013 145.92 
L 199.113306 142.56 
L 200.441932 139.2 
L 201.773222 135.84 
L 202.727273 133.432103 
L 203.104512 132.48 
L 204.435802 129.12 
L 205.767092 125.76 
L 207.098383 122.4 
L 208.363636 119.236522 
L 208.442712 119.04 
L 209.811333 115.68 
L 211.179955 112.32 
L 212.548577 108.96 
L 213.917199 105.6 
L 214 105.396721 
L 215.285821 102.24 
L 216.654443 98.88 
L 218.023064 95.52 
L 219.397752 92.16 
L 219.636364 91.581046 
L 220.78255 88.8 
L 222.167348 85.44 
L 223.552147 82.08 
L 224.936945 78.72 
L 225.272727 77.905275 
L 226.321743 75.36 
L 227.706541 72 
L 229.091339 68.64 
L 230.335117 65.622162 
L 225.272727 68.64 
L 219.636364 72 
L 214 72 
L 208.363636 75.36 
L 202.727273 78.72 
L 197.090909 82.08 
L 191.454545 85.44 
L 185.818182 85.44 
L 180.181818 88.8 
L 174.545455 92.16 
L 168.909091 95.52 
L 167.617854 96.289744 
L 166.930201 98.88 
L 166.047231 102.24 
L 165.246722 105.6 
L 164.517637 108.96 
L 163.850827 112.32 
L 163.272727 115.485379 
L 163.228673 115.68 
L 162.468103 119.04 
L 161.707533 122.4 
L 160.946963 125.76 
L 160.186393 129.12 
L 159.425823 132.48 
L 158.665253 135.84 
L 157.904683 139.2 
L 157.636364 140.385363 
L 157.144112 142.56 
L 156.383542 145.92 
L 155.622972 149.28 
L 154.862402 152.64 
L 154.101832 156 
L 153.341262 159.36 
L 152.580692 162.72 
L 152 165.285347 
L 151.820122 166.08 
L 151.05925 169.44 
L 150.295033 172.8 
L 149.525495 176.16 
L 148.755957 179.52 
L 147.986419 182.88 
L 147.216881 186.24 
L 146.447344 189.6 
L 146.363636 189.965487 
L 145.677806 192.96 
L 144.908268 196.32 
L 144.13873 199.68 
L 143.374125 203.04 
L 142.618724 206.4 
L 141.869192 209.76 
L 141.12494 213.12 
L 140.727273 214.915312 
L 140.380689 216.48 
L 139.636438 219.84 
L 138.892186 223.2 
L 138.147935 226.56 
L 137.403684 229.92 
L 136.659433 233.28 
L 135.938645 236.64 
L 135.231205 240 
L 135.090909 240.671165 
L 134.535725 243.36 
L 133.841961 246.72 
L 133.148196 250.08 
L 132.454432 253.44 
L 131.760667 256.8 
L 131.066903 260.16 
L 130.373139 263.52 
L 129.680814 266.88 
L 129.454545 268.051832 
L 129.050965 270.24 
L 128.431254 273.6 
L 127.811544 276.96 
L 127.191833 280.32 
L 126.572122 283.68 
L 125.952412 287.04 
L 125.332701 290.4 
L 124.71299 293.76 
L 124.09328 297.12 
L 123.818182 298.61155 
L 123.498574 300.48 
L 122.968891 303.84 
L 122.441082 307.2 
L 121.913272 310.56 
L 121.385462 313.92 
L 120.857653 317.28 
L 120.329843 320.64 
L 119.802034 324 
L 119.274224 327.36 
L 118.746415 330.72 
L 118.218605 334.08 
L 118.181818 334.464213 
L 118.032215 337.44 
L 118.085384 340.8 
L 118.041347 344.16 
L 117.969228 347.52 
L 117.858859 350.88 
L 117.719432 354.24 
L 117.577374 357.6 
L 117.405075 360.96 
L 117.22902 364.32 
L 117.051073 367.68 
L 116.863713 371.04 
L 116.677331 374.4 
L 116.493239 377.76 
L 116.312009 381.12 
L 116.130779 384.48 
z
" clip-path="url(#p4123bc3055)" style="fill: #375a8c"/>
    <path d="M 140.727273 384.48 
L 146.363636 384.48 
L 152 384.48 
L 157.636364 381.12 
L 163.272727 377.76 
L 168.909091 374.4 
L 168.909091 371.04 
L 171.384174 369.564531 
L 168.909091 370.481383 
L 167.58564 367.68 
L 168.456457 364.32 
L 168.909091 362.573535 
L 169.327274 360.96 
L 170.198091 357.6 
L 171.068907 354.24 
L 171.939724 350.88 
L 172.810541 347.52 
L 173.681358 344.16 
L 174.545455 341.057604 
L 174.617204 340.8 
L 175.592067 337.44 
L 176.56693 334.08 
L 177.541793 330.72 
L 178.516655 327.36 
L 179.491518 324 
L 180.181818 321.620786 
L 180.466381 320.64 
L 181.444823 317.28 
L 182.441625 313.92 
L 183.455629 310.56 
L 184.487285 307.2 
L 185.53786 303.84 
L 185.818182 302.950111 
L 186.596285 300.48 
L 187.65471 297.12 
L 188.713136 293.76 
L 189.771561 290.4 
L 190.829986 287.04 
L 191.454545 285.057318 
L 191.907193 283.68 
L 193.014386 280.32 
L 194.125782 276.96 
L 195.241403 273.6 
L 196.361276 270.24 
L 197.090909 268.057717 
L 197.504919 266.88 
L 198.677435 263.52 
L 199.837311 260.16 
L 200.98475 256.8 
L 202.119952 253.44 
L 202.727273 251.627599 
L 203.309217 250.08 
L 204.566376 246.72 
L 205.81498 243.36 
L 207.055114 240 
L 208.287027 236.64 
L 208.363636 236.429825 
L 209.48059 233.28 
L 210.672074 229.92 
L 211.863558 226.56 
L 213.055041 223.2 
L 214 220.535204 
L 214.281911 219.84 
L 215.63896 216.48 
L 216.987023 213.12 
L 218.326191 209.76 
L 219.636364 206.45115 
L 219.656698 206.4 
L 220.980791 203.04 
L 222.28234 199.68 
L 223.561916 196.32 
L 224.818816 192.96 
L 225.272727 191.737233 
L 226.068956 189.6 
L 227.321012 186.24 
L 228.573416 182.88 
L 229.826168 179.52 
L 230.909091 176.616249 
L 231.078767 176.16 
L 232.347831 172.8 
L 233.630026 169.44 
L 234.903998 166.08 
L 236.17797 162.72 
L 236.545455 161.750789 
L 237.257546 159.36 
L 238.28317 156 
L 239.338998 152.64 
L 240.426385 149.28 
L 241.546766 145.92 
L 242.181818 144.059711 
L 243.30954 142.56 
L 245.639352 139.2 
L 247.731078 135.84 
L 247.818182 135.692217 
L 248.935338 132.48 
L 250.1154 129.12 
L 251.307408 125.76 
L 252.511544 122.4 
L 253.454545 119.792318 
L 253.782588 119.04 
L 255.341826 115.68 
L 257.073845 112.32 
L 259.009052 108.96 
L 259.090909 108.826063 
L 261.561741 105.6 
L 263.740946 102.24 
L 264.727273 100.524486 
L 265.616403 98.88 
L 267.433068 95.52 
L 269.263247 92.16 
L 270.363636 90.175669 
L 271.148284 88.8 
L 273.064746 85.44 
L 274.981208 82.08 
L 276 80.293822 
L 276.89767 78.72 
L 278.814131 75.36 
L 280.754756 72 
L 281.636364 70.502335 
L 282.740403 68.64 
L 284.732297 65.28 
L 286.724191 61.92 
L 287.272727 60.994708 
L 288.716085 58.56 
L 290.707978 55.2 
L 292.699872 51.84 
L 287.272727 51.84 
L 281.636364 51.84 
L 276 51.84 
L 270.363636 51.84 
L 264.727273 51.84 
L 259.090909 51.84 
L 253.454545 55.2 
L 247.818182 55.2 
L 242.181818 58.56 
L 236.545455 61.92 
L 230.909091 65.28 
L 230.335117 65.622162 
L 229.091339 68.64 
L 227.706541 72 
L 226.321743 75.36 
L 225.272727 77.905275 
L 224.936945 78.72 
L 223.552147 82.08 
L 222.167348 85.44 
L 220.78255 88.8 
L 219.636364 91.581046 
L 219.397752 92.16 
L 218.023064 95.52 
L 216.654443 98.88 
L 215.285821 102.24 
L 214 105.396721 
L 213.917199 105.6 
L 212.548577 108.96 
L 211.179955 112.32 
L 209.811333 115.68 
L 208.442712 119.04 
L 208.363636 119.236522 
L 207.098383 122.4 
L 205.767092 125.76 
L 204.435802 129.12 
L 203.104512 132.48 
L 202.727273 133.432103 
L 201.773222 135.84 
L 200.441932 139.2 
L 199.113306 142.56 
L 197.815013 145.92 
L 197.090909 147.813087 
L 196.536394 149.28 
L 195.266264 152.64 
L 193.996134 156 
L 192.726004 159.36 
L 191.455874 162.72 
L 191.454545 162.723514 
L 190.218127 166.08 
L 188.996302 169.44 
L 187.790068 172.8 
L 186.60367 176.16 
L 185.818182 178.386667 
L 185.420802 179.52 
L 184.251123 182.88 
L 183.0939 186.24 
L 181.948937 189.6 
L 180.816038 192.96 
L 180.181818 194.856584 
L 179.711256 196.32 
L 178.630847 199.68 
L 177.550438 203.04 
L 176.470029 206.4 
L 175.390015 209.76 
L 174.545455 212.426064 
L 174.346578 213.12 
L 173.383627 216.48 
L 172.420676 219.84 
L 171.457725 223.2 
L 170.494774 226.56 
L 169.531823 229.92 
L 168.909091 232.092882 
L 168.679245 233.28 
L 168.025294 236.64 
L 167.366278 240 
L 166.702136 243.36 
L 166.032809 246.72 
L 165.358236 250.08 
L 164.678355 253.44 
L 163.993103 256.8 
L 163.302416 260.16 
L 163.272727 260.303833 
L 162.510388 263.52 
L 161.703338 266.88 
L 160.885216 270.24 
L 160.054602 273.6 
L 159.203163 276.96 
L 158.351724 280.32 
L 157.636364 283.142998 
L 157.530146 283.68 
L 156.862529 287.04 
L 156.189669 290.4 
L 155.511502 293.76 
L 154.827966 297.12 
L 154.138997 300.48 
L 153.44453 303.84 
L 152.744498 307.2 
L 152.038835 310.56 
L 152 310.744133 
L 151.385653 313.92 
L 150.736521 317.28 
L 150.088245 320.64 
L 149.440823 324 
L 148.794254 327.36 
L 148.148536 330.72 
L 147.503667 334.08 
L 146.859646 337.44 
L 146.363636 340.030807 
L 146.22061 340.8 
L 145.610978 344.16 
L 145.002381 347.52 
L 144.393784 350.88 
L 143.785186 354.24 
L 143.176589 357.6 
L 142.580296 360.96 
L 142.003874 364.32 
L 141.435329 367.68 
L 140.874841 371.04 
L 140.727273 371.92969 
L 140.317534 374.4 
L 139.760227 377.76 
L 139.202919 381.12 
L 138.645612 384.48 
z
" clip-path="url(#p4123bc3055)" style="fill: #2b758e"/>
    <path d="M 168.909091 370.481383 
L 171.384174 369.564531 
L 174.545455 367.68 
L 180.181818 364.32 
L 185.818182 360.96 
L 191.454545 357.6 
L 197.090909 354.24 
L 202.727273 350.88 
L 208.363636 347.52 
L 214 344.16 
L 214 340.8 
L 219.636364 337.44 
L 225.272727 334.08 
L 230.909091 330.72 
L 236.545455 327.36 
L 242.181818 324 
L 247.818182 320.64 
L 253.454545 317.28 
L 253.454545 313.92 
L 259.090909 310.56 
L 264.727273 307.2 
L 270.363636 303.84 
L 276 300.48 
L 279.614706 298.325169 
L 276 299.797899 
L 274.367936 300.48 
L 270.363636 302.124553 
L 266.289183 303.84 
L 264.727273 304.486404 
L 259.090909 306.903292 
L 258.435437 307.2 
L 253.454545 309.401901 
L 250.914965 310.56 
L 247.818182 311.94976 
L 243.645622 313.92 
L 242.181818 314.595395 
L 236.600628 317.28 
L 236.545455 317.305694 
L 230.909091 320.11054 
L 229.92573 320.64 
L 225.272727 323.0451 
L 223.556882 324 
L 219.636364 326.071749 
L 217.416806 327.36 
L 214 329.222873 
L 209.32264 330.72 
L 208.363636 331.234859 
L 207.713215 330.72 
L 208.363636 329.010738 
L 209.137438 327.36 
L 210.27036 324 
L 211.548933 320.64 
L 212.827506 317.28 
L 214 314.198766 
L 214.106078 313.92 
L 215.384651 310.56 
L 216.663223 307.2 
L 217.941796 303.84 
L 219.254432 300.48 
L 219.636364 299.572972 
L 220.669261 297.12 
L 222.084089 293.76 
L 223.498918 290.4 
L 224.913746 287.04 
L 225.272727 286.187474 
L 226.328574 283.68 
L 227.743403 280.32 
L 229.158231 276.96 
L 230.573059 273.6 
L 230.909091 272.801977 
L 231.887493 270.24 
L 233.098407 266.88 
L 234.234349 263.52 
L 235.299382 260.16 
L 236.299855 256.8 
L 236.545455 255.975222 
L 237.30035 253.44 
L 238.300835 250.08 
L 239.301319 246.72 
L 240.301804 243.36 
L 241.302288 240 
L 242.181818 237.046209 
L 243.390481 236.64 
L 247.818182 235.358927 
L 248.861073 233.28 
L 250.451248 229.92 
L 251.893775 226.56 
L 253.246466 223.2 
L 253.454545 222.6662 
L 254.30259 219.84 
L 255.31081 216.48 
L 256.319029 213.12 
L 257.327249 209.76 
L 258.335469 206.4 
L 259.090909 203.882414 
L 259.605266 203.04 
L 261.849463 199.68 
L 264.458046 196.32 
L 264.727273 196.001726 
L 267.76208 192.96 
L 270.363636 190.510728 
L 270.866605 189.6 
L 272.697444 186.24 
L 274.490193 182.88 
L 276 179.995006 
L 276.247836 179.52 
L 278.000926 176.16 
L 279.754016 172.8 
L 281.507106 169.44 
L 281.636364 169.192262 
L 283.260196 166.08 
L 285.013286 162.72 
L 286.766376 159.36 
L 287.272727 158.387195 
L 288.386101 156 
L 289.979192 152.64 
L 291.642174 149.28 
L 292.909091 146.815484 
L 293.395321 145.92 
L 295.219734 142.56 
L 297.044147 139.2 
L 298.545455 136.435061 
L 298.886633 135.84 
L 300.773976 132.48 
L 302.597309 129.12 
L 304.181818 126.104527 
L 304.458058 125.76 
L 307.152142 122.4 
L 309.647798 119.04 
L 309.818182 118.80003 
L 311.607392 115.68 
L 313.534215 112.32 
L 315.454545 108.971321 
L 315.460648 108.96 
L 317.307463 105.6 
L 319.227914 102.24 
L 321.090909 99.103707 
L 321.212785 98.88 
L 322.968795 95.52 
L 324.749379 92.16 
L 326.568581 88.8 
L 326.727273 88.510317 
L 329.562324 85.44 
L 332.363636 82.243919 
L 332.479265 82.08 
L 334.849419 78.72 
L 337.219572 75.36 
L 338 74.253643 
L 339.589726 72 
L 341.996865 68.64 
L 343.636364 66.404373 
L 344.472731 65.28 
L 346.972076 61.92 
L 349.272727 58.827114 
L 349.47142 58.56 
L 351.970765 55.2 
L 354.470109 51.84 
L 349.272727 51.84 
L 343.636364 51.84 
L 338 51.84 
L 332.363636 51.84 
L 326.727273 51.84 
L 321.090909 51.84 
L 315.454545 51.84 
L 309.818182 51.84 
L 304.181818 51.84 
L 298.545455 51.84 
L 292.909091 51.84 
L 292.699872 51.84 
L 290.707978 55.2 
L 288.716085 58.56 
L 287.272727 60.994708 
L 286.724191 61.92 
L 284.732297 65.28 
L 282.740403 68.64 
L 281.636364 70.502335 
L 280.754756 72 
L 278.814131 75.36 
L 276.89767 78.72 
L 276 80.293822 
L 274.981208 82.08 
L 273.064746 85.44 
L 271.148284 88.8 
L 270.363636 90.175669 
L 269.263247 92.16 
L 267.433068 95.52 
L 265.616403 98.88 
L 264.727273 100.524486 
L 263.740946 102.24 
L 261.561741 105.6 
L 259.090909 108.826063 
L 259.009052 108.96 
L 257.073845 112.32 
L 255.341826 115.68 
L 253.782588 119.04 
L 253.454545 119.792318 
L 252.511544 122.4 
L 251.307408 125.76 
L 250.1154 129.12 
L 248.935338 132.48 
L 247.818182 135.692217 
L 247.731078 135.84 
L 245.639352 139.2 
L 243.30954 142.56 
L 242.181818 144.059711 
L 241.546766 145.92 
L 240.426385 149.28 
L 239.338998 152.64 
L 238.28317 156 
L 237.257546 159.36 
L 236.545455 161.750789 
L 236.17797 162.72 
L 234.903998 166.08 
L 233.630026 169.44 
L 232.347831 172.8 
L 231.078767 176.16 
L 230.909091 176.616249 
L 229.826168 179.52 
L 228.573416 182.88 
L 227.321012 186.24 
L 226.068956 189.6 
L 225.272727 191.737233 
L 224.818816 192.96 
L 223.561916 196.32 
L 222.28234 199.68 
L 220.980791 203.04 
L 219.656698 206.4 
L 219.636364 206.45115 
L 218.326191 209.76 
L 216.987023 213.12 
L 215.63896 216.48 
L 214.281911 219.84 
L 214 220.535204 
L 213.055041 223.2 
L 211.863558 226.56 
L 210.672074 229.92 
L 209.48059 233.28 
L 208.363636 236.429825 
L 208.287027 236.64 
L 207.055114 240 
L 205.81498 243.36 
L 204.566376 246.72 
L 203.309217 250.08 
L 202.727273 251.627599 
L 202.119952 253.44 
L 200.98475 256.8 
L 199.837311 260.16 
L 198.677435 263.52 
L 197.504919 266.88 
L 197.090909 268.057717 
L 196.361276 270.24 
L 195.241403 273.6 
L 194.125782 276.96 
L 193.014386 280.32 
L 191.907193 283.68 
L 191.454545 285.057318 
L 190.829986 287.04 
L 189.771561 290.4 
L 188.713136 293.76 
L 187.65471 297.12 
L 186.596285 300.48 
L 185.818182 302.950111 
L 185.53786 303.84 
L 184.487285 307.2 
L 183.455629 310.56 
L 182.441625 313.92 
L 181.444823 317.28 
L 180.466381 320.64 
L 180.181818 321.620786 
L 179.491518 324 
L 178.516655 327.36 
L 177.541793 330.72 
L 176.56693 334.08 
L 175.592067 337.44 
L 174.617204 340.8 
L 174.545455 341.057604 
L 173.681358 344.16 
L 172.810541 347.52 
L 171.939724 350.88 
L 171.068907 354.24 
L 170.198091 357.6 
L 169.327274 360.96 
L 168.909091 362.573535 
L 168.456457 364.32 
L 167.58564 367.68 
z
" clip-path="url(#p4123bc3055)" style="fill: #21918c"/>
    <path d="M 208.363636 331.234859 
L 209.32264 330.72 
L 214 329.222873 
L 217.416806 327.36 
L 219.636364 326.071749 
L 223.556882 324 
L 225.272727 323.0451 
L 229.92573 320.64 
L 230.909091 320.11054 
L 236.545455 317.305694 
L 236.600628 317.28 
L 242.181818 314.595395 
L 243.645622 313.92 
L 247.818182 311.94976 
L 250.914965 310.56 
L 253.454545 309.401901 
L 258.435437 307.2 
L 259.090909 306.903292 
L 264.727273 304.486404 
L 266.289183 303.84 
L 270.363636 302.124553 
L 274.367936 300.48 
L 276 299.797899 
L 279.614706 298.325169 
L 281.636364 297.12 
L 287.272727 293.76 
L 292.909091 290.4 
L 298.545455 287.04 
L 298.545455 283.68 
L 304.181818 280.32 
L 309.818182 276.96 
L 315.454545 273.6 
L 321.090909 270.24 
L 326.727273 266.88 
L 332.363636 263.52 
L 338 260.16 
L 343.636364 256.8 
L 343.636364 253.44 
L 349.272727 250.08 
L 354.909091 246.72 
L 360.545455 243.36 
L 366.181818 240 
L 371.818182 236.64 
L 377.454545 233.28 
L 383.090909 229.92 
L 383.090909 229.746604 
L 382.661121 229.92 
L 377.454545 232.020573 
L 374.332873 233.28 
L 371.818182 234.294543 
L 366.181818 236.569467 
L 366.012515 236.64 
L 360.545455 238.877876 
L 357.87209 240 
L 354.909091 241.222362 
L 349.852796 243.36 
L 349.272727 243.601099 
L 343.636364 246.017525 
L 342.001696 246.72 
L 338 248.439672 
L 334.2794 250.08 
L 332.363636 250.909121 
L 326.727273 253.432426 
L 326.710745 253.44 
L 321.090909 256.015265 
L 319.378432 256.8 
L 315.454545 258.598104 
L 312.161922 260.16 
L 309.818182 261.242516 
L 305.087398 263.52 
L 304.181818 263.942124 
L 298.545455 266.68372 
L 298.163618 266.88 
L 292.909091 269.473047 
L 291.42937 270.24 
L 287.272727 272.308308 
L 284.795469 273.6 
L 281.636364 275.214837 
L 278.298821 276.96 
L 276 278.162028 
L 272.048636 280.32 
L 270.363636 281.205699 
L 266.084983 280.32 
L 267.086033 276.96 
L 268.792992 273.6 
L 270.363636 270.508324 
L 270.499951 270.24 
L 272.206911 266.88 
L 273.91387 263.52 
L 275.620829 260.16 
L 276 259.473719 
L 277.477232 256.8 
L 279.354984 253.44 
L 281.232735 250.08 
L 281.636364 249.357758 
L 283.110487 246.72 
L 284.988238 243.36 
L 286.86599 240 
L 287.272727 239.272195 
L 288.552846 236.64 
L 290.069138 233.28 
L 291.467624 229.92 
L 292.824397 226.56 
L 292.909091 226.349345 
L 294.769587 223.2 
L 296.686217 219.84 
L 298.53594 216.48 
L 298.545455 216.462408 
L 301.435584 213.12 
L 304.181818 209.944006 
L 304.296512 209.76 
L 306.501236 206.4 
L 308.937865 203.04 
L 309.818182 201.907185 
L 311.250034 199.68 
L 313.41017 196.32 
L 315.454545 193.140061 
L 315.550814 192.96 
L 317.290051 189.6 
L 318.895227 186.24 
L 320.443626 182.88 
L 321.090909 181.475407 
L 322.399947 179.52 
L 324.615682 176.16 
L 326.727273 172.897767 
L 326.812007 172.8 
L 329.936722 169.44 
L 332.363636 167.122455 
L 333.05797 166.08 
L 335.190396 162.72 
L 337.491854 159.36 
L 338 158.66016 
L 339.927937 156 
L 342.47898 152.64 
L 343.636364 151.082435 
L 344.915385 149.28 
L 347.245052 145.92 
L 349.272727 142.995553 
L 349.574719 142.56 
L 351.904386 139.2 
L 354.234053 135.84 
L 354.909091 134.866416 
L 356.374137 132.48 
L 358.493654 129.12 
L 360.545455 126.067599 
L 360.805101 125.76 
L 363.542373 122.4 
L 366.110122 119.04 
L 366.181818 118.943098 
L 368.890986 115.68 
L 371.680606 112.32 
L 371.818182 112.150485 
L 374.21593 108.96 
L 376.685867 105.6 
L 377.454545 104.554322 
L 379.155805 102.24 
L 381.625742 98.88 
L 383.090909 96.886847 
L 383.964703 95.52 
L 386.173791 92.16 
L 388.474087 88.8 
L 388.727273 88.438461 
L 390.976232 85.44 
L 393.455177 82.08 
L 394.363636 80.833957 
L 396.327639 78.72 
L 399.620547 75.36 
L 400 74.98683 
L 402.99874 72 
L 405.636364 69.159214 
L 406.092121 68.64 
L 409.041476 65.28 
L 411.272727 62.738088 
L 411.990832 61.92 
L 414.940187 58.56 
L 416.909091 56.316962 
L 417.889542 55.2 
L 420.838898 51.84 
L 416.909091 51.84 
L 411.272727 51.84 
L 405.636364 51.84 
L 400 51.84 
L 394.363636 51.84 
L 388.727273 51.84 
L 383.090909 51.84 
L 377.454545 51.84 
L 371.818182 51.84 
L 366.181818 51.84 
L 360.545455 51.84 
L 354.909091 51.84 
L 354.470109 51.84 
L 351.970765 55.2 
L 349.47142 58.56 
L 349.272727 58.827114 
L 346.972076 61.92 
L 344.472731 65.28 
L 343.636364 66.404373 
L 341.996865 68.64 
L 339.589726 72 
L 338 74.253643 
L 337.219572 75.36 
L 334.849419 78.72 
L 332.479265 82.08 
L 332.363636 82.243919 
L 329.562324 85.44 
L 326.727273 88.510317 
L 326.568581 88.8 
L 324.749379 92.16 
L 322.968795 95.52 
L 321.212785 98.88 
L 321.090909 99.103707 
L 319.227914 102.24 
L 317.307463 105.6 
L 315.460648 108.96 
L 315.454545 108.971321 
L 313.534215 112.32 
L 311.607392 115.68 
L 309.818182 118.80003 
L 309.647798 119.04 
L 307.152142 122.4 
L 304.458058 125.76 
L 304.181818 126.104527 
L 302.597309 129.12 
L 300.773976 132.48 
L 298.886633 135.84 
L 298.545455 136.435061 
L 297.044147 139.2 
L 295.219734 142.56 
L 293.395321 145.92 
L 292.909091 146.815484 
L 291.642174 149.28 
L 289.979192 152.64 
L 288.386101 156 
L 287.272727 158.387195 
L 286.766376 159.36 
L 285.013286 162.72 
L 283.260196 166.08 
L 281.636364 169.192262 
L 281.507106 169.44 
L 279.754016 172.8 
L 278.000926 176.16 
L 276.247836 179.52 
L 276 179.995006 
L 274.490193 182.88 
L 272.697444 186.24 
L 270.866605 189.6 
L 270.363636 190.510728 
L 267.76208 192.96 
L 264.727273 196.001726 
L 264.458046 196.32 
L 261.849463 199.68 
L 259.605266 203.04 
L 259.090909 203.882414 
L 258.335469 206.4 
L 257.327249 209.76 
L 256.319029 213.12 
L 255.31081 216.48 
L 254.30259 219.84 
L 253.454545 222.6662 
L 253.246466 223.2 
L 251.893775 226.56 
L 250.451248 229.92 
L 248.861073 233.28 
L 247.818182 235.358927 
L 243.390481 236.64 
L 242.181818 237.046209 
L 241.302288 240 
L 240.301804 243.36 
L 239.301319 246.72 
L 238.300835 250.08 
L 237.30035 253.44 
L 236.545455 255.975222 
L 236.299855 256.8 
L 235.299382 260.16 
L 234.234349 263.52 
L 233.098407 266.88 
L 231.887493 270.24 
L 230.909091 272.801977 
L 230.573059 273.6 
L 229.158231 276.96 
L 227.743403 280.32 
L 226.328574 283.68 
L 225.272727 286.187474 
L 224.913746 287.04 
L 223.498918 290.4 
L 222.084089 293.76 
L 220.669261 297.12 
L 219.636364 299.572972 
L 219.254432 300.48 
L 217.941796 303.84 
L 216.663223 307.2 
L 215.384651 310.56 
L 214.106078 313.92 
L 214 314.198766 
L 212.827506 317.28 
L 211.548933 320.64 
L 210.27036 324 
L 209.137438 327.36 
L 208.363636 329.010738 
L 207.713215 330.72 
z
M 263.672114 283.68 
L 264.727273 281.603012 
L 265.602716 283.68 
L 264.727273 284.139546 
z
" clip-path="url(#p4123bc3055)" style="fill: #25ab82"/>
    <path d="M 264.727273 284.139546 
L 265.602716 283.68 
L 264.727273 281.603012 
L 263.672114 283.68 
z
M 270.363636 281.205699 
L 272.048636 280.32 
L 276 278.162028 
L 278.298821 276.96 
L 281.636364 275.214837 
L 284.795469 273.6 
L 287.272727 272.308308 
L 291.42937 270.24 
L 292.909091 269.473047 
L 298.163618 266.88 
L 298.545455 266.68372 
L 304.181818 263.942124 
L 305.087398 263.52 
L 309.818182 261.242516 
L 312.161922 260.16 
L 315.454545 258.598104 
L 319.378432 256.8 
L 321.090909 256.015265 
L 326.710745 253.44 
L 326.727273 253.432426 
L 332.363636 250.909121 
L 334.2794 250.08 
L 338 248.439672 
L 342.001696 246.72 
L 343.636364 246.017525 
L 349.272727 243.601099 
L 349.852796 243.36 
L 354.909091 241.222362 
L 357.87209 240 
L 360.545455 238.877876 
L 366.012515 236.64 
L 366.181818 236.569467 
L 371.818182 234.294543 
L 374.332873 233.28 
L 377.454545 232.020573 
L 382.661121 229.92 
L 383.090909 229.746604 
L 383.090909 226.56 
L 388.727273 223.2 
L 394.363636 219.84 
L 400 216.48 
L 405.636364 213.12 
L 411.272727 209.76 
L 416.909091 206.4 
L 422.545455 203.04 
L 428.181818 199.68 
L 428.181818 196.32 
L 433.818182 192.96 
L 439.454545 189.6 
L 445.090909 186.24 
L 450.727273 182.88 
L 456.363636 179.52 
L 462 176.16 
L 467.636364 172.8 
L 473.272727 169.44 
L 473.272727 166.531608 
L 467.636364 168.805577 
L 466.063854 169.44 
L 462 171.079546 
L 457.735606 172.8 
L 456.363636 173.353516 
L 450.727273 175.639958 
L 449.484462 176.16 
L 445.090909 177.966675 
L 441.405767 179.52 
L 439.454545 180.328491 
L 433.818182 182.725865 
L 433.459507 182.88 
L 428.181818 185.148012 
L 425.640749 186.24 
L 422.545455 187.570159 
L 417.821991 189.6 
L 416.909091 189.992306 
L 411.272727 192.442803 
L 410.130171 192.96 
L 405.636364 194.946595 
L 402.624668 196.32 
L 400 197.497931 
L 395.23821 199.68 
L 394.363636 200.08077 
L 388.727273 202.663608 
L 387.905898 203.04 
L 383.090909 205.246447 
L 380.670199 206.4 
L 377.454545 207.886757 
L 373.566726 209.76 
L 371.818182 210.575839 
L 366.577238 213.12 
L 366.181818 213.306066 
L 360.545455 216.062792 
L 359.621345 216.48 
L 354.909091 218.751243 
L 351.884153 219.84 
L 349.272727 221.021926 
L 347.110966 219.84 
L 349.272727 216.53393 
L 349.310521 216.48 
L 351.71498 213.12 
L 354.122142 209.76 
L 354.909091 208.641461 
L 356.644869 206.4 
L 359.346486 203.04 
L 360.545455 201.596713 
L 362.047706 199.68 
L 364.681008 196.32 
L 366.181818 194.405314 
L 367.314604 192.96 
L 369.948052 189.6 
L 371.818182 187.213914 
L 372.581501 186.24 
L 375.21495 182.88 
L 377.454545 180.022514 
L 377.848398 179.52 
L 380.481847 176.16 
L 383.090909 172.831114 
L 383.115167 172.8 
L 385.663689 169.44 
L 388.078749 166.08 
L 388.727273 165.146729 
L 390.644366 162.72 
L 393.298735 159.36 
L 394.363636 158.012008 
L 395.953105 156 
L 398.607474 152.64 
L 400 150.877288 
L 401.261843 149.28 
L 403.916212 145.92 
L 405.636364 143.742567 
L 406.648457 142.56 
L 409.64437 139.2 
L 411.272727 137.456987 
L 412.979241 135.84 
L 416.51964 132.48 
L 416.909091 132.109953 
L 419.750302 129.12 
L 422.545455 126.12835 
L 422.873875 125.76 
L 425.844673 122.4 
L 428.181818 119.720697 
L 428.791894 119.04 
L 431.806331 115.68 
L 433.818182 113.431886 
L 434.814712 112.32 
L 437.826121 108.96 
L 439.454545 107.143075 
L 440.83753 105.6 
L 443.848939 102.24 
L 445.090909 100.854264 
L 446.860348 98.88 
L 449.871757 95.52 
L 450.727273 94.565453 
L 453.158261 92.16 
L 456.363636 89.044864 
L 456.619107 88.8 
L 460.081078 85.44 
L 462 83.543444 
L 463.455927 82.08 
L 466.79867 78.72 
L 467.636364 77.877981 
L 470.141412 75.36 
L 473.272727 72.212519 
L 473.484155 72 
L 476.826897 68.64 
L 478.909091 66.547056 
L 480.169639 65.28 
L 483.512382 61.92 
L 484.545455 60.881594 
L 486.855124 58.56 
L 490.181818 55.216131 
L 490.197867 55.2 
L 493.540609 51.84 
L 490.181818 51.84 
L 484.545455 51.84 
L 478.909091 51.84 
L 473.272727 51.84 
L 467.636364 51.84 
L 462 51.84 
L 456.363636 51.84 
L 450.727273 51.84 
L 445.090909 51.84 
L 439.454545 51.84 
L 433.818182 51.84 
L 428.181818 51.84 
L 422.545455 51.84 
L 420.838898 51.84 
L 417.889542 55.2 
L 416.909091 56.316962 
L 414.940187 58.56 
L 411.990832 61.92 
L 411.272727 62.738088 
L 409.041476 65.28 
L 406.092121 68.64 
L 405.636364 69.159214 
L 402.99874 72 
L 400 74.98683 
L 399.620547 75.36 
L 396.327639 78.72 
L 394.363636 80.833957 
L 393.455177 82.08 
L 390.976232 85.44 
L 388.727273 88.438461 
L 388.474087 88.8 
L 386.173791 92.16 
L 383.964703 95.52 
L 383.090909 96.886847 
L 381.625742 98.88 
L 379.155805 102.24 
L 377.454545 104.554322 
L 376.685867 105.6 
L 374.21593 108.96 
L 371.818182 112.150485 
L 371.680606 112.32 
L 368.890986 115.68 
L 366.181818 118.943098 
L 366.110122 119.04 
L 363.542373 122.4 
L 360.805101 125.76 
L 360.545455 126.067599 
L 358.493654 129.12 
L 356.374137 132.48 
L 354.909091 134.866416 
L 354.234053 135.84 
L 351.904386 139.2 
L 349.574719 142.56 
L 349.272727 142.995553 
L 347.245052 145.92 
L 344.915385 149.28 
L 343.636364 151.082435 
L 342.47898 152.64 
L 339.927937 156 
L 338 158.66016 
L 337.491854 159.36 
L 335.190396 162.72 
L 333.05797 166.08 
L 332.363636 167.122455 
L 329.936722 169.44 
L 326.812007 172.8 
L 326.727273 172.897767 
L 324.615682 176.16 
L 322.399947 179.52 
L 321.090909 181.475407 
L 320.443626 182.88 
L 318.895227 186.24 
L 317.290051 189.6 
L 315.550814 192.96 
L 315.454545 193.140061 
L 313.41017 196.32 
L 311.250034 199.68 
L 309.818182 201.907185 
L 308.937865 203.04 
L 306.501236 206.4 
L 304.296512 209.76 
L 304.181818 209.944006 
L 301.435584 213.12 
L 298.545455 216.462408 
L 298.53594 216.48 
L 296.686217 219.84 
L 294.769587 223.2 
L 292.909091 226.349345 
L 292.824397 226.56 
L 291.467624 229.92 
L 290.069138 233.28 
L 288.552846 236.64 
L 287.272727 239.272195 
L 286.86599 240 
L 284.988238 243.36 
L 283.110487 246.72 
L 281.636364 249.357758 
L 281.232735 250.08 
L 279.354984 253.44 
L 277.477232 256.8 
L 276 259.473719 
L 275.620829 260.16 
L 273.91387 263.52 
L 272.206911 266.88 
L 270.499951 270.24 
L 270.363636 270.508324 
L 268.792992 273.6 
L 267.086033 276.96 
L 266.084983 280.32 
z
" clip-path="url(#p4123bc3055)" style="fill: #4ec36b"/>
    <path d="M 349.272727 221.021926 
L 351.884153 219.84 
L 354.909091 218.751243 
L 359.621345 216.48 
L 360.545455 216.062792 
L 366.181818 213.306066 
L 366.577238 213.12 
L 371.818182 210.575839 
L 373.566726 209.76 
L 377.454545 207.886757 
L 380.670199 206.4 
L 383.090909 205.246447 
L 387.905898 203.04 
L 388.727273 202.663608 
L 394.363636 200.08077 
L 395.23821 199.68 
L 400 197.497931 
L 402.624668 196.32 
L 405.636364 194.946595 
L 410.130171 192.96 
L 411.272727 192.442803 
L 416.909091 189.992306 
L 417.821991 189.6 
L 422.545455 187.570159 
L 425.640749 186.24 
L 428.181818 185.148012 
L 433.459507 182.88 
L 433.818182 182.725865 
L 439.454545 180.328491 
L 441.405767 179.52 
L 445.090909 177.966675 
L 449.484462 176.16 
L 450.727273 175.639958 
L 456.363636 173.353516 
L 457.735606 172.8 
L 462 171.079546 
L 466.063854 169.44 
L 467.636364 168.805577 
L 473.272727 166.531608 
L 473.272727 166.08 
L 478.909091 162.72 
L 484.545455 159.36 
L 490.181818 156 
L 495.818182 152.64 
L 501.454545 149.28 
L 507.090909 145.92 
L 512.727273 142.56 
L 512.727273 139.2 
L 518.363636 135.84 
L 524 132.48 
L 529.636364 129.12 
L 535.272727 125.76 
L 540.909091 122.4 
L 546.545455 119.04 
L 552.181818 115.68 
L 557.818182 112.32 
L 557.818182 108.96 
L 563.454545 105.6 
L 569.090909 102.24 
L 574.727273 98.88 
L 575.305048 98.535572 
L 574.727273 98.768673 
L 574.451332 98.88 
L 569.090909 101.042642 
L 566.123083 102.24 
L 563.454545 103.316611 
L 557.818182 105.590581 
L 557.794835 105.6 
L 552.181818 107.86455 
L 549.466587 108.96 
L 546.545455 110.13852 
L 541.138338 112.32 
L 540.909091 112.412489 
L 535.272727 114.719527 
L 532.987162 115.68 
L 529.636364 117.064033 
L 524.967732 119.04 
L 524 119.442697 
L 518.363636 121.856352 
L 517.098561 122.4 
L 512.727273 124.278499 
L 509.279803 125.76 
L 507.090909 126.700646 
L 501.461045 129.12 
L 501.454545 129.122793 
L 495.818182 131.083482 
L 492.756314 132.48 
L 490.181818 133.473445 
L 487.624641 132.48 
L 490.181818 129.970316 
L 491.131453 129.12 
L 494.72262 125.76 
L 495.818182 124.749377 
L 498.397169 122.4 
L 501.454545 119.560037 
L 502.036528 119.04 
L 505.649812 115.68 
L 507.090909 114.350632 
L 509.311179 112.32 
L 512.727273 109.153822 
L 512.944627 108.96 
L 516.577004 105.6 
L 518.363636 103.951886 
L 520.228016 102.24 
L 523.861799 98.88 
L 524 98.752514 
L 527.504196 95.52 
L 529.636364 93.566752 
L 531.206031 92.16 
L 534.875002 88.8 
L 535.272727 88.433416 
L 538.902898 85.44 
L 540.909091 83.753298 
L 542.927376 82.08 
L 546.545455 79.080361 
L 546.980112 78.72 
L 551.032849 75.36 
L 552.181818 74.407425 
L 555.021753 72 
L 557.818182 69.601206 
L 558.929759 68.64 
L 562.815399 65.28 
L 563.454545 64.727315 
L 566.701038 61.92 
L 569.090909 59.853425 
L 570.586678 58.56 
L 574.472317 55.2 
L 574.727273 54.979534 
L 578.357957 51.84 
L 574.727273 51.84 
L 569.090909 51.84 
L 563.454545 51.84 
L 557.818182 51.84 
L 552.181818 51.84 
L 546.545455 51.84 
L 540.909091 51.84 
L 535.272727 51.84 
L 529.636364 51.84 
L 524 51.84 
L 518.363636 51.84 
L 512.727273 51.84 
L 507.090909 51.84 
L 501.454545 51.84 
L 495.818182 51.84 
L 493.540609 51.84 
L 490.197867 55.2 
L 490.181818 55.216131 
L 486.855124 58.56 
L 484.545455 60.881594 
L 483.512382 61.92 
L 480.169639 65.28 
L 478.909091 66.547056 
L 476.826897 68.64 
L 473.484155 72 
L 473.272727 72.212519 
L 470.141412 75.36 
L 467.636364 77.877981 
L 466.79867 78.72 
L 463.455927 82.08 
L 462 83.543444 
L 460.081078 85.44 
L 456.619107 88.8 
L 456.363636 89.044864 
L 453.158261 92.16 
L 450.727273 94.565453 
L 449.871757 95.52 
L 446.860348 98.88 
L 445.090909 100.854264 
L 443.848939 102.24 
L 440.83753 105.6 
L 439.454545 107.143075 
L 437.826121 108.96 
L 434.814712 112.32 
L 433.818182 113.431886 
L 431.806331 115.68 
L 428.791894 119.04 
L 428.181818 119.720697 
L 425.844673 122.4 
L 422.873875 125.76 
L 422.545455 126.12835 
L 419.750302 129.12 
L 416.909091 132.109953 
L 416.51964 132.48 
L 412.979241 135.84 
L 411.272727 137.456987 
L 409.64437 139.2 
L 406.648457 142.56 
L 405.636364 143.742567 
L 403.916212 145.92 
L 401.261843 149.28 
L 400 150.877288 
L 398.607474 152.64 
L 395.953105 156 
L 394.363636 158.012008 
L 393.298735 159.36 
L 390.644366 162.72 
L 388.727273 165.146729 
L 388.078749 166.08 
L 385.663689 169.44 
L 383.115167 172.8 
L 383.090909 172.831114 
L 380.481847 176.16 
L 377.848398 179.52 
L 377.454545 180.022514 
L 375.21495 182.88 
L 372.581501 186.24 
L 371.818182 187.213914 
L 369.948052 189.6 
L 367.314604 192.96 
L 366.181818 194.405314 
L 364.681008 196.32 
L 362.047706 199.68 
L 360.545455 201.596713 
L 359.346486 203.04 
L 356.644869 206.4 
L 354.909091 208.641461 
L 354.122142 209.76 
L 351.71498 213.12 
L 349.310521 216.48 
L 349.272727 216.53393 
L 347.110966 219.84 
z
M 484.093965 135.84 
L 484.545455 135.387433 
L 484.956587 135.84 
L 484.545455 136.007385 
z
" clip-path="url(#p4123bc3055)" style="fill: #90d743"/>
    <path d="M 484.545455 136.007385 
L 484.956587 135.84 
L 484.545455 135.387433 
L 484.093965 135.84 
z
M 490.181818 133.473445 
L 492.756314 132.48 
L 495.818182 131.083482 
L 501.454545 129.122793 
L 501.461045 129.12 
L 507.090909 126.700646 
L 509.279803 125.76 
L 512.727273 124.278499 
L 517.098561 122.4 
L 518.363636 121.856352 
L 524 119.442697 
L 524.967732 119.04 
L 529.636364 117.064033 
L 532.987162 115.68 
L 535.272727 114.719527 
L 540.909091 112.412489 
L 541.138338 112.32 
L 546.545455 110.13852 
L 549.466587 108.96 
L 552.181818 107.86455 
L 557.794835 105.6 
L 557.818182 105.590581 
L 563.454545 103.316611 
L 566.123083 102.24 
L 569.090909 101.042642 
L 574.451332 98.88 
L 574.727273 98.768673 
L 575.305048 98.535572 
L 580.363636 95.52 
L 586 92.16 
L 591.636364 88.8 
L 597.272727 85.44 
L 602.909091 82.08 
L 602.909091 78.72 
L 608.545455 75.36 
L 614.181818 72 
L 619.818182 68.64 
L 625.454545 65.28 
L 631.090909 61.92 
L 636.727273 58.56 
L 642.363636 55.2 
L 648 51.84 
L 642.363636 51.84 
L 636.727273 51.84 
L 631.090909 51.84 
L 625.454545 51.84 
L 619.818182 51.84 
L 614.181818 51.84 
L 608.545455 51.84 
L 602.909091 51.84 
L 597.272727 51.84 
L 591.636364 51.84 
L 586 51.84 
L 580.363636 51.84 
L 578.357957 51.84 
L 574.727273 54.979534 
L 574.472317 55.2 
L 570.586678 58.56 
L 569.090909 59.853425 
L 566.701038 61.92 
L 563.454545 64.727315 
L 562.815399 65.28 
L 558.929759 68.64 
L 557.818182 69.601206 
L 555.021753 72 
L 552.181818 74.407425 
L 551.032849 75.36 
L 546.980112 78.72 
L 546.545455 79.080361 
L 542.927376 82.08 
L 540.909091 83.753298 
L 538.902898 85.44 
L 535.272727 88.433416 
L 534.875002 88.8 
L 531.206031 92.16 
L 529.636364 93.566752 
L 527.504196 95.52 
L 524 98.752514 
L 523.861799 98.88 
L 520.228016 102.24 
L 518.363636 103.951886 
L 516.577004 105.6 
L 512.944627 108.96 
L 512.727273 109.153822 
L 509.311179 112.32 
L 507.090909 114.350632 
L 505.649812 115.68 
L 502.036528 119.04 
L 501.454545 119.560037 
L 498.397169 122.4 
L 495.818182 124.749377 
L 494.72262 125.76 
L 491.131453 129.12 
L 490.181818 129.970316 
L 487.624641 132.48 
z
" clip-path="url(#p4123bc3055)" style="fill: #dae319"/>
   </g>
   <g id="matplotlib.axis_1">
    <g id="xtick_1">
     <g id="line2d_1">
      <path d="M 140.641248 384.48 
L 140.641248 51.84 
" clip-path="url(#p4123bc3055)" style="fill: none; stroke: #b0b0b0; stroke-width: 0.8; stroke-linecap: square"/>
     </g>
     <g id="line2d_2">
      <defs>
       <path id="mcfdca5f9e1" d="M 0 0 
L 0 3.5 
" style="stroke: #000000; stroke-width: 0.8"/>
      </defs>
      <g>
       <use xlink:href="#mcfdca5f9e1" x="140.641248" y="384.48" style="stroke: #000000; stroke-width: 0.8"/>
      </g>
     </g>
     <g id="text_1">
      <!-- 1000 -->
      <g transform="translate(127.916248 399.078438) scale(0.1 -0.1)">
       <defs>
        <path id="DejaVuSans-31" d="M 794 531 
L 1825 531 
L 1825 4091 
L 703 3866 
L 703 4441 
L 1819 4666 
L 2450 4666 
L 2450 531 
L 3481 531 
L 3481 0 
L 794 0 
L 794 531 
z
" transform="scale(0.015625)"/>
        <path id="DejaVuSans-30" d="M 2034 4250 
Q 1547 4250 1301 3770 
Q 1056 3291 1056 2328 
Q 1056 1369 1301 889 
Q 1547 409 2034 409 
Q 2525 409 2770 889 
Q 3016 1369 3016 2328 
Q 3016 3291 2770 3770 
Q 2525 4250 2034 4250 
z
M 2034 4750 
Q 2819 4750 3233 4129 
Q 3647 3509 3647 2328 
Q 3647 1150 3233 529 
Q 2819 -91 2034 -91 
Q 1250 -91 836 529 
Q 422 1150 422 2328 
Q 422 3509 836 4129 
Q 1250 4750 2034 4750 
z
" transform="scale(0.015625)"/>
       </defs>
       <use xlink:href="#DejaVuSans-31"/>
       <use xlink:href="#DejaVuSans-30" x="63.623047"/>
       <use xlink:href="#DejaVuSans-30" x="127.246094"/>
       <use xlink:href="#DejaVuSans-30" x="190.869141"/>
      </g>
     </g>
    </g>
    <g id="xtick_2">
     <g id="line2d_3">
      <path d="M 207.87656 384.48 
L 207.87656 51.84 
" clip-path="url(#p4123bc3055)" style="fill: none; stroke: #b0b0b0; stroke-width: 0.8; stroke-linecap: square"/>
     </g>
     <g id="line2d_4">
      <g>
       <use xlink:href="#mcfdca5f9e1" x="207.87656" y="384.48" style="stroke: #000000; stroke-width: 0.8"/>
      </g>
     </g>
     <g id="text_2">
      <!-- 2000 -->
      <g transform="translate(195.15156 399.078438) scale(0.1 -0.1)">
       <defs>
        <path id="DejaVuSans-32" d="M 1228 531 
L 3431 531 
L 3431 0 
L 469 0 
L 469 531 
Q 828 903 1448 1529 
Q 2069 2156 2228 2338 
Q 2531 2678 2651 2914 
Q 2772 3150 2772 3378 
Q 2772 3750 2511 3984 
Q 2250 4219 1831 4219 
Q 1534 4219 1204 4116 
Q 875 4013 500 3803 
L 500 4441 
Q 881 4594 1212 4672 
Q 1544 4750 1819 4750 
Q 2544 4750 2975 4387 
Q 3406 4025 3406 3419 
Q 3406 3131 3298 2873 
Q 3191 2616 2906 2266 
Q 2828 2175 2409 1742 
Q 1991 1309 1228 531 
z
" transform="scale(0.015625)"/>
       </defs>
       <use xlink:href="#DejaVuSans-32"/>
       <use xlink:href="#DejaVuSans-30" x="63.623047"/>
       <use xlink:href="#DejaVuSans-30" x="127.246094"/>
       <use xlink:href="#DejaVuSans-30" x="190.869141"/>
      </g>
     </g>
    </g>
    <g id="xtick_3">
     <g id="line2d_5">
      <path d="M 275.111872 384.48 
L 275.111872 51.84 
" clip-path="url(#p4123bc3055)" style="fill: none; stroke: #b0b0b0; stroke-width: 0.8; stroke-linecap: square"/>
     </g>
     <g id="line2d_6">
      <g>
       <use xlink:href="#mcfdca5f9e1" x="275.111872" y="384.48" style="stroke: #000000; stroke-width: 0.8"/>
      </g>
     </g>
     <g id="text_3">
      <!-- 3000 -->
      <g transform="translate(262.386872 399.078438) scale(0.1 -0.1)">
       <defs>
        <path id="DejaVuSans-33" d="M 2597 2516 
Q 3050 2419 3304 2112 
Q 3559 1806 3559 1356 
Q 3559 666 3084 287 
Q 2609 -91 1734 -91 
Q 1441 -91 1130 -33 
Q 819 25 488 141 
L 488 750 
Q 750 597 1062 519 
Q 1375 441 1716 441 
Q 2309 441 2620 675 
Q 2931 909 2931 1356 
Q 2931 1769 2642 2001 
Q 2353 2234 1838 2234 
L 1294 2234 
L 1294 2753 
L 1863 2753 
Q 2328 2753 2575 2939 
Q 2822 3125 2822 3475 
Q 2822 3834 2567 4026 
Q 2313 4219 1838 4219 
Q 1578 4219 1281 4162 
Q 984 4106 628 3988 
L 628 4550 
Q 988 4650 1302 4700 
Q 1616 4750 1894 4750 
Q 2613 4750 3031 4423 
Q 3450 4097 3450 3541 
Q 3450 3153 3228 2886 
Q 3006 2619 2597 2516 
z
" transform="scale(0.015625)"/>
       </defs>
       <use xlink:href="#DejaVuSans-33"/>
       <use xlink:href="#DejaVuSans-30" x="63.623047"/>
       <use xlink:href="#DejaVuSans-30" x="127.246094"/>
       <use xlink:href="#DejaVuSans-30" x="190.869141"/>
      </g>
     </g>
    </g>
    <g id="xtick_4">
     <g id="line2d_7">
      <path d="M 342.347185 384.48 
L 342.347185 51.84 
" clip-path="url(#p4123bc3055)" style="fill: none; stroke: #b0b0b0; stroke-width: 0.8; stroke-linecap: square"/>
     </g>
     <g id="line2d_8">
      <g>
       <use xlink:href="#mcfdca5f9e1" x="342.347185" y="384.48" style="stroke: #000000; stroke-width: 0.8"/>
      </g>
     </g>
     <g id="text_4">
      <!-- 4000 -->
      <g transform="translate(329.622185 399.078438) scale(0.1 -0.1)">
       <defs>
        <path id="DejaVuSans-34" d="M 2419 4116 
L 825 1625 
L 2419 1625 
L 2419 4116 
z
M 2253 4666 
L 3047 4666 
L 3047 1625 
L 3713 1625 
L 3713 1100 
L 3047 1100 
L 3047 0 
L 2419 0 
L 2419 1100 
L 313 1100 
L 313 1709 
L 2253 4666 
z
" transform="scale(0.015625)"/>
       </defs>
       <use xlink:href="#DejaVuSans-34"/>
       <use xlink:href="#DejaVuSans-30" x="63.623047"/>
       <use xlink:href="#DejaVuSans-30" x="127.246094"/>
       <use xlink:href="#DejaVuSans-30" x="190.869141"/>
      </g>
     </g>
    </g>
    <g id="xtick_5">
     <g id="line2d_9">
      <path d="M 409.582497 384.48 
L 409.582497 51.84 
" clip-path="url(#p4123bc3055)" style="fill: none; stroke: #b0b0b0; stroke-width: 0.8; stroke-linecap: square"/>
     </g>
     <g id="line2d_10">
      <g>
       <use xlink:href="#mcfdca5f9e1" x="409.582497" y="384.48" style="stroke: #000000; stroke-width: 0.8"/>
      </g>
     </g>
     <g id="text_5">
      <!-- 5000 -->
      <g transform="translate(396.857497 399.078438) scale(0.1 -0.1)">
       <defs>
        <path id="DejaVuSans-35" d="M 691 4666 
L 3169 4666 
L 3169 4134 
L 1269 4134 
L 1269 2991 
Q 1406 3038 1543 3061 
Q 1681 3084 1819 3084 
Q 2600 3084 3056 2656 
Q 3513 2228 3513 1497 
Q 3513 744 3044 326 
Q 2575 -91 1722 -91 
Q 1428 -91 1123 -41 
Q 819 9 494 109 
L 494 744 
Q 775 591 1075 516 
Q 1375 441 1709 441 
Q 2250 441 2565 725 
Q 2881 1009 2881 1497 
Q 2881 1984 2565 2268 
Q 2250 2553 1709 2553 
Q 1456 2553 1204 2497 
Q 953 2441 691 2322 
L 691 4666 
z
" transform="scale(0.015625)"/>
       </defs>
       <use xlink:href="#DejaVuSans-35"/>
       <use xlink:href="#DejaVuSans-30" x="63.623047"/>
       <use xlink:href="#DejaVuSans-30" x="127.246094"/>
       <use xlink:href="#DejaVuSans-30" x="190.869141"/>
      </g>
     </g>
    </g>
    <g id="xtick_6">
     <g id="line2d_11">
      <path d="M 476.817809 384.48 
L 476.817809 51.84 
" clip-path="url(#p4123bc3055)" style="fill: none; stroke: #b0b0b0; stroke-width: 0.8; stroke-linecap: square"/>
     </g>
     <g id="line2d_12">
      <g>
       <use xlink:href="#mcfdca5f9e1" x="476.817809" y="384.48" style="stroke: #000000; stroke-width: 0.8"/>
      </g>
     </g>
     <g id="text_6">
      <!-- 6000 -->
      <g transform="translate(464.092809 399.078438) scale(0.1 -0.1)">
       <defs>
        <path id="DejaVuSans-36" d="M 2113 2584 
Q 1688 2584 1439 2293 
Q 1191 2003 1191 1497 
Q 1191 994 1439 701 
Q 1688 409 2113 409 
Q 2538 409 2786 701 
Q 3034 994 3034 1497 
Q 3034 2003 2786 2293 
Q 2538 2584 2113 2584 
z
M 3366 4563 
L 3366 3988 
Q 3128 4100 2886 4159 
Q 2644 4219 2406 4219 
Q 1781 4219 1451 3797 
Q 1122 3375 1075 2522 
Q 1259 2794 1537 2939 
Q 1816 3084 2150 3084 
Q 2853 3084 3261 2657 
Q 3669 2231 3669 1497 
Q 3669 778 3244 343 
Q 2819 -91 2113 -91 
Q 1303 -91 875 529 
Q 447 1150 447 2328 
Q 447 3434 972 4092 
Q 1497 4750 2381 4750 
Q 2619 4750 2861 4703 
Q 3103 4656 3366 4563 
z
" transform="scale(0.015625)"/>
       </defs>
       <use xlink:href="#DejaVuSans-36"/>
       <use xlink:href="#DejaVuSans-30" x="63.623047"/>
       <use xlink:href="#DejaVuSans-30" x="127.246094"/>
       <use xlink:href="#DejaVuSans-30" x="190.869141"/>
      </g>
     </g>
    </g>
    <g id="xtick_7">
     <g id="line2d_13">
      <path d="M 544.053121 384.48 
L 544.053121 51.84 
" clip-path="url(#p4123bc3055)" style="fill: none; stroke: #b0b0b0; stroke-width: 0.8; stroke-linecap: square"/>
     </g>
     <g id="line2d_14">
      <g>
       <use xlink:href="#mcfdca5f9e1" x="544.053121" y="384.48" style="stroke: #000000; stroke-width: 0.8"/>
      </g>
     </g>
     <g id="text_7">
      <!-- 7000 -->
      <g transform="translate(531.328121 399.078438) scale(0.1 -0.1)">
       <defs>
        <path id="DejaVuSans-37" d="M 525 4666 
L 3525 4666 
L 3525 4397 
L 1831 0 
L 1172 0 
L 2766 4134 
L 525 4134 
L 525 4666 
z
" transform="scale(0.015625)"/>
       </defs>
       <use xlink:href="#DejaVuSans-37"/>
       <use xlink:href="#DejaVuSans-30" x="63.623047"/>
       <use xlink:href="#DejaVuSans-30" x="127.246094"/>
       <use xlink:href="#DejaVuSans-30" x="190.869141"/>
      </g>
     </g>
    </g>
    <g id="xtick_8">
     <g id="line2d_15">
      <path d="M 611.288433 384.48 
L 611.288433 51.84 
" clip-path="url(#p4123bc3055)" style="fill: none; stroke: #b0b0b0; stroke-width: 0.8; stroke-linecap: square"/>
     </g>
     <g id="line2d_16">
      <g>
       <use xlink:href="#mcfdca5f9e1" x="611.288433" y="384.48" style="stroke: #000000; stroke-width: 0.8"/>
      </g>
     </g>
     <g id="text_8">
      <!-- 8000 -->
      <g transform="translate(598.563433 399.078438) scale(0.1 -0.1)">
       <defs>
        <path id="DejaVuSans-38" d="M 2034 2216 
Q 1584 2216 1326 1975 
Q 1069 1734 1069 1313 
Q 1069 891 1326 650 
Q 1584 409 2034 409 
Q 2484 409 2743 651 
Q 3003 894 3003 1313 
Q 3003 1734 2745 1975 
Q 2488 2216 2034 2216 
z
M 1403 2484 
Q 997 2584 770 2862 
Q 544 3141 544 3541 
Q 544 4100 942 4425 
Q 1341 4750 2034 4750 
Q 2731 4750 3128 4425 
Q 3525 4100 3525 3541 
Q 3525 3141 3298 2862 
Q 3072 2584 2669 2484 
Q 3125 2378 3379 2068 
Q 3634 1759 3634 1313 
Q 3634 634 3220 271 
Q 2806 -91 2034 -91 
Q 1263 -91 848 271 
Q 434 634 434 1313 
Q 434 1759 690 2068 
Q 947 2378 1403 2484 
z
M 1172 3481 
Q 1172 3119 1398 2916 
Q 1625 2713 2034 2713 
Q 2441 2713 2670 2916 
Q 2900 3119 2900 3481 
Q 2900 3844 2670 4047 
Q 2441 4250 2034 4250 
Q 1625 4250 1398 4047 
Q 1172 3844 1172 3481 
z
" transform="scale(0.015625)"/>
       </defs>
       <use xlink:href="#DejaVuSans-38"/>
       <use xlink:href="#DejaVuSans-30" x="63.623047"/>
       <use xlink:href="#DejaVuSans-30" x="127.246094"/>
       <use xlink:href="#DejaVuSans-30" x="190.869141"/>
      </g>
     </g>
    </g>
    <g id="text_9">
     <!-- $\dot{W}_{exp}$ [W] -->
     <g transform="translate(324.9 426.358125) scale(0.2 -0.2)">
      <defs>
       <path id="DejaVuSans-307" d="M -1894 4863 
L -1319 4863 
L -1319 4134 
L -1894 4134 
L -1894 4863 
z
M -1600 3584 
L -1600 3584 
z
" transform="scale(0.015625)"/>
       <path id="DejaVuSans-Oblique-57" d="M 616 4666 
L 1228 4666 
L 1453 697 
L 3213 4666 
L 3916 4666 
L 4147 697 
L 5888 4666 
L 6528 4666 
L 4453 0 
L 3659 0 
L 3444 3891 
L 1697 0 
L 903 0 
L 616 4666 
z
" transform="scale(0.015625)"/>
       <path id="DejaVuSans-Oblique-65" d="M 3078 2063 
Q 3088 2113 3092 2166 
Q 3097 2219 3097 2272 
Q 3097 2653 2873 2875 
Q 2650 3097 2266 3097 
Q 1838 3097 1509 2826 
Q 1181 2556 1013 2059 
L 3078 2063 
z
M 3578 1613 
L 903 1613 
Q 884 1494 878 1425 
Q 872 1356 872 1306 
Q 872 872 1139 634 
Q 1406 397 1894 397 
Q 2269 397 2603 481 
Q 2938 566 3225 728 
L 3116 159 
Q 2806 34 2476 -28 
Q 2147 -91 1806 -91 
Q 1078 -91 686 257 
Q 294 606 294 1247 
Q 294 1794 489 2264 
Q 684 2734 1063 3103 
Q 1306 3334 1642 3459 
Q 1978 3584 2356 3584 
Q 2950 3584 3301 3228 
Q 3653 2872 3653 2272 
Q 3653 2128 3634 1964 
Q 3616 1800 3578 1613 
z
" transform="scale(0.015625)"/>
       <path id="DejaVuSans-Oblique-78" d="M 3841 3500 
L 2234 1784 
L 3219 0 
L 2559 0 
L 1819 1388 
L 531 0 
L -166 0 
L 1556 1844 
L 641 3500 
L 1300 3500 
L 1972 2234 
L 3144 3500 
L 3841 3500 
z
" transform="scale(0.015625)"/>
       <path id="DejaVuSans-Oblique-70" d="M 3175 2156 
Q 3175 2616 2975 2859 
Q 2775 3103 2400 3103 
Q 2144 3103 1911 2972 
Q 1678 2841 1497 2591 
Q 1319 2344 1212 1994 
Q 1106 1644 1106 1300 
Q 1106 863 1306 627 
Q 1506 391 1875 391 
Q 2147 391 2380 519 
Q 2613 647 2778 891 
Q 2956 1147 3065 1494 
Q 3175 1841 3175 2156 
z
M 1394 2969 
Q 1625 3272 1939 3428 
Q 2253 3584 2638 3584 
Q 3175 3584 3472 3232 
Q 3769 2881 3769 2247 
Q 3769 1728 3584 1258 
Q 3400 788 3053 416 
Q 2822 169 2531 39 
Q 2241 -91 1919 -91 
Q 1547 -91 1294 64 
Q 1041 219 916 525 
L 556 -1331 
L -19 -1331 
L 922 3500 
L 1497 3500 
L 1394 2969 
z
" transform="scale(0.015625)"/>
       <path id="DejaVuSans-20" transform="scale(0.015625)"/>
       <path id="DejaVuSans-5b" d="M 550 4863 
L 1875 4863 
L 1875 4416 
L 1125 4416 
L 1125 -397 
L 1875 -397 
L 1875 -844 
L 550 -844 
L 550 4863 
z
" transform="scale(0.015625)"/>
       <path id="DejaVuSans-57" d="M 213 4666 
L 850 4666 
L 1831 722 
L 2809 4666 
L 3519 4666 
L 4500 722 
L 5478 4666 
L 6119 4666 
L 4947 0 
L 4153 0 
L 3169 4050 
L 2175 0 
L 1381 0 
L 213 4666 
z
" transform="scale(0.015625)"/>
       <path id="DejaVuSans-5d" d="M 1947 4863 
L 1947 -844 
L 622 -844 
L 622 -397 
L 1369 -397 
L 1369 4416 
L 622 4416 
L 622 4863 
L 1947 4863 
z
" transform="scale(0.015625)"/>
      </defs>
      <use xlink:href="#DejaVuSans-307" transform="translate(87.312988 30.015625)"/>
      <use xlink:href="#DejaVuSans-Oblique-57" transform="translate(0 0.609375)"/>
      <use xlink:href="#DejaVuSans-Oblique-65" transform="translate(99.833984 -15.796875) scale(0.7)"/>
      <use xlink:href="#DejaVuSans-Oblique-78" transform="translate(142.900391 -15.796875) scale(0.7)"/>
      <use xlink:href="#DejaVuSans-Oblique-70" transform="translate(184.326172 -15.796875) scale(0.7)"/>
      <use xlink:href="#DejaVuSans-20" transform="translate(231.494141 0.609375)"/>
      <use xlink:href="#DejaVuSans-5b" transform="translate(263.28125 0.609375)"/>
      <use xlink:href="#DejaVuSans-57" transform="translate(302.294922 0.609375)"/>
      <use xlink:href="#DejaVuSans-5d" transform="translate(401.171875 0.609375)"/>
     </g>
    </g>
   </g>
   <g id="matplotlib.axis_2">
    <g id="ytick_1">
     <g id="line2d_17">
      <path d="M 90 384.48 
L 648 384.48 
" clip-path="url(#p4123bc3055)" style="fill: none; stroke: #b0b0b0; stroke-width: 0.8; stroke-linecap: square"/>
     </g>
     <g id="line2d_18">
      <defs>
       <path id="m111e21e094" d="M 0 0 
L -3.5 0 
" style="stroke: #000000; stroke-width: 0.8"/>
      </defs>
      <g>
       <use xlink:href="#m111e21e094" x="90" y="384.48" style="stroke: #000000; stroke-width: 0.8"/>
      </g>
     </g>
     <g id="text_10">
      <!-- 60 -->
      <g transform="translate(70.275 388.279219) scale(0.1 -0.1)">
       <use xlink:href="#DejaVuSans-36"/>
       <use xlink:href="#DejaVuSans-30" x="63.623047"/>
      </g>
     </g>
    </g>
    <g id="ytick_2">
     <g id="line2d_19">
      <path d="M 90 342.9 
L 648 342.9 
" clip-path="url(#p4123bc3055)" style="fill: none; stroke: #b0b0b0; stroke-width: 0.8; stroke-linecap: square"/>
     </g>
     <g id="line2d_20">
      <g>
       <use xlink:href="#m111e21e094" x="90" y="342.9" style="stroke: #000000; stroke-width: 0.8"/>
      </g>
     </g>
     <g id="text_11">
      <!-- 65 -->
      <g transform="translate(70.275 346.699219) scale(0.1 -0.1)">
       <use xlink:href="#DejaVuSans-36"/>
       <use xlink:href="#DejaVuSans-35" x="63.623047"/>
      </g>
     </g>
    </g>
    <g id="ytick_3">
     <g id="line2d_21">
      <path d="M 90 301.32 
L 648 301.32 
" clip-path="url(#p4123bc3055)" style="fill: none; stroke: #b0b0b0; stroke-width: 0.8; stroke-linecap: square"/>
     </g>
     <g id="line2d_22">
      <g>
       <use xlink:href="#m111e21e094" x="90" y="301.32" style="stroke: #000000; stroke-width: 0.8"/>
      </g>
     </g>
     <g id="text_12">
      <!-- 70 -->
      <g transform="translate(70.275 305.119219) scale(0.1 -0.1)">
       <use xlink:href="#DejaVuSans-37"/>
       <use xlink:href="#DejaVuSans-30" x="63.623047"/>
      </g>
     </g>
    </g>
    <g id="ytick_4">
     <g id="line2d_23">
      <path d="M 90 259.74 
L 648 259.74 
" clip-path="url(#p4123bc3055)" style="fill: none; stroke: #b0b0b0; stroke-width: 0.8; stroke-linecap: square"/>
     </g>
     <g id="line2d_24">
      <g>
       <use xlink:href="#m111e21e094" x="90" y="259.74" style="stroke: #000000; stroke-width: 0.8"/>
      </g>
     </g>
     <g id="text_13">
      <!-- 75 -->
      <g transform="translate(70.275 263.539219) scale(0.1 -0.1)">
       <use xlink:href="#DejaVuSans-37"/>
       <use xlink:href="#DejaVuSans-35" x="63.623047"/>
      </g>
     </g>
    </g>
    <g id="ytick_5">
     <g id="line2d_25">
      <path d="M 90 218.16 
L 648 218.16 
" clip-path="url(#p4123bc3055)" style="fill: none; stroke: #b0b0b0; stroke-width: 0.8; stroke-linecap: square"/>
     </g>
     <g id="line2d_26">
      <g>
       <use xlink:href="#m111e21e094" x="90" y="218.16" style="stroke: #000000; stroke-width: 0.8"/>
      </g>
     </g>
     <g id="text_14">
      <!-- 80 -->
      <g transform="translate(70.275 221.959219) scale(0.1 -0.1)">
       <use xlink:href="#DejaVuSans-38"/>
       <use xlink:href="#DejaVuSans-30" x="63.623047"/>
      </g>
     </g>
    </g>
    <g id="ytick_6">
     <g id="line2d_27">
      <path d="M 90 176.58 
L 648 176.58 
" clip-path="url(#p4123bc3055)" style="fill: none; stroke: #b0b0b0; stroke-width: 0.8; stroke-linecap: square"/>
     </g>
     <g id="line2d_28">
      <g>
       <use xlink:href="#m111e21e094" x="90" y="176.58" style="stroke: #000000; stroke-width: 0.8"/>
      </g>
     </g>
     <g id="text_15">
      <!-- 85 -->
      <g transform="translate(70.275 180.379219) scale(0.1 -0.1)">
       <use xlink:href="#DejaVuSans-38"/>
       <use xlink:href="#DejaVuSans-35" x="63.623047"/>
      </g>
     </g>
    </g>
    <g id="ytick_7">
     <g id="line2d_29">
      <path d="M 90 135 
L 648 135 
" clip-path="url(#p4123bc3055)" style="fill: none; stroke: #b0b0b0; stroke-width: 0.8; stroke-linecap: square"/>
     </g>
     <g id="line2d_30">
      <g>
       <use xlink:href="#m111e21e094" x="90" y="135" style="stroke: #000000; stroke-width: 0.8"/>
      </g>
     </g>
     <g id="text_16">
      <!-- 90 -->
      <g transform="translate(70.275 138.799219) scale(0.1 -0.1)">
       <defs>
        <path id="DejaVuSans-39" d="M 703 97 
L 703 672 
Q 941 559 1184 500 
Q 1428 441 1663 441 
Q 2288 441 2617 861 
Q 2947 1281 2994 2138 
Q 2813 1869 2534 1725 
Q 2256 1581 1919 1581 
Q 1219 1581 811 2004 
Q 403 2428 403 3163 
Q 403 3881 828 4315 
Q 1253 4750 1959 4750 
Q 2769 4750 3195 4129 
Q 3622 3509 3622 2328 
Q 3622 1225 3098 567 
Q 2575 -91 1691 -91 
Q 1453 -91 1209 -44 
Q 966 3 703 97 
z
M 1959 2075 
Q 2384 2075 2632 2365 
Q 2881 2656 2881 3163 
Q 2881 3666 2632 3958 
Q 2384 4250 1959 4250 
Q 1534 4250 1286 3958 
Q 1038 3666 1038 3163 
Q 1038 2656 1286 2365 
Q 1534 2075 1959 2075 
z
" transform="scale(0.015625)"/>
       </defs>
       <use xlink:href="#DejaVuSans-39"/>
       <use xlink:href="#DejaVuSans-30" x="63.623047"/>
      </g>
     </g>
    </g>
    <g id="ytick_8">
     <g id="line2d_31">
      <path d="M 90 93.42 
L 648 93.42 
" clip-path="url(#p4123bc3055)" style="fill: none; stroke: #b0b0b0; stroke-width: 0.8; stroke-linecap: square"/>
     </g>
     <g id="line2d_32">
      <g>
       <use xlink:href="#m111e21e094" x="90" y="93.42" style="stroke: #000000; stroke-width: 0.8"/>
      </g>
     </g>
     <g id="text_17">
      <!-- 95 -->
      <g transform="translate(70.275 97.219219) scale(0.1 -0.1)">
       <use xlink:href="#DejaVuSans-39"/>
       <use xlink:href="#DejaVuSans-35" x="63.623047"/>
      </g>
     </g>
    </g>
    <g id="ytick_9">
     <g id="line2d_33">
      <path d="M 90 51.84 
L 648 51.84 
" clip-path="url(#p4123bc3055)" style="fill: none; stroke: #b0b0b0; stroke-width: 0.8; stroke-linecap: square"/>
     </g>
     <g id="line2d_34">
      <g>
       <use xlink:href="#m111e21e094" x="90" y="51.84" style="stroke: #000000; stroke-width: 0.8"/>
      </g>
     </g>
     <g id="text_18">
      <!-- 100 -->
      <g transform="translate(63.9125 55.639219) scale(0.1 -0.1)">
       <use xlink:href="#DejaVuSans-31"/>
       <use xlink:href="#DejaVuSans-30" x="63.623047"/>
       <use xlink:href="#DejaVuSans-30" x="127.246094"/>
      </g>
     </g>
    </g>
    <g id="text_19">
     <!-- $T_{sto,HT}$ [C] -->
     <g transform="translate(54.9125 271.36) rotate(-90) scale(0.2 -0.2)">
      <defs>
       <path id="DejaVuSans-Oblique-54" d="M 378 4666 
L 4325 4666 
L 4225 4134 
L 2559 4134 
L 1759 0 
L 1125 0 
L 1925 4134 
L 275 4134 
L 378 4666 
z
" transform="scale(0.015625)"/>
       <path id="DejaVuSans-Oblique-73" d="M 3200 3397 
L 3091 2853 
Q 2863 2978 2609 3040 
Q 2356 3103 2088 3103 
Q 1634 3103 1373 2948 
Q 1113 2794 1113 2528 
Q 1113 2219 1719 2053 
Q 1766 2041 1788 2034 
L 1972 1978 
Q 2547 1819 2739 1644 
Q 2931 1469 2931 1166 
Q 2931 609 2489 259 
Q 2047 -91 1331 -91 
Q 1053 -91 747 -37 
Q 441 16 72 128 
L 184 722 
Q 500 559 806 475 
Q 1113 391 1394 391 
Q 1816 391 2080 572 
Q 2344 753 2344 1031 
Q 2344 1331 1650 1516 
L 1591 1531 
L 1394 1581 
Q 956 1697 753 1886 
Q 550 2075 550 2369 
Q 550 2928 970 3256 
Q 1391 3584 2113 3584 
Q 2397 3584 2667 3537 
Q 2938 3491 3200 3397 
z
" transform="scale(0.015625)"/>
       <path id="DejaVuSans-Oblique-74" d="M 2706 3500 
L 2619 3053 
L 1472 3053 
L 1100 1153 
Q 1081 1047 1072 975 
Q 1063 903 1063 863 
Q 1063 663 1183 572 
Q 1303 481 1569 481 
L 2150 481 
L 2053 0 
L 1503 0 
Q 991 0 739 200 
Q 488 400 488 806 
Q 488 878 497 964 
Q 506 1050 525 1153 
L 897 3053 
L 409 3053 
L 500 3500 
L 978 3500 
L 1172 4494 
L 1747 4494 
L 1556 3500 
L 2706 3500 
z
" transform="scale(0.015625)"/>
       <path id="DejaVuSans-Oblique-6f" d="M 1625 -91 
Q 1009 -91 651 289 
Q 294 669 294 1325 
Q 294 1706 417 2101 
Q 541 2497 738 2766 
Q 1047 3184 1428 3384 
Q 1809 3584 2291 3584 
Q 2888 3584 3255 3212 
Q 3622 2841 3622 2241 
Q 3622 1825 3500 1412 
Q 3378 1000 3181 728 
Q 2875 309 2494 109 
Q 2113 -91 1625 -91 
z
M 891 1344 
Q 891 869 1089 633 
Q 1288 397 1691 397 
Q 2269 397 2648 901 
Q 3028 1406 3028 2181 
Q 3028 2634 2825 2865 
Q 2622 3097 2228 3097 
Q 1903 3097 1650 2945 
Q 1397 2794 1197 2484 
Q 1050 2253 970 1956 
Q 891 1659 891 1344 
z
" transform="scale(0.015625)"/>
       <path id="DejaVuSans-2c" d="M 750 794 
L 1409 794 
L 1409 256 
L 897 -744 
L 494 -744 
L 750 256 
L 750 794 
z
" transform="scale(0.015625)"/>
       <path id="DejaVuSans-Oblique-48" d="M 1081 4666 
L 1716 4666 
L 1344 2753 
L 3634 2753 
L 4006 4666 
L 4641 4666 
L 3731 0 
L 3097 0 
L 3531 2222 
L 1241 2222 
L 806 0 
L 172 0 
L 1081 4666 
z
" transform="scale(0.015625)"/>
       <path id="DejaVuSans-b0" d="M 1600 4347 
Q 1350 4347 1178 4173 
Q 1006 4000 1006 3750 
Q 1006 3503 1178 3333 
Q 1350 3163 1600 3163 
Q 1850 3163 2022 3333 
Q 2194 3503 2194 3750 
Q 2194 3997 2020 4172 
Q 1847 4347 1600 4347 
z
M 1600 4750 
Q 1800 4750 1984 4673 
Q 2169 4597 2303 4453 
Q 2447 4313 2519 4134 
Q 2591 3956 2591 3750 
Q 2591 3338 2302 3052 
Q 2013 2766 1594 2766 
Q 1172 2766 890 3047 
Q 609 3328 609 3750 
Q 609 4169 896 4459 
Q 1184 4750 1600 4750 
z
" transform="scale(0.015625)"/>
       <path id="DejaVuSans-43" d="M 4122 4306 
L 4122 3641 
Q 3803 3938 3442 4084 
Q 3081 4231 2675 4231 
Q 1875 4231 1450 3742 
Q 1025 3253 1025 2328 
Q 1025 1406 1450 917 
Q 1875 428 2675 428 
Q 3081 428 3442 575 
Q 3803 722 4122 1019 
L 4122 359 
Q 3791 134 3420 21 
Q 3050 -91 2638 -91 
Q 1578 -91 968 557 
Q 359 1206 359 2328 
Q 359 3453 968 4101 
Q 1578 4750 2638 4750 
Q 3056 4750 3426 4639 
Q 3797 4528 4122 4306 
z
" transform="scale(0.015625)"/>
      </defs>
      <use xlink:href="#DejaVuSans-Oblique-54" transform="translate(0 0.015625)"/>
      <use xlink:href="#DejaVuSans-Oblique-73" transform="translate(61.083984 -16.390625) scale(0.7)"/>
      <use xlink:href="#DejaVuSans-Oblique-74" transform="translate(97.553711 -16.390625) scale(0.7)"/>
      <use xlink:href="#DejaVuSans-Oblique-6f" transform="translate(125 -16.390625) scale(0.7)"/>
      <use xlink:href="#DejaVuSans-2c" transform="translate(167.827148 -16.390625) scale(0.7)"/>
      <use xlink:href="#DejaVuSans-Oblique-48" transform="translate(203.71582 -16.390625) scale(0.7)"/>
      <use xlink:href="#DejaVuSans-Oblique-54" transform="translate(256.352539 -16.390625) scale(0.7)"/>
      <use xlink:href="#DejaVuSans-20" transform="translate(301.845703 0.015625)"/>
      <use xlink:href="#DejaVuSans-5b" transform="translate(333.632812 0.015625)"/>
      <use xlink:href="#DejaVuSans-b0" transform="translate(372.646484 0.015625)"/>
      <use xlink:href="#DejaVuSans-43" transform="translate(422.646484 0.015625)"/>
      <use xlink:href="#DejaVuSans-5d" transform="translate(492.470703 0.015625)"/>
     </g>
    </g>
   </g>
   <g id="QuadContourSet_2">
    <path clip-path="url(#p4123bc3055)" style="fill: none; stroke: #000000; stroke-width: 1.5"/>
    <path d="M 94.577628 381.751143 
L 94.430441 384.48 
M 118.709533 122.085414 
L 118.638323 122.4 
L 118.181818 124.416721 
L 117.877753 125.76 
L 117.117183 129.12 
L 116.356613 132.48 
L 115.596043 135.84 
L 114.835473 139.2 
L 114.074903 142.56 
L 113.314333 145.92 
L 112.549937 149.28 
L 112.545455 149.299587 
L 111.780403 152.64 
L 111.012241 156 
L 110.251283 159.36 
L 109.495524 162.72 
L 108.750953 166.08 
L 108.01106 169.44 
L 107.299322 172.8 
L 106.909091 174.659564 
L 106.605817 176.16 
L 105.934267 179.52 
L 105.274767 182.88 
L 104.644515 186.24 
L 104.050528 189.6 
L 103.472506 192.96 
L 102.904456 196.32 
L 102.346121 199.68 
L 101.797255 203.04 
L 101.470625 206.4 
L 101.544123 209.76 
L 101.604281 213.12 
L 101.655677 216.48 
L 101.699288 219.84 
L 101.73676 223.2 
L 101.688976 226.56 
L 101.602288 229.92 
L 101.522397 233.28 
L 101.448534 236.64 
L 101.380042 240 
L 101.339567 242.135347 
M 100.371009 271.458097 
L 100.28191 273.6 
L 100.14043 276.96 
L 99.997207 280.32 
L 99.852209 283.68 
L 99.694086 287.04 
L 99.521475 290.4 
L 99.348863 293.76 
L 99.176251 297.12 
L 99.00364 300.48 
L 98.831028 303.84 
L 98.654657 307.2 
L 98.475058 310.56 
L 98.29459 313.92 
L 98.113247 317.28 
L 97.931021 320.64 
L 97.742918 324 
L 97.554655 327.36 
L 97.366392 330.72 
L 97.178129 334.08 
L 96.989866 337.44 
L 96.801603 340.8 
L 96.61334 344.16 
L 96.425847 347.52 
L 96.243477 350.88 
L 96.061531 354.24 
L 95.880278 357.6 
L 95.699049 360.96 
L 95.636364 362.122181 
" clip-path="url(#p4123bc3055)" style="fill: none; stroke: #000000; stroke-width: 1.5"/>
    <path d="M 167.617854 96.289744 
L 166.930201 98.88 
L 166.047231 102.24 
L 165.246722 105.6 
L 164.517637 108.96 
L 163.850827 112.32 
L 163.272727 115.485379 
L 163.228673 115.68 
L 162.468103 119.04 
L 161.707533 122.4 
L 160.946963 125.76 
L 160.865193 126.121237 
M 154.407534 154.649489 
L 154.101832 156 
L 153.341262 159.36 
L 152.580692 162.72 
L 152 165.285347 
L 151.820122 166.08 
L 151.05925 169.44 
L 150.295033 172.8 
L 149.525495 176.16 
L 148.755957 179.52 
L 147.986419 182.88 
L 147.216881 186.24 
L 146.447344 189.6 
L 146.363636 189.965487 
L 145.677806 192.96 
L 144.908268 196.32 
L 144.13873 199.68 
L 143.374125 203.04 
L 142.618724 206.4 
L 141.869192 209.76 
L 141.12494 213.12 
L 140.727273 214.915312 
L 140.380689 216.48 
L 139.636438 219.84 
L 138.892186 223.2 
L 138.147935 226.56 
L 137.403684 229.92 
L 136.659433 233.28 
L 135.938645 236.64 
L 135.231205 240 
L 135.090909 240.671165 
L 134.535725 243.36 
L 133.841961 246.72 
L 133.148196 250.08 
L 132.454432 253.44 
L 131.760667 256.8 
L 131.066903 260.16 
L 130.373139 263.52 
L 129.680814 266.88 
L 129.454545 268.051832 
L 129.050965 270.24 
L 128.431254 273.6 
L 127.811544 276.96 
L 127.191833 280.32 
L 126.572122 283.68 
L 125.952412 287.04 
L 125.332701 290.4 
L 124.71299 293.76 
L 124.09328 297.12 
L 123.818182 298.61155 
L 123.498574 300.48 
L 122.968891 303.84 
L 122.441082 307.2 
L 121.913272 310.56 
L 121.385462 313.92 
L 120.857653 317.28 
L 120.329843 320.64 
L 119.802034 324 
L 119.274224 327.36 
L 118.746415 330.72 
L 118.218605 334.08 
L 118.181818 334.464213 
L 118.032215 337.44 
L 118.085384 340.8 
L 118.041347 344.16 
L 117.969228 347.52 
L 117.858859 350.88 
L 117.719432 354.24 
L 117.577374 357.6 
L 117.405075 360.96 
L 117.22902 364.32 
L 117.051073 367.68 
L 116.863713 371.04 
L 116.677331 374.4 
L 116.493239 377.76 
L 116.312009 381.12 
L 116.130779 384.48 
" clip-path="url(#p4123bc3055)" style="fill: none; stroke: #000000; stroke-width: 1.5"/>
    <path d="M 230.335117 65.622162 
L 229.091339 68.64 
L 227.706541 72 
L 226.321743 75.36 
L 225.272727 77.905275 
L 224.936945 78.72 
L 223.552147 82.08 
L 222.167348 85.44 
L 220.78255 88.8 
L 219.636364 91.581046 
L 219.439865 92.057819 
M 208.4006 119.144657 
L 208.363636 119.236522 
L 207.098383 122.4 
L 205.767092 125.76 
L 204.435802 129.12 
L 203.104512 132.48 
L 202.727273 133.432103 
L 201.773222 135.84 
L 200.441932 139.2 
L 199.113306 142.56 
L 197.815013 145.92 
L 197.090909 147.813087 
L 196.536394 149.28 
L 195.266264 152.64 
L 193.996134 156 
L 192.726004 159.36 
L 191.455874 162.72 
L 191.454545 162.723514 
L 190.218127 166.08 
L 188.996302 169.44 
L 187.790068 172.8 
L 186.60367 176.16 
L 185.818182 178.386667 
L 185.420802 179.52 
L 184.251123 182.88 
L 183.0939 186.24 
L 181.948937 189.6 
L 180.816038 192.96 
L 180.181818 194.856584 
L 179.711256 196.32 
L 178.630847 199.68 
L 177.550438 203.04 
L 176.470029 206.4 
L 175.390015 209.76 
L 174.545455 212.426064 
L 174.346578 213.12 
L 173.383627 216.48 
L 172.420676 219.84 
L 171.457725 223.2 
L 170.494774 226.56 
L 169.531823 229.92 
L 168.909091 232.092882 
L 168.679245 233.28 
L 168.025294 236.64 
L 167.366278 240 
L 166.702136 243.36 
L 166.032809 246.72 
L 165.358236 250.08 
L 164.678355 253.44 
L 163.993103 256.8 
L 163.302416 260.16 
L 163.272727 260.303833 
L 162.510388 263.52 
L 161.703338 266.88 
L 160.885216 270.24 
L 160.054602 273.6 
L 159.203163 276.96 
L 158.351724 280.32 
L 157.636364 283.142998 
L 157.530146 283.68 
L 156.862529 287.04 
L 156.189669 290.4 
L 155.511502 293.76 
L 154.827966 297.12 
L 154.138997 300.48 
L 153.44453 303.84 
L 152.744498 307.2 
L 152.038835 310.56 
L 152 310.744133 
L 151.385653 313.92 
L 150.736521 317.28 
L 150.088245 320.64 
L 149.440823 324 
L 148.794254 327.36 
L 148.148536 330.72 
L 147.503667 334.08 
L 146.859646 337.44 
L 146.363636 340.030807 
L 146.22061 340.8 
L 145.610978 344.16 
L 145.002381 347.52 
L 144.393784 350.88 
L 143.785186 354.24 
L 143.176589 357.6 
L 142.580296 360.96 
L 142.003874 364.32 
L 141.435329 367.68 
L 140.874841 371.04 
L 140.727273 371.92969 
L 140.317534 374.4 
L 139.760227 377.76 
L 139.202919 381.12 
L 138.645612 384.48 
" clip-path="url(#p4123bc3055)" style="fill: none; stroke: #000000; stroke-width: 1.5"/>
    <path d="M 292.699872 51.84 
L 290.707978 55.2 
L 288.716085 58.56 
L 287.272727 60.994708 
L 286.724191 61.92 
L 284.732297 65.28 
L 282.740403 68.64 
L 281.636364 70.502335 
L 280.754756 72 
L 278.814131 75.36 
L 276.89767 78.72 
L 276 80.293822 
L 274.981208 82.08 
L 273.064746 85.44 
L 271.148284 88.8 
L 270.363636 90.175669 
L 269.263247 92.16 
L 267.433068 95.52 
L 265.616403 98.88 
L 264.727273 100.524486 
L 263.740946 102.24 
L 261.561741 105.6 
L 259.090909 108.826063 
L 259.009052 108.96 
L 257.073845 112.32 
L 255.341826 115.68 
L 253.782588 119.04 
L 253.454545 119.792318 
L 252.511544 122.4 
L 251.307408 125.76 
L 250.1154 129.12 
L 248.935338 132.48 
L 247.818182 135.692217 
L 247.731078 135.84 
L 245.639352 139.2 
L 243.30954 142.56 
L 242.181818 144.059711 
L 241.546766 145.92 
L 240.426385 149.28 
L 239.338998 152.64 
L 238.28317 156 
L 237.257546 159.36 
L 236.545455 161.750789 
L 236.17797 162.72 
L 234.903998 166.08 
L 233.630026 169.44 
L 232.347831 172.8 
L 231.078767 176.16 
L 230.909091 176.616249 
L 229.826168 179.52 
L 228.573416 182.88 
L 227.321012 186.24 
L 226.068956 189.6 
L 225.272727 191.737233 
L 224.818816 192.96 
L 223.561916 196.32 
L 222.28234 199.68 
L 220.980791 203.04 
L 219.656698 206.4 
L 219.636364 206.45115 
L 218.326191 209.76 
L 216.987023 213.12 
L 215.63896 216.48 
L 214.281911 219.84 
L 214 220.535204 
L 213.055041 223.2 
L 211.863558 226.56 
L 210.672074 229.92 
L 209.48059 233.28 
L 208.363636 236.429825 
L 208.287027 236.64 
L 207.818646 237.917492 
M 197.998091 265.46675 
L 197.504919 266.88 
L 197.090909 268.057717 
L 196.361276 270.24 
L 195.241403 273.6 
L 194.125782 276.96 
L 193.014386 280.32 
L 191.907193 283.68 
L 191.454545 285.057318 
L 190.829986 287.04 
L 189.771561 290.4 
L 188.713136 293.76 
L 187.65471 297.12 
L 186.596285 300.48 
L 185.818182 302.950111 
L 185.53786 303.84 
L 184.487285 307.2 
L 183.455629 310.56 
L 182.441625 313.92 
L 181.444823 317.28 
L 180.466381 320.64 
L 180.181818 321.620786 
L 179.491518 324 
L 178.516655 327.36 
L 177.541793 330.72 
L 176.56693 334.08 
L 175.592067 337.44 
L 174.617204 340.8 
L 174.545455 341.057604 
L 173.681358 344.16 
L 172.810541 347.52 
L 171.939724 350.88 
L 171.068907 354.24 
L 170.198091 357.6 
L 169.327274 360.96 
L 168.909091 362.573535 
L 168.456457 364.32 
L 167.58564 367.68 
L 168.909091 370.481383 
L 171.384174 369.564531 
" clip-path="url(#p4123bc3055)" style="fill: none; stroke: #000000; stroke-width: 1.5"/>
    <path d="M 354.470109 51.84 
L 351.970765 55.2 
L 349.47142 58.56 
L 349.272727 58.827114 
L 346.972076 61.92 
L 344.472731 65.28 
L 343.636364 66.404373 
L 341.996865 68.64 
L 339.589726 72 
L 338 74.253643 
L 337.219572 75.36 
L 334.849419 78.72 
L 332.479265 82.08 
L 332.363636 82.243919 
L 329.562324 85.44 
L 326.727273 88.510317 
L 326.568581 88.8 
L 324.749379 92.16 
L 322.968795 95.52 
L 321.212785 98.88 
L 321.090909 99.103707 
L 319.227914 102.24 
L 317.307463 105.6 
L 315.460648 108.96 
L 315.454545 108.971321 
L 313.534215 112.32 
L 311.607392 115.68 
L 309.818182 118.80003 
L 309.647798 119.04 
L 307.152142 122.4 
L 304.458058 125.76 
L 304.181818 126.104527 
L 302.597309 129.12 
L 300.773976 132.48 
L 298.886633 135.84 
L 298.545455 136.435061 
L 297.044147 139.2 
L 295.219734 142.56 
L 293.395321 145.92 
L 292.909091 146.815484 
L 291.642174 149.28 
L 291.481084 149.605477 
M 278.248117 175.68623 
L 278.000926 176.16 
L 276.247836 179.52 
L 276 179.995006 
L 274.490193 182.88 
L 272.697444 186.24 
L 270.866605 189.6 
L 270.363636 190.510728 
L 267.76208 192.96 
L 264.727273 196.001726 
L 264.458046 196.32 
L 261.849463 199.68 
L 259.605266 203.04 
L 259.090909 203.882414 
L 258.335469 206.4 
L 257.327249 209.76 
L 256.319029 213.12 
L 255.31081 216.48 
L 254.30259 219.84 
L 253.454545 222.6662 
L 253.246466 223.2 
L 251.893775 226.56 
L 250.451248 229.92 
L 248.861073 233.28 
L 247.818182 235.358927 
L 243.390481 236.64 
L 242.181818 237.046209 
L 241.302288 240 
L 240.301804 243.36 
L 239.301319 246.72 
L 238.300835 250.08 
L 237.30035 253.44 
L 236.545455 255.975222 
L 236.299855 256.8 
L 235.299382 260.16 
L 234.234349 263.52 
L 233.098407 266.88 
L 231.887493 270.24 
L 230.909091 272.801977 
L 230.573059 273.6 
L 229.158231 276.96 
L 227.743403 280.32 
L 226.328574 283.68 
L 225.272727 286.187474 
L 224.913746 287.04 
L 223.498918 290.4 
L 222.084089 293.76 
L 220.669261 297.12 
L 219.636364 299.572972 
L 219.254432 300.48 
L 217.941796 303.84 
L 216.663223 307.2 
L 215.384651 310.56 
L 214.106078 313.92 
L 214 314.198766 
L 212.827506 317.28 
L 211.548933 320.64 
L 210.27036 324 
L 209.137438 327.36 
L 208.363636 329.010738 
L 207.713215 330.72 
L 208.363636 331.234859 
L 209.32264 330.72 
L 214 329.222873 
L 217.416806 327.36 
L 219.636364 326.071749 
L 223.556882 324 
L 225.272727 323.0451 
L 229.92573 320.64 
L 230.909091 320.11054 
L 236.545455 317.305694 
L 236.600628 317.28 
L 242.181818 314.595395 
L 243.645622 313.92 
L 247.818182 311.94976 
L 250.914965 310.56 
L 253.454545 309.401901 
L 258.435437 307.2 
L 259.090909 306.903292 
L 264.727273 304.486404 
L 266.289183 303.84 
L 270.363636 302.124553 
L 274.367936 300.48 
L 276 299.797899 
L 279.614706 298.325169 
" clip-path="url(#p4123bc3055)" style="fill: none; stroke: #000000; stroke-width: 1.5"/>
    <path d="M 420.838898 51.84 
L 417.889542 55.2 
L 416.909091 56.316962 
L 414.940187 58.56 
L 411.990832 61.92 
L 411.272727 62.738088 
L 409.041476 65.28 
L 406.092121 68.64 
L 405.636364 69.159214 
L 402.99874 72 
L 400 74.98683 
L 399.620547 75.36 
L 396.327639 78.72 
L 394.363636 80.833957 
L 393.455177 82.08 
L 390.976232 85.44 
L 388.727273 88.438461 
L 388.474087 88.8 
L 386.173791 92.16 
L 383.964703 95.52 
L 383.090909 96.886847 
L 381.625742 98.88 
L 379.155805 102.24 
L 377.454545 104.554322 
L 376.685867 105.6 
L 374.21593 108.96 
L 371.818182 112.150485 
L 371.680606 112.32 
L 368.890986 115.68 
L 366.181818 118.943098 
L 366.110122 119.04 
L 363.542373 122.4 
L 360.805101 125.76 
L 360.545455 126.067599 
L 358.493654 129.12 
L 356.374137 132.48 
L 354.909091 134.866416 
L 354.234053 135.84 
L 351.904386 139.2 
L 349.574719 142.56 
L 349.272727 142.995553 
L 348.505449 144.102172 
M 331.484856 167.961633 
L 329.936722 169.44 
L 326.812007 172.8 
L 326.727273 172.897767 
L 324.615682 176.16 
L 322.399947 179.52 
L 321.090909 181.475407 
L 320.443626 182.88 
L 318.895227 186.24 
L 317.290051 189.6 
L 315.550814 192.96 
L 315.454545 193.140061 
L 313.41017 196.32 
L 311.250034 199.68 
L 309.818182 201.907185 
L 308.937865 203.04 
L 306.501236 206.4 
L 304.296512 209.76 
L 304.181818 209.944006 
L 301.435584 213.12 
L 298.545455 216.462408 
L 298.53594 216.48 
L 296.686217 219.84 
L 294.769587 223.2 
L 292.909091 226.349345 
L 292.824397 226.56 
L 291.467624 229.92 
L 290.069138 233.28 
L 288.552846 236.64 
L 287.272727 239.272195 
L 286.86599 240 
L 284.988238 243.36 
L 283.110487 246.72 
L 281.636364 249.357758 
L 281.232735 250.08 
L 279.354984 253.44 
L 277.477232 256.8 
L 276 259.473719 
L 275.620829 260.16 
L 273.91387 263.52 
L 272.206911 266.88 
L 270.499951 270.24 
L 270.363636 270.508324 
L 268.792992 273.6 
L 267.086033 276.96 
L 266.084983 280.32 
L 270.363636 281.205699 
L 272.048636 280.32 
L 276 278.162028 
L 278.298821 276.96 
L 281.636364 275.214837 
L 284.795469 273.6 
L 287.272727 272.308308 
L 291.42937 270.24 
L 292.909091 269.473047 
L 298.163618 266.88 
L 298.545455 266.68372 
L 304.181818 263.942124 
L 305.087398 263.52 
L 309.818182 261.242516 
L 312.161922 260.16 
L 315.454545 258.598104 
L 319.378432 256.8 
L 321.090909 256.015265 
L 326.710745 253.44 
L 326.727273 253.432426 
L 332.363636 250.909121 
L 334.2794 250.08 
L 338 248.439672 
L 342.001696 246.72 
L 343.636364 246.017525 
L 349.272727 243.601099 
L 349.852796 243.36 
L 354.909091 241.222362 
L 357.87209 240 
L 360.545455 238.877876 
L 366.012515 236.64 
L 366.181818 236.569467 
L 371.818182 234.294543 
L 374.332873 233.28 
L 377.454545 232.020573 
L 382.661121 229.92 
L 383.090909 229.746604 
M 264.727273 284.139546 
L 265.602716 283.68 
L 264.727273 281.603012 
L 263.672114 283.68 
L 264.727273 284.139546 
z
" clip-path="url(#p4123bc3055)" style="fill: none; stroke: #000000; stroke-width: 1.5"/>
    <path d="M 493.540609 51.84 
L 490.197867 55.2 
L 490.181818 55.216131 
L 486.855124 58.56 
L 484.545455 60.881594 
L 483.512382 61.92 
L 480.169639 65.28 
L 478.909091 66.547056 
L 476.826897 68.64 
L 473.484155 72 
L 473.272727 72.212519 
L 472.314776 73.175415 
M 451.538278 93.762966 
L 450.727273 94.565453 
L 449.871757 95.52 
L 446.860348 98.88 
L 445.090909 100.854264 
L 443.848939 102.24 
L 440.83753 105.6 
L 439.454545 107.143075 
L 437.826121 108.96 
L 434.814712 112.32 
L 433.818182 113.431886 
L 431.806331 115.68 
L 428.791894 119.04 
L 428.181818 119.720697 
L 425.844673 122.4 
L 422.873875 125.76 
L 422.545455 126.12835 
L 419.750302 129.12 
L 416.909091 132.109953 
L 416.51964 132.48 
L 412.979241 135.84 
L 411.272727 137.456987 
L 409.64437 139.2 
L 406.648457 142.56 
L 405.636364 143.742567 
L 403.916212 145.92 
L 401.261843 149.28 
L 400 150.877288 
L 398.607474 152.64 
L 395.953105 156 
L 394.363636 158.012008 
L 393.298735 159.36 
L 390.644366 162.72 
L 388.727273 165.146729 
L 388.078749 166.08 
L 385.663689 169.44 
L 383.115167 172.8 
L 383.090909 172.831114 
L 380.481847 176.16 
L 377.848398 179.52 
L 377.454545 180.022514 
L 375.21495 182.88 
L 372.581501 186.24 
L 371.818182 187.213914 
L 369.948052 189.6 
L 367.314604 192.96 
L 366.181818 194.405314 
L 364.681008 196.32 
L 362.047706 199.68 
L 360.545455 201.596713 
L 359.346486 203.04 
L 356.644869 206.4 
L 354.909091 208.641461 
L 354.122142 209.76 
L 351.71498 213.12 
L 349.310521 216.48 
L 349.272727 216.53393 
L 347.110966 219.84 
L 349.272727 221.021926 
L 351.884153 219.84 
L 354.909091 218.751243 
L 359.621345 216.48 
L 360.545455 216.062792 
L 366.181818 213.306066 
L 366.577238 213.12 
L 371.818182 210.575839 
L 373.566726 209.76 
L 377.454545 207.886757 
L 380.670199 206.4 
L 383.090909 205.246447 
L 387.905898 203.04 
L 388.727273 202.663608 
L 394.363636 200.08077 
L 395.23821 199.68 
L 400 197.497931 
L 402.624668 196.32 
L 405.636364 194.946595 
L 410.130171 192.96 
L 411.272727 192.442803 
L 416.909091 189.992306 
L 417.821991 189.6 
L 422.545455 187.570159 
L 425.640749 186.24 
L 428.181818 185.148012 
L 433.459507 182.88 
L 433.818182 182.725865 
L 439.454545 180.328491 
L 441.405767 179.52 
L 445.090909 177.966675 
L 449.484462 176.16 
L 450.727273 175.639958 
L 456.363636 173.353516 
L 457.735606 172.8 
L 462 171.079546 
L 466.063854 169.44 
L 467.636364 168.805577 
L 473.272727 166.531608 
" clip-path="url(#p4123bc3055)" style="fill: none; stroke: #000000; stroke-width: 1.5"/>
    <path d="M 578.357957 51.84 
L 574.727273 54.979534 
L 574.472317 55.2 
L 570.586678 58.56 
L 569.090909 59.853425 
L 566.701038 61.92 
L 563.454545 64.727315 
L 562.815399 65.28 
L 558.929759 68.64 
L 557.818182 69.601206 
L 555.021753 72 
L 554.202208 72.694732 
M 531.791475 91.623858 
L 531.206031 92.16 
L 529.636364 93.566752 
L 527.504196 95.52 
L 524 98.752514 
L 523.861799 98.88 
L 520.228016 102.24 
L 518.363636 103.951886 
L 516.577004 105.6 
L 512.944627 108.96 
L 512.727273 109.153822 
L 509.311179 112.32 
L 507.090909 114.350632 
L 505.649812 115.68 
L 502.036528 119.04 
L 501.454545 119.560037 
L 498.397169 122.4 
L 495.818182 124.749377 
L 494.72262 125.76 
L 491.131453 129.12 
L 490.181818 129.970316 
L 487.624641 132.48 
L 490.181818 133.473445 
L 492.756314 132.48 
L 495.818182 131.083482 
L 501.454545 129.122793 
L 501.461045 129.12 
L 507.090909 126.700646 
L 509.279803 125.76 
L 512.727273 124.278499 
L 517.098561 122.4 
L 518.363636 121.856352 
L 524 119.442697 
L 524.967732 119.04 
L 529.636364 117.064033 
L 532.987162 115.68 
L 535.272727 114.719527 
L 540.909091 112.412489 
L 541.138338 112.32 
L 546.545455 110.13852 
L 549.466587 108.96 
L 552.181818 107.86455 
L 557.794835 105.6 
L 557.818182 105.590581 
L 563.454545 103.316611 
L 566.123083 102.24 
L 569.090909 101.042642 
L 574.451332 98.88 
L 574.727273 98.768673 
L 575.305048 98.535572 
M 484.545455 136.007385 
L 484.956587 135.84 
L 484.545455 135.387433 
L 484.093965 135.84 
L 484.545455 136.007385 
z
" clip-path="url(#p4123bc3055)" style="fill: none; stroke: #000000; stroke-width: 1.5"/>
    <path clip-path="url(#p4123bc3055)" style="fill: none; stroke: #000000; stroke-width: 1.5"/>
   </g>
   <g id="patch_3">
    <path d="M 90 384.48 
L 90 51.84 
" style="fill: none; stroke: #000000; stroke-width: 0.8; stroke-linejoin: miter; stroke-linecap: square"/>
   </g>
   <g id="patch_4">
    <path d="M 648 384.48 
L 648 51.84 
" style="fill: none; stroke: #000000; stroke-width: 0.8; stroke-linejoin: miter; stroke-linecap: square"/>
   </g>
   <g id="patch_5">
    <path d="M 90 384.48 
L 648 384.48 
" style="fill: none; stroke: #000000; stroke-width: 0.8; stroke-linejoin: miter; stroke-linecap: square"/>
   </g>
   <g id="patch_6">
    <path d="M 90 51.84 
L 648 51.84 
" style="fill: none; stroke: #000000; stroke-width: 0.8; stroke-linejoin: miter; stroke-linecap: square"/>
   </g>
   <g id="text_20">
    <g clip-path="url(#p4123bc3055)">
     <!-- 0.01 -->
     <g transform="translate(103.34007 268.020391) rotate(-88.046845) scale(0.1 -0.1)">
      <defs>
       <path id="DejaVuSans-2e" d="M 684 794 
L 1344 794 
L 1344 0 
L 684 0 
L 684 794 
z
" transform="scale(0.015625)"/>
      </defs>
      <use xlink:href="#DejaVuSans-30"/>
      <use xlink:href="#DejaVuSans-2e" x="63.623047"/>
      <use xlink:href="#DejaVuSans-30" x="95.410156"/>
      <use xlink:href="#DejaVuSans-31" x="159.033203"/>
     </g>
    </g>
   </g>
   <g id="text_21">
    <g clip-path="url(#p4123bc3055)">
     <!-- 0.02 -->
     <g transform="translate(157.869808 151.852671) rotate(-77.245464) scale(0.1 -0.1)">
      <use xlink:href="#DejaVuSans-30"/>
      <use xlink:href="#DejaVuSans-2e" x="63.623047"/>
      <use xlink:href="#DejaVuSans-30" x="95.410156"/>
      <use xlink:href="#DejaVuSans-32" x="159.033203"/>
     </g>
    </g>
   </g>
   <g id="text_22">
    <g clip-path="url(#p4123bc3055)">
     <!-- 0.03 -->
     <g transform="translate(212.272921 116.951212) rotate(-67.836993) scale(0.1 -0.1)">
      <use xlink:href="#DejaVuSans-30"/>
      <use xlink:href="#DejaVuSans-2e" x="63.623047"/>
      <use xlink:href="#DejaVuSans-30" x="95.410156"/>
      <use xlink:href="#DejaVuSans-33" x="159.033203"/>
     </g>
    </g>
   </g>
   <g id="text_23">
    <g clip-path="url(#p4123bc3055)">
     <!-- 0.04 -->
     <g transform="translate(201.591488 263.04091) rotate(-70.396211) scale(0.1 -0.1)">
      <use xlink:href="#DejaVuSans-30"/>
      <use xlink:href="#DejaVuSans-2e" x="63.623047"/>
      <use xlink:href="#DejaVuSans-30" x="95.410156"/>
      <use xlink:href="#DejaVuSans-34" x="159.033203"/>
     </g>
    </g>
   </g>
   <g id="text_24">
    <g clip-path="url(#p4123bc3055)">
     <!-- 0.05 -->
     <g transform="translate(282.437471 173.89671) rotate(-63.101294) scale(0.1 -0.1)">
      <use xlink:href="#DejaVuSans-30"/>
      <use xlink:href="#DejaVuSans-2e" x="63.623047"/>
      <use xlink:href="#DejaVuSans-30" x="95.410156"/>
      <use xlink:href="#DejaVuSans-35" x="159.033203"/>
     </g>
    </g>
   </g>
   <g id="text_25">
    <g clip-path="url(#p4123bc3055)">
     <!-- 0.06 -->
     <g transform="translate(335.746816 166.680444) rotate(-54.700162) scale(0.1 -0.1)">
      <use xlink:href="#DejaVuSans-30"/>
      <use xlink:href="#DejaVuSans-2e" x="63.623047"/>
      <use xlink:href="#DejaVuSans-30" x="95.410156"/>
      <use xlink:href="#DejaVuSans-36" x="159.033203"/>
     </g>
    </g>
   </g>
   <g id="text_26">
    <g clip-path="url(#p4123bc3055)">
     <!-- 0.07 -->
     <g transform="translate(456.029271 93.336506) rotate(-44.709004) scale(0.1 -0.1)">
      <use xlink:href="#DejaVuSans-30"/>
      <use xlink:href="#DejaVuSans-2e" x="63.623047"/>
      <use xlink:href="#DejaVuSans-30" x="95.410156"/>
      <use xlink:href="#DejaVuSans-37" x="159.033203"/>
     </g>
    </g>
   </g>
   <g id="text_27">
    <g clip-path="url(#p4123bc3055)">
     <!-- 0.08 -->
     <g transform="translate(536.14421 91.32891) rotate(-39.822853) scale(0.1 -0.1)">
      <use xlink:href="#DejaVuSans-30"/>
      <use xlink:href="#DejaVuSans-2e" x="63.623047"/>
      <use xlink:href="#DejaVuSans-30" x="95.410156"/>
      <use xlink:href="#DejaVuSans-38" x="159.033203"/>
     </g>
    </g>
   </g>
  </g>
 </g>
 <defs>
  <clipPath id="p4123bc3055">
   <rect x="90" y="51.84" width="558" height="332.64"/>
  </clipPath>
 </defs>
</svg>
