<?xml version="1.0" encoding="utf-8" standalone="no"?>
<!DOCTYPE svg PUBLIC "-//W3C//DTD SVG 1.1//EN"
  "http://www.w3.org/Graphics/SVG/1.1/DTD/svg11.dtd">
<svg xmlns:xlink="http://www.w3.org/1999/xlink" width="720pt" height="432pt" viewBox="0 0 720 432" xmlns="http://www.w3.org/2000/svg" version="1.1">
 <metadata>
  <rdf:RDF xmlns:dc="http://purl.org/dc/elements/1.1/" xmlns:cc="http://creativecommons.org/ns#" xmlns:rdf="http://www.w3.org/1999/02/22-rdf-syntax-ns#">
   <cc:Work>
    <dc:type rdf:resource="http://purl.org/dc/dcmitype/StillImage"/>
    <dc:date>2024-06-12T11:31:44.809297</dc:date>
    <dc:format>image/svg+xml</dc:format>
    <dc:creator>
     <cc:Agent>
      <dc:title>Matplotlib v3.8.3, https://matplotlib.org/</dc:title>
     </cc:Agent>
    </dc:creator>
   </cc:Work>
  </rdf:RDF>
 </metadata>
 <defs>
  <style type="text/css">*{stroke-linejoin: round; stroke-linecap: butt}</style>
 </defs>
 <g id="figure_1">
  <g id="patch_1">
   <path d="M 0 432 
L 720 432 
L 720 0 
L 0 0 
z
" style="fill: #ffffff"/>
  </g>
  <g id="axes_1">
   <g id="patch_2">
    <path d="M 90 384.48 
L 648 384.48 
L 648 51.84 
L 90 51.84 
z
" style="fill: #ffffff"/>
   </g>
   <g id="QuadContourSet_1">
    <path clip-path="url(#p046b058189)" style="fill: #481668"/>
    <path d="M 95.636364 381.12 
L 101.272727 377.76 
L 106.909091 374.4 
L 112.545455 371.04 
L 118.181818 367.68 
L 123.818182 364.32 
L 129.454545 360.96 
L 135.090909 357.6 
L 140.727273 354.24 
L 146.363636 350.88 
L 152 347.52 
L 157.636364 344.16 
L 158.99112 343.35239 
L 157.636364 343.83311 
L 156.737444 344.16 
L 152 345.857674 
L 147.470912 347.52 
L 146.363636 347.920574 
L 140.727273 350.203165 
L 139.221745 350.88 
L 135.090909 352.651857 
L 131.610377 354.24 
L 129.454545 355.187143 
L 124.226122 357.6 
L 123.818182 357.781576 
L 119.116884 357.6 
L 118.549004 354.24 
L 118.831719 350.88 
L 119.114433 347.52 
L 119.397148 344.16 
L 119.679863 340.8 
L 119.962578 337.44 
L 120.314566 334.08 
L 120.678099 330.72 
L 121.041633 327.36 
L 121.405167 324 
L 121.7687 320.64 
L 122.132234 317.28 
L 122.495768 313.92 
L 122.875009 310.56 
L 123.274663 307.2 
L 123.68037 303.84 
L 123.818182 302.703709 
L 124.087879 300.48 
L 124.495388 297.12 
L 124.902926 293.76 
L 125.316708 290.4 
L 125.733978 287.04 
L 126.154779 283.68 
L 126.579157 280.32 
L 127.010475 276.96 
L 127.450152 273.6 
L 127.889829 270.24 
L 128.329506 266.88 
L 128.769183 263.52 
L 129.20886 260.16 
L 129.454545 258.273186 
L 129.644384 256.8 
L 130.072036 253.44 
L 130.498646 250.08 
L 130.92424 246.72 
L 131.348821 243.36 
L 131.772392 240 
L 132.194958 236.64 
L 132.616521 233.28 
L 133.037086 229.92 
L 133.456655 226.56 
L 133.875233 223.2 
L 134.292823 219.84 
L 134.709429 216.48 
L 135.090909 213.384865 
L 135.128473 213.12 
L 135.608704 209.76 
L 136.101665 206.4 
L 136.607868 203.04 
L 137.127854 199.68 
L 137.662194 196.32 
L 138.211491 192.96 
L 138.77638 189.6 
L 139.357537 186.24 
L 139.955673 182.88 
L 140.571544 179.52 
L 140.727273 178.685886 
L 141.271836 176.16 
L 142.01135 172.8 
L 142.768701 169.44 
L 143.544542 166.08 
L 144.339559 162.72 
L 145.154471 159.36 
L 145.990035 156 
L 146.363636 154.524713 
L 146.882326 152.64 
L 147.807028 149.28 
L 148.737922 145.92 
L 149.677863 142.56 
L 150.625132 139.2 
L 151.579816 135.84 
L 152 134.369453 
L 152.547679 132.48 
L 153.521612 129.12 
L 154.495545 125.76 
L 155.469478 122.4 
L 156.453395 119.04 
L 157.489279 115.68 
L 157.636364 115.208837 
L 158.567922 112.32 
L 159.651415 108.96 
L 160.734908 105.6 
L 161.818401 102.24 
L 162.901894 98.88 
L 163.272727 97.730017 
L 164.006096 95.52 
L 165.194201 92.16 
L 166.392355 88.8 
L 167.590508 85.44 
L 168.788662 82.08 
L 168.909091 81.74228 
L 169.986816 78.72 
L 171.188576 75.36 
L 172.408095 72 
L 173.636055 68.64 
L 174.545455 66.151657 
L 174.864014 65.28 
L 176.091973 61.92 
L 177.319932 58.56 
L 178.547891 55.2 
L 179.775851 51.84 
L 174.545455 51.84 
L 168.909091 51.84 
L 163.272727 51.84 
L 157.636364 51.84 
L 152 51.84 
L 146.363636 51.84 
L 140.727273 51.84 
L 135.090909 51.84 
L 135.090909 55.2 
L 129.454545 58.56 
L 129.454545 61.92 
L 129.454545 65.28 
L 129.454545 68.64 
L 129.454545 72 
L 129.454545 75.36 
L 129.454545 78.72 
L 129.454545 82.08 
L 129.454545 85.44 
L 129.454545 88.8 
L 129.454545 92.16 
L 129.454545 95.52 
L 129.454545 98.88 
L 129.454545 102.24 
L 123.818182 105.6 
L 123.818182 108.96 
L 123.818182 112.32 
L 123.818182 115.68 
L 123.818182 119.04 
L 123.818182 122.4 
L 123.818182 125.76 
L 123.818182 129.12 
L 123.818182 132.48 
L 123.818182 135.84 
L 123.818182 139.2 
L 123.818182 142.56 
L 123.818182 145.92 
L 123.818182 149.28 
L 118.181818 152.64 
L 118.181818 156 
L 118.181818 159.36 
L 118.181818 162.72 
L 118.181818 166.08 
L 118.181818 169.44 
L 118.181818 172.8 
L 118.181818 176.16 
L 118.181818 179.52 
L 118.181818 182.88 
L 118.181818 186.24 
L 118.181818 189.6 
L 118.181818 192.96 
L 118.181818 196.32 
L 112.545455 199.68 
L 112.545455 203.04 
L 112.545455 206.4 
L 112.545455 209.76 
L 112.545455 213.12 
L 112.545455 216.48 
L 112.545455 219.84 
L 112.545455 223.2 
L 112.545455 226.56 
L 112.545455 229.92 
L 112.545455 233.28 
L 112.545455 236.64 
L 112.545455 240 
L 112.545455 243.36 
L 106.909091 246.72 
L 106.909091 250.08 
L 106.909091 253.44 
L 106.909091 256.8 
L 106.909091 260.16 
L 106.909091 263.52 
L 106.909091 266.88 
L 106.909091 270.24 
L 106.909091 273.6 
L 106.909091 276.96 
L 106.909091 280.32 
L 106.909091 283.68 
L 106.909091 287.04 
L 106.909091 290.4 
L 101.272727 293.76 
L 101.272727 297.12 
L 101.272727 300.48 
L 101.272727 303.84 
L 101.272727 307.2 
L 101.272727 310.56 
L 101.272727 313.92 
L 101.272727 317.28 
L 101.272727 320.64 
L 101.272727 324 
L 101.272727 327.36 
L 101.272727 330.72 
L 101.272727 334.08 
L 101.272727 337.44 
L 95.636364 340.8 
L 95.636364 344.16 
L 95.636364 347.52 
L 95.636364 350.88 
L 95.636364 354.24 
L 95.636364 357.6 
L 95.636364 360.96 
L 95.636364 364.32 
L 95.636364 367.68 
L 95.636364 371.04 
L 95.636364 374.4 
L 95.636364 377.76 
z
" clip-path="url(#p046b058189)" style="fill: #443983"/>
    <path d="M 123.818182 357.781576 
L 124.226122 357.6 
L 129.454545 355.187143 
L 131.610377 354.24 
L 135.090909 352.651857 
L 139.221745 350.88 
L 140.727273 350.203165 
L 146.363636 347.920574 
L 147.470912 347.52 
L 152 345.857674 
L 156.737444 344.16 
L 157.636364 343.83311 
L 158.99112 343.35239 
L 163.272727 340.8 
L 168.909091 337.44 
L 174.545455 334.08 
L 180.181818 330.72 
L 185.818182 327.36 
L 191.454545 324 
L 197.090909 320.64 
L 202.727273 317.28 
L 208.363636 313.92 
L 214 310.56 
L 219.636364 307.2 
L 225.272727 303.84 
L 230.909091 300.48 
L 236.545455 297.12 
L 240.910516 294.51786 
L 236.545455 296.009913 
L 233.297848 297.12 
L 230.909091 297.936518 
L 225.272727 299.923218 
L 223.787862 300.48 
L 219.636364 302.015114 
L 214.809102 303.84 
L 214 304.141688 
L 208.363636 306.385057 
L 206.37066 307.2 
L 202.727273 308.676778 
L 198.140146 310.56 
L 197.090909 310.987024 
L 191.454545 313.389653 
L 190.298035 313.92 
L 185.818182 315.899896 
L 182.841 317.28 
L 180.181818 318.469579 
L 175.546119 320.64 
L 174.545455 321.102634 
L 168.909091 323.739615 
L 168.308424 324 
L 163.272727 326.301632 
L 160.544463 327.36 
L 157.636364 328.63613 
L 154.584804 327.36 
L 155.382513 324 
L 156.180222 320.64 
L 156.97793 317.28 
L 157.636364 314.506638 
L 157.775639 313.92 
L 158.573348 310.56 
L 159.371057 307.2 
L 160.168766 303.84 
L 160.966475 300.48 
L 161.729216 297.12 
L 162.515899 293.76 
L 163.272727 290.765918 
L 163.359601 290.4 
L 164.240544 287.04 
L 165.15478 283.68 
L 166.062996 280.32 
L 166.878833 276.96 
L 167.784153 273.6 
L 168.794533 270.24 
L 168.909091 269.882156 
L 169.72596 266.88 
L 170.640196 263.52 
L 171.554432 260.16 
L 172.392425 256.8 
L 173.275285 253.44 
L 174.258702 250.08 
L 174.545455 249.167395 
L 175.219621 246.72 
L 176.161657 243.36 
L 177.154394 240 
L 178.079716 236.64 
L 179.037585 233.28 
L 180.126014 229.92 
L 180.181818 229.759248 
L 181.127596 226.56 
L 182.120897 223.2 
L 183.096407 219.84 
L 183.989408 216.48 
L 185.000548 213.12 
L 185.818182 210.693334 
L 186.094099 209.76 
L 187.094388 206.4 
L 188.107689 203.04 
L 189.038622 199.68 
L 190.032518 196.32 
L 191.183472 192.96 
L 191.454545 192.23903 
L 192.303038 189.6 
L 193.383334 186.24 
L 194.409598 182.88 
L 195.409562 179.52 
L 196.548453 176.16 
L 197.090909 174.708484 
L 197.704519 172.8 
L 198.784815 169.44 
L 199.850362 166.08 
L 200.821758 162.72 
L 201.925797 159.36 
L 202.727273 157.177938 
L 203.109016 156 
L 204.198269 152.64 
L 205.288045 149.28 
L 206.274444 145.92 
L 207.369333 142.56 
L 208.363636 139.806019 
L 208.560604 139.2 
L 209.652665 135.84 
L 210.744726 132.48 
L 211.836787 129.12 
L 212.899918 125.76 
L 214 122.464332 
L 214.024112 122.4 
L 215.271503 119.04 
L 216.495829 115.68 
L 217.697724 112.32 
L 218.877798 108.96 
L 219.636364 106.767455 
L 220.044606 105.6 
L 221.219549 102.24 
L 222.394492 98.88 
L 223.569435 95.52 
L 224.744379 92.16 
L 225.272727 90.649075 
L 225.937393 88.8 
L 227.146369 85.44 
L 228.356891 82.08 
L 229.568962 78.72 
L 230.782585 75.36 
L 230.909091 75.010007 
L 232.308832 72 
L 233.886445 68.64 
L 235.48516 65.28 
L 236.545455 63.148116 
L 237.188235 61.92 
L 238.969894 58.56 
L 240.838849 55.2 
L 242.181818 52.839686 
L 242.750619 51.84 
L 242.181818 51.84 
L 236.545455 51.84 
L 230.909091 51.84 
L 225.272727 51.84 
L 219.636364 51.84 
L 214 51.84 
L 208.363636 51.84 
L 202.727273 51.84 
L 197.090909 51.84 
L 191.454545 51.84 
L 185.818182 51.84 
L 180.181818 51.84 
L 179.775851 51.84 
L 178.547891 55.2 
L 177.319932 58.56 
L 176.091973 61.92 
L 174.864014 65.28 
L 174.545455 66.151657 
L 173.636055 68.64 
L 172.408095 72 
L 171.188576 75.36 
L 169.986816 78.72 
L 168.909091 81.74228 
L 168.788662 82.08 
L 167.590508 85.44 
L 166.392355 88.8 
L 165.194201 92.16 
L 164.006096 95.52 
L 163.272727 97.730017 
L 162.901894 98.88 
L 161.818401 102.24 
L 160.734908 105.6 
L 159.651415 108.96 
L 158.567922 112.32 
L 157.636364 115.208837 
L 157.489279 115.68 
L 156.453395 119.04 
L 155.469478 122.4 
L 154.495545 125.76 
L 153.521612 129.12 
L 152.547679 132.48 
L 152 134.369453 
L 151.579816 135.84 
L 150.625132 139.2 
L 149.677863 142.56 
L 148.737922 145.92 
L 147.807028 149.28 
L 146.882326 152.64 
L 146.363636 154.524713 
L 145.990035 156 
L 145.154471 159.36 
L 144.339559 162.72 
L 143.544542 166.08 
L 142.768701 169.44 
L 142.01135 172.8 
L 141.271836 176.16 
L 140.727273 178.685886 
L 140.571544 179.52 
L 139.955673 182.88 
L 139.357537 186.24 
L 138.77638 189.6 
L 138.211491 192.96 
L 137.662194 196.32 
L 137.127854 199.68 
L 136.607868 203.04 
L 136.101665 206.4 
L 135.608704 209.76 
L 135.128473 213.12 
L 135.090909 213.384865 
L 134.709429 216.48 
L 134.292823 219.84 
L 133.875233 223.2 
L 133.456655 226.56 
L 133.037086 229.92 
L 132.616521 233.28 
L 132.194958 236.64 
L 131.772392 240 
L 131.348821 243.36 
L 130.92424 246.72 
L 130.498646 250.08 
L 130.072036 253.44 
L 129.644384 256.8 
L 129.454545 258.273186 
L 129.20886 260.16 
L 128.769183 263.52 
L 128.329506 266.88 
L 127.889829 270.24 
L 127.450152 273.6 
L 127.010475 276.96 
L 126.579157 280.32 
L 126.154779 283.68 
L 125.733978 287.04 
L 125.316708 290.4 
L 124.902926 293.76 
L 124.495388 297.12 
L 124.087879 300.48 
L 123.818182 302.703709 
L 123.68037 303.84 
L 123.274663 307.2 
L 122.875009 310.56 
L 122.495768 313.92 
L 122.132234 317.28 
L 121.7687 320.64 
L 121.405167 324 
L 121.041633 327.36 
L 120.678099 330.72 
L 120.314566 334.08 
L 119.962578 337.44 
L 119.679863 340.8 
L 119.397148 344.16 
L 119.114433 347.52 
L 118.831719 350.88 
L 118.549004 354.24 
L 119.116884 357.6 
z
" clip-path="url(#p046b058189)" style="fill: #375a8c"/>
    <path d="M 157.636364 328.63613 
L 160.544463 327.36 
L 163.272727 326.301632 
L 168.308424 324 
L 168.909091 323.739615 
L 174.545455 321.102634 
L 175.546119 320.64 
L 180.181818 318.469579 
L 182.841 317.28 
L 185.818182 315.899896 
L 190.298035 313.92 
L 191.454545 313.389653 
L 197.090909 310.987024 
L 198.140146 310.56 
L 202.727273 308.676778 
L 206.37066 307.2 
L 208.363636 306.385057 
L 214 304.141688 
L 214.809102 303.84 
L 219.636364 302.015114 
L 223.787862 300.48 
L 225.272727 299.923218 
L 230.909091 297.936518 
L 233.297848 297.12 
L 236.545455 296.009913 
L 240.910516 294.51786 
L 242.181818 293.76 
L 247.818182 290.4 
L 253.454545 287.04 
L 259.090909 283.68 
L 264.727273 280.32 
L 270.363636 276.96 
L 276 273.6 
L 281.636364 270.24 
L 287.272727 266.88 
L 292.909091 263.52 
L 298.545455 260.16 
L 304.181818 256.8 
L 309.818182 253.44 
L 315.454545 250.08 
L 321.090909 246.72 
L 322.829911 245.683331 
L 321.090909 246.277751 
L 319.797092 246.72 
L 315.454545 248.204356 
L 309.967273 250.08 
L 309.818182 250.130962 
L 304.181818 252.057567 
L 300.137453 253.44 
L 298.545455 253.984172 
L 292.909091 256.034681 
L 290.922505 256.8 
L 287.272727 258.187454 
L 282.18928 260.16 
L 281.636364 260.371749 
L 276 262.610607 
L 273.718902 263.52 
L 270.363636 264.857625 
L 265.345984 266.88 
L 264.727273 267.127551 
L 259.090909 269.462764 
L 257.226855 270.24 
L 253.454545 271.812902 
L 249.16853 273.6 
L 247.818182 274.163041 
L 242.181818 276.581342 
L 241.368497 276.96 
L 236.545455 279.132691 
L 234.018197 280.32 
L 230.909091 281.780661 
L 226.866234 283.68 
L 225.272727 284.428632 
L 219.714272 287.04 
L 219.636364 287.076602 
L 214 289.724572 
L 212.56231 290.4 
L 208.363636 292.372542 
L 204.518576 293.76 
L 202.727273 294.550945 
L 200.802544 293.76 
L 201.600253 290.4 
L 202.481196 287.04 
L 202.727273 286.135618 
L 203.406738 283.68 
L 204.368662 280.32 
L 205.388344 276.96 
L 206.421188 273.6 
L 207.467452 270.24 
L 208.363636 267.396968 
L 208.55592 266.88 
L 209.800916 263.52 
L 211.035628 260.16 
L 212.260185 256.8 
L 213.474711 253.44 
L 214 251.978207 
L 214.739004 250.08 
L 216.047107 246.72 
L 217.355211 243.36 
L 218.663315 240 
L 219.636364 237.500624 
L 219.971419 236.64 
L 221.279523 233.28 
L 222.587626 229.92 
L 223.89573 226.56 
L 225.203834 223.2 
L 225.272727 223.023041 
L 226.472694 219.84 
L 227.727821 216.48 
L 228.971249 213.12 
L 230.203138 209.76 
L 230.909091 207.820346 
L 231.547896 206.4 
L 233.059067 203.04 
L 234.570237 199.68 
L 236.081408 196.32 
L 236.545455 195.28822 
L 237.592579 192.96 
L 239.10375 189.6 
L 240.61492 186.24 
L 242.126091 182.88 
L 242.181818 182.756094 
L 243.637262 179.52 
L 245.148433 176.16 
L 246.659604 172.8 
L 247.818182 170.223969 
L 248.190261 169.44 
L 249.808012 166.08 
L 251.434645 162.72 
L 253.061279 159.36 
L 253.454545 158.547662 
L 254.687912 156 
L 256.314545 152.64 
L 257.941179 149.28 
L 259.090909 146.905099 
L 259.567812 145.92 
L 261.194446 142.56 
L 262.821079 139.2 
L 264.447712 135.84 
L 264.727273 135.262535 
L 266.095546 132.48 
L 267.782249 129.12 
L 269.507893 125.76 
L 270.363636 124.122067 
L 271.264945 122.4 
L 273.023527 119.04 
L 274.782109 115.68 
L 276 113.353061 
L 276.540691 112.32 
L 278.299274 108.96 
L 280.057856 105.6 
L 281.636364 102.584055 
L 281.816438 102.24 
L 283.57502 98.88 
L 285.333602 95.52 
L 287.092185 92.16 
L 287.272727 91.82999 
L 288.968623 88.8 
L 290.880393 85.44 
L 292.792162 82.08 
L 292.909091 81.874493 
L 294.703932 78.72 
L 296.615701 75.36 
L 298.527471 72 
L 298.545455 71.968393 
L 300.43924 68.64 
L 302.35101 65.28 
L 304.181818 62.062292 
L 304.262779 61.92 
L 306.174549 58.56 
L 308.086318 55.2 
L 309.818182 52.156191 
L 309.998088 51.84 
L 309.818182 51.84 
L 304.181818 51.84 
L 298.545455 51.84 
L 292.909091 51.84 
L 287.272727 51.84 
L 281.636364 51.84 
L 276 51.84 
L 270.363636 51.84 
L 264.727273 51.84 
L 259.090909 51.84 
L 253.454545 51.84 
L 247.818182 51.84 
L 242.750619 51.84 
L 242.181818 52.839686 
L 240.838849 55.2 
L 238.969894 58.56 
L 237.188235 61.92 
L 236.545455 63.148116 
L 235.48516 65.28 
L 233.886445 68.64 
L 232.308832 72 
L 230.909091 75.010007 
L 230.782585 75.36 
L 229.568962 78.72 
L 228.356891 82.08 
L 227.146369 85.44 
L 225.937393 88.8 
L 225.272727 90.649075 
L 224.744379 92.16 
L 223.569435 95.52 
L 222.394492 98.88 
L 221.219549 102.24 
L 220.044606 105.6 
L 219.636364 106.767455 
L 218.877798 108.96 
L 217.697724 112.32 
L 216.495829 115.68 
L 215.271503 119.04 
L 214.024112 122.4 
L 214 122.464332 
L 212.899918 125.76 
L 211.836787 129.12 
L 210.744726 132.48 
L 209.652665 135.84 
L 208.560604 139.2 
L 208.363636 139.806019 
L 207.369333 142.56 
L 206.274444 145.92 
L 205.288045 149.28 
L 204.198269 152.64 
L 203.109016 156 
L 202.727273 157.177938 
L 201.925797 159.36 
L 200.821758 162.72 
L 199.850362 166.08 
L 198.784815 169.44 
L 197.704519 172.8 
L 197.090909 174.708484 
L 196.548453 176.16 
L 195.409562 179.52 
L 194.409598 182.88 
L 193.383334 186.24 
L 192.303038 189.6 
L 191.454545 192.23903 
L 191.183472 192.96 
L 190.032518 196.32 
L 189.038622 199.68 
L 188.107689 203.04 
L 187.094388 206.4 
L 186.094099 209.76 
L 185.818182 210.693334 
L 185.000548 213.12 
L 183.989408 216.48 
L 183.096407 219.84 
L 182.120897 223.2 
L 181.127596 226.56 
L 180.181818 229.759248 
L 180.126014 229.92 
L 179.037585 233.28 
L 178.079716 236.64 
L 177.154394 240 
L 176.161657 243.36 
L 175.219621 246.72 
L 174.545455 249.167395 
L 174.258702 250.08 
L 173.275285 253.44 
L 172.392425 256.8 
L 171.554432 260.16 
L 170.640196 263.52 
L 169.72596 266.88 
L 168.909091 269.882156 
L 168.794533 270.24 
L 167.784153 273.6 
L 166.878833 276.96 
L 166.062996 280.32 
L 165.15478 283.68 
L 164.240544 287.04 
L 163.359601 290.4 
L 163.272727 290.765918 
L 162.515899 293.76 
L 161.729216 297.12 
L 160.966475 300.48 
L 160.168766 303.84 
L 159.371057 307.2 
L 158.573348 310.56 
L 157.775639 313.92 
L 157.636364 314.506638 
L 156.97793 317.28 
L 156.180222 320.64 
L 155.382513 324 
L 154.584804 327.36 
z
" clip-path="url(#p046b058189)" style="fill: #2b758e"/>
    <path d="M 202.727273 294.550945 
L 204.518576 293.76 
L 208.363636 292.372542 
L 212.56231 290.4 
L 214 289.724572 
L 219.636364 287.076602 
L 219.714272 287.04 
L 225.272727 284.428632 
L 226.866234 283.68 
L 230.909091 281.780661 
L 234.018197 280.32 
L 236.545455 279.132691 
L 241.368497 276.96 
L 242.181818 276.581342 
L 247.818182 274.163041 
L 249.16853 273.6 
L 253.454545 271.812902 
L 257.226855 270.24 
L 259.090909 269.462764 
L 264.727273 267.127551 
L 265.345984 266.88 
L 270.363636 264.857625 
L 273.718902 263.52 
L 276 262.610607 
L 281.636364 260.371749 
L 282.18928 260.16 
L 287.272727 258.187454 
L 290.922505 256.8 
L 292.909091 256.034681 
L 298.545455 253.984172 
L 300.137453 253.44 
L 304.181818 252.057567 
L 309.818182 250.130962 
L 309.967273 250.08 
L 315.454545 248.204356 
L 319.797092 246.72 
L 321.090909 246.277751 
L 322.829911 245.683331 
L 326.727273 243.36 
L 332.363636 240 
L 338 236.64 
L 343.636364 233.28 
L 349.272727 229.92 
L 354.909091 226.56 
L 360.545455 223.2 
L 366.181818 219.84 
L 371.818182 216.48 
L 377.454545 213.12 
L 383.090909 209.76 
L 388.727273 206.4 
L 394.363636 203.04 
L 400 199.68 
L 404.749306 196.848801 
L 400 198.472195 
L 396.466516 199.68 
L 394.363636 200.3988 
L 388.727273 202.325405 
L 386.636697 203.04 
L 383.090909 204.252011 
L 377.454545 206.178616 
L 376.806877 206.4 
L 371.818182 208.105221 
L 366.977058 209.76 
L 366.181818 210.031827 
L 360.545455 212.164655 
L 358.12443 213.12 
L 354.909091 214.372737 
L 349.603162 216.48 
L 349.272727 216.610236 
L 343.636364 218.857254 
L 341.171269 219.84 
L 338 221.104272 
L 332.74313 223.2 
L 332.363636 223.351291 
L 326.727273 225.645649 
L 324.51611 226.56 
L 321.090909 227.964288 
L 316.379189 229.92 
L 315.454545 230.300548 
L 309.818182 232.649936 
L 308.307092 233.28 
L 304.181818 235.000074 
L 300.248767 236.64 
L 298.545455 237.350213 
L 292.909091 239.810719 
L 292.506194 240 
L 287.272727 242.458689 
L 285.354232 243.36 
L 281.636364 245.106659 
L 278.20227 246.72 
L 276 247.754629 
L 270.89366 250.08 
L 270.363636 250.327347 
L 264.727273 251.806549 
L 262.516707 250.08 
L 263.841466 246.72 
L 264.727273 244.473321 
L 265.166226 243.36 
L 266.593008 240 
L 268.096308 236.64 
L 269.599609 233.28 
L 270.363636 231.572335 
L 271.124352 229.92 
L 272.714251 226.56 
L 274.343409 223.2 
L 275.972566 219.84 
L 276 219.78342 
L 277.68242 216.48 
L 279.398365 213.12 
L 281.119076 209.76 
L 281.636364 208.751725 
L 282.951742 206.4 
L 284.800426 203.04 
L 286.613978 199.68 
L 287.272727 198.443505 
L 288.46884 196.32 
L 290.361437 192.96 
L 292.254034 189.6 
L 292.909091 188.437053 
L 294.146631 186.24 
L 296.039228 182.88 
L 297.931825 179.52 
L 298.545455 178.4306 
L 299.824422 176.16 
L 301.717019 172.8 
L 303.609616 169.44 
L 304.181818 168.424148 
L 305.489264 166.08 
L 307.361237 162.72 
L 309.230784 159.36 
L 309.818182 158.303412 
L 311.224 156 
L 313.245886 152.64 
L 315.234371 149.28 
L 315.454545 148.904519 
L 317.315971 145.92 
L 319.411581 142.56 
L 321.090909 139.867446 
L 321.507191 139.2 
L 323.602801 135.84 
L 325.698411 132.48 
L 326.727273 130.830373 
L 327.794021 129.12 
L 329.889631 125.76 
L 331.985241 122.4 
L 332.363636 121.793299 
L 334.178596 119.04 
L 336.426481 115.68 
L 338 113.360285 
L 338.713889 112.32 
L 341.019667 108.96 
L 343.325445 105.6 
L 343.636364 105.146927 
L 345.631223 102.24 
L 347.937001 98.88 
L 349.272727 96.933568 
L 350.242779 95.52 
L 352.548557 92.16 
L 354.854335 88.8 
L 354.909091 88.72021 
L 357.220695 85.44 
L 359.684714 82.08 
L 360.545455 80.910048 
L 362.156685 78.72 
L 364.628656 75.36 
L 366.181818 73.24888 
L 367.100626 72 
L 369.572597 68.64 
L 371.818182 65.587713 
L 372.044568 65.28 
L 374.516539 61.92 
L 376.988509 58.56 
L 377.454545 57.926545 
L 379.46048 55.2 
L 381.932451 51.84 
L 377.454545 51.84 
L 371.818182 51.84 
L 366.181818 51.84 
L 360.545455 51.84 
L 354.909091 51.84 
L 349.272727 51.84 
L 343.636364 51.84 
L 338 51.84 
L 332.363636 51.84 
L 326.727273 51.84 
L 321.090909 51.84 
L 315.454545 51.84 
L 309.998088 51.84 
L 309.818182 52.156191 
L 308.086318 55.2 
L 306.174549 58.56 
L 304.262779 61.92 
L 304.181818 62.062292 
L 302.35101 65.28 
L 300.43924 68.64 
L 298.545455 71.968393 
L 298.527471 72 
L 296.615701 75.36 
L 294.703932 78.72 
L 292.909091 81.874493 
L 292.792162 82.08 
L 290.880393 85.44 
L 288.968623 88.8 
L 287.272727 91.82999 
L 287.092185 92.16 
L 285.333602 95.52 
L 283.57502 98.88 
L 281.816438 102.24 
L 281.636364 102.584055 
L 280.057856 105.6 
L 278.299274 108.96 
L 276.540691 112.32 
L 276 113.353061 
L 274.782109 115.68 
L 273.023527 119.04 
L 271.264945 122.4 
L 270.363636 124.122067 
L 269.507893 125.76 
L 267.782249 129.12 
L 266.095546 132.48 
L 264.727273 135.262535 
L 264.447712 135.84 
L 262.821079 139.2 
L 261.194446 142.56 
L 259.567812 145.92 
L 259.090909 146.905099 
L 257.941179 149.28 
L 256.314545 152.64 
L 254.687912 156 
L 253.454545 158.547662 
L 253.061279 159.36 
L 251.434645 162.72 
L 249.808012 166.08 
L 248.190261 169.44 
L 247.818182 170.223969 
L 246.659604 172.8 
L 245.148433 176.16 
L 243.637262 179.52 
L 242.181818 182.756094 
L 242.126091 182.88 
L 240.61492 186.24 
L 239.10375 189.6 
L 237.592579 192.96 
L 236.545455 195.28822 
L 236.081408 196.32 
L 234.570237 199.68 
L 233.059067 203.04 
L 231.547896 206.4 
L 230.909091 207.820346 
L 230.203138 209.76 
L 228.971249 213.12 
L 227.727821 216.48 
L 226.472694 219.84 
L 225.272727 223.023041 
L 225.203834 223.2 
L 223.89573 226.56 
L 222.587626 229.92 
L 221.279523 233.28 
L 219.971419 236.64 
L 219.636364 237.500624 
L 218.663315 240 
L 217.355211 243.36 
L 216.047107 246.72 
L 214.739004 250.08 
L 214 251.978207 
L 213.474711 253.44 
L 212.260185 256.8 
L 211.035628 260.16 
L 209.800916 263.52 
L 208.55592 266.88 
L 208.363636 267.396968 
L 207.467452 270.24 
L 206.421188 273.6 
L 205.388344 276.96 
L 204.368662 280.32 
L 203.406738 283.68 
L 202.727273 286.135618 
L 202.481196 287.04 
L 201.600253 290.4 
L 200.802544 293.76 
z
" clip-path="url(#p046b058189)" style="fill: #21918c"/>
    <path d="M 264.727273 251.806549 
L 270.363636 250.327347 
L 270.89366 250.08 
L 276 247.754629 
L 278.20227 246.72 
L 281.636364 245.106659 
L 285.354232 243.36 
L 287.272727 242.458689 
L 292.506194 240 
L 292.909091 239.810719 
L 298.545455 237.350213 
L 300.248767 236.64 
L 304.181818 235.000074 
L 308.307092 233.28 
L 309.818182 232.649936 
L 315.454545 230.300548 
L 316.379189 229.92 
L 321.090909 227.964288 
L 324.51611 226.56 
L 326.727273 225.645649 
L 332.363636 223.351291 
L 332.74313 223.2 
L 338 221.104272 
L 341.171269 219.84 
L 343.636364 218.857254 
L 349.272727 216.610236 
L 349.603162 216.48 
L 354.909091 214.372737 
L 358.12443 213.12 
L 360.545455 212.164655 
L 366.181818 210.031827 
L 366.977058 209.76 
L 371.818182 208.105221 
L 376.806877 206.4 
L 377.454545 206.178616 
L 383.090909 204.252011 
L 386.636697 203.04 
L 388.727273 202.325405 
L 394.363636 200.3988 
L 396.466516 199.68 
L 400 198.472195 
L 404.749306 196.848801 
L 405.636364 196.32 
L 411.272727 192.96 
L 416.909091 189.6 
L 422.545455 186.24 
L 428.181818 182.88 
L 433.818182 179.52 
L 439.454545 176.16 
L 445.090909 172.8 
L 450.727273 169.44 
L 456.363636 166.08 
L 462 162.72 
L 467.636364 159.36 
L 473.272727 156 
L 478.909091 152.64 
L 484.545455 149.28 
L 486.668701 148.014271 
L 484.545455 148.740033 
L 482.965759 149.28 
L 478.909091 150.666638 
L 473.272727 152.593244 
L 473.13594 152.64 
L 467.636364 154.519849 
L 463.306121 156 
L 462 156.446454 
L 456.363636 158.37306 
L 453.476301 159.36 
L 450.727273 160.299665 
L 445.090909 162.22627 
L 443.646482 162.72 
L 439.454545 164.152876 
L 433.945276 166.08 
L 433.818182 166.12387 
L 428.181818 168.362846 
L 425.479912 169.44 
L 422.545455 170.609864 
L 417.051774 172.8 
L 416.909091 172.856883 
L 411.272727 175.103901 
L 408.623636 176.16 
L 405.636364 177.350919 
L 400.195497 179.52 
L 400 179.597938 
L 394.363636 181.860396 
L 391.85801 182.88 
L 388.727273 184.142718 
L 383.594402 186.24 
L 383.090909 186.443924 
L 377.454545 188.786692 
L 375.503979 189.6 
L 371.818182 191.13683 
L 367.445654 192.96 
L 366.181818 193.486969 
L 360.545455 195.837108 
L 359.387329 196.32 
L 354.909091 198.187246 
L 351.505738 199.68 
L 349.272727 200.625099 
L 344.790955 199.68 
L 346.46359 196.32 
L 348.447675 192.96 
L 349.272727 191.644199 
L 350.554511 189.6 
L 352.679278 186.24 
L 354.862559 182.88 
L 354.909091 182.809244 
L 357.197438 179.52 
L 359.497948 176.16 
L 360.545455 174.612018 
L 361.899074 172.8 
L 364.411541 169.44 
L 366.181818 167.06692 
L 366.91907 166.08 
L 369.429069 162.72 
L 371.818182 159.521822 
L 371.939067 159.36 
L 374.449065 156 
L 376.959063 152.64 
L 377.454545 151.976724 
L 379.469061 149.28 
L 381.979059 145.92 
L 383.090909 144.431626 
L 384.489058 142.56 
L 386.999056 139.2 
L 388.727273 136.886529 
L 389.502778 135.84 
L 391.978351 132.48 
L 394.363636 129.232135 
L 394.450545 129.12 
L 397.040334 125.76 
L 399.602676 122.4 
L 400 121.87578 
L 402.307484 119.04 
L 405.041527 115.68 
L 405.636364 114.948975 
L 407.77557 112.32 
L 410.509613 108.96 
L 411.272727 108.022171 
L 413.243656 105.6 
L 415.977699 102.24 
L 416.909091 101.095366 
L 418.711742 98.88 
L 421.445785 95.52 
L 422.545455 94.168561 
L 424.179828 92.16 
L 426.913871 88.8 
L 428.181818 87.287168 
L 429.822958 85.44 
L 432.861568 82.08 
L 433.818182 81.022206 
L 435.900177 78.72 
L 438.938787 75.36 
L 439.454545 74.78969 
L 441.977396 72 
L 445.016006 68.64 
L 445.090909 68.557174 
L 448.054616 65.28 
L 450.727273 62.324659 
L 451.093225 61.92 
L 454.131835 58.56 
L 456.363636 56.092143 
L 457.170444 55.2 
L 460.209054 51.84 
L 456.363636 51.84 
L 450.727273 51.84 
L 445.090909 51.84 
L 439.454545 51.84 
L 433.818182 51.84 
L 428.181818 51.84 
L 422.545455 51.84 
L 416.909091 51.84 
L 411.272727 51.84 
L 405.636364 51.84 
L 400 51.84 
L 394.363636 51.84 
L 388.727273 51.84 
L 383.090909 51.84 
L 381.932451 51.84 
L 379.46048 55.2 
L 377.454545 57.926545 
L 376.988509 58.56 
L 374.516539 61.92 
L 372.044568 65.28 
L 371.818182 65.587713 
L 369.572597 68.64 
L 367.100626 72 
L 366.181818 73.24888 
L 364.628656 75.36 
L 362.156685 78.72 
L 360.545455 80.910048 
L 359.684714 82.08 
L 357.220695 85.44 
L 354.909091 88.72021 
L 354.854335 88.8 
L 352.548557 92.16 
L 350.242779 95.52 
L 349.272727 96.933568 
L 347.937001 98.88 
L 345.631223 102.24 
L 343.636364 105.146927 
L 343.325445 105.6 
L 341.019667 108.96 
L 338.713889 112.32 
L 338 113.360285 
L 336.426481 115.68 
L 334.178596 119.04 
L 332.363636 121.793299 
L 331.985241 122.4 
L 329.889631 125.76 
L 327.794021 129.12 
L 326.727273 130.830373 
L 325.698411 132.48 
L 323.602801 135.84 
L 321.507191 139.2 
L 321.090909 139.867446 
L 319.411581 142.56 
L 317.315971 145.92 
L 315.454545 148.904519 
L 315.234371 149.28 
L 313.245886 152.64 
L 311.224 156 
L 309.818182 158.303412 
L 309.230784 159.36 
L 307.361237 162.72 
L 305.489264 166.08 
L 304.181818 168.424148 
L 303.609616 169.44 
L 301.717019 172.8 
L 299.824422 176.16 
L 298.545455 178.4306 
L 297.931825 179.52 
L 296.039228 182.88 
L 294.146631 186.24 
L 292.909091 188.437053 
L 292.254034 189.6 
L 290.361437 192.96 
L 288.46884 196.32 
L 287.272727 198.443505 
L 286.613978 199.68 
L 284.800426 203.04 
L 282.951742 206.4 
L 281.636364 208.751725 
L 281.119076 209.76 
L 279.398365 213.12 
L 277.68242 216.48 
L 276 219.78342 
L 275.972566 219.84 
L 274.343409 223.2 
L 272.714251 226.56 
L 271.124352 229.92 
L 270.363636 231.572335 
L 269.599609 233.28 
L 268.096308 236.64 
L 266.593008 240 
L 265.166226 243.36 
L 264.727273 244.473321 
L 263.841466 246.72 
L 262.516707 250.08 
z
" clip-path="url(#p046b058189)" style="fill: #25ab82"/>
    <path d="M 349.272727 200.625099 
L 351.505738 199.68 
L 354.909091 198.187246 
L 359.387329 196.32 
L 360.545455 195.837108 
L 366.181818 193.486969 
L 367.445654 192.96 
L 371.818182 191.13683 
L 375.503979 189.6 
L 377.454545 188.786692 
L 383.090909 186.443924 
L 383.594402 186.24 
L 388.727273 184.142718 
L 391.85801 182.88 
L 394.363636 181.860396 
L 400 179.597938 
L 400.195497 179.52 
L 405.636364 177.350919 
L 408.623636 176.16 
L 411.272727 175.103901 
L 416.909091 172.856883 
L 417.051774 172.8 
L 422.545455 170.609864 
L 425.479912 169.44 
L 428.181818 168.362846 
L 433.818182 166.12387 
L 433.945276 166.08 
L 439.454545 164.152876 
L 443.646482 162.72 
L 445.090909 162.22627 
L 450.727273 160.299665 
L 453.476301 159.36 
L 456.363636 158.37306 
L 462 156.446454 
L 463.306121 156 
L 467.636364 154.519849 
L 473.13594 152.64 
L 473.272727 152.593244 
L 478.909091 150.666638 
L 482.965759 149.28 
L 484.545455 148.740033 
L 486.668701 148.014271 
L 490.181818 145.92 
L 495.818182 142.56 
L 501.454545 139.2 
L 507.090909 135.84 
L 512.727273 132.48 
L 518.363636 129.12 
L 524 125.76 
L 529.636364 122.4 
L 535.272727 119.04 
L 540.909091 115.68 
L 546.545455 112.32 
L 552.181818 108.96 
L 557.818182 105.6 
L 563.454545 102.24 
L 568.588096 99.179741 
L 563.454545 100.934477 
L 559.635183 102.24 
L 557.818182 102.861082 
L 552.181818 104.787687 
L 549.805364 105.6 
L 546.545455 106.714293 
L 540.909091 108.640898 
L 539.975545 108.96 
L 535.272727 110.567503 
L 530.145726 112.32 
L 529.636364 112.494109 
L 524 114.420714 
L 520.315906 115.68 
L 518.363636 116.347319 
L 512.727273 118.300689 
L 510.671701 119.04 
L 507.090909 120.308804 
L 501.454545 122.362475 
L 501.360418 122.4 
L 495.818182 124.609493 
L 492.932279 125.76 
L 490.181818 126.856511 
L 484.545455 129.095909 
L 484.494603 129.12 
L 478.909091 131.188557 
L 476.076002 132.48 
L 473.272727 133.597566 
L 467.647864 135.84 
L 467.636364 135.844585 
L 467.505324 135.84 
L 466.151275 132.48 
L 467.636364 130.883603 
L 469.277 129.12 
L 472.402724 125.76 
L 473.272727 124.82479 
L 475.528449 122.4 
L 478.654173 119.04 
L 478.909091 118.765976 
L 481.779898 115.68 
L 484.545455 112.707163 
L 484.905622 112.32 
L 488.031347 108.96 
L 490.181818 106.648349 
L 491.157071 105.6 
L 494.282796 102.24 
L 495.818182 100.616633 
L 497.460695 98.88 
L 500.951641 95.52 
L 501.454545 95.035959 
L 504.442587 92.16 
L 507.090909 89.611017 
L 507.933533 88.8 
L 511.424479 85.44 
L 512.727273 84.186074 
L 514.915425 82.08 
L 518.363636 78.761131 
L 518.406371 78.72 
L 521.897317 75.36 
L 524 73.336189 
L 525.388263 72 
L 528.879209 68.64 
L 529.636364 67.911246 
L 532.370155 65.28 
L 535.272727 62.486304 
L 535.869964 61.92 
L 539.409497 58.56 
L 540.909091 57.134509 
L 543.104225 55.2 
L 546.545455 52.167341 
L 546.916897 51.84 
L 546.545455 51.84 
L 540.909091 51.84 
L 535.272727 51.84 
L 529.636364 51.84 
L 524 51.84 
L 518.363636 51.84 
L 512.727273 51.84 
L 507.090909 51.84 
L 501.454545 51.84 
L 495.818182 51.84 
L 490.181818 51.84 
L 484.545455 51.84 
L 478.909091 51.84 
L 473.272727 51.84 
L 467.636364 51.84 
L 462 51.84 
L 460.209054 51.84 
L 457.170444 55.2 
L 456.363636 56.092143 
L 454.131835 58.56 
L 451.093225 61.92 
L 450.727273 62.324659 
L 448.054616 65.28 
L 445.090909 68.557174 
L 445.016006 68.64 
L 441.977396 72 
L 439.454545 74.78969 
L 438.938787 75.36 
L 435.900177 78.72 
L 433.818182 81.022206 
L 432.861568 82.08 
L 429.822958 85.44 
L 428.181818 87.287168 
L 426.913871 88.8 
L 424.179828 92.16 
L 422.545455 94.168561 
L 421.445785 95.52 
L 418.711742 98.88 
L 416.909091 101.095366 
L 415.977699 102.24 
L 413.243656 105.6 
L 411.272727 108.022171 
L 410.509613 108.96 
L 407.77557 112.32 
L 405.636364 114.948975 
L 405.041527 115.68 
L 402.307484 119.04 
L 400 121.87578 
L 399.602676 122.4 
L 397.040334 125.76 
L 394.450545 129.12 
L 394.363636 129.232135 
L 391.978351 132.48 
L 389.502778 135.84 
L 388.727273 136.886529 
L 386.999056 139.2 
L 384.489058 142.56 
L 383.090909 144.431626 
L 381.979059 145.92 
L 379.469061 149.28 
L 377.454545 151.976724 
L 376.959063 152.64 
L 374.449065 156 
L 371.939067 159.36 
L 371.818182 159.521822 
L 369.429069 162.72 
L 366.91907 166.08 
L 366.181818 167.06692 
L 364.411541 169.44 
L 361.899074 172.8 
L 360.545455 174.612018 
L 359.497948 176.16 
L 357.197438 179.52 
L 354.909091 182.809244 
L 354.862559 182.88 
L 352.679278 186.24 
L 350.554511 189.6 
L 349.272727 191.644199 
L 348.447675 192.96 
L 346.46359 196.32 
L 344.790955 199.68 
z
" clip-path="url(#p046b058189)" style="fill: #4ec36b"/>
    <path d="M 467.636364 135.844585 
L 467.647864 135.84 
L 473.272727 133.597566 
L 476.076002 132.48 
L 478.909091 131.188557 
L 484.494603 129.12 
L 484.545455 129.095909 
L 490.181818 126.856511 
L 492.932279 125.76 
L 495.818182 124.609493 
L 501.360418 122.4 
L 501.454545 122.362475 
L 507.090909 120.308804 
L 510.671701 119.04 
L 512.727273 118.300689 
L 518.363636 116.347319 
L 520.315906 115.68 
L 524 114.420714 
L 529.636364 112.494109 
L 530.145726 112.32 
L 535.272727 110.567503 
L 539.975545 108.96 
L 540.909091 108.640898 
L 546.545455 106.714293 
L 549.805364 105.6 
L 552.181818 104.787687 
L 557.818182 102.861082 
L 559.635183 102.24 
L 563.454545 100.934477 
L 568.588096 99.179741 
L 569.090909 98.88 
L 574.727273 95.52 
L 580.363636 92.16 
L 586 88.8 
L 591.636364 85.44 
L 597.272727 82.08 
L 602.909091 78.72 
L 608.545455 75.36 
L 614.181818 72 
L 619.818182 68.64 
L 625.454545 65.28 
L 631.090909 61.92 
L 636.727273 58.56 
L 642.363636 55.2 
L 648 51.84 
L 642.363636 51.84 
L 636.727273 51.84 
L 631.090909 51.84 
L 625.454545 51.84 
L 619.818182 51.84 
L 614.181818 51.84 
L 608.545455 51.84 
L 602.909091 51.84 
L 597.272727 51.84 
L 591.636364 51.84 
L 586 51.84 
L 580.363636 51.84 
L 574.727273 51.84 
L 569.090909 51.84 
L 563.454545 51.84 
L 557.818182 51.84 
L 552.181818 51.84 
L 546.916897 51.84 
L 546.545455 52.167341 
L 543.104225 55.2 
L 540.909091 57.134509 
L 539.409497 58.56 
L 535.869964 61.92 
L 535.272727 62.486304 
L 532.370155 65.28 
L 529.636364 67.911246 
L 528.879209 68.64 
L 525.388263 72 
L 524 73.336189 
L 521.897317 75.36 
L 518.406371 78.72 
L 518.363636 78.761131 
L 514.915425 82.08 
L 512.727273 84.186074 
L 511.424479 85.44 
L 507.933533 88.8 
L 507.090909 89.611017 
L 504.442587 92.16 
L 501.454545 95.035959 
L 500.951641 95.52 
L 497.460695 98.88 
L 495.818182 100.616633 
L 494.282796 102.24 
L 491.157071 105.6 
L 490.181818 106.648349 
L 488.031347 108.96 
L 484.905622 112.32 
L 484.545455 112.707163 
L 481.779898 115.68 
L 478.909091 118.765976 
L 478.654173 119.04 
L 475.528449 122.4 
L 473.272727 124.82479 
L 472.402724 125.76 
L 469.277 129.12 
L 467.636364 130.883603 
L 466.151275 132.48 
L 467.505324 135.84 
z
" clip-path="url(#p046b058189)" style="fill: #90d743"/>
    <path clip-path="url(#p046b058189)" style="fill: #dae319"/>
   </g>
   <g id="matplotlib.axis_1">
    <g id="xtick_1">
     <g id="line2d_1">
      <path d="M 145.822188 384.48 
L 145.822188 51.84 
" clip-path="url(#p046b058189)" style="fill: none; stroke: #b0b0b0; stroke-width: 0.8; stroke-linecap: square"/>
     </g>
     <g id="line2d_2">
      <defs>
       <path id="mc90a9ec924" d="M 0 0 
L 0 3.5 
" style="stroke: #000000; stroke-width: 0.8"/>
      </defs>
      <g>
       <use xlink:href="#mc90a9ec924" x="145.822188" y="384.48" style="stroke: #000000; stroke-width: 0.8"/>
      </g>
     </g>
     <g id="text_1">
      <!-- 1000 -->
      <g transform="translate(133.097188 399.078438) scale(0.1 -0.1)">
       <defs>
        <path id="DejaVuSans-31" d="M 794 531 
L 1825 531 
L 1825 4091 
L 703 3866 
L 703 4441 
L 1819 4666 
L 2450 4666 
L 2450 531 
L 3481 531 
L 3481 0 
L 794 0 
L 794 531 
z
" transform="scale(0.015625)"/>
        <path id="DejaVuSans-30" d="M 2034 4250 
Q 1547 4250 1301 3770 
Q 1056 3291 1056 2328 
Q 1056 1369 1301 889 
Q 1547 409 2034 409 
Q 2525 409 2770 889 
Q 3016 1369 3016 2328 
Q 3016 3291 2770 3770 
Q 2525 4250 2034 4250 
z
M 2034 4750 
Q 2819 4750 3233 4129 
Q 3647 3509 3647 2328 
Q 3647 1150 3233 529 
Q 2819 -91 2034 -91 
Q 1250 -91 836 529 
Q 422 1150 422 2328 
Q 422 3509 836 4129 
Q 1250 4750 2034 4750 
z
" transform="scale(0.015625)"/>
       </defs>
       <use xlink:href="#DejaVuSans-31"/>
       <use xlink:href="#DejaVuSans-30" x="63.623047"/>
       <use xlink:href="#DejaVuSans-30" x="127.246094"/>
       <use xlink:href="#DejaVuSans-30" x="190.869141"/>
      </g>
     </g>
    </g>
    <g id="xtick_2">
     <g id="line2d_3">
      <path d="M 231.171146 384.48 
L 231.171146 51.84 
" clip-path="url(#p046b058189)" style="fill: none; stroke: #b0b0b0; stroke-width: 0.8; stroke-linecap: square"/>
     </g>
     <g id="line2d_4">
      <g>
       <use xlink:href="#mc90a9ec924" x="231.171146" y="384.48" style="stroke: #000000; stroke-width: 0.8"/>
      </g>
     </g>
     <g id="text_2">
      <!-- 2000 -->
      <g transform="translate(218.446146 399.078438) scale(0.1 -0.1)">
       <defs>
        <path id="DejaVuSans-32" d="M 1228 531 
L 3431 531 
L 3431 0 
L 469 0 
L 469 531 
Q 828 903 1448 1529 
Q 2069 2156 2228 2338 
Q 2531 2678 2651 2914 
Q 2772 3150 2772 3378 
Q 2772 3750 2511 3984 
Q 2250 4219 1831 4219 
Q 1534 4219 1204 4116 
Q 875 4013 500 3803 
L 500 4441 
Q 881 4594 1212 4672 
Q 1544 4750 1819 4750 
Q 2544 4750 2975 4387 
Q 3406 4025 3406 3419 
Q 3406 3131 3298 2873 
Q 3191 2616 2906 2266 
Q 2828 2175 2409 1742 
Q 1991 1309 1228 531 
z
" transform="scale(0.015625)"/>
       </defs>
       <use xlink:href="#DejaVuSans-32"/>
       <use xlink:href="#DejaVuSans-30" x="63.623047"/>
       <use xlink:href="#DejaVuSans-30" x="127.246094"/>
       <use xlink:href="#DejaVuSans-30" x="190.869141"/>
      </g>
     </g>
    </g>
    <g id="xtick_3">
     <g id="line2d_5">
      <path d="M 316.520104 384.48 
L 316.520104 51.84 
" clip-path="url(#p046b058189)" style="fill: none; stroke: #b0b0b0; stroke-width: 0.8; stroke-linecap: square"/>
     </g>
     <g id="line2d_6">
      <g>
       <use xlink:href="#mc90a9ec924" x="316.520104" y="384.48" style="stroke: #000000; stroke-width: 0.8"/>
      </g>
     </g>
     <g id="text_3">
      <!-- 3000 -->
      <g transform="translate(303.795104 399.078438) scale(0.1 -0.1)">
       <defs>
        <path id="DejaVuSans-33" d="M 2597 2516 
Q 3050 2419 3304 2112 
Q 3559 1806 3559 1356 
Q 3559 666 3084 287 
Q 2609 -91 1734 -91 
Q 1441 -91 1130 -33 
Q 819 25 488 141 
L 488 750 
Q 750 597 1062 519 
Q 1375 441 1716 441 
Q 2309 441 2620 675 
Q 2931 909 2931 1356 
Q 2931 1769 2642 2001 
Q 2353 2234 1838 2234 
L 1294 2234 
L 1294 2753 
L 1863 2753 
Q 2328 2753 2575 2939 
Q 2822 3125 2822 3475 
Q 2822 3834 2567 4026 
Q 2313 4219 1838 4219 
Q 1578 4219 1281 4162 
Q 984 4106 628 3988 
L 628 4550 
Q 988 4650 1302 4700 
Q 1616 4750 1894 4750 
Q 2613 4750 3031 4423 
Q 3450 4097 3450 3541 
Q 3450 3153 3228 2886 
Q 3006 2619 2597 2516 
z
" transform="scale(0.015625)"/>
       </defs>
       <use xlink:href="#DejaVuSans-33"/>
       <use xlink:href="#DejaVuSans-30" x="63.623047"/>
       <use xlink:href="#DejaVuSans-30" x="127.246094"/>
       <use xlink:href="#DejaVuSans-30" x="190.869141"/>
      </g>
     </g>
    </g>
    <g id="xtick_4">
     <g id="line2d_7">
      <path d="M 401.869062 384.48 
L 401.869062 51.84 
" clip-path="url(#p046b058189)" style="fill: none; stroke: #b0b0b0; stroke-width: 0.8; stroke-linecap: square"/>
     </g>
     <g id="line2d_8">
      <g>
       <use xlink:href="#mc90a9ec924" x="401.869062" y="384.48" style="stroke: #000000; stroke-width: 0.8"/>
      </g>
     </g>
     <g id="text_4">
      <!-- 4000 -->
      <g transform="translate(389.144062 399.078438) scale(0.1 -0.1)">
       <defs>
        <path id="DejaVuSans-34" d="M 2419 4116 
L 825 1625 
L 2419 1625 
L 2419 4116 
z
M 2253 4666 
L 3047 4666 
L 3047 1625 
L 3713 1625 
L 3713 1100 
L 3047 1100 
L 3047 0 
L 2419 0 
L 2419 1100 
L 313 1100 
L 313 1709 
L 2253 4666 
z
" transform="scale(0.015625)"/>
       </defs>
       <use xlink:href="#DejaVuSans-34"/>
       <use xlink:href="#DejaVuSans-30" x="63.623047"/>
       <use xlink:href="#DejaVuSans-30" x="127.246094"/>
       <use xlink:href="#DejaVuSans-30" x="190.869141"/>
      </g>
     </g>
    </g>
    <g id="xtick_5">
     <g id="line2d_9">
      <path d="M 487.21802 384.48 
L 487.21802 51.84 
" clip-path="url(#p046b058189)" style="fill: none; stroke: #b0b0b0; stroke-width: 0.8; stroke-linecap: square"/>
     </g>
     <g id="line2d_10">
      <g>
       <use xlink:href="#mc90a9ec924" x="487.21802" y="384.48" style="stroke: #000000; stroke-width: 0.8"/>
      </g>
     </g>
     <g id="text_5">
      <!-- 5000 -->
      <g transform="translate(474.49302 399.078438) scale(0.1 -0.1)">
       <defs>
        <path id="DejaVuSans-35" d="M 691 4666 
L 3169 4666 
L 3169 4134 
L 1269 4134 
L 1269 2991 
Q 1406 3038 1543 3061 
Q 1681 3084 1819 3084 
Q 2600 3084 3056 2656 
Q 3513 2228 3513 1497 
Q 3513 744 3044 326 
Q 2575 -91 1722 -91 
Q 1428 -91 1123 -41 
Q 819 9 494 109 
L 494 744 
Q 775 591 1075 516 
Q 1375 441 1709 441 
Q 2250 441 2565 725 
Q 2881 1009 2881 1497 
Q 2881 1984 2565 2268 
Q 2250 2553 1709 2553 
Q 1456 2553 1204 2497 
Q 953 2441 691 2322 
L 691 4666 
z
" transform="scale(0.015625)"/>
       </defs>
       <use xlink:href="#DejaVuSans-35"/>
       <use xlink:href="#DejaVuSans-30" x="63.623047"/>
       <use xlink:href="#DejaVuSans-30" x="127.246094"/>
       <use xlink:href="#DejaVuSans-30" x="190.869141"/>
      </g>
     </g>
    </g>
    <g id="xtick_6">
     <g id="line2d_11">
      <path d="M 572.566978 384.48 
L 572.566978 51.84 
" clip-path="url(#p046b058189)" style="fill: none; stroke: #b0b0b0; stroke-width: 0.8; stroke-linecap: square"/>
     </g>
     <g id="line2d_12">
      <g>
       <use xlink:href="#mc90a9ec924" x="572.566978" y="384.48" style="stroke: #000000; stroke-width: 0.8"/>
      </g>
     </g>
     <g id="text_6">
      <!-- 6000 -->
      <g transform="translate(559.841978 399.078438) scale(0.1 -0.1)">
       <defs>
        <path id="DejaVuSans-36" d="M 2113 2584 
Q 1688 2584 1439 2293 
Q 1191 2003 1191 1497 
Q 1191 994 1439 701 
Q 1688 409 2113 409 
Q 2538 409 2786 701 
Q 3034 994 3034 1497 
Q 3034 2003 2786 2293 
Q 2538 2584 2113 2584 
z
M 3366 4563 
L 3366 3988 
Q 3128 4100 2886 4159 
Q 2644 4219 2406 4219 
Q 1781 4219 1451 3797 
Q 1122 3375 1075 2522 
Q 1259 2794 1537 2939 
Q 1816 3084 2150 3084 
Q 2853 3084 3261 2657 
Q 3669 2231 3669 1497 
Q 3669 778 3244 343 
Q 2819 -91 2113 -91 
Q 1303 -91 875 529 
Q 447 1150 447 2328 
Q 447 3434 972 4092 
Q 1497 4750 2381 4750 
Q 2619 4750 2861 4703 
Q 3103 4656 3366 4563 
z
" transform="scale(0.015625)"/>
       </defs>
       <use xlink:href="#DejaVuSans-36"/>
       <use xlink:href="#DejaVuSans-30" x="63.623047"/>
       <use xlink:href="#DejaVuSans-30" x="127.246094"/>
       <use xlink:href="#DejaVuSans-30" x="190.869141"/>
      </g>
     </g>
    </g>
    <g id="text_7">
     <!-- $\dot{W}_{exp}$ [W] -->
     <g transform="translate(324.9 426.358125) scale(0.2 -0.2)">
      <defs>
       <path id="DejaVuSans-307" d="M -1894 4863 
L -1319 4863 
L -1319 4134 
L -1894 4134 
L -1894 4863 
z
M -1600 3584 
L -1600 3584 
z
" transform="scale(0.015625)"/>
       <path id="DejaVuSans-Oblique-57" d="M 616 4666 
L 1228 4666 
L 1453 697 
L 3213 4666 
L 3916 4666 
L 4147 697 
L 5888 4666 
L 6528 4666 
L 4453 0 
L 3659 0 
L 3444 3891 
L 1697 0 
L 903 0 
L 616 4666 
z
" transform="scale(0.015625)"/>
       <path id="DejaVuSans-Oblique-65" d="M 3078 2063 
Q 3088 2113 3092 2166 
Q 3097 2219 3097 2272 
Q 3097 2653 2873 2875 
Q 2650 3097 2266 3097 
Q 1838 3097 1509 2826 
Q 1181 2556 1013 2059 
L 3078 2063 
z
M 3578 1613 
L 903 1613 
Q 884 1494 878 1425 
Q 872 1356 872 1306 
Q 872 872 1139 634 
Q 1406 397 1894 397 
Q 2269 397 2603 481 
Q 2938 566 3225 728 
L 3116 159 
Q 2806 34 2476 -28 
Q 2147 -91 1806 -91 
Q 1078 -91 686 257 
Q 294 606 294 1247 
Q 294 1794 489 2264 
Q 684 2734 1063 3103 
Q 1306 3334 1642 3459 
Q 1978 3584 2356 3584 
Q 2950 3584 3301 3228 
Q 3653 2872 3653 2272 
Q 3653 2128 3634 1964 
Q 3616 1800 3578 1613 
z
" transform="scale(0.015625)"/>
       <path id="DejaVuSans-Oblique-78" d="M 3841 3500 
L 2234 1784 
L 3219 0 
L 2559 0 
L 1819 1388 
L 531 0 
L -166 0 
L 1556 1844 
L 641 3500 
L 1300 3500 
L 1972 2234 
L 3144 3500 
L 3841 3500 
z
" transform="scale(0.015625)"/>
       <path id="DejaVuSans-Oblique-70" d="M 3175 2156 
Q 3175 2616 2975 2859 
Q 2775 3103 2400 3103 
Q 2144 3103 1911 2972 
Q 1678 2841 1497 2591 
Q 1319 2344 1212 1994 
Q 1106 1644 1106 1300 
Q 1106 863 1306 627 
Q 1506 391 1875 391 
Q 2147 391 2380 519 
Q 2613 647 2778 891 
Q 2956 1147 3065 1494 
Q 3175 1841 3175 2156 
z
M 1394 2969 
Q 1625 3272 1939 3428 
Q 2253 3584 2638 3584 
Q 3175 3584 3472 3232 
Q 3769 2881 3769 2247 
Q 3769 1728 3584 1258 
Q 3400 788 3053 416 
Q 2822 169 2531 39 
Q 2241 -91 1919 -91 
Q 1547 -91 1294 64 
Q 1041 219 916 525 
L 556 -1331 
L -19 -1331 
L 922 3500 
L 1497 3500 
L 1394 2969 
z
" transform="scale(0.015625)"/>
       <path id="DejaVuSans-20" transform="scale(0.015625)"/>
       <path id="DejaVuSans-5b" d="M 550 4863 
L 1875 4863 
L 1875 4416 
L 1125 4416 
L 1125 -397 
L 1875 -397 
L 1875 -844 
L 550 -844 
L 550 4863 
z
" transform="scale(0.015625)"/>
       <path id="DejaVuSans-57" d="M 213 4666 
L 850 4666 
L 1831 722 
L 2809 4666 
L 3519 4666 
L 4500 722 
L 5478 4666 
L 6119 4666 
L 4947 0 
L 4153 0 
L 3169 4050 
L 2175 0 
L 1381 0 
L 213 4666 
z
" transform="scale(0.015625)"/>
       <path id="DejaVuSans-5d" d="M 1947 4863 
L 1947 -844 
L 622 -844 
L 622 -397 
L 1369 -397 
L 1369 4416 
L 622 4416 
L 622 4863 
L 1947 4863 
z
" transform="scale(0.015625)"/>
      </defs>
      <use xlink:href="#DejaVuSans-307" transform="translate(87.312988 30.015625)"/>
      <use xlink:href="#DejaVuSans-Oblique-57" transform="translate(0 0.609375)"/>
      <use xlink:href="#DejaVuSans-Oblique-65" transform="translate(99.833984 -15.796875) scale(0.7)"/>
      <use xlink:href="#DejaVuSans-Oblique-78" transform="translate(142.900391 -15.796875) scale(0.7)"/>
      <use xlink:href="#DejaVuSans-Oblique-70" transform="translate(184.326172 -15.796875) scale(0.7)"/>
      <use xlink:href="#DejaVuSans-20" transform="translate(231.494141 0.609375)"/>
      <use xlink:href="#DejaVuSans-5b" transform="translate(263.28125 0.609375)"/>
      <use xlink:href="#DejaVuSans-57" transform="translate(302.294922 0.609375)"/>
      <use xlink:href="#DejaVuSans-5d" transform="translate(401.171875 0.609375)"/>
     </g>
    </g>
   </g>
   <g id="matplotlib.axis_2">
    <g id="ytick_1">
     <g id="line2d_13">
      <path d="M 90 384.48 
L 648 384.48 
" clip-path="url(#p046b058189)" style="fill: none; stroke: #b0b0b0; stroke-width: 0.8; stroke-linecap: square"/>
     </g>
     <g id="line2d_14">
      <defs>
       <path id="m55bf3d5da3" d="M 0 0 
L -3.5 0 
" style="stroke: #000000; stroke-width: 0.8"/>
      </defs>
      <g>
       <use xlink:href="#m55bf3d5da3" x="90" y="384.48" style="stroke: #000000; stroke-width: 0.8"/>
      </g>
     </g>
     <g id="text_8">
      <!-- 65 -->
      <g transform="translate(70.275 388.279219) scale(0.1 -0.1)">
       <use xlink:href="#DejaVuSans-36"/>
       <use xlink:href="#DejaVuSans-35" x="63.623047"/>
      </g>
     </g>
    </g>
    <g id="ytick_2">
     <g id="line2d_15">
      <path d="M 90 336.96 
L 648 336.96 
" clip-path="url(#p046b058189)" style="fill: none; stroke: #b0b0b0; stroke-width: 0.8; stroke-linecap: square"/>
     </g>
     <g id="line2d_16">
      <g>
       <use xlink:href="#m55bf3d5da3" x="90" y="336.96" style="stroke: #000000; stroke-width: 0.8"/>
      </g>
     </g>
     <g id="text_9">
      <!-- 70 -->
      <g transform="translate(70.275 340.759219) scale(0.1 -0.1)">
       <defs>
        <path id="DejaVuSans-37" d="M 525 4666 
L 3525 4666 
L 3525 4397 
L 1831 0 
L 1172 0 
L 2766 4134 
L 525 4134 
L 525 4666 
z
" transform="scale(0.015625)"/>
       </defs>
       <use xlink:href="#DejaVuSans-37"/>
       <use xlink:href="#DejaVuSans-30" x="63.623047"/>
      </g>
     </g>
    </g>
    <g id="ytick_3">
     <g id="line2d_17">
      <path d="M 90 289.44 
L 648 289.44 
" clip-path="url(#p046b058189)" style="fill: none; stroke: #b0b0b0; stroke-width: 0.8; stroke-linecap: square"/>
     </g>
     <g id="line2d_18">
      <g>
       <use xlink:href="#m55bf3d5da3" x="90" y="289.44" style="stroke: #000000; stroke-width: 0.8"/>
      </g>
     </g>
     <g id="text_10">
      <!-- 75 -->
      <g transform="translate(70.275 293.239219) scale(0.1 -0.1)">
       <use xlink:href="#DejaVuSans-37"/>
       <use xlink:href="#DejaVuSans-35" x="63.623047"/>
      </g>
     </g>
    </g>
    <g id="ytick_4">
     <g id="line2d_19">
      <path d="M 90 241.92 
L 648 241.92 
" clip-path="url(#p046b058189)" style="fill: none; stroke: #b0b0b0; stroke-width: 0.8; stroke-linecap: square"/>
     </g>
     <g id="line2d_20">
      <g>
       <use xlink:href="#m55bf3d5da3" x="90" y="241.92" style="stroke: #000000; stroke-width: 0.8"/>
      </g>
     </g>
     <g id="text_11">
      <!-- 80 -->
      <g transform="translate(70.275 245.719219) scale(0.1 -0.1)">
       <defs>
        <path id="DejaVuSans-38" d="M 2034 2216 
Q 1584 2216 1326 1975 
Q 1069 1734 1069 1313 
Q 1069 891 1326 650 
Q 1584 409 2034 409 
Q 2484 409 2743 651 
Q 3003 894 3003 1313 
Q 3003 1734 2745 1975 
Q 2488 2216 2034 2216 
z
M 1403 2484 
Q 997 2584 770 2862 
Q 544 3141 544 3541 
Q 544 4100 942 4425 
Q 1341 4750 2034 4750 
Q 2731 4750 3128 4425 
Q 3525 4100 3525 3541 
Q 3525 3141 3298 2862 
Q 3072 2584 2669 2484 
Q 3125 2378 3379 2068 
Q 3634 1759 3634 1313 
Q 3634 634 3220 271 
Q 2806 -91 2034 -91 
Q 1263 -91 848 271 
Q 434 634 434 1313 
Q 434 1759 690 2068 
Q 947 2378 1403 2484 
z
M 1172 3481 
Q 1172 3119 1398 2916 
Q 1625 2713 2034 2713 
Q 2441 2713 2670 2916 
Q 2900 3119 2900 3481 
Q 2900 3844 2670 4047 
Q 2441 4250 2034 4250 
Q 1625 4250 1398 4047 
Q 1172 3844 1172 3481 
z
" transform="scale(0.015625)"/>
       </defs>
       <use xlink:href="#DejaVuSans-38"/>
       <use xlink:href="#DejaVuSans-30" x="63.623047"/>
      </g>
     </g>
    </g>
    <g id="ytick_5">
     <g id="line2d_21">
      <path d="M 90 194.4 
L 648 194.4 
" clip-path="url(#p046b058189)" style="fill: none; stroke: #b0b0b0; stroke-width: 0.8; stroke-linecap: square"/>
     </g>
     <g id="line2d_22">
      <g>
       <use xlink:href="#m55bf3d5da3" x="90" y="194.4" style="stroke: #000000; stroke-width: 0.8"/>
      </g>
     </g>
     <g id="text_12">
      <!-- 85 -->
      <g transform="translate(70.275 198.199219) scale(0.1 -0.1)">
       <use xlink:href="#DejaVuSans-38"/>
       <use xlink:href="#DejaVuSans-35" x="63.623047"/>
      </g>
     </g>
    </g>
    <g id="ytick_6">
     <g id="line2d_23">
      <path d="M 90 146.88 
L 648 146.88 
" clip-path="url(#p046b058189)" style="fill: none; stroke: #b0b0b0; stroke-width: 0.8; stroke-linecap: square"/>
     </g>
     <g id="line2d_24">
      <g>
       <use xlink:href="#m55bf3d5da3" x="90" y="146.88" style="stroke: #000000; stroke-width: 0.8"/>
      </g>
     </g>
     <g id="text_13">
      <!-- 90 -->
      <g transform="translate(70.275 150.679219) scale(0.1 -0.1)">
       <defs>
        <path id="DejaVuSans-39" d="M 703 97 
L 703 672 
Q 941 559 1184 500 
Q 1428 441 1663 441 
Q 2288 441 2617 861 
Q 2947 1281 2994 2138 
Q 2813 1869 2534 1725 
Q 2256 1581 1919 1581 
Q 1219 1581 811 2004 
Q 403 2428 403 3163 
Q 403 3881 828 4315 
Q 1253 4750 1959 4750 
Q 2769 4750 3195 4129 
Q 3622 3509 3622 2328 
Q 3622 1225 3098 567 
Q 2575 -91 1691 -91 
Q 1453 -91 1209 -44 
Q 966 3 703 97 
z
M 1959 2075 
Q 2384 2075 2632 2365 
Q 2881 2656 2881 3163 
Q 2881 3666 2632 3958 
Q 2384 4250 1959 4250 
Q 1534 4250 1286 3958 
Q 1038 3666 1038 3163 
Q 1038 2656 1286 2365 
Q 1534 2075 1959 2075 
z
" transform="scale(0.015625)"/>
       </defs>
       <use xlink:href="#DejaVuSans-39"/>
       <use xlink:href="#DejaVuSans-30" x="63.623047"/>
      </g>
     </g>
    </g>
    <g id="ytick_7">
     <g id="line2d_25">
      <path d="M 90 99.36 
L 648 99.36 
" clip-path="url(#p046b058189)" style="fill: none; stroke: #b0b0b0; stroke-width: 0.8; stroke-linecap: square"/>
     </g>
     <g id="line2d_26">
      <g>
       <use xlink:href="#m55bf3d5da3" x="90" y="99.36" style="stroke: #000000; stroke-width: 0.8"/>
      </g>
     </g>
     <g id="text_14">
      <!-- 95 -->
      <g transform="translate(70.275 103.159219) scale(0.1 -0.1)">
       <use xlink:href="#DejaVuSans-39"/>
       <use xlink:href="#DejaVuSans-35" x="63.623047"/>
      </g>
     </g>
    </g>
    <g id="ytick_8">
     <g id="line2d_27">
      <path d="M 90 51.84 
L 648 51.84 
" clip-path="url(#p046b058189)" style="fill: none; stroke: #b0b0b0; stroke-width: 0.8; stroke-linecap: square"/>
     </g>
     <g id="line2d_28">
      <g>
       <use xlink:href="#m55bf3d5da3" x="90" y="51.84" style="stroke: #000000; stroke-width: 0.8"/>
      </g>
     </g>
     <g id="text_15">
      <!-- 100 -->
      <g transform="translate(63.9125 55.639219) scale(0.1 -0.1)">
       <use xlink:href="#DejaVuSans-31"/>
       <use xlink:href="#DejaVuSans-30" x="63.623047"/>
       <use xlink:href="#DejaVuSans-30" x="127.246094"/>
      </g>
     </g>
    </g>
    <g id="text_16">
     <!-- $T_{sto,HT}$ [C] -->
     <g transform="translate(54.9125 271.36) rotate(-90) scale(0.2 -0.2)">
      <defs>
       <path id="DejaVuSans-Oblique-54" d="M 378 4666 
L 4325 4666 
L 4225 4134 
L 2559 4134 
L 1759 0 
L 1125 0 
L 1925 4134 
L 275 4134 
L 378 4666 
z
" transform="scale(0.015625)"/>
       <path id="DejaVuSans-Oblique-73" d="M 3200 3397 
L 3091 2853 
Q 2863 2978 2609 3040 
Q 2356 3103 2088 3103 
Q 1634 3103 1373 2948 
Q 1113 2794 1113 2528 
Q 1113 2219 1719 2053 
Q 1766 2041 1788 2034 
L 1972 1978 
Q 2547 1819 2739 1644 
Q 2931 1469 2931 1166 
Q 2931 609 2489 259 
Q 2047 -91 1331 -91 
Q 1053 -91 747 -37 
Q 441 16 72 128 
L 184 722 
Q 500 559 806 475 
Q 1113 391 1394 391 
Q 1816 391 2080 572 
Q 2344 753 2344 1031 
Q 2344 1331 1650 1516 
L 1591 1531 
L 1394 1581 
Q 956 1697 753 1886 
Q 550 2075 550 2369 
Q 550 2928 970 3256 
Q 1391 3584 2113 3584 
Q 2397 3584 2667 3537 
Q 2938 3491 3200 3397 
z
" transform="scale(0.015625)"/>
       <path id="DejaVuSans-Oblique-74" d="M 2706 3500 
L 2619 3053 
L 1472 3053 
L 1100 1153 
Q 1081 1047 1072 975 
Q 1063 903 1063 863 
Q 1063 663 1183 572 
Q 1303 481 1569 481 
L 2150 481 
L 2053 0 
L 1503 0 
Q 991 0 739 200 
Q 488 400 488 806 
Q 488 878 497 964 
Q 506 1050 525 1153 
L 897 3053 
L 409 3053 
L 500 3500 
L 978 3500 
L 1172 4494 
L 1747 4494 
L 1556 3500 
L 2706 3500 
z
" transform="scale(0.015625)"/>
       <path id="DejaVuSans-Oblique-6f" d="M 1625 -91 
Q 1009 -91 651 289 
Q 294 669 294 1325 
Q 294 1706 417 2101 
Q 541 2497 738 2766 
Q 1047 3184 1428 3384 
Q 1809 3584 2291 3584 
Q 2888 3584 3255 3212 
Q 3622 2841 3622 2241 
Q 3622 1825 3500 1412 
Q 3378 1000 3181 728 
Q 2875 309 2494 109 
Q 2113 -91 1625 -91 
z
M 891 1344 
Q 891 869 1089 633 
Q 1288 397 1691 397 
Q 2269 397 2648 901 
Q 3028 1406 3028 2181 
Q 3028 2634 2825 2865 
Q 2622 3097 2228 3097 
Q 1903 3097 1650 2945 
Q 1397 2794 1197 2484 
Q 1050 2253 970 1956 
Q 891 1659 891 1344 
z
" transform="scale(0.015625)"/>
       <path id="DejaVuSans-2c" d="M 750 794 
L 1409 794 
L 1409 256 
L 897 -744 
L 494 -744 
L 750 256 
L 750 794 
z
" transform="scale(0.015625)"/>
       <path id="DejaVuSans-Oblique-48" d="M 1081 4666 
L 1716 4666 
L 1344 2753 
L 3634 2753 
L 4006 4666 
L 4641 4666 
L 3731 0 
L 3097 0 
L 3531 2222 
L 1241 2222 
L 806 0 
L 172 0 
L 1081 4666 
z
" transform="scale(0.015625)"/>
       <path id="DejaVuSans-b0" d="M 1600 4347 
Q 1350 4347 1178 4173 
Q 1006 4000 1006 3750 
Q 1006 3503 1178 3333 
Q 1350 3163 1600 3163 
Q 1850 3163 2022 3333 
Q 2194 3503 2194 3750 
Q 2194 3997 2020 4172 
Q 1847 4347 1600 4347 
z
M 1600 4750 
Q 1800 4750 1984 4673 
Q 2169 4597 2303 4453 
Q 2447 4313 2519 4134 
Q 2591 3956 2591 3750 
Q 2591 3338 2302 3052 
Q 2013 2766 1594 2766 
Q 1172 2766 890 3047 
Q 609 3328 609 3750 
Q 609 4169 896 4459 
Q 1184 4750 1600 4750 
z
" transform="scale(0.015625)"/>
       <path id="DejaVuSans-43" d="M 4122 4306 
L 4122 3641 
Q 3803 3938 3442 4084 
Q 3081 4231 2675 4231 
Q 1875 4231 1450 3742 
Q 1025 3253 1025 2328 
Q 1025 1406 1450 917 
Q 1875 428 2675 428 
Q 3081 428 3442 575 
Q 3803 722 4122 1019 
L 4122 359 
Q 3791 134 3420 21 
Q 3050 -91 2638 -91 
Q 1578 -91 968 557 
Q 359 1206 359 2328 
Q 359 3453 968 4101 
Q 1578 4750 2638 4750 
Q 3056 4750 3426 4639 
Q 3797 4528 4122 4306 
z
" transform="scale(0.015625)"/>
      </defs>
      <use xlink:href="#DejaVuSans-Oblique-54" transform="translate(0 0.015625)"/>
      <use xlink:href="#DejaVuSans-Oblique-73" transform="translate(61.083984 -16.390625) scale(0.7)"/>
      <use xlink:href="#DejaVuSans-Oblique-74" transform="translate(97.553711 -16.390625) scale(0.7)"/>
      <use xlink:href="#DejaVuSans-Oblique-6f" transform="translate(125 -16.390625) scale(0.7)"/>
      <use xlink:href="#DejaVuSans-2c" transform="translate(167.827148 -16.390625) scale(0.7)"/>
      <use xlink:href="#DejaVuSans-Oblique-48" transform="translate(203.71582 -16.390625) scale(0.7)"/>
      <use xlink:href="#DejaVuSans-Oblique-54" transform="translate(256.352539 -16.390625) scale(0.7)"/>
      <use xlink:href="#DejaVuSans-20" transform="translate(301.845703 0.015625)"/>
      <use xlink:href="#DejaVuSans-5b" transform="translate(333.632812 0.015625)"/>
      <use xlink:href="#DejaVuSans-b0" transform="translate(372.646484 0.015625)"/>
      <use xlink:href="#DejaVuSans-43" transform="translate(422.646484 0.015625)"/>
      <use xlink:href="#DejaVuSans-5d" transform="translate(492.470703 0.015625)"/>
     </g>
    </g>
   </g>
   <g id="QuadContourSet_2">
    <path clip-path="url(#p046b058189)" style="fill: none; stroke: #000000; stroke-width: 1.5"/>
    <path clip-path="url(#p046b058189)" style="fill: none; stroke: #000000; stroke-width: 1.5"/>
    <path d="M 179.775851 51.84 
L 178.547891 55.2 
L 177.319932 58.56 
L 176.091973 61.92 
L 174.864014 65.28 
L 174.545455 66.151657 
L 173.636055 68.64 
L 172.408095 72 
L 171.188576 75.36 
L 169.986816 78.72 
L 168.909091 81.74228 
L 168.788662 82.08 
L 167.590508 85.44 
L 166.392355 88.8 
L 165.194201 92.16 
L 164.006096 95.52 
L 163.272727 97.730017 
L 162.901894 98.88 
L 161.818401 102.24 
L 160.734908 105.6 
L 159.651415 108.96 
L 158.567922 112.32 
L 157.636364 115.208837 
L 157.489279 115.68 
L 156.453395 119.04 
L 155.469478 122.4 
L 154.495545 125.76 
L 153.521612 129.12 
L 152.547679 132.48 
L 152 134.369453 
L 151.579816 135.84 
L 150.625132 139.2 
L 149.677863 142.56 
L 148.737922 145.92 
L 147.807028 149.28 
L 146.882326 152.64 
L 146.363636 154.524713 
L 145.990035 156 
L 145.154471 159.36 
L 144.339559 162.72 
L 143.544542 166.08 
L 142.768701 169.44 
L 142.01135 172.8 
L 141.271836 176.16 
L 140.727273 178.685886 
L 140.571544 179.52 
L 139.955673 182.88 
L 139.357537 186.24 
L 138.77638 189.6 
L 138.211491 192.96 
L 137.662194 196.32 
L 137.127854 199.68 
L 136.607868 203.04 
L 136.101665 206.4 
L 135.608704 209.76 
L 135.128473 213.12 
L 135.090909 213.384865 
L 134.709429 216.48 
L 134.292823 219.84 
L 133.875233 223.2 
L 133.456655 226.56 
L 133.037086 229.92 
L 132.616521 233.28 
L 132.194958 236.64 
L 131.772392 240 
L 131.348821 243.36 
L 130.92424 246.72 
L 130.498646 250.08 
L 130.072036 253.44 
L 129.644384 256.8 
L 129.454545 258.273186 
L 129.347075 259.098541 
M 125.60139 288.107641 
L 125.316708 290.4 
L 124.902926 293.76 
L 124.495388 297.12 
L 124.087879 300.48 
L 123.818182 302.703709 
L 123.68037 303.84 
L 123.274663 307.2 
L 122.875009 310.56 
L 122.495768 313.92 
L 122.132234 317.28 
L 121.7687 320.64 
L 121.405167 324 
L 121.041633 327.36 
L 120.678099 330.72 
L 120.314566 334.08 
L 119.962578 337.44 
L 119.679863 340.8 
L 119.397148 344.16 
L 119.114433 347.52 
L 118.831719 350.88 
L 118.549004 354.24 
L 119.116884 357.6 
L 123.818182 357.781576 
L 124.226122 357.6 
L 129.454545 355.187143 
L 131.610377 354.24 
L 135.090909 352.651857 
L 139.221745 350.88 
L 140.727273 350.203165 
L 146.363636 347.920574 
L 147.470912 347.52 
L 152 345.857674 
L 156.737444 344.16 
L 157.636364 343.83311 
L 158.99112 343.35239 
" clip-path="url(#p046b058189)" style="fill: none; stroke: #000000; stroke-width: 1.5"/>
    <path d="M 242.750619 51.84 
L 242.181818 52.839686 
L 240.838849 55.2 
L 238.969894 58.56 
L 237.188235 61.92 
L 236.545455 63.148116 
L 235.48516 65.28 
L 233.886445 68.64 
L 232.308832 72 
L 230.909091 75.010007 
L 230.782585 75.36 
L 229.568962 78.72 
L 228.356891 82.08 
L 227.146369 85.44 
L 225.937393 88.8 
L 225.272727 90.649075 
L 224.744379 92.16 
L 223.569435 95.52 
L 222.394492 98.88 
L 221.219549 102.24 
L 220.044606 105.6 
L 219.636364 106.767455 
L 218.877798 108.96 
L 217.697724 112.32 
L 216.495829 115.68 
L 215.271503 119.04 
L 214.024112 122.4 
L 214 122.464332 
L 212.899918 125.76 
L 211.836787 129.12 
L 210.744726 132.48 
L 209.652665 135.84 
L 208.560604 139.2 
L 208.363636 139.806019 
L 207.369333 142.56 
L 206.274444 145.92 
L 205.288045 149.28 
L 204.198269 152.64 
L 203.109016 156 
L 202.727273 157.177938 
L 201.925797 159.36 
L 201.467434 160.754969 
M 192.615431 188.628375 
L 192.303038 189.6 
L 191.454545 192.23903 
L 191.183472 192.96 
L 190.032518 196.32 
L 189.038622 199.68 
L 188.107689 203.04 
L 187.094388 206.4 
L 186.094099 209.76 
L 185.818182 210.693334 
L 185.000548 213.12 
L 183.989408 216.48 
L 183.096407 219.84 
L 182.120897 223.2 
L 181.127596 226.56 
L 180.181818 229.759248 
L 180.126014 229.92 
L 179.037585 233.28 
L 178.079716 236.64 
L 177.154394 240 
L 176.161657 243.36 
L 175.219621 246.72 
L 174.545455 249.167395 
L 174.258702 250.08 
L 173.275285 253.44 
L 172.392425 256.8 
L 171.554432 260.16 
L 170.640196 263.52 
L 169.72596 266.88 
L 168.909091 269.882156 
L 168.794533 270.24 
L 167.784153 273.6 
L 166.878833 276.96 
L 166.062996 280.32 
L 165.15478 283.68 
L 164.240544 287.04 
L 163.359601 290.4 
L 163.272727 290.765918 
L 162.515899 293.76 
L 161.729216 297.12 
L 160.966475 300.48 
L 160.168766 303.84 
L 159.371057 307.2 
L 158.573348 310.56 
L 157.775639 313.92 
L 157.636364 314.506638 
L 156.97793 317.28 
L 156.180222 320.64 
L 155.382513 324 
L 154.584804 327.36 
L 157.636364 328.63613 
L 160.544463 327.36 
L 163.272727 326.301632 
L 168.308424 324 
L 168.909091 323.739615 
L 174.545455 321.102634 
L 175.546119 320.64 
L 180.181818 318.469579 
L 182.841 317.28 
L 185.818182 315.899896 
L 190.298035 313.92 
L 191.454545 313.389653 
L 197.090909 310.987024 
L 198.140146 310.56 
L 202.727273 308.676778 
L 206.37066 307.2 
L 208.363636 306.385057 
L 214 304.141688 
L 214.809102 303.84 
L 219.636364 302.015114 
L 223.787862 300.48 
L 225.272727 299.923218 
L 230.909091 297.936518 
L 233.297848 297.12 
L 236.545455 296.009913 
L 240.910516 294.51786 
" clip-path="url(#p046b058189)" style="fill: none; stroke: #000000; stroke-width: 1.5"/>
    <path d="M 309.998088 51.84 
L 309.818182 52.156191 
L 308.086318 55.2 
L 306.174549 58.56 
L 304.262779 61.92 
L 304.181818 62.062292 
L 302.35101 65.28 
L 300.43924 68.64 
L 298.545455 71.968393 
L 298.527471 72 
L 296.615701 75.36 
L 296.20117 76.088553 
M 282.094962 101.707843 
L 281.816438 102.24 
L 281.636364 102.584055 
L 280.057856 105.6 
L 278.299274 108.96 
L 276.540691 112.32 
L 276 113.353061 
L 274.782109 115.68 
L 273.023527 119.04 
L 271.264945 122.4 
L 270.363636 124.122067 
L 269.507893 125.76 
L 267.782249 129.12 
L 266.095546 132.48 
L 264.727273 135.262535 
L 264.447712 135.84 
L 262.821079 139.2 
L 261.194446 142.56 
L 259.567812 145.92 
L 259.090909 146.905099 
L 257.941179 149.28 
L 256.314545 152.64 
L 254.687912 156 
L 253.454545 158.547662 
L 253.061279 159.36 
L 251.434645 162.72 
L 249.808012 166.08 
L 248.190261 169.44 
L 247.818182 170.223969 
L 246.659604 172.8 
L 245.148433 176.16 
L 243.637262 179.52 
L 242.181818 182.756094 
L 242.126091 182.88 
L 240.61492 186.24 
L 239.10375 189.6 
L 237.592579 192.96 
L 236.545455 195.28822 
L 236.081408 196.32 
L 234.570237 199.68 
L 233.059067 203.04 
L 231.547896 206.4 
L 230.909091 207.820346 
L 230.203138 209.76 
L 228.971249 213.12 
L 227.727821 216.48 
L 226.472694 219.84 
L 225.272727 223.023041 
L 225.203834 223.2 
L 223.89573 226.56 
L 222.587626 229.92 
L 221.279523 233.28 
L 219.971419 236.64 
L 219.636364 237.500624 
L 218.663315 240 
L 217.355211 243.36 
L 216.047107 246.72 
L 214.739004 250.08 
L 214 251.978207 
L 213.474711 253.44 
L 212.260185 256.8 
L 211.035628 260.16 
L 209.800916 263.52 
L 208.55592 266.88 
L 208.363636 267.396968 
L 207.467452 270.24 
L 206.421188 273.6 
L 205.388344 276.96 
L 204.368662 280.32 
L 203.406738 283.68 
L 202.727273 286.135618 
L 202.481196 287.04 
L 201.600253 290.4 
L 200.802544 293.76 
L 202.727273 294.550945 
L 204.518576 293.76 
L 208.363636 292.372542 
L 212.56231 290.4 
L 214 289.724572 
L 219.636364 287.076602 
L 219.714272 287.04 
L 225.272727 284.428632 
L 226.866234 283.68 
L 230.909091 281.780661 
L 234.018197 280.32 
L 236.545455 279.132691 
L 241.368497 276.96 
L 242.181818 276.581342 
L 247.818182 274.163041 
L 249.16853 273.6 
L 253.454545 271.812902 
L 257.226855 270.24 
L 259.090909 269.462764 
L 264.727273 267.127551 
L 265.345984 266.88 
L 270.363636 264.857625 
L 273.718902 263.52 
L 276 262.610607 
L 281.636364 260.371749 
L 282.18928 260.16 
L 287.272727 258.187454 
L 290.922505 256.8 
L 292.909091 256.034681 
L 298.545455 253.984172 
L 300.137453 253.44 
L 304.181818 252.057567 
L 309.818182 250.130962 
L 309.967273 250.08 
L 315.454545 248.204356 
L 319.797092 246.72 
L 321.090909 246.277751 
L 322.829911 245.683331 
" clip-path="url(#p046b058189)" style="fill: none; stroke: #000000; stroke-width: 1.5"/>
    <path d="M 381.932451 51.84 
L 379.46048 55.2 
L 377.454545 57.926545 
L 376.988509 58.56 
L 374.516539 61.92 
L 372.044568 65.28 
L 371.818182 65.587713 
L 369.572597 68.64 
L 367.100626 72 
L 366.181818 73.24888 
L 364.628656 75.36 
L 363.504328 76.888231 
M 346.633899 100.778892 
L 345.631223 102.24 
L 343.636364 105.146927 
L 343.325445 105.6 
L 341.019667 108.96 
L 338.713889 112.32 
L 338 113.360285 
L 336.426481 115.68 
L 334.178596 119.04 
L 332.363636 121.793299 
L 331.985241 122.4 
L 329.889631 125.76 
L 327.794021 129.12 
L 326.727273 130.830373 
L 325.698411 132.48 
L 323.602801 135.84 
L 321.507191 139.2 
L 321.090909 139.867446 
L 319.411581 142.56 
L 317.315971 145.92 
L 315.454545 148.904519 
L 315.234371 149.28 
L 313.245886 152.64 
L 311.224 156 
L 309.818182 158.303412 
L 309.230784 159.36 
L 307.361237 162.72 
L 305.489264 166.08 
L 304.181818 168.424148 
L 303.609616 169.44 
L 301.717019 172.8 
L 299.824422 176.16 
L 298.545455 178.4306 
L 297.931825 179.52 
L 296.039228 182.88 
L 294.146631 186.24 
L 292.909091 188.437053 
L 292.254034 189.6 
L 290.361437 192.96 
L 288.46884 196.32 
L 287.272727 198.443505 
L 286.613978 199.68 
L 284.800426 203.04 
L 282.951742 206.4 
L 281.636364 208.751725 
L 281.119076 209.76 
L 279.398365 213.12 
L 277.68242 216.48 
L 276 219.78342 
L 275.972566 219.84 
L 274.343409 223.2 
L 272.714251 226.56 
L 271.124352 229.92 
L 270.363636 231.572335 
L 269.599609 233.28 
L 268.096308 236.64 
L 266.593008 240 
L 265.166226 243.36 
L 264.727273 244.473321 
L 263.841466 246.72 
L 262.516707 250.08 
L 264.727273 251.806549 
L 270.363636 250.327347 
L 270.89366 250.08 
L 276 247.754629 
L 278.20227 246.72 
L 281.636364 245.106659 
L 285.354232 243.36 
L 287.272727 242.458689 
L 292.506194 240 
L 292.909091 239.810719 
L 298.545455 237.350213 
L 300.248767 236.64 
L 304.181818 235.000074 
L 308.307092 233.28 
L 309.818182 232.649936 
L 315.454545 230.300548 
L 316.379189 229.92 
L 321.090909 227.964288 
L 324.51611 226.56 
L 326.727273 225.645649 
L 332.363636 223.351291 
L 332.74313 223.2 
L 338 221.104272 
L 341.171269 219.84 
L 343.636364 218.857254 
L 349.272727 216.610236 
L 349.603162 216.48 
L 354.909091 214.372737 
L 358.12443 213.12 
L 360.545455 212.164655 
L 366.181818 210.031827 
L 366.977058 209.76 
L 371.818182 208.105221 
L 376.806877 206.4 
L 377.454545 206.178616 
L 383.090909 204.252011 
L 386.636697 203.04 
L 388.727273 202.325405 
L 394.363636 200.3988 
L 396.466516 199.68 
L 400 198.472195 
L 404.749306 196.848801 
" clip-path="url(#p046b058189)" style="fill: none; stroke: #000000; stroke-width: 1.5"/>
    <path d="M 460.209054 51.84 
L 457.170444 55.2 
L 456.363636 56.092143 
L 454.131835 58.56 
L 451.093225 61.92 
L 450.727273 62.324659 
L 448.054616 65.28 
L 445.090909 68.557174 
L 445.016006 68.64 
L 441.977396 72 
L 439.454545 74.78969 
L 438.938787 75.36 
L 435.900177 78.72 
L 433.818182 81.022206 
L 432.861568 82.08 
L 429.822958 85.44 
L 428.181818 87.287168 
L 426.913871 88.8 
L 424.179828 92.16 
L 422.545455 94.168561 
L 421.445785 95.52 
L 418.711742 98.88 
L 416.909091 101.095366 
L 415.977699 102.24 
L 413.243656 105.6 
L 411.272727 108.022171 
L 410.509613 108.96 
L 407.77557 112.32 
L 405.636364 114.948975 
L 405.041527 115.68 
L 402.307484 119.04 
L 400 121.87578 
L 399.602676 122.4 
L 397.040334 125.76 
L 394.450545 129.12 
L 394.363636 129.232135 
L 391.978351 132.48 
L 389.502778 135.84 
L 388.727273 136.886529 
L 386.999056 139.2 
L 385.738657 140.887229 
M 368.179469 164.392771 
L 366.91907 166.08 
L 366.181818 167.06692 
L 364.411541 169.44 
L 361.899074 172.8 
L 360.545455 174.612018 
L 359.497948 176.16 
L 357.197438 179.52 
L 354.909091 182.809244 
L 354.862559 182.88 
L 352.679278 186.24 
L 350.554511 189.6 
L 349.272727 191.644199 
L 348.447675 192.96 
L 346.46359 196.32 
L 344.790955 199.68 
L 349.272727 200.625099 
L 351.505738 199.68 
L 354.909091 198.187246 
L 359.387329 196.32 
L 360.545455 195.837108 
L 366.181818 193.486969 
L 367.445654 192.96 
L 371.818182 191.13683 
L 375.503979 189.6 
L 377.454545 188.786692 
L 383.090909 186.443924 
L 383.594402 186.24 
L 388.727273 184.142718 
L 391.85801 182.88 
L 394.363636 181.860396 
L 400 179.597938 
L 400.195497 179.52 
L 405.636364 177.350919 
L 408.623636 176.16 
L 411.272727 175.103901 
L 416.909091 172.856883 
L 417.051774 172.8 
L 422.545455 170.609864 
L 425.479912 169.44 
L 428.181818 168.362846 
L 433.818182 166.12387 
L 433.945276 166.08 
L 439.454545 164.152876 
L 443.646482 162.72 
L 445.090909 162.22627 
L 450.727273 160.299665 
L 453.476301 159.36 
L 456.363636 158.37306 
L 462 156.446454 
L 463.306121 156 
L 467.636364 154.519849 
L 473.13594 152.64 
L 473.272727 152.593244 
L 478.909091 150.666638 
L 482.965759 149.28 
L 484.545455 148.740033 
L 486.668701 148.014271 
" clip-path="url(#p046b058189)" style="fill: none; stroke: #000000; stroke-width: 1.5"/>
    <path d="M 546.916897 51.84 
L 546.545455 52.167341 
L 543.104225 55.2 
L 540.909091 57.134509 
L 539.409497 58.56 
L 535.869964 61.92 
L 535.272727 62.486304 
L 532.370155 65.28 
L 529.636364 67.911246 
L 528.879209 68.64 
L 525.452599 71.938077 
M 504.378251 92.221923 
L 501.454545 95.035959 
L 500.951641 95.52 
L 497.460695 98.88 
L 495.818182 100.616633 
L 494.282796 102.24 
L 491.157071 105.6 
L 490.181818 106.648349 
L 488.031347 108.96 
L 484.905622 112.32 
L 484.545455 112.707163 
L 481.779898 115.68 
L 478.909091 118.765976 
L 478.654173 119.04 
L 475.528449 122.4 
L 473.272727 124.82479 
L 472.402724 125.76 
L 469.277 129.12 
L 467.636364 130.883603 
L 466.151275 132.48 
L 467.505324 135.84 
L 467.636364 135.844585 
L 467.647864 135.84 
L 473.272727 133.597566 
L 476.076002 132.48 
L 478.909091 131.188557 
L 484.494603 129.12 
L 484.545455 129.095909 
L 490.181818 126.856511 
L 492.932279 125.76 
L 495.818182 124.609493 
L 501.360418 122.4 
L 501.454545 122.362475 
L 507.090909 120.308804 
L 510.671701 119.04 
L 512.727273 118.300689 
L 518.363636 116.347319 
L 520.315906 115.68 
L 524 114.420714 
L 529.636364 112.494109 
L 530.145726 112.32 
L 535.272727 110.567503 
L 539.975545 108.96 
L 540.909091 108.640898 
L 546.545455 106.714293 
L 549.805364 105.6 
L 552.181818 104.787687 
L 557.818182 102.861082 
L 559.635183 102.24 
L 563.454545 100.934477 
L 568.588096 99.179741 
" clip-path="url(#p046b058189)" style="fill: none; stroke: #000000; stroke-width: 1.5"/>
    <path clip-path="url(#p046b058189)" style="fill: none; stroke: #000000; stroke-width: 1.5"/>
    <path clip-path="url(#p046b058189)" style="fill: none; stroke: #000000; stroke-width: 1.5"/>
   </g>
   <g id="patch_3">
    <path d="M 90 384.48 
L 90 51.84 
" style="fill: none; stroke: #000000; stroke-width: 0.8; stroke-linejoin: miter; stroke-linecap: square"/>
   </g>
   <g id="patch_4">
    <path d="M 648 384.48 
L 648 51.84 
" style="fill: none; stroke: #000000; stroke-width: 0.8; stroke-linejoin: miter; stroke-linecap: square"/>
   </g>
   <g id="patch_5">
    <path d="M 90 384.48 
L 648 384.48 
" style="fill: none; stroke: #000000; stroke-width: 0.8; stroke-linejoin: miter; stroke-linecap: square"/>
   </g>
   <g id="patch_6">
    <path d="M 90 51.84 
L 648 51.84 
" style="fill: none; stroke: #000000; stroke-width: 0.8; stroke-linejoin: miter; stroke-linecap: square"/>
   </g>
   <g id="text_17">
    <g clip-path="url(#p046b058189)">
     <!-- 0.02 -->
     <g transform="translate(128.756304 284.99507) rotate(-82.618184) scale(0.1 -0.1)">
      <defs>
       <path id="DejaVuSans-2e" d="M 684 794 
L 1344 794 
L 1344 0 
L 684 0 
L 684 794 
z
" transform="scale(0.015625)"/>
      </defs>
      <use xlink:href="#DejaVuSans-30"/>
      <use xlink:href="#DejaVuSans-2e" x="63.623047"/>
      <use xlink:href="#DejaVuSans-30" x="95.410156"/>
      <use xlink:href="#DejaVuSans-32" x="159.033203"/>
     </g>
    </g>
   </g>
   <g id="text_18">
    <g clip-path="url(#p046b058189)">
     <!-- 0.03 -->
     <g transform="translate(196.339501 186.153529) rotate(-72.322953) scale(0.1 -0.1)">
      <use xlink:href="#DejaVuSans-30"/>
      <use xlink:href="#DejaVuSans-2e" x="63.623047"/>
      <use xlink:href="#DejaVuSans-30" x="95.410156"/>
      <use xlink:href="#DejaVuSans-33" x="159.033203"/>
     </g>
    </g>
   </g>
   <g id="text_19">
    <g clip-path="url(#p046b058189)">
     <!-- 0.04 -->
     <g transform="translate(286.003221 99.879714) rotate(-61.09563) scale(0.1 -0.1)">
      <use xlink:href="#DejaVuSans-30"/>
      <use xlink:href="#DejaVuSans-2e" x="63.623047"/>
      <use xlink:href="#DejaVuSans-30" x="95.410156"/>
      <use xlink:href="#DejaVuSans-34" x="159.033203"/>
     </g>
    </g>
   </g>
   <g id="text_20">
    <g clip-path="url(#p046b058189)">
     <!-- 0.05 -->
     <g transform="translate(350.751921 99.41) rotate(-54.828592) scale(0.1 -0.1)">
      <use xlink:href="#DejaVuSans-30"/>
      <use xlink:href="#DejaVuSans-2e" x="63.623047"/>
      <use xlink:href="#DejaVuSans-30" x="95.410156"/>
      <use xlink:href="#DejaVuSans-35" x="159.033203"/>
     </g>
    </g>
   </g>
   <g id="text_21">
    <g clip-path="url(#p046b058189)">
     <!-- 0.06 -->
     <g transform="translate(372.507034 163.210388) rotate(-53.239413) scale(0.1 -0.1)">
      <use xlink:href="#DejaVuSans-30"/>
      <use xlink:href="#DejaVuSans-2e" x="63.623047"/>
      <use xlink:href="#DejaVuSans-30" x="95.410156"/>
      <use xlink:href="#DejaVuSans-36" x="159.033203"/>
     </g>
    </g>
   </g>
   <g id="text_22">
    <g clip-path="url(#p046b058189)">
     <!-- 0.07 -->
     <g transform="translate(508.807868 91.788317) rotate(-43.905007) scale(0.1 -0.1)">
      <use xlink:href="#DejaVuSans-30"/>
      <use xlink:href="#DejaVuSans-2e" x="63.623047"/>
      <use xlink:href="#DejaVuSans-30" x="95.410156"/>
      <use xlink:href="#DejaVuSans-37" x="159.033203"/>
     </g>
    </g>
   </g>
  </g>
 </g>
 <defs>
  <clipPath id="p046b058189">
   <rect x="90" y="51.84" width="558" height="332.64"/>
  </clipPath>
 </defs>
</svg>
