<?xml version="1.0" encoding="utf-8" standalone="no"?>
<!DOCTYPE svg PUBLIC "-//W3C//DTD SVG 1.1//EN"
  "http://www.w3.org/Graphics/SVG/1.1/DTD/svg11.dtd">
<svg xmlns:xlink="http://www.w3.org/1999/xlink" width="720pt" height="432pt" viewBox="0 0 720 432" xmlns="http://www.w3.org/2000/svg" version="1.1">
 <metadata>
  <rdf:RDF xmlns:dc="http://purl.org/dc/elements/1.1/" xmlns:cc="http://creativecommons.org/ns#" xmlns:rdf="http://www.w3.org/1999/02/22-rdf-syntax-ns#">
   <cc:Work>
    <dc:type rdf:resource="http://purl.org/dc/dcmitype/StillImage"/>
    <dc:date>2024-06-18T14:17:26.642326</dc:date>
    <dc:format>image/svg+xml</dc:format>
    <dc:creator>
     <cc:Agent>
      <dc:title>Matplotlib v3.8.3, https://matplotlib.org/</dc:title>
     </cc:Agent>
    </dc:creator>
   </cc:Work>
  </rdf:RDF>
 </metadata>
 <defs>
  <style type="text/css">*{stroke-linejoin: round; stroke-linecap: butt}</style>
 </defs>
 <g id="figure_1">
  <g id="patch_1">
   <path d="M 0 432 
L 720 432 
L 720 0 
L 0 0 
z
" style="fill: #ffffff"/>
  </g>
  <g id="axes_1">
   <g id="patch_2">
    <path d="M 90 384.48 
L 536.4 384.48 
L 536.4 51.84 
L 90 51.84 
z
" style="fill: #ffffff"/>
   </g>
   <g id="QuadContourSet_1">
    <path d="M 108.036364 384.48 
L 112.545455 384.48 
L 117.054545 384.48 
L 120.46067 384.48 
L 120.454916 381.12 
L 120.450532 377.76 
L 120.446186 374.4 
L 120.441877 371.04 
L 120.437604 367.68 
L 120.433368 364.32 
L 120.429167 360.96 
L 120.425001 357.6 
L 120.42087 354.24 
L 120.416774 350.88 
L 120.421153 347.52 
L 120.431032 344.16 
L 120.440912 340.8 
L 120.450791 337.44 
L 120.460671 334.08 
L 120.470551 330.72 
L 120.48043 327.36 
L 120.49031 324 
L 120.500189 320.64 
L 120.535893 317.28 
L 120.674894 313.92 
L 120.813895 310.56 
L 120.952896 307.2 
L 121.09927 303.84 
L 121.251113 300.48 
L 121.462068 297.12 
L 121.563636 296.079111 
L 121.795889 293.76 
L 122.117795 290.4 
L 122.445658 287.04 
L 122.51482 286.331215 
L 121.563636 287.04 
L 117.054545 290.4 
L 117.054545 293.76 
L 112.545455 297.12 
L 108.036364 300.48 
L 108.036364 303.84 
L 103.527273 307.2 
L 99.018182 310.56 
L 94.509091 313.92 
L 94.509091 317.28 
L 94.509091 320.64 
L 94.509091 324 
L 94.509091 327.36 
L 94.509091 330.72 
L 94.509091 334.08 
L 94.509091 337.44 
L 94.509091 340.8 
L 99.018182 344.16 
L 99.018182 347.52 
L 99.018182 350.88 
L 99.018182 354.24 
L 99.018182 357.6 
L 99.018182 360.96 
L 99.018182 364.32 
L 103.527273 367.68 
L 103.527273 371.04 
L 103.527273 374.4 
L 103.527273 377.76 
L 103.527273 381.12 
L 103.527273 384.48 
z
" clip-path="url(#p85e44df840)" style="fill: #481668"/>
    <path d="M 121.563636 384.48 
L 126.072727 384.48 
L 130.581818 384.48 
L 135.090909 384.48 
L 139.6 384.48 
L 144.109091 381.12 
L 148.618182 377.76 
L 153.127273 374.4 
L 157.636364 371.04 
L 162.145455 367.68 
L 166.654545 364.32 
L 166.654545 362.785468 
L 163.833551 364.32 
L 162.145455 365.261576 
L 159.930021 364.32 
L 159.587402 360.96 
L 159.366485 357.6 
L 159.182632 354.24 
L 159.03455 350.88 
L 158.910473 347.52 
L 158.786397 344.16 
L 158.66232 340.8 
L 158.555028 337.44 
L 158.519056 334.08 
L 158.48474 330.72 
L 158.45197 327.36 
L 158.420642 324 
L 158.407068 320.64 
L 158.393695 317.28 
L 158.380323 313.92 
L 158.366951 310.56 
L 158.353579 307.2 
L 158.34221 303.84 
L 158.332981 300.48 
L 158.32364 297.12 
L 158.314185 293.76 
L 158.304614 290.4 
L 158.294924 287.04 
L 158.285113 283.68 
L 158.27518 280.32 
L 158.265121 276.96 
L 158.272501 273.6 
L 158.286872 270.24 
L 158.301242 266.88 
L 158.315613 263.52 
L 158.329984 260.16 
L 158.344355 256.8 
L 158.358725 253.44 
L 158.512596 250.08 
L 158.58934 249.369879 
L 157.636364 250.08 
L 153.127273 253.44 
L 153.127273 256.8 
L 148.618182 260.16 
L 144.109091 263.52 
L 139.6 266.88 
L 139.6 270.24 
L 135.090909 273.6 
L 130.581818 276.96 
L 130.581818 280.32 
L 126.072727 283.68 
L 122.51482 286.331215 
L 122.445658 287.04 
L 122.117795 290.4 
L 121.795889 293.76 
L 121.563636 296.079111 
L 121.462068 297.12 
L 121.251113 300.48 
L 121.09927 303.84 
L 120.952896 307.2 
L 120.813895 310.56 
L 120.674894 313.92 
L 120.535893 317.28 
L 120.500189 320.64 
L 120.49031 324 
L 120.48043 327.36 
L 120.470551 330.72 
L 120.460671 334.08 
L 120.450791 337.44 
L 120.440912 340.8 
L 120.431032 344.16 
L 120.421153 347.52 
L 120.416774 350.88 
L 120.42087 354.24 
L 120.425001 357.6 
L 120.429167 360.96 
L 120.433368 364.32 
L 120.437604 367.68 
L 120.441877 371.04 
L 120.446186 374.4 
L 120.450532 377.76 
L 120.454916 381.12 
L 120.46067 384.48 
z
" clip-path="url(#p85e44df840)" style="fill: #443983"/>
    <path d="M 162.145455 365.261576 
L 163.833551 364.32 
L 166.654545 362.785468 
L 166.654545 360.96 
L 171.163636 357.6 
L 175.672727 354.24 
L 180.181818 350.88 
L 184.690909 347.52 
L 189.2 344.16 
L 193.709091 340.8 
L 198.218182 337.44 
L 198.218182 334.08 
L 202.727273 330.72 
L 207.236364 327.36 
L 211.745455 324 
L 216.254545 320.64 
L 220.763636 317.28 
L 225.272727 313.92 
L 229.781818 310.56 
L 229.781818 307.2 
L 234.290909 303.84 
L 238.8 300.48 
L 239.456613 299.990718 
L 238.8 300.35248 
L 238.575894 300.48 
L 234.290909 302.860519 
L 232.58207 303.84 
L 229.781818 305.412844 
L 226.742805 307.2 
L 225.272727 308.051446 
L 221.082791 310.56 
L 220.763636 310.746202 
L 216.254545 313.525017 
L 215.594313 313.92 
L 211.745455 316.298043 
L 209.502233 317.28 
L 207.236364 318.650756 
L 204.39081 317.28 
L 204.397499 313.92 
L 204.404744 310.56 
L 204.411997 307.2 
L 204.419259 303.84 
L 204.42653 300.48 
L 204.433809 297.12 
L 204.441097 293.76 
L 204.448394 290.4 
L 204.457091 287.04 
L 204.466038 283.68 
L 204.474985 280.32 
L 204.483932 276.96 
L 204.492879 273.6 
L 204.501826 270.24 
L 204.510773 266.88 
L 204.51972 263.52 
L 204.528667 260.16 
L 204.537614 256.8 
L 204.546561 253.44 
L 204.564935 250.08 
L 204.597449 246.72 
L 204.629963 243.36 
L 204.662478 240 
L 204.694992 236.64 
L 204.789843 233.28 
L 204.891923 229.92 
L 204.988223 226.56 
L 205.131936 223.2 
L 205.288627 219.84 
L 205.445319 216.48 
L 205.641327 213.12 
L 205.865635 209.76 
L 206.182476 206.4 
L 206.485096 203.599815 
L 202.727273 206.4 
L 202.727273 209.76 
L 198.218182 213.12 
L 193.709091 216.48 
L 189.2 219.84 
L 184.690909 223.2 
L 184.690909 226.56 
L 180.181818 229.92 
L 175.672727 233.28 
L 171.163636 236.64 
L 166.654545 240 
L 166.654545 243.36 
L 162.145455 246.72 
L 158.58934 249.369879 
L 158.512596 250.08 
L 158.358725 253.44 
L 158.344355 256.8 
L 158.329984 260.16 
L 158.315613 263.52 
L 158.301242 266.88 
L 158.286872 270.24 
L 158.272501 273.6 
L 158.265121 276.96 
L 158.27518 280.32 
L 158.285113 283.68 
L 158.294924 287.04 
L 158.304614 290.4 
L 158.314185 293.76 
L 158.32364 297.12 
L 158.332981 300.48 
L 158.34221 303.84 
L 158.353579 307.2 
L 158.366951 310.56 
L 158.380323 313.92 
L 158.393695 317.28 
L 158.407068 320.64 
L 158.420642 324 
L 158.45197 327.36 
L 158.48474 330.72 
L 158.519056 334.08 
L 158.555028 337.44 
L 158.66232 340.8 
L 158.786397 344.16 
L 158.910473 347.52 
L 159.03455 350.88 
L 159.182632 354.24 
L 159.366485 357.6 
L 159.587402 360.96 
L 159.930021 364.32 
z
" clip-path="url(#p85e44df840)" style="fill: #375a8c"/>
    <path d="M 207.236364 318.650756 
L 209.502233 317.28 
L 211.745455 316.298043 
L 215.594313 313.92 
L 216.254545 313.525017 
L 220.763636 310.746202 
L 221.082791 310.56 
L 225.272727 308.051446 
L 226.742805 307.2 
L 229.781818 305.412844 
L 232.58207 303.84 
L 234.290909 302.860519 
L 238.575894 300.48 
L 238.8 300.35248 
L 239.456613 299.990718 
L 243.309091 297.12 
L 247.818182 293.76 
L 252.327273 290.4 
L 256.836364 287.04 
L 261.345455 283.68 
L 265.854545 280.32 
L 265.854545 276.96 
L 270.363636 273.6 
L 274.872727 270.24 
L 279.381818 266.88 
L 283.890909 263.52 
L 288.4 260.16 
L 292.909091 256.8 
L 297.418182 253.44 
L 297.418182 250.08 
L 301.927273 246.72 
L 306.436364 243.36 
L 310.945455 240 
L 315.454545 236.64 
L 319.753528 233.436565 
L 315.454545 235.731064 
L 313.75156 236.64 
L 310.945455 238.137705 
L 307.456251 240 
L 306.436364 240.544345 
L 301.927273 242.998975 
L 301.300379 243.36 
L 297.418182 245.585947 
L 295.451516 246.72 
L 292.909091 248.186058 
L 289.624632 250.08 
L 288.4 250.786168 
L 283.890909 253.390944 
L 283.810406 253.44 
L 279.381818 256.111046 
L 278.253795 256.8 
L 274.872727 258.865028 
L 272.752472 260.16 
L 270.363636 261.619011 
L 267.242192 263.52 
L 265.854545 264.367082 
L 262.830123 263.52 
L 262.493829 260.16 
L 262.238385 256.8 
L 262.0158 253.44 
L 261.880657 250.08 
L 261.876677 246.72 
L 261.872697 243.36 
L 261.868716 240 
L 261.864736 236.64 
L 261.860756 233.28 
L 261.856776 229.92 
L 261.852796 226.56 
L 261.848816 223.2 
L 261.844836 219.84 
L 261.842121 216.48 
L 261.839446 213.12 
L 261.836772 209.76 
L 261.8341 206.4 
L 261.831479 203.04 
L 261.828967 199.68 
L 261.826455 196.32 
L 261.823943 192.96 
L 261.821431 189.6 
L 261.818919 186.24 
L 261.949948 182.88 
L 262.170005 179.52 
L 262.390062 176.16 
L 262.610119 172.8 
L 262.830176 169.44 
L 263.169592 166.08 
L 263.524941 162.72 
L 263.922231 159.36 
L 264.31952 156 
L 264.60688 153.569712 
L 261.345455 156 
L 256.836364 159.36 
L 256.836364 162.72 
L 252.327273 166.08 
L 247.818182 169.44 
L 243.309091 172.8 
L 238.8 176.16 
L 234.290909 179.52 
L 229.781818 182.88 
L 225.272727 186.24 
L 220.763636 189.6 
L 220.763636 192.96 
L 216.254545 196.32 
L 211.745455 199.68 
L 207.236364 203.04 
L 206.485096 203.599815 
L 206.182476 206.4 
L 205.865635 209.76 
L 205.641327 213.12 
L 205.445319 216.48 
L 205.288627 219.84 
L 205.131936 223.2 
L 204.988223 226.56 
L 204.891923 229.92 
L 204.789843 233.28 
L 204.694992 236.64 
L 204.662478 240 
L 204.629963 243.36 
L 204.597449 246.72 
L 204.564935 250.08 
L 204.546561 253.44 
L 204.537614 256.8 
L 204.528667 260.16 
L 204.51972 263.52 
L 204.510773 266.88 
L 204.501826 270.24 
L 204.492879 273.6 
L 204.483932 276.96 
L 204.474985 280.32 
L 204.466038 283.68 
L 204.457091 287.04 
L 204.448394 290.4 
L 204.441097 293.76 
L 204.433809 297.12 
L 204.42653 300.48 
L 204.419259 303.84 
L 204.411997 307.2 
L 204.404744 310.56 
L 204.397499 313.92 
L 204.39081 317.28 
z
" clip-path="url(#p85e44df840)" style="fill: #2b758e"/>
    <path d="M 265.854545 264.367082 
L 267.242192 263.52 
L 270.363636 261.619011 
L 272.752472 260.16 
L 274.872727 258.865028 
L 278.253795 256.8 
L 279.381818 256.111046 
L 283.810406 253.44 
L 283.890909 253.390944 
L 288.4 250.786168 
L 289.624632 250.08 
L 292.909091 248.186058 
L 295.451516 246.72 
L 297.418182 245.585947 
L 301.300379 243.36 
L 301.927273 242.998975 
L 306.436364 240.544345 
L 307.456251 240 
L 310.945455 238.137705 
L 313.75156 236.64 
L 315.454545 235.731064 
L 319.753528 233.436565 
L 319.963636 233.28 
L 324.472727 229.92 
L 328.981818 226.56 
L 333.490909 223.2 
L 333.490909 219.84 
L 338 216.48 
L 342.509091 213.12 
L 347.018182 209.76 
L 351.527273 206.4 
L 356.036364 203.04 
L 360.545455 199.68 
L 365.054545 196.32 
L 365.054545 192.96 
L 369.563636 189.6 
L 374.072727 186.24 
L 378.581818 182.88 
L 383.090909 179.52 
L 387.6 176.16 
L 392.109091 172.8 
L 396.618182 169.44 
L 400.050443 166.882412 
L 396.618182 168.714315 
L 395.258536 169.44 
L 392.109091 171.120956 
L 388.963228 172.8 
L 387.6 173.527597 
L 383.090909 175.934237 
L 382.667919 176.16 
L 378.581818 178.340878 
L 376.372611 179.52 
L 374.072727 180.747519 
L 370.147833 182.88 
L 369.563636 183.193373 
L 365.054545 185.759049 
L 364.220485 186.24 
L 360.545455 188.35916 
L 358.393601 189.6 
L 356.036364 190.959271 
L 352.566717 192.96 
L 351.527273 193.559382 
L 347.018182 196.137831 
L 346.612316 196.32 
L 342.509091 198.463946 
L 339.470551 199.68 
L 338 200.38408 
L 336.108305 199.68 
L 335.601262 196.32 
L 335.097396 192.96 
L 334.59353 189.6 
L 334.104557 186.24 
L 334.065896 182.88 
L 334.099374 179.52 
L 334.132282 176.16 
L 334.167361 172.8 
L 334.2085 169.44 
L 334.265818 166.08 
L 334.324272 162.72 
L 334.382726 159.36 
L 334.441181 156 
L 334.499635 152.64 
L 334.558089 149.28 
L 334.616543 145.92 
L 334.674997 142.56 
L 334.733451 139.2 
L 334.791905 135.84 
L 334.850359 132.48 
L 334.908813 129.12 
L 334.967268 125.76 
L 335.025722 122.4 
L 335.084176 119.04 
L 335.33088 115.68 
L 335.667405 112.32 
L 336.034465 108.96 
L 336.451806 105.6 
L 336.869146 102.24 
L 337.286487 98.88 
L 337.673619 95.763206 
L 333.490909 98.88 
L 328.981818 102.24 
L 324.472727 105.6 
L 319.963636 108.96 
L 315.454545 112.32 
L 310.945455 115.68 
L 306.436364 119.04 
L 301.927273 122.4 
L 297.418182 125.76 
L 297.418182 129.12 
L 292.909091 132.48 
L 288.4 135.84 
L 283.890909 139.2 
L 279.381818 142.56 
L 274.872727 145.92 
L 270.363636 149.28 
L 265.854545 152.64 
L 264.60688 153.569712 
L 264.31952 156 
L 263.922231 159.36 
L 263.524941 162.72 
L 263.169592 166.08 
L 262.830176 169.44 
L 262.610119 172.8 
L 262.390062 176.16 
L 262.170005 179.52 
L 261.949948 182.88 
L 261.818919 186.24 
L 261.821431 189.6 
L 261.823943 192.96 
L 261.826455 196.32 
L 261.828967 199.68 
L 261.831479 203.04 
L 261.8341 206.4 
L 261.836772 209.76 
L 261.839446 213.12 
L 261.842121 216.48 
L 261.844836 219.84 
L 261.848816 223.2 
L 261.852796 226.56 
L 261.856776 229.92 
L 261.860756 233.28 
L 261.864736 236.64 
L 261.868716 240 
L 261.872697 243.36 
L 261.876677 246.72 
L 261.880657 250.08 
L 262.0158 253.44 
L 262.238385 256.8 
L 262.493829 260.16 
L 262.830123 263.52 
z
" clip-path="url(#p85e44df840)" style="fill: #21918c"/>
    <path d="M 338 200.38408 
L 339.470551 199.68 
L 342.509091 198.463946 
L 346.612316 196.32 
L 347.018182 196.137831 
L 351.527273 193.559382 
L 352.566717 192.96 
L 356.036364 190.959271 
L 358.393601 189.6 
L 360.545455 188.35916 
L 364.220485 186.24 
L 365.054545 185.759049 
L 369.563636 183.193373 
L 370.147833 182.88 
L 374.072727 180.747519 
L 376.372611 179.52 
L 378.581818 178.340878 
L 382.667919 176.16 
L 383.090909 175.934237 
L 387.6 173.527597 
L 388.963228 172.8 
L 392.109091 171.120956 
L 395.258536 169.44 
L 396.618182 168.714315 
L 400.050443 166.882412 
L 401.127273 166.08 
L 401.127273 162.72 
L 405.636364 159.36 
L 410.145455 156 
L 414.654545 152.64 
L 419.163636 149.28 
L 423.672727 145.92 
L 428.181818 142.56 
L 432.690909 139.2 
L 432.690909 135.84 
L 437.2 132.48 
L 441.709091 129.12 
L 446.218182 125.76 
L 450.727273 122.4 
L 455.236364 119.04 
L 459.745455 115.68 
L 464.254545 112.32 
L 468.763636 108.96 
L 468.763636 106.510848 
L 464.254545 108.917489 
L 464.174896 108.96 
L 459.745455 111.324129 
L 457.879587 112.32 
L 455.236364 113.73077 
L 451.584279 115.68 
L 450.727273 116.137411 
L 446.218182 118.527441 
L 445.290475 119.04 
L 441.709091 120.952373 
L 438.910139 122.4 
L 437.2 123.304857 
L 432.842587 122.4 
L 432.690909 121.481329 
L 432.287832 119.04 
L 432.175158 115.68 
L 432.173005 112.32 
L 432.170852 108.96 
L 432.168698 105.6 
L 432.166545 102.24 
L 432.164392 98.88 
L 432.162238 95.52 
L 432.160085 92.16 
L 432.157932 88.8 
L 432.155779 85.44 
L 432.156058 82.08 
L 432.161807 78.72 
L 432.16758 75.36 
L 432.173375 72 
L 432.179194 68.64 
L 432.18557 65.28 
L 432.192431 61.92 
L 432.199293 58.56 
L 432.206154 55.2 
L 432.213015 51.84 
L 428.181818 51.84 
L 423.672727 51.84 
L 419.163636 51.84 
L 414.654545 51.84 
L 410.145455 51.84 
L 405.636364 51.84 
L 401.127273 51.84 
L 396.618182 51.84 
L 392.109091 55.2 
L 387.6 58.56 
L 383.090909 61.92 
L 378.581818 65.28 
L 374.072727 68.64 
L 369.563636 72 
L 365.054545 75.36 
L 360.545455 78.72 
L 356.036364 82.08 
L 351.527273 85.44 
L 347.018182 88.8 
L 342.509091 92.16 
L 338 95.52 
L 337.673619 95.763206 
L 337.286487 98.88 
L 336.869146 102.24 
L 336.451806 105.6 
L 336.034465 108.96 
L 335.667405 112.32 
L 335.33088 115.68 
L 335.084176 119.04 
L 335.025722 122.4 
L 334.967268 125.76 
L 334.908813 129.12 
L 334.850359 132.48 
L 334.791905 135.84 
L 334.733451 139.2 
L 334.674997 142.56 
L 334.616543 145.92 
L 334.558089 149.28 
L 334.499635 152.64 
L 334.441181 156 
L 334.382726 159.36 
L 334.324272 162.72 
L 334.265818 166.08 
L 334.2085 169.44 
L 334.167361 172.8 
L 334.132282 176.16 
L 334.099374 179.52 
L 334.065896 182.88 
L 334.104557 186.24 
L 334.59353 189.6 
L 335.097396 192.96 
L 335.601262 196.32 
L 336.108305 199.68 
z
" clip-path="url(#p85e44df840)" style="fill: #25ab82"/>
    <path d="M 437.2 123.304857 
L 438.910139 122.4 
L 441.709091 120.952373 
L 445.290475 119.04 
L 446.218182 118.527441 
L 450.727273 116.137411 
L 451.584279 115.68 
L 455.236364 113.73077 
L 457.879587 112.32 
L 459.745455 111.324129 
L 464.174896 108.96 
L 464.254545 108.917489 
L 468.763636 106.510848 
L 468.763636 105.6 
L 473.272727 102.24 
L 477.781818 98.88 
L 482.290909 95.52 
L 486.8 92.16 
L 491.309091 88.8 
L 495.818182 85.44 
L 500.327273 82.08 
L 500.327273 78.72 
L 504.836364 75.36 
L 509.345455 72 
L 513.854545 68.64 
L 518.363636 65.28 
L 522.872727 61.92 
L 527.381818 58.56 
L 531.890909 55.2 
L 536.4 51.84 
L 531.890909 51.84 
L 527.381818 51.84 
L 522.872727 51.84 
L 518.363636 51.84 
L 513.854545 51.84 
L 509.345455 51.84 
L 504.836364 51.84 
L 500.327273 51.84 
L 495.818182 51.84 
L 491.309091 51.84 
L 486.8 51.84 
L 482.290909 51.84 
L 477.781818 51.84 
L 473.272727 51.84 
L 468.763636 51.84 
L 464.254545 51.84 
L 459.745455 51.84 
L 455.236364 51.84 
L 450.727273 51.84 
L 446.218182 51.84 
L 441.709091 51.84 
L 437.2 51.84 
L 432.690909 51.84 
L 432.213015 51.84 
L 432.206154 55.2 
L 432.199293 58.56 
L 432.192431 61.92 
L 432.18557 65.28 
L 432.179194 68.64 
L 432.173375 72 
L 432.16758 75.36 
L 432.161807 78.72 
L 432.156058 82.08 
L 432.155779 85.44 
L 432.157932 88.8 
L 432.160085 92.16 
L 432.162238 95.52 
L 432.164392 98.88 
L 432.166545 102.24 
L 432.168698 105.6 
L 432.170852 108.96 
L 432.173005 112.32 
L 432.175158 115.68 
L 432.287832 119.04 
L 432.690909 121.481329 
L 432.842587 122.4 
z
" clip-path="url(#p85e44df840)" style="fill: #4ec36b"/>
    <path clip-path="url(#p85e44df840)" style="fill: #90d743"/>
    <path clip-path="url(#p85e44df840)" style="fill: #dae319"/>
   </g>
   <g id="matplotlib.axis_1">
    <g id="xtick_1">
     <g id="line2d_1">
      <path d="M 163.001912 384.48 
L 163.001912 51.84 
" clip-path="url(#p85e44df840)" style="fill: none; stroke: #b0b0b0; stroke-width: 0.8; stroke-linecap: square"/>
     </g>
     <g id="line2d_2">
      <defs>
       <path id="m73f733ed00" d="M 0 0 
L 0 3.5 
" style="stroke: #000000; stroke-width: 0.8"/>
      </defs>
      <g>
       <use xlink:href="#m73f733ed00" x="163.001912" y="384.48" style="stroke: #000000; stroke-width: 0.8"/>
      </g>
     </g>
     <g id="text_1">
      <!-- 1000 -->
      <g transform="translate(150.276912 399.078438) scale(0.1 -0.1)">
       <defs>
        <path id="DejaVuSans-31" d="M 794 531 
L 1825 531 
L 1825 4091 
L 703 3866 
L 703 4441 
L 1819 4666 
L 2450 4666 
L 2450 531 
L 3481 531 
L 3481 0 
L 794 0 
L 794 531 
z
" transform="scale(0.015625)"/>
        <path id="DejaVuSans-30" d="M 2034 4250 
Q 1547 4250 1301 3770 
Q 1056 3291 1056 2328 
Q 1056 1369 1301 889 
Q 1547 409 2034 409 
Q 2525 409 2770 889 
Q 3016 1369 3016 2328 
Q 3016 3291 2770 3770 
Q 2525 4250 2034 4250 
z
M 2034 4750 
Q 2819 4750 3233 4129 
Q 3647 3509 3647 2328 
Q 3647 1150 3233 529 
Q 2819 -91 2034 -91 
Q 1250 -91 836 529 
Q 422 1150 422 2328 
Q 422 3509 836 4129 
Q 1250 4750 2034 4750 
z
" transform="scale(0.015625)"/>
       </defs>
       <use xlink:href="#DejaVuSans-31"/>
       <use xlink:href="#DejaVuSans-30" x="63.623047"/>
       <use xlink:href="#DejaVuSans-30" x="127.246094"/>
       <use xlink:href="#DejaVuSans-30" x="190.869141"/>
      </g>
     </g>
    </g>
    <g id="xtick_2">
     <g id="line2d_3">
      <path d="M 237.696133 384.48 
L 237.696133 51.84 
" clip-path="url(#p85e44df840)" style="fill: none; stroke: #b0b0b0; stroke-width: 0.8; stroke-linecap: square"/>
     </g>
     <g id="line2d_4">
      <g>
       <use xlink:href="#m73f733ed00" x="237.696133" y="384.48" style="stroke: #000000; stroke-width: 0.8"/>
      </g>
     </g>
     <g id="text_2">
      <!-- 2000 -->
      <g transform="translate(224.971133 399.078438) scale(0.1 -0.1)">
       <defs>
        <path id="DejaVuSans-32" d="M 1228 531 
L 3431 531 
L 3431 0 
L 469 0 
L 469 531 
Q 828 903 1448 1529 
Q 2069 2156 2228 2338 
Q 2531 2678 2651 2914 
Q 2772 3150 2772 3378 
Q 2772 3750 2511 3984 
Q 2250 4219 1831 4219 
Q 1534 4219 1204 4116 
Q 875 4013 500 3803 
L 500 4441 
Q 881 4594 1212 4672 
Q 1544 4750 1819 4750 
Q 2544 4750 2975 4387 
Q 3406 4025 3406 3419 
Q 3406 3131 3298 2873 
Q 3191 2616 2906 2266 
Q 2828 2175 2409 1742 
Q 1991 1309 1228 531 
z
" transform="scale(0.015625)"/>
       </defs>
       <use xlink:href="#DejaVuSans-32"/>
       <use xlink:href="#DejaVuSans-30" x="63.623047"/>
       <use xlink:href="#DejaVuSans-30" x="127.246094"/>
       <use xlink:href="#DejaVuSans-30" x="190.869141"/>
      </g>
     </g>
    </g>
    <g id="xtick_3">
     <g id="line2d_5">
      <path d="M 312.390353 384.48 
L 312.390353 51.84 
" clip-path="url(#p85e44df840)" style="fill: none; stroke: #b0b0b0; stroke-width: 0.8; stroke-linecap: square"/>
     </g>
     <g id="line2d_6">
      <g>
       <use xlink:href="#m73f733ed00" x="312.390353" y="384.48" style="stroke: #000000; stroke-width: 0.8"/>
      </g>
     </g>
     <g id="text_3">
      <!-- 3000 -->
      <g transform="translate(299.665353 399.078438) scale(0.1 -0.1)">
       <defs>
        <path id="DejaVuSans-33" d="M 2597 2516 
Q 3050 2419 3304 2112 
Q 3559 1806 3559 1356 
Q 3559 666 3084 287 
Q 2609 -91 1734 -91 
Q 1441 -91 1130 -33 
Q 819 25 488 141 
L 488 750 
Q 750 597 1062 519 
Q 1375 441 1716 441 
Q 2309 441 2620 675 
Q 2931 909 2931 1356 
Q 2931 1769 2642 2001 
Q 2353 2234 1838 2234 
L 1294 2234 
L 1294 2753 
L 1863 2753 
Q 2328 2753 2575 2939 
Q 2822 3125 2822 3475 
Q 2822 3834 2567 4026 
Q 2313 4219 1838 4219 
Q 1578 4219 1281 4162 
Q 984 4106 628 3988 
L 628 4550 
Q 988 4650 1302 4700 
Q 1616 4750 1894 4750 
Q 2613 4750 3031 4423 
Q 3450 4097 3450 3541 
Q 3450 3153 3228 2886 
Q 3006 2619 2597 2516 
z
" transform="scale(0.015625)"/>
       </defs>
       <use xlink:href="#DejaVuSans-33"/>
       <use xlink:href="#DejaVuSans-30" x="63.623047"/>
       <use xlink:href="#DejaVuSans-30" x="127.246094"/>
       <use xlink:href="#DejaVuSans-30" x="190.869141"/>
      </g>
     </g>
    </g>
    <g id="xtick_4">
     <g id="line2d_7">
      <path d="M 387.084574 384.48 
L 387.084574 51.84 
" clip-path="url(#p85e44df840)" style="fill: none; stroke: #b0b0b0; stroke-width: 0.8; stroke-linecap: square"/>
     </g>
     <g id="line2d_8">
      <g>
       <use xlink:href="#m73f733ed00" x="387.084574" y="384.48" style="stroke: #000000; stroke-width: 0.8"/>
      </g>
     </g>
     <g id="text_4">
      <!-- 4000 -->
      <g transform="translate(374.359574 399.078438) scale(0.1 -0.1)">
       <defs>
        <path id="DejaVuSans-34" d="M 2419 4116 
L 825 1625 
L 2419 1625 
L 2419 4116 
z
M 2253 4666 
L 3047 4666 
L 3047 1625 
L 3713 1625 
L 3713 1100 
L 3047 1100 
L 3047 0 
L 2419 0 
L 2419 1100 
L 313 1100 
L 313 1709 
L 2253 4666 
z
" transform="scale(0.015625)"/>
       </defs>
       <use xlink:href="#DejaVuSans-34"/>
       <use xlink:href="#DejaVuSans-30" x="63.623047"/>
       <use xlink:href="#DejaVuSans-30" x="127.246094"/>
       <use xlink:href="#DejaVuSans-30" x="190.869141"/>
      </g>
     </g>
    </g>
    <g id="xtick_5">
     <g id="line2d_9">
      <path d="M 461.778794 384.48 
L 461.778794 51.84 
" clip-path="url(#p85e44df840)" style="fill: none; stroke: #b0b0b0; stroke-width: 0.8; stroke-linecap: square"/>
     </g>
     <g id="line2d_10">
      <g>
       <use xlink:href="#m73f733ed00" x="461.778794" y="384.48" style="stroke: #000000; stroke-width: 0.8"/>
      </g>
     </g>
     <g id="text_5">
      <!-- 5000 -->
      <g transform="translate(449.053794 399.078438) scale(0.1 -0.1)">
       <defs>
        <path id="DejaVuSans-35" d="M 691 4666 
L 3169 4666 
L 3169 4134 
L 1269 4134 
L 1269 2991 
Q 1406 3038 1543 3061 
Q 1681 3084 1819 3084 
Q 2600 3084 3056 2656 
Q 3513 2228 3513 1497 
Q 3513 744 3044 326 
Q 2575 -91 1722 -91 
Q 1428 -91 1123 -41 
Q 819 9 494 109 
L 494 744 
Q 775 591 1075 516 
Q 1375 441 1709 441 
Q 2250 441 2565 725 
Q 2881 1009 2881 1497 
Q 2881 1984 2565 2268 
Q 2250 2553 1709 2553 
Q 1456 2553 1204 2497 
Q 953 2441 691 2322 
L 691 4666 
z
" transform="scale(0.015625)"/>
       </defs>
       <use xlink:href="#DejaVuSans-35"/>
       <use xlink:href="#DejaVuSans-30" x="63.623047"/>
       <use xlink:href="#DejaVuSans-30" x="127.246094"/>
       <use xlink:href="#DejaVuSans-30" x="190.869141"/>
      </g>
     </g>
    </g>
    <g id="text_6">
     <!-- $\dot{W}_{exp}$ [W] -->
     <g transform="translate(269.1 426.358125) scale(0.2 -0.2)">
      <defs>
       <path id="DejaVuSans-307" d="M -1894 4863 
L -1319 4863 
L -1319 4134 
L -1894 4134 
L -1894 4863 
z
M -1600 3584 
L -1600 3584 
z
" transform="scale(0.015625)"/>
       <path id="DejaVuSans-Oblique-57" d="M 616 4666 
L 1228 4666 
L 1453 697 
L 3213 4666 
L 3916 4666 
L 4147 697 
L 5888 4666 
L 6528 4666 
L 4453 0 
L 3659 0 
L 3444 3891 
L 1697 0 
L 903 0 
L 616 4666 
z
" transform="scale(0.015625)"/>
       <path id="DejaVuSans-Oblique-65" d="M 3078 2063 
Q 3088 2113 3092 2166 
Q 3097 2219 3097 2272 
Q 3097 2653 2873 2875 
Q 2650 3097 2266 3097 
Q 1838 3097 1509 2826 
Q 1181 2556 1013 2059 
L 3078 2063 
z
M 3578 1613 
L 903 1613 
Q 884 1494 878 1425 
Q 872 1356 872 1306 
Q 872 872 1139 634 
Q 1406 397 1894 397 
Q 2269 397 2603 481 
Q 2938 566 3225 728 
L 3116 159 
Q 2806 34 2476 -28 
Q 2147 -91 1806 -91 
Q 1078 -91 686 257 
Q 294 606 294 1247 
Q 294 1794 489 2264 
Q 684 2734 1063 3103 
Q 1306 3334 1642 3459 
Q 1978 3584 2356 3584 
Q 2950 3584 3301 3228 
Q 3653 2872 3653 2272 
Q 3653 2128 3634 1964 
Q 3616 1800 3578 1613 
z
" transform="scale(0.015625)"/>
       <path id="DejaVuSans-Oblique-78" d="M 3841 3500 
L 2234 1784 
L 3219 0 
L 2559 0 
L 1819 1388 
L 531 0 
L -166 0 
L 1556 1844 
L 641 3500 
L 1300 3500 
L 1972 2234 
L 3144 3500 
L 3841 3500 
z
" transform="scale(0.015625)"/>
       <path id="DejaVuSans-Oblique-70" d="M 3175 2156 
Q 3175 2616 2975 2859 
Q 2775 3103 2400 3103 
Q 2144 3103 1911 2972 
Q 1678 2841 1497 2591 
Q 1319 2344 1212 1994 
Q 1106 1644 1106 1300 
Q 1106 863 1306 627 
Q 1506 391 1875 391 
Q 2147 391 2380 519 
Q 2613 647 2778 891 
Q 2956 1147 3065 1494 
Q 3175 1841 3175 2156 
z
M 1394 2969 
Q 1625 3272 1939 3428 
Q 2253 3584 2638 3584 
Q 3175 3584 3472 3232 
Q 3769 2881 3769 2247 
Q 3769 1728 3584 1258 
Q 3400 788 3053 416 
Q 2822 169 2531 39 
Q 2241 -91 1919 -91 
Q 1547 -91 1294 64 
Q 1041 219 916 525 
L 556 -1331 
L -19 -1331 
L 922 3500 
L 1497 3500 
L 1394 2969 
z
" transform="scale(0.015625)"/>
       <path id="DejaVuSans-20" transform="scale(0.015625)"/>
       <path id="DejaVuSans-5b" d="M 550 4863 
L 1875 4863 
L 1875 4416 
L 1125 4416 
L 1125 -397 
L 1875 -397 
L 1875 -844 
L 550 -844 
L 550 4863 
z
" transform="scale(0.015625)"/>
       <path id="DejaVuSans-57" d="M 213 4666 
L 850 4666 
L 1831 722 
L 2809 4666 
L 3519 4666 
L 4500 722 
L 5478 4666 
L 6119 4666 
L 4947 0 
L 4153 0 
L 3169 4050 
L 2175 0 
L 1381 0 
L 213 4666 
z
" transform="scale(0.015625)"/>
       <path id="DejaVuSans-5d" d="M 1947 4863 
L 1947 -844 
L 622 -844 
L 622 -397 
L 1369 -397 
L 1369 4416 
L 622 4416 
L 622 4863 
L 1947 4863 
z
" transform="scale(0.015625)"/>
      </defs>
      <use xlink:href="#DejaVuSans-307" transform="translate(87.312988 30.015625)"/>
      <use xlink:href="#DejaVuSans-Oblique-57" transform="translate(0 0.609375)"/>
      <use xlink:href="#DejaVuSans-Oblique-65" transform="translate(99.833984 -15.796875) scale(0.7)"/>
      <use xlink:href="#DejaVuSans-Oblique-78" transform="translate(142.900391 -15.796875) scale(0.7)"/>
      <use xlink:href="#DejaVuSans-Oblique-70" transform="translate(184.326172 -15.796875) scale(0.7)"/>
      <use xlink:href="#DejaVuSans-20" transform="translate(231.494141 0.609375)"/>
      <use xlink:href="#DejaVuSans-5b" transform="translate(263.28125 0.609375)"/>
      <use xlink:href="#DejaVuSans-57" transform="translate(302.294922 0.609375)"/>
      <use xlink:href="#DejaVuSans-5d" transform="translate(401.171875 0.609375)"/>
     </g>
    </g>
   </g>
   <g id="matplotlib.axis_2">
    <g id="ytick_1">
     <g id="line2d_11">
      <path d="M 90 384.48 
L 536.4 384.48 
" clip-path="url(#p85e44df840)" style="fill: none; stroke: #b0b0b0; stroke-width: 0.8; stroke-linecap: square"/>
     </g>
     <g id="line2d_12">
      <defs>
       <path id="mcf22ada156" d="M 0 0 
L -3.5 0 
" style="stroke: #000000; stroke-width: 0.8"/>
      </defs>
      <g>
       <use xlink:href="#mcf22ada156" x="90" y="384.48" style="stroke: #000000; stroke-width: 0.8"/>
      </g>
     </g>
     <g id="text_7">
      <!-- 75 -->
      <g transform="translate(70.275 388.279219) scale(0.1 -0.1)">
       <defs>
        <path id="DejaVuSans-37" d="M 525 4666 
L 3525 4666 
L 3525 4397 
L 1831 0 
L 1172 0 
L 2766 4134 
L 525 4134 
L 525 4666 
z
" transform="scale(0.015625)"/>
       </defs>
       <use xlink:href="#DejaVuSans-37"/>
       <use xlink:href="#DejaVuSans-35" x="63.623047"/>
      </g>
     </g>
    </g>
    <g id="ytick_2">
     <g id="line2d_13">
      <path d="M 90 317.952 
L 536.4 317.952 
" clip-path="url(#p85e44df840)" style="fill: none; stroke: #b0b0b0; stroke-width: 0.8; stroke-linecap: square"/>
     </g>
     <g id="line2d_14">
      <g>
       <use xlink:href="#mcf22ada156" x="90" y="317.952" style="stroke: #000000; stroke-width: 0.8"/>
      </g>
     </g>
     <g id="text_8">
      <!-- 80 -->
      <g transform="translate(70.275 321.751219) scale(0.1 -0.1)">
       <defs>
        <path id="DejaVuSans-38" d="M 2034 2216 
Q 1584 2216 1326 1975 
Q 1069 1734 1069 1313 
Q 1069 891 1326 650 
Q 1584 409 2034 409 
Q 2484 409 2743 651 
Q 3003 894 3003 1313 
Q 3003 1734 2745 1975 
Q 2488 2216 2034 2216 
z
M 1403 2484 
Q 997 2584 770 2862 
Q 544 3141 544 3541 
Q 544 4100 942 4425 
Q 1341 4750 2034 4750 
Q 2731 4750 3128 4425 
Q 3525 4100 3525 3541 
Q 3525 3141 3298 2862 
Q 3072 2584 2669 2484 
Q 3125 2378 3379 2068 
Q 3634 1759 3634 1313 
Q 3634 634 3220 271 
Q 2806 -91 2034 -91 
Q 1263 -91 848 271 
Q 434 634 434 1313 
Q 434 1759 690 2068 
Q 947 2378 1403 2484 
z
M 1172 3481 
Q 1172 3119 1398 2916 
Q 1625 2713 2034 2713 
Q 2441 2713 2670 2916 
Q 2900 3119 2900 3481 
Q 2900 3844 2670 4047 
Q 2441 4250 2034 4250 
Q 1625 4250 1398 4047 
Q 1172 3844 1172 3481 
z
" transform="scale(0.015625)"/>
       </defs>
       <use xlink:href="#DejaVuSans-38"/>
       <use xlink:href="#DejaVuSans-30" x="63.623047"/>
      </g>
     </g>
    </g>
    <g id="ytick_3">
     <g id="line2d_15">
      <path d="M 90 251.424 
L 536.4 251.424 
" clip-path="url(#p85e44df840)" style="fill: none; stroke: #b0b0b0; stroke-width: 0.8; stroke-linecap: square"/>
     </g>
     <g id="line2d_16">
      <g>
       <use xlink:href="#mcf22ada156" x="90" y="251.424" style="stroke: #000000; stroke-width: 0.8"/>
      </g>
     </g>
     <g id="text_9">
      <!-- 85 -->
      <g transform="translate(70.275 255.223219) scale(0.1 -0.1)">
       <use xlink:href="#DejaVuSans-38"/>
       <use xlink:href="#DejaVuSans-35" x="63.623047"/>
      </g>
     </g>
    </g>
    <g id="ytick_4">
     <g id="line2d_17">
      <path d="M 90 184.896 
L 536.4 184.896 
" clip-path="url(#p85e44df840)" style="fill: none; stroke: #b0b0b0; stroke-width: 0.8; stroke-linecap: square"/>
     </g>
     <g id="line2d_18">
      <g>
       <use xlink:href="#mcf22ada156" x="90" y="184.896" style="stroke: #000000; stroke-width: 0.8"/>
      </g>
     </g>
     <g id="text_10">
      <!-- 90 -->
      <g transform="translate(70.275 188.695219) scale(0.1 -0.1)">
       <defs>
        <path id="DejaVuSans-39" d="M 703 97 
L 703 672 
Q 941 559 1184 500 
Q 1428 441 1663 441 
Q 2288 441 2617 861 
Q 2947 1281 2994 2138 
Q 2813 1869 2534 1725 
Q 2256 1581 1919 1581 
Q 1219 1581 811 2004 
Q 403 2428 403 3163 
Q 403 3881 828 4315 
Q 1253 4750 1959 4750 
Q 2769 4750 3195 4129 
Q 3622 3509 3622 2328 
Q 3622 1225 3098 567 
Q 2575 -91 1691 -91 
Q 1453 -91 1209 -44 
Q 966 3 703 97 
z
M 1959 2075 
Q 2384 2075 2632 2365 
Q 2881 2656 2881 3163 
Q 2881 3666 2632 3958 
Q 2384 4250 1959 4250 
Q 1534 4250 1286 3958 
Q 1038 3666 1038 3163 
Q 1038 2656 1286 2365 
Q 1534 2075 1959 2075 
z
" transform="scale(0.015625)"/>
       </defs>
       <use xlink:href="#DejaVuSans-39"/>
       <use xlink:href="#DejaVuSans-30" x="63.623047"/>
      </g>
     </g>
    </g>
    <g id="ytick_5">
     <g id="line2d_19">
      <path d="M 90 118.368 
L 536.4 118.368 
" clip-path="url(#p85e44df840)" style="fill: none; stroke: #b0b0b0; stroke-width: 0.8; stroke-linecap: square"/>
     </g>
     <g id="line2d_20">
      <g>
       <use xlink:href="#mcf22ada156" x="90" y="118.368" style="stroke: #000000; stroke-width: 0.8"/>
      </g>
     </g>
     <g id="text_11">
      <!-- 95 -->
      <g transform="translate(70.275 122.167219) scale(0.1 -0.1)">
       <use xlink:href="#DejaVuSans-39"/>
       <use xlink:href="#DejaVuSans-35" x="63.623047"/>
      </g>
     </g>
    </g>
    <g id="ytick_6">
     <g id="line2d_21">
      <path d="M 90 51.84 
L 536.4 51.84 
" clip-path="url(#p85e44df840)" style="fill: none; stroke: #b0b0b0; stroke-width: 0.8; stroke-linecap: square"/>
     </g>
     <g id="line2d_22">
      <g>
       <use xlink:href="#mcf22ada156" x="90" y="51.84" style="stroke: #000000; stroke-width: 0.8"/>
      </g>
     </g>
     <g id="text_12">
      <!-- 100 -->
      <g transform="translate(63.9125 55.639219) scale(0.1 -0.1)">
       <use xlink:href="#DejaVuSans-31"/>
       <use xlink:href="#DejaVuSans-30" x="63.623047"/>
       <use xlink:href="#DejaVuSans-30" x="127.246094"/>
      </g>
     </g>
    </g>
    <g id="text_13">
     <!-- $T_{sto,HT}$ [°C] -->
     <g transform="translate(54.9125 271.36) rotate(-90) scale(0.2 -0.2)">
      <defs>
       <path id="DejaVuSans-Oblique-54" d="M 378 4666 
L 4325 4666 
L 4225 4134 
L 2559 4134 
L 1759 0 
L 1125 0 
L 1925 4134 
L 275 4134 
L 378 4666 
z
" transform="scale(0.015625)"/>
       <path id="DejaVuSans-Oblique-73" d="M 3200 3397 
L 3091 2853 
Q 2863 2978 2609 3040 
Q 2356 3103 2088 3103 
Q 1634 3103 1373 2948 
Q 1113 2794 1113 2528 
Q 1113 2219 1719 2053 
Q 1766 2041 1788 2034 
L 1972 1978 
Q 2547 1819 2739 1644 
Q 2931 1469 2931 1166 
Q 2931 609 2489 259 
Q 2047 -91 1331 -91 
Q 1053 -91 747 -37 
Q 441 16 72 128 
L 184 722 
Q 500 559 806 475 
Q 1113 391 1394 391 
Q 1816 391 2080 572 
Q 2344 753 2344 1031 
Q 2344 1331 1650 1516 
L 1591 1531 
L 1394 1581 
Q 956 1697 753 1886 
Q 550 2075 550 2369 
Q 550 2928 970 3256 
Q 1391 3584 2113 3584 
Q 2397 3584 2667 3537 
Q 2938 3491 3200 3397 
z
" transform="scale(0.015625)"/>
       <path id="DejaVuSans-Oblique-74" d="M 2706 3500 
L 2619 3053 
L 1472 3053 
L 1100 1153 
Q 1081 1047 1072 975 
Q 1063 903 1063 863 
Q 1063 663 1183 572 
Q 1303 481 1569 481 
L 2150 481 
L 2053 0 
L 1503 0 
Q 991 0 739 200 
Q 488 400 488 806 
Q 488 878 497 964 
Q 506 1050 525 1153 
L 897 3053 
L 409 3053 
L 500 3500 
L 978 3500 
L 1172 4494 
L 1747 4494 
L 1556 3500 
L 2706 3500 
z
" transform="scale(0.015625)"/>
       <path id="DejaVuSans-Oblique-6f" d="M 1625 -91 
Q 1009 -91 651 289 
Q 294 669 294 1325 
Q 294 1706 417 2101 
Q 541 2497 738 2766 
Q 1047 3184 1428 3384 
Q 1809 3584 2291 3584 
Q 2888 3584 3255 3212 
Q 3622 2841 3622 2241 
Q 3622 1825 3500 1412 
Q 3378 1000 3181 728 
Q 2875 309 2494 109 
Q 2113 -91 1625 -91 
z
M 891 1344 
Q 891 869 1089 633 
Q 1288 397 1691 397 
Q 2269 397 2648 901 
Q 3028 1406 3028 2181 
Q 3028 2634 2825 2865 
Q 2622 3097 2228 3097 
Q 1903 3097 1650 2945 
Q 1397 2794 1197 2484 
Q 1050 2253 970 1956 
Q 891 1659 891 1344 
z
" transform="scale(0.015625)"/>
       <path id="DejaVuSans-2c" d="M 750 794 
L 1409 794 
L 1409 256 
L 897 -744 
L 494 -744 
L 750 256 
L 750 794 
z
" transform="scale(0.015625)"/>
       <path id="DejaVuSans-Oblique-48" d="M 1081 4666 
L 1716 4666 
L 1344 2753 
L 3634 2753 
L 4006 4666 
L 4641 4666 
L 3731 0 
L 3097 0 
L 3531 2222 
L 1241 2222 
L 806 0 
L 172 0 
L 1081 4666 
z
" transform="scale(0.015625)"/>
       <path id="DejaVuSans-b0" d="M 1600 4347 
Q 1350 4347 1178 4173 
Q 1006 4000 1006 3750 
Q 1006 3503 1178 3333 
Q 1350 3163 1600 3163 
Q 1850 3163 2022 3333 
Q 2194 3503 2194 3750 
Q 2194 3997 2020 4172 
Q 1847 4347 1600 4347 
z
M 1600 4750 
Q 1800 4750 1984 4673 
Q 2169 4597 2303 4453 
Q 2447 4313 2519 4134 
Q 2591 3956 2591 3750 
Q 2591 3338 2302 3052 
Q 2013 2766 1594 2766 
Q 1172 2766 890 3047 
Q 609 3328 609 3750 
Q 609 4169 896 4459 
Q 1184 4750 1600 4750 
z
" transform="scale(0.015625)"/>
       <path id="DejaVuSans-43" d="M 4122 4306 
L 4122 3641 
Q 3803 3938 3442 4084 
Q 3081 4231 2675 4231 
Q 1875 4231 1450 3742 
Q 1025 3253 1025 2328 
Q 1025 1406 1450 917 
Q 1875 428 2675 428 
Q 3081 428 3442 575 
Q 3803 722 4122 1019 
L 4122 359 
Q 3791 134 3420 21 
Q 3050 -91 2638 -91 
Q 1578 -91 968 557 
Q 359 1206 359 2328 
Q 359 3453 968 4101 
Q 1578 4750 2638 4750 
Q 3056 4750 3426 4639 
Q 3797 4528 4122 4306 
z
" transform="scale(0.015625)"/>
      </defs>
      <use xlink:href="#DejaVuSans-Oblique-54" transform="translate(0 0.015625)"/>
      <use xlink:href="#DejaVuSans-Oblique-73" transform="translate(61.083984 -16.390625) scale(0.7)"/>
      <use xlink:href="#DejaVuSans-Oblique-74" transform="translate(97.553711 -16.390625) scale(0.7)"/>
      <use xlink:href="#DejaVuSans-Oblique-6f" transform="translate(125 -16.390625) scale(0.7)"/>
      <use xlink:href="#DejaVuSans-2c" transform="translate(167.827148 -16.390625) scale(0.7)"/>
      <use xlink:href="#DejaVuSans-Oblique-48" transform="translate(203.71582 -16.390625) scale(0.7)"/>
      <use xlink:href="#DejaVuSans-Oblique-54" transform="translate(256.352539 -16.390625) scale(0.7)"/>
      <use xlink:href="#DejaVuSans-20" transform="translate(301.845703 0.015625)"/>
      <use xlink:href="#DejaVuSans-5b" transform="translate(333.632812 0.015625)"/>
      <use xlink:href="#DejaVuSans-b0" transform="translate(372.646484 0.015625)"/>
      <use xlink:href="#DejaVuSans-43" transform="translate(422.646484 0.015625)"/>
      <use xlink:href="#DejaVuSans-5d" transform="translate(492.470703 0.015625)"/>
     </g>
    </g>
   </g>
   <g id="QuadContourSet_2">
    <path clip-path="url(#p85e44df840)" style="fill: none; stroke: #000000; stroke-width: 1.5"/>
    <path d="M 122.51482 286.331215 
L 122.445658 287.04 
L 122.117795 290.4 
L 121.795889 293.76 
L 121.563636 296.079111 
L 121.462068 297.12 
L 121.251113 300.48 
L 121.09927 303.84 
L 120.952896 307.2 
L 120.813895 310.56 
L 120.674894 313.92 
L 120.535893 317.28 
L 120.500189 320.64 
L 120.49031 324 
L 120.48043 327.36 
L 120.470551 330.72 
L 120.460671 334.08 
L 120.450791 337.44 
L 120.440912 340.8 
L 120.431032 344.16 
L 120.421153 347.52 
L 120.416774 350.88 
L 120.42087 354.24 
L 120.425001 357.6 
L 120.429167 360.96 
L 120.433368 364.32 
L 120.43751 367.605009 
M 120.455045 381.194991 
L 120.46067 384.48 
" clip-path="url(#p85e44df840)" style="fill: none; stroke: #000000; stroke-width: 1.5"/>
    <path d="M 158.58934 249.369879 
L 158.512596 250.08 
L 158.358725 253.44 
L 158.344355 256.8 
L 158.329984 260.16 
L 158.315613 263.52 
L 158.301242 266.88 
L 158.286872 270.24 
L 158.272501 273.6 
L 158.265121 276.96 
L 158.27518 280.32 
L 158.285113 283.68 
L 158.294924 287.04 
L 158.304614 290.4 
L 158.314185 293.76 
L 158.32364 297.12 
L 158.332981 300.48 
L 158.34221 303.84 
L 158.353477 307.170083 
M 158.407189 320.669916 
L 158.420642 324 
L 158.45197 327.36 
L 158.48474 330.72 
L 158.519056 334.08 
L 158.555028 337.44 
L 158.66232 340.8 
L 158.786397 344.16 
L 158.910473 347.52 
L 159.03455 350.88 
L 159.182632 354.24 
L 159.366485 357.6 
L 159.587402 360.96 
L 159.930021 364.32 
L 162.145455 365.261576 
L 163.833551 364.32 
L 166.654545 362.785468 
" clip-path="url(#p85e44df840)" style="fill: none; stroke: #000000; stroke-width: 1.5"/>
    <path d="M 206.485096 203.599815 
L 206.182476 206.4 
L 205.865635 209.76 
L 205.641327 213.12 
L 205.445319 216.48 
L 205.288627 219.84 
L 205.131936 223.2 
L 204.988223 226.56 
L 204.891923 229.92 
L 204.789843 233.28 
L 204.694992 236.64 
L 204.662478 240 
L 204.629963 243.36 
L 204.597449 246.72 
L 204.564935 250.08 
L 204.546561 253.44 
L 204.537614 256.8 
L 204.528667 260.16 
L 204.5198 263.490037 
M 204.483852 276.989963 
L 204.474985 280.32 
L 204.466038 283.68 
L 204.457091 287.04 
L 204.448394 290.4 
L 204.441097 293.76 
L 204.433809 297.12 
L 204.42653 300.48 
L 204.419259 303.84 
L 204.411997 307.2 
L 204.404744 310.56 
L 204.397499 313.92 
L 204.39081 317.28 
L 207.236364 318.650756 
L 209.502233 317.28 
L 211.745455 316.298043 
L 215.594313 313.92 
L 216.254545 313.525017 
L 220.763636 310.746202 
L 221.082791 310.56 
L 225.272727 308.051446 
L 226.742805 307.2 
L 229.781818 305.412844 
L 232.58207 303.84 
L 234.290909 302.860519 
L 238.575894 300.48 
L 238.8 300.35248 
L 239.456613 299.990718 
" clip-path="url(#p85e44df840)" style="fill: none; stroke: #000000; stroke-width: 1.5"/>
    <path d="M 264.60688 153.569712 
L 264.31952 156 
L 263.922231 159.36 
L 263.524941 162.72 
L 263.169592 166.08 
L 262.830176 169.44 
L 262.610119 172.8 
L 262.390062 176.16 
L 262.170005 179.52 
L 261.949948 182.88 
L 261.818919 186.24 
L 261.821431 189.6 
L 261.823943 192.96 
L 261.826455 196.32 
L 261.828967 199.68 
L 261.831479 203.04 
L 261.8341 206.4 
L 261.836772 209.76 
L 261.839422 213.090003 
M 261.852832 226.589993 
L 261.856776 229.92 
L 261.860756 233.28 
L 261.864736 236.64 
L 261.868716 240 
L 261.872697 243.36 
L 261.876677 246.72 
L 261.880657 250.08 
L 262.0158 253.44 
L 262.238385 256.8 
L 262.493829 260.16 
L 262.830123 263.52 
L 265.854545 264.367082 
L 267.242192 263.52 
L 270.363636 261.619011 
L 272.752472 260.16 
L 274.872727 258.865028 
L 278.253795 256.8 
L 279.381818 256.111046 
L 283.810406 253.44 
L 283.890909 253.390944 
L 288.4 250.786168 
L 289.624632 250.08 
L 292.909091 248.186058 
L 295.451516 246.72 
L 297.418182 245.585947 
L 301.300379 243.36 
L 301.927273 242.998975 
L 306.436364 240.544345 
L 307.456251 240 
L 310.945455 238.137705 
L 313.75156 236.64 
L 315.454545 235.731064 
L 319.753528 233.436565 
" clip-path="url(#p85e44df840)" style="fill: none; stroke: #000000; stroke-width: 1.5"/>
    <path d="M 337.673619 95.763206 
L 337.286487 98.88 
L 336.869146 102.24 
L 336.451806 105.6 
L 336.034465 108.96 
L 335.667405 112.32 
L 335.33088 115.68 
L 335.084176 119.04 
L 335.025722 122.4 
L 334.967268 125.76 
L 334.909308 129.091595 
M 334.674503 142.588405 
L 334.616543 145.92 
L 334.558089 149.28 
L 334.499635 152.64 
L 334.441181 156 
L 334.382726 159.36 
L 334.324272 162.72 
L 334.265818 166.08 
L 334.2085 169.44 
L 334.167361 172.8 
L 334.132282 176.16 
L 334.099374 179.52 
L 334.065896 182.88 
L 334.104557 186.24 
L 334.59353 189.6 
L 335.097396 192.96 
L 335.601262 196.32 
L 336.108305 199.68 
L 338 200.38408 
L 339.470551 199.68 
L 342.509091 198.463946 
L 346.612316 196.32 
L 347.018182 196.137831 
L 351.527273 193.559382 
L 352.566717 192.96 
L 356.036364 190.959271 
L 358.393601 189.6 
L 360.545455 188.35916 
L 364.220485 186.24 
L 365.054545 185.759049 
L 369.563636 183.193373 
L 370.147833 182.88 
L 374.072727 180.747519 
L 376.372611 179.52 
L 378.581818 178.340878 
L 382.667919 176.16 
L 383.090909 175.934237 
L 387.6 173.527597 
L 388.963228 172.8 
L 392.109091 171.120956 
L 395.258536 169.44 
L 396.618182 168.714315 
L 400.050443 166.882412 
" clip-path="url(#p85e44df840)" style="fill: none; stroke: #000000; stroke-width: 1.5"/>
    <path d="M 432.213015 51.84 
L 432.206154 55.2 
L 432.199446 58.485022 
M 432.173246 72.074983 
L 432.16758 75.36 
L 432.161807 78.72 
L 432.156058 82.08 
L 432.155779 85.44 
L 432.157932 88.8 
L 432.160085 92.16 
L 432.162238 95.52 
L 432.164392 98.88 
L 432.166545 102.24 
L 432.168698 105.6 
L 432.170852 108.96 
L 432.173005 112.32 
L 432.175158 115.68 
L 432.287832 119.04 
L 432.690909 121.481329 
L 432.842587 122.4 
L 437.2 123.304857 
L 438.910139 122.4 
L 441.709091 120.952373 
L 445.290475 119.04 
L 446.218182 118.527441 
L 450.727273 116.137411 
L 451.584279 115.68 
L 455.236364 113.73077 
L 457.879587 112.32 
L 459.745455 111.324129 
L 464.174896 108.96 
L 464.254545 108.917489 
L 468.763636 106.510848 
" clip-path="url(#p85e44df840)" style="fill: none; stroke: #000000; stroke-width: 1.5"/>
    <path clip-path="url(#p85e44df840)" style="fill: none; stroke: #000000; stroke-width: 1.5"/>
    <path clip-path="url(#p85e44df840)" style="fill: none; stroke: #000000; stroke-width: 1.5"/>
    <path clip-path="url(#p85e44df840)" style="fill: none; stroke: #000000; stroke-width: 1.5"/>
   </g>
   <g id="patch_3">
    <path d="M 90 384.48 
L 90 51.84 
" style="fill: none; stroke: #000000; stroke-width: 0.8; stroke-linejoin: miter; stroke-linecap: square"/>
   </g>
   <g id="patch_4">
    <path d="M 536.4 384.48 
L 536.4 51.84 
" style="fill: none; stroke: #000000; stroke-width: 0.8; stroke-linejoin: miter; stroke-linecap: square"/>
   </g>
   <g id="patch_5">
    <path d="M 90 384.48 
L 536.4 384.48 
" style="fill: none; stroke: #000000; stroke-width: 0.8; stroke-linejoin: miter; stroke-linecap: square"/>
   </g>
   <g id="patch_6">
    <path d="M 90 51.84 
L 536.4 51.84 
" style="fill: none; stroke: #000000; stroke-width: 0.8; stroke-linejoin: miter; stroke-linecap: square"/>
   </g>
   <g id="text_14">
    <g clip-path="url(#p85e44df840)">
     <!-- 1 -->
     <g transform="translate(117.681693 371.223197) rotate(-270.092248) scale(0.1 -0.1)">
      <use xlink:href="#DejaVuSans-31"/>
     </g>
    </g>
   </g>
   <g id="text_15">
    <g clip-path="url(#p85e44df840)">
     <!-- 2 -->
     <g transform="translate(155.605156 310.752517) rotate(-270.285032) scale(0.1 -0.1)">
      <use xlink:href="#DejaVuSans-32"/>
     </g>
    </g>
   </g>
   <g id="text_16">
    <g clip-path="url(#p85e44df840)">
     <!-- 3 -->
     <g transform="translate(207.250597 273.430417) rotate(-89.809294) scale(0.1 -0.1)">
      <use xlink:href="#DejaVuSans-33"/>
     </g>
    </g>
   </g>
   <g id="text_17">
    <g clip-path="url(#p85e44df840)">
     <!-- 4 -->
     <g transform="translate(259.081501 216.662189) rotate(-270.071352) scale(0.1 -0.1)">
      <use xlink:href="#DejaVuSans-34"/>
     </g>
    </g>
   </g>
   <g id="text_18">
    <g clip-path="url(#p85e44df840)">
     <!-- 5 -->
     <g transform="translate(337.481464 139.08049) rotate(-88.754224) scale(0.1 -0.1)">
      <use xlink:href="#DejaVuSans-35"/>
     </g>
    </g>
   </g>
   <g id="text_19">
    <g clip-path="url(#p85e44df840)">
     <!-- 6 -->
     <g transform="translate(434.937104 68.468035) rotate(-89.858919) scale(0.1 -0.1)">
      <defs>
       <path id="DejaVuSans-36" d="M 2113 2584 
Q 1688 2584 1439 2293 
Q 1191 2003 1191 1497 
Q 1191 994 1439 701 
Q 1688 409 2113 409 
Q 2538 409 2786 701 
Q 3034 994 3034 1497 
Q 3034 2003 2786 2293 
Q 2538 2584 2113 2584 
z
M 3366 4563 
L 3366 3988 
Q 3128 4100 2886 4159 
Q 2644 4219 2406 4219 
Q 1781 4219 1451 3797 
Q 1122 3375 1075 2522 
Q 1259 2794 1537 2939 
Q 1816 3084 2150 3084 
Q 2853 3084 3261 2657 
Q 3669 2231 3669 1497 
Q 3669 778 3244 343 
Q 2819 -91 2113 -91 
Q 1303 -91 875 529 
Q 447 1150 447 2328 
Q 447 3434 972 4092 
Q 1497 4750 2381 4750 
Q 2619 4750 2861 4703 
Q 3103 4656 3366 4563 
z
" transform="scale(0.015625)"/>
      </defs>
      <use xlink:href="#DejaVuSans-36"/>
     </g>
    </g>
   </g>
  </g>
  <g id="axes_2">
   <g id="patch_7">
    <path d="M 564.3 384.48 
L 580.932 384.48 
L 580.932 51.84 
L 564.3 51.84 
z
" style="fill: #ffffff"/>
   </g>
   <g id="QuadMesh_1">
    <path d="M 564.3 384.48 
L 580.932 384.48 
L 580.932 347.52 
L 564.3 347.52 
L 564.3 384.48 
" clip-path="url(#p9b93dcb808)" style="fill: #481668"/>
    <path d="M 564.3 347.52 
L 580.932 347.52 
L 580.932 310.56 
L 564.3 310.56 
L 564.3 347.52 
" clip-path="url(#p9b93dcb808)" style="fill: #443983"/>
    <path d="M 564.3 310.56 
L 580.932 310.56 
L 580.932 273.6 
L 564.3 273.6 
L 564.3 310.56 
" clip-path="url(#p9b93dcb808)" style="fill: #375a8c"/>
    <path d="M 564.3 273.6 
L 580.932 273.6 
L 580.932 236.64 
L 564.3 236.64 
L 564.3 273.6 
" clip-path="url(#p9b93dcb808)" style="fill: #2b758e"/>
    <path d="M 564.3 236.64 
L 580.932 236.64 
L 580.932 199.68 
L 564.3 199.68 
L 564.3 236.64 
" clip-path="url(#p9b93dcb808)" style="fill: #21918c"/>
    <path d="M 564.3 199.68 
L 580.932 199.68 
L 580.932 162.72 
L 564.3 162.72 
L 564.3 199.68 
" clip-path="url(#p9b93dcb808)" style="fill: #25ab82"/>
    <path d="M 564.3 162.72 
L 580.932 162.72 
L 580.932 125.76 
L 564.3 125.76 
L 564.3 162.72 
" clip-path="url(#p9b93dcb808)" style="fill: #4ec36b"/>
    <path d="M 564.3 125.76 
L 580.932 125.76 
L 580.932 88.8 
L 564.3 88.8 
L 564.3 125.76 
" clip-path="url(#p9b93dcb808)" style="fill: #90d743"/>
    <path d="M 564.3 88.8 
L 580.932 88.8 
L 580.932 51.84 
L 564.3 51.84 
L 564.3 88.8 
" clip-path="url(#p9b93dcb808)" style="fill: #dae319"/>
   </g>
   <g id="matplotlib.axis_3"/>
   <g id="matplotlib.axis_4">
    <g id="ytick_7">
     <g id="line2d_23">
      <defs>
       <path id="m1dad3c34be" d="M 0 0 
L 3.5 0 
" style="stroke: #000000; stroke-width: 0.8"/>
      </defs>
      <g>
       <use xlink:href="#m1dad3c34be" x="580.932" y="384.48" style="stroke: #000000; stroke-width: 0.8"/>
      </g>
     </g>
     <g id="text_20">
      <!-- 0 -->
      <g transform="translate(587.932 388.279219) scale(0.1 -0.1)">
       <use xlink:href="#DejaVuSans-30"/>
      </g>
     </g>
    </g>
    <g id="ytick_8">
     <g id="line2d_24">
      <g>
       <use xlink:href="#m1dad3c34be" x="580.932" y="347.52" style="stroke: #000000; stroke-width: 0.8"/>
      </g>
     </g>
     <g id="text_21">
      <!-- 1 -->
      <g transform="translate(587.932 351.319219) scale(0.1 -0.1)">
       <use xlink:href="#DejaVuSans-31"/>
      </g>
     </g>
    </g>
    <g id="ytick_9">
     <g id="line2d_25">
      <g>
       <use xlink:href="#m1dad3c34be" x="580.932" y="310.56" style="stroke: #000000; stroke-width: 0.8"/>
      </g>
     </g>
     <g id="text_22">
      <!-- 2 -->
      <g transform="translate(587.932 314.359219) scale(0.1 -0.1)">
       <use xlink:href="#DejaVuSans-32"/>
      </g>
     </g>
    </g>
    <g id="ytick_10">
     <g id="line2d_26">
      <g>
       <use xlink:href="#m1dad3c34be" x="580.932" y="273.6" style="stroke: #000000; stroke-width: 0.8"/>
      </g>
     </g>
     <g id="text_23">
      <!-- 3 -->
      <g transform="translate(587.932 277.399219) scale(0.1 -0.1)">
       <use xlink:href="#DejaVuSans-33"/>
      </g>
     </g>
    </g>
    <g id="ytick_11">
     <g id="line2d_27">
      <g>
       <use xlink:href="#m1dad3c34be" x="580.932" y="236.64" style="stroke: #000000; stroke-width: 0.8"/>
      </g>
     </g>
     <g id="text_24">
      <!-- 4 -->
      <g transform="translate(587.932 240.439219) scale(0.1 -0.1)">
       <use xlink:href="#DejaVuSans-34"/>
      </g>
     </g>
    </g>
    <g id="ytick_12">
     <g id="line2d_28">
      <g>
       <use xlink:href="#m1dad3c34be" x="580.932" y="199.68" style="stroke: #000000; stroke-width: 0.8"/>
      </g>
     </g>
     <g id="text_25">
      <!-- 5 -->
      <g transform="translate(587.932 203.479219) scale(0.1 -0.1)">
       <use xlink:href="#DejaVuSans-35"/>
      </g>
     </g>
    </g>
    <g id="ytick_13">
     <g id="line2d_29">
      <g>
       <use xlink:href="#m1dad3c34be" x="580.932" y="162.72" style="stroke: #000000; stroke-width: 0.8"/>
      </g>
     </g>
     <g id="text_26">
      <!-- 6 -->
      <g transform="translate(587.932 166.519219) scale(0.1 -0.1)">
       <use xlink:href="#DejaVuSans-36"/>
      </g>
     </g>
    </g>
    <g id="ytick_14">
     <g id="line2d_30">
      <g>
       <use xlink:href="#m1dad3c34be" x="580.932" y="125.76" style="stroke: #000000; stroke-width: 0.8"/>
      </g>
     </g>
     <g id="text_27">
      <!-- 7 -->
      <g transform="translate(587.932 129.559219) scale(0.1 -0.1)">
       <use xlink:href="#DejaVuSans-37"/>
      </g>
     </g>
    </g>
    <g id="ytick_15">
     <g id="line2d_31">
      <g>
       <use xlink:href="#m1dad3c34be" x="580.932" y="88.8" style="stroke: #000000; stroke-width: 0.8"/>
      </g>
     </g>
     <g id="text_28">
      <!-- 8 -->
      <g transform="translate(587.932 92.599219) scale(0.1 -0.1)">
       <use xlink:href="#DejaVuSans-38"/>
      </g>
     </g>
    </g>
    <g id="ytick_16">
     <g id="line2d_32">
      <g>
       <use xlink:href="#m1dad3c34be" x="580.932" y="51.84" style="stroke: #000000; stroke-width: 0.8"/>
      </g>
     </g>
     <g id="text_29">
      <!-- 9 -->
      <g transform="translate(587.932 55.639219) scale(0.1 -0.1)">
       <use xlink:href="#DejaVuSans-39"/>
      </g>
     </g>
    </g>
    <g id="text_30">
     <!-- $\eta_{ORC}$ [%] -->
     <g transform="translate(610.4545 252.08) rotate(-90) scale(0.16 -0.16)">
      <defs>
       <path id="DejaVuSans-Oblique-3b7" d="M 3703 2113 
L 3034 -1331 
L 2459 -1331 
L 3125 2094 
Q 3222 2591 3075 2838 
Q 2931 3084 2544 3084 
Q 2078 3084 1750 2788 
Q 1425 2491 1325 1978 
L 941 0 
L 363 0 
L 1044 3500 
L 1622 3500 
L 1516 2956 
Q 1781 3272 2094 3428 
Q 2403 3584 2769 3584 
Q 3372 3584 3609 3213 
Q 3844 2838 3703 2113 
z
" transform="scale(0.015625)"/>
       <path id="DejaVuSans-Oblique-4f" d="M 2919 4238 
Q 2400 4238 2003 3986 
Q 1606 3734 1313 3219 
Q 1125 2891 1026 2522 
Q 928 2153 928 1778 
Q 928 1128 1239 775 
Q 1550 422 2119 422 
Q 2631 422 3032 676 
Q 3434 931 3719 1434 
Q 3909 1772 4009 2142 
Q 4109 2513 4109 2881 
Q 4109 3528 3796 3883 
Q 3484 4238 2919 4238 
z
M 2100 -91 
Q 1241 -91 748 418 
Q 256 928 256 1813 
Q 256 2319 448 2847 
Q 641 3375 978 3788 
Q 1375 4272 1862 4511 
Q 2350 4750 2938 4750 
Q 3794 4750 4287 4245 
Q 4781 3741 4781 2869 
Q 4781 2331 4593 1812 
Q 4406 1294 4056 872 
Q 3656 384 3173 146 
Q 2691 -91 2100 -91 
z
" transform="scale(0.015625)"/>
       <path id="DejaVuSans-Oblique-52" d="M 1613 4147 
L 1294 2491 
L 2106 2491 
Q 2584 2491 2879 2755 
Q 3175 3019 3175 3444 
Q 3175 3784 2976 3965 
Q 2778 4147 2406 4147 
L 1613 4147 
z
M 2772 2241 
Q 2972 2194 3105 2009 
Q 3238 1825 3413 1275 
L 3809 0 
L 3144 0 
L 2778 1197 
Q 2638 1659 2453 1815 
Q 2269 1972 1888 1972 
L 1191 1972 
L 806 0 
L 172 0 
L 1081 4666 
L 2503 4666 
Q 3150 4666 3495 4373 
Q 3841 4081 3841 3531 
Q 3841 3044 3547 2687 
Q 3253 2331 2772 2241 
z
" transform="scale(0.015625)"/>
       <path id="DejaVuSans-Oblique-43" d="M 4447 4306 
L 4319 3641 
Q 4019 3944 3683 4091 
Q 3347 4238 2956 4238 
Q 2422 4238 2017 3981 
Q 1613 3725 1319 3200 
Q 1131 2863 1032 2486 
Q 934 2109 934 1728 
Q 934 1091 1264 756 
Q 1594 422 2222 422 
Q 2656 422 3056 561 
Q 3456 700 3834 978 
L 3688 231 
Q 3316 72 2936 -9 
Q 2556 -91 2175 -91 
Q 1278 -91 773 396 
Q 269 884 269 1753 
Q 269 2309 461 2846 
Q 653 3384 1013 3828 
Q 1394 4300 1883 4525 
Q 2372 4750 3022 4750 
Q 3422 4750 3780 4639 
Q 4138 4528 4447 4306 
z
" transform="scale(0.015625)"/>
       <path id="DejaVuSans-25" d="M 4653 2053 
Q 4381 2053 4226 1822 
Q 4072 1591 4072 1178 
Q 4072 772 4226 539 
Q 4381 306 4653 306 
Q 4919 306 5073 539 
Q 5228 772 5228 1178 
Q 5228 1588 5073 1820 
Q 4919 2053 4653 2053 
z
M 4653 2450 
Q 5147 2450 5437 2106 
Q 5728 1763 5728 1178 
Q 5728 594 5436 251 
Q 5144 -91 4653 -91 
Q 4153 -91 3862 251 
Q 3572 594 3572 1178 
Q 3572 1766 3864 2108 
Q 4156 2450 4653 2450 
z
M 1428 4353 
Q 1159 4353 1004 4120 
Q 850 3888 850 3481 
Q 850 3069 1003 2837 
Q 1156 2606 1428 2606 
Q 1700 2606 1854 2837 
Q 2009 3069 2009 3481 
Q 2009 3884 1853 4118 
Q 1697 4353 1428 4353 
z
M 4250 4750 
L 4750 4750 
L 1831 -91 
L 1331 -91 
L 4250 4750 
z
M 1428 4750 
Q 1922 4750 2215 4408 
Q 2509 4066 2509 3481 
Q 2509 2891 2217 2550 
Q 1925 2209 1428 2209 
Q 931 2209 642 2551 
Q 353 2894 353 3481 
Q 353 4063 643 4406 
Q 934 4750 1428 4750 
z
" transform="scale(0.015625)"/>
      </defs>
      <use xlink:href="#DejaVuSans-Oblique-3b7" transform="translate(0 0.015625)"/>
      <use xlink:href="#DejaVuSans-Oblique-4f" transform="translate(63.378906 -16.390625) scale(0.7)"/>
      <use xlink:href="#DejaVuSans-Oblique-52" transform="translate(118.476562 -16.390625) scale(0.7)"/>
      <use xlink:href="#DejaVuSans-Oblique-43" transform="translate(167.114258 -16.390625) scale(0.7)"/>
      <use xlink:href="#DejaVuSans-20" transform="translate(218.725586 0.015625)"/>
      <use xlink:href="#DejaVuSans-5b" transform="translate(250.512695 0.015625)"/>
      <use xlink:href="#DejaVuSans-25" transform="translate(289.526367 0.015625)"/>
      <use xlink:href="#DejaVuSans-5d" transform="translate(384.545898 0.015625)"/>
     </g>
    </g>
   </g>
   <g id="LineCollection_1"/>
   <g id="patch_8">
    <path d="M 564.3 384.48 
L 572.616 384.48 
L 580.932 384.48 
L 580.932 51.84 
L 572.616 51.84 
L 564.3 51.84 
L 564.3 384.48 
z
" style="fill: none; stroke: #000000; stroke-width: 0.8; stroke-linejoin: miter; stroke-linecap: square"/>
   </g>
  </g>
 </g>
 <defs>
  <clipPath id="p85e44df840">
   <rect x="90" y="51.84" width="446.4" height="332.64"/>
  </clipPath>
  <clipPath id="p9b93dcb808">
   <rect x="564.3" y="51.84" width="16.632" height="332.64"/>
  </clipPath>
 </defs>
</svg>
