<?xml version="1.0" encoding="utf-8" standalone="no"?>
<!DOCTYPE svg PUBLIC "-//W3C//DTD SVG 1.1//EN"
  "http://www.w3.org/Graphics/SVG/1.1/DTD/svg11.dtd">
<svg xmlns:xlink="http://www.w3.org/1999/xlink" width="720pt" height="432pt" viewBox="0 0 720 432" xmlns="http://www.w3.org/2000/svg" version="1.1">
 <metadata>
  <rdf:RDF xmlns:dc="http://purl.org/dc/elements/1.1/" xmlns:cc="http://creativecommons.org/ns#" xmlns:rdf="http://www.w3.org/1999/02/22-rdf-syntax-ns#">
   <cc:Work>
    <dc:type rdf:resource="http://purl.org/dc/dcmitype/StillImage"/>
    <dc:date>2024-06-12T10:20:24.726651</dc:date>
    <dc:format>image/svg+xml</dc:format>
    <dc:creator>
     <cc:Agent>
      <dc:title>Matplotlib v3.8.3, https://matplotlib.org/</dc:title>
     </cc:Agent>
    </dc:creator>
   </cc:Work>
  </rdf:RDF>
 </metadata>
 <defs>
  <style type="text/css">*{stroke-linejoin: round; stroke-linecap: butt}</style>
 </defs>
 <g id="figure_1">
  <g id="patch_1">
   <path d="M 0 432 
L 720 432 
L 720 0 
L 0 0 
z
" style="fill: #ffffff"/>
  </g>
  <g id="axes_1">
   <g id="patch_2">
    <path d="M 90 384.48 
L 648 384.48 
L 648 51.84 
L 90 51.84 
z
" style="fill: #ffffff"/>
   </g>
   <g id="QuadContourSet_1">
    <path d="M 95.636364 384.48 
L 100.848705 384.48 
L 100.975801 381.12 
L 101.102897 377.76 
L 101.229993 374.4 
L 101.272727 373.270242 
L 101.357089 371.04 
L 101.484185 367.68 
L 101.611281 364.32 
L 101.739368 360.96 
L 101.872618 357.6 
L 102.008534 354.24 
L 102.187276 350.88 
L 102.373874 347.52 
L 102.560472 344.16 
L 102.74707 340.8 
L 102.933668 337.44 
L 103.120265 334.08 
L 103.306851 330.72 
L 103.493319 327.36 
L 103.679765 324 
L 103.86619 320.64 
L 104.052593 317.28 
L 104.238975 313.92 
L 104.425258 310.56 
L 104.611469 307.2 
L 104.79768 303.84 
L 104.98389 300.48 
L 105.170101 297.12 
L 105.356312 293.76 
L 105.542523 290.4 
L 105.728734 287.04 
L 105.914945 283.68 
L 106.101155 280.32 
L 106.287366 276.96 
L 106.473577 273.6 
L 106.659788 270.24 
L 106.845999 266.88 
L 106.909091 265.741564 
L 107.026845 263.52 
L 107.203179 260.16 
L 107.377425 256.8 
L 107.542882 253.44 
L 107.697775 250.08 
L 107.851847 246.72 
L 108.005104 243.36 
L 108.157551 240 
L 108.309197 236.64 
L 108.460046 233.28 
L 108.610105 229.92 
L 108.75938 226.56 
L 108.907878 223.2 
L 109.055604 219.84 
L 109.202565 216.48 
L 109.348766 213.12 
L 109.51947 209.76 
L 109.702079 206.4 
L 109.890533 203.04 
L 110.085119 199.68 
L 110.286141 196.32 
L 110.493923 192.96 
L 110.708812 189.6 
L 110.931179 186.24 
L 111.161422 182.88 
L 111.399966 179.52 
L 111.647269 176.16 
L 111.903822 172.8 
L 112.170153 169.44 
L 112.446833 166.08 
L 112.545455 164.9131 
L 112.830265 162.72 
L 113.282354 159.36 
L 113.787325 156 
L 114.312384 152.64 
L 114.852005 149.28 
L 115.4068 145.92 
L 115.97742 142.56 
L 116.566732 139.2 
L 117.20182 135.84 
L 117.866058 132.48 
L 118.181818 130.922183 
L 118.564665 129.12 
L 119.294023 125.76 
L 120.044402 122.4 
L 120.850967 119.04 
L 121.675523 115.68 
L 122.518912 112.32 
L 123.372205 108.96 
L 123.818182 107.215389 
L 124.232075 105.6 
L 125.109695 102.24 
L 125.998563 98.88 
L 126.88743 95.52 
L 127.780234 92.16 
L 128.679596 88.8 
L 129.454545 85.904803 
L 129.578958 85.44 
L 130.47832 82.08 
L 129.454545 82.08 
L 123.818182 85.44 
L 118.181818 88.8 
L 112.545455 92.16 
L 106.909091 95.52 
L 106.909091 98.88 
L 106.909091 102.24 
L 106.909091 105.6 
L 106.909091 108.96 
L 106.909091 112.32 
L 106.909091 115.68 
L 106.909091 119.04 
L 106.909091 122.4 
L 106.909091 125.76 
L 106.909091 129.12 
L 106.909091 132.48 
L 106.909091 135.84 
L 106.909091 139.2 
L 106.909091 142.56 
L 106.909091 145.92 
L 106.909091 149.28 
L 106.909091 152.64 
L 106.909091 156 
L 106.909091 159.36 
L 106.909091 162.72 
L 106.909091 166.08 
L 106.909091 169.44 
L 101.272727 172.8 
L 101.272727 176.16 
L 101.272727 179.52 
L 101.272727 182.88 
L 101.272727 186.24 
L 101.272727 189.6 
L 101.272727 192.96 
L 101.272727 196.32 
L 101.272727 199.68 
L 101.272727 203.04 
L 101.272727 206.4 
L 101.272727 209.76 
L 101.272727 213.12 
L 101.272727 216.48 
L 101.272727 219.84 
L 101.272727 223.2 
L 101.272727 226.56 
L 101.272727 229.92 
L 101.272727 233.28 
L 101.272727 236.64 
L 101.272727 240 
L 101.272727 243.36 
L 101.272727 246.72 
L 101.272727 250.08 
L 101.272727 253.44 
L 101.272727 256.8 
L 101.272727 260.16 
L 101.272727 263.52 
L 101.272727 266.88 
L 101.272727 270.24 
L 101.272727 273.6 
L 101.272727 276.96 
L 95.636364 280.32 
L 95.636364 283.68 
L 95.636364 287.04 
L 95.636364 290.4 
L 95.636364 293.76 
L 95.636364 297.12 
L 95.636364 300.48 
L 95.636364 303.84 
L 95.636364 307.2 
L 95.636364 310.56 
L 95.636364 313.92 
L 95.636364 317.28 
L 95.636364 320.64 
L 95.636364 324 
L 95.636364 327.36 
L 95.636364 330.72 
L 95.636364 334.08 
L 95.636364 337.44 
L 95.636364 340.8 
L 95.636364 344.16 
L 95.636364 347.52 
L 95.636364 350.88 
L 95.636364 354.24 
L 95.636364 357.6 
L 95.636364 360.96 
L 95.636364 364.32 
L 95.636364 367.68 
L 95.636364 371.04 
L 95.636364 374.4 
L 95.636364 377.76 
L 95.636364 381.12 
L 90 384.48 
z
" clip-path="url(#p03795e4b5b)" style="fill: #481668"/>
    <path d="M 101.272727 384.48 
L 106.909091 384.48 
L 112.545455 384.48 
L 118.181818 384.48 
L 122.144665 382.117632 
L 122.185459 381.12 
L 122.41869 377.76 
L 122.670754 374.4 
L 122.929113 371.04 
L 123.193522 367.68 
L 123.464197 364.32 
L 123.741411 360.96 
L 123.818182 360.043629 
L 124.099279 357.6 
L 124.48825 354.24 
L 124.876184 350.88 
L 125.264119 347.52 
L 125.652053 344.16 
L 126.039988 340.8 
L 126.427922 337.44 
L 126.815857 334.08 
L 127.203791 330.72 
L 127.591726 327.36 
L 127.97966 324 
L 128.367595 320.64 
L 128.755529 317.28 
L 129.143464 313.92 
L 129.454545 311.331405 
L 129.559008 310.56 
L 130.043271 307.2 
L 130.527534 303.84 
L 131.011797 300.48 
L 131.49606 297.12 
L 131.980323 293.76 
L 132.464586 290.4 
L 132.948849 287.04 
L 133.433112 283.68 
L 133.917375 280.32 
L 134.401638 276.96 
L 134.885901 273.6 
L 135.090909 272.177579 
L 135.392854 270.24 
L 135.928267 266.88 
L 136.47921 263.52 
L 137.04637 260.16 
L 137.652167 256.8 
L 138.286775 253.44 
L 138.921382 250.08 
L 139.55599 246.72 
L 140.190597 243.36 
L 140.727273 240.518514 
L 140.82527 240 
L 141.465162 236.64 
L 142.113595 233.28 
L 142.770743 229.92 
L 143.436782 226.56 
L 144.111893 223.2 
L 144.797316 219.84 
L 145.496659 216.48 
L 146.196003 213.12 
L 146.363636 212.314602 
L 146.895346 209.76 
L 147.594689 206.4 
L 148.294032 203.04 
L 148.993375 199.68 
L 149.692719 196.32 
L 150.442277 192.96 
L 151.217782 189.6 
L 152 186.304189 
L 152.015628 186.24 
L 152.833684 182.88 
L 153.651739 179.52 
L 154.469795 176.16 
L 155.287851 172.8 
L 156.105906 169.44 
L 156.923962 166.08 
L 157.636364 163.153952 
L 157.742709 162.72 
L 158.572988 159.36 
L 159.431909 156 
L 160.290829 152.64 
L 161.14975 149.28 
L 162.00867 145.92 
L 162.867591 142.56 
L 163.272727 140.975153 
L 163.726512 139.2 
L 164.585432 135.84 
L 165.444353 132.48 
L 166.306554 129.12 
L 167.186643 125.76 
L 168.075511 122.4 
L 168.909091 119.248992 
L 168.964379 119.04 
L 169.853246 115.68 
L 170.742114 112.32 
L 171.630982 108.96 
L 172.519849 105.6 
L 173.408717 102.24 
L 174.297585 98.88 
L 174.545455 97.94303 
L 175.186453 95.52 
L 176.079256 92.16 
L 176.978618 88.8 
L 177.87798 85.44 
L 178.777342 82.08 
L 179.676704 78.72 
L 180.181818 76.832905 
L 180.576067 75.36 
L 181.475429 72 
L 182.374791 68.64 
L 183.274153 65.28 
L 184.173515 61.92 
L 185.072877 58.56 
L 180.181818 58.56 
L 174.545455 61.92 
L 168.909091 65.28 
L 163.272727 68.64 
L 157.636364 72 
L 152 72 
L 146.363636 75.36 
L 140.727273 78.72 
L 135.090909 82.08 
L 130.47832 82.08 
L 129.578958 85.44 
L 129.454545 85.904803 
L 128.679596 88.8 
L 127.780234 92.16 
L 126.88743 95.52 
L 125.998563 98.88 
L 125.109695 102.24 
L 124.232075 105.6 
L 123.818182 107.215389 
L 123.372205 108.96 
L 122.518912 112.32 
L 121.675523 115.68 
L 120.850967 119.04 
L 120.044402 122.4 
L 119.294023 125.76 
L 118.564665 129.12 
L 118.181818 130.922183 
L 117.866058 132.48 
L 117.20182 135.84 
L 116.566732 139.2 
L 115.97742 142.56 
L 115.4068 145.92 
L 114.852005 149.28 
L 114.312384 152.64 
L 113.787325 156 
L 113.282354 159.36 
L 112.830265 162.72 
L 112.545455 164.9131 
L 112.446833 166.08 
L 112.170153 169.44 
L 111.903822 172.8 
L 111.647269 176.16 
L 111.399966 179.52 
L 111.161422 182.88 
L 110.931179 186.24 
L 110.708812 189.6 
L 110.493923 192.96 
L 110.286141 196.32 
L 110.085119 199.68 
L 109.890533 203.04 
L 109.702079 206.4 
L 109.51947 209.76 
L 109.348766 213.12 
L 109.202565 216.48 
L 109.055604 219.84 
L 108.907878 223.2 
L 108.75938 226.56 
L 108.610105 229.92 
L 108.460046 233.28 
L 108.309197 236.64 
L 108.157551 240 
L 108.005104 243.36 
L 107.851847 246.72 
L 107.697775 250.08 
L 107.542882 253.44 
L 107.377425 256.8 
L 107.203179 260.16 
L 107.026845 263.52 
L 106.909091 265.741564 
L 106.845999 266.88 
L 106.659788 270.24 
L 106.473577 273.6 
L 106.287366 276.96 
L 106.101155 280.32 
L 105.914945 283.68 
L 105.728734 287.04 
L 105.542523 290.4 
L 105.356312 293.76 
L 105.170101 297.12 
L 104.98389 300.48 
L 104.79768 303.84 
L 104.611469 307.2 
L 104.425258 310.56 
L 104.238975 313.92 
L 104.052593 317.28 
L 103.86619 320.64 
L 103.679765 324 
L 103.493319 327.36 
L 103.306851 330.72 
L 103.120265 334.08 
L 102.933668 337.44 
L 102.74707 340.8 
L 102.560472 344.16 
L 102.373874 347.52 
L 102.187276 350.88 
L 102.008534 354.24 
L 101.872618 357.6 
L 101.739368 360.96 
L 101.611281 364.32 
L 101.484185 367.68 
L 101.357089 371.04 
L 101.272727 373.270242 
L 101.229993 374.4 
L 101.102897 377.76 
L 100.975801 381.12 
L 100.848705 384.48 
z
" clip-path="url(#p03795e4b5b)" style="fill: #443983"/>
    <path d="M 122.144665 382.117632 
L 123.818182 381.12 
L 129.454545 377.76 
L 135.090909 374.4 
L 140.727273 371.04 
L 146.363636 367.68 
L 152 364.32 
L 157.636364 360.96 
L 163.272727 357.6 
L 168.909091 354.24 
L 174.545455 350.88 
L 180.181818 347.52 
L 185.818182 344.16 
L 191.454545 340.8 
L 197.090909 337.44 
L 197.090909 336.634488 
L 195.002092 337.44 
L 191.454545 338.768596 
L 186.268432 340.8 
L 185.818182 340.97142 
L 180.181818 343.343814 
L 178.293735 344.16 
L 174.545455 345.765576 
L 170.54379 347.52 
L 168.909091 348.22642 
L 163.571317 350.88 
L 163.272727 351.013846 
L 157.636364 353.900336 
L 154.665132 354.24 
L 152 355.257524 
L 151.422465 354.24 
L 151.911017 350.88 
L 152 350.268026 
L 152.39957 347.52 
L 152.888123 344.16 
L 153.439885 340.8 
L 154.029572 337.44 
L 154.619259 334.08 
L 155.208946 330.72 
L 155.801936 327.36 
L 156.438357 324 
L 157.088314 320.64 
L 157.636364 317.861295 
L 157.75403 317.28 
L 158.439297 313.92 
L 159.133433 310.56 
L 159.836609 307.2 
L 160.549005 303.84 
L 161.270803 300.48 
L 162.00219 297.12 
L 162.743358 293.76 
L 163.272727 291.387363 
L 163.506344 290.4 
L 164.299511 287.04 
L 165.089859 283.68 
L 165.877402 280.32 
L 166.662156 276.96 
L 167.444136 273.6 
L 168.223356 270.24 
L 168.909091 267.273265 
L 169.013919 266.88 
L 169.909559 263.52 
L 170.805199 260.16 
L 171.700838 256.8 
L 172.596478 253.44 
L 173.492765 250.08 
L 174.388308 246.72 
L 174.545455 246.128396 
L 175.215923 243.36 
L 176.020874 240 
L 176.816341 236.64 
L 177.602491 233.28 
L 178.379485 229.92 
L 179.147484 226.56 
L 179.906642 223.2 
L 180.181818 221.972456 
L 180.757553 219.84 
L 181.659866 216.48 
L 182.556303 213.12 
L 183.446921 209.76 
L 184.331779 206.4 
L 185.21093 203.04 
L 185.818182 200.706442 
L 186.130189 199.68 
L 187.151528 196.32 
L 188.172866 192.96 
L 189.194205 189.6 
L 190.215543 186.24 
L 191.236882 182.88 
L 191.454545 182.16393 
L 192.185738 179.52 
L 193.09945 176.16 
L 193.996174 172.8 
L 194.898248 169.44 
L 195.805721 166.08 
L 196.718641 162.72 
L 197.090909 161.355632 
L 197.789204 159.36 
L 198.964908 156 
L 200.140612 152.64 
L 201.316315 149.28 
L 202.492019 145.92 
L 202.727273 145.247677 
L 203.732763 142.56 
L 205.002883 139.2 
L 206.287806 135.84 
L 207.588128 132.48 
L 208.363636 130.493305 
L 208.899707 129.12 
L 210.211338 125.76 
L 211.541548 122.4 
L 212.887508 119.04 
L 214 116.292531 
L 214.254173 115.68 
L 215.648425 112.32 
L 217.042676 108.96 
L 218.436928 105.6 
L 219.636364 102.709486 
L 219.831254 102.24 
L 221.250245 98.88 
L 222.713124 95.52 
L 224.227671 92.16 
L 225.272727 89.880782 
L 225.768282 88.8 
L 227.308894 85.44 
L 228.849506 82.08 
L 230.390117 78.72 
L 230.909091 77.588144 
L 231.934499 75.36 
L 233.505135 72 
L 235.082789 68.64 
L 236.545455 65.524894 
L 236.660442 65.28 
L 238.238095 61.92 
L 239.815748 58.56 
L 241.393402 55.2 
L 242.181818 53.520873 
L 242.971055 51.84 
L 242.181818 51.84 
L 236.545455 51.84 
L 230.909091 51.84 
L 225.272727 51.84 
L 219.636364 51.84 
L 214 51.84 
L 208.363636 51.84 
L 202.727273 51.84 
L 197.090909 51.84 
L 191.454545 55.2 
L 185.818182 58.56 
L 185.072877 58.56 
L 184.173515 61.92 
L 183.274153 65.28 
L 182.374791 68.64 
L 181.475429 72 
L 180.576067 75.36 
L 180.181818 76.832905 
L 179.676704 78.72 
L 178.777342 82.08 
L 177.87798 85.44 
L 176.978618 88.8 
L 176.079256 92.16 
L 175.186453 95.52 
L 174.545455 97.94303 
L 174.297585 98.88 
L 173.408717 102.24 
L 172.519849 105.6 
L 171.630982 108.96 
L 170.742114 112.32 
L 169.853246 115.68 
L 168.964379 119.04 
L 168.909091 119.248992 
L 168.075511 122.4 
L 167.186643 125.76 
L 166.306554 129.12 
L 165.444353 132.48 
L 164.585432 135.84 
L 163.726512 139.2 
L 163.272727 140.975153 
L 162.867591 142.56 
L 162.00867 145.92 
L 161.14975 149.28 
L 160.290829 152.64 
L 159.431909 156 
L 158.572988 159.36 
L 157.742709 162.72 
L 157.636364 163.153952 
L 156.923962 166.08 
L 156.105906 169.44 
L 155.287851 172.8 
L 154.469795 176.16 
L 153.651739 179.52 
L 152.833684 182.88 
L 152.015628 186.24 
L 152 186.304189 
L 151.217782 189.6 
L 150.442277 192.96 
L 149.692719 196.32 
L 148.993375 199.68 
L 148.294032 203.04 
L 147.594689 206.4 
L 146.895346 209.76 
L 146.363636 212.314602 
L 146.196003 213.12 
L 145.496659 216.48 
L 144.797316 219.84 
L 144.111893 223.2 
L 143.436782 226.56 
L 142.770743 229.92 
L 142.113595 233.28 
L 141.465162 236.64 
L 140.82527 240 
L 140.727273 240.518514 
L 140.190597 243.36 
L 139.55599 246.72 
L 138.921382 250.08 
L 138.286775 253.44 
L 137.652167 256.8 
L 137.04637 260.16 
L 136.47921 263.52 
L 135.928267 266.88 
L 135.392854 270.24 
L 135.090909 272.177579 
L 134.885901 273.6 
L 134.401638 276.96 
L 133.917375 280.32 
L 133.433112 283.68 
L 132.948849 287.04 
L 132.464586 290.4 
L 131.980323 293.76 
L 131.49606 297.12 
L 131.011797 300.48 
L 130.527534 303.84 
L 130.043271 307.2 
L 129.559008 310.56 
L 129.454545 311.331405 
L 129.143464 313.92 
L 128.755529 317.28 
L 128.367595 320.64 
L 127.97966 324 
L 127.591726 327.36 
L 127.203791 330.72 
L 126.815857 334.08 
L 126.427922 337.44 
L 126.039988 340.8 
L 125.652053 344.16 
L 125.264119 347.52 
L 124.876184 350.88 
L 124.48825 354.24 
L 124.099279 357.6 
L 123.818182 360.043629 
L 123.741411 360.96 
L 123.464197 364.32 
L 123.193522 367.68 
L 122.929113 371.04 
L 122.670754 374.4 
L 122.41869 377.76 
L 122.185459 381.12 
z
" clip-path="url(#p03795e4b5b)" style="fill: #375a8c"/>
    <path d="M 152 355.257524 
L 154.665132 354.24 
L 157.636364 353.900336 
L 163.272727 351.013846 
L 163.571317 350.88 
L 168.909091 348.22642 
L 170.54379 347.52 
L 174.545455 345.765576 
L 178.293735 344.16 
L 180.181818 343.343814 
L 185.818182 340.97142 
L 186.268432 340.8 
L 191.454545 338.768596 
L 195.002092 337.44 
L 197.090909 336.634488 
L 197.090909 334.08 
L 202.727273 330.72 
L 208.363636 327.36 
L 214 324 
L 219.636364 320.64 
L 225.272727 317.28 
L 230.909091 313.92 
L 236.545455 310.56 
L 242.181818 307.2 
L 247.818182 303.84 
L 253.454545 300.48 
L 259.090909 297.12 
L 264.727273 293.76 
L 270.363636 290.4 
L 276 287.04 
L 281.636364 283.68 
L 281.799627 283.582674 
L 281.636364 283.641485 
L 281.529442 283.68 
L 276 285.671814 
L 272.2018 287.04 
L 270.363636 287.702143 
L 264.727273 289.813059 
L 263.277281 290.4 
L 259.090909 292.050063 
L 254.918471 293.76 
L 253.454545 294.344579 
L 247.818182 296.701709 
L 246.83658 297.12 
L 242.181818 299.093223 
L 238.934211 300.48 
L 236.545455 301.494758 
L 231.064507 303.84 
L 230.909091 303.906497 
L 225.272727 306.344826 
L 223.311687 307.2 
L 219.636364 308.802742 
L 215.974808 310.56 
L 214 311.442829 
L 209.084036 313.92 
L 208.363636 314.251403 
L 202.727273 317.147298 
L 202.470436 317.28 
L 197.090909 320.046548 
L 195.626751 320.64 
L 191.454545 322.701461 
L 187.540433 320.64 
L 188.460525 317.28 
L 189.380616 313.92 
L 190.300708 310.56 
L 191.220799 307.2 
L 191.454545 306.346403 
L 192.140891 303.84 
L 193.100969 300.48 
L 194.181009 297.12 
L 195.261048 293.76 
L 196.341088 290.4 
L 197.090909 288.067307 
L 197.421127 287.04 
L 198.501167 283.68 
L 199.581206 280.32 
L 200.661245 276.96 
L 201.741285 273.6 
L 202.727273 270.677238 
L 202.881559 270.24 
L 204.077853 266.88 
L 205.274147 263.52 
L 206.470441 260.16 
L 207.666735 256.8 
L 208.363636 254.84263 
L 208.866756 253.44 
L 210.074253 250.08 
L 211.284969 246.72 
L 212.498919 243.36 
L 213.716114 240 
L 214 239.217637 
L 214.994591 236.64 
L 216.291059 233.28 
L 217.587526 229.92 
L 218.883994 226.56 
L 219.636364 224.610117 
L 220.201093 223.2 
L 221.535049 219.84 
L 222.852809 216.48 
L 224.154666 213.12 
L 225.272727 210.201627 
L 225.456098 209.76 
L 226.851381 206.4 
L 228.24768 203.04 
L 229.651782 199.68 
L 230.909091 196.642143 
L 231.043866 196.32 
L 232.449586 192.96 
L 233.855307 189.6 
L 235.261028 186.24 
L 236.545455 183.16992 
L 236.667354 182.88 
L 238.072469 179.52 
L 239.47819 176.16 
L 240.88391 172.8 
L 242.181818 169.697698 
L 242.302522 169.44 
L 243.86517 166.08 
L 245.407387 162.72 
L 246.929568 159.36 
L 247.818182 157.378125 
L 248.442571 156 
L 249.957997 152.64 
L 251.463722 149.28 
L 252.958367 145.92 
L 253.454545 144.804244 
L 254.452565 142.56 
L 255.946762 139.2 
L 257.440959 135.84 
L 258.935157 132.48 
L 259.090909 132.12976 
L 260.20287 129.12 
L 261.475239 125.76 
L 262.78159 122.4 
L 264.123301 119.04 
L 264.727273 117.55661 
L 265.536836 115.68 
L 266.986327 112.32 
L 268.435819 108.96 
L 269.885311 105.6 
L 270.363636 104.491216 
L 271.476301 102.24 
L 273.084158 98.88 
L 274.631911 95.52 
L 276 92.441634 
L 276.142127 92.16 
L 277.86191 88.8 
L 279.748266 85.44 
L 281.636364 82.366285 
L 281.91387 82.08 
L 284.891061 78.72 
L 287.272727 75.585496 
L 287.406972 75.36 
L 289.40728 72 
L 291.407588 68.64 
L 292.909091 66.118981 
L 293.425 65.28 
L 295.620535 61.92 
L 297.81607 58.56 
L 298.545455 57.443765 
L 300.011605 55.2 
L 302.207139 51.84 
L 298.545455 51.84 
L 292.909091 51.84 
L 287.272727 51.84 
L 281.636364 51.84 
L 276 51.84 
L 270.363636 51.84 
L 264.727273 51.84 
L 259.090909 51.84 
L 253.454545 51.84 
L 247.818182 51.84 
L 242.971055 51.84 
L 242.181818 53.520873 
L 241.393402 55.2 
L 239.815748 58.56 
L 238.238095 61.92 
L 236.660442 65.28 
L 236.545455 65.524894 
L 235.082789 68.64 
L 233.505135 72 
L 231.934499 75.36 
L 230.909091 77.588144 
L 230.390117 78.72 
L 228.849506 82.08 
L 227.308894 85.44 
L 225.768282 88.8 
L 225.272727 89.880782 
L 224.227671 92.16 
L 222.713124 95.52 
L 221.250245 98.88 
L 219.831254 102.24 
L 219.636364 102.709486 
L 218.436928 105.6 
L 217.042676 108.96 
L 215.648425 112.32 
L 214.254173 115.68 
L 214 116.292531 
L 212.887508 119.04 
L 211.541548 122.4 
L 210.211338 125.76 
L 208.899707 129.12 
L 208.363636 130.493305 
L 207.588128 132.48 
L 206.287806 135.84 
L 205.002883 139.2 
L 203.732763 142.56 
L 202.727273 145.247677 
L 202.492019 145.92 
L 201.316315 149.28 
L 200.140612 152.64 
L 198.964908 156 
L 197.789204 159.36 
L 197.090909 161.355632 
L 196.718641 162.72 
L 195.805721 166.08 
L 194.898248 169.44 
L 193.996174 172.8 
L 193.09945 176.16 
L 192.185738 179.52 
L 191.454545 182.16393 
L 191.236882 182.88 
L 190.215543 186.24 
L 189.194205 189.6 
L 188.172866 192.96 
L 187.151528 196.32 
L 186.130189 199.68 
L 185.818182 200.706442 
L 185.21093 203.04 
L 184.331779 206.4 
L 183.446921 209.76 
L 182.556303 213.12 
L 181.659866 216.48 
L 180.757553 219.84 
L 180.181818 221.972456 
L 179.906642 223.2 
L 179.147484 226.56 
L 178.379485 229.92 
L 177.602491 233.28 
L 176.816341 236.64 
L 176.020874 240 
L 175.215923 243.36 
L 174.545455 246.128396 
L 174.388308 246.72 
L 173.492765 250.08 
L 172.596478 253.44 
L 171.700838 256.8 
L 170.805199 260.16 
L 169.909559 263.52 
L 169.013919 266.88 
L 168.909091 267.273265 
L 168.223356 270.24 
L 167.444136 273.6 
L 166.662156 276.96 
L 165.877402 280.32 
L 165.089859 283.68 
L 164.299511 287.04 
L 163.506344 290.4 
L 163.272727 291.387363 
L 162.743358 293.76 
L 162.00219 297.12 
L 161.270803 300.48 
L 160.549005 303.84 
L 159.836609 307.2 
L 159.133433 310.56 
L 158.439297 313.92 
L 157.75403 317.28 
L 157.636364 317.861295 
L 157.088314 320.64 
L 156.438357 324 
L 155.801936 327.36 
L 155.208946 330.72 
L 154.619259 334.08 
L 154.029572 337.44 
L 153.439885 340.8 
L 152.888123 344.16 
L 152.39957 347.52 
L 152 350.268026 
L 151.911017 350.88 
L 151.422465 354.24 
z
" clip-path="url(#p03795e4b5b)" style="fill: #2b758e"/>
    <path d="M 191.454545 322.701461 
L 195.626751 320.64 
L 197.090909 320.046548 
L 202.470436 317.28 
L 202.727273 317.147298 
L 208.363636 314.251403 
L 209.084036 313.92 
L 214 311.442829 
L 215.974808 310.56 
L 219.636364 308.802742 
L 223.311687 307.2 
L 225.272727 306.344826 
L 230.909091 303.906497 
L 231.064507 303.84 
L 236.545455 301.494758 
L 238.934211 300.48 
L 242.181818 299.093223 
L 246.83658 297.12 
L 247.818182 296.701709 
L 253.454545 294.344579 
L 254.918471 293.76 
L 259.090909 292.050063 
L 263.277281 290.4 
L 264.727273 289.813059 
L 270.363636 287.702143 
L 272.2018 287.04 
L 276 285.671814 
L 281.529442 283.68 
L 281.636364 283.641485 
L 281.799627 283.582674 
L 287.272727 280.32 
L 287.272727 276.96 
L 292.909091 273.6 
L 298.545455 270.24 
L 304.181818 266.88 
L 309.818182 263.52 
L 315.454545 260.16 
L 321.090909 256.8 
L 326.727273 253.44 
L 332.363636 250.08 
L 338 246.72 
L 343.636364 243.36 
L 349.272727 240 
L 354.909091 236.64 
L 360.545455 233.28 
L 362.97846 231.829615 
L 360.545455 232.706031 
L 358.952069 233.28 
L 354.909091 234.73636 
L 349.624427 236.64 
L 349.272727 236.766689 
L 343.636364 238.797018 
L 340.296785 240 
L 338 240.827347 
L 332.363636 242.966852 
L 331.427697 243.36 
L 326.727273 245.334446 
L 323.42878 246.72 
L 321.090909 247.702039 
L 315.454545 250.069723 
L 315.43035 250.08 
L 309.818182 252.451226 
L 307.495157 253.44 
L 304.181818 254.842936 
L 299.593476 256.8 
L 298.545455 257.244693 
L 292.909091 259.655201 
L 291.735337 260.16 
L 287.272727 262.072277 
L 283.925834 263.52 
L 281.636364 264.50365 
L 276.156613 266.88 
L 276 266.947462 
L 270.363636 269.404821 
L 268.540647 270.24 
L 264.727273 271.924718 
L 261.381083 273.6 
L 259.090909 274.643545 
L 254.542003 276.96 
L 253.454545 277.468108 
L 247.93189 280.32 
L 247.818182 280.376306 
L 242.181818 283.231809 
L 240.615103 283.68 
L 236.545455 285.491553 
L 233.721745 283.68 
L 235.119412 280.32 
L 236.51708 276.96 
L 236.545455 276.891787 
L 237.914747 273.6 
L 239.312415 270.24 
L 240.710082 266.88 
L 242.10775 263.52 
L 242.181818 263.341939 
L 243.505417 260.16 
L 245.079847 256.8 
L 246.679528 253.44 
L 247.818182 251.04835 
L 248.279209 250.08 
L 249.87889 246.72 
L 251.478571 243.36 
L 253.078252 240 
L 253.454545 239.209627 
L 254.677933 236.64 
L 256.277615 233.28 
L 257.877296 229.92 
L 259.090909 227.370904 
L 259.419591 226.56 
L 260.726284 223.2 
L 261.896341 219.84 
L 263.015204 216.48 
L 264.134068 213.12 
L 264.727273 211.338576 
L 265.308342 209.76 
L 266.556525 206.4 
L 267.82043 203.04 
L 269.100357 199.68 
L 270.363636 196.404945 
L 270.45564 196.32 
L 273.942567 192.96 
L 276 190.839874 
L 276.955717 189.6 
L 279.948942 186.24 
L 281.636364 184.631834 
L 282.432594 182.88 
L 283.786224 179.52 
L 284.890756 176.16 
L 285.995288 172.8 
L 287.09982 169.44 
L 287.272727 168.914012 
L 288.441232 166.08 
L 289.980491 162.72 
L 291.717135 159.36 
L 292.909091 157.278867 
L 294.238756 156 
L 297.732221 152.64 
L 298.545455 151.857836 
L 300.703242 149.28 
L 303.635702 145.92 
L 304.181818 145.311679 
L 305.903458 142.56 
L 307.955274 139.2 
L 309.818182 136.07061 
L 309.954097 135.84 
L 311.934386 132.48 
L 313.914676 129.12 
L 315.454545 126.50727 
L 315.894965 125.76 
L 317.875255 122.4 
L 319.855545 119.04 
L 321.090909 116.943931 
L 321.813022 115.68 
L 323.723599 112.32 
L 325.621104 108.96 
L 326.727273 106.990589 
L 327.536352 105.6 
L 329.561189 102.24 
L 331.702303 98.88 
L 332.363636 97.854092 
L 333.868268 95.52 
L 336.034233 92.16 
L 338 89.110563 
L 338.200199 88.8 
L 340.366164 85.44 
L 342.53213 82.08 
L 343.636364 80.367034 
L 344.783773 78.72 
L 347.030172 75.36 
L 349.158247 72 
L 349.272727 71.815377 
L 351.583361 68.64 
L 354.170615 65.28 
L 354.909091 64.317191 
L 356.963437 61.92 
L 359.800979 58.56 
L 360.545455 57.668894 
L 362.594484 55.2 
L 365.383077 51.84 
L 360.545455 51.84 
L 354.909091 51.84 
L 349.272727 51.84 
L 343.636364 51.84 
L 338 51.84 
L 332.363636 51.84 
L 326.727273 51.84 
L 321.090909 51.84 
L 315.454545 51.84 
L 309.818182 51.84 
L 304.181818 51.84 
L 302.207139 51.84 
L 300.011605 55.2 
L 298.545455 57.443765 
L 297.81607 58.56 
L 295.620535 61.92 
L 293.425 65.28 
L 292.909091 66.118981 
L 291.407588 68.64 
L 289.40728 72 
L 287.406972 75.36 
L 287.272727 75.585496 
L 284.891061 78.72 
L 281.91387 82.08 
L 281.636364 82.366285 
L 279.748266 85.44 
L 277.86191 88.8 
L 276.142127 92.16 
L 276 92.441634 
L 274.631911 95.52 
L 273.084158 98.88 
L 271.476301 102.24 
L 270.363636 104.491216 
L 269.885311 105.6 
L 268.435819 108.96 
L 266.986327 112.32 
L 265.536836 115.68 
L 264.727273 117.55661 
L 264.123301 119.04 
L 262.78159 122.4 
L 261.475239 125.76 
L 260.20287 129.12 
L 259.090909 132.12976 
L 258.935157 132.48 
L 257.440959 135.84 
L 255.946762 139.2 
L 254.452565 142.56 
L 253.454545 144.804244 
L 252.958367 145.92 
L 251.463722 149.28 
L 249.957997 152.64 
L 248.442571 156 
L 247.818182 157.378125 
L 246.929568 159.36 
L 245.407387 162.72 
L 243.86517 166.08 
L 242.302522 169.44 
L 242.181818 169.697698 
L 240.88391 172.8 
L 239.47819 176.16 
L 238.072469 179.52 
L 236.667354 182.88 
L 236.545455 183.16992 
L 235.261028 186.24 
L 233.855307 189.6 
L 232.449586 192.96 
L 231.043866 196.32 
L 230.909091 196.642143 
L 229.651782 199.68 
L 228.24768 203.04 
L 226.851381 206.4 
L 225.456098 209.76 
L 225.272727 210.201627 
L 224.154666 213.12 
L 222.852809 216.48 
L 221.535049 219.84 
L 220.201093 223.2 
L 219.636364 224.610117 
L 218.883994 226.56 
L 217.587526 229.92 
L 216.291059 233.28 
L 214.994591 236.64 
L 214 239.217637 
L 213.716114 240 
L 212.498919 243.36 
L 211.284969 246.72 
L 210.074253 250.08 
L 208.866756 253.44 
L 208.363636 254.84263 
L 207.666735 256.8 
L 206.470441 260.16 
L 205.274147 263.52 
L 204.077853 266.88 
L 202.881559 270.24 
L 202.727273 270.677238 
L 201.741285 273.6 
L 200.661245 276.96 
L 199.581206 280.32 
L 198.501167 283.68 
L 197.421127 287.04 
L 197.090909 288.067307 
L 196.341088 290.4 
L 195.261048 293.76 
L 194.181009 297.12 
L 193.100969 300.48 
L 192.140891 303.84 
L 191.454545 306.346403 
L 191.220799 307.2 
L 190.300708 310.56 
L 189.380616 313.92 
L 188.460525 317.28 
L 187.540433 320.64 
z
" clip-path="url(#p03795e4b5b)" style="fill: #21918c"/>
    <path d="M 236.545455 285.491553 
L 240.615103 283.68 
L 242.181818 283.231809 
L 247.818182 280.376306 
L 247.93189 280.32 
L 253.454545 277.468108 
L 254.542003 276.96 
L 259.090909 274.643545 
L 261.381083 273.6 
L 264.727273 271.924718 
L 268.540647 270.24 
L 270.363636 269.404821 
L 276 266.947462 
L 276.156613 266.88 
L 281.636364 264.50365 
L 283.925834 263.52 
L 287.272727 262.072277 
L 291.735337 260.16 
L 292.909091 259.655201 
L 298.545455 257.244693 
L 299.593476 256.8 
L 304.181818 254.842936 
L 307.495157 253.44 
L 309.818182 252.451226 
L 315.43035 250.08 
L 315.454545 250.069723 
L 321.090909 247.702039 
L 323.42878 246.72 
L 326.727273 245.334446 
L 331.427697 243.36 
L 332.363636 242.966852 
L 338 240.827347 
L 340.296785 240 
L 343.636364 238.797018 
L 349.272727 236.766689 
L 349.624427 236.64 
L 354.909091 234.73636 
L 358.952069 233.28 
L 360.545455 232.706031 
L 362.97846 231.829615 
L 366.181818 229.92 
L 371.818182 226.56 
L 377.454545 223.2 
L 377.454545 219.84 
L 383.090909 216.48 
L 388.727273 213.12 
L 394.363636 209.76 
L 400 206.4 
L 405.636364 203.04 
L 411.272727 199.68 
L 416.909091 196.32 
L 422.545455 192.96 
L 428.181818 189.6 
L 433.818182 186.24 
L 439.454545 182.88 
L 444.157294 180.076555 
L 439.454545 181.770578 
L 436.374696 182.88 
L 433.818182 183.800907 
L 428.181818 185.831236 
L 427.047054 186.24 
L 422.545455 187.861565 
L 417.719412 189.6 
L 416.909091 189.891894 
L 411.272727 191.968816 
L 408.720022 192.96 
L 405.636364 194.123244 
L 400.063774 196.32 
L 400 196.344444 
L 394.363636 198.709515 
L 392.053271 199.68 
L 388.727273 201.077108 
L 384.054354 203.04 
L 383.090909 203.444702 
L 377.454545 205.815752 
L 376.077393 206.4 
L 371.818182 208.197442 
L 368.142849 209.76 
L 366.181818 210.589366 
L 360.545455 212.992105 
L 360.246564 213.12 
L 354.909091 215.403904 
L 352.394261 216.48 
L 349.272727 217.815704 
L 344.541959 219.84 
L 343.636364 220.227504 
L 338 222.650067 
L 336.736114 223.2 
L 332.363636 225.091067 
L 328.995157 226.56 
L 326.727273 227.548983 
L 321.290182 229.92 
L 321.090909 230.0069 
L 315.454545 232.465187 
L 313.81563 233.28 
L 309.818182 235.082879 
L 306.74302 236.64 
L 304.181818 237.826698 
L 299.937082 240 
L 298.545455 240.665186 
L 296.220072 240 
L 298.135456 236.64 
L 298.545455 235.920773 
L 300.050839 233.28 
L 301.966223 229.92 
L 303.881606 226.56 
L 304.181818 226.033363 
L 305.79699 223.2 
L 307.712373 219.84 
L 309.750109 216.48 
L 309.818182 216.374113 
L 311.910196 213.12 
L 314.070283 209.76 
L 315.454545 207.606791 
L 316.230371 206.4 
L 318.390458 203.04 
L 320.550546 199.68 
L 321.090909 198.839469 
L 322.710633 196.32 
L 324.870721 192.96 
L 326.727273 190.072147 
L 326.968084 189.6 
L 328.628886 186.24 
L 330.202134 182.88 
L 331.694573 179.52 
L 332.363636 177.955515 
L 333.723599 176.16 
L 336.15397 172.8 
L 338 170.10893 
L 338.605846 169.44 
L 341.648977 166.08 
L 343.636364 163.885675 
L 344.49396 162.72 
L 347.159991 159.36 
L 349.272727 156.949171 
L 349.965413 156 
L 352.417475 152.64 
L 354.868367 149.28 
L 354.909091 149.2258 
L 356.801492 145.92 
L 358.551636 142.56 
L 360.14973 139.2 
L 360.545455 138.396706 
L 362.732586 135.84 
L 365.617391 132.48 
L 366.181818 131.822598 
L 368.502195 129.12 
L 371.387 125.76 
L 371.818182 125.257792 
L 374.271805 122.4 
L 377.156609 119.04 
L 377.454545 118.692987 
L 379.810858 115.68 
L 382.595726 112.32 
L 383.090909 111.743948 
L 385.193373 108.96 
L 387.852013 105.6 
L 388.727273 104.534954 
L 390.850286 102.24 
L 393.72998 98.88 
L 394.363636 98.114207 
L 396.510214 95.52 
L 399.290448 92.16 
L 400 91.302485 
L 402.070682 88.8 
L 404.850916 85.44 
L 405.636364 84.490762 
L 407.631151 82.08 
L 410.411385 78.72 
L 411.272727 77.67904 
L 413.027966 75.36 
L 415.608416 72 
L 416.909091 70.32823 
L 418.445764 68.64 
L 421.504129 65.28 
L 422.545455 64.144665 
L 424.677816 61.92 
L 427.928332 58.56 
L 428.181818 58.29892 
L 431.190602 55.2 
L 433.818182 52.493704 
L 434.452872 51.84 
L 433.818182 51.84 
L 428.181818 51.84 
L 422.545455 51.84 
L 416.909091 51.84 
L 411.272727 51.84 
L 405.636364 51.84 
L 400 51.84 
L 394.363636 51.84 
L 388.727273 51.84 
L 383.090909 51.84 
L 377.454545 51.84 
L 371.818182 51.84 
L 366.181818 51.84 
L 365.383077 51.84 
L 362.594484 55.2 
L 360.545455 57.668894 
L 359.800979 58.56 
L 356.963437 61.92 
L 354.909091 64.317191 
L 354.170615 65.28 
L 351.583361 68.64 
L 349.272727 71.815377 
L 349.158247 72 
L 347.030172 75.36 
L 344.783773 78.72 
L 343.636364 80.367034 
L 342.53213 82.08 
L 340.366164 85.44 
L 338.200199 88.8 
L 338 89.110563 
L 336.034233 92.16 
L 333.868268 95.52 
L 332.363636 97.854092 
L 331.702303 98.88 
L 329.561189 102.24 
L 327.536352 105.6 
L 326.727273 106.990589 
L 325.621104 108.96 
L 323.723599 112.32 
L 321.813022 115.68 
L 321.090909 116.943931 
L 319.855545 119.04 
L 317.875255 122.4 
L 315.894965 125.76 
L 315.454545 126.50727 
L 313.914676 129.12 
L 311.934386 132.48 
L 309.954097 135.84 
L 309.818182 136.07061 
L 307.955274 139.2 
L 305.903458 142.56 
L 304.181818 145.311679 
L 303.635702 145.92 
L 300.703242 149.28 
L 298.545455 151.857836 
L 297.732221 152.64 
L 294.238756 156 
L 292.909091 157.278867 
L 291.717135 159.36 
L 289.980491 162.72 
L 288.441232 166.08 
L 287.272727 168.914012 
L 287.09982 169.44 
L 285.995288 172.8 
L 284.890756 176.16 
L 283.786224 179.52 
L 282.432594 182.88 
L 281.636364 184.631834 
L 279.948942 186.24 
L 276.955717 189.6 
L 276 190.839874 
L 273.942567 192.96 
L 270.45564 196.32 
L 270.363636 196.404945 
L 269.100357 199.68 
L 267.82043 203.04 
L 266.556525 206.4 
L 265.308342 209.76 
L 264.727273 211.338576 
L 264.134068 213.12 
L 263.015204 216.48 
L 261.896341 219.84 
L 260.726284 223.2 
L 259.419591 226.56 
L 259.090909 227.370904 
L 257.877296 229.92 
L 256.277615 233.28 
L 254.677933 236.64 
L 253.454545 239.209627 
L 253.078252 240 
L 251.478571 243.36 
L 249.87889 246.72 
L 248.279209 250.08 
L 247.818182 251.04835 
L 246.679528 253.44 
L 245.079847 256.8 
L 243.505417 260.16 
L 242.181818 263.341939 
L 242.10775 263.52 
L 240.710082 266.88 
L 239.312415 270.24 
L 237.914747 273.6 
L 236.545455 276.891787 
L 236.51708 276.96 
L 235.119412 280.32 
L 233.721745 283.68 
z
" clip-path="url(#p03795e4b5b)" style="fill: #25ab82"/>
    <path d="M 298.545455 240.665186 
L 299.937082 240 
L 304.181818 237.826698 
L 306.74302 236.64 
L 309.818182 235.082879 
L 313.81563 233.28 
L 315.454545 232.465187 
L 321.090909 230.0069 
L 321.290182 229.92 
L 326.727273 227.548983 
L 328.995157 226.56 
L 332.363636 225.091067 
L 336.736114 223.2 
L 338 222.650067 
L 343.636364 220.227504 
L 344.541959 219.84 
L 349.272727 217.815704 
L 352.394261 216.48 
L 354.909091 215.403904 
L 360.246564 213.12 
L 360.545455 212.992105 
L 366.181818 210.589366 
L 368.142849 209.76 
L 371.818182 208.197442 
L 376.077393 206.4 
L 377.454545 205.815752 
L 383.090909 203.444702 
L 384.054354 203.04 
L 388.727273 201.077108 
L 392.053271 199.68 
L 394.363636 198.709515 
L 400 196.344444 
L 400.063774 196.32 
L 405.636364 194.123244 
L 408.720022 192.96 
L 411.272727 191.968816 
L 416.909091 189.891894 
L 417.719412 189.6 
L 422.545455 187.861565 
L 427.047054 186.24 
L 428.181818 185.831236 
L 433.818182 183.800907 
L 436.374696 182.88 
L 439.454545 181.770578 
L 444.157294 180.076555 
L 445.090909 179.52 
L 450.727273 176.16 
L 456.363636 172.8 
L 462 169.44 
L 467.636364 166.08 
L 467.636364 162.72 
L 473.272727 159.36 
L 478.909091 156 
L 484.545455 152.64 
L 490.181818 149.28 
L 495.818182 145.92 
L 501.454545 142.56 
L 507.090909 139.2 
L 512.727273 135.84 
L 518.363636 132.48 
L 524 129.12 
L 525.336127 128.323496 
L 524 128.804795 
L 523.124965 129.12 
L 518.363636 130.835124 
L 513.797323 132.48 
L 512.727273 132.865453 
L 507.090909 134.895782 
L 504.469681 135.84 
L 501.454545 136.926111 
L 495.818182 138.95644 
L 495.142039 139.2 
L 490.181818 140.986769 
L 485.814397 142.56 
L 484.545455 143.017098 
L 478.909091 145.161581 
L 477.045593 145.92 
L 473.272727 147.415605 
L 468.746415 149.28 
L 467.636364 149.725651 
L 462 152.084585 
L 460.677761 152.64 
L 456.363636 154.452178 
L 452.678845 156 
L 450.727273 156.819771 
L 445.090909 159.187364 
L 444.681665 159.36 
L 439.454545 161.558433 
L 436.713333 162.72 
L 433.818182 163.940329 
L 428.779526 166.08 
L 428.181818 166.332486 
L 422.545455 168.740808 
L 420.911447 169.44 
L 416.909091 171.152608 
L 413.059145 172.8 
L 411.272727 173.564408 
L 405.636364 175.976208 
L 405.206842 176.16 
L 400 178.388008 
L 397.36533 179.52 
L 394.363636 180.805905 
L 389.217068 179.52 
L 391.577547 176.16 
L 394.110711 172.8 
L 394.363636 172.464519 
L 396.717325 169.44 
L 399.557003 166.08 
L 400 165.58856 
L 402.606672 162.72 
L 405.35577 159.36 
L 405.636364 158.995465 
L 408.362918 156 
L 411.272727 152.803207 
L 411.421283 152.64 
L 414.479647 149.28 
L 416.909091 146.610949 
L 417.538012 145.92 
L 420.596377 142.56 
L 422.545455 140.418692 
L 423.654741 139.2 
L 426.713106 135.84 
L 428.181818 134.226434 
L 429.771471 132.48 
L 432.829835 129.12 
L 433.818182 128.034176 
L 435.897235 125.76 
L 438.990767 122.4 
L 439.454545 121.898715 
L 442.221569 119.04 
L 445.090909 116.08289 
L 445.480709 115.68 
L 448.744821 112.32 
L 450.727273 110.278422 
L 451.993727 108.96 
L 455.238576 105.6 
L 456.363636 104.441019 
L 458.483449 102.24 
L 461.719278 98.88 
L 462 98.588735 
L 464.955514 95.52 
L 467.636364 92.736452 
L 468.191547 92.16 
L 471.42758 88.8 
L 473.272727 86.884169 
L 474.684169 85.44 
L 477.965425 82.08 
L 478.909091 81.112998 
L 481.41032 78.72 
L 484.545455 75.739133 
L 484.947951 75.36 
L 488.515 72 
L 490.181818 70.429933 
L 492.085133 68.64 
L 495.694065 65.28 
L 495.818182 65.165226 
L 499.335188 61.92 
L 501.454545 59.964417 
L 502.976579 58.56 
L 506.617971 55.2 
L 507.090909 54.763608 
L 510.259362 51.84 
L 507.090909 51.84 
L 501.454545 51.84 
L 495.818182 51.84 
L 490.181818 51.84 
L 484.545455 51.84 
L 478.909091 51.84 
L 473.272727 51.84 
L 467.636364 51.84 
L 462 51.84 
L 456.363636 51.84 
L 450.727273 51.84 
L 445.090909 51.84 
L 439.454545 51.84 
L 434.452872 51.84 
L 433.818182 52.493704 
L 431.190602 55.2 
L 428.181818 58.29892 
L 427.928332 58.56 
L 424.677816 61.92 
L 422.545455 64.144665 
L 421.504129 65.28 
L 418.445764 68.64 
L 416.909091 70.32823 
L 415.608416 72 
L 413.027966 75.36 
L 411.272727 77.67904 
L 410.411385 78.72 
L 407.631151 82.08 
L 405.636364 84.490762 
L 404.850916 85.44 
L 402.070682 88.8 
L 400 91.302485 
L 399.290448 92.16 
L 396.510214 95.52 
L 394.363636 98.114207 
L 393.72998 98.88 
L 390.850286 102.24 
L 388.727273 104.534954 
L 387.852013 105.6 
L 385.193373 108.96 
L 383.090909 111.743948 
L 382.595726 112.32 
L 379.810858 115.68 
L 377.454545 118.692987 
L 377.156609 119.04 
L 374.271805 122.4 
L 371.818182 125.257792 
L 371.387 125.76 
L 368.502195 129.12 
L 366.181818 131.822598 
L 365.617391 132.48 
L 362.732586 135.84 
L 360.545455 138.396706 
L 360.14973 139.2 
L 358.551636 142.56 
L 356.801492 145.92 
L 354.909091 149.2258 
L 354.868367 149.28 
L 352.417475 152.64 
L 349.965413 156 
L 349.272727 156.949171 
L 347.159991 159.36 
L 344.49396 162.72 
L 343.636364 163.885675 
L 341.648977 166.08 
L 338.605846 169.44 
L 338 170.10893 
L 336.15397 172.8 
L 333.723599 176.16 
L 332.363636 177.955515 
L 331.694573 179.52 
L 330.202134 182.88 
L 328.628886 186.24 
L 326.968084 189.6 
L 326.727273 190.072147 
L 324.870721 192.96 
L 322.710633 196.32 
L 321.090909 198.839469 
L 320.550546 199.68 
L 318.390458 203.04 
L 316.230371 206.4 
L 315.454545 207.606791 
L 314.070283 209.76 
L 311.910196 213.12 
L 309.818182 216.374113 
L 309.750109 216.48 
L 307.712373 219.84 
L 305.79699 223.2 
L 304.181818 226.033363 
L 303.881606 226.56 
L 301.966223 229.92 
L 300.050839 233.28 
L 298.545455 235.920773 
L 298.135456 236.64 
L 296.220072 240 
z
M 387.338424 182.88 
L 388.727273 180.366622 
L 389.567402 182.88 
L 388.727273 183.240856 
z
" clip-path="url(#p03795e4b5b)" style="fill: #4ec36b"/>
    <path d="M 388.727273 183.240856 
L 389.567402 182.88 
L 388.727273 180.366622 
L 387.338424 182.88 
z
M 394.363636 180.805905 
L 397.36533 179.52 
L 400 178.388008 
L 405.206842 176.16 
L 405.636364 175.976208 
L 411.272727 173.564408 
L 413.059145 172.8 
L 416.909091 171.152608 
L 420.911447 169.44 
L 422.545455 168.740808 
L 428.181818 166.332486 
L 428.779526 166.08 
L 433.818182 163.940329 
L 436.713333 162.72 
L 439.454545 161.558433 
L 444.681665 159.36 
L 445.090909 159.187364 
L 450.727273 156.819771 
L 452.678845 156 
L 456.363636 154.452178 
L 460.677761 152.64 
L 462 152.084585 
L 467.636364 149.725651 
L 468.746415 149.28 
L 473.272727 147.415605 
L 477.045593 145.92 
L 478.909091 145.161581 
L 484.545455 143.017098 
L 485.814397 142.56 
L 490.181818 140.986769 
L 495.142039 139.2 
L 495.818182 138.95644 
L 501.454545 136.926111 
L 504.469681 135.84 
L 507.090909 134.895782 
L 512.727273 132.865453 
L 513.797323 132.48 
L 518.363636 130.835124 
L 523.124965 129.12 
L 524 128.804795 
L 525.336127 128.323496 
L 529.636364 125.76 
L 535.272727 122.4 
L 540.909091 119.04 
L 546.545455 115.68 
L 552.181818 112.32 
L 557.818182 108.96 
L 557.818182 105.6 
L 563.454545 102.24 
L 569.090909 98.88 
L 574.727273 95.52 
L 580.363636 92.16 
L 586 88.8 
L 591.636364 85.44 
L 597.272727 82.08 
L 602.909091 78.72 
L 606.51496 76.570437 
L 602.909091 77.869342 
L 600.547592 78.72 
L 597.272727 79.899671 
L 591.636364 81.93 
L 591.21995 82.08 
L 586 83.960329 
L 581.892308 85.44 
L 580.363636 85.990658 
L 574.727273 88.020987 
L 572.564666 88.8 
L 569.090909 90.051316 
L 563.454545 92.045467 
L 563.235113 92.16 
L 557.818182 94.104522 
L 553.909383 95.52 
L 552.181818 96.142303 
L 546.545455 96.033369 
L 546.078661 95.52 
L 546.545455 95.093422 
L 549.755425 92.16 
L 552.181818 90.134313 
L 553.782943 88.8 
L 557.694412 85.44 
L 557.818182 85.334378 
L 561.922093 82.08 
L 563.454545 80.813922 
L 566.102943 78.72 
L 569.090909 76.357601 
L 570.352677 75.36 
L 574.602411 72 
L 574.727273 71.90128 
L 578.852146 68.64 
L 580.363636 67.444959 
L 583.10188 65.28 
L 586 62.988637 
L 587.351614 61.92 
L 591.601349 58.56 
L 591.636364 58.532316 
L 595.851083 55.2 
L 597.272727 54.075995 
L 600.100817 51.84 
L 597.272727 51.84 
L 591.636364 51.84 
L 586 51.84 
L 580.363636 51.84 
L 574.727273 51.84 
L 569.090909 51.84 
L 563.454545 51.84 
L 557.818182 51.84 
L 552.181818 51.84 
L 546.545455 51.84 
L 540.909091 51.84 
L 535.272727 51.84 
L 529.636364 51.84 
L 524 51.84 
L 518.363636 51.84 
L 512.727273 51.84 
L 510.259362 51.84 
L 507.090909 54.763608 
L 506.617971 55.2 
L 502.976579 58.56 
L 501.454545 59.964417 
L 499.335188 61.92 
L 495.818182 65.165226 
L 495.694065 65.28 
L 492.085133 68.64 
L 490.181818 70.429933 
L 488.515 72 
L 484.947951 75.36 
L 484.545455 75.739133 
L 481.41032 78.72 
L 478.909091 81.112998 
L 477.965425 82.08 
L 474.684169 85.44 
L 473.272727 86.884169 
L 471.42758 88.8 
L 468.191547 92.16 
L 467.636364 92.736452 
L 464.955514 95.52 
L 462 98.588735 
L 461.719278 98.88 
L 458.483449 102.24 
L 456.363636 104.441019 
L 455.238576 105.6 
L 451.993727 108.96 
L 450.727273 110.278422 
L 448.744821 112.32 
L 445.480709 115.68 
L 445.090909 116.08289 
L 442.221569 119.04 
L 439.454545 121.898715 
L 438.990767 122.4 
L 435.897235 125.76 
L 433.818182 128.034176 
L 432.829835 129.12 
L 429.771471 132.48 
L 428.181818 134.226434 
L 426.713106 135.84 
L 423.654741 139.2 
L 422.545455 140.418692 
L 420.596377 142.56 
L 417.538012 145.92 
L 416.909091 146.610949 
L 414.479647 149.28 
L 411.421283 152.64 
L 411.272727 152.803207 
L 408.362918 156 
L 405.636364 158.995465 
L 405.35577 159.36 
L 402.606672 162.72 
L 400 165.58856 
L 399.557003 166.08 
L 396.717325 169.44 
L 394.363636 172.464519 
L 394.110711 172.8 
L 391.577547 176.16 
L 389.217068 179.52 
z
" clip-path="url(#p03795e4b5b)" style="fill: #90d743"/>
    <path d="M 546.545455 96.033369 
L 552.181818 96.142303 
L 553.909383 95.52 
L 557.818182 94.104522 
L 563.235113 92.16 
L 563.454545 92.045467 
L 569.090909 90.051316 
L 572.564666 88.8 
L 574.727273 88.020987 
L 580.363636 85.990658 
L 581.892308 85.44 
L 586 83.960329 
L 591.21995 82.08 
L 591.636364 81.93 
L 597.272727 79.899671 
L 600.547592 78.72 
L 602.909091 77.869342 
L 606.51496 76.570437 
L 608.545455 75.36 
L 614.181818 72 
L 619.818182 68.64 
L 625.454545 65.28 
L 631.090909 61.92 
L 636.727273 58.56 
L 642.363636 55.2 
L 648 51.84 
L 642.363636 51.84 
L 636.727273 51.84 
L 631.090909 51.84 
L 625.454545 51.84 
L 619.818182 51.84 
L 614.181818 51.84 
L 608.545455 51.84 
L 602.909091 51.84 
L 600.100817 51.84 
L 597.272727 54.075995 
L 595.851083 55.2 
L 591.636364 58.532316 
L 591.601349 58.56 
L 587.351614 61.92 
L 586 62.988637 
L 583.10188 65.28 
L 580.363636 67.444959 
L 578.852146 68.64 
L 574.727273 71.90128 
L 574.602411 72 
L 570.352677 75.36 
L 569.090909 76.357601 
L 566.102943 78.72 
L 563.454545 80.813922 
L 561.922093 82.08 
L 557.818182 85.334378 
L 557.694412 85.44 
L 553.782943 88.8 
L 552.181818 90.134313 
L 549.755425 92.16 
L 546.545455 95.093422 
L 546.078661 95.52 
z
" clip-path="url(#p03795e4b5b)" style="fill: #dae319"/>
   </g>
   <g id="matplotlib.axis_1">
    <g id="xtick_1">
     <g id="line2d_1">
      <path d="M 151.194967 384.48 
L 151.194967 51.84 
" clip-path="url(#p03795e4b5b)" style="fill: none; stroke: #b0b0b0; stroke-width: 0.8; stroke-linecap: square"/>
     </g>
     <g id="line2d_2">
      <defs>
       <path id="m043f31891a" d="M 0 0 
L 0 3.5 
" style="stroke: #000000; stroke-width: 0.8"/>
      </defs>
      <g>
       <use xlink:href="#m043f31891a" x="151.194967" y="384.48" style="stroke: #000000; stroke-width: 0.8"/>
      </g>
     </g>
     <g id="text_1">
      <!-- 1000 -->
      <g transform="translate(138.469967 399.078438) scale(0.1 -0.1)">
       <defs>
        <path id="DejaVuSans-31" d="M 794 531 
L 1825 531 
L 1825 4091 
L 703 3866 
L 703 4441 
L 1819 4666 
L 2450 4666 
L 2450 531 
L 3481 531 
L 3481 0 
L 794 0 
L 794 531 
z
" transform="scale(0.015625)"/>
        <path id="DejaVuSans-30" d="M 2034 4250 
Q 1547 4250 1301 3770 
Q 1056 3291 1056 2328 
Q 1056 1369 1301 889 
Q 1547 409 2034 409 
Q 2525 409 2770 889 
Q 3016 1369 3016 2328 
Q 3016 3291 2770 3770 
Q 2525 4250 2034 4250 
z
M 2034 4750 
Q 2819 4750 3233 4129 
Q 3647 3509 3647 2328 
Q 3647 1150 3233 529 
Q 2819 -91 2034 -91 
Q 1250 -91 836 529 
Q 422 1150 422 2328 
Q 422 3509 836 4129 
Q 1250 4750 2034 4750 
z
" transform="scale(0.015625)"/>
       </defs>
       <use xlink:href="#DejaVuSans-31"/>
       <use xlink:href="#DejaVuSans-30" x="63.623047"/>
       <use xlink:href="#DejaVuSans-30" x="127.246094"/>
       <use xlink:href="#DejaVuSans-30" x="190.869141"/>
      </g>
     </g>
    </g>
    <g id="xtick_2">
     <g id="line2d_3">
      <path d="M 222.086555 384.48 
L 222.086555 51.84 
" clip-path="url(#p03795e4b5b)" style="fill: none; stroke: #b0b0b0; stroke-width: 0.8; stroke-linecap: square"/>
     </g>
     <g id="line2d_4">
      <g>
       <use xlink:href="#m043f31891a" x="222.086555" y="384.48" style="stroke: #000000; stroke-width: 0.8"/>
      </g>
     </g>
     <g id="text_2">
      <!-- 2000 -->
      <g transform="translate(209.361555 399.078438) scale(0.1 -0.1)">
       <defs>
        <path id="DejaVuSans-32" d="M 1228 531 
L 3431 531 
L 3431 0 
L 469 0 
L 469 531 
Q 828 903 1448 1529 
Q 2069 2156 2228 2338 
Q 2531 2678 2651 2914 
Q 2772 3150 2772 3378 
Q 2772 3750 2511 3984 
Q 2250 4219 1831 4219 
Q 1534 4219 1204 4116 
Q 875 4013 500 3803 
L 500 4441 
Q 881 4594 1212 4672 
Q 1544 4750 1819 4750 
Q 2544 4750 2975 4387 
Q 3406 4025 3406 3419 
Q 3406 3131 3298 2873 
Q 3191 2616 2906 2266 
Q 2828 2175 2409 1742 
Q 1991 1309 1228 531 
z
" transform="scale(0.015625)"/>
       </defs>
       <use xlink:href="#DejaVuSans-32"/>
       <use xlink:href="#DejaVuSans-30" x="63.623047"/>
       <use xlink:href="#DejaVuSans-30" x="127.246094"/>
       <use xlink:href="#DejaVuSans-30" x="190.869141"/>
      </g>
     </g>
    </g>
    <g id="xtick_3">
     <g id="line2d_5">
      <path d="M 292.978143 384.48 
L 292.978143 51.84 
" clip-path="url(#p03795e4b5b)" style="fill: none; stroke: #b0b0b0; stroke-width: 0.8; stroke-linecap: square"/>
     </g>
     <g id="line2d_6">
      <g>
       <use xlink:href="#m043f31891a" x="292.978143" y="384.48" style="stroke: #000000; stroke-width: 0.8"/>
      </g>
     </g>
     <g id="text_3">
      <!-- 3000 -->
      <g transform="translate(280.253143 399.078438) scale(0.1 -0.1)">
       <defs>
        <path id="DejaVuSans-33" d="M 2597 2516 
Q 3050 2419 3304 2112 
Q 3559 1806 3559 1356 
Q 3559 666 3084 287 
Q 2609 -91 1734 -91 
Q 1441 -91 1130 -33 
Q 819 25 488 141 
L 488 750 
Q 750 597 1062 519 
Q 1375 441 1716 441 
Q 2309 441 2620 675 
Q 2931 909 2931 1356 
Q 2931 1769 2642 2001 
Q 2353 2234 1838 2234 
L 1294 2234 
L 1294 2753 
L 1863 2753 
Q 2328 2753 2575 2939 
Q 2822 3125 2822 3475 
Q 2822 3834 2567 4026 
Q 2313 4219 1838 4219 
Q 1578 4219 1281 4162 
Q 984 4106 628 3988 
L 628 4550 
Q 988 4650 1302 4700 
Q 1616 4750 1894 4750 
Q 2613 4750 3031 4423 
Q 3450 4097 3450 3541 
Q 3450 3153 3228 2886 
Q 3006 2619 2597 2516 
z
" transform="scale(0.015625)"/>
       </defs>
       <use xlink:href="#DejaVuSans-33"/>
       <use xlink:href="#DejaVuSans-30" x="63.623047"/>
       <use xlink:href="#DejaVuSans-30" x="127.246094"/>
       <use xlink:href="#DejaVuSans-30" x="190.869141"/>
      </g>
     </g>
    </g>
    <g id="xtick_4">
     <g id="line2d_7">
      <path d="M 363.869731 384.48 
L 363.869731 51.84 
" clip-path="url(#p03795e4b5b)" style="fill: none; stroke: #b0b0b0; stroke-width: 0.8; stroke-linecap: square"/>
     </g>
     <g id="line2d_8">
      <g>
       <use xlink:href="#m043f31891a" x="363.869731" y="384.48" style="stroke: #000000; stroke-width: 0.8"/>
      </g>
     </g>
     <g id="text_4">
      <!-- 4000 -->
      <g transform="translate(351.144731 399.078438) scale(0.1 -0.1)">
       <defs>
        <path id="DejaVuSans-34" d="M 2419 4116 
L 825 1625 
L 2419 1625 
L 2419 4116 
z
M 2253 4666 
L 3047 4666 
L 3047 1625 
L 3713 1625 
L 3713 1100 
L 3047 1100 
L 3047 0 
L 2419 0 
L 2419 1100 
L 313 1100 
L 313 1709 
L 2253 4666 
z
" transform="scale(0.015625)"/>
       </defs>
       <use xlink:href="#DejaVuSans-34"/>
       <use xlink:href="#DejaVuSans-30" x="63.623047"/>
       <use xlink:href="#DejaVuSans-30" x="127.246094"/>
       <use xlink:href="#DejaVuSans-30" x="190.869141"/>
      </g>
     </g>
    </g>
    <g id="xtick_5">
     <g id="line2d_9">
      <path d="M 434.761319 384.48 
L 434.761319 51.84 
" clip-path="url(#p03795e4b5b)" style="fill: none; stroke: #b0b0b0; stroke-width: 0.8; stroke-linecap: square"/>
     </g>
     <g id="line2d_10">
      <g>
       <use xlink:href="#m043f31891a" x="434.761319" y="384.48" style="stroke: #000000; stroke-width: 0.8"/>
      </g>
     </g>
     <g id="text_5">
      <!-- 5000 -->
      <g transform="translate(422.036319 399.078438) scale(0.1 -0.1)">
       <defs>
        <path id="DejaVuSans-35" d="M 691 4666 
L 3169 4666 
L 3169 4134 
L 1269 4134 
L 1269 2991 
Q 1406 3038 1543 3061 
Q 1681 3084 1819 3084 
Q 2600 3084 3056 2656 
Q 3513 2228 3513 1497 
Q 3513 744 3044 326 
Q 2575 -91 1722 -91 
Q 1428 -91 1123 -41 
Q 819 9 494 109 
L 494 744 
Q 775 591 1075 516 
Q 1375 441 1709 441 
Q 2250 441 2565 725 
Q 2881 1009 2881 1497 
Q 2881 1984 2565 2268 
Q 2250 2553 1709 2553 
Q 1456 2553 1204 2497 
Q 953 2441 691 2322 
L 691 4666 
z
" transform="scale(0.015625)"/>
       </defs>
       <use xlink:href="#DejaVuSans-35"/>
       <use xlink:href="#DejaVuSans-30" x="63.623047"/>
       <use xlink:href="#DejaVuSans-30" x="127.246094"/>
       <use xlink:href="#DejaVuSans-30" x="190.869141"/>
      </g>
     </g>
    </g>
    <g id="xtick_6">
     <g id="line2d_11">
      <path d="M 505.652907 384.48 
L 505.652907 51.84 
" clip-path="url(#p03795e4b5b)" style="fill: none; stroke: #b0b0b0; stroke-width: 0.8; stroke-linecap: square"/>
     </g>
     <g id="line2d_12">
      <g>
       <use xlink:href="#m043f31891a" x="505.652907" y="384.48" style="stroke: #000000; stroke-width: 0.8"/>
      </g>
     </g>
     <g id="text_6">
      <!-- 6000 -->
      <g transform="translate(492.927907 399.078438) scale(0.1 -0.1)">
       <defs>
        <path id="DejaVuSans-36" d="M 2113 2584 
Q 1688 2584 1439 2293 
Q 1191 2003 1191 1497 
Q 1191 994 1439 701 
Q 1688 409 2113 409 
Q 2538 409 2786 701 
Q 3034 994 3034 1497 
Q 3034 2003 2786 2293 
Q 2538 2584 2113 2584 
z
M 3366 4563 
L 3366 3988 
Q 3128 4100 2886 4159 
Q 2644 4219 2406 4219 
Q 1781 4219 1451 3797 
Q 1122 3375 1075 2522 
Q 1259 2794 1537 2939 
Q 1816 3084 2150 3084 
Q 2853 3084 3261 2657 
Q 3669 2231 3669 1497 
Q 3669 778 3244 343 
Q 2819 -91 2113 -91 
Q 1303 -91 875 529 
Q 447 1150 447 2328 
Q 447 3434 972 4092 
Q 1497 4750 2381 4750 
Q 2619 4750 2861 4703 
Q 3103 4656 3366 4563 
z
" transform="scale(0.015625)"/>
       </defs>
       <use xlink:href="#DejaVuSans-36"/>
       <use xlink:href="#DejaVuSans-30" x="63.623047"/>
       <use xlink:href="#DejaVuSans-30" x="127.246094"/>
       <use xlink:href="#DejaVuSans-30" x="190.869141"/>
      </g>
     </g>
    </g>
    <g id="xtick_7">
     <g id="line2d_13">
      <path d="M 576.544495 384.48 
L 576.544495 51.84 
" clip-path="url(#p03795e4b5b)" style="fill: none; stroke: #b0b0b0; stroke-width: 0.8; stroke-linecap: square"/>
     </g>
     <g id="line2d_14">
      <g>
       <use xlink:href="#m043f31891a" x="576.544495" y="384.48" style="stroke: #000000; stroke-width: 0.8"/>
      </g>
     </g>
     <g id="text_7">
      <!-- 7000 -->
      <g transform="translate(563.819495 399.078438) scale(0.1 -0.1)">
       <defs>
        <path id="DejaVuSans-37" d="M 525 4666 
L 3525 4666 
L 3525 4397 
L 1831 0 
L 1172 0 
L 2766 4134 
L 525 4134 
L 525 4666 
z
" transform="scale(0.015625)"/>
       </defs>
       <use xlink:href="#DejaVuSans-37"/>
       <use xlink:href="#DejaVuSans-30" x="63.623047"/>
       <use xlink:href="#DejaVuSans-30" x="127.246094"/>
       <use xlink:href="#DejaVuSans-30" x="190.869141"/>
      </g>
     </g>
    </g>
    <g id="xtick_8">
     <g id="line2d_15">
      <path d="M 647.436083 384.48 
L 647.436083 51.84 
" clip-path="url(#p03795e4b5b)" style="fill: none; stroke: #b0b0b0; stroke-width: 0.8; stroke-linecap: square"/>
     </g>
     <g id="line2d_16">
      <g>
       <use xlink:href="#m043f31891a" x="647.436083" y="384.48" style="stroke: #000000; stroke-width: 0.8"/>
      </g>
     </g>
     <g id="text_8">
      <!-- 8000 -->
      <g transform="translate(634.711083 399.078438) scale(0.1 -0.1)">
       <defs>
        <path id="DejaVuSans-38" d="M 2034 2216 
Q 1584 2216 1326 1975 
Q 1069 1734 1069 1313 
Q 1069 891 1326 650 
Q 1584 409 2034 409 
Q 2484 409 2743 651 
Q 3003 894 3003 1313 
Q 3003 1734 2745 1975 
Q 2488 2216 2034 2216 
z
M 1403 2484 
Q 997 2584 770 2862 
Q 544 3141 544 3541 
Q 544 4100 942 4425 
Q 1341 4750 2034 4750 
Q 2731 4750 3128 4425 
Q 3525 4100 3525 3541 
Q 3525 3141 3298 2862 
Q 3072 2584 2669 2484 
Q 3125 2378 3379 2068 
Q 3634 1759 3634 1313 
Q 3634 634 3220 271 
Q 2806 -91 2034 -91 
Q 1263 -91 848 271 
Q 434 634 434 1313 
Q 434 1759 690 2068 
Q 947 2378 1403 2484 
z
M 1172 3481 
Q 1172 3119 1398 2916 
Q 1625 2713 2034 2713 
Q 2441 2713 2670 2916 
Q 2900 3119 2900 3481 
Q 2900 3844 2670 4047 
Q 2441 4250 2034 4250 
Q 1625 4250 1398 4047 
Q 1172 3844 1172 3481 
z
" transform="scale(0.015625)"/>
       </defs>
       <use xlink:href="#DejaVuSans-38"/>
       <use xlink:href="#DejaVuSans-30" x="63.623047"/>
       <use xlink:href="#DejaVuSans-30" x="127.246094"/>
       <use xlink:href="#DejaVuSans-30" x="190.869141"/>
      </g>
     </g>
    </g>
    <g id="text_9">
     <!-- $\dot{W}_{eta}$ [W] -->
     <g transform="translate(326.5 425.79875) scale(0.2 -0.2)">
      <defs>
       <path id="DejaVuSans-307" d="M -1894 4863 
L -1319 4863 
L -1319 4134 
L -1894 4134 
L -1894 4863 
z
M -1600 3584 
L -1600 3584 
z
" transform="scale(0.015625)"/>
       <path id="DejaVuSans-Oblique-57" d="M 616 4666 
L 1228 4666 
L 1453 697 
L 3213 4666 
L 3916 4666 
L 4147 697 
L 5888 4666 
L 6528 4666 
L 4453 0 
L 3659 0 
L 3444 3891 
L 1697 0 
L 903 0 
L 616 4666 
z
" transform="scale(0.015625)"/>
       <path id="DejaVuSans-Oblique-65" d="M 3078 2063 
Q 3088 2113 3092 2166 
Q 3097 2219 3097 2272 
Q 3097 2653 2873 2875 
Q 2650 3097 2266 3097 
Q 1838 3097 1509 2826 
Q 1181 2556 1013 2059 
L 3078 2063 
z
M 3578 1613 
L 903 1613 
Q 884 1494 878 1425 
Q 872 1356 872 1306 
Q 872 872 1139 634 
Q 1406 397 1894 397 
Q 2269 397 2603 481 
Q 2938 566 3225 728 
L 3116 159 
Q 2806 34 2476 -28 
Q 2147 -91 1806 -91 
Q 1078 -91 686 257 
Q 294 606 294 1247 
Q 294 1794 489 2264 
Q 684 2734 1063 3103 
Q 1306 3334 1642 3459 
Q 1978 3584 2356 3584 
Q 2950 3584 3301 3228 
Q 3653 2872 3653 2272 
Q 3653 2128 3634 1964 
Q 3616 1800 3578 1613 
z
" transform="scale(0.015625)"/>
       <path id="DejaVuSans-Oblique-74" d="M 2706 3500 
L 2619 3053 
L 1472 3053 
L 1100 1153 
Q 1081 1047 1072 975 
Q 1063 903 1063 863 
Q 1063 663 1183 572 
Q 1303 481 1569 481 
L 2150 481 
L 2053 0 
L 1503 0 
Q 991 0 739 200 
Q 488 400 488 806 
Q 488 878 497 964 
Q 506 1050 525 1153 
L 897 3053 
L 409 3053 
L 500 3500 
L 978 3500 
L 1172 4494 
L 1747 4494 
L 1556 3500 
L 2706 3500 
z
" transform="scale(0.015625)"/>
       <path id="DejaVuSans-Oblique-61" d="M 3438 1997 
L 3047 0 
L 2472 0 
L 2578 531 
Q 2325 219 2001 64 
Q 1678 -91 1281 -91 
Q 834 -91 548 182 
Q 263 456 263 884 
Q 263 1497 752 1853 
Q 1241 2209 2100 2209 
L 2900 2209 
L 2931 2363 
Q 2938 2388 2941 2417 
Q 2944 2447 2944 2509 
Q 2944 2788 2717 2942 
Q 2491 3097 2081 3097 
Q 1800 3097 1504 3025 
Q 1209 2953 897 2809 
L 997 3341 
Q 1322 3463 1633 3523 
Q 1944 3584 2234 3584 
Q 2853 3584 3176 3315 
Q 3500 3047 3500 2534 
Q 3500 2431 3484 2292 
Q 3469 2153 3438 1997 
z
M 2816 1759 
L 2241 1759 
Q 1534 1759 1195 1570 
Q 856 1381 856 984 
Q 856 709 1029 553 
Q 1203 397 1509 397 
Q 1978 397 2328 733 
Q 2678 1069 2791 1631 
L 2816 1759 
z
" transform="scale(0.015625)"/>
       <path id="DejaVuSans-20" transform="scale(0.015625)"/>
       <path id="DejaVuSans-5b" d="M 550 4863 
L 1875 4863 
L 1875 4416 
L 1125 4416 
L 1125 -397 
L 1875 -397 
L 1875 -844 
L 550 -844 
L 550 4863 
z
" transform="scale(0.015625)"/>
       <path id="DejaVuSans-57" d="M 213 4666 
L 850 4666 
L 1831 722 
L 2809 4666 
L 3519 4666 
L 4500 722 
L 5478 4666 
L 6119 4666 
L 4947 0 
L 4153 0 
L 3169 4050 
L 2175 0 
L 1381 0 
L 213 4666 
z
" transform="scale(0.015625)"/>
       <path id="DejaVuSans-5d" d="M 1947 4863 
L 1947 -844 
L 622 -844 
L 622 -397 
L 1369 -397 
L 1369 4416 
L 622 4416 
L 622 4863 
L 1947 4863 
z
" transform="scale(0.015625)"/>
      </defs>
      <use xlink:href="#DejaVuSans-307" transform="translate(87.312988 30.015625)"/>
      <use xlink:href="#DejaVuSans-Oblique-57" transform="translate(0 0.609375)"/>
      <use xlink:href="#DejaVuSans-Oblique-65" transform="translate(99.833984 -15.796875) scale(0.7)"/>
      <use xlink:href="#DejaVuSans-Oblique-74" transform="translate(142.900391 -15.796875) scale(0.7)"/>
      <use xlink:href="#DejaVuSans-Oblique-61" transform="translate(170.34668 -15.796875) scale(0.7)"/>
      <use xlink:href="#DejaVuSans-20" transform="translate(215.976562 0.609375)"/>
      <use xlink:href="#DejaVuSans-5b" transform="translate(247.763672 0.609375)"/>
      <use xlink:href="#DejaVuSans-57" transform="translate(286.777344 0.609375)"/>
      <use xlink:href="#DejaVuSans-5d" transform="translate(385.654297 0.609375)"/>
     </g>
    </g>
   </g>
   <g id="matplotlib.axis_2">
    <g id="ytick_1">
     <g id="line2d_17">
      <path d="M 90 384.48 
L 648 384.48 
" clip-path="url(#p03795e4b5b)" style="fill: none; stroke: #b0b0b0; stroke-width: 0.8; stroke-linecap: square"/>
     </g>
     <g id="line2d_18">
      <defs>
       <path id="me093471acc" d="M 0 0 
L -3.5 0 
" style="stroke: #000000; stroke-width: 0.8"/>
      </defs>
      <g>
       <use xlink:href="#me093471acc" x="90" y="384.48" style="stroke: #000000; stroke-width: 0.8"/>
      </g>
     </g>
     <g id="text_10">
      <!-- 60 -->
      <g transform="translate(70.275 388.279219) scale(0.1 -0.1)">
       <use xlink:href="#DejaVuSans-36"/>
       <use xlink:href="#DejaVuSans-30" x="63.623047"/>
      </g>
     </g>
    </g>
    <g id="ytick_2">
     <g id="line2d_19">
      <path d="M 90 342.9 
L 648 342.9 
" clip-path="url(#p03795e4b5b)" style="fill: none; stroke: #b0b0b0; stroke-width: 0.8; stroke-linecap: square"/>
     </g>
     <g id="line2d_20">
      <g>
       <use xlink:href="#me093471acc" x="90" y="342.9" style="stroke: #000000; stroke-width: 0.8"/>
      </g>
     </g>
     <g id="text_11">
      <!-- 65 -->
      <g transform="translate(70.275 346.699219) scale(0.1 -0.1)">
       <use xlink:href="#DejaVuSans-36"/>
       <use xlink:href="#DejaVuSans-35" x="63.623047"/>
      </g>
     </g>
    </g>
    <g id="ytick_3">
     <g id="line2d_21">
      <path d="M 90 301.32 
L 648 301.32 
" clip-path="url(#p03795e4b5b)" style="fill: none; stroke: #b0b0b0; stroke-width: 0.8; stroke-linecap: square"/>
     </g>
     <g id="line2d_22">
      <g>
       <use xlink:href="#me093471acc" x="90" y="301.32" style="stroke: #000000; stroke-width: 0.8"/>
      </g>
     </g>
     <g id="text_12">
      <!-- 70 -->
      <g transform="translate(70.275 305.119219) scale(0.1 -0.1)">
       <use xlink:href="#DejaVuSans-37"/>
       <use xlink:href="#DejaVuSans-30" x="63.623047"/>
      </g>
     </g>
    </g>
    <g id="ytick_4">
     <g id="line2d_23">
      <path d="M 90 259.74 
L 648 259.74 
" clip-path="url(#p03795e4b5b)" style="fill: none; stroke: #b0b0b0; stroke-width: 0.8; stroke-linecap: square"/>
     </g>
     <g id="line2d_24">
      <g>
       <use xlink:href="#me093471acc" x="90" y="259.74" style="stroke: #000000; stroke-width: 0.8"/>
      </g>
     </g>
     <g id="text_13">
      <!-- 75 -->
      <g transform="translate(70.275 263.539219) scale(0.1 -0.1)">
       <use xlink:href="#DejaVuSans-37"/>
       <use xlink:href="#DejaVuSans-35" x="63.623047"/>
      </g>
     </g>
    </g>
    <g id="ytick_5">
     <g id="line2d_25">
      <path d="M 90 218.16 
L 648 218.16 
" clip-path="url(#p03795e4b5b)" style="fill: none; stroke: #b0b0b0; stroke-width: 0.8; stroke-linecap: square"/>
     </g>
     <g id="line2d_26">
      <g>
       <use xlink:href="#me093471acc" x="90" y="218.16" style="stroke: #000000; stroke-width: 0.8"/>
      </g>
     </g>
     <g id="text_14">
      <!-- 80 -->
      <g transform="translate(70.275 221.959219) scale(0.1 -0.1)">
       <use xlink:href="#DejaVuSans-38"/>
       <use xlink:href="#DejaVuSans-30" x="63.623047"/>
      </g>
     </g>
    </g>
    <g id="ytick_6">
     <g id="line2d_27">
      <path d="M 90 176.58 
L 648 176.58 
" clip-path="url(#p03795e4b5b)" style="fill: none; stroke: #b0b0b0; stroke-width: 0.8; stroke-linecap: square"/>
     </g>
     <g id="line2d_28">
      <g>
       <use xlink:href="#me093471acc" x="90" y="176.58" style="stroke: #000000; stroke-width: 0.8"/>
      </g>
     </g>
     <g id="text_15">
      <!-- 85 -->
      <g transform="translate(70.275 180.379219) scale(0.1 -0.1)">
       <use xlink:href="#DejaVuSans-38"/>
       <use xlink:href="#DejaVuSans-35" x="63.623047"/>
      </g>
     </g>
    </g>
    <g id="ytick_7">
     <g id="line2d_29">
      <path d="M 90 135 
L 648 135 
" clip-path="url(#p03795e4b5b)" style="fill: none; stroke: #b0b0b0; stroke-width: 0.8; stroke-linecap: square"/>
     </g>
     <g id="line2d_30">
      <g>
       <use xlink:href="#me093471acc" x="90" y="135" style="stroke: #000000; stroke-width: 0.8"/>
      </g>
     </g>
     <g id="text_16">
      <!-- 90 -->
      <g transform="translate(70.275 138.799219) scale(0.1 -0.1)">
       <defs>
        <path id="DejaVuSans-39" d="M 703 97 
L 703 672 
Q 941 559 1184 500 
Q 1428 441 1663 441 
Q 2288 441 2617 861 
Q 2947 1281 2994 2138 
Q 2813 1869 2534 1725 
Q 2256 1581 1919 1581 
Q 1219 1581 811 2004 
Q 403 2428 403 3163 
Q 403 3881 828 4315 
Q 1253 4750 1959 4750 
Q 2769 4750 3195 4129 
Q 3622 3509 3622 2328 
Q 3622 1225 3098 567 
Q 2575 -91 1691 -91 
Q 1453 -91 1209 -44 
Q 966 3 703 97 
z
M 1959 2075 
Q 2384 2075 2632 2365 
Q 2881 2656 2881 3163 
Q 2881 3666 2632 3958 
Q 2384 4250 1959 4250 
Q 1534 4250 1286 3958 
Q 1038 3666 1038 3163 
Q 1038 2656 1286 2365 
Q 1534 2075 1959 2075 
z
" transform="scale(0.015625)"/>
       </defs>
       <use xlink:href="#DejaVuSans-39"/>
       <use xlink:href="#DejaVuSans-30" x="63.623047"/>
      </g>
     </g>
    </g>
    <g id="ytick_8">
     <g id="line2d_31">
      <path d="M 90 93.42 
L 648 93.42 
" clip-path="url(#p03795e4b5b)" style="fill: none; stroke: #b0b0b0; stroke-width: 0.8; stroke-linecap: square"/>
     </g>
     <g id="line2d_32">
      <g>
       <use xlink:href="#me093471acc" x="90" y="93.42" style="stroke: #000000; stroke-width: 0.8"/>
      </g>
     </g>
     <g id="text_17">
      <!-- 95 -->
      <g transform="translate(70.275 97.219219) scale(0.1 -0.1)">
       <use xlink:href="#DejaVuSans-39"/>
       <use xlink:href="#DejaVuSans-35" x="63.623047"/>
      </g>
     </g>
    </g>
    <g id="ytick_9">
     <g id="line2d_33">
      <path d="M 90 51.84 
L 648 51.84 
" clip-path="url(#p03795e4b5b)" style="fill: none; stroke: #b0b0b0; stroke-width: 0.8; stroke-linecap: square"/>
     </g>
     <g id="line2d_34">
      <g>
       <use xlink:href="#me093471acc" x="90" y="51.84" style="stroke: #000000; stroke-width: 0.8"/>
      </g>
     </g>
     <g id="text_18">
      <!-- 100 -->
      <g transform="translate(63.9125 55.639219) scale(0.1 -0.1)">
       <use xlink:href="#DejaVuSans-31"/>
       <use xlink:href="#DejaVuSans-30" x="63.623047"/>
       <use xlink:href="#DejaVuSans-30" x="127.246094"/>
      </g>
     </g>
    </g>
    <g id="text_19">
     <!-- $T_{sto,HT}$ [C] -->
     <g transform="translate(54.9125 271.36) rotate(-90) scale(0.2 -0.2)">
      <defs>
       <path id="DejaVuSans-Oblique-54" d="M 378 4666 
L 4325 4666 
L 4225 4134 
L 2559 4134 
L 1759 0 
L 1125 0 
L 1925 4134 
L 275 4134 
L 378 4666 
z
" transform="scale(0.015625)"/>
       <path id="DejaVuSans-Oblique-73" d="M 3200 3397 
L 3091 2853 
Q 2863 2978 2609 3040 
Q 2356 3103 2088 3103 
Q 1634 3103 1373 2948 
Q 1113 2794 1113 2528 
Q 1113 2219 1719 2053 
Q 1766 2041 1788 2034 
L 1972 1978 
Q 2547 1819 2739 1644 
Q 2931 1469 2931 1166 
Q 2931 609 2489 259 
Q 2047 -91 1331 -91 
Q 1053 -91 747 -37 
Q 441 16 72 128 
L 184 722 
Q 500 559 806 475 
Q 1113 391 1394 391 
Q 1816 391 2080 572 
Q 2344 753 2344 1031 
Q 2344 1331 1650 1516 
L 1591 1531 
L 1394 1581 
Q 956 1697 753 1886 
Q 550 2075 550 2369 
Q 550 2928 970 3256 
Q 1391 3584 2113 3584 
Q 2397 3584 2667 3537 
Q 2938 3491 3200 3397 
z
" transform="scale(0.015625)"/>
       <path id="DejaVuSans-Oblique-6f" d="M 1625 -91 
Q 1009 -91 651 289 
Q 294 669 294 1325 
Q 294 1706 417 2101 
Q 541 2497 738 2766 
Q 1047 3184 1428 3384 
Q 1809 3584 2291 3584 
Q 2888 3584 3255 3212 
Q 3622 2841 3622 2241 
Q 3622 1825 3500 1412 
Q 3378 1000 3181 728 
Q 2875 309 2494 109 
Q 2113 -91 1625 -91 
z
M 891 1344 
Q 891 869 1089 633 
Q 1288 397 1691 397 
Q 2269 397 2648 901 
Q 3028 1406 3028 2181 
Q 3028 2634 2825 2865 
Q 2622 3097 2228 3097 
Q 1903 3097 1650 2945 
Q 1397 2794 1197 2484 
Q 1050 2253 970 1956 
Q 891 1659 891 1344 
z
" transform="scale(0.015625)"/>
       <path id="DejaVuSans-2c" d="M 750 794 
L 1409 794 
L 1409 256 
L 897 -744 
L 494 -744 
L 750 256 
L 750 794 
z
" transform="scale(0.015625)"/>
       <path id="DejaVuSans-Oblique-48" d="M 1081 4666 
L 1716 4666 
L 1344 2753 
L 3634 2753 
L 4006 4666 
L 4641 4666 
L 3731 0 
L 3097 0 
L 3531 2222 
L 1241 2222 
L 806 0 
L 172 0 
L 1081 4666 
z
" transform="scale(0.015625)"/>
       <path id="DejaVuSans-b0" d="M 1600 4347 
Q 1350 4347 1178 4173 
Q 1006 4000 1006 3750 
Q 1006 3503 1178 3333 
Q 1350 3163 1600 3163 
Q 1850 3163 2022 3333 
Q 2194 3503 2194 3750 
Q 2194 3997 2020 4172 
Q 1847 4347 1600 4347 
z
M 1600 4750 
Q 1800 4750 1984 4673 
Q 2169 4597 2303 4453 
Q 2447 4313 2519 4134 
Q 2591 3956 2591 3750 
Q 2591 3338 2302 3052 
Q 2013 2766 1594 2766 
Q 1172 2766 890 3047 
Q 609 3328 609 3750 
Q 609 4169 896 4459 
Q 1184 4750 1600 4750 
z
" transform="scale(0.015625)"/>
       <path id="DejaVuSans-43" d="M 4122 4306 
L 4122 3641 
Q 3803 3938 3442 4084 
Q 3081 4231 2675 4231 
Q 1875 4231 1450 3742 
Q 1025 3253 1025 2328 
Q 1025 1406 1450 917 
Q 1875 428 2675 428 
Q 3081 428 3442 575 
Q 3803 722 4122 1019 
L 4122 359 
Q 3791 134 3420 21 
Q 3050 -91 2638 -91 
Q 1578 -91 968 557 
Q 359 1206 359 2328 
Q 359 3453 968 4101 
Q 1578 4750 2638 4750 
Q 3056 4750 3426 4639 
Q 3797 4528 4122 4306 
z
" transform="scale(0.015625)"/>
      </defs>
      <use xlink:href="#DejaVuSans-Oblique-54" transform="translate(0 0.015625)"/>
      <use xlink:href="#DejaVuSans-Oblique-73" transform="translate(61.083984 -16.390625) scale(0.7)"/>
      <use xlink:href="#DejaVuSans-Oblique-74" transform="translate(97.553711 -16.390625) scale(0.7)"/>
      <use xlink:href="#DejaVuSans-Oblique-6f" transform="translate(125 -16.390625) scale(0.7)"/>
      <use xlink:href="#DejaVuSans-2c" transform="translate(167.827148 -16.390625) scale(0.7)"/>
      <use xlink:href="#DejaVuSans-Oblique-48" transform="translate(203.71582 -16.390625) scale(0.7)"/>
      <use xlink:href="#DejaVuSans-Oblique-54" transform="translate(256.352539 -16.390625) scale(0.7)"/>
      <use xlink:href="#DejaVuSans-20" transform="translate(301.845703 0.015625)"/>
      <use xlink:href="#DejaVuSans-5b" transform="translate(333.632812 0.015625)"/>
      <use xlink:href="#DejaVuSans-b0" transform="translate(372.646484 0.015625)"/>
      <use xlink:href="#DejaVuSans-43" transform="translate(422.646484 0.015625)"/>
      <use xlink:href="#DejaVuSans-5d" transform="translate(492.470703 0.015625)"/>
     </g>
    </g>
   </g>
   <g id="QuadContourSet_2">
    <path clip-path="url(#p03795e4b5b)" style="fill: none; stroke: #000000; stroke-width: 1.5"/>
    <path d="M 130.47832 82.08 
L 129.578958 85.44 
L 129.454545 85.904803 
L 128.679596 88.8 
L 127.780234 92.16 
L 126.88743 95.52 
L 125.998563 98.88 
L 125.109695 102.24 
L 124.232075 105.6 
L 123.818182 107.215389 
L 123.372205 108.96 
L 122.518912 112.32 
L 121.675523 115.68 
L 120.850967 119.04 
L 120.044402 122.4 
L 119.294023 125.76 
L 118.564665 129.12 
L 118.181818 130.922183 
L 117.866058 132.48 
L 117.20182 135.84 
L 116.566732 139.2 
L 115.97742 142.56 
L 115.4068 145.92 
L 114.852005 149.28 
L 114.312384 152.64 
L 113.787325 156 
L 113.282354 159.36 
L 112.830265 162.72 
L 112.545455 164.9131 
L 112.446833 166.08 
L 112.170153 169.44 
L 111.903822 172.8 
L 111.647269 176.16 
L 111.399966 179.52 
L 111.161422 182.88 
L 110.931179 186.24 
L 110.708812 189.6 
L 110.493923 192.96 
L 110.286141 196.32 
L 110.085119 199.68 
L 109.890533 203.04 
L 109.702079 206.4 
L 109.51947 209.76 
L 109.348766 213.12 
L 109.202565 216.48 
L 109.055604 219.84 
L 108.907878 223.2 
L 108.75938 226.56 
L 108.610105 229.92 
L 108.460046 233.28 
L 108.309197 236.64 
L 108.157551 240 
L 108.005104 243.36 
L 107.851847 246.72 
L 107.697775 250.08 
L 107.542882 253.44 
L 107.377425 256.8 
L 107.203179 260.16 
L 107.026845 263.52 
L 106.909091 265.741564 
L 106.845999 266.88 
L 106.659788 270.24 
L 106.473577 273.6 
L 106.287366 276.96 
L 106.101155 280.32 
L 105.914945 283.68 
L 105.728734 287.04 
L 105.542523 290.4 
L 105.356312 293.76 
L 105.170101 297.12 
L 104.98389 300.48 
L 104.8646 302.63249 
M 103.239799 331.927466 
L 103.120265 334.08 
L 102.933668 337.44 
L 102.74707 340.8 
L 102.560472 344.16 
L 102.373874 347.52 
L 102.187276 350.88 
L 102.008534 354.24 
L 101.872618 357.6 
L 101.739368 360.96 
L 101.611281 364.32 
L 101.484185 367.68 
L 101.357089 371.04 
L 101.272727 373.270242 
L 101.229993 374.4 
L 101.102897 377.76 
L 100.975801 381.12 
L 100.848705 384.48 
" clip-path="url(#p03795e4b5b)" style="fill: none; stroke: #000000; stroke-width: 1.5"/>
    <path d="M 185.072877 58.56 
L 184.173515 61.92 
L 183.274153 65.28 
L 182.374791 68.64 
L 181.475429 72 
L 180.576067 75.36 
L 180.181818 76.832905 
L 179.676704 78.72 
L 178.777342 82.08 
L 177.87798 85.44 
L 177.164515 88.105493 
M 169.668428 116.37863 
L 168.964379 119.04 
L 168.909091 119.248992 
L 168.075511 122.4 
L 167.186643 125.76 
L 166.306554 129.12 
L 165.444353 132.48 
L 164.585432 135.84 
L 163.726512 139.2 
L 163.272727 140.975153 
L 162.867591 142.56 
L 162.00867 145.92 
L 161.14975 149.28 
L 160.290829 152.64 
L 159.431909 156 
L 158.572988 159.36 
L 157.742709 162.72 
L 157.636364 163.153952 
L 156.923962 166.08 
L 156.105906 169.44 
L 155.287851 172.8 
L 154.469795 176.16 
L 153.651739 179.52 
L 152.833684 182.88 
L 152.015628 186.24 
L 152 186.304189 
L 151.217782 189.6 
L 150.442277 192.96 
L 149.692719 196.32 
L 148.993375 199.68 
L 148.294032 203.04 
L 147.594689 206.4 
L 146.895346 209.76 
L 146.363636 212.314602 
L 146.196003 213.12 
L 145.496659 216.48 
L 144.797316 219.84 
L 144.111893 223.2 
L 143.436782 226.56 
L 142.770743 229.92 
L 142.113595 233.28 
L 141.465162 236.64 
L 140.82527 240 
L 140.727273 240.518514 
L 140.190597 243.36 
L 139.55599 246.72 
L 138.921382 250.08 
L 138.286775 253.44 
L 137.652167 256.8 
L 137.04637 260.16 
L 136.47921 263.52 
L 135.928267 266.88 
L 135.392854 270.24 
L 135.090909 272.177579 
L 134.885901 273.6 
L 134.401638 276.96 
L 133.917375 280.32 
L 133.433112 283.68 
L 132.948849 287.04 
L 132.464586 290.4 
L 131.980323 293.76 
L 131.49606 297.12 
L 131.011797 300.48 
L 130.527534 303.84 
L 130.043271 307.2 
L 129.559008 310.56 
L 129.454545 311.331405 
L 129.143464 313.92 
L 128.755529 317.28 
L 128.367595 320.64 
L 127.97966 324 
L 127.591726 327.36 
L 127.203791 330.72 
L 126.815857 334.08 
L 126.427922 337.44 
L 126.039988 340.8 
L 125.652053 344.16 
L 125.264119 347.52 
L 124.876184 350.88 
L 124.48825 354.24 
L 124.099279 357.6 
L 123.818182 360.043629 
L 123.741411 360.96 
L 123.464197 364.32 
L 123.193522 367.68 
L 122.929113 371.04 
L 122.670754 374.4 
L 122.41869 377.76 
L 122.185459 381.12 
L 122.144665 382.117632 
" clip-path="url(#p03795e4b5b)" style="fill: none; stroke: #000000; stroke-width: 1.5"/>
    <path d="M 242.971055 51.84 
L 242.181818 53.520873 
L 241.393402 55.2 
L 239.815748 58.56 
L 238.238095 61.92 
L 236.660442 65.28 
L 236.545455 65.524894 
L 235.082789 68.64 
L 233.505135 72 
L 231.934499 75.36 
L 230.909091 77.588144 
L 230.390117 78.72 
L 228.849506 82.08 
L 227.308894 85.44 
L 225.768282 88.8 
L 225.272727 89.880782 
L 224.227671 92.16 
L 222.713124 95.52 
L 221.250245 98.88 
L 219.831254 102.24 
L 219.636364 102.709486 
L 218.436928 105.6 
L 217.042676 108.96 
L 215.648425 112.32 
L 214.254173 115.68 
L 214 116.292531 
L 212.887508 119.04 
L 211.541548 122.4 
L 210.211338 125.76 
L 208.899707 129.12 
L 208.363636 130.493305 
L 207.588128 132.48 
L 206.287806 135.84 
L 205.002883 139.2 
L 203.732763 142.56 
L 202.727273 145.247677 
L 202.492019 145.92 
L 201.316315 149.28 
L 200.140612 152.64 
L 198.964908 156 
L 197.789204 159.36 
L 197.090909 161.355632 
L 196.718641 162.72 
L 195.805721 166.08 
L 194.898248 169.44 
L 193.996174 172.8 
L 193.09945 176.16 
L 192.185738 179.52 
L 191.454545 182.16393 
L 191.236882 182.88 
L 190.215543 186.24 
L 189.194205 189.6 
L 188.172866 192.96 
L 187.151528 196.32 
L 186.130189 199.68 
L 185.818182 200.706442 
L 185.21093 203.04 
L 184.331779 206.4 
L 183.446921 209.76 
L 182.556303 213.12 
L 181.659866 216.48 
L 180.757553 219.84 
L 180.181818 221.972456 
L 179.906642 223.2 
L 179.147484 226.56 
L 178.379485 229.92 
L 177.602491 233.28 
L 176.816341 236.64 
L 176.020874 240 
L 175.215923 243.36 
L 174.569805 246.027853 
M 167.269771 274.34921 
L 166.662156 276.96 
L 165.877402 280.32 
L 165.089859 283.68 
L 164.299511 287.04 
L 163.506344 290.4 
L 163.272727 291.387363 
L 162.743358 293.76 
L 162.00219 297.12 
L 161.270803 300.48 
L 160.549005 303.84 
L 159.836609 307.2 
L 159.133433 310.56 
L 158.439297 313.92 
L 157.75403 317.28 
L 157.636364 317.861295 
L 157.088314 320.64 
L 156.438357 324 
L 155.801936 327.36 
L 155.208946 330.72 
L 154.619259 334.08 
L 154.029572 337.44 
L 153.439885 340.8 
L 152.888123 344.16 
L 152.39957 347.52 
L 152 350.268026 
L 151.911017 350.88 
L 151.422465 354.24 
L 152 355.257524 
L 154.665132 354.24 
L 157.636364 353.900336 
L 163.272727 351.013846 
L 163.571317 350.88 
L 168.909091 348.22642 
L 170.54379 347.52 
L 174.545455 345.765576 
L 178.293735 344.16 
L 180.181818 343.343814 
L 185.818182 340.97142 
L 186.268432 340.8 
L 191.454545 338.768596 
L 195.002092 337.44 
L 197.090909 336.634488 
" clip-path="url(#p03795e4b5b)" style="fill: none; stroke: #000000; stroke-width: 1.5"/>
    <path d="M 302.207139 51.84 
L 300.011605 55.2 
L 298.545455 57.443765 
L 297.81607 58.56 
L 295.620535 61.92 
L 293.425 65.28 
L 292.909091 66.118981 
L 291.407588 68.64 
L 289.40728 72 
L 287.406972 75.36 
L 287.272727 75.585496 
L 284.891061 78.72 
L 281.91387 82.08 
L 281.636364 82.366285 
L 279.748266 85.44 
L 277.86191 88.8 
L 276.142127 92.16 
L 276 92.441634 
L 274.631911 95.52 
L 273.084158 98.88 
L 271.476301 102.24 
L 270.363636 104.491216 
L 269.885311 105.6 
L 268.435819 108.96 
L 266.986327 112.32 
L 265.536836 115.68 
L 264.727273 117.55661 
L 264.123301 119.04 
L 262.78159 122.4 
L 261.475239 125.76 
L 260.20287 129.12 
L 259.090909 132.12976 
L 258.935157 132.48 
L 257.440959 135.84 
L 255.946762 139.2 
L 254.452565 142.56 
L 253.454545 144.804244 
L 252.958367 145.92 
L 251.463722 149.28 
L 249.957997 152.64 
L 248.442571 156 
L 248.380133 156.137809 
M 236.647512 182.927192 
L 236.545455 183.16992 
L 235.261028 186.24 
L 233.855307 189.6 
L 232.449586 192.96 
L 231.043866 196.32 
L 230.909091 196.642143 
L 229.651782 199.68 
L 228.24768 203.04 
L 226.851381 206.4 
L 225.456098 209.76 
L 225.272727 210.201627 
L 224.154666 213.12 
L 222.852809 216.48 
L 221.535049 219.84 
L 220.201093 223.2 
L 219.636364 224.610117 
L 218.883994 226.56 
L 217.587526 229.92 
L 216.291059 233.28 
L 214.994591 236.64 
L 214 239.217637 
L 213.716114 240 
L 212.498919 243.36 
L 211.284969 246.72 
L 210.074253 250.08 
L 208.866756 253.44 
L 208.363636 254.84263 
L 207.666735 256.8 
L 206.470441 260.16 
L 205.274147 263.52 
L 204.077853 266.88 
L 202.881559 270.24 
L 202.727273 270.677238 
L 201.741285 273.6 
L 200.661245 276.96 
L 199.581206 280.32 
L 198.501167 283.68 
L 197.421127 287.04 
L 197.090909 288.067307 
L 196.341088 290.4 
L 195.261048 293.76 
L 194.181009 297.12 
L 193.100969 300.48 
L 192.140891 303.84 
L 191.454545 306.346403 
L 191.220799 307.2 
L 190.300708 310.56 
L 189.380616 313.92 
L 188.460525 317.28 
L 187.540433 320.64 
L 191.454545 322.701461 
L 195.626751 320.64 
L 197.090909 320.046548 
L 202.470436 317.28 
L 202.727273 317.147298 
L 208.363636 314.251403 
L 209.084036 313.92 
L 214 311.442829 
L 215.974808 310.56 
L 219.636364 308.802742 
L 223.311687 307.2 
L 225.272727 306.344826 
L 230.909091 303.906497 
L 231.064507 303.84 
L 236.545455 301.494758 
L 238.934211 300.48 
L 242.181818 299.093223 
L 246.83658 297.12 
L 247.818182 296.701709 
L 253.454545 294.344579 
L 254.918471 293.76 
L 259.090909 292.050063 
L 263.277281 290.4 
L 264.727273 289.813059 
L 270.363636 287.702143 
L 272.2018 287.04 
L 276 285.671814 
L 281.529442 283.68 
L 281.636364 283.641485 
L 281.799627 283.582674 
" clip-path="url(#p03795e4b5b)" style="fill: none; stroke: #000000; stroke-width: 1.5"/>
    <path d="M 365.383077 51.84 
L 362.594484 55.2 
L 360.545455 57.668894 
L 359.800979 58.56 
L 356.963437 61.92 
L 354.909091 64.317191 
L 354.170615 65.28 
L 351.583361 68.64 
L 349.272727 71.815377 
L 349.158247 72 
L 347.030172 75.36 
L 344.783773 78.72 
L 343.636364 80.367034 
L 342.53213 82.08 
L 340.366164 85.44 
L 338.200199 88.8 
L 338 89.110563 
L 336.034233 92.16 
L 333.868268 95.52 
L 332.363636 97.854092 
L 331.702303 98.88 
L 329.561189 102.24 
L 327.536352 105.6 
L 326.727273 106.990589 
L 325.621104 108.96 
L 323.723599 112.32 
L 321.813022 115.68 
L 321.090909 116.943931 
L 319.855545 119.04 
L 317.875255 122.4 
L 315.894965 125.76 
L 315.454545 126.50727 
L 313.914676 129.12 
L 311.934386 132.48 
L 309.954097 135.84 
L 309.818182 136.07061 
L 307.955274 139.2 
L 305.903458 142.56 
L 304.181818 145.311679 
L 303.635702 145.92 
L 300.703242 149.28 
L 298.545455 151.857836 
L 297.732221 152.64 
L 294.238756 156 
L 292.909091 157.278867 
L 291.717135 159.36 
L 289.980491 162.72 
L 288.441232 166.08 
L 287.272727 168.914012 
L 287.09982 169.44 
L 285.995288 172.8 
L 284.890756 176.16 
L 283.786224 179.52 
L 282.432594 182.88 
L 281.636364 184.631834 
L 279.948942 186.24 
L 276.955717 189.6 
L 276 190.839874 
L 273.942567 192.96 
L 270.45564 196.32 
L 270.363636 196.404945 
L 269.100357 199.68 
L 267.82043 203.04 
L 266.556525 206.4 
L 265.308342 209.76 
L 264.727273 211.338576 
L 264.134068 213.12 
L 263.015204 216.48 
L 261.896341 219.84 
L 260.726284 223.2 
L 259.65085 225.965347 
M 247.167788 252.414448 
L 246.679528 253.44 
L 245.079847 256.8 
L 243.505417 260.16 
L 242.181818 263.341939 
L 242.10775 263.52 
L 240.710082 266.88 
L 239.312415 270.24 
L 237.914747 273.6 
L 236.545455 276.891787 
L 236.51708 276.96 
L 235.119412 280.32 
L 233.721745 283.68 
L 236.545455 285.491553 
L 240.615103 283.68 
L 242.181818 283.231809 
L 247.818182 280.376306 
L 247.93189 280.32 
L 253.454545 277.468108 
L 254.542003 276.96 
L 259.090909 274.643545 
L 261.381083 273.6 
L 264.727273 271.924718 
L 268.540647 270.24 
L 270.363636 269.404821 
L 276 266.947462 
L 276.156613 266.88 
L 281.636364 264.50365 
L 283.925834 263.52 
L 287.272727 262.072277 
L 291.735337 260.16 
L 292.909091 259.655201 
L 298.545455 257.244693 
L 299.593476 256.8 
L 304.181818 254.842936 
L 307.495157 253.44 
L 309.818182 252.451226 
L 315.43035 250.08 
L 315.454545 250.069723 
L 321.090909 247.702039 
L 323.42878 246.72 
L 326.727273 245.334446 
L 331.427697 243.36 
L 332.363636 242.966852 
L 338 240.827347 
L 340.296785 240 
L 343.636364 238.797018 
L 349.272727 236.766689 
L 349.624427 236.64 
L 354.909091 234.73636 
L 358.952069 233.28 
L 360.545455 232.706031 
L 362.97846 231.829615 
" clip-path="url(#p03795e4b5b)" style="fill: none; stroke: #000000; stroke-width: 1.5"/>
    <path d="M 434.452872 51.84 
L 433.818182 52.493704 
L 431.190602 55.2 
L 428.181818 58.29892 
L 427.928332 58.56 
L 424.677816 61.92 
L 422.545455 64.144665 
L 421.504129 65.28 
L 418.445764 68.64 
L 416.909091 70.32823 
L 415.608416 72 
L 413.027966 75.36 
L 411.272727 77.67904 
L 410.411385 78.72 
L 407.631151 82.08 
L 405.636364 84.490762 
L 404.850916 85.44 
L 402.070682 88.8 
L 400 91.302485 
L 399.290448 92.16 
L 396.510214 95.52 
L 394.363636 98.114207 
L 393.72998 98.88 
L 390.850286 102.24 
L 388.727273 104.534954 
L 387.852013 105.6 
L 385.193373 108.96 
L 383.090909 111.743948 
L 382.595726 112.32 
L 379.810858 115.68 
L 377.454545 118.692987 
L 377.156609 119.04 
L 374.271805 122.4 
L 371.818182 125.257792 
L 371.387 125.76 
L 368.502195 129.12 
L 366.181818 131.822598 
L 365.617391 132.48 
L 362.732586 135.84 
L 360.545455 138.396706 
L 360.14973 139.2 
L 358.551636 142.56 
L 356.801492 145.92 
L 354.909091 149.2258 
L 354.868367 149.28 
L 352.417475 152.64 
L 349.965413 156 
L 349.272727 156.949171 
L 347.159991 159.36 
L 344.49396 162.72 
L 343.636364 163.885675 
L 341.648977 166.08 
L 338.605846 169.44 
L 338 170.10893 
L 336.15397 172.8 
L 333.723599 176.16 
L 332.363636 177.955515 
L 331.694573 179.52 
L 330.202134 182.88 
L 328.628886 186.24 
L 326.968084 189.6 
L 326.727273 190.072147 
L 324.870721 192.96 
L 322.710633 196.32 
L 321.090909 198.839469 
L 320.550546 199.68 
L 318.390458 203.04 
L 316.230371 206.4 
L 315.454545 207.606791 
L 314.070283 209.76 
L 311.910196 213.12 
L 309.818182 216.374113 
L 309.750109 216.48 
L 307.712373 219.84 
L 305.79699 223.2 
L 304.181818 226.033363 
L 303.881606 226.56 
L 301.966223 229.92 
L 300.050839 233.28 
L 298.545455 235.920773 
L 298.135456 236.64 
L 296.220072 240 
L 298.545455 240.665186 
L 299.937082 240 
L 304.181818 237.826698 
L 306.74302 236.64 
L 309.818182 235.082879 
L 313.81563 233.28 
L 315.454545 232.465187 
L 321.090909 230.0069 
L 321.290182 229.92 
L 326.727273 227.548983 
L 328.995157 226.56 
L 332.363636 225.091067 
L 336.736114 223.2 
L 338 222.650067 
L 343.636364 220.227504 
L 344.541959 219.84 
L 349.272727 217.815704 
L 352.394261 216.48 
L 354.909091 215.403904 
L 358.320614 213.944114 
M 385.337102 202.501173 
L 388.727273 201.077108 
L 392.053271 199.68 
L 394.363636 198.709515 
L 400 196.344444 
L 400.063774 196.32 
L 405.636364 194.123244 
L 408.720022 192.96 
L 411.272727 191.968816 
L 416.909091 189.891894 
L 417.719412 189.6 
L 422.545455 187.861565 
L 427.047054 186.24 
L 428.181818 185.831236 
L 433.818182 183.800907 
L 436.374696 182.88 
L 439.454545 181.770578 
L 444.157294 180.076555 
" clip-path="url(#p03795e4b5b)" style="fill: none; stroke: #000000; stroke-width: 1.5"/>
    <path d="M 510.259362 51.84 
L 507.090909 54.763608 
L 506.617971 55.2 
L 502.976579 58.56 
L 501.454545 59.964417 
L 499.335188 61.92 
L 495.818182 65.165226 
L 495.694065 65.28 
L 492.085133 68.64 
L 490.181818 70.429933 
L 488.515 72 
L 484.947951 75.36 
L 484.545455 75.739133 
L 481.41032 78.72 
L 478.909091 81.112998 
L 477.965425 82.08 
L 474.684169 85.44 
L 473.272727 86.884169 
L 471.42758 88.8 
L 468.191547 92.16 
L 467.636364 92.736452 
L 464.955514 95.52 
L 462 98.588735 
L 461.719278 98.88 
L 458.483449 102.24 
L 456.363636 104.441019 
L 455.238576 105.6 
L 451.993727 108.96 
L 450.727273 110.278422 
L 448.744821 112.32 
L 445.480709 115.68 
L 445.090909 116.08289 
L 442.221569 119.04 
L 439.454545 121.898715 
L 438.990767 122.4 
L 435.897235 125.76 
L 433.818182 128.034176 
L 432.829835 129.12 
L 429.771471 132.48 
L 428.181818 134.226434 
L 426.713106 135.84 
L 423.654741 139.2 
L 422.545455 140.418692 
L 420.596377 142.56 
L 417.538012 145.92 
L 416.909091 146.610949 
L 414.479647 149.28 
L 411.421283 152.64 
L 411.272727 152.803207 
L 408.362918 156 
L 405.636364 158.995465 
L 405.35577 159.36 
L 402.606672 162.72 
L 400 165.58856 
L 399.557003 166.08 
L 396.717325 169.44 
L 394.363636 172.464519 
L 394.110711 172.8 
L 391.577547 176.16 
L 389.217068 179.52 
L 394.363636 180.805905 
L 397.36533 179.52 
L 400 178.388008 
L 405.206842 176.16 
L 405.636364 175.976208 
L 411.272727 173.564408 
L 413.059145 172.8 
L 416.909091 171.152608 
L 420.911447 169.44 
L 422.545455 168.740808 
L 428.181818 166.332486 
L 428.779526 166.08 
L 431.208355 165.048595 
M 458.165119 153.695453 
L 460.677761 152.64 
L 462 152.084585 
L 467.636364 149.725651 
L 468.746415 149.28 
L 473.272727 147.415605 
L 477.045593 145.92 
L 478.909091 145.161581 
L 484.545455 143.017098 
L 485.814397 142.56 
L 490.181818 140.986769 
L 495.142039 139.2 
L 495.818182 138.95644 
L 501.454545 136.926111 
L 504.469681 135.84 
L 507.090909 134.895782 
L 512.727273 132.865453 
L 513.797323 132.48 
L 518.363636 130.835124 
L 523.124965 129.12 
L 524 128.804795 
L 525.336127 128.323496 
M 388.727273 183.240856 
L 389.567402 182.88 
L 388.727273 180.366622 
L 387.338424 182.88 
L 388.727273 183.240856 
z
" clip-path="url(#p03795e4b5b)" style="fill: none; stroke: #000000; stroke-width: 1.5"/>
    <path d="M 600.100817 51.84 
L 597.272727 54.075995 
L 595.851083 55.2 
L 591.636364 58.532316 
L 591.601349 58.56 
L 587.351614 61.92 
L 586 62.988637 
L 583.10188 65.28 
L 580.363636 67.444959 
L 578.852146 68.64 
L 574.962258 71.715491 
M 552.150244 90.160673 
L 549.755425 92.16 
L 546.545455 95.093422 
L 546.078661 95.52 
L 546.545455 96.033369 
L 552.181818 96.142303 
L 553.909383 95.52 
L 557.818182 94.104522 
L 563.235113 92.16 
L 563.454545 92.045467 
L 569.090909 90.051316 
L 572.564666 88.8 
L 574.727273 88.020987 
L 580.363636 85.990658 
L 581.892308 85.44 
L 586 83.960329 
L 591.21995 82.08 
L 591.636364 81.93 
L 597.272727 79.899671 
L 600.547592 78.72 
L 602.909091 77.869342 
L 606.51496 76.570437 
" clip-path="url(#p03795e4b5b)" style="fill: none; stroke: #000000; stroke-width: 1.5"/>
    <path clip-path="url(#p03795e4b5b)" style="fill: none; stroke: #000000; stroke-width: 1.5"/>
   </g>
   <g id="patch_3">
    <path d="M 90 384.48 
L 90 51.84 
" style="fill: none; stroke: #000000; stroke-width: 0.8; stroke-linejoin: miter; stroke-linecap: square"/>
   </g>
   <g id="patch_4">
    <path d="M 648 384.48 
L 648 51.84 
" style="fill: none; stroke: #000000; stroke-width: 0.8; stroke-linejoin: miter; stroke-linecap: square"/>
   </g>
   <g id="patch_5">
    <path d="M 90 384.48 
L 648 384.48 
" style="fill: none; stroke: #000000; stroke-width: 0.8; stroke-linejoin: miter; stroke-linecap: square"/>
   </g>
   <g id="patch_6">
    <path d="M 90 51.84 
L 648 51.84 
" style="fill: none; stroke: #000000; stroke-width: 0.8; stroke-linejoin: miter; stroke-linecap: square"/>
   </g>
   <g id="text_20">
    <g clip-path="url(#p03795e4b5b)">
     <!-- 0.01 -->
     <g transform="translate(106.191219 328.548538) rotate(-86.825441) scale(0.1 -0.1)">
      <defs>
       <path id="DejaVuSans-2e" d="M 684 794 
L 1344 794 
L 1344 0 
L 684 0 
L 684 794 
z
" transform="scale(0.015625)"/>
      </defs>
      <use xlink:href="#DejaVuSans-30"/>
      <use xlink:href="#DejaVuSans-2e" x="63.623047"/>
      <use xlink:href="#DejaVuSans-30" x="95.410156"/>
      <use xlink:href="#DejaVuSans-31" x="159.033203"/>
     </g>
    </g>
   </g>
   <g id="text_21">
    <g clip-path="url(#p03795e4b5b)">
     <!-- 0.02 -->
     <g transform="translate(173.226266 113.708233) rotate(-75.167778) scale(0.1 -0.1)">
      <use xlink:href="#DejaVuSans-30"/>
      <use xlink:href="#DejaVuSans-2e" x="63.623047"/>
      <use xlink:href="#DejaVuSans-30" x="95.410156"/>
      <use xlink:href="#DejaVuSans-32" x="159.033203"/>
     </g>
    </g>
   </g>
   <g id="text_22">
    <g clip-path="url(#p03795e4b5b)">
     <!-- 0.03 -->
     <g transform="translate(170.667027 271.628852) rotate(-75.388993) scale(0.1 -0.1)">
      <use xlink:href="#DejaVuSans-30"/>
      <use xlink:href="#DejaVuSans-2e" x="63.623047"/>
      <use xlink:href="#DejaVuSans-30" x="95.410156"/>
      <use xlink:href="#DejaVuSans-33" x="159.033203"/>
     </g>
    </g>
   </g>
   <g id="text_23">
    <g clip-path="url(#p03795e4b5b)">
     <!-- 0.04 -->
     <g transform="translate(240.352096 180.742633) rotate(-66.288477) scale(0.1 -0.1)">
      <use xlink:href="#DejaVuSans-30"/>
      <use xlink:href="#DejaVuSans-2e" x="63.623047"/>
      <use xlink:href="#DejaVuSans-30" x="95.410156"/>
      <use xlink:href="#DejaVuSans-34" x="159.033203"/>
     </g>
    </g>
   </g>
   <g id="text_24">
    <g clip-path="url(#p03795e4b5b)">
     <!-- 0.05 -->
     <g transform="translate(251.160376 250.447529) rotate(-64.541088) scale(0.1 -0.1)">
      <use xlink:href="#DejaVuSans-30"/>
      <use xlink:href="#DejaVuSans-2e" x="63.623047"/>
      <use xlink:href="#DejaVuSans-30" x="95.410156"/>
      <use xlink:href="#DejaVuSans-35" x="159.033203"/>
     </g>
    </g>
   </g>
   <g id="text_25">
    <g clip-path="url(#p03795e4b5b)">
     <!-- 0.06 -->
     <g transform="translate(362.642688 215.079592) rotate(-22.951245) scale(0.1 -0.1)">
      <use xlink:href="#DejaVuSans-30"/>
      <use xlink:href="#DejaVuSans-2e" x="63.623047"/>
      <use xlink:href="#DejaVuSans-30" x="95.410156"/>
      <use xlink:href="#DejaVuSans-36" x="159.033203"/>
     </g>
    </g>
   </g>
   <g id="text_26">
    <g clip-path="url(#p03795e4b5b)">
     <!-- 0.07 -->
     <g transform="translate(435.491068 166.221966) rotate(-22.825316) scale(0.1 -0.1)">
      <use xlink:href="#DejaVuSans-30"/>
      <use xlink:href="#DejaVuSans-2e" x="63.623047"/>
      <use xlink:href="#DejaVuSans-30" x="95.410156"/>
      <use xlink:href="#DejaVuSans-37" x="159.033203"/>
     </g>
    </g>
   </g>
   <g id="text_27">
    <g clip-path="url(#p03795e4b5b)">
     <!-- 0.08 -->
     <g transform="translate(556.517701 89.948136) rotate(-38.864913) scale(0.1 -0.1)">
      <use xlink:href="#DejaVuSans-30"/>
      <use xlink:href="#DejaVuSans-2e" x="63.623047"/>
      <use xlink:href="#DejaVuSans-30" x="95.410156"/>
      <use xlink:href="#DejaVuSans-38" x="159.033203"/>
     </g>
    </g>
   </g>
  </g>
 </g>
 <defs>
  <clipPath id="p03795e4b5b">
   <rect x="90" y="51.84" width="558" height="332.64"/>
  </clipPath>
 </defs>
</svg>
